<?xml version="1.0" encoding="UTF-8" standalone="no"?>
<!DOCTYPE svg PUBLIC "-//W3C//DTD SVG 1.1//EN"
 "http://www.w3.org/Graphics/SVG/1.1/DTD/svg11.dtd">
<!-- Generated by graphviz version 2.47.0 (20210316.0004)
 -->
<!-- Title: dependencies Pages: 1 -->
<svg width="514pt" height="284pt"
 viewBox="0.00 0.00 514.00 284.00" xmlns="http://www.w3.org/2000/svg" xmlns:xlink="http://www.w3.org/1999/xlink">
<g id="graph0" class="graph" transform="scale(1 1) rotate(0) translate(4 280)">
<title>dependencies</title>
<polygon fill="white" stroke="transparent" points="-4,4 -4,-280 510,-280 510,4 -4,4"/>
<text text-anchor="start" x="232.01" y="-42.4" font-family="Times-12" font-weight="bold" font-size="14.00">Legend</text>
<polygon fill="#ffffb3" stroke="transparent" points="19,-10 19,-30 39,-30 39,-10 19,-10"/>
<text text-anchor="start" x="42.63" y="-15.4" font-family="Times-12" font-size="14.00"> &#160;Declarations</text>
<polygon fill="#8dd3c7" stroke="transparent" points="132,-10 132,-30 152,-30 152,-10 132,-10"/>
<text text-anchor="start" x="155.73" y="-15.4" font-family="Times-12" font-size="14.00"> &#160;Module</text>
<polygon fill="#80b1d3" stroke="transparent" points="218,-10 218,-30 238,-30 238,-10 218,-10"/>
<text text-anchor="start" x="241.78" y="-15.4" font-family="Times-12" font-size="14.00"> &#160;Bootstrap</text>
<polygon fill="#fdb462" stroke="transparent" points="315,-10 315,-30 335,-30 335,-10 315,-10"/>
<text text-anchor="start" x="338.67" y="-15.4" font-family="Times-12" font-size="14.00"> &#160;Providers</text>
<polygon fill="#fb8072" stroke="transparent" points="411,-10 411,-30 431,-30 431,-10 411,-10"/>
<text text-anchor="start" x="434.73" y="-15.4" font-family="Times-12" font-size="14.00"> &#160;Exports</text>
<g id="clust1" class="cluster">
<title>cluster_AtftHelperModule</title>
<polygon fill="none" stroke="black" stroke-dasharray="1,5" points="8,-70 8,-268 498,-268 498,-70 8,-70"/>
</g>
<g id="clust2" class="cluster">
<title>cluster_AtftHelperModule_declarations</title>
<polygon fill="none" stroke="black" points="20,-78 20,-130 484,-130 484,-78 20,-78"/>
</g>
<g id="clust7" class="cluster">
<title>cluster_AtftHelperModule_exports</title>
<polygon fill="none" stroke="black" points="16,-208 16,-260 490,-260 490,-208 16,-208"/>
</g>
<!-- AxesHelperComponent -->
<g id="node1" class="node">
<title>AxesHelperComponent</title>
<polygon fill="#ffffb3" stroke="black" points="476.19,-122 327.81,-122 327.81,-86 476.19,-86 476.19,-122"/>
<text text-anchor="middle" x="402" y="-99.8" font-family="Times,serif" font-size="14.00">AxesHelperComponent</text>
</g>
<!-- AtftHelperModule -->
<g id="node4" class="node">
<title>AtftHelperModule</title>
<polygon fill="#8dd3c7" stroke="black" points="311.19,-187 308.19,-191 287.19,-191 284.19,-187 190.81,-187 190.81,-151 311.19,-151 311.19,-187"/>
<text text-anchor="middle" x="251" y="-164.8" font-family="Times,serif" font-size="14.00">AtftHelperModule</text>
</g>
<!-- AxesHelperComponent&#45;&gt;AtftHelperModule -->
<g id="edge1" class="edge">
<title>AxesHelperComponent&#45;&gt;AtftHelperModule</title>
<path fill="none" stroke="black" d="M427.45,-122.02C427.45,-139.37 427.45,-163 427.45,-163 427.45,-163 321.23,-163 321.23,-163"/>
<polygon fill="black" stroke="black" points="321.23,-159.5 311.23,-163 321.23,-166.5 321.23,-159.5"/>
</g>
<!-- EmptyComponent -->
<g id="node2" class="node">
<title>EmptyComponent</title>
<polygon fill="#ffffb3" stroke="black" points="310.17,-122 191.83,-122 191.83,-86 310.17,-86 310.17,-122"/>
<text text-anchor="middle" x="251" y="-99.8" font-family="Times,serif" font-size="14.00">EmptyComponent</text>
</g>
<!-- EmptyComponent&#45;&gt;AtftHelperModule -->
<g id="edge2" class="edge">
<title>EmptyComponent&#45;&gt;AtftHelperModule</title>
<path fill="none" stroke="black" d="M251,-122.11C251,-122.11 251,-140.99 251,-140.99"/>
<polygon fill="black" stroke="black" points="247.5,-140.99 251,-150.99 254.5,-140.99 247.5,-140.99"/>
</g>
<!-- GridHelperComponent -->
<g id="node3" class="node">
<title>GridHelperComponent</title>
<polygon fill="#ffffb3" stroke="black" points="173.58,-122 28.42,-122 28.42,-86 173.58,-86 173.58,-122"/>
<text text-anchor="middle" x="101" y="-99.8" font-family="Times,serif" font-size="14.00">GridHelperComponent</text>
</g>
<!-- GridHelperComponent&#45;&gt;AtftHelperModule -->
<g id="edge3" class="edge">
<title>GridHelperComponent&#45;&gt;AtftHelperModule</title>
<path fill="none" stroke="black" d="M124.35,-122.02C124.35,-139.37 124.35,-163 124.35,-163 124.35,-163 180.64,-163 180.64,-163"/>
<polygon fill="black" stroke="black" points="180.64,-166.5 190.64,-163 180.64,-159.5 180.64,-166.5"/>
</g>
<!-- AxesHelperComponent  -->
<g id="node5" class="node">
<title>AxesHelperComponent </title>
<polygon fill="#fb8072" stroke="black" points="481.69,-252 330.31,-252 330.31,-216 481.69,-216 481.69,-252"/>
<text text-anchor="middle" x="406" y="-229.8" font-family="Times,serif" font-size="14.00">AxesHelperComponent </text>
</g>
<!-- AtftHelperModule&#45;&gt;AxesHelperComponent  -->
<g id="edge4" class="edge">
<title>AtftHelperModule&#45;&gt;AxesHelperComponent </title>
<path fill="none" stroke="black" stroke-dasharray="5,2" d="M311.16,-175C344.31,-175 378.8,-175 378.8,-175 378.8,-175 378.8,-205.98 378.8,-205.98"/>
<polygon fill="black" stroke="black" points="375.3,-205.98 378.8,-215.98 382.3,-205.98 375.3,-205.98"/>
</g>
<!-- EmptyComponent  -->
<g id="node6" class="node">
<title>EmptyComponent </title>
<polygon fill="#fb8072" stroke="black" points="312.17,-252 189.83,-252 189.83,-216 312.17,-216 312.17,-252"/>
<text text-anchor="middle" x="251" y="-229.8" font-family="Times,serif" font-size="14.00">EmptyComponent </text>
</g>
<!-- AtftHelperModule&#45;&gt;EmptyComponent  -->
<g id="edge5" class="edge">
<title>AtftHelperModule&#45;&gt;EmptyComponent </title>
<path fill="none" stroke="black" stroke-dasharray="5,2" d="M251,-187.11C251,-187.11 251,-205.99 251,-205.99"/>
<polygon fill="black" stroke="black" points="247.5,-205.99 251,-215.99 254.5,-205.99 247.5,-205.99"/>
</g>
<!-- GridHelperComponent  -->
<g id="node7" class="node">
<title>GridHelperComponent </title>
<polygon fill="#fb8072" stroke="black" points="172.08,-252 23.92,-252 23.92,-216 172.08,-216 172.08,-252"/>
<text text-anchor="middle" x="98" y="-229.8" font-family="Times,serif" font-size="14.00">GridHelperComponent </text>
</g>
<!-- AtftHelperModule&#45;&gt;GridHelperComponent  -->
<g id="edge6" class="edge">
<title>AtftHelperModule&#45;&gt;GridHelperComponent </title>
<path fill="none" stroke="black" stroke-dasharray="5,2" d="M190.42,-175C140,-175 76.4,-175 76.4,-175 76.4,-175 76.4,-205.98 76.4,-205.98"/>
<polygon fill="black" stroke="black" points="72.9,-205.98 76.4,-215.98 79.9,-205.98 72.9,-205.98"/>
</g>
</g>
</svg>
