<?xml version="1.0" encoding="UTF-8" standalone="no"?>
<!DOCTYPE svg PUBLIC "-//W3C//DTD SVG 1.1//EN"
 "http://www.w3.org/Graphics/SVG/1.1/DTD/svg11.dtd">
<!-- Generated by graphviz version 2.47.3 (20210619.1520)
 -->
<!-- Title: dependencies Pages: 1 -->
<svg width="514pt" height="247pt"
 viewBox="0.00 0.00 514.00 246.80" xmlns="http://www.w3.org/2000/svg" xmlns:xlink="http://www.w3.org/1999/xlink">
<g id="graph0" class="graph" transform="scale(1 1) rotate(0) translate(4 242.8)">
<title>dependencies</title>
<polygon fill="white" stroke="transparent" points="-4,4 -4,-242.8 510,-242.8 510,4 -4,4"/>
<text text-anchor="middle" x="253" y="-8.2" font-family="sans-serif" font-size="14.00">dependencies</text>
<g id="clust1" class="cluster">
<title>cluster_AtftHelperModule</title>
<polygon fill="none" stroke="black" stroke-dasharray="1,5" points="8,-32.8 8,-230.8 498,-230.8 498,-32.8 8,-32.8"/>
</g>
<g id="clust7" class="cluster">
<title>cluster_AtftHelperModule_exports</title>
<polygon fill="none" stroke="black" points="16,-170.8 16,-222.8 490,-222.8 490,-170.8 16,-170.8"/>
</g>
<g id="clust2" class="cluster">
<title>cluster_AtftHelperModule_declarations</title>
<polygon fill="none" stroke="black" points="20,-40.8 20,-92.8 484,-92.8 484,-40.8 20,-40.8"/>
</g>
<!-- AxesHelperComponent -->
<g id="node1" class="node">
<title>AxesHelperComponent</title>
<polygon fill="#ffffb3" stroke="black" points="476.19,-84.8 327.81,-84.8 327.81,-48.8 476.19,-48.8 476.19,-84.8"/>
<text text-anchor="middle" x="402" y="-62.6" font-family="Times,serif" font-size="14.00">AxesHelperComponent</text>
</g>
<!-- AtftHelperModule -->
<g id="node4" class="node">
<title>AtftHelperModule</title>
<polygon fill="#8dd3c7" stroke="black" points="311.19,-149.8 308.19,-153.8 287.19,-153.8 284.19,-149.8 190.81,-149.8 190.81,-113.8 311.19,-113.8 311.19,-149.8"/>
<text text-anchor="middle" x="251" y="-127.6" font-family="Times,serif" font-size="14.00">AtftHelperModule</text>
</g>
<!-- AxesHelperComponent&#45;&gt;AtftHelperModule -->
<g id="edge1" class="edge">
<title>AxesHelperComponent&#45;&gt;AtftHelperModule</title>
<path fill="none" stroke="black" d="M427.45,-84.82C427.45,-102.17 427.45,-125.8 427.45,-125.8 427.45,-125.8 321.23,-125.8 321.23,-125.8"/>
<polygon fill="black" stroke="black" points="321.23,-122.3 311.23,-125.8 321.23,-129.3 321.23,-122.3"/>
</g>
<!-- EmptyComponent -->
<g id="node2" class="node">
<title>EmptyComponent</title>
<polygon fill="#ffffb3" stroke="black" points="310.17,-84.8 191.83,-84.8 191.83,-48.8 310.17,-48.8 310.17,-84.8"/>
<text text-anchor="middle" x="251" y="-62.6" font-family="Times,serif" font-size="14.00">EmptyComponent</text>
</g>
<!-- EmptyComponent&#45;&gt;AtftHelperModule -->
<g id="edge2" class="edge">
<title>EmptyComponent&#45;&gt;AtftHelperModule</title>
<path fill="none" stroke="black" d="M251,-84.91C251,-84.91 251,-103.79 251,-103.79"/>
<polygon fill="black" stroke="black" points="247.5,-103.79 251,-113.79 254.5,-103.79 247.5,-103.79"/>
</g>
<!-- GridHelperComponent -->
<g id="node3" class="node">
<title>GridHelperComponent</title>
<polygon fill="#ffffb3" stroke="black" points="173.58,-84.8 28.42,-84.8 28.42,-48.8 173.58,-48.8 173.58,-84.8"/>
<text text-anchor="middle" x="101" y="-62.6" font-family="Times,serif" font-size="14.00">GridHelperComponent</text>
</g>
<!-- GridHelperComponent&#45;&gt;AtftHelperModule -->
<g id="edge3" class="edge">
<title>GridHelperComponent&#45;&gt;AtftHelperModule</title>
<path fill="none" stroke="black" d="M124.35,-84.82C124.35,-102.17 124.35,-125.8 124.35,-125.8 124.35,-125.8 180.64,-125.8 180.64,-125.8"/>
<polygon fill="black" stroke="black" points="180.64,-129.3 190.64,-125.8 180.64,-122.3 180.64,-129.3"/>
</g>
<!-- AxesHelperComponent  -->
<g id="node5" class="node">
<title>AxesHelperComponent </title>
<polygon fill="#fb8072" stroke="black" points="481.69,-214.8 330.31,-214.8 330.31,-178.8 481.69,-178.8 481.69,-214.8"/>
<text text-anchor="middle" x="406" y="-192.6" font-family="Times,serif" font-size="14.00">AxesHelperComponent </text>
</g>
<!-- AtftHelperModule&#45;&gt;AxesHelperComponent  -->
<g id="edge4" class="edge">
<title>AtftHelperModule&#45;&gt;AxesHelperComponent </title>
<path fill="none" stroke="black" stroke-dasharray="5,2" d="M311.16,-137.8C344.31,-137.8 378.8,-137.8 378.8,-137.8 378.8,-137.8 378.8,-168.78 378.8,-168.78"/>
<polygon fill="black" stroke="black" points="375.3,-168.78 378.8,-178.78 382.3,-168.78 375.3,-168.78"/>
</g>
<!-- EmptyComponent  -->
<g id="node6" class="node">
<title>EmptyComponent </title>
<polygon fill="#fb8072" stroke="black" points="312.17,-214.8 189.83,-214.8 189.83,-178.8 312.17,-178.8 312.17,-214.8"/>
<text text-anchor="middle" x="251" y="-192.6" font-family="Times,serif" font-size="14.00">EmptyComponent </text>
</g>
<!-- AtftHelperModule&#45;&gt;EmptyComponent  -->
<g id="edge5" class="edge">
<title>AtftHelperModule&#45;&gt;EmptyComponent </title>
<path fill="none" stroke="black" stroke-dasharray="5,2" d="M251,-149.91C251,-149.91 251,-168.79 251,-168.79"/>
<polygon fill="black" stroke="black" points="247.5,-168.79 251,-178.79 254.5,-168.79 247.5,-168.79"/>
</g>
<!-- GridHelperComponent  -->
<g id="node7" class="node">
<title>GridHelperComponent </title>
<polygon fill="#fb8072" stroke="black" points="172.08,-214.8 23.92,-214.8 23.92,-178.8 172.08,-178.8 172.08,-214.8"/>
<text text-anchor="middle" x="98" y="-192.6" font-family="Times,serif" font-size="14.00">GridHelperComponent </text>
</g>
<!-- AtftHelperModule&#45;&gt;GridHelperComponent  -->
<g id="edge6" class="edge">
<title>AtftHelperModule&#45;&gt;GridHelperComponent </title>
<path fill="none" stroke="black" stroke-dasharray="5,2" d="M190.42,-137.8C140,-137.8 76.4,-137.8 76.4,-137.8 76.4,-137.8 76.4,-168.78 76.4,-168.78"/>
<polygon fill="black" stroke="black" points="72.9,-168.78 76.4,-178.78 79.9,-168.78 72.9,-168.78"/>
</g>
</g>
</svg>
