<?xml version="1.0" encoding="UTF-8" standalone="no"?>
<!DOCTYPE svg PUBLIC "-//W3C//DTD SVG 1.1//EN"
 "http://www.w3.org/Graphics/SVG/1.1/DTD/svg11.dtd">
<!-- Generated by graphviz version 2.47.0 (20210316.0004)
 -->
<!-- Title: dependencies Pages: 1 -->
<svg width="504pt" height="284pt"
 viewBox="0.00 0.00 504.00 284.00" xmlns="http://www.w3.org/2000/svg" xmlns:xlink="http://www.w3.org/1999/xlink">
<g id="graph0" class="graph" transform="scale(1 1) rotate(0) translate(4 280)">
<title>dependencies</title>
<polygon fill="white" stroke="transparent" points="-4,4 -4,-280 500,-280 500,4 -4,4"/>
<text text-anchor="start" x="227.01" y="-42.4" font-family="Times-12" font-weight="bold" font-size="14.00">Legend</text>
<polygon fill="#ffffb3" stroke="transparent" points="14,-10 14,-30 34,-30 34,-10 14,-10"/>
<text text-anchor="start" x="37.63" y="-15.4" font-family="Times-12" font-size="14.00"> &#160;Declarations</text>
<polygon fill="#8dd3c7" stroke="transparent" points="127,-10 127,-30 147,-30 147,-10 127,-10"/>
<text text-anchor="start" x="150.73" y="-15.4" font-family="Times-12" font-size="14.00"> &#160;Module</text>
<polygon fill="#80b1d3" stroke="transparent" points="213,-10 213,-30 233,-30 233,-10 213,-10"/>
<text text-anchor="start" x="236.78" y="-15.4" font-family="Times-12" font-size="14.00"> &#160;Bootstrap</text>
<polygon fill="#fdb462" stroke="transparent" points="310,-10 310,-30 330,-30 330,-10 310,-10"/>
<text text-anchor="start" x="333.67" y="-15.4" font-family="Times-12" font-size="14.00"> &#160;Providers</text>
<polygon fill="#fb8072" stroke="transparent" points="406,-10 406,-30 426,-30 426,-10 406,-10"/>
<text text-anchor="start" x="429.73" y="-15.4" font-family="Times-12" font-size="14.00"> &#160;Exports</text>
<g id="clust1" class="cluster">
<title>cluster_AtftStatsModule</title>
<polygon fill="none" stroke="black" stroke-dasharray="1,5" points="83,-70 83,-268 413,-268 413,-70 83,-70"/>
</g>
<g id="clust5" class="cluster">
<title>cluster_AtftStatsModule_exports</title>
<polygon fill="none" stroke="black" points="161,-208 161,-260 335,-260 335,-208 161,-208"/>
</g>
<g id="clust2" class="cluster">
<title>cluster_AtftStatsModule_declarations</title>
<polygon fill="none" stroke="black" points="233,-78 233,-130 405,-130 405,-78 233,-78"/>
</g>
<g id="clust7" class="cluster">
<title>cluster_AtftStatsModule_providers</title>
<polygon fill="none" stroke="black" points="91,-78 91,-130 225,-130 225,-78 91,-78"/>
</g>
<!-- StatsAutoShowDirective -->
<g id="node1" class="node">
<title>StatsAutoShowDirective</title>
<polygon fill="#ffffb3" stroke="black" points="396.69,-122 241.31,-122 241.31,-86 396.69,-86 396.69,-122"/>
<text text-anchor="middle" x="319" y="-99.8" font-family="Times,serif" font-size="14.00">StatsAutoShowDirective</text>
</g>
<!-- AtftStatsModule -->
<g id="node2" class="node">
<title>AtftStatsModule</title>
<polygon fill="#8dd3c7" stroke="black" points="302.82,-187 299.82,-191 278.82,-191 275.82,-187 193.18,-187 193.18,-151 302.82,-151 302.82,-187"/>
<text text-anchor="middle" x="248" y="-164.8" font-family="Times,serif" font-size="14.00">AtftStatsModule</text>
</g>
<!-- StatsAutoShowDirective&#45;&gt;AtftStatsModule -->
<g id="edge1" class="edge">
<title>StatsAutoShowDirective&#45;&gt;AtftStatsModule</title>
<path fill="none" stroke="black" d="M272.03,-122.11C272.03,-122.11 272.03,-140.99 272.03,-140.99"/>
<polygon fill="black" stroke="black" points="268.53,-140.99 272.03,-150.99 275.53,-140.99 268.53,-140.99"/>
</g>
<!-- StatsAutoShowDirective  -->
<g id="node3" class="node">
<title>StatsAutoShowDirective </title>
<polygon fill="#fb8072" stroke="black" points="327.19,-252 168.81,-252 168.81,-216 327.19,-216 327.19,-252"/>
<text text-anchor="middle" x="248" y="-229.8" font-family="Times,serif" font-size="14.00">StatsAutoShowDirective </text>
</g>
<!-- AtftStatsModule&#45;&gt;StatsAutoShowDirective  -->
<g id="edge2" class="edge">
<title>AtftStatsModule&#45;&gt;StatsAutoShowDirective </title>
<path fill="none" stroke="black" stroke-dasharray="5,2" d="M248,-187.11C248,-187.11 248,-205.99 248,-205.99"/>
<polygon fill="black" stroke="black" points="244.5,-205.99 248,-215.99 251.5,-205.99 244.5,-205.99"/>
</g>
<!-- StatsService -->
<g id="node4" class="node">
<title>StatsService</title>
<ellipse fill="#fdb462" stroke="black" cx="158" cy="-104" rx="58.54" ry="18"/>
<text text-anchor="middle" x="158" y="-99.8" font-family="Times,serif" font-size="14.00">StatsService</text>
</g>
<!-- StatsService&#45;&gt;AtftStatsModule -->
<g id="edge3" class="edge">
<title>StatsService&#45;&gt;AtftStatsModule</title>
<path fill="none" stroke="black" d="M205.05,-115.03C205.05,-115.03 205.05,-140.78 205.05,-140.78"/>
<polygon fill="black" stroke="black" points="201.55,-140.78 205.05,-150.78 208.55,-140.78 201.55,-140.78"/>
</g>
</g>
</svg>
