<?xml version="1.0" encoding="UTF-8" standalone="no"?>
<!DOCTYPE svg PUBLIC "-//W3C//DTD SVG 1.1//EN"
 "http://www.w3.org/Graphics/SVG/1.1/DTD/svg11.dtd">
<!-- Generated by graphviz version 2.47.3 (20210619.1520)
 -->
<!-- Title: dependencies Pages: 1 -->
<svg width="354pt" height="247pt"
 viewBox="0.00 0.00 354.00 246.80" xmlns="http://www.w3.org/2000/svg" xmlns:xlink="http://www.w3.org/1999/xlink">
<g id="graph0" class="graph" transform="scale(1 1) rotate(0) translate(4 242.8)">
<title>dependencies</title>
<polygon fill="white" stroke="transparent" points="-4,4 -4,-242.8 350,-242.8 350,4 -4,4"/>
<text text-anchor="middle" x="173" y="-8.2" font-family="sans-serif" font-size="14.00">dependencies</text>
<g id="clust1" class="cluster">
<title>cluster_AtftStatsModule</title>
<polygon fill="none" stroke="black" stroke-dasharray="1,5" points="8,-32.8 8,-230.8 338,-230.8 338,-32.8 8,-32.8"/>
</g>
<g id="clust5" class="cluster">
<title>cluster_AtftStatsModule_exports</title>
<polygon fill="none" stroke="black" points="86,-170.8 86,-222.8 260,-222.8 260,-170.8 86,-170.8"/>
</g>
<g id="clust7" class="cluster">
<title>cluster_AtftStatsModule_providers</title>
<polygon fill="none" stroke="black" points="196,-40.8 196,-92.8 330,-92.8 330,-40.8 196,-40.8"/>
</g>
<g id="clust2" class="cluster">
<title>cluster_AtftStatsModule_declarations</title>
<polygon fill="none" stroke="black" points="16,-40.8 16,-92.8 188,-92.8 188,-40.8 16,-40.8"/>
</g>
<!-- StatsAutoShowDirective -->
<g id="node1" class="node">
<title>StatsAutoShowDirective</title>
<polygon fill="#ffffb3" stroke="black" points="179.69,-84.8 24.31,-84.8 24.31,-48.8 179.69,-48.8 179.69,-84.8"/>
<text text-anchor="middle" x="102" y="-62.6" font-family="Times,serif" font-size="14.00">StatsAutoShowDirective</text>
</g>
<!-- AtftStatsModule -->
<g id="node2" class="node">
<title>AtftStatsModule</title>
<polygon fill="#8dd3c7" stroke="black" points="227.82,-149.8 224.82,-153.8 203.82,-153.8 200.82,-149.8 118.18,-149.8 118.18,-113.8 227.82,-113.8 227.82,-149.8"/>
<text text-anchor="middle" x="173" y="-127.6" font-family="Times,serif" font-size="14.00">AtftStatsModule</text>
</g>
<!-- StatsAutoShowDirective&#45;&gt;AtftStatsModule -->
<g id="edge1" class="edge">
<title>StatsAutoShowDirective&#45;&gt;AtftStatsModule</title>
<path fill="none" stroke="black" d="M148.97,-84.91C148.97,-84.91 148.97,-103.79 148.97,-103.79"/>
<polygon fill="black" stroke="black" points="145.47,-103.79 148.97,-113.79 152.47,-103.79 145.47,-103.79"/>
</g>
<!-- StatsAutoShowDirective  -->
<g id="node3" class="node">
<title>StatsAutoShowDirective </title>
<polygon fill="#fb8072" stroke="black" points="252.19,-214.8 93.81,-214.8 93.81,-178.8 252.19,-178.8 252.19,-214.8"/>
<text text-anchor="middle" x="173" y="-192.6" font-family="Times,serif" font-size="14.00">StatsAutoShowDirective </text>
</g>
<!-- AtftStatsModule&#45;&gt;StatsAutoShowDirective  -->
<g id="edge2" class="edge">
<title>AtftStatsModule&#45;&gt;StatsAutoShowDirective </title>
<path fill="none" stroke="black" stroke-dasharray="5,2" d="M173,-149.91C173,-149.91 173,-168.79 173,-168.79"/>
<polygon fill="black" stroke="black" points="169.5,-168.79 173,-178.79 176.5,-168.79 169.5,-168.79"/>
</g>
<!-- StatsService -->
<g id="node4" class="node">
<title>StatsService</title>
<ellipse fill="#fdb462" stroke="black" cx="263" cy="-66.8" rx="58.54" ry="18"/>
<text text-anchor="middle" x="263" y="-62.6" font-family="Times,serif" font-size="14.00">StatsService</text>
</g>
<!-- StatsService&#45;&gt;AtftStatsModule -->
<g id="edge3" class="edge">
<title>StatsService&#45;&gt;AtftStatsModule</title>
<path fill="none" stroke="black" d="M215.95,-77.83C215.95,-77.83 215.95,-103.58 215.95,-103.58"/>
<polygon fill="black" stroke="black" points="212.45,-103.58 215.95,-113.58 219.45,-103.58 212.45,-103.58"/>
</g>
</g>
</svg>
