<?xml version="1.0" encoding="UTF-8" standalone="no"?>
<!DOCTYPE svg PUBLIC "-//W3C//DTD SVG 1.1//EN"
 "http://www.w3.org/Graphics/SVG/1.1/DTD/svg11.dtd">
<!-- Generated by graphviz version 2.47.3 (20210619.1520)
 -->
<!-- Title: dependencies Pages: 1 -->
<svg width="710pt" height="247pt"
 viewBox="0.00 0.00 710.00 246.80" xmlns="http://www.w3.org/2000/svg" xmlns:xlink="http://www.w3.org/1999/xlink">
<g id="graph0" class="graph" transform="scale(1 1) rotate(0) translate(4 242.8)">
<title>dependencies</title>
<polygon fill="white" stroke="transparent" points="-4,4 -4,-242.8 706,-242.8 706,4 -4,4"/>
<text text-anchor="middle" x="351" y="-8.2" font-family="sans-serif" font-size="14.00">dependencies</text>
<g id="clust1" class="cluster">
<title>cluster_AtftLoaderModule</title>
<polygon fill="none" stroke="black" stroke-dasharray="1,5" points="8,-32.8 8,-230.8 694,-230.8 694,-32.8 8,-32.8"/>
</g>
<g id="clust2" class="cluster">
<title>cluster_AtftLoaderModule_declarations</title>
<polygon fill="none" stroke="black" points="24,-40.8 24,-92.8 680,-92.8 680,-40.8 24,-40.8"/>
</g>
<g id="clust8" class="cluster">
<title>cluster_AtftLoaderModule_exports</title>
<polygon fill="none" stroke="black" points="16,-170.8 16,-222.8 686,-222.8 686,-170.8 16,-170.8"/>
</g>
<!-- ObjLoaderComponent -->
<g id="node1" class="node">
<title>ObjLoaderComponent</title>
<polygon fill="#ffffb3" stroke="black" points="671.97,-84.8 530.03,-84.8 530.03,-48.8 671.97,-48.8 671.97,-84.8"/>
<text text-anchor="middle" x="601" y="-62.6" font-family="Times,serif" font-size="14.00">ObjLoaderComponent</text>
</g>
<!-- AtftLoaderModule -->
<g id="node5" class="node">
<title>AtftLoaderModule</title>
<polygon fill="#8dd3c7" stroke="black" points="323.74,-149.8 320.74,-153.8 299.74,-153.8 296.74,-149.8 202.26,-149.8 202.26,-113.8 323.74,-113.8 323.74,-149.8"/>
<text text-anchor="middle" x="263" y="-127.6" font-family="Times,serif" font-size="14.00">AtftLoaderModule</text>
</g>
<!-- ObjLoaderComponent&#45;&gt;AtftLoaderModule -->
<g id="edge1" class="edge">
<title>ObjLoaderComponent&#45;&gt;AtftLoaderModule</title>
<path fill="none" stroke="black" d="M625.41,-85.07C625.41,-103.36 625.41,-128.8 625.41,-128.8 625.41,-128.8 334.07,-128.8 334.07,-128.8"/>
<polygon fill="black" stroke="black" points="334.07,-125.3 324.07,-128.8 334.07,-132.3 334.07,-125.3"/>
</g>
<!-- ObjectLoaderComponent -->
<g id="node2" class="node">
<title>ObjectLoaderComponent</title>
<polygon fill="#ffffb3" stroke="black" points="512.29,-84.8 353.71,-84.8 353.71,-48.8 512.29,-48.8 512.29,-84.8"/>
<text text-anchor="middle" x="433" y="-62.6" font-family="Times,serif" font-size="14.00">ObjectLoaderComponent</text>
</g>
<!-- ObjectLoaderComponent&#45;&gt;AtftLoaderModule -->
<g id="edge2" class="edge">
<title>ObjectLoaderComponent&#45;&gt;AtftLoaderModule</title>
<path fill="none" stroke="black" d="M459.38,-84.81C459.38,-100.85 459.38,-121.8 459.38,-121.8 459.38,-121.8 333.79,-121.8 333.79,-121.8"/>
<polygon fill="black" stroke="black" points="333.79,-118.3 323.79,-121.8 333.79,-125.3 333.79,-118.3"/>
</g>
<!-- SVGLoaderComponent -->
<g id="node3" class="node">
<title>SVGLoaderComponent</title>
<polygon fill="#ffffb3" stroke="black" points="335.47,-84.8 186.53,-84.8 186.53,-48.8 335.47,-48.8 335.47,-84.8"/>
<text text-anchor="middle" x="261" y="-62.6" font-family="Times,serif" font-size="14.00">SVGLoaderComponent</text>
</g>
<!-- SVGLoaderComponent&#45;&gt;AtftLoaderModule -->
<g id="edge3" class="edge">
<title>SVGLoaderComponent&#45;&gt;AtftLoaderModule</title>
<path fill="none" stroke="black" d="M263,-84.91C263,-84.91 263,-103.79 263,-103.79"/>
<polygon fill="black" stroke="black" points="259.5,-103.79 263,-113.79 266.5,-103.79 259.5,-103.79"/>
</g>
<!-- StlLoaderComponent -->
<g id="node4" class="node">
<title>StlLoaderComponent</title>
<polygon fill="#ffffb3" stroke="black" points="168.04,-84.8 31.96,-84.8 31.96,-48.8 168.04,-48.8 168.04,-84.8"/>
<text text-anchor="middle" x="100" y="-62.6" font-family="Times,serif" font-size="14.00">StlLoaderComponent</text>
</g>
<!-- StlLoaderComponent&#45;&gt;AtftLoaderModule -->
<g id="edge4" class="edge">
<title>StlLoaderComponent&#45;&gt;AtftLoaderModule</title>
<path fill="none" stroke="black" d="M119.92,-84.82C119.92,-102.17 119.92,-125.8 119.92,-125.8 119.92,-125.8 191.91,-125.8 191.91,-125.8"/>
<polygon fill="black" stroke="black" points="191.91,-129.3 201.91,-125.8 191.91,-122.3 191.91,-129.3"/>
</g>
<!-- ObjLoaderComponent  -->
<g id="node6" class="node">
<title>ObjLoaderComponent </title>
<polygon fill="#fb8072" stroke="black" points="677.97,-214.8 532.03,-214.8 532.03,-178.8 677.97,-178.8 677.97,-214.8"/>
<text text-anchor="middle" x="605" y="-192.6" font-family="Times,serif" font-size="14.00">ObjLoaderComponent </text>
</g>
<!-- AtftLoaderModule&#45;&gt;ObjLoaderComponent  -->
<g id="edge5" class="edge">
<title>AtftLoaderModule&#45;&gt;ObjLoaderComponent </title>
<path fill="none" stroke="black" stroke-dasharray="5,2" d="M323.9,-135.8C415.68,-135.8 578.84,-135.8 578.84,-135.8 578.84,-135.8 578.84,-168.5 578.84,-168.5"/>
<polygon fill="black" stroke="black" points="575.34,-168.5 578.84,-178.5 582.34,-168.5 575.34,-168.5"/>
</g>
<!-- ObjectLoaderComponent  -->
<g id="node7" class="node">
<title>ObjectLoaderComponent </title>
<polygon fill="#fb8072" stroke="black" points="513.79,-214.8 352.21,-214.8 352.21,-178.8 513.79,-178.8 513.79,-214.8"/>
<text text-anchor="middle" x="433" y="-192.6" font-family="Times,serif" font-size="14.00">ObjectLoaderComponent </text>
</g>
<!-- AtftLoaderModule&#45;&gt;ObjectLoaderComponent  -->
<g id="edge6" class="edge">
<title>AtftLoaderModule&#45;&gt;ObjectLoaderComponent </title>
<path fill="none" stroke="black" stroke-dasharray="5,2" d="M323.91,-142.8C363.05,-142.8 406.62,-142.8 406.62,-142.8 406.62,-142.8 406.62,-168.52 406.62,-168.52"/>
<polygon fill="black" stroke="black" points="403.12,-168.52 406.62,-178.52 410.12,-168.52 403.12,-168.52"/>
</g>
<!-- SVGLoaderComponent  -->
<g id="node8" class="node">
<title>SVGLoaderComponent </title>
<polygon fill="#fb8072" stroke="black" points="334.47,-214.8 181.53,-214.8 181.53,-178.8 334.47,-178.8 334.47,-214.8"/>
<text text-anchor="middle" x="258" y="-192.6" font-family="Times,serif" font-size="14.00">SVGLoaderComponent </text>
</g>
<!-- AtftLoaderModule&#45;&gt;SVGLoaderComponent  -->
<g id="edge7" class="edge">
<title>AtftLoaderModule&#45;&gt;SVGLoaderComponent </title>
<path fill="none" stroke="black" stroke-dasharray="5,2" d="M263,-149.91C263,-149.91 263,-168.79 263,-168.79"/>
<polygon fill="black" stroke="black" points="259.5,-168.79 263,-178.79 266.5,-168.79 259.5,-168.79"/>
</g>
<!-- StlLoaderComponent  -->
<g id="node9" class="node">
<title>StlLoaderComponent </title>
<polygon fill="#fb8072" stroke="black" points="164.04,-214.8 23.96,-214.8 23.96,-178.8 164.04,-178.8 164.04,-214.8"/>
<text text-anchor="middle" x="94" y="-192.6" font-family="Times,serif" font-size="14.00">StlLoaderComponent </text>
</g>
<!-- AtftLoaderModule&#45;&gt;StlLoaderComponent  -->
<g id="edge8" class="edge">
<title>AtftLoaderModule&#45;&gt;StlLoaderComponent </title>
<path fill="none" stroke="black" stroke-dasharray="5,2" d="M202.23,-137.8C147.58,-137.8 75.83,-137.8 75.83,-137.8 75.83,-137.8 75.83,-168.78 75.83,-168.78"/>
<polygon fill="black" stroke="black" points="72.33,-168.78 75.83,-178.78 79.33,-168.78 72.33,-168.78"/>
</g>
</g>
</svg>
