<?xml version="1.0" encoding="UTF-8" standalone="no"?>
<!DOCTYPE svg PUBLIC "-//W3C//DTD SVG 1.1//EN"
 "http://www.w3.org/Graphics/SVG/1.1/DTD/svg11.dtd">
<!-- Generated by graphviz version 2.47.0 (20210316.0004)
 -->
<!-- Title: dependencies Pages: 1 -->
<svg width="710pt" height="284pt"
 viewBox="0.00 0.00 710.00 284.00" xmlns="http://www.w3.org/2000/svg" xmlns:xlink="http://www.w3.org/1999/xlink">
<g id="graph0" class="graph" transform="scale(1 1) rotate(0) translate(4 280)">
<title>dependencies</title>
<polygon fill="white" stroke="transparent" points="-4,4 -4,-280 706,-280 706,4 -4,4"/>
<text text-anchor="start" x="330.01" y="-42.4" font-family="Times-12" font-weight="bold" font-size="14.00">Legend</text>
<polygon fill="#ffffb3" stroke="transparent" points="117,-10 117,-30 137,-30 137,-10 117,-10"/>
<text text-anchor="start" x="140.63" y="-15.4" font-family="Times-12" font-size="14.00"> &#160;Declarations</text>
<polygon fill="#8dd3c7" stroke="transparent" points="230,-10 230,-30 250,-30 250,-10 230,-10"/>
<text text-anchor="start" x="253.73" y="-15.4" font-family="Times-12" font-size="14.00"> &#160;Module</text>
<polygon fill="#80b1d3" stroke="transparent" points="316,-10 316,-30 336,-30 336,-10 316,-10"/>
<text text-anchor="start" x="339.78" y="-15.4" font-family="Times-12" font-size="14.00"> &#160;Bootstrap</text>
<polygon fill="#fdb462" stroke="transparent" points="413,-10 413,-30 433,-30 433,-10 413,-10"/>
<text text-anchor="start" x="436.67" y="-15.4" font-family="Times-12" font-size="14.00"> &#160;Providers</text>
<polygon fill="#fb8072" stroke="transparent" points="509,-10 509,-30 529,-30 529,-10 509,-10"/>
<text text-anchor="start" x="532.73" y="-15.4" font-family="Times-12" font-size="14.00"> &#160;Exports</text>
<g id="clust1" class="cluster">
<title>cluster_AtftLoaderModule</title>
<polygon fill="none" stroke="black" stroke-dasharray="1,5" points="8,-70 8,-268 694,-268 694,-70 8,-70"/>
</g>
<g id="clust2" class="cluster">
<title>cluster_AtftLoaderModule_declarations</title>
<polygon fill="none" stroke="black" points="24,-78 24,-130 680,-130 680,-78 24,-78"/>
</g>
<g id="clust8" class="cluster">
<title>cluster_AtftLoaderModule_exports</title>
<polygon fill="none" stroke="black" points="16,-208 16,-260 686,-260 686,-208 16,-208"/>
</g>
<!-- ObjLoaderComponent -->
<g id="node1" class="node">
<title>ObjLoaderComponent</title>
<polygon fill="#ffffb3" stroke="black" points="671.97,-122 530.03,-122 530.03,-86 671.97,-86 671.97,-122"/>
<text text-anchor="middle" x="601" y="-99.8" font-family="Times,serif" font-size="14.00">ObjLoaderComponent</text>
</g>
<!-- AtftLoaderModule -->
<g id="node5" class="node">
<title>AtftLoaderModule</title>
<polygon fill="#8dd3c7" stroke="black" points="323.74,-187 320.74,-191 299.74,-191 296.74,-187 202.26,-187 202.26,-151 323.74,-151 323.74,-187"/>
<text text-anchor="middle" x="263" y="-164.8" font-family="Times,serif" font-size="14.00">AtftLoaderModule</text>
</g>
<!-- ObjLoaderComponent&#45;&gt;AtftLoaderModule -->
<g id="edge1" class="edge">
<title>ObjLoaderComponent&#45;&gt;AtftLoaderModule</title>
<path fill="none" stroke="black" d="M625.41,-122.27C625.41,-140.56 625.41,-166 625.41,-166 625.41,-166 334.07,-166 334.07,-166"/>
<polygon fill="black" stroke="black" points="334.07,-162.5 324.07,-166 334.07,-169.5 334.07,-162.5"/>
</g>
<!-- ObjectLoaderComponent -->
<g id="node2" class="node">
<title>ObjectLoaderComponent</title>
<polygon fill="#ffffb3" stroke="black" points="512.29,-122 353.71,-122 353.71,-86 512.29,-86 512.29,-122"/>
<text text-anchor="middle" x="433" y="-99.8" font-family="Times,serif" font-size="14.00">ObjectLoaderComponent</text>
</g>
<!-- ObjectLoaderComponent&#45;&gt;AtftLoaderModule -->
<g id="edge2" class="edge">
<title>ObjectLoaderComponent&#45;&gt;AtftLoaderModule</title>
<path fill="none" stroke="black" d="M459.38,-122.01C459.38,-138.05 459.38,-159 459.38,-159 459.38,-159 333.79,-159 333.79,-159"/>
<polygon fill="black" stroke="black" points="333.79,-155.5 323.79,-159 333.79,-162.5 333.79,-155.5"/>
</g>
<!-- SVGLoaderComponent -->
<g id="node3" class="node">
<title>SVGLoaderComponent</title>
<polygon fill="#ffffb3" stroke="black" points="335.47,-122 186.53,-122 186.53,-86 335.47,-86 335.47,-122"/>
<text text-anchor="middle" x="261" y="-99.8" font-family="Times,serif" font-size="14.00">SVGLoaderComponent</text>
</g>
<!-- SVGLoaderComponent&#45;&gt;AtftLoaderModule -->
<g id="edge3" class="edge">
<title>SVGLoaderComponent&#45;&gt;AtftLoaderModule</title>
<path fill="none" stroke="black" d="M263,-122.11C263,-122.11 263,-140.99 263,-140.99"/>
<polygon fill="black" stroke="black" points="259.5,-140.99 263,-150.99 266.5,-140.99 259.5,-140.99"/>
</g>
<!-- StlLoaderComponent -->
<g id="node4" class="node">
<title>StlLoaderComponent</title>
<polygon fill="#ffffb3" stroke="black" points="168.04,-122 31.96,-122 31.96,-86 168.04,-86 168.04,-122"/>
<text text-anchor="middle" x="100" y="-99.8" font-family="Times,serif" font-size="14.00">StlLoaderComponent</text>
</g>
<!-- StlLoaderComponent&#45;&gt;AtftLoaderModule -->
<g id="edge4" class="edge">
<title>StlLoaderComponent&#45;&gt;AtftLoaderModule</title>
<path fill="none" stroke="black" d="M119.92,-122.02C119.92,-139.37 119.92,-163 119.92,-163 119.92,-163 191.91,-163 191.91,-163"/>
<polygon fill="black" stroke="black" points="191.91,-166.5 201.91,-163 191.91,-159.5 191.91,-166.5"/>
</g>
<!-- ObjLoaderComponent  -->
<g id="node6" class="node">
<title>ObjLoaderComponent </title>
<polygon fill="#fb8072" stroke="black" points="677.97,-252 532.03,-252 532.03,-216 677.97,-216 677.97,-252"/>
<text text-anchor="middle" x="605" y="-229.8" font-family="Times,serif" font-size="14.00">ObjLoaderComponent </text>
</g>
<!-- AtftLoaderModule&#45;&gt;ObjLoaderComponent  -->
<g id="edge5" class="edge">
<title>AtftLoaderModule&#45;&gt;ObjLoaderComponent </title>
<path fill="none" stroke="black" stroke-dasharray="5,2" d="M323.9,-173C415.68,-173 578.84,-173 578.84,-173 578.84,-173 578.84,-205.7 578.84,-205.7"/>
<polygon fill="black" stroke="black" points="575.34,-205.7 578.84,-215.7 582.34,-205.7 575.34,-205.7"/>
</g>
<!-- ObjectLoaderComponent  -->
<g id="node7" class="node">
<title>ObjectLoaderComponent </title>
<polygon fill="#fb8072" stroke="black" points="513.79,-252 352.21,-252 352.21,-216 513.79,-216 513.79,-252"/>
<text text-anchor="middle" x="433" y="-229.8" font-family="Times,serif" font-size="14.00">ObjectLoaderComponent </text>
</g>
<!-- AtftLoaderModule&#45;&gt;ObjectLoaderComponent  -->
<g id="edge6" class="edge">
<title>AtftLoaderModule&#45;&gt;ObjectLoaderComponent </title>
<path fill="none" stroke="black" stroke-dasharray="5,2" d="M323.91,-180C363.05,-180 406.62,-180 406.62,-180 406.62,-180 406.62,-205.72 406.62,-205.72"/>
<polygon fill="black" stroke="black" points="403.12,-205.72 406.62,-215.72 410.12,-205.72 403.12,-205.72"/>
</g>
<!-- SVGLoaderComponent  -->
<g id="node8" class="node">
<title>SVGLoaderComponent </title>
<polygon fill="#fb8072" stroke="black" points="334.47,-252 181.53,-252 181.53,-216 334.47,-216 334.47,-252"/>
<text text-anchor="middle" x="258" y="-229.8" font-family="Times,serif" font-size="14.00">SVGLoaderComponent </text>
</g>
<!-- AtftLoaderModule&#45;&gt;SVGLoaderComponent  -->
<g id="edge7" class="edge">
<title>AtftLoaderModule&#45;&gt;SVGLoaderComponent </title>
<path fill="none" stroke="black" stroke-dasharray="5,2" d="M263,-187.11C263,-187.11 263,-205.99 263,-205.99"/>
<polygon fill="black" stroke="black" points="259.5,-205.99 263,-215.99 266.5,-205.99 259.5,-205.99"/>
</g>
<!-- StlLoaderComponent  -->
<g id="node9" class="node">
<title>StlLoaderComponent </title>
<polygon fill="#fb8072" stroke="black" points="164.04,-252 23.96,-252 23.96,-216 164.04,-216 164.04,-252"/>
<text text-anchor="middle" x="94" y="-229.8" font-family="Times,serif" font-size="14.00">StlLoaderComponent </text>
</g>
<!-- AtftLoaderModule&#45;&gt;StlLoaderComponent  -->
<g id="edge8" class="edge">
<title>AtftLoaderModule&#45;&gt;StlLoaderComponent </title>
<path fill="none" stroke="black" stroke-dasharray="5,2" d="M202.23,-175C147.58,-175 75.83,-175 75.83,-175 75.83,-175 75.83,-205.98 75.83,-205.98"/>
<polygon fill="black" stroke="black" points="72.33,-205.98 75.83,-215.98 79.33,-205.98 72.33,-205.98"/>
</g>
</g>
</svg>
