<?xml version="1.0" encoding="UTF-8" standalone="no"?>
<!DOCTYPE svg PUBLIC "-//W3C//DTD SVG 1.1//EN"
 "http://www.w3.org/Graphics/SVG/1.1/DTD/svg11.dtd">
<!-- Generated by graphviz version 2.40.1 (20161225.0304)
 -->
<!-- Title: dependencies Pages: 1 -->
<svg width="552pt" height="284pt"
 viewBox="0.00 0.00 552.00 284.00" xmlns="http://www.w3.org/2000/svg" xmlns:xlink="http://www.w3.org/1999/xlink">
<g id="graph0" class="graph" transform="scale(1 1) rotate(0) translate(4 280)">
<title>dependencies</title>
<polygon fill="#ffffff" stroke="transparent" points="-4,4 -4,-280 548,-280 548,4 -4,4"/>
<text text-anchor="start" x="251.0091" y="-42.4" font-family="sans-serif" font-weight="bold" font-size="14.00" fill="#000000">Legend</text>
<polygon fill="#ffffb3" stroke="transparent" points="38,-10 38,-30 58,-30 58,-10 38,-10"/>
<text text-anchor="start" x="61.629" y="-15.4" font-family="sans-serif" font-size="14.00" fill="#000000"> &#160;Declarations</text>
<polygon fill="#8dd3c7" stroke="transparent" points="151,-10 151,-30 171,-30 171,-10 151,-10"/>
<text text-anchor="start" x="174.7251" y="-15.4" font-family="sans-serif" font-size="14.00" fill="#000000"> &#160;Module</text>
<polygon fill="#80b1d3" stroke="transparent" points="237,-10 237,-30 257,-30 257,-10 237,-10"/>
<text text-anchor="start" x="260.7812" y="-15.4" font-family="sans-serif" font-size="14.00" fill="#000000"> &#160;Bootstrap</text>
<polygon fill="#fdb462" stroke="transparent" points="334,-10 334,-30 354,-30 354,-10 334,-10"/>
<text text-anchor="start" x="357.6732" y="-15.4" font-family="sans-serif" font-size="14.00" fill="#000000"> &#160;Providers</text>
<polygon fill="#fb8072" stroke="transparent" points="430,-10 430,-30 450,-30 450,-10 430,-10"/>
<text text-anchor="start" x="453.7258" y="-15.4" font-family="sans-serif" font-size="14.00" fill="#000000"> &#160;Exports</text>
<g id="clust1" class="cluster">
<title>cluster_AtftLoaderModule</title>
<polygon fill="none" stroke="#000000" stroke-dasharray="1,5" points="8,-70 8,-268 536,-268 536,-70 8,-70"/>
</g>
<g id="clust2" class="cluster">
<title>cluster_AtftLoaderModule_declarations</title>
<polygon fill="none" stroke="#000000" points="21,-78 21,-130 522,-130 522,-78 21,-78"/>
</g>
<g id="clust7" class="cluster">
<title>cluster_AtftLoaderModule_exports</title>
<polygon fill="none" stroke="#000000" points="16,-208 16,-260 528,-260 528,-208 16,-208"/>
</g>
<!-- ObjLoaderComponent -->
<g id="node1" class="node">
<title>ObjLoaderComponent</title>
<polygon fill="#ffffb3" stroke="#000000" points="513.972,-122 372.028,-122 372.028,-86 513.972,-86 513.972,-122"/>
<text text-anchor="middle" x="443" y="-99.8" font-family="Times,serif" font-size="14.00" fill="#000000">ObjLoaderComponent</text>
</g>
<!-- AtftLoaderModule -->
<g id="node4" class="node">
<title>AtftLoaderModule</title>
<polygon fill="#8dd3c7" stroke="#000000" points="335.7409,-187 332.7409,-191 311.7409,-191 308.7409,-187 214.2591,-187 214.2591,-151 335.7409,-151 335.7409,-187"/>
<text text-anchor="middle" x="275" y="-164.8" font-family="Times,serif" font-size="14.00" fill="#000000">AtftLoaderModule</text>
</g>
<!-- ObjLoaderComponent&#45;&gt;AtftLoaderModule -->
<g id="edge1" class="edge">
<title>ObjLoaderComponent&#45;&gt;AtftLoaderModule</title>
<path fill="none" stroke="#000000" d="M467.412,-122.0225C467.412,-139.3734 467.412,-163 467.412,-163 467.412,-163 345.8804,-163 345.8804,-163"/>
<polygon fill="#000000" stroke="#000000" points="345.8804,-159.5001 335.8804,-163 345.8803,-166.5001 345.8804,-159.5001"/>
</g>
<!-- ObjectLoaderComponent -->
<g id="node2" class="node">
<title>ObjectLoaderComponent</title>
<polygon fill="#ffffb3" stroke="#000000" points="354.2921,-122 195.7079,-122 195.7079,-86 354.2921,-86 354.2921,-122"/>
<text text-anchor="middle" x="275" y="-99.8" font-family="Times,serif" font-size="14.00" fill="#000000">ObjectLoaderComponent</text>
</g>
<!-- ObjectLoaderComponent&#45;&gt;AtftLoaderModule -->
<g id="edge2" class="edge">
<title>ObjectLoaderComponent&#45;&gt;AtftLoaderModule</title>
<path fill="none" stroke="#000000" d="M275,-122.1061C275,-122.1061 275,-140.991 275,-140.991"/>
<polygon fill="#000000" stroke="#000000" points="271.5001,-140.9909 275,-150.991 278.5001,-140.991 271.5001,-140.9909"/>
</g>
<!-- SVGLoaderComponent -->
<g id="node3" class="node">
<title>SVGLoaderComponent</title>
<polygon fill="#ffffb3" stroke="#000000" points="177.4706,-122 28.5294,-122 28.5294,-86 177.4706,-86 177.4706,-122"/>
<text text-anchor="middle" x="103" y="-99.8" font-family="Times,serif" font-size="14.00" fill="#000000">SVGLoaderComponent</text>
</g>
<!-- SVGLoaderComponent&#45;&gt;AtftLoaderModule -->
<g id="edge3" class="edge">
<title>SVGLoaderComponent&#45;&gt;AtftLoaderModule</title>
<path fill="none" stroke="#000000" d="M126.9951,-122.0225C126.9951,-139.3734 126.9951,-163 126.9951,-163 126.9951,-163 203.9462,-163 203.9462,-163"/>
<polygon fill="#000000" stroke="#000000" points="203.9463,-166.5001 213.9462,-163 203.9462,-159.5001 203.9463,-166.5001"/>
</g>
<!-- ObjLoaderComponent  -->
<g id="node5" class="node">
<title>ObjLoaderComponent </title>
<polygon fill="#fb8072" stroke="#000000" points="519.9728,-252 374.0272,-252 374.0272,-216 519.9728,-216 519.9728,-252"/>
<text text-anchor="middle" x="447" y="-229.8" font-family="Times,serif" font-size="14.00" fill="#000000">ObjLoaderComponent </text>
</g>
<!-- AtftLoaderModule&#45;&gt;ObjLoaderComponent  -->
<g id="edge4" class="edge">
<title>AtftLoaderModule&#45;&gt;ObjLoaderComponent </title>
<path fill="none" stroke="#000000" stroke-dasharray="5,2" d="M336.0034,-175C375.9668,-175 420.838,-175 420.838,-175 420.838,-175 420.838,-205.9775 420.838,-205.9775"/>
<polygon fill="#000000" stroke="#000000" points="417.3381,-205.9774 420.838,-215.9775 424.3381,-205.9775 417.3381,-205.9774"/>
</g>
<!-- ObjectLoaderComponent  -->
<g id="node6" class="node">
<title>ObjectLoaderComponent </title>
<polygon fill="#fb8072" stroke="#000000" points="355.7919,-252 194.2081,-252 194.2081,-216 355.7919,-216 355.7919,-252"/>
<text text-anchor="middle" x="275" y="-229.8" font-family="Times,serif" font-size="14.00" fill="#000000">ObjectLoaderComponent </text>
</g>
<!-- AtftLoaderModule&#45;&gt;ObjectLoaderComponent  -->
<g id="edge5" class="edge">
<title>AtftLoaderModule&#45;&gt;ObjectLoaderComponent </title>
<path fill="none" stroke="#000000" stroke-dasharray="5,2" d="M275,-187.1061C275,-187.1061 275,-205.991 275,-205.991"/>
<polygon fill="#000000" stroke="#000000" points="271.5001,-205.9909 275,-215.991 278.5001,-205.991 271.5001,-205.9909"/>
</g>
<!-- SVGLoaderComponent  -->
<g id="node7" class="node">
<title>SVGLoaderComponent </title>
<polygon fill="#fb8072" stroke="#000000" points="176.4713,-252 23.5287,-252 23.5287,-216 176.4713,-216 176.4713,-252"/>
<text text-anchor="middle" x="100" y="-229.8" font-family="Times,serif" font-size="14.00" fill="#000000">SVGLoaderComponent </text>
</g>
<!-- AtftLoaderModule&#45;&gt;SVGLoaderComponent  -->
<g id="edge6" class="edge">
<title>AtftLoaderModule&#45;&gt;SVGLoaderComponent </title>
<path fill="none" stroke="#000000" stroke-dasharray="5,2" d="M214.2105,-175C156.2552,-175 77.7549,-175 77.7549,-175 77.7549,-175 77.7549,-205.9775 77.7549,-205.9775"/>
<polygon fill="#000000" stroke="#000000" points="74.255,-205.9774 77.7549,-215.9775 81.255,-205.9775 74.255,-205.9774"/>
</g>
</g>
</svg>
