<?xml version="1.0" encoding="UTF-8" standalone="no"?>
<!DOCTYPE svg PUBLIC "-//W3C//DTD SVG 1.1//EN"
 "http://www.w3.org/Graphics/SVG/1.1/DTD/svg11.dtd">
<!-- Generated by graphviz version 2.47.0 (20210316.0004)
 -->
<!-- Title: dependencies Pages: 1 -->
<svg width="887pt" height="284pt"
 viewBox="0.00 0.00 887.00 284.00" xmlns="http://www.w3.org/2000/svg" xmlns:xlink="http://www.w3.org/1999/xlink">
<g id="graph0" class="graph" transform="scale(1 1) rotate(0) translate(4 280)">
<title>dependencies</title>
<polygon fill="white" stroke="transparent" points="-4,4 -4,-280 883,-280 883,4 -4,4"/>
<text text-anchor="start" x="418.51" y="-42.4" font-family="Times-12" font-weight="bold" font-size="14.00">Legend</text>
<polygon fill="#ffffb3" stroke="transparent" points="205.5,-10 205.5,-30 225.5,-30 225.5,-10 205.5,-10"/>
<text text-anchor="start" x="229.13" y="-15.4" font-family="Times-12" font-size="14.00"> &#160;Declarations</text>
<polygon fill="#8dd3c7" stroke="transparent" points="318.5,-10 318.5,-30 338.5,-30 338.5,-10 318.5,-10"/>
<text text-anchor="start" x="342.23" y="-15.4" font-family="Times-12" font-size="14.00"> &#160;Module</text>
<polygon fill="#80b1d3" stroke="transparent" points="404.5,-10 404.5,-30 424.5,-30 424.5,-10 404.5,-10"/>
<text text-anchor="start" x="428.28" y="-15.4" font-family="Times-12" font-size="14.00"> &#160;Bootstrap</text>
<polygon fill="#fdb462" stroke="transparent" points="501.5,-10 501.5,-30 521.5,-30 521.5,-10 501.5,-10"/>
<text text-anchor="start" x="525.17" y="-15.4" font-family="Times-12" font-size="14.00"> &#160;Providers</text>
<polygon fill="#fb8072" stroke="transparent" points="597.5,-10 597.5,-30 617.5,-30 617.5,-10 597.5,-10"/>
<text text-anchor="start" x="621.23" y="-15.4" font-family="Times-12" font-size="14.00"> &#160;Exports</text>
<g id="clust1" class="cluster">
<title>cluster_AtftLoaderModule</title>
<polygon fill="none" stroke="black" stroke-dasharray="1,5" points="8,-70 8,-268 871,-268 871,-70 8,-70"/>
</g>
<g id="clust9" class="cluster">
<title>cluster_AtftLoaderModule_exports</title>
<polygon fill="none" stroke="black" points="16,-208 16,-260 863,-260 863,-208 16,-208"/>
</g>
<g id="clust2" class="cluster">
<title>cluster_AtftLoaderModule_declarations</title>
<polygon fill="none" stroke="black" points="24,-78 24,-130 854,-130 854,-78 24,-78"/>
</g>
<!-- AudioLoaderComponent -->
<g id="node1" class="node">
<title>AudioLoaderComponent</title>
<polygon fill="#ffffb3" stroke="black" points="845.97,-122 690.03,-122 690.03,-86 845.97,-86 845.97,-122"/>
<text text-anchor="middle" x="768" y="-99.8" font-family="Times,serif" font-size="14.00">AudioLoaderComponent</text>
</g>
<!-- AtftLoaderModule -->
<g id="node6" class="node">
<title>AtftLoaderModule</title>
<polygon fill="#8dd3c7" stroke="black" points="493.74,-187 490.74,-191 469.74,-191 466.74,-187 372.26,-187 372.26,-151 493.74,-151 493.74,-187"/>
<text text-anchor="middle" x="433" y="-164.8" font-family="Times,serif" font-size="14.00">AtftLoaderModule</text>
</g>
<!-- AudioLoaderComponent&#45;&gt;AtftLoaderModule -->
<g id="edge1" class="edge">
<title>AudioLoaderComponent&#45;&gt;AtftLoaderModule</title>
<path fill="none" stroke="black" d="M795.75,-122.27C795.75,-140.56 795.75,-166 795.75,-166 795.75,-166 504.12,-166 504.12,-166"/>
<polygon fill="black" stroke="black" points="504.12,-162.5 494.12,-166 504.12,-169.5 504.12,-162.5"/>
</g>
<!-- ObjLoaderComponent -->
<g id="node2" class="node">
<title>ObjLoaderComponent</title>
<polygon fill="#ffffb3" stroke="black" points="671.97,-122 530.03,-122 530.03,-86 671.97,-86 671.97,-122"/>
<text text-anchor="middle" x="601" y="-99.8" font-family="Times,serif" font-size="14.00">ObjLoaderComponent</text>
</g>
<!-- ObjLoaderComponent&#45;&gt;AtftLoaderModule -->
<g id="edge2" class="edge">
<title>ObjLoaderComponent&#45;&gt;AtftLoaderModule</title>
<path fill="none" stroke="black" d="M625.41,-122.01C625.41,-138.05 625.41,-159 625.41,-159 625.41,-159 503.88,-159 503.88,-159"/>
<polygon fill="black" stroke="black" points="503.88,-155.5 493.88,-159 503.88,-162.5 503.88,-155.5"/>
</g>
<!-- ObjectLoaderComponent -->
<g id="node3" class="node">
<title>ObjectLoaderComponent</title>
<polygon fill="#ffffb3" stroke="black" points="512.29,-122 353.71,-122 353.71,-86 512.29,-86 512.29,-122"/>
<text text-anchor="middle" x="433" y="-99.8" font-family="Times,serif" font-size="14.00">ObjectLoaderComponent</text>
</g>
<!-- ObjectLoaderComponent&#45;&gt;AtftLoaderModule -->
<g id="edge3" class="edge">
<title>ObjectLoaderComponent&#45;&gt;AtftLoaderModule</title>
<path fill="none" stroke="black" d="M433,-122.11C433,-122.11 433,-140.99 433,-140.99"/>
<polygon fill="black" stroke="black" points="429.5,-140.99 433,-150.99 436.5,-140.99 429.5,-140.99"/>
</g>
<!-- SVGLoaderComponent -->
<g id="node4" class="node">
<title>SVGLoaderComponent</title>
<polygon fill="#ffffb3" stroke="black" points="335.47,-122 186.53,-122 186.53,-86 335.47,-86 335.47,-122"/>
<text text-anchor="middle" x="261" y="-99.8" font-family="Times,serif" font-size="14.00">SVGLoaderComponent</text>
</g>
<!-- SVGLoaderComponent&#45;&gt;AtftLoaderModule -->
<g id="edge4" class="edge">
<title>SVGLoaderComponent&#45;&gt;AtftLoaderModule</title>
<path fill="none" stroke="black" d="M285,-122.01C285,-138.05 285,-159 285,-159 285,-159 361.95,-159 361.95,-159"/>
<polygon fill="black" stroke="black" points="361.95,-162.5 371.95,-159 361.95,-155.5 361.95,-162.5"/>
</g>
<!-- StlLoaderComponent -->
<g id="node5" class="node">
<title>StlLoaderComponent</title>
<polygon fill="#ffffb3" stroke="black" points="168.04,-122 31.96,-122 31.96,-86 168.04,-86 168.04,-122"/>
<text text-anchor="middle" x="100" y="-99.8" font-family="Times,serif" font-size="14.00">StlLoaderComponent</text>
</g>
<!-- StlLoaderComponent&#45;&gt;AtftLoaderModule -->
<g id="edge5" class="edge">
<title>StlLoaderComponent&#45;&gt;AtftLoaderModule</title>
<path fill="none" stroke="black" d="M119.92,-122.27C119.92,-140.56 119.92,-166 119.92,-166 119.92,-166 361.89,-166 361.89,-166"/>
<polygon fill="black" stroke="black" points="361.89,-169.5 371.89,-166 361.89,-162.5 361.89,-169.5"/>
</g>
<!-- AudioLoaderComponent  -->
<g id="node7" class="node">
<title>AudioLoaderComponent </title>
<polygon fill="#fb8072" stroke="black" points="854.97,-252 695.03,-252 695.03,-216 854.97,-216 854.97,-252"/>
<text text-anchor="middle" x="775" y="-229.8" font-family="Times,serif" font-size="14.00">AudioLoaderComponent </text>
</g>
<!-- AtftLoaderModule&#45;&gt;AudioLoaderComponent  -->
<g id="edge6" class="edge">
<title>AtftLoaderModule&#45;&gt;AudioLoaderComponent </title>
<path fill="none" stroke="black" stroke-dasharray="5,2" d="M494,-173C584.94,-173 745.5,-173 745.5,-173 745.5,-173 745.5,-205.7 745.5,-205.7"/>
<polygon fill="black" stroke="black" points="742,-205.7 745.5,-215.7 749,-205.7 742,-205.7"/>
</g>
<!-- ObjLoaderComponent  -->
<g id="node8" class="node">
<title>ObjLoaderComponent </title>
<polygon fill="#fb8072" stroke="black" points="677.97,-252 532.03,-252 532.03,-216 677.97,-216 677.97,-252"/>
<text text-anchor="middle" x="605" y="-229.8" font-family="Times,serif" font-size="14.00">ObjLoaderComponent </text>
</g>
<!-- AtftLoaderModule&#45;&gt;ObjLoaderComponent  -->
<g id="edge7" class="edge">
<title>AtftLoaderModule&#45;&gt;ObjLoaderComponent </title>
<path fill="none" stroke="black" stroke-dasharray="5,2" d="M494,-180C533.97,-180 578.84,-180 578.84,-180 578.84,-180 578.84,-205.72 578.84,-205.72"/>
<polygon fill="black" stroke="black" points="575.34,-205.72 578.84,-215.72 582.34,-205.72 575.34,-205.72"/>
</g>
<!-- ObjectLoaderComponent  -->
<g id="node9" class="node">
<title>ObjectLoaderComponent </title>
<polygon fill="#fb8072" stroke="black" points="513.79,-252 352.21,-252 352.21,-216 513.79,-216 513.79,-252"/>
<text text-anchor="middle" x="433" y="-229.8" font-family="Times,serif" font-size="14.00">ObjectLoaderComponent </text>
</g>
<!-- AtftLoaderModule&#45;&gt;ObjectLoaderComponent  -->
<g id="edge8" class="edge">
<title>AtftLoaderModule&#45;&gt;ObjectLoaderComponent </title>
<path fill="none" stroke="black" stroke-dasharray="5,2" d="M433,-187.11C433,-187.11 433,-205.99 433,-205.99"/>
<polygon fill="black" stroke="black" points="429.5,-205.99 433,-215.99 436.5,-205.99 429.5,-205.99"/>
</g>
<!-- SVGLoaderComponent  -->
<g id="node10" class="node">
<title>SVGLoaderComponent </title>
<polygon fill="#fb8072" stroke="black" points="334.47,-252 181.53,-252 181.53,-216 334.47,-216 334.47,-252"/>
<text text-anchor="middle" x="258" y="-229.8" font-family="Times,serif" font-size="14.00">SVGLoaderComponent </text>
</g>
<!-- AtftLoaderModule&#45;&gt;SVGLoaderComponent  -->
<g id="edge9" class="edge">
<title>AtftLoaderModule&#45;&gt;SVGLoaderComponent </title>
<path fill="none" stroke="black" stroke-dasharray="5,2" d="M372.21,-180C314.26,-180 235.75,-180 235.75,-180 235.75,-180 235.75,-205.72 235.75,-205.72"/>
<polygon fill="black" stroke="black" points="232.25,-205.72 235.75,-215.72 239.25,-205.72 232.25,-205.72"/>
</g>
<!-- StlLoaderComponent  -->
<g id="node11" class="node">
<title>StlLoaderComponent </title>
<polygon fill="#fb8072" stroke="black" points="164.04,-252 23.96,-252 23.96,-216 164.04,-216 164.04,-252"/>
<text text-anchor="middle" x="94" y="-229.8" font-family="Times,serif" font-size="14.00">StlLoaderComponent </text>
</g>
<!-- AtftLoaderModule&#45;&gt;StlLoaderComponent  -->
<g id="edge10" class="edge">
<title>AtftLoaderModule&#45;&gt;StlLoaderComponent </title>
<path fill="none" stroke="black" stroke-dasharray="5,2" d="M372.01,-173C269.99,-173 75.83,-173 75.83,-173 75.83,-173 75.83,-205.7 75.83,-205.7"/>
<polygon fill="black" stroke="black" points="72.33,-205.7 75.83,-215.7 79.33,-205.7 72.33,-205.7"/>
</g>
</g>
</svg>
