<?xml version="1.0" encoding="UTF-8" standalone="no"?>
<!DOCTYPE svg PUBLIC "-//W3C//DTD SVG 1.1//EN"
 "http://www.w3.org/Graphics/SVG/1.1/DTD/svg11.dtd">
<!-- Generated by graphviz version 2.40.1 (20161225.0304)
 -->
<!-- Title: dependencies Pages: 1 -->
<svg width="710pt" height="284pt"
 viewBox="0.00 0.00 710.00 284.00" xmlns="http://www.w3.org/2000/svg" xmlns:xlink="http://www.w3.org/1999/xlink">
<g id="graph0" class="graph" transform="scale(1 1) rotate(0) translate(4 280)">
<title>dependencies</title>
<polygon fill="#ffffff" stroke="transparent" points="-4,4 -4,-280 706,-280 706,4 -4,4"/>
<text text-anchor="start" x="330.0091" y="-42.4" font-family="sans-serif" font-weight="bold" font-size="14.00" fill="#000000">Legend</text>
<polygon fill="#ffffb3" stroke="transparent" points="117,-10 117,-30 137,-30 137,-10 117,-10"/>
<text text-anchor="start" x="140.629" y="-15.4" font-family="sans-serif" font-size="14.00" fill="#000000"> &#160;Declarations</text>
<polygon fill="#8dd3c7" stroke="transparent" points="230,-10 230,-30 250,-30 250,-10 230,-10"/>
<text text-anchor="start" x="253.7251" y="-15.4" font-family="sans-serif" font-size="14.00" fill="#000000"> &#160;Module</text>
<polygon fill="#80b1d3" stroke="transparent" points="316,-10 316,-30 336,-30 336,-10 316,-10"/>
<text text-anchor="start" x="339.7812" y="-15.4" font-family="sans-serif" font-size="14.00" fill="#000000"> &#160;Bootstrap</text>
<polygon fill="#fdb462" stroke="transparent" points="413,-10 413,-30 433,-30 433,-10 413,-10"/>
<text text-anchor="start" x="436.6732" y="-15.4" font-family="sans-serif" font-size="14.00" fill="#000000"> &#160;Providers</text>
<polygon fill="#fb8072" stroke="transparent" points="509,-10 509,-30 529,-30 529,-10 509,-10"/>
<text text-anchor="start" x="532.7258" y="-15.4" font-family="sans-serif" font-size="14.00" fill="#000000"> &#160;Exports</text>
<g id="clust1" class="cluster">
<title>cluster_AtftLoaderModule</title>
<polygon fill="none" stroke="#000000" stroke-dasharray="1,5" points="8,-70 8,-268 694,-268 694,-70 8,-70"/>
</g>
<g id="clust2" class="cluster">
<title>cluster_AtftLoaderModule_declarations</title>
<polygon fill="none" stroke="#000000" points="24,-78 24,-130 680,-130 680,-78 24,-78"/>
</g>
<g id="clust8" class="cluster">
<title>cluster_AtftLoaderModule_exports</title>
<polygon fill="none" stroke="#000000" points="16,-208 16,-260 686,-260 686,-208 16,-208"/>
</g>
<!-- ObjLoaderComponent -->
<g id="node1" class="node">
<title>ObjLoaderComponent</title>
<polygon fill="#ffffb3" stroke="#000000" points="671.972,-122 530.028,-122 530.028,-86 671.972,-86 671.972,-122"/>
<text text-anchor="middle" x="601" y="-99.8" font-family="Times,serif" font-size="14.00" fill="#000000">ObjLoaderComponent</text>
</g>
<!-- AtftLoaderModule -->
<g id="node5" class="node">
<title>AtftLoaderModule</title>
<polygon fill="#8dd3c7" stroke="#000000" points="323.7409,-187 320.7409,-191 299.7409,-191 296.7409,-187 202.2591,-187 202.2591,-151 323.7409,-151 323.7409,-187"/>
<text text-anchor="middle" x="263" y="-164.8" font-family="Times,serif" font-size="14.00" fill="#000000">AtftLoaderModule</text>
</g>
<!-- ObjLoaderComponent&#45;&gt;AtftLoaderModule -->
<g id="edge1" class="edge">
<title>ObjLoaderComponent&#45;&gt;AtftLoaderModule</title>
<path fill="none" stroke="#000000" d="M625.412,-122.2667C625.412,-140.5552 625.412,-166 625.412,-166 625.412,-166 334.0684,-166 334.0684,-166"/>
<polygon fill="#000000" stroke="#000000" points="334.0685,-162.5001 324.0684,-166 334.0684,-169.5001 334.0685,-162.5001"/>
</g>
<!-- ObjectLoaderComponent -->
<g id="node2" class="node">
<title>ObjectLoaderComponent</title>
<polygon fill="#ffffb3" stroke="#000000" points="512.2921,-122 353.7079,-122 353.7079,-86 512.2921,-86 512.2921,-122"/>
<text text-anchor="middle" x="433" y="-99.8" font-family="Times,serif" font-size="14.00" fill="#000000">ObjectLoaderComponent</text>
</g>
<!-- ObjectLoaderComponent&#45;&gt;AtftLoaderModule -->
<g id="edge2" class="edge">
<title>ObjectLoaderComponent&#45;&gt;AtftLoaderModule</title>
<path fill="none" stroke="#000000" d="M459.382,-122.0091C459.382,-138.0494 459.382,-159 459.382,-159 459.382,-159 333.7916,-159 333.7916,-159"/>
<polygon fill="#000000" stroke="#000000" points="333.7916,-155.5001 323.7916,-159 333.7916,-162.5001 333.7916,-155.5001"/>
</g>
<!-- SVGLoaderComponent -->
<g id="node3" class="node">
<title>SVGLoaderComponent</title>
<polygon fill="#ffffb3" stroke="#000000" points="335.4706,-122 186.5294,-122 186.5294,-86 335.4706,-86 335.4706,-122"/>
<text text-anchor="middle" x="261" y="-99.8" font-family="Times,serif" font-size="14.00" fill="#000000">SVGLoaderComponent</text>
</g>
<!-- SVGLoaderComponent&#45;&gt;AtftLoaderModule -->
<g id="edge3" class="edge">
<title>SVGLoaderComponent&#45;&gt;AtftLoaderModule</title>
<path fill="none" stroke="#000000" d="M263,-122.1061C263,-122.1061 263,-140.991 263,-140.991"/>
<polygon fill="#000000" stroke="#000000" points="259.5001,-140.9909 263,-150.991 266.5001,-140.991 259.5001,-140.9909"/>
</g>
<!-- StlLoaderComponent -->
<g id="node4" class="node">
<title>StlLoaderComponent</title>
<polygon fill="#ffffb3" stroke="#000000" points="168.0394,-122 31.9606,-122 31.9606,-86 168.0394,-86 168.0394,-122"/>
<text text-anchor="middle" x="100" y="-99.8" font-family="Times,serif" font-size="14.00" fill="#000000">StlLoaderComponent</text>
</g>
<!-- StlLoaderComponent&#45;&gt;AtftLoaderModule -->
<g id="edge4" class="edge">
<title>StlLoaderComponent&#45;&gt;AtftLoaderModule</title>
<path fill="none" stroke="#000000" d="M119.9231,-122.0225C119.9231,-139.3734 119.9231,-163 119.9231,-163 119.9231,-163 191.9075,-163 191.9075,-163"/>
<polygon fill="#000000" stroke="#000000" points="191.9075,-166.5001 201.9075,-163 191.9075,-159.5001 191.9075,-166.5001"/>
</g>
<!-- ObjLoaderComponent  -->
<g id="node6" class="node">
<title>ObjLoaderComponent </title>
<polygon fill="#fb8072" stroke="#000000" points="677.9728,-252 532.0272,-252 532.0272,-216 677.9728,-216 677.9728,-252"/>
<text text-anchor="middle" x="605" y="-229.8" font-family="Times,serif" font-size="14.00" fill="#000000">ObjLoaderComponent </text>
</g>
<!-- AtftLoaderModule&#45;&gt;ObjLoaderComponent  -->
<g id="edge5" class="edge">
<title>AtftLoaderModule&#45;&gt;ObjLoaderComponent </title>
<path fill="none" stroke="#000000" stroke-dasharray="5,2" d="M323.8967,-173C415.6756,-173 578.838,-173 578.838,-173 578.838,-173 578.838,-205.698 578.838,-205.698"/>
<polygon fill="#000000" stroke="#000000" points="575.3381,-205.698 578.838,-215.698 582.3381,-205.698 575.3381,-205.698"/>
</g>
<!-- ObjectLoaderComponent  -->
<g id="node7" class="node">
<title>ObjectLoaderComponent </title>
<polygon fill="#fb8072" stroke="#000000" points="513.7919,-252 352.2081,-252 352.2081,-216 513.7919,-216 513.7919,-252"/>
<text text-anchor="middle" x="433" y="-229.8" font-family="Times,serif" font-size="14.00" fill="#000000">ObjectLoaderComponent </text>
</g>
<!-- AtftLoaderModule&#45;&gt;ObjectLoaderComponent  -->
<g id="edge6" class="edge">
<title>AtftLoaderModule&#45;&gt;ObjectLoaderComponent </title>
<path fill="none" stroke="#000000" stroke-dasharray="5,2" d="M323.907,-180C363.0501,-180 406.618,-180 406.618,-180 406.618,-180 406.618,-205.7181 406.618,-205.7181"/>
<polygon fill="#000000" stroke="#000000" points="403.1181,-205.718 406.618,-215.7181 410.1181,-205.7181 403.1181,-205.718"/>
</g>
<!-- SVGLoaderComponent  -->
<g id="node8" class="node">
<title>SVGLoaderComponent </title>
<polygon fill="#fb8072" stroke="#000000" points="334.4713,-252 181.5287,-252 181.5287,-216 334.4713,-216 334.4713,-252"/>
<text text-anchor="middle" x="258" y="-229.8" font-family="Times,serif" font-size="14.00" fill="#000000">SVGLoaderComponent </text>
</g>
<!-- AtftLoaderModule&#45;&gt;SVGLoaderComponent  -->
<g id="edge7" class="edge">
<title>AtftLoaderModule&#45;&gt;SVGLoaderComponent </title>
<path fill="none" stroke="#000000" stroke-dasharray="5,2" d="M263,-187.1061C263,-187.1061 263,-205.991 263,-205.991"/>
<polygon fill="#000000" stroke="#000000" points="259.5001,-205.9909 263,-215.991 266.5001,-205.991 259.5001,-205.9909"/>
</g>
<!-- StlLoaderComponent  -->
<g id="node9" class="node">
<title>StlLoaderComponent </title>
<polygon fill="#fb8072" stroke="#000000" points="164.0386,-252 23.9614,-252 23.9614,-216 164.0386,-216 164.0386,-252"/>
<text text-anchor="middle" x="94" y="-229.8" font-family="Times,serif" font-size="14.00" fill="#000000">StlLoaderComponent </text>
</g>
<!-- AtftLoaderModule&#45;&gt;StlLoaderComponent  -->
<g id="edge8" class="edge">
<title>AtftLoaderModule&#45;&gt;StlLoaderComponent </title>
<path fill="none" stroke="#000000" stroke-dasharray="5,2" d="M202.2303,-175C147.5769,-175 75.8269,-175 75.8269,-175 75.8269,-175 75.8269,-205.9775 75.8269,-205.9775"/>
<polygon fill="#000000" stroke="#000000" points="72.327,-205.9774 75.8269,-215.9775 79.327,-205.9775 72.327,-205.9774"/>
</g>
</g>
</svg>
