<?xml version="1.0" encoding="UTF-8" standalone="no"?>
<!DOCTYPE svg PUBLIC "-//W3C//DTD SVG 1.1//EN"
 "http://www.w3.org/Graphics/SVG/1.1/DTD/svg11.dtd">
<!-- Generated by graphviz version 2.47.3 (20210619.1520)
 -->
<!-- Title: dependencies Pages: 1 -->
<svg width="1218pt" height="247pt"
 viewBox="0.00 0.00 1218.00 246.80" xmlns="http://www.w3.org/2000/svg" xmlns:xlink="http://www.w3.org/1999/xlink">
<g id="graph0" class="graph" transform="scale(1 1) rotate(0) translate(4 242.8)">
<title>dependencies</title>
<polygon fill="white" stroke="transparent" points="-4,4 -4,-242.8 1214,-242.8 1214,4 -4,4"/>
<text text-anchor="middle" x="605" y="-8.2" font-family="sans-serif" font-size="14.00">dependencies</text>
<g id="clust1" class="cluster">
<title>cluster_AtftModule</title>
<polygon fill="none" stroke="black" stroke-dasharray="1,5" points="8,-32.8 8,-230.8 1202,-230.8 1202,-32.8 8,-32.8"/>
</g>
<g id="clust3" class="cluster">
<title>cluster_AtftModule_imports</title>
<polygon fill="none" stroke="black" points="33,-40.8 33,-92.8 1183,-92.8 1183,-40.8 33,-40.8"/>
</g>
<g id="clust4" class="cluster">
<title>cluster_AtftModule_exports</title>
<polygon fill="none" stroke="black" points="16,-170.8 16,-222.8 1194,-222.8 1194,-170.8 16,-170.8"/>
</g>
<!-- AtftAnimationModule -->
<g id="node1" class="node">
<title>AtftAnimationModule</title>
<polygon fill="#8dd3c7" stroke="black" points="1174.98,-84.8 1171.98,-88.8 1150.98,-88.8 1147.98,-84.8 1033.02,-84.8 1033.02,-48.8 1174.98,-48.8 1174.98,-84.8"/>
<text text-anchor="middle" x="1104" y="-62.6" font-family="Times,serif" font-size="14.00">AtftAnimationModule</text>
</g>
<!-- AtftModule -->
<g id="node9" class="node">
<title>AtftModule</title>
<polygon fill="#8dd3c7" stroke="black" points="581.1,-149.8 578.1,-153.8 557.1,-153.8 554.1,-149.8 498.9,-149.8 498.9,-113.8 581.1,-113.8 581.1,-149.8"/>
<text text-anchor="middle" x="540" y="-127.6" font-family="Times,serif" font-size="14.00">AtftModule</text>
</g>
<!-- AtftAnimationModule&#45;&gt;AtftModule -->
<g id="edge1" class="edge">
<title>AtftAnimationModule&#45;&gt;AtftModule</title>
<path fill="none" stroke="black" d="M1036.63,-85.02C1036.63,-103.63 1036.63,-129.8 1036.63,-129.8 1036.63,-129.8 591.06,-129.8 591.06,-129.8"/>
<polygon fill="black" stroke="black" points="591.06,-126.3 581.06,-129.8 591.06,-133.3 591.06,-126.3"/>
</g>
<!-- AtftCameraModule -->
<g id="node2" class="node">
<title>AtftCameraModule</title>
<polygon fill="#8dd3c7" stroke="black" points="1014.63,-84.8 1011.63,-88.8 990.63,-88.8 987.63,-84.8 889.37,-84.8 889.37,-48.8 1014.63,-48.8 1014.63,-84.8"/>
<text text-anchor="middle" x="952" y="-62.6" font-family="Times,serif" font-size="14.00">AtftCameraModule</text>
</g>
<!-- AtftCameraModule&#45;&gt;AtftModule -->
<g id="edge2" class="edge">
<title>AtftCameraModule&#45;&gt;AtftModule</title>
<path fill="none" stroke="black" d="M974.35,-84.82C974.35,-102.17 974.35,-125.8 974.35,-125.8 974.35,-125.8 591.25,-125.8 591.25,-125.8"/>
<polygon fill="black" stroke="black" points="591.25,-122.3 581.25,-125.8 591.25,-129.3 591.25,-122.3"/>
</g>
<!-- AtftControlModule -->
<g id="node3" class="node">
<title>AtftControlModule</title>
<polygon fill="#8dd3c7" stroke="black" points="871.38,-84.8 868.38,-88.8 847.38,-88.8 844.38,-84.8 746.62,-84.8 746.62,-48.8 871.38,-48.8 871.38,-84.8"/>
<text text-anchor="middle" x="809" y="-62.6" font-family="Times,serif" font-size="14.00">AtftControlModule</text>
</g>
<!-- AtftControlModule&#45;&gt;AtftModule -->
<g id="edge3" class="edge">
<title>AtftControlModule&#45;&gt;AtftModule</title>
<path fill="none" stroke="black" d="M829.9,-84.81C829.9,-100.85 829.9,-121.8 829.9,-121.8 829.9,-121.8 591.23,-121.8 591.23,-121.8"/>
<polygon fill="black" stroke="black" points="591.23,-118.3 581.23,-121.8 591.23,-125.3 591.23,-118.3"/>
</g>
<!-- AtftEffectModule -->
<g id="node4" class="node">
<title>AtftEffectModule</title>
<polygon fill="#8dd3c7" stroke="black" points="728.29,-84.8 725.29,-88.8 704.29,-88.8 701.29,-84.8 611.71,-84.8 611.71,-48.8 728.29,-48.8 728.29,-84.8"/>
<text text-anchor="middle" x="670" y="-62.6" font-family="Times,serif" font-size="14.00">AtftEffectModule</text>
</g>
<!-- AtftEffectModule&#45;&gt;AtftModule -->
<g id="edge4" class="edge">
<title>AtftEffectModule&#45;&gt;AtftModule</title>
<path fill="none" stroke="black" d="M650.62,-84.92C650.62,-99.58 650.62,-117.8 650.62,-117.8 650.62,-117.8 591.19,-117.8 591.19,-117.8"/>
<polygon fill="black" stroke="black" points="591.19,-114.3 581.19,-117.8 591.19,-121.3 591.19,-114.3"/>
</g>
<!-- AtftObjectModule -->
<g id="node5" class="node">
<title>AtftObjectModule</title>
<polygon fill="#8dd3c7" stroke="black" points="593.92,-84.8 590.92,-88.8 569.92,-88.8 566.92,-84.8 474.08,-84.8 474.08,-48.8 593.92,-48.8 593.92,-84.8"/>
<text text-anchor="middle" x="534" y="-62.6" font-family="Times,serif" font-size="14.00">AtftObjectModule</text>
</g>
<!-- AtftObjectModule&#45;&gt;AtftModule -->
<g id="edge5" class="edge">
<title>AtftObjectModule&#45;&gt;AtftModule</title>
<path fill="none" stroke="black" d="M540,-84.91C540,-84.91 540,-103.79 540,-103.79"/>
<polygon fill="black" stroke="black" points="536.5,-103.79 540,-113.79 543.5,-103.79 536.5,-103.79"/>
</g>
<!-- AtftRaycasterModule -->
<g id="node6" class="node">
<title>AtftRaycasterModule</title>
<polygon fill="#8dd3c7" stroke="black" points="456.79,-84.8 453.79,-88.8 432.79,-88.8 429.79,-84.8 319.21,-84.8 319.21,-48.8 456.79,-48.8 456.79,-84.8"/>
<text text-anchor="middle" x="388" y="-62.6" font-family="Times,serif" font-size="14.00">AtftRaycasterModule</text>
</g>
<!-- AtftRaycasterModule&#45;&gt;AtftModule -->
<g id="edge6" class="edge">
<title>AtftRaycasterModule&#45;&gt;AtftModule</title>
<path fill="none" stroke="black" d="M406.71,-85.04C406.71,-100.37 406.71,-119.8 406.71,-119.8 406.71,-119.8 488.92,-119.8 488.92,-119.8"/>
<polygon fill="black" stroke="black" points="488.92,-123.3 498.92,-119.8 488.92,-116.3 488.92,-123.3"/>
</g>
<!-- AtftRendererModule -->
<g id="node7" class="node">
<title>AtftRendererModule</title>
<polygon fill="#8dd3c7" stroke="black" points="301.9,-84.8 298.9,-88.8 277.9,-88.8 274.9,-84.8 168.1,-84.8 168.1,-48.8 301.9,-48.8 301.9,-84.8"/>
<text text-anchor="middle" x="235" y="-62.6" font-family="Times,serif" font-size="14.00">AtftRendererModule</text>
</g>
<!-- AtftRendererModule&#45;&gt;AtftModule -->
<g id="edge7" class="edge">
<title>AtftRendererModule&#45;&gt;AtftModule</title>
<path fill="none" stroke="black" d="M296.57,-84.83C296.57,-101.86 296.57,-124.8 296.57,-124.8 296.57,-124.8 488.71,-124.8 488.71,-124.8"/>
<polygon fill="black" stroke="black" points="488.71,-128.3 498.71,-124.8 488.71,-121.3 488.71,-128.3"/>
</g>
<!-- AtftStatsModule -->
<g id="node8" class="node">
<title>AtftStatsModule</title>
<polygon fill="#8dd3c7" stroke="black" points="150.82,-84.8 147.82,-88.8 126.82,-88.8 123.82,-84.8 41.18,-84.8 41.18,-48.8 150.82,-48.8 150.82,-84.8"/>
<text text-anchor="middle" x="96" y="-62.6" font-family="Times,serif" font-size="14.00">AtftStatsModule</text>
</g>
<!-- AtftStatsModule&#45;&gt;AtftModule -->
<g id="edge8" class="edge">
<title>AtftStatsModule&#45;&gt;AtftModule</title>
<path fill="none" stroke="black" d="M143.54,-85.02C143.54,-103.63 143.54,-129.8 143.54,-129.8 143.54,-129.8 488.69,-129.8 488.69,-129.8"/>
<polygon fill="black" stroke="black" points="488.69,-133.3 498.69,-129.8 488.69,-126.3 488.69,-133.3"/>
</g>
<!-- AtftAnimationModule  -->
<g id="node10" class="node">
<title>AtftAnimationModule </title>
<polygon fill="#fb8072" stroke="black" points="1185.98,-214.8 1040.02,-214.8 1040.02,-178.8 1185.98,-178.8 1185.98,-214.8"/>
<text text-anchor="middle" x="1113" y="-192.6" font-family="Times,serif" font-size="14.00">AtftAnimationModule </text>
</g>
<!-- AtftModule&#45;&gt;AtftAnimationModule  -->
<g id="edge9" class="edge">
<title>AtftModule&#45;&gt;AtftAnimationModule </title>
<path fill="none" stroke="black" stroke-dasharray="5,2" d="M581.28,-133.8C711.9,-133.8 1107.62,-133.8 1107.62,-133.8 1107.62,-133.8 1107.62,-168.58 1107.62,-168.58"/>
<polygon fill="black" stroke="black" points="1104.13,-168.58 1107.62,-178.58 1111.13,-168.58 1104.13,-168.58"/>
</g>
<!-- AtftCameraModule  -->
<g id="node11" class="node">
<title>AtftCameraModule </title>
<polygon fill="#fb8072" stroke="black" points="1022.63,-214.8 893.37,-214.8 893.37,-178.8 1022.63,-178.8 1022.63,-214.8"/>
<text text-anchor="middle" x="958" y="-192.6" font-family="Times,serif" font-size="14.00">AtftCameraModule </text>
</g>
<!-- AtftModule&#45;&gt;AtftCameraModule  -->
<g id="edge10" class="edge">
<title>AtftModule&#45;&gt;AtftCameraModule </title>
<path fill="none" stroke="black" stroke-dasharray="5,2" d="M581.41,-137.8C682.54,-137.8 933.9,-137.8 933.9,-137.8 933.9,-137.8 933.9,-168.78 933.9,-168.78"/>
<polygon fill="black" stroke="black" points="930.4,-168.78 933.9,-178.78 937.4,-168.78 930.4,-168.78"/>
</g>
<!-- AtftControlModule  -->
<g id="node12" class="node">
<title>AtftControlModule </title>
<polygon fill="#fb8072" stroke="black" points="875.38,-214.8 746.62,-214.8 746.62,-178.8 875.38,-178.8 875.38,-214.8"/>
<text text-anchor="middle" x="811" y="-192.6" font-family="Times,serif" font-size="14.00">AtftControlModule </text>
</g>
<!-- AtftModule&#45;&gt;AtftControlModule  -->
<g id="edge11" class="edge">
<title>AtftModule&#45;&gt;AtftControlModule </title>
<path fill="none" stroke="black" stroke-dasharray="5,2" d="M581.29,-141.8C651.91,-141.8 788.35,-141.8 788.35,-141.8 788.35,-141.8 788.35,-168.79 788.35,-168.79"/>
<polygon fill="black" stroke="black" points="784.85,-168.79 788.35,-178.79 791.85,-168.79 784.85,-168.79"/>
</g>
<!-- AtftEffectModule  -->
<g id="node13" class="node">
<title>AtftEffectModule </title>
<polygon fill="#fb8072" stroke="black" points="728.79,-214.8 609.21,-214.8 609.21,-178.8 728.79,-178.8 728.79,-214.8"/>
<text text-anchor="middle" x="669" y="-192.6" font-family="Times,serif" font-size="14.00">AtftEffectModule </text>
</g>
<!-- AtftModule&#45;&gt;AtftEffectModule  -->
<g id="edge12" class="edge">
<title>AtftModule&#45;&gt;AtftEffectModule </title>
<path fill="none" stroke="black" stroke-dasharray="5,2" d="M581.21,-145.8C625.43,-145.8 689.38,-145.8 689.38,-145.8 689.38,-145.8 689.38,-168.68 689.38,-168.68"/>
<polygon fill="black" stroke="black" points="685.88,-168.68 689.38,-178.68 692.88,-168.68 685.88,-168.68"/>
</g>
<!-- AtftObjectModule  -->
<g id="node14" class="node">
<title>AtftObjectModule </title>
<polygon fill="#fb8072" stroke="black" points="591.42,-214.8 468.58,-214.8 468.58,-178.8 591.42,-178.8 591.42,-214.8"/>
<text text-anchor="middle" x="530" y="-192.6" font-family="Times,serif" font-size="14.00">AtftObjectModule </text>
</g>
<!-- AtftModule&#45;&gt;AtftObjectModule  -->
<g id="edge13" class="edge">
<title>AtftModule&#45;&gt;AtftObjectModule </title>
<path fill="none" stroke="black" stroke-dasharray="5,2" d="M540,-149.91C540,-149.91 540,-168.79 540,-168.79"/>
<polygon fill="black" stroke="black" points="536.5,-168.79 540,-178.79 543.5,-168.79 536.5,-168.79"/>
</g>
<!-- AtftRaycasterModule  -->
<g id="node15" class="node">
<title>AtftRaycasterModule </title>
<polygon fill="#fb8072" stroke="black" points="450.29,-214.8 309.71,-214.8 309.71,-178.8 450.29,-178.8 450.29,-214.8"/>
<text text-anchor="middle" x="380" y="-192.6" font-family="Times,serif" font-size="14.00">AtftRaycasterModule </text>
</g>
<!-- AtftModule&#45;&gt;AtftRaycasterModule  -->
<g id="edge14" class="edge">
<title>AtftModule&#45;&gt;AtftRaycasterModule </title>
<path fill="none" stroke="black" stroke-dasharray="5,2" d="M498.51,-144.8C446.2,-144.8 363.04,-144.8 363.04,-144.8 363.04,-144.8 363.04,-168.61 363.04,-168.61"/>
<polygon fill="black" stroke="black" points="359.54,-168.61 363.04,-178.61 366.54,-168.61 359.54,-168.61"/>
</g>
<!-- AtftRendererModule  -->
<g id="node16" class="node">
<title>AtftRendererModule </title>
<polygon fill="#fb8072" stroke="black" points="291.4,-214.8 154.6,-214.8 154.6,-178.8 291.4,-178.8 291.4,-214.8"/>
<text text-anchor="middle" x="223" y="-192.6" font-family="Times,serif" font-size="14.00">AtftRendererModule </text>
</g>
<!-- AtftModule&#45;&gt;AtftRendererModule  -->
<g id="edge15" class="edge">
<title>AtftModule&#45;&gt;AtftRendererModule </title>
<path fill="none" stroke="black" stroke-dasharray="5,2" d="M498.82,-139.8C414.46,-139.8 229.88,-139.8 229.88,-139.8 229.88,-139.8 229.88,-168.76 229.88,-168.76"/>
<polygon fill="black" stroke="black" points="226.38,-168.76 229.88,-178.76 233.38,-168.76 226.38,-168.76"/>
</g>
<!-- AtftStatsModule  -->
<g id="node17" class="node">
<title>AtftStatsModule </title>
<polygon fill="#fb8072" stroke="black" points="136.32,-214.8 23.68,-214.8 23.68,-178.8 136.32,-178.8 136.32,-214.8"/>
<text text-anchor="middle" x="80" y="-192.6" font-family="Times,serif" font-size="14.00">AtftStatsModule </text>
</g>
<!-- AtftModule&#45;&gt;AtftStatsModule  -->
<g id="edge16" class="edge">
<title>AtftModule&#45;&gt;AtftStatsModule </title>
<path fill="none" stroke="black" stroke-dasharray="5,2" d="M498.77,-134.8C387.4,-134.8 88.88,-134.8 88.88,-134.8 88.88,-134.8 88.88,-168.53 88.88,-168.53"/>
<polygon fill="black" stroke="black" points="85.38,-168.53 88.88,-178.53 92.38,-168.53 85.38,-168.53"/>
</g>
</g>
</svg>
