<?xml version="1.0" encoding="UTF-8" standalone="no"?>
<!DOCTYPE svg PUBLIC "-//W3C//DTD SVG 1.1//EN"
 "http://www.w3.org/Graphics/SVG/1.1/DTD/svg11.dtd">
<!-- Generated by graphviz version 2.40.1 (20161225.0304)
 -->
<!-- Title: dependencies Pages: 1 -->
<svg width="1218pt" height="284pt"
 viewBox="0.00 0.00 1218.00 284.00" xmlns="http://www.w3.org/2000/svg" xmlns:xlink="http://www.w3.org/1999/xlink">
<g id="graph0" class="graph" transform="scale(1 1) rotate(0) translate(4 280)">
<title>dependencies</title>
<polygon fill="#ffffff" stroke="transparent" points="-4,4 -4,-280 1214,-280 1214,4 -4,4"/>
<text text-anchor="start" x="584.0091" y="-42.4" font-family="sans-serif" font-weight="bold" font-size="14.00" fill="#000000">Legend</text>
<polygon fill="#ffffb3" stroke="transparent" points="371,-10 371,-30 391,-30 391,-10 371,-10"/>
<text text-anchor="start" x="394.629" y="-15.4" font-family="sans-serif" font-size="14.00" fill="#000000"> &#160;Declarations</text>
<polygon fill="#8dd3c7" stroke="transparent" points="484,-10 484,-30 504,-30 504,-10 484,-10"/>
<text text-anchor="start" x="507.7251" y="-15.4" font-family="sans-serif" font-size="14.00" fill="#000000"> &#160;Module</text>
<polygon fill="#80b1d3" stroke="transparent" points="570,-10 570,-30 590,-30 590,-10 570,-10"/>
<text text-anchor="start" x="593.7812" y="-15.4" font-family="sans-serif" font-size="14.00" fill="#000000"> &#160;Bootstrap</text>
<polygon fill="#fdb462" stroke="transparent" points="667,-10 667,-30 687,-30 687,-10 667,-10"/>
<text text-anchor="start" x="690.6732" y="-15.4" font-family="sans-serif" font-size="14.00" fill="#000000"> &#160;Providers</text>
<polygon fill="#fb8072" stroke="transparent" points="763,-10 763,-30 783,-30 783,-10 763,-10"/>
<text text-anchor="start" x="786.7258" y="-15.4" font-family="sans-serif" font-size="14.00" fill="#000000"> &#160;Exports</text>
<g id="clust1" class="cluster">
<title>cluster_AtftModule</title>
<polygon fill="none" stroke="#000000" stroke-dasharray="1,5" points="8,-70 8,-268 1202,-268 1202,-70 8,-70"/>
</g>
<g id="clust3" class="cluster">
<title>cluster_AtftModule_imports</title>
<polygon fill="none" stroke="#000000" points="33,-78 33,-130 1183,-130 1183,-78 33,-78"/>
</g>
<g id="clust4" class="cluster">
<title>cluster_AtftModule_exports</title>
<polygon fill="none" stroke="#000000" points="16,-208 16,-260 1194,-260 1194,-208 16,-208"/>
</g>
<!-- AtftAnimationModule -->
<g id="node1" class="node">
<title>AtftAnimationModule</title>
<polygon fill="#8dd3c7" stroke="#000000" points="1174.9818,-122 1171.9818,-126 1150.9818,-126 1147.9818,-122 1033.0182,-122 1033.0182,-86 1174.9818,-86 1174.9818,-122"/>
<text text-anchor="middle" x="1104" y="-99.8" font-family="Times,serif" font-size="14.00" fill="#000000">AtftAnimationModule</text>
</g>
<!-- AtftModule -->
<g id="node9" class="node">
<title>AtftModule</title>
<polygon fill="#8dd3c7" stroke="#000000" points="581.0983,-187 578.0983,-191 557.0983,-191 554.0983,-187 498.9017,-187 498.9017,-151 581.0983,-151 581.0983,-187"/>
<text text-anchor="middle" x="540" y="-164.8" font-family="Times,serif" font-size="14.00" fill="#000000">AtftModule</text>
</g>
<!-- AtftAnimationModule&#45;&gt;AtftModule -->
<g id="edge1" class="edge">
<title>AtftAnimationModule&#45;&gt;AtftModule</title>
<path fill="none" stroke="#000000" d="M1036.6341,-122.2222C1036.6341,-140.8285 1036.6341,-167 1036.6341,-167 1036.6341,-167 591.0642,-167 591.0642,-167"/>
<polygon fill="#000000" stroke="#000000" points="591.0642,-163.5001 581.0642,-167 591.0641,-170.5001 591.0642,-163.5001"/>
</g>
<!-- AtftCameraModule -->
<g id="node2" class="node">
<title>AtftCameraModule</title>
<polygon fill="#8dd3c7" stroke="#000000" points="1014.6303,-122 1011.6303,-126 990.6303,-126 987.6303,-122 889.3697,-122 889.3697,-86 1014.6303,-86 1014.6303,-122"/>
<text text-anchor="middle" x="952" y="-99.8" font-family="Times,serif" font-size="14.00" fill="#000000">AtftCameraModule</text>
</g>
<!-- AtftCameraModule&#45;&gt;AtftModule -->
<g id="edge2" class="edge">
<title>AtftCameraModule&#45;&gt;AtftModule</title>
<path fill="none" stroke="#000000" d="M974.355,-122.0225C974.355,-139.3734 974.355,-163 974.355,-163 974.355,-163 591.2547,-163 591.2547,-163"/>
<polygon fill="#000000" stroke="#000000" points="591.2547,-159.5001 581.2547,-163 591.2546,-166.5001 591.2547,-159.5001"/>
</g>
<!-- AtftControlModule -->
<g id="node3" class="node">
<title>AtftControlModule</title>
<polygon fill="#8dd3c7" stroke="#000000" points="871.3767,-122 868.3767,-126 847.3767,-126 844.3767,-122 746.6233,-122 746.6233,-86 871.3767,-86 871.3767,-122"/>
<text text-anchor="middle" x="809" y="-99.8" font-family="Times,serif" font-size="14.00" fill="#000000">AtftControlModule</text>
</g>
<!-- AtftControlModule&#45;&gt;AtftModule -->
<g id="edge3" class="edge">
<title>AtftControlModule&#45;&gt;AtftModule</title>
<path fill="none" stroke="#000000" d="M829.8961,-122.0091C829.8961,-138.0494 829.8961,-159 829.8961,-159 829.8961,-159 591.2272,-159 591.2272,-159"/>
<polygon fill="#000000" stroke="#000000" points="591.2272,-155.5001 581.2272,-159 591.2271,-162.5001 591.2272,-155.5001"/>
</g>
<!-- AtftEffectModule -->
<g id="node4" class="node">
<title>AtftEffectModule</title>
<polygon fill="#8dd3c7" stroke="#000000" points="728.2922,-122 725.2922,-126 704.2922,-126 701.2922,-122 611.7078,-122 611.7078,-86 728.2922,-86 728.2922,-122"/>
<text text-anchor="middle" x="670" y="-99.8" font-family="Times,serif" font-size="14.00" fill="#000000">AtftEffectModule</text>
</g>
<!-- AtftEffectModule&#45;&gt;AtftModule -->
<g id="edge4" class="edge">
<title>AtftEffectModule&#45;&gt;AtftModule</title>
<path fill="none" stroke="#000000" d="M650.618,-122.1243C650.618,-136.7832 650.618,-155 650.618,-155 650.618,-155 591.1901,-155 591.1901,-155"/>
<polygon fill="#000000" stroke="#000000" points="591.1901,-151.5001 581.1901,-155 591.19,-158.5001 591.1901,-151.5001"/>
</g>
<!-- AtftObjectModule -->
<g id="node5" class="node">
<title>AtftObjectModule</title>
<polygon fill="#8dd3c7" stroke="#000000" points="593.9159,-122 590.9159,-126 569.9159,-126 566.9159,-122 474.0841,-122 474.0841,-86 593.9159,-86 593.9159,-122"/>
<text text-anchor="middle" x="534" y="-99.8" font-family="Times,serif" font-size="14.00" fill="#000000">AtftObjectModule</text>
</g>
<!-- AtftObjectModule&#45;&gt;AtftModule -->
<g id="edge5" class="edge">
<title>AtftObjectModule&#45;&gt;AtftModule</title>
<path fill="none" stroke="#000000" d="M540,-122.1061C540,-122.1061 540,-140.991 540,-140.991"/>
<polygon fill="#000000" stroke="#000000" points="536.5001,-140.9909 540,-150.991 543.5001,-140.991 536.5001,-140.9909"/>
</g>
<!-- AtftRaycasterModule -->
<g id="node6" class="node">
<title>AtftRaycasterModule</title>
<polygon fill="#8dd3c7" stroke="#000000" points="456.7893,-122 453.7893,-126 432.7893,-126 429.7893,-122 319.2107,-122 319.2107,-86 456.7893,-86 456.7893,-122"/>
<text text-anchor="middle" x="388" y="-99.8" font-family="Times,serif" font-size="14.00" fill="#000000">AtftRaycasterModule</text>
</g>
<!-- AtftRaycasterModule&#45;&gt;AtftModule -->
<g id="edge6" class="edge">
<title>AtftRaycasterModule&#45;&gt;AtftModule</title>
<path fill="none" stroke="#000000" d="M406.7148,-122.2396C406.7148,-137.5706 406.7148,-157 406.7148,-157 406.7148,-157 488.9225,-157 488.9225,-157"/>
<polygon fill="#000000" stroke="#000000" points="488.9225,-160.5001 498.9225,-157 488.9225,-153.5001 488.9225,-160.5001"/>
</g>
<!-- AtftRendererModule -->
<g id="node7" class="node">
<title>AtftRendererModule</title>
<polygon fill="#8dd3c7" stroke="#000000" points="301.9004,-122 298.9004,-126 277.9004,-126 274.9004,-122 168.0996,-122 168.0996,-86 301.9004,-86 301.9004,-122"/>
<text text-anchor="middle" x="235" y="-99.8" font-family="Times,serif" font-size="14.00" fill="#000000">AtftRendererModule</text>
</g>
<!-- AtftRendererModule&#45;&gt;AtftModule -->
<g id="edge7" class="edge">
<title>AtftRendererModule&#45;&gt;AtftModule</title>
<path fill="none" stroke="#000000" d="M296.5749,-122.0336C296.5749,-139.0597 296.5749,-162 296.5749,-162 296.5749,-162 488.7062,-162 488.7062,-162"/>
<polygon fill="#000000" stroke="#000000" points="488.7063,-165.5001 498.7062,-162 488.7062,-158.5001 488.7063,-165.5001"/>
</g>
<!-- AtftStatsModule -->
<g id="node8" class="node">
<title>AtftStatsModule</title>
<polygon fill="#8dd3c7" stroke="#000000" points="150.8217,-122 147.8217,-126 126.8217,-126 123.8217,-122 41.1783,-122 41.1783,-86 150.8217,-86 150.8217,-122"/>
<text text-anchor="middle" x="96" y="-99.8" font-family="Times,serif" font-size="14.00" fill="#000000">AtftStatsModule</text>
</g>
<!-- AtftStatsModule&#45;&gt;AtftModule -->
<g id="edge8" class="edge">
<title>AtftStatsModule&#45;&gt;AtftModule</title>
<path fill="none" stroke="#000000" d="M143.5356,-122.2222C143.5356,-140.8285 143.5356,-167 143.5356,-167 143.5356,-167 488.6933,-167 488.6933,-167"/>
<polygon fill="#000000" stroke="#000000" points="488.6934,-170.5001 498.6933,-167 488.6933,-163.5001 488.6934,-170.5001"/>
</g>
<!-- AtftAnimationModule  -->
<g id="node10" class="node">
<title>AtftAnimationModule </title>
<polygon fill="#fb8072" stroke="#000000" points="1185.9826,-252 1040.0174,-252 1040.0174,-216 1185.9826,-216 1185.9826,-252"/>
<text text-anchor="middle" x="1113" y="-229.8" font-family="Times,serif" font-size="14.00" fill="#000000">AtftAnimationModule </text>
</g>
<!-- AtftModule&#45;&gt;AtftAnimationModule  -->
<g id="edge9" class="edge">
<title>AtftModule&#45;&gt;AtftAnimationModule </title>
<path fill="none" stroke="#000000" stroke-dasharray="5,2" d="M581.2794,-171C711.8997,-171 1107.625,-171 1107.625,-171 1107.625,-171 1107.625,-205.7778 1107.625,-205.7778"/>
<polygon fill="#000000" stroke="#000000" points="1104.1251,-205.7778 1107.625,-215.7778 1111.1251,-205.7778 1104.1251,-205.7778"/>
</g>
<!-- AtftCameraModule  -->
<g id="node11" class="node">
<title>AtftCameraModule </title>
<polygon fill="#fb8072" stroke="#000000" points="1022.6299,-252 893.3701,-252 893.3701,-216 1022.6299,-216 1022.6299,-252"/>
<text text-anchor="middle" x="958" y="-229.8" font-family="Times,serif" font-size="14.00" fill="#000000">AtftCameraModule </text>
</g>
<!-- AtftModule&#45;&gt;AtftCameraModule  -->
<g id="edge10" class="edge">
<title>AtftModule&#45;&gt;AtftCameraModule </title>
<path fill="none" stroke="#000000" stroke-dasharray="5,2" d="M581.4092,-175C682.5402,-175 933.895,-175 933.895,-175 933.895,-175 933.895,-205.9775 933.895,-205.9775"/>
<polygon fill="#000000" stroke="#000000" points="930.3951,-205.9774 933.895,-215.9775 937.3951,-205.9775 930.3951,-205.9774"/>
</g>
<!-- AtftControlModule  -->
<g id="node12" class="node">
<title>AtftControlModule </title>
<polygon fill="#fb8072" stroke="#000000" points="875.3772,-252 746.6228,-252 746.6228,-216 875.3772,-216 875.3772,-252"/>
<text text-anchor="middle" x="811" y="-229.8" font-family="Times,serif" font-size="14.00" fill="#000000">AtftControlModule </text>
</g>
<!-- AtftModule&#45;&gt;AtftControlModule  -->
<g id="edge11" class="edge">
<title>AtftModule&#45;&gt;AtftControlModule </title>
<path fill="none" stroke="#000000" stroke-dasharray="5,2" d="M581.2894,-179C651.9098,-179 788.3539,-179 788.3539,-179 788.3539,-179 788.3539,-205.9909 788.3539,-205.9909"/>
<polygon fill="#000000" stroke="#000000" points="784.854,-205.9909 788.3539,-215.9909 791.854,-205.991 784.854,-205.9909"/>
</g>
<!-- AtftEffectModule  -->
<g id="node13" class="node">
<title>AtftEffectModule </title>
<polygon fill="#fb8072" stroke="#000000" points="728.792,-252 609.208,-252 609.208,-216 728.792,-216 728.792,-252"/>
<text text-anchor="middle" x="669" y="-229.8" font-family="Times,serif" font-size="14.00" fill="#000000">AtftEffectModule </text>
</g>
<!-- AtftModule&#45;&gt;AtftEffectModule  -->
<g id="edge12" class="edge">
<title>AtftModule&#45;&gt;AtftEffectModule </title>
<path fill="none" stroke="#000000" stroke-dasharray="5,2" d="M581.2147,-183C625.4309,-183 689.382,-183 689.382,-183 689.382,-183 689.382,-205.8757 689.382,-205.8757"/>
<polygon fill="#000000" stroke="#000000" points="685.8821,-205.8757 689.382,-215.8757 692.8821,-205.8757 685.8821,-205.8757"/>
</g>
<!-- AtftObjectModule  -->
<g id="node14" class="node">
<title>AtftObjectModule </title>
<polygon fill="#fb8072" stroke="#000000" points="591.4152,-252 468.5848,-252 468.5848,-216 591.4152,-216 591.4152,-252"/>
<text text-anchor="middle" x="530" y="-229.8" font-family="Times,serif" font-size="14.00" fill="#000000">AtftObjectModule </text>
</g>
<!-- AtftModule&#45;&gt;AtftObjectModule  -->
<g id="edge13" class="edge">
<title>AtftModule&#45;&gt;AtftObjectModule </title>
<path fill="none" stroke="#000000" stroke-dasharray="5,2" d="M540,-187.1061C540,-187.1061 540,-205.991 540,-205.991"/>
<polygon fill="#000000" stroke="#000000" points="536.5001,-205.9909 540,-215.991 543.5001,-205.991 536.5001,-205.9909"/>
</g>
<!-- AtftRaycasterModule  -->
<g id="node15" class="node">
<title>AtftRaycasterModule </title>
<polygon fill="#fb8072" stroke="#000000" points="450.2892,-252 309.7108,-252 309.7108,-216 450.2892,-216 450.2892,-252"/>
<text text-anchor="middle" x="380" y="-229.8" font-family="Times,serif" font-size="14.00" fill="#000000">AtftRaycasterModule </text>
</g>
<!-- AtftModule&#45;&gt;AtftRaycasterModule  -->
<g id="edge14" class="edge">
<title>AtftModule&#45;&gt;AtftRaycasterModule </title>
<path fill="none" stroke="#000000" stroke-dasharray="5,2" d="M498.5096,-182C446.2041,-182 363.0352,-182 363.0352,-182 363.0352,-182 363.0352,-205.8129 363.0352,-205.8129"/>
<polygon fill="#000000" stroke="#000000" points="359.5353,-205.8129 363.0352,-215.8129 366.5353,-205.813 359.5353,-205.8129"/>
</g>
<!-- AtftRendererModule  -->
<g id="node16" class="node">
<title>AtftRendererModule </title>
<polygon fill="#fb8072" stroke="#000000" points="291.3998,-252 154.6002,-252 154.6002,-216 291.3998,-216 291.3998,-252"/>
<text text-anchor="middle" x="223" y="-229.8" font-family="Times,serif" font-size="14.00" fill="#000000">AtftRendererModule </text>
</g>
<!-- AtftModule&#45;&gt;AtftRendererModule  -->
<g id="edge15" class="edge">
<title>AtftModule&#45;&gt;AtftRendererModule </title>
<path fill="none" stroke="#000000" stroke-dasharray="5,2" d="M498.8178,-177C414.4577,-177 229.875,-177 229.875,-177 229.875,-177 229.875,-205.9648 229.875,-205.9648"/>
<polygon fill="#000000" stroke="#000000" points="226.3751,-205.9648 229.875,-215.9648 233.3751,-205.9649 226.3751,-205.9648"/>
</g>
<!-- AtftStatsModule  -->
<g id="node17" class="node">
<title>AtftStatsModule </title>
<polygon fill="#fb8072" stroke="#000000" points="136.3213,-252 23.6787,-252 23.6787,-216 136.3213,-216 136.3213,-252"/>
<text text-anchor="middle" x="80" y="-229.8" font-family="Times,serif" font-size="14.00" fill="#000000">AtftStatsModule </text>
</g>
<!-- AtftModule&#45;&gt;AtftStatsModule  -->
<g id="edge16" class="edge">
<title>AtftModule&#45;&gt;AtftStatsModule </title>
<path fill="none" stroke="#000000" stroke-dasharray="5,2" d="M498.7697,-172C387.4043,-172 88.875,-172 88.875,-172 88.875,-172 88.875,-205.7333 88.875,-205.7333"/>
<polygon fill="#000000" stroke="#000000" points="85.3751,-205.7333 88.875,-215.7333 92.3751,-205.7333 85.3751,-205.7333"/>
</g>
</g>
</svg>
