<?xml version="1.0" encoding="UTF-8" standalone="no"?>
<!DOCTYPE svg PUBLIC "-//W3C//DTD SVG 1.1//EN"
 "http://www.w3.org/Graphics/SVG/1.1/DTD/svg11.dtd">
<!-- Generated by graphviz version 2.47.0 (20210316.0004)
 -->
<!-- Title: dependencies Pages: 1 -->
<svg width="1218pt" height="284pt"
 viewBox="0.00 0.00 1218.00 284.00" xmlns="http://www.w3.org/2000/svg" xmlns:xlink="http://www.w3.org/1999/xlink">
<g id="graph0" class="graph" transform="scale(1 1) rotate(0) translate(4 280)">
<title>dependencies</title>
<polygon fill="white" stroke="transparent" points="-4,4 -4,-280 1214,-280 1214,4 -4,4"/>
<text text-anchor="start" x="584.01" y="-42.4" font-family="Times-12" font-weight="bold" font-size="14.00">Legend</text>
<polygon fill="#ffffb3" stroke="transparent" points="371,-10 371,-30 391,-30 391,-10 371,-10"/>
<text text-anchor="start" x="394.63" y="-15.4" font-family="Times-12" font-size="14.00"> &#160;Declarations</text>
<polygon fill="#8dd3c7" stroke="transparent" points="484,-10 484,-30 504,-30 504,-10 484,-10"/>
<text text-anchor="start" x="507.73" y="-15.4" font-family="Times-12" font-size="14.00"> &#160;Module</text>
<polygon fill="#80b1d3" stroke="transparent" points="570,-10 570,-30 590,-30 590,-10 570,-10"/>
<text text-anchor="start" x="593.78" y="-15.4" font-family="Times-12" font-size="14.00"> &#160;Bootstrap</text>
<polygon fill="#fdb462" stroke="transparent" points="667,-10 667,-30 687,-30 687,-10 667,-10"/>
<text text-anchor="start" x="690.67" y="-15.4" font-family="Times-12" font-size="14.00"> &#160;Providers</text>
<polygon fill="#fb8072" stroke="transparent" points="763,-10 763,-30 783,-30 783,-10 763,-10"/>
<text text-anchor="start" x="786.73" y="-15.4" font-family="Times-12" font-size="14.00"> &#160;Exports</text>
<g id="clust1" class="cluster">
<title>cluster_AtftModule</title>
<polygon fill="none" stroke="black" stroke-dasharray="1,5" points="8,-70 8,-268 1202,-268 1202,-70 8,-70"/>
</g>
<g id="clust3" class="cluster">
<title>cluster_AtftModule_imports</title>
<polygon fill="none" stroke="black" points="33,-78 33,-130 1183,-130 1183,-78 33,-78"/>
</g>
<g id="clust4" class="cluster">
<title>cluster_AtftModule_exports</title>
<polygon fill="none" stroke="black" points="16,-208 16,-260 1194,-260 1194,-208 16,-208"/>
</g>
<!-- AtftAnimationModule -->
<g id="node1" class="node">
<title>AtftAnimationModule</title>
<polygon fill="#8dd3c7" stroke="black" points="1174.98,-122 1171.98,-126 1150.98,-126 1147.98,-122 1033.02,-122 1033.02,-86 1174.98,-86 1174.98,-122"/>
<text text-anchor="middle" x="1104" y="-99.8" font-family="Times,serif" font-size="14.00">AtftAnimationModule</text>
</g>
<!-- AtftModule -->
<g id="node9" class="node">
<title>AtftModule</title>
<polygon fill="#8dd3c7" stroke="black" points="581.1,-187 578.1,-191 557.1,-191 554.1,-187 498.9,-187 498.9,-151 581.1,-151 581.1,-187"/>
<text text-anchor="middle" x="540" y="-164.8" font-family="Times,serif" font-size="14.00">AtftModule</text>
</g>
<!-- AtftAnimationModule&#45;&gt;AtftModule -->
<g id="edge1" class="edge">
<title>AtftAnimationModule&#45;&gt;AtftModule</title>
<path fill="none" stroke="black" d="M1036.63,-122.22C1036.63,-140.83 1036.63,-167 1036.63,-167 1036.63,-167 591.06,-167 591.06,-167"/>
<polygon fill="black" stroke="black" points="591.06,-163.5 581.06,-167 591.06,-170.5 591.06,-163.5"/>
</g>
<!-- AtftCameraModule -->
<g id="node2" class="node">
<title>AtftCameraModule</title>
<polygon fill="#8dd3c7" stroke="black" points="1014.63,-122 1011.63,-126 990.63,-126 987.63,-122 889.37,-122 889.37,-86 1014.63,-86 1014.63,-122"/>
<text text-anchor="middle" x="952" y="-99.8" font-family="Times,serif" font-size="14.00">AtftCameraModule</text>
</g>
<!-- AtftCameraModule&#45;&gt;AtftModule -->
<g id="edge2" class="edge">
<title>AtftCameraModule&#45;&gt;AtftModule</title>
<path fill="none" stroke="black" d="M974.35,-122.02C974.35,-139.37 974.35,-163 974.35,-163 974.35,-163 591.25,-163 591.25,-163"/>
<polygon fill="black" stroke="black" points="591.25,-159.5 581.25,-163 591.25,-166.5 591.25,-159.5"/>
</g>
<!-- AtftControlModule -->
<g id="node3" class="node">
<title>AtftControlModule</title>
<polygon fill="#8dd3c7" stroke="black" points="871.38,-122 868.38,-126 847.38,-126 844.38,-122 746.62,-122 746.62,-86 871.38,-86 871.38,-122"/>
<text text-anchor="middle" x="809" y="-99.8" font-family="Times,serif" font-size="14.00">AtftControlModule</text>
</g>
<!-- AtftControlModule&#45;&gt;AtftModule -->
<g id="edge3" class="edge">
<title>AtftControlModule&#45;&gt;AtftModule</title>
<path fill="none" stroke="black" d="M829.9,-122.01C829.9,-138.05 829.9,-159 829.9,-159 829.9,-159 591.23,-159 591.23,-159"/>
<polygon fill="black" stroke="black" points="591.23,-155.5 581.23,-159 591.23,-162.5 591.23,-155.5"/>
</g>
<!-- AtftEffectModule -->
<g id="node4" class="node">
<title>AtftEffectModule</title>
<polygon fill="#8dd3c7" stroke="black" points="728.29,-122 725.29,-126 704.29,-126 701.29,-122 611.71,-122 611.71,-86 728.29,-86 728.29,-122"/>
<text text-anchor="middle" x="670" y="-99.8" font-family="Times,serif" font-size="14.00">AtftEffectModule</text>
</g>
<!-- AtftEffectModule&#45;&gt;AtftModule -->
<g id="edge4" class="edge">
<title>AtftEffectModule&#45;&gt;AtftModule</title>
<path fill="none" stroke="black" d="M650.62,-122.12C650.62,-136.78 650.62,-155 650.62,-155 650.62,-155 591.19,-155 591.19,-155"/>
<polygon fill="black" stroke="black" points="591.19,-151.5 581.19,-155 591.19,-158.5 591.19,-151.5"/>
</g>
<!-- AtftObjectModule -->
<g id="node5" class="node">
<title>AtftObjectModule</title>
<polygon fill="#8dd3c7" stroke="black" points="593.92,-122 590.92,-126 569.92,-126 566.92,-122 474.08,-122 474.08,-86 593.92,-86 593.92,-122"/>
<text text-anchor="middle" x="534" y="-99.8" font-family="Times,serif" font-size="14.00">AtftObjectModule</text>
</g>
<!-- AtftObjectModule&#45;&gt;AtftModule -->
<g id="edge5" class="edge">
<title>AtftObjectModule&#45;&gt;AtftModule</title>
<path fill="none" stroke="black" d="M540,-122.11C540,-122.11 540,-140.99 540,-140.99"/>
<polygon fill="black" stroke="black" points="536.5,-140.99 540,-150.99 543.5,-140.99 536.5,-140.99"/>
</g>
<!-- AtftRaycasterModule -->
<g id="node6" class="node">
<title>AtftRaycasterModule</title>
<polygon fill="#8dd3c7" stroke="black" points="456.79,-122 453.79,-126 432.79,-126 429.79,-122 319.21,-122 319.21,-86 456.79,-86 456.79,-122"/>
<text text-anchor="middle" x="388" y="-99.8" font-family="Times,serif" font-size="14.00">AtftRaycasterModule</text>
</g>
<!-- AtftRaycasterModule&#45;&gt;AtftModule -->
<g id="edge6" class="edge">
<title>AtftRaycasterModule&#45;&gt;AtftModule</title>
<path fill="none" stroke="black" d="M406.71,-122.24C406.71,-137.57 406.71,-157 406.71,-157 406.71,-157 488.92,-157 488.92,-157"/>
<polygon fill="black" stroke="black" points="488.92,-160.5 498.92,-157 488.92,-153.5 488.92,-160.5"/>
</g>
<!-- AtftRendererModule -->
<g id="node7" class="node">
<title>AtftRendererModule</title>
<polygon fill="#8dd3c7" stroke="black" points="301.9,-122 298.9,-126 277.9,-126 274.9,-122 168.1,-122 168.1,-86 301.9,-86 301.9,-122"/>
<text text-anchor="middle" x="235" y="-99.8" font-family="Times,serif" font-size="14.00">AtftRendererModule</text>
</g>
<!-- AtftRendererModule&#45;&gt;AtftModule -->
<g id="edge7" class="edge">
<title>AtftRendererModule&#45;&gt;AtftModule</title>
<path fill="none" stroke="black" d="M296.57,-122.03C296.57,-139.06 296.57,-162 296.57,-162 296.57,-162 488.71,-162 488.71,-162"/>
<polygon fill="black" stroke="black" points="488.71,-165.5 498.71,-162 488.71,-158.5 488.71,-165.5"/>
</g>
<!-- AtftStatsModule -->
<g id="node8" class="node">
<title>AtftStatsModule</title>
<polygon fill="#8dd3c7" stroke="black" points="150.82,-122 147.82,-126 126.82,-126 123.82,-122 41.18,-122 41.18,-86 150.82,-86 150.82,-122"/>
<text text-anchor="middle" x="96" y="-99.8" font-family="Times,serif" font-size="14.00">AtftStatsModule</text>
</g>
<!-- AtftStatsModule&#45;&gt;AtftModule -->
<g id="edge8" class="edge">
<title>AtftStatsModule&#45;&gt;AtftModule</title>
<path fill="none" stroke="black" d="M143.54,-122.22C143.54,-140.83 143.54,-167 143.54,-167 143.54,-167 488.69,-167 488.69,-167"/>
<polygon fill="black" stroke="black" points="488.69,-170.5 498.69,-167 488.69,-163.5 488.69,-170.5"/>
</g>
<!-- AtftAnimationModule  -->
<g id="node10" class="node">
<title>AtftAnimationModule </title>
<polygon fill="#fb8072" stroke="black" points="1185.98,-252 1040.02,-252 1040.02,-216 1185.98,-216 1185.98,-252"/>
<text text-anchor="middle" x="1113" y="-229.8" font-family="Times,serif" font-size="14.00">AtftAnimationModule </text>
</g>
<!-- AtftModule&#45;&gt;AtftAnimationModule  -->
<g id="edge9" class="edge">
<title>AtftModule&#45;&gt;AtftAnimationModule </title>
<path fill="none" stroke="black" stroke-dasharray="5,2" d="M581.28,-171C711.9,-171 1107.62,-171 1107.62,-171 1107.62,-171 1107.62,-205.78 1107.62,-205.78"/>
<polygon fill="black" stroke="black" points="1104.13,-205.78 1107.62,-215.78 1111.13,-205.78 1104.13,-205.78"/>
</g>
<!-- AtftCameraModule  -->
<g id="node11" class="node">
<title>AtftCameraModule </title>
<polygon fill="#fb8072" stroke="black" points="1022.63,-252 893.37,-252 893.37,-216 1022.63,-216 1022.63,-252"/>
<text text-anchor="middle" x="958" y="-229.8" font-family="Times,serif" font-size="14.00">AtftCameraModule </text>
</g>
<!-- AtftModule&#45;&gt;AtftCameraModule  -->
<g id="edge10" class="edge">
<title>AtftModule&#45;&gt;AtftCameraModule </title>
<path fill="none" stroke="black" stroke-dasharray="5,2" d="M581.41,-175C682.54,-175 933.9,-175 933.9,-175 933.9,-175 933.9,-205.98 933.9,-205.98"/>
<polygon fill="black" stroke="black" points="930.4,-205.98 933.9,-215.98 937.4,-205.98 930.4,-205.98"/>
</g>
<!-- AtftControlModule  -->
<g id="node12" class="node">
<title>AtftControlModule </title>
<polygon fill="#fb8072" stroke="black" points="875.38,-252 746.62,-252 746.62,-216 875.38,-216 875.38,-252"/>
<text text-anchor="middle" x="811" y="-229.8" font-family="Times,serif" font-size="14.00">AtftControlModule </text>
</g>
<!-- AtftModule&#45;&gt;AtftControlModule  -->
<g id="edge11" class="edge">
<title>AtftModule&#45;&gt;AtftControlModule </title>
<path fill="none" stroke="black" stroke-dasharray="5,2" d="M581.29,-179C651.91,-179 788.35,-179 788.35,-179 788.35,-179 788.35,-205.99 788.35,-205.99"/>
<polygon fill="black" stroke="black" points="784.85,-205.99 788.35,-215.99 791.85,-205.99 784.85,-205.99"/>
</g>
<!-- AtftEffectModule  -->
<g id="node13" class="node">
<title>AtftEffectModule </title>
<polygon fill="#fb8072" stroke="black" points="728.79,-252 609.21,-252 609.21,-216 728.79,-216 728.79,-252"/>
<text text-anchor="middle" x="669" y="-229.8" font-family="Times,serif" font-size="14.00">AtftEffectModule </text>
</g>
<!-- AtftModule&#45;&gt;AtftEffectModule  -->
<g id="edge12" class="edge">
<title>AtftModule&#45;&gt;AtftEffectModule </title>
<path fill="none" stroke="black" stroke-dasharray="5,2" d="M581.21,-183C625.43,-183 689.38,-183 689.38,-183 689.38,-183 689.38,-205.88 689.38,-205.88"/>
<polygon fill="black" stroke="black" points="685.88,-205.88 689.38,-215.88 692.88,-205.88 685.88,-205.88"/>
</g>
<!-- AtftObjectModule  -->
<g id="node14" class="node">
<title>AtftObjectModule </title>
<polygon fill="#fb8072" stroke="black" points="591.42,-252 468.58,-252 468.58,-216 591.42,-216 591.42,-252"/>
<text text-anchor="middle" x="530" y="-229.8" font-family="Times,serif" font-size="14.00">AtftObjectModule </text>
</g>
<!-- AtftModule&#45;&gt;AtftObjectModule  -->
<g id="edge13" class="edge">
<title>AtftModule&#45;&gt;AtftObjectModule </title>
<path fill="none" stroke="black" stroke-dasharray="5,2" d="M540,-187.11C540,-187.11 540,-205.99 540,-205.99"/>
<polygon fill="black" stroke="black" points="536.5,-205.99 540,-215.99 543.5,-205.99 536.5,-205.99"/>
</g>
<!-- AtftRaycasterModule  -->
<g id="node15" class="node">
<title>AtftRaycasterModule </title>
<polygon fill="#fb8072" stroke="black" points="450.29,-252 309.71,-252 309.71,-216 450.29,-216 450.29,-252"/>
<text text-anchor="middle" x="380" y="-229.8" font-family="Times,serif" font-size="14.00">AtftRaycasterModule </text>
</g>
<!-- AtftModule&#45;&gt;AtftRaycasterModule  -->
<g id="edge14" class="edge">
<title>AtftModule&#45;&gt;AtftRaycasterModule </title>
<path fill="none" stroke="black" stroke-dasharray="5,2" d="M498.51,-182C446.2,-182 363.04,-182 363.04,-182 363.04,-182 363.04,-205.81 363.04,-205.81"/>
<polygon fill="black" stroke="black" points="359.54,-205.81 363.04,-215.81 366.54,-205.81 359.54,-205.81"/>
</g>
<!-- AtftRendererModule  -->
<g id="node16" class="node">
<title>AtftRendererModule </title>
<polygon fill="#fb8072" stroke="black" points="291.4,-252 154.6,-252 154.6,-216 291.4,-216 291.4,-252"/>
<text text-anchor="middle" x="223" y="-229.8" font-family="Times,serif" font-size="14.00">AtftRendererModule </text>
</g>
<!-- AtftModule&#45;&gt;AtftRendererModule  -->
<g id="edge15" class="edge">
<title>AtftModule&#45;&gt;AtftRendererModule </title>
<path fill="none" stroke="black" stroke-dasharray="5,2" d="M498.82,-177C414.46,-177 229.88,-177 229.88,-177 229.88,-177 229.88,-205.96 229.88,-205.96"/>
<polygon fill="black" stroke="black" points="226.38,-205.96 229.88,-215.96 233.38,-205.96 226.38,-205.96"/>
</g>
<!-- AtftStatsModule  -->
<g id="node17" class="node">
<title>AtftStatsModule </title>
<polygon fill="#fb8072" stroke="black" points="136.32,-252 23.68,-252 23.68,-216 136.32,-216 136.32,-252"/>
<text text-anchor="middle" x="80" y="-229.8" font-family="Times,serif" font-size="14.00">AtftStatsModule </text>
</g>
<!-- AtftModule&#45;&gt;AtftStatsModule  -->
<g id="edge16" class="edge">
<title>AtftModule&#45;&gt;AtftStatsModule </title>
<path fill="none" stroke="black" stroke-dasharray="5,2" d="M498.77,-172C387.4,-172 88.88,-172 88.88,-172 88.88,-172 88.88,-205.73 88.88,-205.73"/>
<polygon fill="black" stroke="black" points="85.38,-205.73 88.88,-215.73 92.38,-205.73 85.38,-205.73"/>
</g>
</g>
</svg>
