<?xml version="1.0" encoding="UTF-8" standalone="no"?>
<!DOCTYPE svg PUBLIC "-//W3C//DTD SVG 1.1//EN"
 "http://www.w3.org/Graphics/SVG/1.1/DTD/svg11.dtd">
<!-- Generated by graphviz version 2.40.1 (20161225.0304)
 -->
<!-- Title: dependencies Pages: 1 -->
<svg width="950pt" height="284pt"
 viewBox="0.00 0.00 950.00 284.00" xmlns="http://www.w3.org/2000/svg" xmlns:xlink="http://www.w3.org/1999/xlink">
<g id="graph0" class="graph" transform="scale(1 1) rotate(0) translate(4 280)">
<title>dependencies</title>
<polygon fill="#ffffff" stroke="transparent" points="-4,4 -4,-280 946,-280 946,4 -4,4"/>
<text text-anchor="start" x="450.0091" y="-42.4" font-family="sans-serif" font-weight="bold" font-size="14.00" fill="#000000">Legend</text>
<polygon fill="#ffffb3" stroke="transparent" points="237,-10 237,-30 257,-30 257,-10 237,-10"/>
<text text-anchor="start" x="260.629" y="-15.4" font-family="sans-serif" font-size="14.00" fill="#000000"> &#160;Declarations</text>
<polygon fill="#8dd3c7" stroke="transparent" points="350,-10 350,-30 370,-30 370,-10 350,-10"/>
<text text-anchor="start" x="373.7251" y="-15.4" font-family="sans-serif" font-size="14.00" fill="#000000"> &#160;Module</text>
<polygon fill="#80b1d3" stroke="transparent" points="436,-10 436,-30 456,-30 456,-10 436,-10"/>
<text text-anchor="start" x="459.7812" y="-15.4" font-family="sans-serif" font-size="14.00" fill="#000000"> &#160;Bootstrap</text>
<polygon fill="#fdb462" stroke="transparent" points="533,-10 533,-30 553,-30 553,-10 533,-10"/>
<text text-anchor="start" x="556.6732" y="-15.4" font-family="sans-serif" font-size="14.00" fill="#000000"> &#160;Providers</text>
<polygon fill="#fb8072" stroke="transparent" points="629,-10 629,-30 649,-30 649,-10 629,-10"/>
<text text-anchor="start" x="652.7258" y="-15.4" font-family="sans-serif" font-size="14.00" fill="#000000"> &#160;Exports</text>
<g id="clust1" class="cluster">
<title>cluster_AtftModule</title>
<polygon fill="none" stroke="#000000" stroke-dasharray="1,5" points="8,-70 8,-268 934,-268 934,-70 8,-70"/>
</g>
<g id="clust3" class="cluster">
<title>cluster_AtftModule_imports</title>
<polygon fill="none" stroke="#000000" points="29,-78 29,-130 917,-130 917,-78 29,-78"/>
</g>
<g id="clust4" class="cluster">
<title>cluster_AtftModule_exports</title>
<polygon fill="none" stroke="#000000" points="16,-208 16,-260 926,-260 926,-208 16,-208"/>
</g>
<!-- AtftAnimationModule -->
<g id="node1" class="node">
<title>AtftAnimationModule</title>
<polygon fill="#8dd3c7" stroke="#000000" points="908.9818,-122 905.9818,-126 884.9818,-126 881.9818,-122 767.0182,-122 767.0182,-86 908.9818,-86 908.9818,-122"/>
<text text-anchor="middle" x="838" y="-99.8" font-family="Times,serif" font-size="14.00" fill="#000000">AtftAnimationModule</text>
</g>
<!-- AtftModule -->
<g id="node7" class="node">
<title>AtftModule</title>
<polygon fill="#8dd3c7" stroke="#000000" points="448.0983,-187 445.0983,-191 424.0983,-191 421.0983,-187 365.9017,-187 365.9017,-151 448.0983,-151 448.0983,-187"/>
<text text-anchor="middle" x="407" y="-164.8" font-family="Times,serif" font-size="14.00" fill="#000000">AtftModule</text>
</g>
<!-- AtftAnimationModule&#45;&gt;AtftModule -->
<g id="edge1" class="edge">
<title>AtftAnimationModule&#45;&gt;AtftModule</title>
<path fill="none" stroke="#000000" d="M863.4136,-122.2222C863.4136,-140.8285 863.4136,-167 863.4136,-167 863.4136,-167 458.3086,-167 458.3086,-167"/>
<polygon fill="#000000" stroke="#000000" points="458.3087,-163.5001 448.3086,-167 458.3086,-170.5001 458.3087,-163.5001"/>
</g>
<!-- AtftCameraModule -->
<g id="node2" class="node">
<title>AtftCameraModule</title>
<polygon fill="#8dd3c7" stroke="#000000" points="748.6303,-122 745.6303,-126 724.6303,-126 721.6303,-122 623.3697,-122 623.3697,-86 748.6303,-86 748.6303,-122"/>
<text text-anchor="middle" x="686" y="-99.8" font-family="Times,serif" font-size="14.00" fill="#000000">AtftCameraModule</text>
</g>
<!-- AtftCameraModule&#45;&gt;AtftModule -->
<g id="edge2" class="edge">
<title>AtftCameraModule&#45;&gt;AtftModule</title>
<path fill="none" stroke="#000000" d="M707.6883,-122.0336C707.6883,-139.0597 707.6883,-162 707.6883,-162 707.6883,-162 458.1789,-162 458.1789,-162"/>
<polygon fill="#000000" stroke="#000000" points="458.179,-158.5001 448.1789,-162 458.1789,-165.5001 458.179,-158.5001"/>
</g>
<!-- AtftControlModule -->
<g id="node3" class="node">
<title>AtftControlModule</title>
<polygon fill="#8dd3c7" stroke="#000000" points="605.3767,-122 602.3767,-126 581.3767,-126 578.3767,-122 480.6233,-122 480.6233,-86 605.3767,-86 605.3767,-122"/>
<text text-anchor="middle" x="543" y="-99.8" font-family="Times,serif" font-size="14.00" fill="#000000">AtftControlModule</text>
</g>
<!-- AtftControlModule&#45;&gt;AtftModule -->
<g id="edge3" class="edge">
<title>AtftControlModule&#45;&gt;AtftModule</title>
<path fill="none" stroke="#000000" d="M563.8128,-122.2396C563.8128,-137.5706 563.8128,-157 563.8128,-157 563.8128,-157 458.2007,-157 458.2007,-157"/>
<polygon fill="#000000" stroke="#000000" points="458.2007,-153.5001 448.2007,-157 458.2007,-160.5001 458.2007,-153.5001"/>
</g>
<!-- AtftObjectModule -->
<g id="node4" class="node">
<title>AtftObjectModule</title>
<polygon fill="#8dd3c7" stroke="#000000" points="462.9159,-122 459.9159,-126 438.9159,-126 435.9159,-122 343.0841,-122 343.0841,-86 462.9159,-86 462.9159,-122"/>
<text text-anchor="middle" x="403" y="-99.8" font-family="Times,serif" font-size="14.00" fill="#000000">AtftObjectModule</text>
</g>
<!-- AtftObjectModule&#45;&gt;AtftModule -->
<g id="edge4" class="edge">
<title>AtftObjectModule&#45;&gt;AtftModule</title>
<path fill="none" stroke="#000000" d="M407,-122.1061C407,-122.1061 407,-140.991 407,-140.991"/>
<polygon fill="#000000" stroke="#000000" points="403.5001,-140.9909 407,-150.991 410.5001,-140.991 403.5001,-140.9909"/>
</g>
<!-- AtftRaycasterModule -->
<g id="node5" class="node">
<title>AtftRaycasterModule</title>
<polygon fill="#8dd3c7" stroke="#000000" points="325.7893,-122 322.7893,-126 301.7893,-126 298.7893,-122 188.2107,-122 188.2107,-86 325.7893,-86 325.7893,-122"/>
<text text-anchor="middle" x="257" y="-99.8" font-family="Times,serif" font-size="14.00" fill="#000000">AtftRaycasterModule</text>
</g>
<!-- AtftRaycasterModule&#45;&gt;AtftModule -->
<g id="edge5" class="edge">
<title>AtftRaycasterModule&#45;&gt;AtftModule</title>
<path fill="none" stroke="#000000" d="M275.7148,-122.0091C275.7148,-138.0494 275.7148,-159 275.7148,-159 275.7148,-159 355.8208,-159 355.8208,-159"/>
<polygon fill="#000000" stroke="#000000" points="355.8208,-162.5001 365.8208,-159 355.8207,-155.5001 355.8208,-162.5001"/>
</g>
<!-- AtftRendererModule -->
<g id="node6" class="node">
<title>AtftRendererModule</title>
<polygon fill="#8dd3c7" stroke="#000000" points="170.9004,-122 167.9004,-126 146.9004,-126 143.9004,-122 37.0996,-122 37.0996,-86 170.9004,-86 170.9004,-122"/>
<text text-anchor="middle" x="104" y="-99.8" font-family="Times,serif" font-size="14.00" fill="#000000">AtftRendererModule</text>
</g>
<!-- AtftRendererModule&#45;&gt;AtftModule -->
<g id="edge6" class="edge">
<title>AtftRendererModule&#45;&gt;AtftModule</title>
<path fill="none" stroke="#000000" d="M165.5749,-122.2667C165.5749,-140.5552 165.5749,-166 165.5749,-166 165.5749,-166 355.7719,-166 355.7719,-166"/>
<polygon fill="#000000" stroke="#000000" points="355.7719,-169.5001 365.7719,-166 355.7718,-162.5001 355.7719,-169.5001"/>
</g>
<!-- AtftAnimationModule  -->
<g id="node8" class="node">
<title>AtftAnimationModule </title>
<polygon fill="#fb8072" stroke="#000000" points="917.9826,-252 772.0174,-252 772.0174,-216 917.9826,-216 917.9826,-252"/>
<text text-anchor="middle" x="845" y="-229.8" font-family="Times,serif" font-size="14.00" fill="#000000">AtftAnimationModule </text>
</g>
<!-- AtftModule&#45;&gt;AtftAnimationModule  -->
<g id="edge7" class="edge">
<title>AtftModule&#45;&gt;AtftAnimationModule </title>
<path fill="none" stroke="#000000" stroke-dasharray="5,2" d="M448.2736,-172C552.4561,-172 817.8364,-172 817.8364,-172 817.8364,-172 817.8364,-205.7333 817.8364,-205.7333"/>
<polygon fill="#000000" stroke="#000000" points="814.3365,-205.7333 817.8364,-215.7333 821.3365,-205.7333 814.3365,-205.7333"/>
</g>
<!-- AtftCameraModule  -->
<g id="node9" class="node">
<title>AtftCameraModule </title>
<polygon fill="#fb8072" stroke="#000000" points="754.6299,-252 625.3701,-252 625.3701,-216 754.6299,-216 754.6299,-252"/>
<text text-anchor="middle" x="690" y="-229.8" font-family="Times,serif" font-size="14.00" fill="#000000">AtftCameraModule </text>
</g>
<!-- AtftModule&#45;&gt;AtftCameraModule  -->
<g id="edge8" class="edge">
<title>AtftModule&#45;&gt;AtftCameraModule </title>
<path fill="none" stroke="#000000" stroke-dasharray="5,2" d="M448.1283,-177C521.3177,-177 666.5617,-177 666.5617,-177 666.5617,-177 666.5617,-205.9648 666.5617,-205.9648"/>
<polygon fill="#000000" stroke="#000000" points="663.0618,-205.9648 666.5617,-215.9648 670.0618,-205.9649 663.0618,-205.9648"/>
</g>
<!-- AtftControlModule  -->
<g id="node10" class="node">
<title>AtftControlModule </title>
<polygon fill="#fb8072" stroke="#000000" points="607.3772,-252 478.6228,-252 478.6228,-216 607.3772,-216 607.3772,-252"/>
<text text-anchor="middle" x="543" y="-229.8" font-family="Times,serif" font-size="14.00" fill="#000000">AtftControlModule </text>
</g>
<!-- AtftModule&#45;&gt;AtftControlModule  -->
<g id="edge9" class="edge">
<title>AtftModule&#45;&gt;AtftControlModule </title>
<path fill="none" stroke="#000000" stroke-dasharray="5,2" d="M448.2599,-182C481.3116,-182 522.1872,-182 522.1872,-182 522.1872,-182 522.1872,-205.8129 522.1872,-205.8129"/>
<polygon fill="#000000" stroke="#000000" points="518.6873,-205.8129 522.1872,-215.8129 525.6873,-205.813 518.6873,-205.8129"/>
</g>
<!-- AtftObjectModule  -->
<g id="node11" class="node">
<title>AtftObjectModule </title>
<polygon fill="#fb8072" stroke="#000000" points="460.4152,-252 337.5848,-252 337.5848,-216 460.4152,-216 460.4152,-252"/>
<text text-anchor="middle" x="399" y="-229.8" font-family="Times,serif" font-size="14.00" fill="#000000">AtftObjectModule </text>
</g>
<!-- AtftModule&#45;&gt;AtftObjectModule  -->
<g id="edge10" class="edge">
<title>AtftModule&#45;&gt;AtftObjectModule </title>
<path fill="none" stroke="#000000" stroke-dasharray="5,2" d="M407,-187.1061C407,-187.1061 407,-205.991 407,-205.991"/>
<polygon fill="#000000" stroke="#000000" points="403.5001,-205.9909 407,-215.991 410.5001,-205.991 403.5001,-205.9909"/>
</g>
<!-- AtftRaycasterModule  -->
<g id="node12" class="node">
<title>AtftRaycasterModule </title>
<polygon fill="#fb8072" stroke="#000000" points="319.2892,-252 178.7108,-252 178.7108,-216 319.2892,-216 319.2892,-252"/>
<text text-anchor="middle" x="249" y="-229.8" font-family="Times,serif" font-size="14.00" fill="#000000">AtftRaycasterModule </text>
</g>
<!-- AtftModule&#45;&gt;AtftRaycasterModule  -->
<g id="edge11" class="edge">
<title>AtftModule&#45;&gt;AtftRaycasterModule </title>
<path fill="none" stroke="#000000" stroke-dasharray="5,2" d="M365.5358,-180C313.7963,-180 232.0352,-180 232.0352,-180 232.0352,-180 232.0352,-205.7181 232.0352,-205.7181"/>
<polygon fill="#000000" stroke="#000000" points="228.5353,-205.718 232.0352,-215.7181 235.5353,-205.7181 228.5353,-205.718"/>
</g>
<!-- AtftRendererModule  -->
<g id="node13" class="node">
<title>AtftRendererModule </title>
<polygon fill="#fb8072" stroke="#000000" points="160.3998,-252 23.6002,-252 23.6002,-216 160.3998,-216 160.3998,-252"/>
<text text-anchor="middle" x="92" y="-229.8" font-family="Times,serif" font-size="14.00" fill="#000000">AtftRendererModule </text>
</g>
<!-- AtftModule&#45;&gt;AtftRendererModule  -->
<g id="edge12" class="edge">
<title>AtftModule&#45;&gt;AtftRendererModule </title>
<path fill="none" stroke="#000000" stroke-dasharray="5,2" d="M365.7646,-173C281.8034,-173 98.875,-173 98.875,-173 98.875,-173 98.875,-205.698 98.875,-205.698"/>
<polygon fill="#000000" stroke="#000000" points="95.3751,-205.698 98.875,-215.698 102.3751,-205.698 95.3751,-205.698"/>
</g>
</g>
</svg>
