<?xml version="1.0" encoding="UTF-8" standalone="no"?>
<!DOCTYPE svg PUBLIC "-//W3C//DTD SVG 1.1//EN"
 "http://www.w3.org/Graphics/SVG/1.1/DTD/svg11.dtd">
<!-- Generated by graphviz version 2.40.1 (20161225.0304)
 -->
<!-- Title: dependencies Pages: 1 -->
<svg width="628pt" height="284pt"
 viewBox="0.00 0.00 628.00 284.00" xmlns="http://www.w3.org/2000/svg" xmlns:xlink="http://www.w3.org/1999/xlink">
<g id="graph0" class="graph" transform="scale(1 1) rotate(0) translate(4 280)">
<title>dependencies</title>
<polygon fill="#ffffff" stroke="transparent" points="-4,4 -4,-280 624,-280 624,4 -4,4"/>
<text text-anchor="start" x="289.0091" y="-42.4" font-family="sans-serif" font-weight="bold" font-size="14.00" fill="#000000">Legend</text>
<polygon fill="#ffffb3" stroke="transparent" points="76,-10 76,-30 96,-30 96,-10 76,-10"/>
<text text-anchor="start" x="99.629" y="-15.4" font-family="sans-serif" font-size="14.00" fill="#000000"> &#160;Declarations</text>
<polygon fill="#8dd3c7" stroke="transparent" points="189,-10 189,-30 209,-30 209,-10 189,-10"/>
<text text-anchor="start" x="212.7251" y="-15.4" font-family="sans-serif" font-size="14.00" fill="#000000"> &#160;Module</text>
<polygon fill="#80b1d3" stroke="transparent" points="275,-10 275,-30 295,-30 295,-10 275,-10"/>
<text text-anchor="start" x="298.7812" y="-15.4" font-family="sans-serif" font-size="14.00" fill="#000000"> &#160;Bootstrap</text>
<polygon fill="#fdb462" stroke="transparent" points="372,-10 372,-30 392,-30 392,-10 372,-10"/>
<text text-anchor="start" x="395.6732" y="-15.4" font-family="sans-serif" font-size="14.00" fill="#000000"> &#160;Providers</text>
<polygon fill="#fb8072" stroke="transparent" points="468,-10 468,-30 488,-30 488,-10 468,-10"/>
<text text-anchor="start" x="491.7258" y="-15.4" font-family="sans-serif" font-size="14.00" fill="#000000"> &#160;Exports</text>
<g id="clust1" class="cluster">
<title>cluster_AtftModule</title>
<polygon fill="none" stroke="#000000" stroke-dasharray="1,5" points="8,-70 8,-268 612,-268 612,-70 8,-70"/>
</g>
<g id="clust3" class="cluster">
<title>cluster_AtftModule_imports</title>
<polygon fill="none" stroke="#000000" points="25,-78 25,-130 598,-130 598,-78 25,-78"/>
</g>
<g id="clust4" class="cluster">
<title>cluster_AtftModule_exports</title>
<polygon fill="none" stroke="#000000" points="16,-208 16,-260 604,-260 604,-208 16,-208"/>
</g>
<!-- AtftCameraModule -->
<g id="node1" class="node">
<title>AtftCameraModule</title>
<polygon fill="#8dd3c7" stroke="#000000" points="589.6303,-122 586.6303,-126 565.6303,-126 562.6303,-122 464.3697,-122 464.3697,-86 589.6303,-86 589.6303,-122"/>
<text text-anchor="middle" x="527" y="-99.8" font-family="Times,serif" font-size="14.00" fill="#000000">AtftCameraModule</text>
</g>
<!-- AtftModule -->
<g id="node5" class="node">
<title>AtftModule</title>
<polygon fill="#8dd3c7" stroke="#000000" points="287.0983,-187 284.0983,-191 263.0983,-191 260.0983,-187 204.9017,-187 204.9017,-151 287.0983,-151 287.0983,-187"/>
<text text-anchor="middle" x="246" y="-164.8" font-family="Times,serif" font-size="14.00" fill="#000000">AtftModule</text>
</g>
<!-- AtftCameraModule&#45;&gt;AtftModule -->
<g id="edge1" class="edge">
<title>AtftCameraModule&#45;&gt;AtftModule</title>
<path fill="none" stroke="#000000" d="M548.6883,-122.2667C548.6883,-140.5552 548.6883,-166 548.6883,-166 548.6883,-166 297.1369,-166 297.1369,-166"/>
<polygon fill="#000000" stroke="#000000" points="297.1369,-162.5001 287.1369,-166 297.1369,-169.5001 297.1369,-162.5001"/>
</g>
<!-- AtftControlModule -->
<g id="node2" class="node">
<title>AtftControlModule</title>
<polygon fill="#8dd3c7" stroke="#000000" points="446.3767,-122 443.3767,-126 422.3767,-126 419.3767,-122 321.6233,-122 321.6233,-86 446.3767,-86 446.3767,-122"/>
<text text-anchor="middle" x="384" y="-99.8" font-family="Times,serif" font-size="14.00" fill="#000000">AtftControlModule</text>
</g>
<!-- AtftControlModule&#45;&gt;AtftModule -->
<g id="edge2" class="edge">
<title>AtftControlModule&#45;&gt;AtftModule</title>
<path fill="none" stroke="#000000" d="M404.8128,-122.0091C404.8128,-138.0494 404.8128,-159 404.8128,-159 404.8128,-159 297.3116,-159 297.3116,-159"/>
<polygon fill="#000000" stroke="#000000" points="297.3116,-155.5001 287.3116,-159 297.3116,-162.5001 297.3116,-155.5001"/>
</g>
<!-- AtftObjectModule -->
<g id="node3" class="node">
<title>AtftObjectModule</title>
<polygon fill="#8dd3c7" stroke="#000000" points="303.9159,-122 300.9159,-126 279.9159,-126 276.9159,-122 184.0841,-122 184.0841,-86 303.9159,-86 303.9159,-122"/>
<text text-anchor="middle" x="244" y="-99.8" font-family="Times,serif" font-size="14.00" fill="#000000">AtftObjectModule</text>
</g>
<!-- AtftObjectModule&#45;&gt;AtftModule -->
<g id="edge3" class="edge">
<title>AtftObjectModule&#45;&gt;AtftModule</title>
<path fill="none" stroke="#000000" d="M246,-122.1061C246,-122.1061 246,-140.991 246,-140.991"/>
<polygon fill="#000000" stroke="#000000" points="242.5001,-140.9909 246,-150.991 249.5001,-140.991 242.5001,-140.9909"/>
</g>
<!-- AtftRendererModule -->
<g id="node4" class="node">
<title>AtftRendererModule</title>
<polygon fill="#8dd3c7" stroke="#000000" points="166.9004,-122 163.9004,-126 142.9004,-126 139.9004,-122 33.0996,-122 33.0996,-86 166.9004,-86 166.9004,-122"/>
<text text-anchor="middle" x="100" y="-99.8" font-family="Times,serif" font-size="14.00" fill="#000000">AtftRendererModule</text>
</g>
<!-- AtftRendererModule&#45;&gt;AtftModule -->
<g id="edge4" class="edge">
<title>AtftRendererModule&#45;&gt;AtftModule</title>
<path fill="none" stroke="#000000" d="M118.0666,-122.0225C118.0666,-139.3734 118.0666,-163 118.0666,-163 118.0666,-163 194.8169,-163 194.8169,-163"/>
<polygon fill="#000000" stroke="#000000" points="194.8169,-166.5001 204.8169,-163 194.8168,-159.5001 194.8169,-166.5001"/>
</g>
<!-- AtftCameraModule  -->
<g id="node6" class="node">
<title>AtftCameraModule </title>
<polygon fill="#fb8072" stroke="#000000" points="595.6299,-252 466.3701,-252 466.3701,-216 595.6299,-216 595.6299,-252"/>
<text text-anchor="middle" x="531" y="-229.8" font-family="Times,serif" font-size="14.00" fill="#000000">AtftCameraModule </text>
</g>
<!-- AtftModule&#45;&gt;AtftCameraModule  -->
<g id="edge5" class="edge">
<title>AtftModule&#45;&gt;AtftCameraModule </title>
<path fill="none" stroke="#000000" stroke-dasharray="5,2" d="M287.1567,-173C360.8161,-173 507.5617,-173 507.5617,-173 507.5617,-173 507.5617,-205.698 507.5617,-205.698"/>
<polygon fill="#000000" stroke="#000000" points="504.0618,-205.698 507.5617,-215.698 511.0618,-205.698 504.0618,-205.698"/>
</g>
<!-- AtftControlModule  -->
<g id="node7" class="node">
<title>AtftControlModule </title>
<polygon fill="#fb8072" stroke="#000000" points="448.3772,-252 319.6228,-252 319.6228,-216 448.3772,-216 448.3772,-252"/>
<text text-anchor="middle" x="384" y="-229.8" font-family="Times,serif" font-size="14.00" fill="#000000">AtftControlModule </text>
</g>
<!-- AtftModule&#45;&gt;AtftControlModule  -->
<g id="edge6" class="edge">
<title>AtftModule&#45;&gt;AtftControlModule </title>
<path fill="none" stroke="#000000" stroke-dasharray="5,2" d="M287.3158,-180C321.0547,-180 363.1872,-180 363.1872,-180 363.1872,-180 363.1872,-205.7181 363.1872,-205.7181"/>
<polygon fill="#000000" stroke="#000000" points="359.6873,-205.718 363.1872,-215.7181 366.6873,-205.7181 359.6873,-205.718"/>
</g>
<!-- AtftObjectModule  -->
<g id="node8" class="node">
<title>AtftObjectModule </title>
<polygon fill="#fb8072" stroke="#000000" points="301.4152,-252 178.5848,-252 178.5848,-216 301.4152,-216 301.4152,-252"/>
<text text-anchor="middle" x="240" y="-229.8" font-family="Times,serif" font-size="14.00" fill="#000000">AtftObjectModule </text>
</g>
<!-- AtftModule&#45;&gt;AtftObjectModule  -->
<g id="edge7" class="edge">
<title>AtftModule&#45;&gt;AtftObjectModule </title>
<path fill="none" stroke="#000000" stroke-dasharray="5,2" d="M246,-187.1061C246,-187.1061 246,-205.991 246,-205.991"/>
<polygon fill="#000000" stroke="#000000" points="242.5001,-205.9909 246,-215.991 249.5001,-205.991 242.5001,-205.9909"/>
</g>
<!-- AtftRendererModule  -->
<g id="node9" class="node">
<title>AtftRendererModule </title>
<polygon fill="#fb8072" stroke="#000000" points="160.3998,-252 23.6002,-252 23.6002,-216 160.3998,-216 160.3998,-252"/>
<text text-anchor="middle" x="92" y="-229.8" font-family="Times,serif" font-size="14.00" fill="#000000">AtftRendererModule </text>
</g>
<!-- AtftModule&#45;&gt;AtftRendererModule  -->
<g id="edge8" class="edge">
<title>AtftModule&#45;&gt;AtftRendererModule </title>
<path fill="none" stroke="#000000" stroke-dasharray="5,2" d="M204.7711,-175C154.3654,-175 75.6834,-175 75.6834,-175 75.6834,-175 75.6834,-205.9775 75.6834,-205.9775"/>
<polygon fill="#000000" stroke="#000000" points="72.1835,-205.9774 75.6834,-215.9775 79.1835,-205.9775 72.1835,-205.9774"/>
</g>
</g>
</svg>
