<?xml version="1.0" encoding="UTF-8" standalone="no"?>
<!DOCTYPE svg PUBLIC "-//W3C//DTD SVG 1.1//EN"
 "http://www.w3.org/Graphics/SVG/1.1/DTD/svg11.dtd">
<!-- Generated by graphviz version 2.40.1 (20161225.0304)
 -->
<!-- Title: dependencies Pages: 1 -->
<svg width="5249pt" height="290pt"
 viewBox="0.00 0.00 5249.00 290.00" xmlns="http://www.w3.org/2000/svg" xmlns:xlink="http://www.w3.org/1999/xlink">
<g id="graph0" class="graph" transform="scale(1 1) rotate(0) translate(4 286)">
<title>dependencies</title>
<polygon fill="#ffffff" stroke="transparent" points="-4,4 -4,-286 5245,-286 5245,4 -4,4"/>
<text text-anchor="start" x="2599.5091" y="-42.4" font-family="sans-serif" font-weight="bold" font-size="14.00" fill="#000000">Legend</text>
<polygon fill="#ffffb3" stroke="transparent" points="2386.5,-10 2386.5,-30 2406.5,-30 2406.5,-10 2386.5,-10"/>
<text text-anchor="start" x="2410.129" y="-15.4" font-family="sans-serif" font-size="14.00" fill="#000000"> &#160;Declarations</text>
<polygon fill="#8dd3c7" stroke="transparent" points="2499.5,-10 2499.5,-30 2519.5,-30 2519.5,-10 2499.5,-10"/>
<text text-anchor="start" x="2523.2251" y="-15.4" font-family="sans-serif" font-size="14.00" fill="#000000"> &#160;Module</text>
<polygon fill="#80b1d3" stroke="transparent" points="2585.5,-10 2585.5,-30 2605.5,-30 2605.5,-10 2585.5,-10"/>
<text text-anchor="start" x="2609.2812" y="-15.4" font-family="sans-serif" font-size="14.00" fill="#000000"> &#160;Bootstrap</text>
<polygon fill="#fdb462" stroke="transparent" points="2682.5,-10 2682.5,-30 2702.5,-30 2702.5,-10 2682.5,-10"/>
<text text-anchor="start" x="2706.1732" y="-15.4" font-family="sans-serif" font-size="14.00" fill="#000000"> &#160;Providers</text>
<polygon fill="#fb8072" stroke="transparent" points="2778.5,-10 2778.5,-30 2798.5,-30 2798.5,-10 2778.5,-10"/>
<text text-anchor="start" x="2802.2258" y="-15.4" font-family="sans-serif" font-size="14.00" fill="#000000"> &#160;Exports</text>
<g id="clust1" class="cluster">
<title>cluster_AppModule</title>
<polygon fill="none" stroke="#000000" stroke-dasharray="1,5" points="8,-70 8,-274 318,-274 318,-70 8,-70"/>
</g>
<g id="clust2" class="cluster">
<title>cluster_AppModule_declarations</title>
<polygon fill="none" stroke="#000000" points="16,-78 16,-130 138,-130 138,-78 16,-78"/>
</g>
<g id="clust4" class="cluster">
<title>cluster_AppModule_imports</title>
<polygon fill="none" stroke="#000000" points="146,-78 146,-130 310,-130 310,-78 146,-78"/>
</g>
<g id="clust6" class="cluster">
<title>cluster_AppModule_bootstrap</title>
<polygon fill="none" stroke="#000000" points="91,-214 91,-266 215,-266 215,-214 91,-214"/>
</g>
<g id="clust8" class="cluster">
<title>cluster_ThreeExamplesModule</title>
<polygon fill="none" stroke="#000000" stroke-dasharray="1,5" points="326,-138 326,-206 5233,-206 5233,-138 326,-138"/>
</g>
<g id="clust9" class="cluster">
<title>cluster_ThreeExamplesModule_declarations</title>
<polygon fill="none" stroke="#000000" points="2812,-146 2812,-198 5225,-198 5225,-146 2812,-146"/>
</g>
<g id="clust27" class="cluster">
<title>cluster_ThreeExamplesModule_exports</title>
<polygon fill="none" stroke="#000000" points="334,-146 334,-198 2804,-198 2804,-146 334,-146"/>
</g>
<!-- AppComponent -->
<g id="node1" class="node">
<title>AppComponent</title>
<polygon fill="#ffffb3" stroke="#000000" points="129.9399,-122 24.0601,-122 24.0601,-86 129.9399,-86 129.9399,-122"/>
<text text-anchor="middle" x="77" y="-99.8" font-family="Times,serif" font-size="14.00" fill="#000000">AppComponent</text>
</g>
<!-- AppModule -->
<g id="node2" class="node">
<title>AppModule</title>
<polygon fill="#8dd3c7" stroke="#000000" points="194.6571,-190 191.6571,-194 170.6571,-194 167.6571,-190 111.3429,-190 111.3429,-154 194.6571,-154 194.6571,-190"/>
<text text-anchor="middle" x="153" y="-167.8" font-family="Times,serif" font-size="14.00" fill="#000000">AppModule</text>
</g>
<!-- AppComponent&#45;&gt;AppModule -->
<g id="edge1" class="edge">
<title>AppComponent&#45;&gt;AppModule</title>
<path fill="none" stroke="#000000" d="M120.4457,-122.2228C120.4457,-122.2228 120.4457,-143.7269 120.4457,-143.7269"/>
<polygon fill="#000000" stroke="#000000" points="116.9457,-143.7269 120.4457,-153.7269 123.9457,-143.727 116.9457,-143.7269"/>
</g>
<!-- AppComponent  -->
<g id="node4" class="node">
<title>AppComponent </title>
<polygon fill="#80b1d3" stroke="#000000" points="207.439,-258 98.561,-258 98.561,-222 207.439,-222 207.439,-258"/>
<text text-anchor="middle" x="153" y="-235.8" font-family="Times,serif" font-size="14.00" fill="#000000">AppComponent </text>
</g>
<!-- AppModule&#45;&gt;AppComponent  -->
<g id="edge3" class="edge">
<title>AppModule&#45;&gt;AppComponent </title>
<path fill="none" stroke="#000000" stroke-dasharray="1,5" d="M153,-190.2228C153,-190.2228 153,-211.7269 153,-211.7269"/>
<polygon fill="#000000" stroke="#000000" points="149.5001,-211.7269 153,-221.7269 156.5001,-211.727 149.5001,-211.7269"/>
</g>
<!-- ThreeExamplesModule -->
<g id="node3" class="node">
<title>ThreeExamplesModule</title>
<polygon fill="#8dd3c7" stroke="#000000" points="301.9003,-122 298.9003,-126 277.9003,-126 274.9003,-122 154.0997,-122 154.0997,-86 301.9003,-86 301.9003,-122"/>
<text text-anchor="middle" x="228" y="-99.8" font-family="Times,serif" font-size="14.00" fill="#000000">ThreeExamplesModule</text>
</g>
<!-- ThreeExamplesModule&#45;&gt;AppModule -->
<g id="edge2" class="edge">
<title>ThreeExamplesModule&#45;&gt;AppModule</title>
<path fill="none" stroke="#000000" d="M174.5641,-122.2228C174.5641,-122.2228 174.5641,-143.7269 174.5641,-143.7269"/>
<polygon fill="#000000" stroke="#000000" points="171.0642,-143.7269 174.5641,-153.7269 178.0642,-143.727 171.0642,-143.7269"/>
</g>
<!-- AxesHelperDirective  -->
<g id="node21" class="node">
<title>AxesHelperDirective </title>
<polygon fill="#fb8072" stroke="#000000" points="2796.4363,-190 2657.5637,-190 2657.5637,-154 2796.4363,-154 2796.4363,-190"/>
<text text-anchor="middle" x="2727" y="-167.8" font-family="Times,serif" font-size="14.00" fill="#000000">AxesHelperDirective </text>
</g>
<!-- ThreeExamplesModule&#45;&gt;AxesHelperDirective  -->
<g id="edge20" class="edge">
<title>ThreeExamplesModule&#45;&gt;AxesHelperDirective </title>
<path fill="none" stroke="#000000" stroke-dasharray="5,2" d="M301.7742,-106C715.31,-106 2727,-106 2727,-106 2727,-106 2727,-143.9652 2727,-143.9652"/>
<polygon fill="#000000" stroke="#000000" points="2723.5001,-143.9652 2727,-153.9652 2730.5001,-143.9652 2723.5001,-143.9652"/>
</g>
<!-- ColladaLoaderDirective  -->
<g id="node22" class="node">
<title>ColladaLoaderDirective </title>
<polygon fill="#fb8072" stroke="#000000" points="2639.2724,-190 2484.7276,-190 2484.7276,-154 2639.2724,-154 2639.2724,-190"/>
<text text-anchor="middle" x="2562" y="-167.8" font-family="Times,serif" font-size="14.00" fill="#000000">ColladaLoaderDirective </text>
</g>
<!-- ThreeExamplesModule&#45;&gt;ColladaLoaderDirective  -->
<g id="edge21" class="edge">
<title>ThreeExamplesModule&#45;&gt;ColladaLoaderDirective </title>
<path fill="none" stroke="#000000" stroke-dasharray="5,2" d="M301.7069,-107C698.4411,-107 2562,-107 2562,-107 2562,-107 2562,-143.8939 2562,-143.8939"/>
<polygon fill="#000000" stroke="#000000" points="2558.5001,-143.8938 2562,-153.8939 2565.5001,-143.8939 2558.5001,-143.8938"/>
</g>
<!-- CylindermeshDirective  -->
<g id="node23" class="node">
<title>CylindermeshDirective </title>
<polygon fill="#fb8072" stroke="#000000" points="2467.1257,-190 2316.8743,-190 2316.8743,-154 2467.1257,-154 2467.1257,-190"/>
<text text-anchor="middle" x="2392" y="-167.8" font-family="Times,serif" font-size="14.00" fill="#000000">CylindermeshDirective </text>
</g>
<!-- ThreeExamplesModule&#45;&gt;CylindermeshDirective  -->
<g id="edge22" class="edge">
<title>ThreeExamplesModule&#45;&gt;CylindermeshDirective </title>
<path fill="none" stroke="#000000" stroke-dasharray="5,2" d="M301.8638,-108C681.1291,-108 2392,-108 2392,-108 2392,-108 2392,-143.8314 2392,-143.8314"/>
<polygon fill="#000000" stroke="#000000" points="2388.5001,-143.8313 2392,-153.8314 2395.5001,-143.8314 2388.5001,-143.8313"/>
</g>
<!-- Deg2RadPipe  -->
<g id="node24" class="node">
<title>Deg2RadPipe </title>
<polygon fill="#fb8072" stroke="#000000" points="2298.7605,-190 2201.2395,-190 2201.2395,-154 2298.7605,-154 2298.7605,-190"/>
<text text-anchor="middle" x="2250" y="-167.8" font-family="Times,serif" font-size="14.00" fill="#000000">Deg2RadPipe </text>
</g>
<!-- ThreeExamplesModule&#45;&gt;Deg2RadPipe  -->
<g id="edge23" class="edge">
<title>ThreeExamplesModule&#45;&gt;Deg2RadPipe </title>
<path fill="none" stroke="#000000" stroke-dasharray="5,2" d="M301.7592,-109C665.4102,-109 2250,-109 2250,-109 2250,-109 2250,-143.7778 2250,-143.7778"/>
<polygon fill="#000000" stroke="#000000" points="2246.5001,-143.7778 2250,-153.7778 2253.5001,-143.7778 2246.5001,-143.7778"/>
</g>
<!-- EmptyDirective  -->
<g id="node25" class="node">
<title>EmptyDirective </title>
<polygon fill="#fb8072" stroke="#000000" points="2183.4166,-190 2074.5834,-190 2074.5834,-154 2183.4166,-154 2183.4166,-190"/>
<text text-anchor="middle" x="2129" y="-167.8" font-family="Times,serif" font-size="14.00" fill="#000000">EmptyDirective </text>
</g>
<!-- ThreeExamplesModule&#45;&gt;EmptyDirective  -->
<g id="edge24" class="edge">
<title>ThreeExamplesModule&#45;&gt;EmptyDirective </title>
<path fill="none" stroke="#000000" stroke-dasharray="5,2" d="M301.938,-110C652.3532,-110 2129,-110 2129,-110 2129,-110 2129,-143.7333 2129,-143.7333"/>
<polygon fill="#000000" stroke="#000000" points="2125.5001,-143.7333 2129,-153.7333 2132.5001,-143.7333 2125.5001,-143.7333"/>
</g>
<!-- GridHelperDirective  -->
<g id="node26" class="node">
<title>GridHelperDirective </title>
<polygon fill="#fb8072" stroke="#000000" points="2056.828,-190 1921.172,-190 1921.172,-154 2056.828,-154 2056.828,-190"/>
<text text-anchor="middle" x="1989" y="-167.8" font-family="Times,serif" font-size="14.00" fill="#000000">GridHelperDirective </text>
</g>
<!-- ThreeExamplesModule&#45;&gt;GridHelperDirective  -->
<g id="edge25" class="edge">
<title>ThreeExamplesModule&#45;&gt;GridHelperDirective </title>
<path fill="none" stroke="#000000" stroke-dasharray="5,2" d="M301.7046,-111C635.4626,-111 1989,-111 1989,-111 1989,-111 1989,-143.698 1989,-143.698"/>
<polygon fill="#000000" stroke="#000000" points="1985.5001,-143.698 1989,-153.698 1992.5001,-143.698 1985.5001,-143.698"/>
</g>
<!-- ObjLoaderDirective  -->
<g id="node27" class="node">
<title>ObjLoaderDirective </title>
<polygon fill="#fb8072" stroke="#000000" points="1903.2226,-190 1770.7774,-190 1770.7774,-154 1903.2226,-154 1903.2226,-190"/>
<text text-anchor="middle" x="1837" y="-167.8" font-family="Times,serif" font-size="14.00" fill="#000000">ObjLoaderDirective </text>
</g>
<!-- ThreeExamplesModule&#45;&gt;ObjLoaderDirective  -->
<g id="edge26" class="edge">
<title>ThreeExamplesModule&#45;&gt;ObjLoaderDirective </title>
<path fill="none" stroke="#000000" stroke-dasharray="5,2" d="M301.8466,-112C617.4522,-112 1837,-112 1837,-112 1837,-112 1837,-143.998 1837,-143.998"/>
<polygon fill="#000000" stroke="#000000" points="1833.5001,-143.998 1837,-153.998 1840.5001,-143.9981 1833.5001,-143.998"/>
</g>
<!-- ObjectLoaderDirective  -->
<g id="node28" class="node">
<title>ObjectLoaderDirective </title>
<polygon fill="#fb8072" stroke="#000000" points="1753.0429,-190 1604.9571,-190 1604.9571,-154 1753.0429,-154 1753.0429,-190"/>
<text text-anchor="middle" x="1679" y="-167.8" font-family="Times,serif" font-size="14.00" fill="#000000">ObjectLoaderDirective </text>
</g>
<!-- ThreeExamplesModule&#45;&gt;ObjectLoaderDirective  -->
<g id="edge27" class="edge">
<title>ThreeExamplesModule&#45;&gt;ObjectLoaderDirective </title>
<path fill="none" stroke="#000000" stroke-dasharray="5,2" d="M301.9501,-113C597.6357,-113 1679,-113 1679,-113 1679,-113 1679,-143.9775 1679,-143.9775"/>
<polygon fill="#000000" stroke="#000000" points="1675.5001,-143.9774 1679,-153.9775 1682.5001,-143.9775 1675.5001,-143.9774"/>
</g>
<!-- OrbitControlsDirective  -->
<g id="node29" class="node">
<title>OrbitControlsDirective </title>
<polygon fill="#fb8072" stroke="#000000" points="1586.8546,-190 1437.1454,-190 1437.1454,-154 1586.8546,-154 1586.8546,-190"/>
<text text-anchor="middle" x="1512" y="-167.8" font-family="Times,serif" font-size="14.00" fill="#000000">OrbitControlsDirective </text>
</g>
<!-- ThreeExamplesModule&#45;&gt;OrbitControlsDirective  -->
<g id="edge28" class="edge">
<title>ThreeExamplesModule&#45;&gt;OrbitControlsDirective </title>
<path fill="none" stroke="#000000" stroke-dasharray="5,2" d="M302.1135,-115C575.5497,-115 1512,-115 1512,-115 1512,-115 1512,-143.9648 1512,-143.9648"/>
<polygon fill="#000000" stroke="#000000" points="1508.5001,-143.9648 1512,-153.9648 1515.5001,-143.9649 1508.5001,-143.9648"/>
</g>
<!-- PerspectiveCameraDirective  -->
<g id="node30" class="node">
<title>PerspectiveCameraDirective </title>
<polygon fill="#fb8072" stroke="#000000" points="1419.6422,-190 1240.3578,-190 1240.3578,-154 1419.6422,-154 1419.6422,-190"/>
<text text-anchor="middle" x="1330" y="-167.8" font-family="Times,serif" font-size="14.00" fill="#000000">PerspectiveCameraDirective </text>
</g>
<!-- ThreeExamplesModule&#45;&gt;PerspectiveCameraDirective  -->
<g id="edge29" class="edge">
<title>ThreeExamplesModule&#45;&gt;PerspectiveCameraDirective </title>
<path fill="none" stroke="#000000" stroke-dasharray="5,2" d="M302.0165,-116C549.0986,-116 1330,-116 1330,-116 1330,-116 1330,-143.973 1330,-143.973"/>
<polygon fill="#000000" stroke="#000000" points="1326.5001,-143.973 1330,-153.973 1333.5001,-143.973 1326.5001,-143.973"/>
</g>
<!-- PointLightDirective  -->
<g id="node31" class="node">
<title>PointLightDirective </title>
<polygon fill="#fb8072" stroke="#000000" points="1221.9813,-190 1090.0187,-190 1090.0187,-154 1221.9813,-154 1221.9813,-190"/>
<text text-anchor="middle" x="1156" y="-167.8" font-family="Times,serif" font-size="14.00" fill="#000000">PointLightDirective </text>
</g>
<!-- ThreeExamplesModule&#45;&gt;PointLightDirective  -->
<g id="edge30" class="edge">
<title>ThreeExamplesModule&#45;&gt;PointLightDirective </title>
<path fill="none" stroke="#000000" stroke-dasharray="5,2" d="M301.9834,-117C521.8354,-117 1156,-117 1156,-117 1156,-117 1156,-143.9909 1156,-143.9909"/>
<polygon fill="#000000" stroke="#000000" points="1152.5001,-143.9909 1156,-153.9909 1159.5001,-143.991 1152.5001,-143.9909"/>
</g>
<!-- Rad2DegPipe  -->
<g id="node32" class="node">
<title>Rad2DegPipe </title>
<polygon fill="#fb8072" stroke="#000000" points="1072.7605,-190 975.2395,-190 975.2395,-154 1072.7605,-154 1072.7605,-190"/>
<text text-anchor="middle" x="1024" y="-167.8" font-family="Times,serif" font-size="14.00" fill="#000000">Rad2DegPipe </text>
</g>
<!-- ThreeExamplesModule&#45;&gt;Rad2DegPipe  -->
<g id="edge31" class="edge">
<title>ThreeExamplesModule&#45;&gt;Rad2DegPipe </title>
<path fill="none" stroke="#000000" stroke-dasharray="5,2" d="M301.8146,-118C499.147,-118 1024,-118 1024,-118 1024,-118 1024,-143.7181 1024,-143.7181"/>
<polygon fill="#000000" stroke="#000000" points="1020.5001,-143.718 1024,-153.7181 1027.5001,-143.7181 1020.5001,-143.718"/>
</g>
<!-- SceneDirective  -->
<g id="node33" class="node">
<title>SceneDirective </title>
<polygon fill="#fb8072" stroke="#000000" points="957.5092,-190 852.4908,-190 852.4908,-154 957.5092,-154 957.5092,-190"/>
<text text-anchor="middle" x="905" y="-167.8" font-family="Times,serif" font-size="14.00" fill="#000000">SceneDirective </text>
</g>
<!-- ThreeExamplesModule&#45;&gt;SceneDirective  -->
<g id="edge32" class="edge">
<title>ThreeExamplesModule&#45;&gt;SceneDirective </title>
<path fill="none" stroke="#000000" stroke-dasharray="5,2" d="M301.7396,-119C477.2032,-119 905,-119 905,-119 905,-119 905,-143.7604 905,-143.7604"/>
<polygon fill="#000000" stroke="#000000" points="901.5001,-143.7604 905,-153.7604 908.5001,-143.7604 901.5001,-143.7604"/>
</g>
<!-- SpheremeshDirective  -->
<g id="node34" class="node">
<title>SpheremeshDirective </title>
<polygon fill="#fb8072" stroke="#000000" points="834.005,-190 693.995,-190 693.995,-154 834.005,-154 834.005,-190"/>
<text text-anchor="middle" x="764" y="-167.8" font-family="Times,serif" font-size="14.00" fill="#000000">SpheremeshDirective </text>
</g>
<!-- ThreeExamplesModule&#45;&gt;SpheremeshDirective  -->
<g id="edge33" class="edge">
<title>ThreeExamplesModule&#45;&gt;SpheremeshDirective </title>
<path fill="none" stroke="#000000" stroke-dasharray="5,2" d="M301.9658,-120C449.0046,-120 764,-120 764,-120 764,-120 764,-143.8129 764,-143.8129"/>
<polygon fill="#000000" stroke="#000000" points="760.5001,-143.8129 764,-153.8129 767.5001,-143.813 760.5001,-143.8129"/>
</g>
<!-- TorusmeshDirective  -->
<g id="node35" class="node">
<title>TorusmeshDirective </title>
<polygon fill="#fb8072" stroke="#000000" points="675.7906,-190 542.2094,-190 542.2094,-154 675.7906,-154 675.7906,-190"/>
<text text-anchor="middle" x="609" y="-167.8" font-family="Times,serif" font-size="14.00" fill="#000000">TorusmeshDirective </text>
</g>
<!-- ThreeExamplesModule&#45;&gt;TorusmeshDirective  -->
<g id="edge34" class="edge">
<title>ThreeExamplesModule&#45;&gt;TorusmeshDirective </title>
<path fill="none" stroke="#000000" stroke-dasharray="5,2" d="M301.9124,-121C412.7093,-121 609,-121 609,-121 609,-121 609,-143.8757 609,-143.8757"/>
<polygon fill="#000000" stroke="#000000" points="605.5001,-143.8757 609,-153.8757 612.5001,-143.8757 605.5001,-143.8757"/>
</g>
<!-- WebGLRendererComponent  -->
<g id="node36" class="node">
<title>WebGLRendererComponent </title>
<polygon fill="#fb8072" stroke="#000000" points="523.7225,-190 342.2775,-190 342.2775,-154 523.7225,-154 523.7225,-190"/>
<text text-anchor="middle" x="433" y="-167.8" font-family="Times,serif" font-size="14.00" fill="#000000">WebGLRendererComponent </text>
</g>
<!-- ThreeExamplesModule&#45;&gt;WebGLRendererComponent  -->
<g id="edge35" class="edge">
<title>ThreeExamplesModule&#45;&gt;WebGLRendererComponent </title>
<path fill="none" stroke="#000000" stroke-dasharray="5,2" d="M254.5847,-122.2228C254.5847,-142.3652 254.5847,-172 254.5847,-172 254.5847,-172 332.2243,-172 332.2243,-172"/>
<polygon fill="#000000" stroke="#000000" points="332.2244,-175.5001 342.2243,-172 332.2243,-168.5001 332.2244,-175.5001"/>
</g>
<!-- AxesHelperDirective -->
<g id="node5" class="node">
<title>AxesHelperDirective</title>
<polygon fill="#ffffb3" stroke="#000000" points="5217.4356,-190 5082.5644,-190 5082.5644,-154 5217.4356,-154 5217.4356,-190"/>
<text text-anchor="middle" x="5150" y="-167.8" font-family="Times,serif" font-size="14.00" fill="#000000">AxesHelperDirective</text>
</g>
<!-- AxesHelperDirective&#45;&gt;ThreeExamplesModule -->
<g id="edge4" class="edge">
<title>AxesHelperDirective&#45;&gt;ThreeExamplesModule</title>
<path fill="none" stroke="#000000" d="M5150,-153.7733C5150,-129.0682 5150,-88 5150,-88 5150,-88 311.8818,-88 311.8818,-88"/>
<polygon fill="#000000" stroke="#000000" points="311.8819,-84.5001 301.8818,-88 311.8818,-91.5001 311.8819,-84.5001"/>
</g>
<!-- ColladaLoaderDirective -->
<g id="node6" class="node">
<title>ColladaLoaderDirective</title>
<polygon fill="#ffffb3" stroke="#000000" points="5064.7724,-190 4913.2276,-190 4913.2276,-154 5064.7724,-154 5064.7724,-190"/>
<text text-anchor="middle" x="4989" y="-167.8" font-family="Times,serif" font-size="14.00" fill="#000000">ColladaLoaderDirective</text>
</g>
<!-- ColladaLoaderDirective&#45;&gt;ThreeExamplesModule -->
<g id="edge5" class="edge">
<title>ColladaLoaderDirective&#45;&gt;ThreeExamplesModule</title>
<path fill="none" stroke="#000000" d="M4989,-153.9902C4989,-129.5793 4989,-89 4989,-89 4989,-89 311.8285,-89 311.8285,-89"/>
<polygon fill="#000000" stroke="#000000" points="311.8285,-85.5001 301.8285,-89 311.8284,-92.5001 311.8285,-85.5001"/>
</g>
<!-- CylindermeshDirective -->
<g id="node7" class="node">
<title>CylindermeshDirective</title>
<polygon fill="#ffffb3" stroke="#000000" points="4895.1261,-190 4748.8739,-190 4748.8739,-154 4895.1261,-154 4895.1261,-190"/>
<text text-anchor="middle" x="4822" y="-167.8" font-family="Times,serif" font-size="14.00" fill="#000000">CylindermeshDirective</text>
</g>
<!-- CylindermeshDirective&#45;&gt;ThreeExamplesModule -->
<g id="edge6" class="edge">
<title>CylindermeshDirective&#45;&gt;ThreeExamplesModule</title>
<path fill="none" stroke="#000000" d="M4822,-153.8015C4822,-129.6437 4822,-90 4822,-90 4822,-90 312.0215,-90 312.0215,-90"/>
<polygon fill="#000000" stroke="#000000" points="312.0215,-86.5001 302.0215,-90 312.0215,-93.5001 312.0215,-86.5001"/>
</g>
<!-- Deg2RadPipe -->
<g id="node8" class="node">
<title>Deg2RadPipe</title>
<polygon fill="#ffffb3" stroke="#000000" points="4730.7605,-190 4637.2395,-190 4637.2395,-154 4730.7605,-154 4730.7605,-190"/>
<text text-anchor="middle" x="4684" y="-167.8" font-family="Times,serif" font-size="14.00" fill="#000000">Deg2RadPipe</text>
</g>
<!-- Deg2RadPipe&#45;&gt;ThreeExamplesModule -->
<g id="edge7" class="edge">
<title>Deg2RadPipe&#45;&gt;ThreeExamplesModule</title>
<path fill="none" stroke="#000000" d="M4684,-153.6198C4684,-129.7215 4684,-91 4684,-91 4684,-91 312.0844,-91 312.0844,-91"/>
<polygon fill="#000000" stroke="#000000" points="312.0845,-87.5001 302.0844,-91 312.0844,-94.5001 312.0845,-87.5001"/>
</g>
<!-- EmptyDirective -->
<g id="node9" class="node">
<title>EmptyDirective</title>
<polygon fill="#ffffb3" stroke="#000000" points="4618.9174,-190 4513.0826,-190 4513.0826,-154 4618.9174,-154 4618.9174,-190"/>
<text text-anchor="middle" x="4566" y="-167.8" font-family="Times,serif" font-size="14.00" fill="#000000">EmptyDirective</text>
</g>
<!-- EmptyDirective&#45;&gt;ThreeExamplesModule -->
<g id="edge8" class="edge">
<title>EmptyDirective&#45;&gt;ThreeExamplesModule</title>
<path fill="none" stroke="#000000" d="M4566,-153.8468C4566,-130.2434 4566,-92 4566,-92 4566,-92 311.927,-92 311.927,-92"/>
<polygon fill="#000000" stroke="#000000" points="311.9271,-88.5001 301.927,-92 311.927,-95.5001 311.9271,-88.5001"/>
</g>
<!-- GridHelperDirective -->
<g id="node10" class="node">
<title>GridHelperDirective</title>
<polygon fill="#ffffb3" stroke="#000000" points="4494.8277,-190 4363.1723,-190 4363.1723,-154 4494.8277,-154 4494.8277,-190"/>
<text text-anchor="middle" x="4429" y="-167.8" font-family="Times,serif" font-size="14.00" fill="#000000">GridHelperDirective</text>
</g>
<!-- GridHelperDirective&#45;&gt;ThreeExamplesModule -->
<g id="edge9" class="edge">
<title>GridHelperDirective&#45;&gt;ThreeExamplesModule</title>
<path fill="none" stroke="#000000" d="M4429,-153.6772C4429,-130.3398 4429,-93 4429,-93 4429,-93 311.8052,-93 311.8052,-93"/>
<polygon fill="#000000" stroke="#000000" points="311.8052,-89.5001 301.8052,-93 311.8051,-96.5001 311.8052,-89.5001"/>
</g>
<!-- ObjLoaderDirective -->
<g id="node11" class="node">
<title>ObjLoaderDirective</title>
<polygon fill="#ffffb3" stroke="#000000" points="4345.2227,-190 4216.7773,-190 4216.7773,-154 4345.2227,-154 4345.2227,-190"/>
<text text-anchor="middle" x="4281" y="-167.8" font-family="Times,serif" font-size="14.00" fill="#000000">ObjLoaderDirective</text>
</g>
<!-- ObjLoaderDirective&#45;&gt;ThreeExamplesModule -->
<g id="edge10" class="edge">
<title>ObjLoaderDirective&#45;&gt;ThreeExamplesModule</title>
<path fill="none" stroke="#000000" d="M4281,-153.9092C4281,-130.8672 4281,-94 4281,-94 4281,-94 311.8072,-94 311.8072,-94"/>
<polygon fill="#000000" stroke="#000000" points="311.8073,-90.5001 301.8072,-94 311.8072,-97.5001 311.8073,-90.5001"/>
</g>
<!-- ObjectLoaderDirective -->
<g id="node12" class="node">
<title>ObjectLoaderDirective</title>
<polygon fill="#ffffb3" stroke="#000000" points="4198.5422,-190 4053.4578,-190 4053.4578,-154 4198.5422,-154 4198.5422,-190"/>
<text text-anchor="middle" x="4126" y="-167.8" font-family="Times,serif" font-size="14.00" fill="#000000">ObjectLoaderDirective</text>
</g>
<!-- ObjectLoaderDirective&#45;&gt;ThreeExamplesModule -->
<g id="edge11" class="edge">
<title>ObjectLoaderDirective&#45;&gt;ThreeExamplesModule</title>
<path fill="none" stroke="#000000" d="M4126,-153.7521C4126,-130.9821 4126,-95 4126,-95 4126,-95 311.9576,-95 311.9576,-95"/>
<polygon fill="#000000" stroke="#000000" points="311.9577,-91.5001 301.9576,-95 311.9576,-98.5001 311.9577,-91.5001"/>
</g>
<!-- OrbitControlsDirective -->
<g id="node13" class="node">
<title>OrbitControlsDirective</title>
<polygon fill="#ffffb3" stroke="#000000" points="4035.8543,-190 3890.1457,-190 3890.1457,-154 4035.8543,-154 4035.8543,-190"/>
<text text-anchor="middle" x="3963" y="-167.8" font-family="Times,serif" font-size="14.00" fill="#000000">OrbitControlsDirective</text>
</g>
<!-- OrbitControlsDirective&#45;&gt;ThreeExamplesModule -->
<g id="edge12" class="edge">
<title>OrbitControlsDirective&#45;&gt;ThreeExamplesModule</title>
<path fill="none" stroke="#000000" d="M3963,-153.8446C3963,-131.6481 3963,-97 3963,-97 3963,-97 311.7685,-97 311.7685,-97"/>
<polygon fill="#000000" stroke="#000000" points="311.7685,-93.5001 301.7685,-97 311.7684,-100.5001 311.7685,-93.5001"/>
</g>
<!-- PerspectiveCameraDirective -->
<g id="node14" class="node">
<title>PerspectiveCameraDirective</title>
<polygon fill="#ffffb3" stroke="#000000" points="3872.1419,-190 3695.8581,-190 3695.8581,-154 3872.1419,-154 3872.1419,-190"/>
<text text-anchor="middle" x="3784" y="-167.8" font-family="Times,serif" font-size="14.00" fill="#000000">PerspectiveCameraDirective</text>
</g>
<!-- PerspectiveCameraDirective&#45;&gt;ThreeExamplesModule -->
<g id="edge13" class="edge">
<title>PerspectiveCameraDirective&#45;&gt;ThreeExamplesModule</title>
<path fill="none" stroke="#000000" d="M3784,-153.7079C3784,-131.7943 3784,-98 3784,-98 3784,-98 311.8635,-98 311.8635,-98"/>
<polygon fill="#000000" stroke="#000000" points="311.8635,-94.5001 301.8635,-98 311.8634,-101.5001 311.8635,-94.5001"/>
</g>
<!-- PointLightDirective -->
<g id="node15" class="node">
<title>PointLightDirective</title>
<polygon fill="#ffffb3" stroke="#000000" points="3677.9804,-190 3550.0196,-190 3550.0196,-154 3677.9804,-154 3677.9804,-190"/>
<text text-anchor="middle" x="3614" y="-167.8" font-family="Times,serif" font-size="14.00" fill="#000000">PointLightDirective</text>
</g>
<!-- PointLightDirective&#45;&gt;ThreeExamplesModule -->
<g id="edge14" class="edge">
<title>PointLightDirective&#45;&gt;ThreeExamplesModule</title>
<path fill="none" stroke="#000000" d="M3614,-153.9551C3614,-132.3377 3614,-99 3614,-99 3614,-99 311.8704,-99 311.8704,-99"/>
<polygon fill="#000000" stroke="#000000" points="311.8704,-95.5001 301.8704,-99 311.8704,-102.5001 311.8704,-95.5001"/>
</g>
<!-- Rad2DegPipe -->
<g id="node16" class="node">
<title>Rad2DegPipe</title>
<polygon fill="#ffffb3" stroke="#000000" points="3531.7605,-190 3438.2395,-190 3438.2395,-154 3531.7605,-154 3531.7605,-190"/>
<text text-anchor="middle" x="3485" y="-167.8" font-family="Times,serif" font-size="14.00" fill="#000000">Rad2DegPipe</text>
</g>
<!-- Rad2DegPipe&#45;&gt;ThreeExamplesModule -->
<g id="edge15" class="edge">
<title>Rad2DegPipe&#45;&gt;ThreeExamplesModule</title>
<path fill="none" stroke="#000000" d="M3485,-153.8314C3485,-132.502 3485,-100 3485,-100 3485,-100 311.7569,-100 311.7569,-100"/>
<polygon fill="#000000" stroke="#000000" points="311.7569,-96.5001 301.7569,-100 311.7568,-103.5001 311.7569,-96.5001"/>
</g>
<!-- SceneDirective -->
<g id="node17" class="node">
<title>SceneDirective</title>
<polygon fill="#ffffb3" stroke="#000000" points="3419.5104,-190 3318.4896,-190 3318.4896,-154 3419.5104,-154 3419.5104,-190"/>
<text text-anchor="middle" x="3369" y="-167.8" font-family="Times,serif" font-size="14.00" fill="#000000">SceneDirective</text>
</g>
<!-- SceneDirective&#45;&gt;ThreeExamplesModule -->
<g id="edge16" class="edge">
<title>SceneDirective&#45;&gt;ThreeExamplesModule</title>
<path fill="none" stroke="#000000" d="M3369,-153.7157C3369,-132.6789 3369,-101 3369,-101 3369,-101 311.7797,-101 311.7797,-101"/>
<polygon fill="#000000" stroke="#000000" points="311.7798,-97.5001 301.7797,-101 311.7797,-104.5001 311.7798,-97.5001"/>
</g>
<!-- SpheremeshDirective -->
<g id="node18" class="node">
<title>SpheremeshDirective</title>
<polygon fill="#ffffb3" stroke="#000000" points="3300.0059,-190 3163.9941,-190 3163.9941,-154 3300.0059,-154 3300.0059,-190"/>
<text text-anchor="middle" x="3232" y="-167.8" font-family="Times,serif" font-size="14.00" fill="#000000">SpheremeshDirective</text>
</g>
<!-- SpheremeshDirective&#45;&gt;ThreeExamplesModule -->
<g id="edge17" class="edge">
<title>SpheremeshDirective&#45;&gt;ThreeExamplesModule</title>
<path fill="none" stroke="#000000" d="M3232,-153.9733C3232,-133.2328 3232,-102 3232,-102 3232,-102 311.8832,-102 311.8832,-102"/>
<polygon fill="#000000" stroke="#000000" points="311.8832,-98.5001 301.8832,-102 311.8831,-105.5001 311.8832,-98.5001"/>
</g>
<!-- TorusmeshDirective -->
<g id="node19" class="node">
<title>TorusmeshDirective</title>
<polygon fill="#ffffb3" stroke="#000000" points="3146.2907,-190 3015.7093,-190 3015.7093,-154 3146.2907,-154 3146.2907,-190"/>
<text text-anchor="middle" x="3081" y="-167.8" font-family="Times,serif" font-size="14.00" fill="#000000">TorusmeshDirective</text>
</g>
<!-- TorusmeshDirective&#45;&gt;ThreeExamplesModule -->
<g id="edge18" class="edge">
<title>TorusmeshDirective&#45;&gt;ThreeExamplesModule</title>
<path fill="none" stroke="#000000" d="M3081,-153.8711C3081,-133.4276 3081,-103 3081,-103 3081,-103 311.7531,-103 311.7531,-103"/>
<polygon fill="#000000" stroke="#000000" points="311.7532,-99.5001 301.7531,-103 311.7531,-106.5001 311.7532,-99.5001"/>
</g>
<!-- WebGLRendererComponent -->
<g id="node20" class="node">
<title>WebGLRendererComponent</title>
<polygon fill="#ffffb3" stroke="#000000" points="2997.7226,-190 2820.2774,-190 2820.2774,-154 2997.7226,-154 2997.7226,-190"/>
<text text-anchor="middle" x="2909" y="-167.8" font-family="Times,serif" font-size="14.00" fill="#000000">WebGLRendererComponent</text>
</g>
<!-- WebGLRendererComponent&#45;&gt;ThreeExamplesModule -->
<g id="edge19" class="edge">
<title>WebGLRendererComponent&#45;&gt;ThreeExamplesModule</title>
<path fill="none" stroke="#000000" d="M2909,-153.7772C2909,-133.6348 2909,-104 2909,-104 2909,-104 311.8005,-104 311.8005,-104"/>
<polygon fill="#000000" stroke="#000000" points="311.8006,-100.5001 301.8005,-104 311.8005,-107.5001 311.8006,-100.5001"/>
</g>
</g>
</svg>
