<?xml version="1.0" encoding="UTF-8" standalone="no"?>
<!DOCTYPE svg PUBLIC "-//W3C//DTD SVG 1.1//EN"
 "http://www.w3.org/Graphics/SVG/1.1/DTD/svg11.dtd">
<!-- Generated by graphviz version 2.40.1 (20161225.0304)
 -->
<!-- Title: dependencies Pages: 1 -->
<svg width="593pt" height="284pt"
 viewBox="0.00 0.00 593.00 284.00" xmlns="http://www.w3.org/2000/svg" xmlns:xlink="http://www.w3.org/1999/xlink">
<g id="graph0" class="graph" transform="scale(1 1) rotate(0) translate(4 280)">
<title>dependencies</title>
<polygon fill="#ffffff" stroke="transparent" points="-4,4 -4,-280 589,-280 589,4 -4,4"/>
<text text-anchor="start" x="271.5091" y="-42.4" font-family="sans-serif" font-weight="bold" font-size="14.00" fill="#000000">Legend</text>
<polygon fill="#ffffb3" stroke="transparent" points="58.5,-10 58.5,-30 78.5,-30 78.5,-10 58.5,-10"/>
<text text-anchor="start" x="82.129" y="-15.4" font-family="sans-serif" font-size="14.00" fill="#000000"> &#160;Declarations</text>
<polygon fill="#8dd3c7" stroke="transparent" points="171.5,-10 171.5,-30 191.5,-30 191.5,-10 171.5,-10"/>
<text text-anchor="start" x="195.2251" y="-15.4" font-family="sans-serif" font-size="14.00" fill="#000000"> &#160;Module</text>
<polygon fill="#80b1d3" stroke="transparent" points="257.5,-10 257.5,-30 277.5,-30 277.5,-10 257.5,-10"/>
<text text-anchor="start" x="281.2812" y="-15.4" font-family="sans-serif" font-size="14.00" fill="#000000"> &#160;Bootstrap</text>
<polygon fill="#fdb462" stroke="transparent" points="354.5,-10 354.5,-30 374.5,-30 374.5,-10 354.5,-10"/>
<text text-anchor="start" x="378.1732" y="-15.4" font-family="sans-serif" font-size="14.00" fill="#000000"> &#160;Providers</text>
<polygon fill="#fb8072" stroke="transparent" points="450.5,-10 450.5,-30 470.5,-30 470.5,-10 450.5,-10"/>
<text text-anchor="start" x="474.2258" y="-15.4" font-family="sans-serif" font-size="14.00" fill="#000000"> &#160;Exports</text>
<g id="clust1" class="cluster">
<title>cluster_AppModule</title>
<polygon fill="none" stroke="#000000" stroke-dasharray="1,5" points="8,-70 8,-268 148,-268 148,-70 8,-70"/>
</g>
<g id="clust2" class="cluster">
<title>cluster_AppModule_declarations</title>
<polygon fill="none" stroke="#000000" points="17,-78 17,-130 139,-130 139,-78 17,-78"/>
</g>
<g id="clust6" class="cluster">
<title>cluster_AppModule_bootstrap</title>
<polygon fill="none" stroke="#000000" points="16,-208 16,-260 140,-260 140,-208 16,-208"/>
</g>
<g id="clust8" class="cluster">
<title>cluster_StorybookModule</title>
<polygon fill="none" stroke="#000000" stroke-dasharray="1,5" points="156,-70 156,-195 577,-195 577,-70 156,-70"/>
</g>
<g id="clust9" class="cluster">
<title>cluster_StorybookModule_declarations</title>
<polygon fill="none" stroke="#000000" points="164,-78 164,-130 569,-130 569,-78 164,-78"/>
</g>
<!-- AppComponent -->
<g id="node1" class="node">
<title>AppComponent</title>
<polygon fill="#ffffb3" stroke="#000000" points="130.9399,-122 25.0601,-122 25.0601,-86 130.9399,-86 130.9399,-122"/>
<text text-anchor="middle" x="78" y="-99.8" font-family="Times,serif" font-size="14.00" fill="#000000">AppComponent</text>
</g>
<!-- AppModule -->
<g id="node2" class="node">
<title>AppModule</title>
<polygon fill="#8dd3c7" stroke="#000000" points="119.6571,-187 116.6571,-191 95.6571,-191 92.6571,-187 36.3429,-187 36.3429,-151 119.6571,-151 119.6571,-187"/>
<text text-anchor="middle" x="78" y="-164.8" font-family="Times,serif" font-size="14.00" fill="#000000">AppModule</text>
</g>
<!-- AppComponent&#45;&gt;AppModule -->
<g id="edge1" class="edge">
<title>AppComponent&#45;&gt;AppModule</title>
<path fill="none" stroke="#000000" d="M78,-122.1061C78,-122.1061 78,-140.991 78,-140.991"/>
<polygon fill="#000000" stroke="#000000" points="74.5001,-140.9909 78,-150.991 81.5001,-140.991 74.5001,-140.9909"/>
</g>
<!-- AppComponent  -->
<g id="node3" class="node">
<title>AppComponent </title>
<polygon fill="#80b1d3" stroke="#000000" points="132.439,-252 23.561,-252 23.561,-216 132.439,-216 132.439,-252"/>
<text text-anchor="middle" x="78" y="-229.8" font-family="Times,serif" font-size="14.00" fill="#000000">AppComponent </text>
</g>
<!-- AppModule&#45;&gt;AppComponent  -->
<g id="edge2" class="edge">
<title>AppModule&#45;&gt;AppComponent </title>
<path fill="none" stroke="#000000" stroke-dasharray="1,5" d="M78,-187.1061C78,-187.1061 78,-205.991 78,-205.991"/>
<polygon fill="#000000" stroke="#000000" points="74.5001,-205.9909 78,-215.991 81.5001,-205.991 74.5001,-205.9909"/>
</g>
<!-- StorybookContainerComponent -->
<g id="node4" class="node">
<title>StorybookContainerComponent</title>
<polygon fill="#ffffb3" stroke="#000000" points="561.3738,-122 366.6262,-122 366.6262,-86 561.3738,-86 561.3738,-122"/>
<text text-anchor="middle" x="464" y="-99.8" font-family="Times,serif" font-size="14.00" fill="#000000">StorybookContainerComponent</text>
</g>
<!-- StorybookModule -->
<g id="node6" class="node">
<title>StorybookModule</title>
<polygon fill="#8dd3c7" stroke="#000000" points="420.8837,-187 417.8837,-191 396.8837,-191 393.8837,-187 303.1163,-187 303.1163,-151 420.8837,-151 420.8837,-187"/>
<text text-anchor="middle" x="362" y="-164.8" font-family="Times,serif" font-size="14.00" fill="#000000">StorybookModule</text>
</g>
<!-- StorybookContainerComponent&#45;&gt;StorybookModule -->
<g id="edge3" class="edge">
<title>StorybookContainerComponent&#45;&gt;StorybookModule</title>
<path fill="none" stroke="#000000" d="M393.7525,-122.1061C393.7525,-122.1061 393.7525,-140.991 393.7525,-140.991"/>
<polygon fill="#000000" stroke="#000000" points="390.2525,-140.9909 393.7525,-150.991 397.2525,-140.991 390.2525,-140.9909"/>
</g>
<!-- StorybookEmptyComponent -->
<g id="node5" class="node">
<title>StorybookEmptyComponent</title>
<polygon fill="#ffffb3" stroke="#000000" points="348.5,-122 171.5,-122 171.5,-86 348.5,-86 348.5,-122"/>
<text text-anchor="middle" x="260" y="-99.8" font-family="Times,serif" font-size="14.00" fill="#000000">StorybookEmptyComponent</text>
</g>
<!-- StorybookEmptyComponent&#45;&gt;StorybookModule -->
<g id="edge4" class="edge">
<title>StorybookEmptyComponent&#45;&gt;StorybookModule</title>
<path fill="none" stroke="#000000" d="M325.7791,-122.1061C325.7791,-122.1061 325.7791,-140.991 325.7791,-140.991"/>
<polygon fill="#000000" stroke="#000000" points="322.2792,-140.9909 325.7791,-150.991 329.2792,-140.991 322.2792,-140.9909"/>
</g>
</g>
</svg>
