<?xml version="1.0" encoding="UTF-8" standalone="no"?>
<!DOCTYPE svg PUBLIC "-//W3C//DTD SVG 1.1//EN"
 "http://www.w3.org/Graphics/SVG/1.1/DTD/svg11.dtd">
<!-- Generated by graphviz version 2.40.1 (20161225.0304)
 -->
<!-- Title: dependencies Pages: 1 -->
<svg width="1380pt" height="284pt"
 viewBox="0.00 0.00 1380.00 284.00" xmlns="http://www.w3.org/2000/svg" xmlns:xlink="http://www.w3.org/1999/xlink">
<g id="graph0" class="graph" transform="scale(1 1) rotate(0) translate(4 280)">
<title>dependencies</title>
<polygon fill="#ffffff" stroke="transparent" points="-4,4 -4,-280 1376,-280 1376,4 -4,4"/>
<text text-anchor="start" x="665.0091" y="-42.4" font-family="sans-serif" font-weight="bold" font-size="14.00" fill="#000000">Legend</text>
<polygon fill="#ffffb3" stroke="transparent" points="452,-10 452,-30 472,-30 472,-10 452,-10"/>
<text text-anchor="start" x="475.629" y="-15.4" font-family="sans-serif" font-size="14.00" fill="#000000"> &#160;Declarations</text>
<polygon fill="#8dd3c7" stroke="transparent" points="565,-10 565,-30 585,-30 585,-10 565,-10"/>
<text text-anchor="start" x="588.7251" y="-15.4" font-family="sans-serif" font-size="14.00" fill="#000000"> &#160;Module</text>
<polygon fill="#80b1d3" stroke="transparent" points="651,-10 651,-30 671,-30 671,-10 651,-10"/>
<text text-anchor="start" x="674.7812" y="-15.4" font-family="sans-serif" font-size="14.00" fill="#000000"> &#160;Bootstrap</text>
<polygon fill="#fdb462" stroke="transparent" points="748,-10 748,-30 768,-30 768,-10 748,-10"/>
<text text-anchor="start" x="771.6732" y="-15.4" font-family="sans-serif" font-size="14.00" fill="#000000"> &#160;Providers</text>
<polygon fill="#fb8072" stroke="transparent" points="844,-10 844,-30 864,-30 864,-10 844,-10"/>
<text text-anchor="start" x="867.7258" y="-15.4" font-family="sans-serif" font-size="14.00" fill="#000000"> &#160;Exports</text>
<g id="clust1" class="cluster">
<title>cluster_AtftMeshModule</title>
<polygon fill="none" stroke="#000000" stroke-dasharray="1,5" points="8,-70 8,-268 1364,-268 1364,-70 8,-70"/>
</g>
<g id="clust2" class="cluster">
<title>cluster_AtftMeshModule_declarations</title>
<polygon fill="none" stroke="#000000" points="33,-78 33,-130 1345,-130 1345,-78 33,-78"/>
</g>
<g id="clust12" class="cluster">
<title>cluster_AtftMeshModule_exports</title>
<polygon fill="none" stroke="#000000" points="16,-208 16,-260 1356,-260 1356,-208 16,-208"/>
</g>
<!-- BoxMeshComponent -->
<g id="node1" class="node">
<title>BoxMeshComponent</title>
<polygon fill="#ffffb3" stroke="#000000" points="1336.773,-122 1201.227,-122 1201.227,-86 1336.773,-86 1336.773,-122"/>
<text text-anchor="middle" x="1269" y="-99.8" font-family="Times,serif" font-size="14.00" fill="#000000">BoxMeshComponent</text>
</g>
<!-- AtftMeshModule -->
<g id="node9" class="node">
<title>AtftMeshModule</title>
<polygon fill="#8dd3c7" stroke="#000000" points="671.7022,-187 668.7022,-191 647.7022,-191 644.7022,-187 558.2978,-187 558.2978,-151 671.7022,-151 671.7022,-187"/>
<text text-anchor="middle" x="615" y="-164.8" font-family="Times,serif" font-size="14.00" fill="#000000">AtftMeshModule</text>
</g>
<!-- BoxMeshComponent&#45;&gt;AtftMeshModule -->
<g id="edge1" class="edge">
<title>BoxMeshComponent&#45;&gt;AtftMeshModule</title>
<path fill="none" stroke="#000000" d="M1204.7386,-122.2222C1204.7386,-140.8285 1204.7386,-167 1204.7386,-167 1204.7386,-167 681.8143,-167 681.8143,-167"/>
<polygon fill="#000000" stroke="#000000" points="681.8143,-163.5001 671.8143,-167 681.8142,-170.5001 681.8143,-163.5001"/>
</g>
<!-- CylinderMeshComponent -->
<g id="node2" class="node">
<title>CylinderMeshComponent</title>
<polygon fill="#ffffb3" stroke="#000000" points="1182.9298,-122 1021.0702,-122 1021.0702,-86 1182.9298,-86 1182.9298,-122"/>
<text text-anchor="middle" x="1102" y="-99.8" font-family="Times,serif" font-size="14.00" fill="#000000">CylinderMeshComponent</text>
</g>
<!-- CylinderMeshComponent&#45;&gt;AtftMeshModule -->
<g id="edge2" class="edge">
<title>CylinderMeshComponent&#45;&gt;AtftMeshModule</title>
<path fill="none" stroke="#000000" d="M1130.3215,-122.0225C1130.3215,-139.3734 1130.3215,-163 1130.3215,-163 1130.3215,-163 681.6225,-163 681.6225,-163"/>
<polygon fill="#000000" stroke="#000000" points="681.6226,-159.5001 671.6225,-163 681.6225,-166.5001 681.6226,-159.5001"/>
</g>
<!-- FrameMeshComponent -->
<g id="node3" class="node">
<title>FrameMeshComponent</title>
<polygon fill="#ffffb3" stroke="#000000" points="1003.1993,-122 854.8007,-122 854.8007,-86 1003.1993,-86 1003.1993,-122"/>
<text text-anchor="middle" x="929" y="-99.8" font-family="Times,serif" font-size="14.00" fill="#000000">FrameMeshComponent</text>
</g>
<!-- FrameMeshComponent&#45;&gt;AtftMeshModule -->
<g id="edge3" class="edge">
<title>FrameMeshComponent&#45;&gt;AtftMeshModule</title>
<path fill="none" stroke="#000000" d="M954.1165,-122.0091C954.1165,-138.0494 954.1165,-159 954.1165,-159 954.1165,-159 681.7605,-159 681.7605,-159"/>
<polygon fill="#000000" stroke="#000000" points="681.7605,-155.5001 671.7605,-159 681.7604,-162.5001 681.7605,-155.5001"/>
</g>
<!-- GridMeshComponent -->
<g id="node4" class="node">
<title>GridMeshComponent</title>
<polygon fill="#ffffb3" stroke="#000000" points="837.094,-122 698.906,-122 698.906,-86 837.094,-86 837.094,-122"/>
<text text-anchor="middle" x="768" y="-99.8" font-family="Times,serif" font-size="14.00" fill="#000000">GridMeshComponent</text>
</g>
<!-- GridMeshComponent&#45;&gt;AtftMeshModule -->
<g id="edge4" class="edge">
<title>GridMeshComponent&#45;&gt;AtftMeshModule</title>
<path fill="none" stroke="#000000" d="M744.9843,-122.1243C744.9843,-136.7832 744.9843,-155 744.9843,-155 744.9843,-155 681.6349,-155 681.6349,-155"/>
<polygon fill="#000000" stroke="#000000" points="681.6349,-151.5001 671.6349,-155 681.6349,-158.5001 681.6349,-151.5001"/>
</g>
<!-- PlaneMeshComponent -->
<g id="node5" class="node">
<title>PlaneMeshComponent</title>
<polygon fill="#ffffb3" stroke="#000000" points="680.5393,-122 537.4607,-122 537.4607,-86 680.5393,-86 680.5393,-122"/>
<text text-anchor="middle" x="609" y="-99.8" font-family="Times,serif" font-size="14.00" fill="#000000">PlaneMeshComponent</text>
</g>
<!-- PlaneMeshComponent&#45;&gt;AtftMeshModule -->
<g id="edge5" class="edge">
<title>PlaneMeshComponent&#45;&gt;AtftMeshModule</title>
<path fill="none" stroke="#000000" d="M615,-122.1061C615,-122.1061 615,-140.991 615,-140.991"/>
<polygon fill="#000000" stroke="#000000" points="611.5001,-140.9909 615,-150.991 618.5001,-140.991 611.5001,-140.9909"/>
</g>
<!-- SphereMeshComponent -->
<g id="node6" class="node">
<title>SphereMeshComponent</title>
<polygon fill="#ffffb3" stroke="#000000" points="519.8089,-122 368.1911,-122 368.1911,-86 519.8089,-86 519.8089,-122"/>
<text text-anchor="middle" x="444" y="-99.8" font-family="Times,serif" font-size="14.00" fill="#000000">SphereMeshComponent</text>
</g>
<!-- SphereMeshComponent&#45;&gt;AtftMeshModule -->
<g id="edge6" class="edge">
<title>SphereMeshComponent&#45;&gt;AtftMeshModule</title>
<path fill="none" stroke="#000000" d="M465.0514,-122.2396C465.0514,-137.5706 465.0514,-157 465.0514,-157 465.0514,-157 548.3109,-157 548.3109,-157"/>
<polygon fill="#000000" stroke="#000000" points="548.3109,-160.5001 558.3109,-157 548.3108,-153.5001 548.3109,-160.5001"/>
</g>
<!-- TorusMeshComponent -->
<g id="node7" class="node">
<title>TorusMeshComponent</title>
<polygon fill="#ffffb3" stroke="#000000" points="350.594,-122 205.406,-122 205.406,-86 350.594,-86 350.594,-122"/>
<text text-anchor="middle" x="278" y="-99.8" font-family="Times,serif" font-size="14.00" fill="#000000">TorusMeshComponent</text>
</g>
<!-- TorusMeshComponent&#45;&gt;AtftMeshModule -->
<g id="edge7" class="edge">
<title>TorusMeshComponent&#45;&gt;AtftMeshModule</title>
<path fill="none" stroke="#000000" d="M345.422,-122.0336C345.422,-139.0597 345.422,-162 345.422,-162 345.422,-162 548.1588,-162 548.1588,-162"/>
<polygon fill="#000000" stroke="#000000" points="548.1589,-165.5001 558.1588,-162 548.1588,-158.5001 548.1589,-165.5001"/>
</g>
<!-- VideoMeshComponent -->
<g id="node8" class="node">
<title>VideoMeshComponent</title>
<polygon fill="#ffffb3" stroke="#000000" points="187.1484,-122 40.8516,-122 40.8516,-86 187.1484,-86 187.1484,-122"/>
<text text-anchor="middle" x="114" y="-99.8" font-family="Times,serif" font-size="14.00" fill="#000000">VideoMeshComponent</text>
</g>
<!-- VideoMeshComponent&#45;&gt;AtftMeshModule -->
<g id="edge8" class="edge">
<title>VideoMeshComponent&#45;&gt;AtftMeshModule</title>
<path fill="none" stroke="#000000" d="M180.699,-122.2222C180.699,-140.8285 180.699,-167 180.699,-167 180.699,-167 548.2227,-167 548.2227,-167"/>
<polygon fill="#000000" stroke="#000000" points="548.2228,-170.5001 558.2227,-167 548.2227,-163.5001 548.2228,-170.5001"/>
</g>
<!-- BoxMeshComponent  -->
<g id="node10" class="node">
<title>BoxMeshComponent </title>
<polygon fill="#fb8072" stroke="#000000" points="1347.7731,-252 1208.2269,-252 1208.2269,-216 1347.7731,-216 1347.7731,-252"/>
<text text-anchor="middle" x="1278" y="-229.8" font-family="Times,serif" font-size="14.00" fill="#000000">BoxMeshComponent </text>
</g>
<!-- AtftMeshModule&#45;&gt;BoxMeshComponent  -->
<g id="edge9" class="edge">
<title>AtftMeshModule&#45;&gt;BoxMeshComponent </title>
<path fill="none" stroke="#000000" stroke-dasharray="5,2" d="M671.6379,-171C831.1539,-171 1272.625,-171 1272.625,-171 1272.625,-171 1272.625,-205.7778 1272.625,-205.7778"/>
<polygon fill="#000000" stroke="#000000" points="1269.1251,-205.7778 1272.625,-215.7778 1276.1251,-205.7778 1269.1251,-205.7778"/>
</g>
<!-- CylinderMeshComponent  -->
<g id="node11" class="node">
<title>CylinderMeshComponent </title>
<polygon fill="#fb8072" stroke="#000000" points="1190.4292,-252 1025.5708,-252 1025.5708,-216 1190.4292,-216 1190.4292,-252"/>
<text text-anchor="middle" x="1108" y="-229.8" font-family="Times,serif" font-size="14.00" fill="#000000">CylinderMeshComponent </text>
</g>
<!-- AtftMeshModule&#45;&gt;CylinderMeshComponent  -->
<g id="edge10" class="edge">
<title>AtftMeshModule&#45;&gt;CylinderMeshComponent </title>
<path fill="none" stroke="#000000" stroke-dasharray="5,2" d="M671.7641,-175C795.3794,-175 1077.9285,-175 1077.9285,-175 1077.9285,-175 1077.9285,-205.9775 1077.9285,-205.9775"/>
<polygon fill="#000000" stroke="#000000" points="1074.4286,-205.9774 1077.9285,-215.9775 1081.4286,-205.9775 1074.4286,-205.9774"/>
</g>
<!-- FrameMeshComponent  -->
<g id="node12" class="node">
<title>FrameMeshComponent </title>
<polygon fill="#fb8072" stroke="#000000" points="1007.6995,-252 856.3005,-252 856.3005,-216 1007.6995,-216 1007.6995,-252"/>
<text text-anchor="middle" x="932" y="-229.8" font-family="Times,serif" font-size="14.00" fill="#000000">FrameMeshComponent </text>
</g>
<!-- AtftMeshModule&#45;&gt;FrameMeshComponent  -->
<g id="edge11" class="edge">
<title>AtftMeshModule&#45;&gt;FrameMeshComponent </title>
<path fill="none" stroke="#000000" stroke-dasharray="5,2" d="M671.6294,-179C756.0635,-179 905.1335,-179 905.1335,-179 905.1335,-179 905.1335,-205.9909 905.1335,-205.9909"/>
<polygon fill="#000000" stroke="#000000" points="901.6336,-205.9909 905.1335,-215.9909 908.6336,-205.991 901.6336,-205.9909"/>
</g>
<!-- GridMeshComponent  -->
<g id="node13" class="node">
<title>GridMeshComponent </title>
<polygon fill="#fb8072" stroke="#000000" points="837.5946,-252 696.4054,-252 696.4054,-216 837.5946,-216 837.5946,-252"/>
<text text-anchor="middle" x="767" y="-229.8" font-family="Times,serif" font-size="14.00" fill="#000000">GridMeshComponent </text>
</g>
<!-- AtftMeshModule&#45;&gt;GridMeshComponent  -->
<g id="edge12" class="edge">
<title>AtftMeshModule&#45;&gt;GridMeshComponent </title>
<path fill="none" stroke="#000000" stroke-dasharray="5,2" d="M671.6613,-183C723.1163,-183 791.0157,-183 791.0157,-183 791.0157,-183 791.0157,-205.8757 791.0157,-205.8757"/>
<polygon fill="#000000" stroke="#000000" points="787.5158,-205.8757 791.0157,-215.8757 794.5158,-205.8757 787.5158,-205.8757"/>
</g>
<!-- PlaneMeshComponent  -->
<g id="node14" class="node">
<title>PlaneMeshComponent </title>
<polygon fill="#fb8072" stroke="#000000" points="678.5386,-252 531.4614,-252 531.4614,-216 678.5386,-216 678.5386,-252"/>
<text text-anchor="middle" x="605" y="-229.8" font-family="Times,serif" font-size="14.00" fill="#000000">PlaneMeshComponent </text>
</g>
<!-- AtftMeshModule&#45;&gt;PlaneMeshComponent  -->
<g id="edge13" class="edge">
<title>AtftMeshModule&#45;&gt;PlaneMeshComponent </title>
<path fill="none" stroke="#000000" stroke-dasharray="5,2" d="M615,-187.1061C615,-187.1061 615,-205.991 615,-205.991"/>
<polygon fill="#000000" stroke="#000000" points="611.5001,-205.9909 615,-215.991 618.5001,-205.991 611.5001,-205.9909"/>
</g>
<!-- SphereMeshComponent  -->
<g id="node15" class="node">
<title>SphereMeshComponent </title>
<polygon fill="#fb8072" stroke="#000000" points="513.3087,-252 358.6913,-252 358.6913,-216 513.3087,-216 513.3087,-252"/>
<text text-anchor="middle" x="436" y="-229.8" font-family="Times,serif" font-size="14.00" fill="#000000">SphereMeshComponent </text>
</g>
<!-- AtftMeshModule&#45;&gt;SphereMeshComponent  -->
<g id="edge14" class="edge">
<title>AtftMeshModule&#45;&gt;SphereMeshComponent </title>
<path fill="none" stroke="#000000" stroke-dasharray="5,2" d="M558.1748,-182C499.5771,-182 416.6986,-182 416.6986,-182 416.6986,-182 416.6986,-205.8129 416.6986,-205.8129"/>
<polygon fill="#000000" stroke="#000000" points="413.1987,-205.8129 416.6986,-215.8129 420.1987,-205.813 413.1987,-205.8129"/>
</g>
<!-- TorusMeshComponent  -->
<g id="node16" class="node">
<title>TorusMeshComponent </title>
<polygon fill="#fb8072" stroke="#000000" points="340.0946,-252 191.9054,-252 191.9054,-216 340.0946,-216 340.0946,-252"/>
<text text-anchor="middle" x="266" y="-229.8" font-family="Times,serif" font-size="14.00" fill="#000000">TorusMeshComponent </text>
</g>
<!-- AtftMeshModule&#45;&gt;TorusMeshComponent  -->
<g id="edge15" class="edge">
<title>AtftMeshModule&#45;&gt;TorusMeshComponent </title>
<path fill="none" stroke="#000000" stroke-dasharray="5,2" d="M558.121,-177C460.8363,-177 272.875,-177 272.875,-177 272.875,-177 272.875,-205.9648 272.875,-205.9648"/>
<polygon fill="#000000" stroke="#000000" points="269.3751,-205.9648 272.875,-215.9648 276.3751,-205.9649 269.3751,-205.9648"/>
</g>
<!-- VideoMeshComponent  -->
<g id="node17" class="node">
<title>VideoMeshComponent </title>
<polygon fill="#fb8072" stroke="#000000" points="174.1481,-252 23.8519,-252 23.8519,-216 174.1481,-216 174.1481,-252"/>
<text text-anchor="middle" x="99" y="-229.8" font-family="Times,serif" font-size="14.00" fill="#000000">VideoMeshComponent </text>
</g>
<!-- AtftMeshModule&#45;&gt;VideoMeshComponent  -->
<g id="edge16" class="edge">
<title>AtftMeshModule&#45;&gt;VideoMeshComponent </title>
<path fill="none" stroke="#000000" stroke-dasharray="5,2" d="M558.2466,-172C425.7836,-172 107.375,-172 107.375,-172 107.375,-172 107.375,-205.7333 107.375,-205.7333"/>
<polygon fill="#000000" stroke="#000000" points="103.8751,-205.7333 107.375,-215.7333 110.8751,-205.7333 103.8751,-205.7333"/>
</g>
</g>
</svg>
