<?xml version="1.0" encoding="UTF-8" standalone="no"?>
<!DOCTYPE svg PUBLIC "-//W3C//DTD SVG 1.1//EN"
 "http://www.w3.org/Graphics/SVG/1.1/DTD/svg11.dtd">
<!-- Generated by graphviz version 2.40.1 (20161225.0304)
 -->
<!-- Title: dependencies Pages: 1 -->
<svg width="1415pt" height="284pt"
 viewBox="0.00 0.00 1415.00 284.00" xmlns="http://www.w3.org/2000/svg" xmlns:xlink="http://www.w3.org/1999/xlink">
<g id="graph0" class="graph" transform="scale(1 1) rotate(0) translate(4 280)">
<title>dependencies</title>
<polygon fill="#ffffff" stroke="transparent" points="-4,4 -4,-280 1411,-280 1411,4 -4,4"/>
<text text-anchor="start" x="682.5091" y="-42.4" font-family="sans-serif" font-weight="bold" font-size="14.00" fill="#000000">Legend</text>
<polygon fill="#ffffb3" stroke="transparent" points="469.5,-10 469.5,-30 489.5,-30 489.5,-10 469.5,-10"/>
<text text-anchor="start" x="493.129" y="-15.4" font-family="sans-serif" font-size="14.00" fill="#000000"> &#160;Declarations</text>
<polygon fill="#8dd3c7" stroke="transparent" points="582.5,-10 582.5,-30 602.5,-30 602.5,-10 582.5,-10"/>
<text text-anchor="start" x="606.2251" y="-15.4" font-family="sans-serif" font-size="14.00" fill="#000000"> &#160;Module</text>
<polygon fill="#80b1d3" stroke="transparent" points="668.5,-10 668.5,-30 688.5,-30 688.5,-10 668.5,-10"/>
<text text-anchor="start" x="692.2812" y="-15.4" font-family="sans-serif" font-size="14.00" fill="#000000"> &#160;Bootstrap</text>
<polygon fill="#fdb462" stroke="transparent" points="765.5,-10 765.5,-30 785.5,-30 785.5,-10 765.5,-10"/>
<text text-anchor="start" x="789.1732" y="-15.4" font-family="sans-serif" font-size="14.00" fill="#000000"> &#160;Providers</text>
<polygon fill="#fb8072" stroke="transparent" points="861.5,-10 861.5,-30 881.5,-30 881.5,-10 861.5,-10"/>
<text text-anchor="start" x="885.2258" y="-15.4" font-family="sans-serif" font-size="14.00" fill="#000000"> &#160;Exports</text>
<g id="clust1" class="cluster">
<title>cluster_AtftMeshModule</title>
<polygon fill="none" stroke="#000000" stroke-dasharray="1,5" points="8,-70 8,-268 1399,-268 1399,-70 8,-70"/>
</g>
<g id="clust2" class="cluster">
<title>cluster_AtftMeshModule_declarations</title>
<polygon fill="none" stroke="#000000" points="33,-78 33,-130 1379,-130 1379,-78 33,-78"/>
</g>
<g id="clust12" class="cluster">
<title>cluster_AtftMeshModule_exports</title>
<polygon fill="none" stroke="#000000" points="16,-208 16,-260 1391,-260 1391,-208 16,-208"/>
</g>
<!-- BoxMeshComponent -->
<g id="node1" class="node">
<title>BoxMeshComponent</title>
<polygon fill="#ffffb3" stroke="#000000" points="1370.773,-122 1235.227,-122 1235.227,-86 1370.773,-86 1370.773,-122"/>
<text text-anchor="middle" x="1303" y="-99.8" font-family="Times,serif" font-size="14.00" fill="#000000">BoxMeshComponent</text>
</g>
<!-- AtftMeshModule -->
<g id="node9" class="node">
<title>AtftMeshModule</title>
<polygon fill="#8dd3c7" stroke="#000000" points="666.7022,-187 663.7022,-191 642.7022,-191 639.7022,-187 553.2978,-187 553.2978,-151 666.7022,-151 666.7022,-187"/>
<text text-anchor="middle" x="610" y="-164.8" font-family="Times,serif" font-size="14.00" fill="#000000">AtftMeshModule</text>
</g>
<!-- BoxMeshComponent&#45;&gt;AtftMeshModule -->
<g id="edge1" class="edge">
<title>BoxMeshComponent&#45;&gt;AtftMeshModule</title>
<path fill="none" stroke="#000000" d="M1239.2386,-122.2222C1239.2386,-140.8285 1239.2386,-167 1239.2386,-167 1239.2386,-167 676.6722,-167 676.6722,-167"/>
<polygon fill="#000000" stroke="#000000" points="676.6723,-163.5001 666.6722,-167 676.6722,-170.5001 676.6723,-163.5001"/>
</g>
<!-- Css3dVideoMeshComponent -->
<g id="node2" class="node">
<title>Css3dVideoMeshComponent</title>
<polygon fill="#ffffb3" stroke="#000000" points="1217.3738,-122 1036.6262,-122 1036.6262,-86 1217.3738,-86 1217.3738,-122"/>
<text text-anchor="middle" x="1127" y="-99.8" font-family="Times,serif" font-size="14.00" fill="#000000">Css3dVideoMeshComponent</text>
</g>
<!-- Css3dVideoMeshComponent&#45;&gt;AtftMeshModule -->
<g id="edge2" class="edge">
<title>Css3dVideoMeshComponent&#45;&gt;AtftMeshModule</title>
<path fill="none" stroke="#000000" d="M1158.5623,-122.0225C1158.5623,-139.3734 1158.5623,-163 1158.5623,-163 1158.5623,-163 676.6397,-163 676.6397,-163"/>
<polygon fill="#000000" stroke="#000000" points="676.6397,-159.5001 666.6397,-163 676.6396,-166.5001 676.6397,-159.5001"/>
</g>
<!-- CylinderMeshComponent -->
<g id="node3" class="node">
<title>CylinderMeshComponent</title>
<polygon fill="#ffffb3" stroke="#000000" points="1018.9298,-122 857.0702,-122 857.0702,-86 1018.9298,-86 1018.9298,-122"/>
<text text-anchor="middle" x="938" y="-99.8" font-family="Times,serif" font-size="14.00" fill="#000000">CylinderMeshComponent</text>
</g>
<!-- CylinderMeshComponent&#45;&gt;AtftMeshModule -->
<g id="edge3" class="edge">
<title>CylinderMeshComponent&#45;&gt;AtftMeshModule</title>
<path fill="none" stroke="#000000" d="M964.9882,-122.0091C964.9882,-138.0494 964.9882,-159 964.9882,-159 964.9882,-159 676.6415,-159 676.6415,-159"/>
<polygon fill="#000000" stroke="#000000" points="676.6415,-155.5001 666.6415,-159 676.6414,-162.5001 676.6415,-155.5001"/>
</g>
<!-- FrameMeshComponent -->
<g id="node4" class="node">
<title>FrameMeshComponent</title>
<polygon fill="#ffffb3" stroke="#000000" points="839.1993,-122 690.8007,-122 690.8007,-86 839.1993,-86 839.1993,-122"/>
<text text-anchor="middle" x="765" y="-99.8" font-family="Times,serif" font-size="14.00" fill="#000000">FrameMeshComponent</text>
</g>
<!-- FrameMeshComponent&#45;&gt;AtftMeshModule -->
<g id="edge4" class="edge">
<title>FrameMeshComponent&#45;&gt;AtftMeshModule</title>
<path fill="none" stroke="#000000" d="M740.3001,-122.1243C740.3001,-136.7832 740.3001,-155 740.3001,-155 740.3001,-155 676.7725,-155 676.7725,-155"/>
<polygon fill="#000000" stroke="#000000" points="676.7725,-151.5001 666.7725,-155 676.7725,-158.5001 676.7725,-151.5001"/>
</g>
<!-- GridMeshComponent -->
<g id="node5" class="node">
<title>GridMeshComponent</title>
<polygon fill="#ffffb3" stroke="#000000" points="673.094,-122 534.906,-122 534.906,-86 673.094,-86 673.094,-122"/>
<text text-anchor="middle" x="604" y="-99.8" font-family="Times,serif" font-size="14.00" fill="#000000">GridMeshComponent</text>
</g>
<!-- GridMeshComponent&#45;&gt;AtftMeshModule -->
<g id="edge5" class="edge">
<title>GridMeshComponent&#45;&gt;AtftMeshModule</title>
<path fill="none" stroke="#000000" d="M610,-122.1061C610,-122.1061 610,-140.991 610,-140.991"/>
<polygon fill="#000000" stroke="#000000" points="606.5001,-140.9909 610,-150.991 613.5001,-140.991 606.5001,-140.9909"/>
</g>
<!-- PlaneMeshComponent -->
<g id="node6" class="node">
<title>PlaneMeshComponent</title>
<polygon fill="#ffffb3" stroke="#000000" points="516.5393,-122 373.4607,-122 373.4607,-86 516.5393,-86 516.5393,-122"/>
<text text-anchor="middle" x="445" y="-99.8" font-family="Times,serif" font-size="14.00" fill="#000000">PlaneMeshComponent</text>
</g>
<!-- PlaneMeshComponent&#45;&gt;AtftMeshModule -->
<g id="edge6" class="edge">
<title>PlaneMeshComponent&#45;&gt;AtftMeshModule</title>
<path fill="none" stroke="#000000" d="M464.7564,-122.2396C464.7564,-137.5706 464.7564,-157 464.7564,-157 464.7564,-157 543.0128,-157 543.0128,-157"/>
<polygon fill="#000000" stroke="#000000" points="543.0128,-160.5001 553.0128,-157 543.0127,-153.5001 543.0128,-160.5001"/>
</g>
<!-- SphereMeshComponent -->
<g id="node7" class="node">
<title>SphereMeshComponent</title>
<polygon fill="#ffffb3" stroke="#000000" points="355.8089,-122 204.1911,-122 204.1911,-86 355.8089,-86 355.8089,-122"/>
<text text-anchor="middle" x="280" y="-99.8" font-family="Times,serif" font-size="14.00" fill="#000000">SphereMeshComponent</text>
</g>
<!-- SphereMeshComponent&#45;&gt;AtftMeshModule -->
<g id="edge7" class="edge">
<title>SphereMeshComponent&#45;&gt;AtftMeshModule</title>
<path fill="none" stroke="#000000" d="M350.5293,-122.0336C350.5293,-139.0597 350.5293,-162 350.5293,-162 350.5293,-162 543.3787,-162 543.3787,-162"/>
<polygon fill="#000000" stroke="#000000" points="543.3787,-165.5001 553.3787,-162 543.3786,-158.5001 543.3787,-165.5001"/>
</g>
<!-- TorusMeshComponent -->
<g id="node8" class="node">
<title>TorusMeshComponent</title>
<polygon fill="#ffffb3" stroke="#000000" points="186.594,-122 41.406,-122 41.406,-86 186.594,-86 186.594,-122"/>
<text text-anchor="middle" x="114" y="-99.8" font-family="Times,serif" font-size="14.00" fill="#000000">TorusMeshComponent</text>
</g>
<!-- TorusMeshComponent&#45;&gt;AtftMeshModule -->
<g id="edge8" class="edge">
<title>TorusMeshComponent&#45;&gt;AtftMeshModule</title>
<path fill="none" stroke="#000000" d="M179.422,-122.2222C179.422,-140.8285 179.422,-167 179.422,-167 179.422,-167 543.2667,-167 543.2667,-167"/>
<polygon fill="#000000" stroke="#000000" points="543.2667,-170.5001 553.2667,-167 543.2666,-163.5001 543.2667,-170.5001"/>
</g>
<!-- BoxMeshComponent  -->
<g id="node10" class="node">
<title>BoxMeshComponent </title>
<polygon fill="#fb8072" stroke="#000000" points="1382.7731,-252 1243.2269,-252 1243.2269,-216 1382.7731,-216 1382.7731,-252"/>
<text text-anchor="middle" x="1313" y="-229.8" font-family="Times,serif" font-size="14.00" fill="#000000">BoxMeshComponent </text>
</g>
<!-- AtftMeshModule&#45;&gt;BoxMeshComponent  -->
<g id="edge9" class="edge">
<title>AtftMeshModule&#45;&gt;BoxMeshComponent </title>
<path fill="none" stroke="#000000" stroke-dasharray="5,2" d="M666.7531,-171C832.9812,-171 1307.125,-171 1307.125,-171 1307.125,-171 1307.125,-205.7778 1307.125,-205.7778"/>
<polygon fill="#000000" stroke="#000000" points="1303.6251,-205.7778 1307.125,-215.7778 1310.6251,-205.7778 1303.6251,-205.7778"/>
</g>
<!-- Css3dVideoMeshComponent  -->
<g id="node11" class="node">
<title>Css3dVideoMeshComponent </title>
<polygon fill="#fb8072" stroke="#000000" points="1225.3742,-252 1040.6258,-252 1040.6258,-216 1225.3742,-216 1225.3742,-252"/>
<text text-anchor="middle" x="1133" y="-229.8" font-family="Times,serif" font-size="14.00" fill="#000000">Css3dVideoMeshComponent </text>
</g>
<!-- AtftMeshModule&#45;&gt;Css3dVideoMeshComponent  -->
<g id="edge10" class="edge">
<title>AtftMeshModule&#45;&gt;Css3dVideoMeshComponent </title>
<path fill="none" stroke="#000000" stroke-dasharray="5,2" d="M666.6518,-175C795.5527,-175 1099.6877,-175 1099.6877,-175 1099.6877,-175 1099.6877,-205.9775 1099.6877,-205.9775"/>
<polygon fill="#000000" stroke="#000000" points="1096.1878,-205.9774 1099.6877,-215.9775 1103.1878,-205.9775 1096.1878,-205.9774"/>
</g>
<!-- CylinderMeshComponent  -->
<g id="node12" class="node">
<title>CylinderMeshComponent </title>
<polygon fill="#fb8072" stroke="#000000" points="1022.4292,-252 857.5708,-252 857.5708,-216 1022.4292,-216 1022.4292,-252"/>
<text text-anchor="middle" x="940" y="-229.8" font-family="Times,serif" font-size="14.00" fill="#000000">CylinderMeshComponent </text>
</g>
<!-- AtftMeshModule&#45;&gt;CylinderMeshComponent  -->
<g id="edge11" class="edge">
<title>AtftMeshModule&#45;&gt;CylinderMeshComponent </title>
<path fill="none" stroke="#000000" stroke-dasharray="5,2" d="M666.665,-179C753.9332,-179 911.2618,-179 911.2618,-179 911.2618,-179 911.2618,-205.9909 911.2618,-205.9909"/>
<polygon fill="#000000" stroke="#000000" points="907.7619,-205.9909 911.2618,-215.9909 914.7619,-205.991 907.7619,-205.9909"/>
</g>
<!-- FrameMeshComponent  -->
<g id="node13" class="node">
<title>FrameMeshComponent </title>
<polygon fill="#fb8072" stroke="#000000" points="839.6995,-252 688.3005,-252 688.3005,-216 839.6995,-216 839.6995,-252"/>
<text text-anchor="middle" x="764" y="-229.8" font-family="Times,serif" font-size="14.00" fill="#000000">FrameMeshComponent </text>
</g>
<!-- AtftMeshModule&#45;&gt;FrameMeshComponent  -->
<g id="edge12" class="edge">
<title>AtftMeshModule&#45;&gt;FrameMeshComponent </title>
<path fill="none" stroke="#000000" stroke-dasharray="5,2" d="M666.8582,-183C719.5046,-183 789.6999,-183 789.6999,-183 789.6999,-183 789.6999,-205.8757 789.6999,-205.8757"/>
<polygon fill="#000000" stroke="#000000" points="786.2,-205.8757 789.6999,-215.8757 793.2,-205.8757 786.2,-205.8757"/>
</g>
<!-- GridMeshComponent  -->
<g id="node14" class="node">
<title>GridMeshComponent </title>
<polygon fill="#fb8072" stroke="#000000" points="669.5946,-252 528.4054,-252 528.4054,-216 669.5946,-216 669.5946,-252"/>
<text text-anchor="middle" x="599" y="-229.8" font-family="Times,serif" font-size="14.00" fill="#000000">GridMeshComponent </text>
</g>
<!-- AtftMeshModule&#45;&gt;GridMeshComponent  -->
<g id="edge13" class="edge">
<title>AtftMeshModule&#45;&gt;GridMeshComponent </title>
<path fill="none" stroke="#000000" stroke-dasharray="5,2" d="M610,-187.1061C610,-187.1061 610,-205.991 610,-205.991"/>
<polygon fill="#000000" stroke="#000000" points="606.5001,-205.9909 610,-215.991 613.5001,-205.991 606.5001,-205.9909"/>
</g>
<!-- PlaneMeshComponent  -->
<g id="node15" class="node">
<title>PlaneMeshComponent </title>
<polygon fill="#fb8072" stroke="#000000" points="510.5386,-252 363.4614,-252 363.4614,-216 510.5386,-216 510.5386,-252"/>
<text text-anchor="middle" x="437" y="-229.8" font-family="Times,serif" font-size="14.00" fill="#000000">PlaneMeshComponent </text>
</g>
<!-- AtftMeshModule&#45;&gt;PlaneMeshComponent  -->
<g id="edge14" class="edge">
<title>AtftMeshModule&#45;&gt;PlaneMeshComponent </title>
<path fill="none" stroke="#000000" stroke-dasharray="5,2" d="M553.2089,-182C496.9054,-182 418.9936,-182 418.9936,-182 418.9936,-182 418.9936,-205.8129 418.9936,-205.8129"/>
<polygon fill="#000000" stroke="#000000" points="415.4937,-205.8129 418.9936,-215.8129 422.4937,-205.813 415.4937,-205.8129"/>
</g>
<!-- SphereMeshComponent  -->
<g id="node16" class="node">
<title>SphereMeshComponent </title>
<polygon fill="#fb8072" stroke="#000000" points="345.3087,-252 190.6913,-252 190.6913,-216 345.3087,-216 345.3087,-252"/>
<text text-anchor="middle" x="268" y="-229.8" font-family="Times,serif" font-size="14.00" fill="#000000">SphereMeshComponent </text>
</g>
<!-- AtftMeshModule&#45;&gt;SphereMeshComponent  -->
<g id="edge15" class="edge">
<title>AtftMeshModule&#45;&gt;SphereMeshComponent </title>
<path fill="none" stroke="#000000" stroke-dasharray="5,2" d="M553.1506,-177C457.538,-177 274.875,-177 274.875,-177 274.875,-177 274.875,-205.9648 274.875,-205.9648"/>
<polygon fill="#000000" stroke="#000000" points="271.3751,-205.9648 274.875,-215.9648 278.3751,-205.9649 271.3751,-205.9648"/>
</g>
<!-- TorusMeshComponent  -->
<g id="node17" class="node">
<title>TorusMeshComponent </title>
<polygon fill="#fb8072" stroke="#000000" points="172.0946,-252 23.9054,-252 23.9054,-216 172.0946,-216 172.0946,-252"/>
<text text-anchor="middle" x="98" y="-229.8" font-family="Times,serif" font-size="14.00" fill="#000000">TorusMeshComponent </text>
</g>
<!-- AtftMeshModule&#45;&gt;TorusMeshComponent  -->
<g id="edge16" class="edge">
<title>AtftMeshModule&#45;&gt;TorusMeshComponent </title>
<path fill="none" stroke="#000000" stroke-dasharray="5,2" d="M553.2632,-172C421.6832,-172 106.875,-172 106.875,-172 106.875,-172 106.875,-205.7333 106.875,-205.7333"/>
<polygon fill="#000000" stroke="#000000" points="103.3751,-205.7333 106.875,-215.7333 110.3751,-205.7333 103.3751,-205.7333"/>
</g>
</g>
</svg>
