<?xml version="1.0" encoding="UTF-8" standalone="no"?>
<!DOCTYPE svg PUBLIC "-//W3C//DTD SVG 1.1//EN"
 "http://www.w3.org/Graphics/SVG/1.1/DTD/svg11.dtd">
<!-- Generated by graphviz version 2.47.0 (20210316.0004)
 -->
<!-- Title: dependencies Pages: 1 -->
<svg width="1380pt" height="284pt"
 viewBox="0.00 0.00 1380.00 284.00" xmlns="http://www.w3.org/2000/svg" xmlns:xlink="http://www.w3.org/1999/xlink">
<g id="graph0" class="graph" transform="scale(1 1) rotate(0) translate(4 280)">
<title>dependencies</title>
<polygon fill="white" stroke="transparent" points="-4,4 -4,-280 1376,-280 1376,4 -4,4"/>
<text text-anchor="start" x="665.01" y="-42.4" font-family="Times-12" font-weight="bold" font-size="14.00">Legend</text>
<polygon fill="#ffffb3" stroke="transparent" points="452,-10 452,-30 472,-30 472,-10 452,-10"/>
<text text-anchor="start" x="475.63" y="-15.4" font-family="Times-12" font-size="14.00"> &#160;Declarations</text>
<polygon fill="#8dd3c7" stroke="transparent" points="565,-10 565,-30 585,-30 585,-10 565,-10"/>
<text text-anchor="start" x="588.73" y="-15.4" font-family="Times-12" font-size="14.00"> &#160;Module</text>
<polygon fill="#80b1d3" stroke="transparent" points="651,-10 651,-30 671,-30 671,-10 651,-10"/>
<text text-anchor="start" x="674.78" y="-15.4" font-family="Times-12" font-size="14.00"> &#160;Bootstrap</text>
<polygon fill="#fdb462" stroke="transparent" points="748,-10 748,-30 768,-30 768,-10 748,-10"/>
<text text-anchor="start" x="771.67" y="-15.4" font-family="Times-12" font-size="14.00"> &#160;Providers</text>
<polygon fill="#fb8072" stroke="transparent" points="844,-10 844,-30 864,-30 864,-10 844,-10"/>
<text text-anchor="start" x="867.73" y="-15.4" font-family="Times-12" font-size="14.00"> &#160;Exports</text>
<g id="clust1" class="cluster">
<title>cluster_AtftMeshModule</title>
<polygon fill="none" stroke="black" stroke-dasharray="1,5" points="8,-70 8,-268 1364,-268 1364,-70 8,-70"/>
</g>
<g id="clust12" class="cluster">
<title>cluster_AtftMeshModule_exports</title>
<polygon fill="none" stroke="black" points="16,-208 16,-260 1356,-260 1356,-208 16,-208"/>
</g>
<g id="clust2" class="cluster">
<title>cluster_AtftMeshModule_declarations</title>
<polygon fill="none" stroke="black" points="33,-78 33,-130 1345,-130 1345,-78 33,-78"/>
</g>
<!-- BoxMeshComponent -->
<g id="node1" class="node">
<title>BoxMeshComponent</title>
<polygon fill="#ffffb3" stroke="black" points="1336.77,-122 1201.23,-122 1201.23,-86 1336.77,-86 1336.77,-122"/>
<text text-anchor="middle" x="1269" y="-99.8" font-family="Times,serif" font-size="14.00">BoxMeshComponent</text>
</g>
<!-- AtftMeshModule -->
<g id="node9" class="node">
<title>AtftMeshModule</title>
<polygon fill="#8dd3c7" stroke="black" points="671.7,-187 668.7,-191 647.7,-191 644.7,-187 558.3,-187 558.3,-151 671.7,-151 671.7,-187"/>
<text text-anchor="middle" x="615" y="-164.8" font-family="Times,serif" font-size="14.00">AtftMeshModule</text>
</g>
<!-- BoxMeshComponent&#45;&gt;AtftMeshModule -->
<g id="edge1" class="edge">
<title>BoxMeshComponent&#45;&gt;AtftMeshModule</title>
<path fill="none" stroke="black" d="M1204.74,-122.22C1204.74,-140.83 1204.74,-167 1204.74,-167 1204.74,-167 681.81,-167 681.81,-167"/>
<polygon fill="black" stroke="black" points="681.81,-163.5 671.81,-167 681.81,-170.5 681.81,-163.5"/>
</g>
<!-- CylinderMeshComponent -->
<g id="node2" class="node">
<title>CylinderMeshComponent</title>
<polygon fill="#ffffb3" stroke="black" points="1182.93,-122 1021.07,-122 1021.07,-86 1182.93,-86 1182.93,-122"/>
<text text-anchor="middle" x="1102" y="-99.8" font-family="Times,serif" font-size="14.00">CylinderMeshComponent</text>
</g>
<!-- CylinderMeshComponent&#45;&gt;AtftMeshModule -->
<g id="edge2" class="edge">
<title>CylinderMeshComponent&#45;&gt;AtftMeshModule</title>
<path fill="none" stroke="black" d="M1130.32,-122.02C1130.32,-139.37 1130.32,-163 1130.32,-163 1130.32,-163 681.62,-163 681.62,-163"/>
<polygon fill="black" stroke="black" points="681.62,-159.5 671.62,-163 681.62,-166.5 681.62,-159.5"/>
</g>
<!-- FrameMeshComponent -->
<g id="node3" class="node">
<title>FrameMeshComponent</title>
<polygon fill="#ffffb3" stroke="black" points="1003.2,-122 854.8,-122 854.8,-86 1003.2,-86 1003.2,-122"/>
<text text-anchor="middle" x="929" y="-99.8" font-family="Times,serif" font-size="14.00">FrameMeshComponent</text>
</g>
<!-- FrameMeshComponent&#45;&gt;AtftMeshModule -->
<g id="edge3" class="edge">
<title>FrameMeshComponent&#45;&gt;AtftMeshModule</title>
<path fill="none" stroke="black" d="M954.12,-122.01C954.12,-138.05 954.12,-159 954.12,-159 954.12,-159 681.76,-159 681.76,-159"/>
<polygon fill="black" stroke="black" points="681.76,-155.5 671.76,-159 681.76,-162.5 681.76,-155.5"/>
</g>
<!-- GridMeshComponent -->
<g id="node4" class="node">
<title>GridMeshComponent</title>
<polygon fill="#ffffb3" stroke="black" points="837.09,-122 698.91,-122 698.91,-86 837.09,-86 837.09,-122"/>
<text text-anchor="middle" x="768" y="-99.8" font-family="Times,serif" font-size="14.00">GridMeshComponent</text>
</g>
<!-- GridMeshComponent&#45;&gt;AtftMeshModule -->
<g id="edge4" class="edge">
<title>GridMeshComponent&#45;&gt;AtftMeshModule</title>
<path fill="none" stroke="black" d="M744.98,-122.12C744.98,-136.78 744.98,-155 744.98,-155 744.98,-155 681.63,-155 681.63,-155"/>
<polygon fill="black" stroke="black" points="681.63,-151.5 671.63,-155 681.63,-158.5 681.63,-151.5"/>
</g>
<!-- PlaneMeshComponent -->
<g id="node5" class="node">
<title>PlaneMeshComponent</title>
<polygon fill="#ffffb3" stroke="black" points="680.54,-122 537.46,-122 537.46,-86 680.54,-86 680.54,-122"/>
<text text-anchor="middle" x="609" y="-99.8" font-family="Times,serif" font-size="14.00">PlaneMeshComponent</text>
</g>
<!-- PlaneMeshComponent&#45;&gt;AtftMeshModule -->
<g id="edge5" class="edge">
<title>PlaneMeshComponent&#45;&gt;AtftMeshModule</title>
<path fill="none" stroke="black" d="M615,-122.11C615,-122.11 615,-140.99 615,-140.99"/>
<polygon fill="black" stroke="black" points="611.5,-140.99 615,-150.99 618.5,-140.99 611.5,-140.99"/>
</g>
<!-- SphereMeshComponent -->
<g id="node6" class="node">
<title>SphereMeshComponent</title>
<polygon fill="#ffffb3" stroke="black" points="519.81,-122 368.19,-122 368.19,-86 519.81,-86 519.81,-122"/>
<text text-anchor="middle" x="444" y="-99.8" font-family="Times,serif" font-size="14.00">SphereMeshComponent</text>
</g>
<!-- SphereMeshComponent&#45;&gt;AtftMeshModule -->
<g id="edge6" class="edge">
<title>SphereMeshComponent&#45;&gt;AtftMeshModule</title>
<path fill="none" stroke="black" d="M465.05,-122.24C465.05,-137.57 465.05,-157 465.05,-157 465.05,-157 548.31,-157 548.31,-157"/>
<polygon fill="black" stroke="black" points="548.31,-160.5 558.31,-157 548.31,-153.5 548.31,-160.5"/>
</g>
<!-- TorusMeshComponent -->
<g id="node7" class="node">
<title>TorusMeshComponent</title>
<polygon fill="#ffffb3" stroke="black" points="350.59,-122 205.41,-122 205.41,-86 350.59,-86 350.59,-122"/>
<text text-anchor="middle" x="278" y="-99.8" font-family="Times,serif" font-size="14.00">TorusMeshComponent</text>
</g>
<!-- TorusMeshComponent&#45;&gt;AtftMeshModule -->
<g id="edge7" class="edge">
<title>TorusMeshComponent&#45;&gt;AtftMeshModule</title>
<path fill="none" stroke="black" d="M345.42,-122.03C345.42,-139.06 345.42,-162 345.42,-162 345.42,-162 548.16,-162 548.16,-162"/>
<polygon fill="black" stroke="black" points="548.16,-165.5 558.16,-162 548.16,-158.5 548.16,-165.5"/>
</g>
<!-- VideoMeshComponent -->
<g id="node8" class="node">
<title>VideoMeshComponent</title>
<polygon fill="#ffffb3" stroke="black" points="187.15,-122 40.85,-122 40.85,-86 187.15,-86 187.15,-122"/>
<text text-anchor="middle" x="114" y="-99.8" font-family="Times,serif" font-size="14.00">VideoMeshComponent</text>
</g>
<!-- VideoMeshComponent&#45;&gt;AtftMeshModule -->
<g id="edge8" class="edge">
<title>VideoMeshComponent&#45;&gt;AtftMeshModule</title>
<path fill="none" stroke="black" d="M180.7,-122.22C180.7,-140.83 180.7,-167 180.7,-167 180.7,-167 548.22,-167 548.22,-167"/>
<polygon fill="black" stroke="black" points="548.22,-170.5 558.22,-167 548.22,-163.5 548.22,-170.5"/>
</g>
<!-- BoxMeshComponent  -->
<g id="node10" class="node">
<title>BoxMeshComponent </title>
<polygon fill="#fb8072" stroke="black" points="1347.77,-252 1208.23,-252 1208.23,-216 1347.77,-216 1347.77,-252"/>
<text text-anchor="middle" x="1278" y="-229.8" font-family="Times,serif" font-size="14.00">BoxMeshComponent </text>
</g>
<!-- AtftMeshModule&#45;&gt;BoxMeshComponent  -->
<g id="edge9" class="edge">
<title>AtftMeshModule&#45;&gt;BoxMeshComponent </title>
<path fill="none" stroke="black" stroke-dasharray="5,2" d="M671.64,-171C831.15,-171 1272.62,-171 1272.62,-171 1272.62,-171 1272.62,-205.78 1272.62,-205.78"/>
<polygon fill="black" stroke="black" points="1269.13,-205.78 1272.62,-215.78 1276.13,-205.78 1269.13,-205.78"/>
</g>
<!-- CylinderMeshComponent  -->
<g id="node11" class="node">
<title>CylinderMeshComponent </title>
<polygon fill="#fb8072" stroke="black" points="1190.43,-252 1025.57,-252 1025.57,-216 1190.43,-216 1190.43,-252"/>
<text text-anchor="middle" x="1108" y="-229.8" font-family="Times,serif" font-size="14.00">CylinderMeshComponent </text>
</g>
<!-- AtftMeshModule&#45;&gt;CylinderMeshComponent  -->
<g id="edge10" class="edge">
<title>AtftMeshModule&#45;&gt;CylinderMeshComponent </title>
<path fill="none" stroke="black" stroke-dasharray="5,2" d="M671.76,-175C795.38,-175 1077.93,-175 1077.93,-175 1077.93,-175 1077.93,-205.98 1077.93,-205.98"/>
<polygon fill="black" stroke="black" points="1074.43,-205.98 1077.93,-215.98 1081.43,-205.98 1074.43,-205.98"/>
</g>
<!-- FrameMeshComponent  -->
<g id="node12" class="node">
<title>FrameMeshComponent </title>
<polygon fill="#fb8072" stroke="black" points="1007.7,-252 856.3,-252 856.3,-216 1007.7,-216 1007.7,-252"/>
<text text-anchor="middle" x="932" y="-229.8" font-family="Times,serif" font-size="14.00">FrameMeshComponent </text>
</g>
<!-- AtftMeshModule&#45;&gt;FrameMeshComponent  -->
<g id="edge11" class="edge">
<title>AtftMeshModule&#45;&gt;FrameMeshComponent </title>
<path fill="none" stroke="black" stroke-dasharray="5,2" d="M671.63,-179C756.06,-179 905.13,-179 905.13,-179 905.13,-179 905.13,-205.99 905.13,-205.99"/>
<polygon fill="black" stroke="black" points="901.63,-205.99 905.13,-215.99 908.63,-205.99 901.63,-205.99"/>
</g>
<!-- GridMeshComponent  -->
<g id="node13" class="node">
<title>GridMeshComponent </title>
<polygon fill="#fb8072" stroke="black" points="837.59,-252 696.41,-252 696.41,-216 837.59,-216 837.59,-252"/>
<text text-anchor="middle" x="767" y="-229.8" font-family="Times,serif" font-size="14.00">GridMeshComponent </text>
</g>
<!-- AtftMeshModule&#45;&gt;GridMeshComponent  -->
<g id="edge12" class="edge">
<title>AtftMeshModule&#45;&gt;GridMeshComponent </title>
<path fill="none" stroke="black" stroke-dasharray="5,2" d="M671.66,-183C723.12,-183 791.02,-183 791.02,-183 791.02,-183 791.02,-205.88 791.02,-205.88"/>
<polygon fill="black" stroke="black" points="787.52,-205.88 791.02,-215.88 794.52,-205.88 787.52,-205.88"/>
</g>
<!-- PlaneMeshComponent  -->
<g id="node14" class="node">
<title>PlaneMeshComponent </title>
<polygon fill="#fb8072" stroke="black" points="678.54,-252 531.46,-252 531.46,-216 678.54,-216 678.54,-252"/>
<text text-anchor="middle" x="605" y="-229.8" font-family="Times,serif" font-size="14.00">PlaneMeshComponent </text>
</g>
<!-- AtftMeshModule&#45;&gt;PlaneMeshComponent  -->
<g id="edge13" class="edge">
<title>AtftMeshModule&#45;&gt;PlaneMeshComponent </title>
<path fill="none" stroke="black" stroke-dasharray="5,2" d="M615,-187.11C615,-187.11 615,-205.99 615,-205.99"/>
<polygon fill="black" stroke="black" points="611.5,-205.99 615,-215.99 618.5,-205.99 611.5,-205.99"/>
</g>
<!-- SphereMeshComponent  -->
<g id="node15" class="node">
<title>SphereMeshComponent </title>
<polygon fill="#fb8072" stroke="black" points="513.31,-252 358.69,-252 358.69,-216 513.31,-216 513.31,-252"/>
<text text-anchor="middle" x="436" y="-229.8" font-family="Times,serif" font-size="14.00">SphereMeshComponent </text>
</g>
<!-- AtftMeshModule&#45;&gt;SphereMeshComponent  -->
<g id="edge14" class="edge">
<title>AtftMeshModule&#45;&gt;SphereMeshComponent </title>
<path fill="none" stroke="black" stroke-dasharray="5,2" d="M558.17,-182C499.58,-182 416.7,-182 416.7,-182 416.7,-182 416.7,-205.81 416.7,-205.81"/>
<polygon fill="black" stroke="black" points="413.2,-205.81 416.7,-215.81 420.2,-205.81 413.2,-205.81"/>
</g>
<!-- TorusMeshComponent  -->
<g id="node16" class="node">
<title>TorusMeshComponent </title>
<polygon fill="#fb8072" stroke="black" points="340.09,-252 191.91,-252 191.91,-216 340.09,-216 340.09,-252"/>
<text text-anchor="middle" x="266" y="-229.8" font-family="Times,serif" font-size="14.00">TorusMeshComponent </text>
</g>
<!-- AtftMeshModule&#45;&gt;TorusMeshComponent  -->
<g id="edge15" class="edge">
<title>AtftMeshModule&#45;&gt;TorusMeshComponent </title>
<path fill="none" stroke="black" stroke-dasharray="5,2" d="M558.12,-177C460.84,-177 272.88,-177 272.88,-177 272.88,-177 272.88,-205.96 272.88,-205.96"/>
<polygon fill="black" stroke="black" points="269.38,-205.96 272.88,-215.96 276.38,-205.96 269.38,-205.96"/>
</g>
<!-- VideoMeshComponent  -->
<g id="node17" class="node">
<title>VideoMeshComponent </title>
<polygon fill="#fb8072" stroke="black" points="174.15,-252 23.85,-252 23.85,-216 174.15,-216 174.15,-252"/>
<text text-anchor="middle" x="99" y="-229.8" font-family="Times,serif" font-size="14.00">VideoMeshComponent </text>
</g>
<!-- AtftMeshModule&#45;&gt;VideoMeshComponent  -->
<g id="edge16" class="edge">
<title>AtftMeshModule&#45;&gt;VideoMeshComponent </title>
<path fill="none" stroke="black" stroke-dasharray="5,2" d="M558.25,-172C425.78,-172 107.38,-172 107.38,-172 107.38,-172 107.38,-205.73 107.38,-205.73"/>
<polygon fill="black" stroke="black" points="103.88,-205.73 107.38,-215.73 110.88,-205.73 103.88,-205.73"/>
</g>
</g>
</svg>
