<?xml version="1.0" encoding="UTF-8" standalone="no"?>
<!DOCTYPE svg PUBLIC "-//W3C//DTD SVG 1.1//EN"
 "http://www.w3.org/Graphics/SVG/1.1/DTD/svg11.dtd">
<!-- Generated by graphviz version 2.40.1 (20161225.0304)
 -->
<!-- Title: dependencies Pages: 1 -->
<svg width="1052pt" height="284pt"
 viewBox="0.00 0.00 1052.00 284.00" xmlns="http://www.w3.org/2000/svg" xmlns:xlink="http://www.w3.org/1999/xlink">
<g id="graph0" class="graph" transform="scale(1 1) rotate(0) translate(4 280)">
<title>dependencies</title>
<polygon fill="#ffffff" stroke="transparent" points="-4,4 -4,-280 1048,-280 1048,4 -4,4"/>
<text text-anchor="start" x="501.0091" y="-42.4" font-family="sans-serif" font-weight="bold" font-size="14.00" fill="#000000">Legend</text>
<polygon fill="#ffffb3" stroke="transparent" points="288,-10 288,-30 308,-30 308,-10 288,-10"/>
<text text-anchor="start" x="311.629" y="-15.4" font-family="sans-serif" font-size="14.00" fill="#000000"> &#160;Declarations</text>
<polygon fill="#8dd3c7" stroke="transparent" points="401,-10 401,-30 421,-30 421,-10 401,-10"/>
<text text-anchor="start" x="424.7251" y="-15.4" font-family="sans-serif" font-size="14.00" fill="#000000"> &#160;Module</text>
<polygon fill="#80b1d3" stroke="transparent" points="487,-10 487,-30 507,-30 507,-10 487,-10"/>
<text text-anchor="start" x="510.7812" y="-15.4" font-family="sans-serif" font-size="14.00" fill="#000000"> &#160;Bootstrap</text>
<polygon fill="#fdb462" stroke="transparent" points="584,-10 584,-30 604,-30 604,-10 584,-10"/>
<text text-anchor="start" x="607.6732" y="-15.4" font-family="sans-serif" font-size="14.00" fill="#000000"> &#160;Providers</text>
<polygon fill="#fb8072" stroke="transparent" points="680,-10 680,-30 700,-30 700,-10 680,-10"/>
<text text-anchor="start" x="703.7258" y="-15.4" font-family="sans-serif" font-size="14.00" fill="#000000"> &#160;Exports</text>
<g id="clust1" class="cluster">
<title>cluster_AtftMeshModule</title>
<polygon fill="none" stroke="#000000" stroke-dasharray="1,5" points="8,-70 8,-268 1036,-268 1036,-70 8,-70"/>
</g>
<g id="clust2" class="cluster">
<title>cluster_AtftMeshModule_declarations</title>
<polygon fill="none" stroke="#000000" points="28,-78 28,-130 1020,-130 1020,-78 28,-78"/>
</g>
<g id="clust10" class="cluster">
<title>cluster_AtftMeshModule_exports</title>
<polygon fill="none" stroke="#000000" points="16,-208 16,-260 1028,-260 1028,-208 16,-208"/>
</g>
<!-- BoxMeshComponent -->
<g id="node1" class="node">
<title>BoxMeshComponent</title>
<polygon fill="#ffffb3" stroke="#000000" points="1011.773,-122 876.227,-122 876.227,-86 1011.773,-86 1011.773,-122"/>
<text text-anchor="middle" x="944" y="-99.8" font-family="Times,serif" font-size="14.00" fill="#000000">BoxMeshComponent</text>
</g>
<!-- AtftMeshModule -->
<g id="node7" class="node">
<title>AtftMeshModule</title>
<polygon fill="#8dd3c7" stroke="#000000" points="500.7022,-187 497.7022,-191 476.7022,-191 473.7022,-187 387.2978,-187 387.2978,-151 500.7022,-151 500.7022,-187"/>
<text text-anchor="middle" x="444" y="-164.8" font-family="Times,serif" font-size="14.00" fill="#000000">AtftMeshModule</text>
</g>
<!-- BoxMeshComponent&#45;&gt;AtftMeshModule -->
<g id="edge1" class="edge">
<title>BoxMeshComponent&#45;&gt;AtftMeshModule</title>
<path fill="none" stroke="#000000" d="M968.0455,-122.2222C968.0455,-140.8285 968.0455,-167 968.0455,-167 968.0455,-167 511.0796,-167 511.0796,-167"/>
<polygon fill="#000000" stroke="#000000" points="511.0797,-163.5001 501.0796,-167 511.0796,-170.5001 511.0797,-163.5001"/>
</g>
<!-- CylinderMeshComponent -->
<g id="node2" class="node">
<title>CylinderMeshComponent</title>
<polygon fill="#ffffb3" stroke="#000000" points="857.9298,-122 696.0702,-122 696.0702,-86 857.9298,-86 857.9298,-122"/>
<text text-anchor="middle" x="777" y="-99.8" font-family="Times,serif" font-size="14.00" fill="#000000">CylinderMeshComponent</text>
</g>
<!-- CylinderMeshComponent&#45;&gt;AtftMeshModule -->
<g id="edge2" class="edge">
<title>CylinderMeshComponent&#45;&gt;AtftMeshModule</title>
<path fill="none" stroke="#000000" d="M804.3215,-122.0336C804.3215,-139.0597 804.3215,-162 804.3215,-162 804.3215,-162 510.6966,-162 510.6966,-162"/>
<polygon fill="#000000" stroke="#000000" points="510.6967,-158.5001 500.6966,-162 510.6966,-165.5001 510.6967,-158.5001"/>
</g>
<!-- FrameMeshComponent -->
<g id="node3" class="node">
<title>FrameMeshComponent</title>
<polygon fill="#ffffb3" stroke="#000000" points="678.1993,-122 529.8007,-122 529.8007,-86 678.1993,-86 678.1993,-122"/>
<text text-anchor="middle" x="604" y="-99.8" font-family="Times,serif" font-size="14.00" fill="#000000">FrameMeshComponent</text>
</g>
<!-- FrameMeshComponent&#45;&gt;AtftMeshModule -->
<g id="edge3" class="edge">
<title>FrameMeshComponent&#45;&gt;AtftMeshModule</title>
<path fill="none" stroke="#000000" d="M628.6999,-122.2396C628.6999,-137.5706 628.6999,-157 628.6999,-157 628.6999,-157 510.6713,-157 510.6713,-157"/>
<polygon fill="#000000" stroke="#000000" points="510.6713,-153.5001 500.6713,-157 510.6712,-160.5001 510.6713,-153.5001"/>
</g>
<!-- PlaneMeshComponent -->
<g id="node4" class="node">
<title>PlaneMeshComponent</title>
<polygon fill="#ffffb3" stroke="#000000" points="511.5393,-122 368.4607,-122 368.4607,-86 511.5393,-86 511.5393,-122"/>
<text text-anchor="middle" x="440" y="-99.8" font-family="Times,serif" font-size="14.00" fill="#000000">PlaneMeshComponent</text>
</g>
<!-- PlaneMeshComponent&#45;&gt;AtftMeshModule -->
<g id="edge4" class="edge">
<title>PlaneMeshComponent&#45;&gt;AtftMeshModule</title>
<path fill="none" stroke="#000000" d="M444,-122.1061C444,-122.1061 444,-140.991 444,-140.991"/>
<polygon fill="#000000" stroke="#000000" points="440.5001,-140.9909 444,-150.991 447.5001,-140.991 440.5001,-140.9909"/>
</g>
<!-- SphereMeshComponent -->
<g id="node5" class="node">
<title>SphereMeshComponent</title>
<polygon fill="#ffffb3" stroke="#000000" points="350.8089,-122 199.1911,-122 199.1911,-86 350.8089,-86 350.8089,-122"/>
<text text-anchor="middle" x="275" y="-99.8" font-family="Times,serif" font-size="14.00" fill="#000000">SphereMeshComponent</text>
</g>
<!-- SphereMeshComponent&#45;&gt;AtftMeshModule -->
<g id="edge5" class="edge">
<title>SphereMeshComponent&#45;&gt;AtftMeshModule</title>
<path fill="none" stroke="#000000" d="M296.7181,-122.0091C296.7181,-138.0494 296.7181,-159 296.7181,-159 296.7181,-159 377.057,-159 377.057,-159"/>
<polygon fill="#000000" stroke="#000000" points="377.057,-162.5001 387.057,-159 377.0569,-155.5001 377.057,-162.5001"/>
</g>
<!-- TorusMeshComponent -->
<g id="node6" class="node">
<title>TorusMeshComponent</title>
<polygon fill="#ffffb3" stroke="#000000" points="181.594,-122 36.406,-122 36.406,-86 181.594,-86 181.594,-122"/>
<text text-anchor="middle" x="109" y="-99.8" font-family="Times,serif" font-size="14.00" fill="#000000">TorusMeshComponent</text>
</g>
<!-- TorusMeshComponent&#45;&gt;AtftMeshModule -->
<g id="edge6" class="edge">
<title>TorusMeshComponent&#45;&gt;AtftMeshModule</title>
<path fill="none" stroke="#000000" d="M176.922,-122.2667C176.922,-140.5552 176.922,-166 176.922,-166 176.922,-166 377.3596,-166 377.3596,-166"/>
<polygon fill="#000000" stroke="#000000" points="377.3597,-169.5001 387.3596,-166 377.3596,-162.5001 377.3597,-169.5001"/>
</g>
<!-- BoxMeshComponent  -->
<g id="node8" class="node">
<title>BoxMeshComponent </title>
<polygon fill="#fb8072" stroke="#000000" points="1019.7731,-252 880.2269,-252 880.2269,-216 1019.7731,-216 1019.7731,-252"/>
<text text-anchor="middle" x="950" y="-229.8" font-family="Times,serif" font-size="14.00" fill="#000000">BoxMeshComponent </text>
</g>
<!-- AtftMeshModule&#45;&gt;BoxMeshComponent  -->
<g id="edge7" class="edge">
<title>AtftMeshModule&#45;&gt;BoxMeshComponent </title>
<path fill="none" stroke="#000000" stroke-dasharray="5,2" d="M500.9715,-172C628.1727,-172 924.2045,-172 924.2045,-172 924.2045,-172 924.2045,-205.7333 924.2045,-205.7333"/>
<polygon fill="#000000" stroke="#000000" points="920.7046,-205.7333 924.2045,-215.7333 927.7046,-205.7333 920.7046,-205.7333"/>
</g>
<!-- CylinderMeshComponent  -->
<g id="node9" class="node">
<title>CylinderMeshComponent </title>
<polygon fill="#fb8072" stroke="#000000" points="862.4292,-252 697.5708,-252 697.5708,-216 862.4292,-216 862.4292,-252"/>
<text text-anchor="middle" x="780" y="-229.8" font-family="Times,serif" font-size="14.00" fill="#000000">CylinderMeshComponent </text>
</g>
<!-- AtftMeshModule&#45;&gt;CylinderMeshComponent  -->
<g id="edge8" class="edge">
<title>AtftMeshModule&#45;&gt;CylinderMeshComponent </title>
<path fill="none" stroke="#000000" stroke-dasharray="5,2" d="M500.6531,-177C589.3383,-177 750.9285,-177 750.9285,-177 750.9285,-177 750.9285,-205.9648 750.9285,-205.9648"/>
<polygon fill="#000000" stroke="#000000" points="747.4286,-205.9648 750.9285,-215.9648 754.4286,-205.9649 747.4286,-205.9648"/>
</g>
<!-- FrameMeshComponent  -->
<g id="node10" class="node">
<title>FrameMeshComponent </title>
<polygon fill="#fb8072" stroke="#000000" points="679.6995,-252 528.3005,-252 528.3005,-216 679.6995,-216 679.6995,-252"/>
<text text-anchor="middle" x="604" y="-229.8" font-family="Times,serif" font-size="14.00" fill="#000000">FrameMeshComponent </text>
</g>
<!-- AtftMeshModule&#45;&gt;FrameMeshComponent  -->
<g id="edge9" class="edge">
<title>AtftMeshModule&#45;&gt;FrameMeshComponent </title>
<path fill="none" stroke="#000000" stroke-dasharray="5,2" d="M500.9873,-182C537.9639,-182 579.3001,-182 579.3001,-182 579.3001,-182 579.3001,-205.8129 579.3001,-205.8129"/>
<polygon fill="#000000" stroke="#000000" points="575.8002,-205.8129 579.3001,-215.8129 582.8002,-205.813 575.8002,-205.8129"/>
</g>
<!-- PlaneMeshComponent  -->
<g id="node11" class="node">
<title>PlaneMeshComponent </title>
<polygon fill="#fb8072" stroke="#000000" points="510.5386,-252 363.4614,-252 363.4614,-216 510.5386,-216 510.5386,-252"/>
<text text-anchor="middle" x="437" y="-229.8" font-family="Times,serif" font-size="14.00" fill="#000000">PlaneMeshComponent </text>
</g>
<!-- AtftMeshModule&#45;&gt;PlaneMeshComponent  -->
<g id="edge10" class="edge">
<title>AtftMeshModule&#45;&gt;PlaneMeshComponent </title>
<path fill="none" stroke="#000000" stroke-dasharray="5,2" d="M444,-187.1061C444,-187.1061 444,-205.991 444,-205.991"/>
<polygon fill="#000000" stroke="#000000" points="440.5001,-205.9909 444,-215.991 447.5001,-205.991 440.5001,-205.9909"/>
</g>
<!-- SphereMeshComponent  -->
<g id="node12" class="node">
<title>SphereMeshComponent </title>
<polygon fill="#fb8072" stroke="#000000" points="345.3087,-252 190.6913,-252 190.6913,-216 345.3087,-216 345.3087,-252"/>
<text text-anchor="middle" x="268" y="-229.8" font-family="Times,serif" font-size="14.00" fill="#000000">SphereMeshComponent </text>
</g>
<!-- AtftMeshModule&#45;&gt;SphereMeshComponent  -->
<g id="edge11" class="edge">
<title>AtftMeshModule&#45;&gt;SphereMeshComponent </title>
<path fill="none" stroke="#000000" stroke-dasharray="5,2" d="M387.3179,-180C329.4411,-180 248.0319,-180 248.0319,-180 248.0319,-180 248.0319,-205.7181 248.0319,-205.7181"/>
<polygon fill="#000000" stroke="#000000" points="244.532,-205.718 248.0319,-215.7181 251.532,-205.7181 244.532,-205.718"/>
</g>
<!-- TorusMeshComponent  -->
<g id="node13" class="node">
<title>TorusMeshComponent </title>
<polygon fill="#fb8072" stroke="#000000" points="172.0946,-252 23.9054,-252 23.9054,-216 172.0946,-216 172.0946,-252"/>
<text text-anchor="middle" x="98" y="-229.8" font-family="Times,serif" font-size="14.00" fill="#000000">TorusMeshComponent </text>
</g>
<!-- AtftMeshModule&#45;&gt;TorusMeshComponent  -->
<g id="edge12" class="edge">
<title>AtftMeshModule&#45;&gt;TorusMeshComponent </title>
<path fill="none" stroke="#000000" stroke-dasharray="5,2" d="M387.1544,-173C290.4715,-173 104.375,-173 104.375,-173 104.375,-173 104.375,-205.698 104.375,-205.698"/>
<polygon fill="#000000" stroke="#000000" points="100.8751,-205.698 104.375,-215.698 107.8751,-205.698 100.8751,-205.698"/>
</g>
</g>
</svg>
