<?xml version="1.0" encoding="UTF-8" standalone="no"?>
<!DOCTYPE svg PUBLIC "-//W3C//DTD SVG 1.1//EN"
 "http://www.w3.org/Graphics/SVG/1.1/DTD/svg11.dtd">
<!-- Generated by graphviz version 2.47.0 (20210316.0004)
 -->
<!-- Title: dependencies Pages: 1 -->
<svg width="760pt" height="284pt"
 viewBox="0.00 0.00 760.00 284.00" xmlns="http://www.w3.org/2000/svg" xmlns:xlink="http://www.w3.org/1999/xlink">
<g id="graph0" class="graph" transform="scale(1 1) rotate(0) translate(4 280)">
<title>dependencies</title>
<polygon fill="white" stroke="transparent" points="-4,4 -4,-280 756,-280 756,4 -4,4"/>
<text text-anchor="start" x="355.01" y="-42.4" font-family="Times-12" font-weight="bold" font-size="14.00">Legend</text>
<polygon fill="#ffffb3" stroke="transparent" points="142,-10 142,-30 162,-30 162,-10 142,-10"/>
<text text-anchor="start" x="165.63" y="-15.4" font-family="Times-12" font-size="14.00"> &#160;Declarations</text>
<polygon fill="#8dd3c7" stroke="transparent" points="255,-10 255,-30 275,-30 275,-10 255,-10"/>
<text text-anchor="start" x="278.73" y="-15.4" font-family="Times-12" font-size="14.00"> &#160;Module</text>
<polygon fill="#80b1d3" stroke="transparent" points="341,-10 341,-30 361,-30 361,-10 341,-10"/>
<text text-anchor="start" x="364.78" y="-15.4" font-family="Times-12" font-size="14.00"> &#160;Bootstrap</text>
<polygon fill="#fdb462" stroke="transparent" points="438,-10 438,-30 458,-30 458,-10 438,-10"/>
<text text-anchor="start" x="461.67" y="-15.4" font-family="Times-12" font-size="14.00"> &#160;Providers</text>
<polygon fill="#fb8072" stroke="transparent" points="534,-10 534,-30 554,-30 554,-10 534,-10"/>
<text text-anchor="start" x="557.73" y="-15.4" font-family="Times-12" font-size="14.00"> &#160;Exports</text>
<g id="clust1" class="cluster">
<title>cluster_AtftRaycasterModule</title>
<polygon fill="none" stroke="black" stroke-dasharray="1,5" points="8,-70 8,-268 744,-268 744,-70 8,-70"/>
</g>
<g id="clust2" class="cluster">
<title>cluster_AtftRaycasterModule_declarations</title>
<polygon fill="none" stroke="black" points="196,-78 196,-130 736,-130 736,-78 196,-78"/>
</g>
<g id="clust9" class="cluster">
<title>cluster_AtftRaycasterModule_providers</title>
<polygon fill="none" stroke="black" points="16,-78 16,-130 188,-130 188,-78 16,-78"/>
</g>
<g id="clust7" class="cluster">
<title>cluster_AtftRaycasterModule_exports</title>
<polygon fill="none" stroke="black" points="101,-208 101,-260 651,-260 651,-208 101,-208"/>
</g>
<!-- RaycasterCameraDirective -->
<g id="node1" class="node">
<title>RaycasterCameraDirective</title>
<polygon fill="#ffffb3" stroke="black" points="728.31,-122 561.69,-122 561.69,-86 728.31,-86 728.31,-122"/>
<text text-anchor="middle" x="645" y="-99.8" font-family="Times,serif" font-size="14.00">RaycasterCameraDirective</text>
</g>
<!-- AtftRaycasterModule -->
<g id="node4" class="node">
<title>AtftRaycasterModule</title>
<polygon fill="#8dd3c7" stroke="black" points="440.79,-187 437.79,-191 416.79,-191 413.79,-187 303.21,-187 303.21,-151 440.79,-151 440.79,-187"/>
<text text-anchor="middle" x="372" y="-164.8" font-family="Times,serif" font-size="14.00">AtftRaycasterModule</text>
</g>
<!-- RaycasterCameraDirective&#45;&gt;AtftRaycasterModule -->
<g id="edge1" class="edge">
<title>RaycasterCameraDirective&#45;&gt;AtftRaycasterModule</title>
<path fill="none" stroke="black" d="M602.38,-122.02C602.38,-139.37 602.38,-163 602.38,-163 602.38,-163 450.81,-163 450.81,-163"/>
<polygon fill="black" stroke="black" points="450.81,-159.5 440.81,-163 450.81,-166.5 450.81,-159.5"/>
</g>
<!-- RaycasterEnableDirective -->
<g id="node2" class="node">
<title>RaycasterEnableDirective</title>
<polygon fill="#ffffb3" stroke="black" points="544.15,-122 381.85,-122 381.85,-86 544.15,-86 544.15,-122"/>
<text text-anchor="middle" x="463" y="-99.8" font-family="Times,serif" font-size="14.00">RaycasterEnableDirective</text>
</g>
<!-- RaycasterEnableDirective&#45;&gt;AtftRaycasterModule -->
<g id="edge2" class="edge">
<title>RaycasterEnableDirective&#45;&gt;AtftRaycasterModule</title>
<path fill="none" stroke="black" d="M411.29,-122.11C411.29,-122.11 411.29,-140.99 411.29,-140.99"/>
<polygon fill="black" stroke="black" points="407.79,-140.99 411.29,-150.99 414.79,-140.99 407.79,-140.99"/>
</g>
<!-- RaycasterGroupDirective -->
<g id="node3" class="node">
<title>RaycasterGroupDirective</title>
<polygon fill="#ffffb3" stroke="black" points="363.54,-122 204.46,-122 204.46,-86 363.54,-86 363.54,-122"/>
<text text-anchor="middle" x="284" y="-99.8" font-family="Times,serif" font-size="14.00">RaycasterGroupDirective</text>
</g>
<!-- RaycasterGroupDirective&#45;&gt;AtftRaycasterModule -->
<g id="edge3" class="edge">
<title>RaycasterGroupDirective&#45;&gt;AtftRaycasterModule</title>
<path fill="none" stroke="black" d="M333.44,-122.11C333.44,-122.11 333.44,-140.99 333.44,-140.99"/>
<polygon fill="black" stroke="black" points="329.94,-140.99 333.44,-150.99 336.94,-140.99 329.94,-140.99"/>
</g>
<!-- RaycasterCameraDirective  -->
<g id="node5" class="node">
<title>RaycasterCameraDirective </title>
<polygon fill="#fb8072" stroke="black" points="643.31,-252 472.69,-252 472.69,-216 643.31,-216 643.31,-252"/>
<text text-anchor="middle" x="558" y="-229.8" font-family="Times,serif" font-size="14.00">RaycasterCameraDirective </text>
</g>
<!-- AtftRaycasterModule&#45;&gt;RaycasterCameraDirective  -->
<g id="edge4" class="edge">
<title>AtftRaycasterModule&#45;&gt;RaycasterCameraDirective </title>
<path fill="none" stroke="black" stroke-dasharray="5,2" d="M441.03,-175C474.88,-175 508.46,-175 508.46,-175 508.46,-175 508.46,-205.98 508.46,-205.98"/>
<polygon fill="black" stroke="black" points="504.96,-205.98 508.46,-215.98 511.96,-205.98 504.96,-205.98"/>
</g>
<!-- RaycasterEnableDirective  -->
<g id="node6" class="node">
<title>RaycasterEnableDirective </title>
<polygon fill="#fb8072" stroke="black" points="454.65,-252 289.35,-252 289.35,-216 454.65,-216 454.65,-252"/>
<text text-anchor="middle" x="372" y="-229.8" font-family="Times,serif" font-size="14.00">RaycasterEnableDirective </text>
</g>
<!-- AtftRaycasterModule&#45;&gt;RaycasterEnableDirective  -->
<g id="edge5" class="edge">
<title>AtftRaycasterModule&#45;&gt;RaycasterEnableDirective </title>
<path fill="none" stroke="black" stroke-dasharray="5,2" d="M372,-187.11C372,-187.11 372,-205.99 372,-205.99"/>
<polygon fill="black" stroke="black" points="368.5,-205.99 372,-215.99 375.5,-205.99 368.5,-205.99"/>
</g>
<!-- RaycasterGroupDirective  -->
<g id="node7" class="node">
<title>RaycasterGroupDirective </title>
<polygon fill="#fb8072" stroke="black" points="271.04,-252 108.96,-252 108.96,-216 271.04,-216 271.04,-252"/>
<text text-anchor="middle" x="190" y="-229.8" font-family="Times,serif" font-size="14.00">RaycasterGroupDirective </text>
</g>
<!-- AtftRaycasterModule&#45;&gt;RaycasterGroupDirective  -->
<g id="edge6" class="edge">
<title>AtftRaycasterModule&#45;&gt;RaycasterGroupDirective </title>
<path fill="none" stroke="black" stroke-dasharray="5,2" d="M302.97,-175C270.11,-175 237.88,-175 237.88,-175 237.88,-175 237.88,-205.98 237.88,-205.98"/>
<polygon fill="black" stroke="black" points="234.38,-205.98 237.88,-215.98 241.38,-205.98 234.38,-205.98"/>
</g>
<!-- RaycasterService -->
<g id="node8" class="node">
<title>RaycasterService</title>
<ellipse fill="#fdb462" stroke="black" cx="102" cy="-104" rx="78.12" ry="18"/>
<text text-anchor="middle" x="102" y="-99.8" font-family="Times,serif" font-size="14.00">RaycasterService</text>
</g>
<!-- RaycasterService&#45;&gt;AtftRaycasterModule -->
<g id="edge7" class="edge">
<title>RaycasterService&#45;&gt;AtftRaycasterModule</title>
<path fill="none" stroke="black" d="M144.4,-119.19C144.4,-136.68 144.4,-163 144.4,-163 144.4,-163 293.09,-163 293.09,-163"/>
<polygon fill="black" stroke="black" points="293.09,-166.5 303.09,-163 293.09,-159.5 293.09,-166.5"/>
</g>
</g>
</svg>
