<?xml version="1.0" encoding="UTF-8" standalone="no"?>
<!DOCTYPE svg PUBLIC "-//W3C//DTD SVG 1.1//EN"
 "http://www.w3.org/Graphics/SVG/1.1/DTD/svg11.dtd">
<!-- Generated by graphviz version 2.47.0 (20210316.0004)
 -->
<!-- Title: dependencies Pages: 1 -->
<svg width="504pt" height="284pt"
 viewBox="0.00 0.00 504.00 284.00" xmlns="http://www.w3.org/2000/svg" xmlns:xlink="http://www.w3.org/1999/xlink">
<g id="graph0" class="graph" transform="scale(1 1) rotate(0) translate(4 280)">
<title>dependencies</title>
<polygon fill="white" stroke="transparent" points="-4,4 -4,-280 500,-280 500,4 -4,4"/>
<text text-anchor="start" x="227.01" y="-42.4" font-family="Times-12" font-weight="bold" font-size="14.00">Legend</text>
<polygon fill="#ffffb3" stroke="transparent" points="14,-10 14,-30 34,-30 34,-10 14,-10"/>
<text text-anchor="start" x="37.63" y="-15.4" font-family="Times-12" font-size="14.00"> &#160;Declarations</text>
<polygon fill="#8dd3c7" stroke="transparent" points="127,-10 127,-30 147,-30 147,-10 127,-10"/>
<text text-anchor="start" x="150.73" y="-15.4" font-family="Times-12" font-size="14.00"> &#160;Module</text>
<polygon fill="#80b1d3" stroke="transparent" points="213,-10 213,-30 233,-30 233,-10 213,-10"/>
<text text-anchor="start" x="236.78" y="-15.4" font-family="Times-12" font-size="14.00"> &#160;Bootstrap</text>
<polygon fill="#fdb462" stroke="transparent" points="310,-10 310,-30 330,-30 330,-10 310,-10"/>
<text text-anchor="start" x="333.67" y="-15.4" font-family="Times-12" font-size="14.00"> &#160;Providers</text>
<polygon fill="#fb8072" stroke="transparent" points="406,-10 406,-30 426,-30 426,-10 406,-10"/>
<text text-anchor="start" x="429.73" y="-15.4" font-family="Times-12" font-size="14.00"> &#160;Exports</text>
<g id="clust1" class="cluster">
<title>cluster_UxActorModule</title>
<polygon fill="none" stroke="black" stroke-dasharray="1,5" points="24.5,-70 24.5,-268 471.5,-268 471.5,-70 24.5,-70"/>
</g>
<g id="clust2" class="cluster">
<title>cluster_UxActorModule_declarations</title>
<polygon fill="none" stroke="black" points="138.5,-78 138.5,-130 463.5,-130 463.5,-78 138.5,-78"/>
</g>
<g id="clust5" class="cluster">
<title>cluster_UxActorModule_imports</title>
<polygon fill="none" stroke="black" points="32.5,-78 32.5,-130 130.5,-130 130.5,-78 32.5,-78"/>
</g>
<g id="clust6" class="cluster">
<title>cluster_UxActorModule_exports</title>
<polygon fill="none" stroke="black" points="82.5,-208 82.5,-260 414.5,-260 414.5,-208 82.5,-208"/>
</g>
<!-- LoaderActorComponent -->
<g id="node1" class="node">
<title>LoaderActorComponent</title>
<polygon fill="#ffffb3" stroke="black" points="455.85,-122 303.15,-122 303.15,-86 455.85,-86 455.85,-122"/>
<text text-anchor="middle" x="379.5" y="-99.8" font-family="Times,serif" font-size="14.00">LoaderActorComponent</text>
</g>
<!-- UxActorModule -->
<g id="node3" class="node">
<title>UxActorModule</title>
<polygon fill="#8dd3c7" stroke="black" points="269.53,-187 266.53,-191 245.53,-191 242.53,-187 161.47,-187 161.47,-151 269.53,-151 269.53,-187"/>
<text text-anchor="middle" x="215.5" y="-164.8" font-family="Times,serif" font-size="14.00">UxActorModule</text>
</g>
<!-- LoaderActorComponent&#45;&gt;UxActorModule -->
<g id="edge1" class="edge">
<title>LoaderActorComponent&#45;&gt;UxActorModule</title>
<path fill="none" stroke="black" d="M354.88,-122.11C354.88,-141.34 354.88,-169 354.88,-169 354.88,-169 279.79,-169 279.79,-169"/>
<polygon fill="black" stroke="black" points="279.79,-165.5 269.79,-169 279.79,-172.5 279.79,-165.5"/>
</g>
<!-- TextActorComponent -->
<g id="node2" class="node">
<title>TextActorComponent</title>
<polygon fill="#ffffb3" stroke="black" points="284.86,-122 146.14,-122 146.14,-86 284.86,-86 284.86,-122"/>
<text text-anchor="middle" x="215.5" y="-99.8" font-family="Times,serif" font-size="14.00">TextActorComponent</text>
</g>
<!-- TextActorComponent&#45;&gt;UxActorModule -->
<g id="edge2" class="edge">
<title>TextActorComponent&#45;&gt;UxActorModule</title>
<path fill="none" stroke="black" d="M215.5,-122.11C215.5,-122.11 215.5,-140.99 215.5,-140.99"/>
<polygon fill="black" stroke="black" points="212,-140.99 215.5,-150.99 219,-140.99 212,-140.99"/>
</g>
<!-- LoaderActorComponent  -->
<g id="node5" class="node">
<title>LoaderActorComponent </title>
<polygon fill="#fb8072" stroke="black" points="406.85,-252 250.15,-252 250.15,-216 406.85,-216 406.85,-252"/>
<text text-anchor="middle" x="328.5" y="-229.8" font-family="Times,serif" font-size="14.00">LoaderActorComponent </text>
</g>
<!-- UxActorModule&#45;&gt;LoaderActorComponent  -->
<g id="edge4" class="edge">
<title>UxActorModule&#45;&gt;LoaderActorComponent </title>
<path fill="none" stroke="black" stroke-dasharray="5,2" d="M260.05,-187.11C260.05,-187.11 260.05,-205.99 260.05,-205.99"/>
<polygon fill="black" stroke="black" points="256.55,-205.99 260.05,-215.99 263.55,-205.99 256.55,-205.99"/>
</g>
<!-- TextActorComponent  -->
<g id="node6" class="node">
<title>TextActorComponent </title>
<polygon fill="#fb8072" stroke="black" points="232.86,-252 90.14,-252 90.14,-216 232.86,-216 232.86,-252"/>
<text text-anchor="middle" x="161.5" y="-229.8" font-family="Times,serif" font-size="14.00">TextActorComponent </text>
</g>
<!-- UxActorModule&#45;&gt;TextActorComponent  -->
<g id="edge5" class="edge">
<title>UxActorModule&#45;&gt;TextActorComponent </title>
<path fill="none" stroke="black" stroke-dasharray="5,2" d="M196.96,-187.11C196.96,-187.11 196.96,-205.99 196.96,-205.99"/>
<polygon fill="black" stroke="black" points="193.46,-205.99 196.96,-215.99 200.46,-205.99 193.46,-205.99"/>
</g>
<!-- AtftModule -->
<g id="node4" class="node">
<title>AtftModule</title>
<polygon fill="#8dd3c7" stroke="black" points="122.6,-122 119.6,-126 98.6,-126 95.6,-122 40.4,-122 40.4,-86 122.6,-86 122.6,-122"/>
<text text-anchor="middle" x="81.5" y="-99.8" font-family="Times,serif" font-size="14.00">AtftModule</text>
</g>
<!-- AtftModule&#45;&gt;UxActorModule -->
<g id="edge3" class="edge">
<title>AtftModule&#45;&gt;UxActorModule</title>
<path fill="none" stroke="black" d="M106.43,-122.11C106.43,-141.34 106.43,-169 106.43,-169 106.43,-169 151.29,-169 151.29,-169"/>
<polygon fill="black" stroke="black" points="151.29,-172.5 161.29,-169 151.29,-165.5 151.29,-172.5"/>
</g>
</g>
</svg>
