<?xml version="1.0" encoding="UTF-8" standalone="no"?>
<!DOCTYPE svg PUBLIC "-//W3C//DTD SVG 1.1//EN"
 "http://www.w3.org/Graphics/SVG/1.1/DTD/svg11.dtd">
<!-- Generated by graphviz version 2.47.0 (20210316.0004)
 -->
<!-- Title: dependencies Pages: 1 -->
<svg width="504pt" height="284pt"
 viewBox="0.00 0.00 504.00 284.00" xmlns="http://www.w3.org/2000/svg" xmlns:xlink="http://www.w3.org/1999/xlink">
<g id="graph0" class="graph" transform="scale(1 1) rotate(0) translate(4 280)">
<title>dependencies</title>
<polygon fill="white" stroke="transparent" points="-4,4 -4,-280 500,-280 500,4 -4,4"/>
<text text-anchor="start" x="227.01" y="-42.4" font-family="Times-12" font-weight="bold" font-size="14.00">Legend</text>
<polygon fill="#ffffb3" stroke="transparent" points="14,-10 14,-30 34,-30 34,-10 14,-10"/>
<text text-anchor="start" x="37.63" y="-15.4" font-family="Times-12" font-size="14.00"> &#160;Declarations</text>
<polygon fill="#8dd3c7" stroke="transparent" points="127,-10 127,-30 147,-30 147,-10 127,-10"/>
<text text-anchor="start" x="150.73" y="-15.4" font-family="Times-12" font-size="14.00"> &#160;Module</text>
<polygon fill="#80b1d3" stroke="transparent" points="213,-10 213,-30 233,-30 233,-10 213,-10"/>
<text text-anchor="start" x="236.78" y="-15.4" font-family="Times-12" font-size="14.00"> &#160;Bootstrap</text>
<polygon fill="#fdb462" stroke="transparent" points="310,-10 310,-30 330,-30 330,-10 310,-10"/>
<text text-anchor="start" x="333.67" y="-15.4" font-family="Times-12" font-size="14.00"> &#160;Providers</text>
<polygon fill="#fb8072" stroke="transparent" points="406,-10 406,-30 426,-30 426,-10 406,-10"/>
<text text-anchor="start" x="429.73" y="-15.4" font-family="Times-12" font-size="14.00"> &#160;Exports</text>
<g id="clust1" class="cluster">
<title>cluster_UxActorModule</title>
<polygon fill="none" stroke="black" stroke-dasharray="1,5" points="24.5,-70 24.5,-268 471.5,-268 471.5,-70 24.5,-70"/>
</g>
<g id="clust5" class="cluster">
<title>cluster_UxActorModule_imports</title>
<polygon fill="none" stroke="black" points="365.5,-78 365.5,-130 463.5,-130 463.5,-78 365.5,-78"/>
</g>
<g id="clust6" class="cluster">
<title>cluster_UxActorModule_exports</title>
<polygon fill="none" stroke="black" points="82.5,-208 82.5,-260 414.5,-260 414.5,-208 82.5,-208"/>
</g>
<g id="clust2" class="cluster">
<title>cluster_UxActorModule_declarations</title>
<polygon fill="none" stroke="black" points="32.5,-78 32.5,-130 357.5,-130 357.5,-78 32.5,-78"/>
</g>
<!-- LoaderActorComponent -->
<g id="node1" class="node">
<title>LoaderActorComponent</title>
<polygon fill="#ffffb3" stroke="black" points="349.85,-122 197.15,-122 197.15,-86 349.85,-86 349.85,-122"/>
<text text-anchor="middle" x="273.5" y="-99.8" font-family="Times,serif" font-size="14.00">LoaderActorComponent</text>
</g>
<!-- UxActorModule -->
<g id="node3" class="node">
<title>UxActorModule</title>
<polygon fill="#8dd3c7" stroke="black" points="327.53,-187 324.53,-191 303.53,-191 300.53,-187 219.47,-187 219.47,-151 327.53,-151 327.53,-187"/>
<text text-anchor="middle" x="273.5" y="-164.8" font-family="Times,serif" font-size="14.00">UxActorModule</text>
</g>
<!-- LoaderActorComponent&#45;&gt;UxActorModule -->
<g id="edge1" class="edge">
<title>LoaderActorComponent&#45;&gt;UxActorModule</title>
<path fill="none" stroke="black" d="M273.5,-122.11C273.5,-122.11 273.5,-140.99 273.5,-140.99"/>
<polygon fill="black" stroke="black" points="270,-140.99 273.5,-150.99 277,-140.99 270,-140.99"/>
</g>
<!-- TextActorComponent -->
<g id="node2" class="node">
<title>TextActorComponent</title>
<polygon fill="#ffffb3" stroke="black" points="178.86,-122 40.14,-122 40.14,-86 178.86,-86 178.86,-122"/>
<text text-anchor="middle" x="109.5" y="-99.8" font-family="Times,serif" font-size="14.00">TextActorComponent</text>
</g>
<!-- TextActorComponent&#45;&gt;UxActorModule -->
<g id="edge2" class="edge">
<title>TextActorComponent&#45;&gt;UxActorModule</title>
<path fill="none" stroke="black" d="M134.62,-122.11C134.62,-141.34 134.62,-169 134.62,-169 134.62,-169 209.41,-169 209.41,-169"/>
<polygon fill="black" stroke="black" points="209.41,-172.5 219.41,-169 209.41,-165.5 209.41,-172.5"/>
</g>
<!-- LoaderActorComponent  -->
<g id="node5" class="node">
<title>LoaderActorComponent </title>
<polygon fill="#fb8072" stroke="black" points="406.85,-252 250.15,-252 250.15,-216 406.85,-216 406.85,-252"/>
<text text-anchor="middle" x="328.5" y="-229.8" font-family="Times,serif" font-size="14.00">LoaderActorComponent </text>
</g>
<!-- UxActorModule&#45;&gt;LoaderActorComponent  -->
<g id="edge4" class="edge">
<title>UxActorModule&#45;&gt;LoaderActorComponent </title>
<path fill="none" stroke="black" stroke-dasharray="5,2" d="M289.05,-187.11C289.05,-187.11 289.05,-205.99 289.05,-205.99"/>
<polygon fill="black" stroke="black" points="285.55,-205.99 289.05,-215.99 292.55,-205.99 285.55,-205.99"/>
</g>
<!-- TextActorComponent  -->
<g id="node6" class="node">
<title>TextActorComponent </title>
<polygon fill="#fb8072" stroke="black" points="232.86,-252 90.14,-252 90.14,-216 232.86,-216 232.86,-252"/>
<text text-anchor="middle" x="161.5" y="-229.8" font-family="Times,serif" font-size="14.00">TextActorComponent </text>
</g>
<!-- UxActorModule&#45;&gt;TextActorComponent  -->
<g id="edge5" class="edge">
<title>UxActorModule&#45;&gt;TextActorComponent </title>
<path fill="none" stroke="black" stroke-dasharray="5,2" d="M225.96,-187.11C225.96,-187.11 225.96,-205.99 225.96,-205.99"/>
<polygon fill="black" stroke="black" points="222.46,-205.99 225.96,-215.99 229.46,-205.99 222.46,-205.99"/>
</g>
<!-- AtftModule -->
<g id="node4" class="node">
<title>AtftModule</title>
<polygon fill="#8dd3c7" stroke="black" points="455.6,-122 452.6,-126 431.6,-126 428.6,-122 373.4,-122 373.4,-86 455.6,-86 455.6,-122"/>
<text text-anchor="middle" x="414.5" y="-99.8" font-family="Times,serif" font-size="14.00">AtftModule</text>
</g>
<!-- AtftModule&#45;&gt;UxActorModule -->
<g id="edge3" class="edge">
<title>AtftModule&#45;&gt;UxActorModule</title>
<path fill="none" stroke="black" d="M390.06,-122.11C390.06,-141.34 390.06,-169 390.06,-169 390.06,-169 337.69,-169 337.69,-169"/>
<polygon fill="black" stroke="black" points="337.69,-165.5 327.69,-169 337.69,-172.5 337.69,-165.5"/>
</g>
</g>
</svg>
