<?xml version="1.0" encoding="UTF-8" standalone="no"?>
<!DOCTYPE svg PUBLIC "-//W3C//DTD SVG 1.1//EN"
 "http://www.w3.org/Graphics/SVG/1.1/DTD/svg11.dtd">
<!-- Generated by graphviz version 2.40.1 (20161225.0304)
 -->
<!-- Title: dependencies Pages: 1 -->
<svg width="504pt" height="284pt"
 viewBox="0.00 0.00 504.00 284.00" xmlns="http://www.w3.org/2000/svg" xmlns:xlink="http://www.w3.org/1999/xlink">
<g id="graph0" class="graph" transform="scale(1 1) rotate(0) translate(4 280)">
<title>dependencies</title>
<polygon fill="#ffffff" stroke="transparent" points="-4,4 -4,-280 500,-280 500,4 -4,4"/>
<text text-anchor="start" x="227.0091" y="-42.4" font-family="sans-serif" font-weight="bold" font-size="14.00" fill="#000000">Legend</text>
<polygon fill="#ffffb3" stroke="transparent" points="14,-10 14,-30 34,-30 34,-10 14,-10"/>
<text text-anchor="start" x="37.629" y="-15.4" font-family="sans-serif" font-size="14.00" fill="#000000"> &#160;Declarations</text>
<polygon fill="#8dd3c7" stroke="transparent" points="127,-10 127,-30 147,-30 147,-10 127,-10"/>
<text text-anchor="start" x="150.7251" y="-15.4" font-family="sans-serif" font-size="14.00" fill="#000000"> &#160;Module</text>
<polygon fill="#80b1d3" stroke="transparent" points="213,-10 213,-30 233,-30 233,-10 213,-10"/>
<text text-anchor="start" x="236.7812" y="-15.4" font-family="sans-serif" font-size="14.00" fill="#000000"> &#160;Bootstrap</text>
<polygon fill="#fdb462" stroke="transparent" points="310,-10 310,-30 330,-30 330,-10 310,-10"/>
<text text-anchor="start" x="333.6732" y="-15.4" font-family="sans-serif" font-size="14.00" fill="#000000"> &#160;Providers</text>
<polygon fill="#fb8072" stroke="transparent" points="406,-10 406,-30 426,-30 426,-10 406,-10"/>
<text text-anchor="start" x="429.7258" y="-15.4" font-family="sans-serif" font-size="14.00" fill="#000000"> &#160;Exports</text>
<g id="clust1" class="cluster">
<title>cluster_UxActorModule</title>
<polygon fill="none" stroke="#000000" stroke-dasharray="1,5" points="24.5,-70 24.5,-268 471.5,-268 471.5,-70 24.5,-70"/>
</g>
<g id="clust2" class="cluster">
<title>cluster_UxActorModule_declarations</title>
<polygon fill="none" stroke="#000000" points="138.5,-78 138.5,-130 463.5,-130 463.5,-78 138.5,-78"/>
</g>
<g id="clust5" class="cluster">
<title>cluster_UxActorModule_imports</title>
<polygon fill="none" stroke="#000000" points="32.5,-78 32.5,-130 130.5,-130 130.5,-78 32.5,-78"/>
</g>
<g id="clust6" class="cluster">
<title>cluster_UxActorModule_exports</title>
<polygon fill="none" stroke="#000000" points="82.5,-208 82.5,-260 414.5,-260 414.5,-208 82.5,-208"/>
</g>
<!-- LoaderActorComponent -->
<g id="node1" class="node">
<title>LoaderActorComponent</title>
<polygon fill="#ffffb3" stroke="#000000" points="455.8473,-122 303.1527,-122 303.1527,-86 455.8473,-86 455.8473,-122"/>
<text text-anchor="middle" x="379.5" y="-99.8" font-family="Times,serif" font-size="14.00" fill="#000000">LoaderActorComponent</text>
</g>
<!-- UxActorModule -->
<g id="node3" class="node">
<title>UxActorModule</title>
<polygon fill="#8dd3c7" stroke="#000000" points="269.5298,-187 266.5298,-191 245.5298,-191 242.5298,-187 161.4702,-187 161.4702,-151 269.5298,-151 269.5298,-187"/>
<text text-anchor="middle" x="215.5" y="-164.8" font-family="Times,serif" font-size="14.00" fill="#000000">UxActorModule</text>
</g>
<!-- LoaderActorComponent&#45;&gt;UxActorModule -->
<g id="edge1" class="edge">
<title>LoaderActorComponent&#45;&gt;UxActorModule</title>
<path fill="none" stroke="#000000" d="M354.875,-122.1061C354.875,-141.3391 354.875,-169 354.875,-169 354.875,-169 279.7851,-169 279.7851,-169"/>
<polygon fill="#000000" stroke="#000000" points="279.7851,-165.5001 269.7851,-169 279.7851,-172.5001 279.7851,-165.5001"/>
</g>
<!-- TextActorComponent -->
<g id="node2" class="node">
<title>TextActorComponent</title>
<polygon fill="#ffffb3" stroke="#000000" points="284.8627,-122 146.1373,-122 146.1373,-86 284.8627,-86 284.8627,-122"/>
<text text-anchor="middle" x="215.5" y="-99.8" font-family="Times,serif" font-size="14.00" fill="#000000">TextActorComponent</text>
</g>
<!-- TextActorComponent&#45;&gt;UxActorModule -->
<g id="edge2" class="edge">
<title>TextActorComponent&#45;&gt;UxActorModule</title>
<path fill="none" stroke="#000000" d="M215.5,-122.1061C215.5,-122.1061 215.5,-140.991 215.5,-140.991"/>
<polygon fill="#000000" stroke="#000000" points="212.0001,-140.9909 215.5,-150.991 219.0001,-140.991 212.0001,-140.9909"/>
</g>
<!-- LoaderActorComponent  -->
<g id="node5" class="node">
<title>LoaderActorComponent </title>
<polygon fill="#fb8072" stroke="#000000" points="406.8476,-252 250.1524,-252 250.1524,-216 406.8476,-216 406.8476,-252"/>
<text text-anchor="middle" x="328.5" y="-229.8" font-family="Times,serif" font-size="14.00" fill="#000000">LoaderActorComponent </text>
</g>
<!-- UxActorModule&#45;&gt;LoaderActorComponent  -->
<g id="edge4" class="edge">
<title>UxActorModule&#45;&gt;LoaderActorComponent </title>
<path fill="none" stroke="#000000" stroke-dasharray="5,2" d="M260.0454,-187.1061C260.0454,-187.1061 260.0454,-205.991 260.0454,-205.991"/>
<polygon fill="#000000" stroke="#000000" points="256.5455,-205.9909 260.0454,-215.991 263.5455,-205.991 256.5455,-205.9909"/>
</g>
<!-- TextActorComponent  -->
<g id="node6" class="node">
<title>TextActorComponent </title>
<polygon fill="#fb8072" stroke="#000000" points="232.8631,-252 90.1369,-252 90.1369,-216 232.8631,-216 232.8631,-252"/>
<text text-anchor="middle" x="161.5" y="-229.8" font-family="Times,serif" font-size="14.00" fill="#000000">TextActorComponent </text>
</g>
<!-- UxActorModule&#45;&gt;TextActorComponent  -->
<g id="edge5" class="edge">
<title>UxActorModule&#45;&gt;TextActorComponent </title>
<path fill="none" stroke="#000000" stroke-dasharray="5,2" d="M196.9585,-187.1061C196.9585,-187.1061 196.9585,-205.991 196.9585,-205.991"/>
<polygon fill="#000000" stroke="#000000" points="193.4585,-205.9909 196.9585,-215.991 200.4585,-205.991 193.4585,-205.9909"/>
</g>
<!-- AtftModule -->
<g id="node4" class="node">
<title>AtftModule</title>
<polygon fill="#8dd3c7" stroke="#000000" points="122.5983,-122 119.5983,-126 98.5983,-126 95.5983,-122 40.4017,-122 40.4017,-86 122.5983,-86 122.5983,-122"/>
<text text-anchor="middle" x="81.5" y="-99.8" font-family="Times,serif" font-size="14.00" fill="#000000">AtftModule</text>
</g>
<!-- AtftModule&#45;&gt;UxActorModule -->
<g id="edge3" class="edge">
<title>AtftModule&#45;&gt;UxActorModule</title>
<path fill="none" stroke="#000000" d="M106.4339,-122.1061C106.4339,-141.3391 106.4339,-169 106.4339,-169 106.4339,-169 151.2865,-169 151.2865,-169"/>
<polygon fill="#000000" stroke="#000000" points="151.2865,-172.5001 161.2865,-169 151.2864,-165.5001 151.2865,-172.5001"/>
</g>
</g>
</svg>
