<?xml version="1.0" encoding="UTF-8" standalone="no"?>
<!DOCTYPE svg PUBLIC "-//W3C//DTD SVG 1.1//EN"
 "http://www.w3.org/Graphics/SVG/1.1/DTD/svg11.dtd">
<!-- Generated by graphviz version 2.47.3 (20210619.1520)
 -->
<!-- Title: dependencies Pages: 1 -->
<svg width="471pt" height="247pt"
 viewBox="0.00 0.00 471.00 246.80" xmlns="http://www.w3.org/2000/svg" xmlns:xlink="http://www.w3.org/1999/xlink">
<g id="graph0" class="graph" transform="scale(1 1) rotate(0) translate(4 242.8)">
<title>dependencies</title>
<polygon fill="white" stroke="transparent" points="-4,4 -4,-242.8 467,-242.8 467,4 -4,4"/>
<text text-anchor="middle" x="231.5" y="-8.2" font-family="sans-serif" font-size="14.00">dependencies</text>
<g id="clust1" class="cluster">
<title>cluster_UxActorModule</title>
<polygon fill="none" stroke="black" stroke-dasharray="1,5" points="8,-32.8 8,-230.8 455,-230.8 455,-32.8 8,-32.8"/>
</g>
<g id="clust6" class="cluster">
<title>cluster_UxActorModule_exports</title>
<polygon fill="none" stroke="black" points="66,-170.8 66,-222.8 398,-222.8 398,-170.8 66,-170.8"/>
</g>
<g id="clust2" class="cluster">
<title>cluster_UxActorModule_declarations</title>
<polygon fill="none" stroke="black" points="122,-40.8 122,-92.8 447,-92.8 447,-40.8 122,-40.8"/>
</g>
<g id="clust5" class="cluster">
<title>cluster_UxActorModule_imports</title>
<polygon fill="none" stroke="black" points="16,-40.8 16,-92.8 114,-92.8 114,-40.8 16,-40.8"/>
</g>
<!-- LoaderActorComponent -->
<g id="node1" class="node">
<title>LoaderActorComponent</title>
<polygon fill="#ffffb3" stroke="black" points="439.35,-84.8 286.65,-84.8 286.65,-48.8 439.35,-48.8 439.35,-84.8"/>
<text text-anchor="middle" x="363" y="-62.6" font-family="Times,serif" font-size="14.00">LoaderActorComponent</text>
</g>
<!-- UxActorModule -->
<g id="node3" class="node">
<title>UxActorModule</title>
<polygon fill="#8dd3c7" stroke="black" points="253.03,-149.8 250.03,-153.8 229.03,-153.8 226.03,-149.8 144.97,-149.8 144.97,-113.8 253.03,-113.8 253.03,-149.8"/>
<text text-anchor="middle" x="199" y="-127.6" font-family="Times,serif" font-size="14.00">UxActorModule</text>
</g>
<!-- LoaderActorComponent&#45;&gt;UxActorModule -->
<g id="edge1" class="edge">
<title>LoaderActorComponent&#45;&gt;UxActorModule</title>
<path fill="none" stroke="black" d="M338.38,-84.91C338.38,-104.14 338.38,-131.8 338.38,-131.8 338.38,-131.8 263.29,-131.8 263.29,-131.8"/>
<polygon fill="black" stroke="black" points="263.29,-128.3 253.29,-131.8 263.29,-135.3 263.29,-128.3"/>
</g>
<!-- TextActorComponent -->
<g id="node2" class="node">
<title>TextActorComponent</title>
<polygon fill="#ffffb3" stroke="black" points="268.36,-84.8 129.64,-84.8 129.64,-48.8 268.36,-48.8 268.36,-84.8"/>
<text text-anchor="middle" x="199" y="-62.6" font-family="Times,serif" font-size="14.00">TextActorComponent</text>
</g>
<!-- TextActorComponent&#45;&gt;UxActorModule -->
<g id="edge2" class="edge">
<title>TextActorComponent&#45;&gt;UxActorModule</title>
<path fill="none" stroke="black" d="M199,-84.91C199,-84.91 199,-103.79 199,-103.79"/>
<polygon fill="black" stroke="black" points="195.5,-103.79 199,-113.79 202.5,-103.79 195.5,-103.79"/>
</g>
<!-- LoaderActorComponent  -->
<g id="node5" class="node">
<title>LoaderActorComponent </title>
<polygon fill="#fb8072" stroke="black" points="390.35,-214.8 233.65,-214.8 233.65,-178.8 390.35,-178.8 390.35,-214.8"/>
<text text-anchor="middle" x="312" y="-192.6" font-family="Times,serif" font-size="14.00">LoaderActorComponent </text>
</g>
<!-- UxActorModule&#45;&gt;LoaderActorComponent  -->
<g id="edge4" class="edge">
<title>UxActorModule&#45;&gt;LoaderActorComponent </title>
<path fill="none" stroke="black" stroke-dasharray="5,2" d="M243.55,-149.91C243.55,-149.91 243.55,-168.79 243.55,-168.79"/>
<polygon fill="black" stroke="black" points="240.05,-168.79 243.55,-178.79 247.05,-168.79 240.05,-168.79"/>
</g>
<!-- TextActorComponent  -->
<g id="node6" class="node">
<title>TextActorComponent </title>
<polygon fill="#fb8072" stroke="black" points="216.36,-214.8 73.64,-214.8 73.64,-178.8 216.36,-178.8 216.36,-214.8"/>
<text text-anchor="middle" x="145" y="-192.6" font-family="Times,serif" font-size="14.00">TextActorComponent </text>
</g>
<!-- UxActorModule&#45;&gt;TextActorComponent  -->
<g id="edge5" class="edge">
<title>UxActorModule&#45;&gt;TextActorComponent </title>
<path fill="none" stroke="black" stroke-dasharray="5,2" d="M180.46,-149.91C180.46,-149.91 180.46,-168.79 180.46,-168.79"/>
<polygon fill="black" stroke="black" points="176.96,-168.79 180.46,-178.79 183.96,-168.79 176.96,-168.79"/>
</g>
<!-- AtftModule -->
<g id="node4" class="node">
<title>AtftModule</title>
<polygon fill="#8dd3c7" stroke="black" points="106.1,-84.8 103.1,-88.8 82.1,-88.8 79.1,-84.8 23.9,-84.8 23.9,-48.8 106.1,-48.8 106.1,-84.8"/>
<text text-anchor="middle" x="65" y="-62.6" font-family="Times,serif" font-size="14.00">AtftModule</text>
</g>
<!-- AtftModule&#45;&gt;UxActorModule -->
<g id="edge3" class="edge">
<title>AtftModule&#45;&gt;UxActorModule</title>
<path fill="none" stroke="black" d="M89.93,-84.91C89.93,-104.14 89.93,-131.8 89.93,-131.8 89.93,-131.8 134.79,-131.8 134.79,-131.8"/>
<polygon fill="black" stroke="black" points="134.79,-135.3 144.79,-131.8 134.79,-128.3 134.79,-135.3"/>
</g>
</g>
</svg>
