<?xml version="1.0" encoding="UTF-8" standalone="no"?>
<!DOCTYPE svg PUBLIC "-//W3C//DTD SVG 1.1//EN"
 "http://www.w3.org/Graphics/SVG/1.1/DTD/svg11.dtd">
<!-- Generated by graphviz version 2.40.1 (20161225.0304)
 -->
<!-- Title: dependencies Pages: 1 -->
<svg width="504pt" height="211pt"
 viewBox="0.00 0.00 504.00 211.00" xmlns="http://www.w3.org/2000/svg" xmlns:xlink="http://www.w3.org/1999/xlink">
<g id="graph0" class="graph" transform="scale(1 1) rotate(0) translate(4 207)">
<title>dependencies</title>
<polygon fill="#ffffff" stroke="transparent" points="-4,4 -4,-207 500,-207 500,4 -4,4"/>
<text text-anchor="start" x="227.0091" y="-42.4" font-family="sans-serif" font-weight="bold" font-size="14.00" fill="#000000">Legend</text>
<polygon fill="#ffffb3" stroke="transparent" points="14,-10 14,-30 34,-30 34,-10 14,-10"/>
<text text-anchor="start" x="37.629" y="-15.4" font-family="sans-serif" font-size="14.00" fill="#000000"> &#160;Declarations</text>
<polygon fill="#8dd3c7" stroke="transparent" points="127,-10 127,-30 147,-30 147,-10 127,-10"/>
<text text-anchor="start" x="150.7251" y="-15.4" font-family="sans-serif" font-size="14.00" fill="#000000"> &#160;Module</text>
<polygon fill="#80b1d3" stroke="transparent" points="213,-10 213,-30 233,-30 233,-10 213,-10"/>
<text text-anchor="start" x="236.7812" y="-15.4" font-family="sans-serif" font-size="14.00" fill="#000000"> &#160;Bootstrap</text>
<polygon fill="#fdb462" stroke="transparent" points="310,-10 310,-30 330,-30 330,-10 310,-10"/>
<text text-anchor="start" x="333.6732" y="-15.4" font-family="sans-serif" font-size="14.00" fill="#000000"> &#160;Providers</text>
<polygon fill="#fb8072" stroke="transparent" points="406,-10 406,-30 426,-30 426,-10 406,-10"/>
<text text-anchor="start" x="429.7258" y="-15.4" font-family="sans-serif" font-size="14.00" fill="#000000"> &#160;Exports</text>
<g id="clust1" class="cluster">
<title>cluster_StorybookModule</title>
<polygon fill="none" stroke="#000000" stroke-dasharray="1,5" points="37.5,-70 37.5,-195 458.5,-195 458.5,-70 37.5,-70"/>
</g>
<g id="clust2" class="cluster">
<title>cluster_StorybookModule_declarations</title>
<polygon fill="none" stroke="#000000" points="45.5,-78 45.5,-130 450.5,-130 450.5,-78 45.5,-78"/>
</g>
<!-- StorybookContainerComponent -->
<g id="node1" class="node">
<title>StorybookContainerComponent</title>
<polygon fill="#ffffb3" stroke="#000000" points="442.8738,-122 248.1262,-122 248.1262,-86 442.8738,-86 442.8738,-122"/>
<text text-anchor="middle" x="345.5" y="-99.8" font-family="Times,serif" font-size="14.00" fill="#000000">StorybookContainerComponent</text>
</g>
<!-- StorybookModule -->
<g id="node3" class="node">
<title>StorybookModule</title>
<polygon fill="#8dd3c7" stroke="#000000" points="302.3837,-187 299.3837,-191 278.3837,-191 275.3837,-187 184.6163,-187 184.6163,-151 302.3837,-151 302.3837,-187"/>
<text text-anchor="middle" x="243.5" y="-164.8" font-family="Times,serif" font-size="14.00" fill="#000000">StorybookModule</text>
</g>
<!-- StorybookContainerComponent&#45;&gt;StorybookModule -->
<g id="edge1" class="edge">
<title>StorybookContainerComponent&#45;&gt;StorybookModule</title>
<path fill="none" stroke="#000000" d="M275.2525,-122.1061C275.2525,-122.1061 275.2525,-140.991 275.2525,-140.991"/>
<polygon fill="#000000" stroke="#000000" points="271.7525,-140.9909 275.2525,-150.991 278.7525,-140.991 271.7525,-140.9909"/>
</g>
<!-- StorybookEmptyComponent -->
<g id="node2" class="node">
<title>StorybookEmptyComponent</title>
<polygon fill="#ffffb3" stroke="#000000" points="230,-122 53,-122 53,-86 230,-86 230,-122"/>
<text text-anchor="middle" x="141.5" y="-99.8" font-family="Times,serif" font-size="14.00" fill="#000000">StorybookEmptyComponent</text>
</g>
<!-- StorybookEmptyComponent&#45;&gt;StorybookModule -->
<g id="edge2" class="edge">
<title>StorybookEmptyComponent&#45;&gt;StorybookModule</title>
<path fill="none" stroke="#000000" d="M207.2791,-122.1061C207.2791,-122.1061 207.2791,-140.991 207.2791,-140.991"/>
<polygon fill="#000000" stroke="#000000" points="203.7792,-140.9909 207.2791,-150.991 210.7792,-140.991 203.7792,-140.9909"/>
</g>
</g>
</svg>
