<?xml version="1.0" encoding="UTF-8" standalone="no"?>
<!DOCTYPE svg PUBLIC "-//W3C//DTD SVG 1.1//EN"
 "http://www.w3.org/Graphics/SVG/1.1/DTD/svg11.dtd">
<!-- Generated by graphviz version 2.40.1 (20161225.0304)
 -->
<!-- Title: dependencies Pages: 1 -->
<svg width="504pt" height="284pt"
 viewBox="0.00 0.00 504.00 284.00" xmlns="http://www.w3.org/2000/svg" xmlns:xlink="http://www.w3.org/1999/xlink">
<g id="graph0" class="graph" transform="scale(1 1) rotate(0) translate(4 280)">
<title>dependencies</title>
<polygon fill="#ffffff" stroke="transparent" points="-4,4 -4,-280 500,-280 500,4 -4,4"/>
<text text-anchor="start" x="227.0091" y="-42.4" font-family="sans-serif" font-weight="bold" font-size="14.00" fill="#000000">Legend</text>
<polygon fill="#ffffb3" stroke="transparent" points="14,-10 14,-30 34,-30 34,-10 14,-10"/>
<text text-anchor="start" x="37.629" y="-15.4" font-family="sans-serif" font-size="14.00" fill="#000000"> &#160;Declarations</text>
<polygon fill="#8dd3c7" stroke="transparent" points="127,-10 127,-30 147,-30 147,-10 127,-10"/>
<text text-anchor="start" x="150.7251" y="-15.4" font-family="sans-serif" font-size="14.00" fill="#000000"> &#160;Module</text>
<polygon fill="#80b1d3" stroke="transparent" points="213,-10 213,-30 233,-30 233,-10 213,-10"/>
<text text-anchor="start" x="236.7812" y="-15.4" font-family="sans-serif" font-size="14.00" fill="#000000"> &#160;Bootstrap</text>
<polygon fill="#fdb462" stroke="transparent" points="310,-10 310,-30 330,-30 330,-10 310,-10"/>
<text text-anchor="start" x="333.6732" y="-15.4" font-family="sans-serif" font-size="14.00" fill="#000000"> &#160;Providers</text>
<polygon fill="#fb8072" stroke="transparent" points="406,-10 406,-30 426,-30 426,-10 406,-10"/>
<text text-anchor="start" x="429.7258" y="-15.4" font-family="sans-serif" font-size="14.00" fill="#000000"> &#160;Exports</text>
<g id="clust1" class="cluster">
<title>cluster_AtftRendererModule</title>
<polygon fill="none" stroke="#000000" stroke-dasharray="1,5" points="56,-70 56,-268 440,-268 440,-70 56,-70"/>
</g>
<g id="clust2" class="cluster">
<title>cluster_AtftRendererModule_declarations</title>
<polygon fill="none" stroke="#000000" points="238,-78 238,-130 432,-130 432,-78 238,-78"/>
</g>
<g id="clust5" class="cluster">
<title>cluster_AtftRendererModule_exports</title>
<polygon fill="none" stroke="#000000" points="149,-208 149,-260 347,-260 347,-208 149,-208"/>
</g>
<g id="clust7" class="cluster">
<title>cluster_AtftRendererModule_providers</title>
<polygon fill="none" stroke="#000000" points="64,-78 64,-130 230,-130 230,-78 64,-78"/>
</g>
<!-- WebGLRendererComponent -->
<g id="node1" class="node">
<title>WebGLRendererComponent</title>
<polygon fill="#ffffb3" stroke="#000000" points="423.7226,-122 246.2774,-122 246.2774,-86 423.7226,-86 423.7226,-122"/>
<text text-anchor="middle" x="335" y="-99.8" font-family="Times,serif" font-size="14.00" fill="#000000">WebGLRendererComponent</text>
</g>
<!-- AtftRendererModule -->
<g id="node2" class="node">
<title>AtftRendererModule</title>
<polygon fill="#8dd3c7" stroke="#000000" points="314.9004,-187 311.9004,-191 290.9004,-191 287.9004,-187 181.0996,-187 181.0996,-151 314.9004,-151 314.9004,-187"/>
<text text-anchor="middle" x="248" y="-164.8" font-family="Times,serif" font-size="14.00" fill="#000000">AtftRendererModule</text>
</g>
<!-- WebGLRendererComponent&#45;&gt;AtftRendererModule -->
<g id="edge1" class="edge">
<title>WebGLRendererComponent&#45;&gt;AtftRendererModule</title>
<path fill="none" stroke="#000000" d="M280.4194,-122.1061C280.4194,-122.1061 280.4194,-140.991 280.4194,-140.991"/>
<polygon fill="#000000" stroke="#000000" points="276.9194,-140.9909 280.4194,-150.991 283.9194,-140.991 276.9194,-140.9909"/>
</g>
<!-- WebGLRendererComponent  -->
<g id="node3" class="node">
<title>WebGLRendererComponent </title>
<polygon fill="#fb8072" stroke="#000000" points="338.7225,-252 157.2775,-252 157.2775,-216 338.7225,-216 338.7225,-252"/>
<text text-anchor="middle" x="248" y="-229.8" font-family="Times,serif" font-size="14.00" fill="#000000">WebGLRendererComponent </text>
</g>
<!-- AtftRendererModule&#45;&gt;WebGLRendererComponent  -->
<g id="edge2" class="edge">
<title>AtftRendererModule&#45;&gt;WebGLRendererComponent </title>
<path fill="none" stroke="#000000" stroke-dasharray="5,2" d="M248,-187.1061C248,-187.1061 248,-205.991 248,-205.991"/>
<polygon fill="#000000" stroke="#000000" points="244.5001,-205.9909 248,-215.991 251.5001,-205.991 244.5001,-205.9909"/>
</g>
<!-- RendererService -->
<g id="node4" class="node">
<title>RendererService</title>
<ellipse fill="#fdb462" stroke="#000000" cx="147" cy="-104" rx="75.2578" ry="18"/>
<text text-anchor="middle" x="147" y="-99.8" font-family="Times,serif" font-size="14.00" fill="#000000">RendererService</text>
</g>
<!-- RendererService&#45;&gt;AtftRendererModule -->
<g id="edge3" class="edge">
<title>RendererService&#45;&gt;AtftRendererModule</title>
<path fill="none" stroke="#000000" d="M201.8394,-116.5327C201.8394,-116.5327 201.8394,-140.8507 201.8394,-140.8507"/>
<polygon fill="#000000" stroke="#000000" points="198.3395,-140.8506 201.8394,-150.8507 205.3395,-140.8507 198.3395,-140.8506"/>
</g>
</g>
</svg>
