<?xml version="1.0" encoding="UTF-8" standalone="no"?>
<!DOCTYPE svg PUBLIC "-//W3C//DTD SVG 1.1//EN"
 "http://www.w3.org/Graphics/SVG/1.1/DTD/svg11.dtd">
<!-- Generated by graphviz version 2.47.0 (20210316.0004)
 -->
<!-- Title: dependencies Pages: 1 -->
<svg width="555pt" height="284pt"
 viewBox="0.00 0.00 555.00 284.00" xmlns="http://www.w3.org/2000/svg" xmlns:xlink="http://www.w3.org/1999/xlink">
<g id="graph0" class="graph" transform="scale(1 1) rotate(0) translate(4 280)">
<title>dependencies</title>
<polygon fill="white" stroke="transparent" points="-4,4 -4,-280 551,-280 551,4 -4,4"/>
<text text-anchor="start" x="252.51" y="-42.4" font-family="Times-12" font-weight="bold" font-size="14.00">Legend</text>
<polygon fill="#ffffb3" stroke="transparent" points="39.5,-10 39.5,-30 59.5,-30 59.5,-10 39.5,-10"/>
<text text-anchor="start" x="63.13" y="-15.4" font-family="Times-12" font-size="14.00"> &#160;Declarations</text>
<polygon fill="#8dd3c7" stroke="transparent" points="152.5,-10 152.5,-30 172.5,-30 172.5,-10 152.5,-10"/>
<text text-anchor="start" x="176.23" y="-15.4" font-family="Times-12" font-size="14.00"> &#160;Module</text>
<polygon fill="#80b1d3" stroke="transparent" points="238.5,-10 238.5,-30 258.5,-30 258.5,-10 238.5,-10"/>
<text text-anchor="start" x="262.28" y="-15.4" font-family="Times-12" font-size="14.00"> &#160;Bootstrap</text>
<polygon fill="#fdb462" stroke="transparent" points="335.5,-10 335.5,-30 355.5,-30 355.5,-10 335.5,-10"/>
<text text-anchor="start" x="359.17" y="-15.4" font-family="Times-12" font-size="14.00"> &#160;Providers</text>
<polygon fill="#fb8072" stroke="transparent" points="431.5,-10 431.5,-30 451.5,-30 451.5,-10 431.5,-10"/>
<text text-anchor="start" x="455.23" y="-15.4" font-family="Times-12" font-size="14.00"> &#160;Exports</text>
<g id="clust1" class="cluster">
<title>cluster_AtftRendererModule</title>
<polygon fill="none" stroke="black" stroke-dasharray="1,5" points="8,-70 8,-268 539,-268 539,-70 8,-70"/>
</g>
<g id="clust2" class="cluster">
<title>cluster_AtftRendererModule_declarations</title>
<polygon fill="none" stroke="black" points="341,-78 341,-130 531,-130 531,-78 341,-78"/>
</g>
<g id="clust5" class="cluster">
<title>cluster_AtftRendererModule_exports</title>
<polygon fill="none" stroke="black" points="162,-208 162,-260 356,-260 356,-208 162,-208"/>
</g>
<g id="clust7" class="cluster">
<title>cluster_AtftRendererModule_providers</title>
<polygon fill="none" stroke="black" points="16,-78 16,-130 333,-130 333,-78 16,-78"/>
</g>
<!-- RendererCanvasComponent -->
<g id="node1" class="node">
<title>RendererCanvasComponent</title>
<polygon fill="#ffffb3" stroke="black" points="522.84,-122 349.16,-122 349.16,-86 522.84,-86 522.84,-122"/>
<text text-anchor="middle" x="436" y="-99.8" font-family="Times,serif" font-size="14.00">RendererCanvasComponent</text>
</g>
<!-- AtftRendererModule -->
<g id="node2" class="node">
<title>AtftRendererModule</title>
<polygon fill="#8dd3c7" stroke="black" points="325.9,-187 322.9,-191 301.9,-191 298.9,-187 192.1,-187 192.1,-151 325.9,-151 325.9,-187"/>
<text text-anchor="middle" x="259" y="-164.8" font-family="Times,serif" font-size="14.00">AtftRendererModule</text>
</g>
<!-- RendererCanvasComponent&#45;&gt;AtftRendererModule -->
<g id="edge1" class="edge">
<title>RendererCanvasComponent&#45;&gt;AtftRendererModule</title>
<path fill="none" stroke="black" d="M436,-122.11C436,-141.34 436,-169 436,-169 436,-169 335.92,-169 335.92,-169"/>
<polygon fill="black" stroke="black" points="335.92,-165.5 325.92,-169 335.92,-172.5 335.92,-165.5"/>
</g>
<!-- RendererCanvasComponent  -->
<g id="node3" class="node">
<title>RendererCanvasComponent </title>
<polygon fill="#fb8072" stroke="black" points="347.84,-252 170.16,-252 170.16,-216 347.84,-216 347.84,-252"/>
<text text-anchor="middle" x="259" y="-229.8" font-family="Times,serif" font-size="14.00">RendererCanvasComponent </text>
</g>
<!-- AtftRendererModule&#45;&gt;RendererCanvasComponent  -->
<g id="edge2" class="edge">
<title>AtftRendererModule&#45;&gt;RendererCanvasComponent </title>
<path fill="none" stroke="black" stroke-dasharray="5,2" d="M259,-187.11C259,-187.11 259,-205.99 259,-205.99"/>
<polygon fill="black" stroke="black" points="255.5,-205.99 259,-215.99 262.5,-205.99 255.5,-205.99"/>
</g>
<!-- BloomService -->
<g id="node4" class="node">
<title>BloomService</title>
<ellipse fill="#fdb462" stroke="black" cx="259" cy="-104" rx="66.07" ry="18"/>
<text text-anchor="middle" x="259" y="-99.8" font-family="Times,serif" font-size="14.00">BloomService</text>
</g>
<!-- BloomService&#45;&gt;AtftRendererModule -->
<g id="edge3" class="edge">
<title>BloomService&#45;&gt;AtftRendererModule</title>
<path fill="none" stroke="black" d="M259,-122.11C259,-122.11 259,-140.99 259,-140.99"/>
<polygon fill="black" stroke="black" points="255.5,-140.99 259,-150.99 262.5,-140.99 255.5,-140.99"/>
</g>
<!-- RendererService -->
<g id="node5" class="node">
<title>RendererService</title>
<ellipse fill="#fdb462" stroke="black" cx="99" cy="-104" rx="75.26" ry="18"/>
<text text-anchor="middle" x="99" y="-99.8" font-family="Times,serif" font-size="14.00">RendererService</text>
</g>
<!-- RendererService&#45;&gt;AtftRendererModule -->
<g id="edge4" class="edge">
<title>RendererService&#45;&gt;AtftRendererModule</title>
<path fill="none" stroke="black" d="M96.97,-122.11C96.97,-141.34 96.97,-169 96.97,-169 96.97,-169 182.16,-169 182.16,-169"/>
<polygon fill="black" stroke="black" points="182.16,-172.5 192.16,-169 182.16,-165.5 182.16,-172.5"/>
</g>
</g>
</svg>
