<?xml version="1.0" encoding="UTF-8" standalone="no"?>
<!DOCTYPE svg PUBLIC "-//W3C//DTD SVG 1.1//EN"
 "http://www.w3.org/Graphics/SVG/1.1/DTD/svg11.dtd">
<!-- Generated by graphviz version 2.47.3 (20210619.1520)
 -->
<!-- Title: dependencies Pages: 1 -->
<svg width="555pt" height="247pt"
 viewBox="0.00 0.00 555.00 246.80" xmlns="http://www.w3.org/2000/svg" xmlns:xlink="http://www.w3.org/1999/xlink">
<g id="graph0" class="graph" transform="scale(1 1) rotate(0) translate(4 242.8)">
<title>dependencies</title>
<polygon fill="white" stroke="transparent" points="-4,4 -4,-242.8 551,-242.8 551,4 -4,4"/>
<text text-anchor="middle" x="273.5" y="-8.2" font-family="sans-serif" font-size="14.00">dependencies</text>
<g id="clust1" class="cluster">
<title>cluster_AtftRendererModule</title>
<polygon fill="none" stroke="black" stroke-dasharray="1,5" points="8,-32.8 8,-230.8 539,-230.8 539,-32.8 8,-32.8"/>
</g>
<g id="clust7" class="cluster">
<title>cluster_AtftRendererModule_providers</title>
<polygon fill="none" stroke="black" points="214,-40.8 214,-92.8 531,-92.8 531,-40.8 214,-40.8"/>
</g>
<g id="clust2" class="cluster">
<title>cluster_AtftRendererModule_declarations</title>
<polygon fill="none" stroke="black" points="16,-40.8 16,-92.8 206,-92.8 206,-40.8 16,-40.8"/>
</g>
<g id="clust5" class="cluster">
<title>cluster_AtftRendererModule_exports</title>
<polygon fill="none" stroke="black" points="200,-170.8 200,-222.8 394,-222.8 394,-170.8 200,-170.8"/>
</g>
<!-- RendererCanvasComponent -->
<g id="node1" class="node">
<title>RendererCanvasComponent</title>
<polygon fill="#ffffb3" stroke="black" points="197.84,-84.8 24.16,-84.8 24.16,-48.8 197.84,-48.8 197.84,-84.8"/>
<text text-anchor="middle" x="111" y="-62.6" font-family="Times,serif" font-size="14.00">RendererCanvasComponent</text>
</g>
<!-- AtftRendererModule -->
<g id="node2" class="node">
<title>AtftRendererModule</title>
<polygon fill="#8dd3c7" stroke="black" points="363.9,-149.8 360.9,-153.8 339.9,-153.8 336.9,-149.8 230.1,-149.8 230.1,-113.8 363.9,-113.8 363.9,-149.8"/>
<text text-anchor="middle" x="297" y="-127.6" font-family="Times,serif" font-size="14.00">AtftRendererModule</text>
</g>
<!-- RendererCanvasComponent&#45;&gt;AtftRendererModule -->
<g id="edge1" class="edge">
<title>RendererCanvasComponent&#45;&gt;AtftRendererModule</title>
<path fill="none" stroke="black" d="M111,-84.91C111,-104.14 111,-131.8 111,-131.8 111,-131.8 220.11,-131.8 220.11,-131.8"/>
<polygon fill="black" stroke="black" points="220.11,-135.3 230.11,-131.8 220.11,-128.3 220.11,-135.3"/>
</g>
<!-- RendererCanvasComponent  -->
<g id="node3" class="node">
<title>RendererCanvasComponent </title>
<polygon fill="#fb8072" stroke="black" points="385.84,-214.8 208.16,-214.8 208.16,-178.8 385.84,-178.8 385.84,-214.8"/>
<text text-anchor="middle" x="297" y="-192.6" font-family="Times,serif" font-size="14.00">RendererCanvasComponent </text>
</g>
<!-- AtftRendererModule&#45;&gt;RendererCanvasComponent  -->
<g id="edge2" class="edge">
<title>AtftRendererModule&#45;&gt;RendererCanvasComponent </title>
<path fill="none" stroke="black" stroke-dasharray="5,2" d="M297,-149.91C297,-149.91 297,-168.79 297,-168.79"/>
<polygon fill="black" stroke="black" points="293.5,-168.79 297,-178.79 300.5,-168.79 293.5,-168.79"/>
</g>
<!-- BloomService -->
<g id="node4" class="node">
<title>BloomService</title>
<ellipse fill="#fdb462" stroke="black" cx="457" cy="-66.8" rx="66.07" ry="18"/>
<text text-anchor="middle" x="457" y="-62.6" font-family="Times,serif" font-size="14.00">BloomService</text>
</g>
<!-- BloomService&#45;&gt;AtftRendererModule -->
<g id="edge3" class="edge">
<title>BloomService&#45;&gt;AtftRendererModule</title>
<path fill="none" stroke="black" d="M457,-84.91C457,-104.14 457,-131.8 457,-131.8 457,-131.8 373.93,-131.8 373.93,-131.8"/>
<polygon fill="black" stroke="black" points="373.93,-128.3 363.93,-131.8 373.93,-135.3 373.93,-128.3"/>
</g>
<!-- RendererService -->
<g id="node5" class="node">
<title>RendererService</title>
<ellipse fill="#fdb462" stroke="black" cx="297" cy="-66.8" rx="75.26" ry="18"/>
<text text-anchor="middle" x="297" y="-62.6" font-family="Times,serif" font-size="14.00">RendererService</text>
</g>
<!-- RendererService&#45;&gt;AtftRendererModule -->
<g id="edge4" class="edge">
<title>RendererService&#45;&gt;AtftRendererModule</title>
<path fill="none" stroke="black" d="M297,-84.91C297,-84.91 297,-103.79 297,-103.79"/>
<polygon fill="black" stroke="black" points="293.5,-103.79 297,-113.79 300.5,-103.79 293.5,-103.79"/>
</g>
</g>
</svg>
