<?xml version="1.0" encoding="UTF-8" standalone="no"?>
<!DOCTYPE svg PUBLIC "-//W3C//DTD SVG 1.1//EN"
 "http://www.w3.org/Graphics/SVG/1.1/DTD/svg11.dtd">
<!-- Generated by graphviz version 2.40.1 (20161225.0304)
 -->
<!-- Title: dependencies Pages: 1 -->
<svg width="504pt" height="284pt"
 viewBox="0.00 0.00 504.00 284.00" xmlns="http://www.w3.org/2000/svg" xmlns:xlink="http://www.w3.org/1999/xlink">
<g id="graph0" class="graph" transform="scale(1 1) rotate(0) translate(4 280)">
<title>dependencies</title>
<polygon fill="#ffffff" stroke="transparent" points="-4,4 -4,-280 500,-280 500,4 -4,4"/>
<text text-anchor="start" x="227.0091" y="-42.4" font-family="sans-serif" font-weight="bold" font-size="14.00" fill="#000000">Legend</text>
<polygon fill="#ffffb3" stroke="transparent" points="14,-10 14,-30 34,-30 34,-10 14,-10"/>
<text text-anchor="start" x="37.629" y="-15.4" font-family="sans-serif" font-size="14.00" fill="#000000"> &#160;Declarations</text>
<polygon fill="#8dd3c7" stroke="transparent" points="127,-10 127,-30 147,-30 147,-10 127,-10"/>
<text text-anchor="start" x="150.7251" y="-15.4" font-family="sans-serif" font-size="14.00" fill="#000000"> &#160;Module</text>
<polygon fill="#80b1d3" stroke="transparent" points="213,-10 213,-30 233,-30 233,-10 213,-10"/>
<text text-anchor="start" x="236.7812" y="-15.4" font-family="sans-serif" font-size="14.00" fill="#000000"> &#160;Bootstrap</text>
<polygon fill="#fdb462" stroke="transparent" points="310,-10 310,-30 330,-30 330,-10 310,-10"/>
<text text-anchor="start" x="333.6732" y="-15.4" font-family="sans-serif" font-size="14.00" fill="#000000"> &#160;Providers</text>
<polygon fill="#fb8072" stroke="transparent" points="406,-10 406,-30 426,-30 426,-10 406,-10"/>
<text text-anchor="start" x="429.7258" y="-15.4" font-family="sans-serif" font-size="14.00" fill="#000000"> &#160;Exports</text>
<g id="clust1" class="cluster">
<title>cluster_AtftRendererModule</title>
<polygon fill="none" stroke="#000000" stroke-dasharray="1,5" points="58,-70 58,-268 438,-268 438,-70 58,-70"/>
</g>
<g id="clust2" class="cluster">
<title>cluster_AtftRendererModule_declarations</title>
<polygon fill="none" stroke="#000000" points="240,-78 240,-130 430,-130 430,-78 240,-78"/>
</g>
<g id="clust5" class="cluster">
<title>cluster_AtftRendererModule_exports</title>
<polygon fill="none" stroke="#000000" points="151,-208 151,-260 345,-260 345,-208 151,-208"/>
</g>
<g id="clust7" class="cluster">
<title>cluster_AtftRendererModule_providers</title>
<polygon fill="none" stroke="#000000" points="66,-78 66,-130 232,-130 232,-78 66,-78"/>
</g>
<!-- RendererCanvasComponent -->
<g id="node1" class="node">
<title>RendererCanvasComponent</title>
<polygon fill="#ffffb3" stroke="#000000" points="421.8445,-122 248.1555,-122 248.1555,-86 421.8445,-86 421.8445,-122"/>
<text text-anchor="middle" x="335" y="-99.8" font-family="Times,serif" font-size="14.00" fill="#000000">RendererCanvasComponent</text>
</g>
<!-- AtftRendererModule -->
<g id="node2" class="node">
<title>AtftRendererModule</title>
<polygon fill="#8dd3c7" stroke="#000000" points="314.9004,-187 311.9004,-191 290.9004,-191 287.9004,-187 181.0996,-187 181.0996,-151 314.9004,-151 314.9004,-187"/>
<text text-anchor="middle" x="248" y="-164.8" font-family="Times,serif" font-size="14.00" fill="#000000">AtftRendererModule</text>
</g>
<!-- RendererCanvasComponent&#45;&gt;AtftRendererModule -->
<g id="edge1" class="edge">
<title>RendererCanvasComponent&#45;&gt;AtftRendererModule</title>
<path fill="none" stroke="#000000" d="M281.3889,-122.1061C281.3889,-122.1061 281.3889,-140.991 281.3889,-140.991"/>
<polygon fill="#000000" stroke="#000000" points="277.8889,-140.9909 281.3889,-150.991 284.8889,-140.991 277.8889,-140.9909"/>
</g>
<!-- RendererCanvasComponent  -->
<g id="node3" class="node">
<title>RendererCanvasComponent </title>
<polygon fill="#fb8072" stroke="#000000" points="336.8447,-252 159.1553,-252 159.1553,-216 336.8447,-216 336.8447,-252"/>
<text text-anchor="middle" x="248" y="-229.8" font-family="Times,serif" font-size="14.00" fill="#000000">RendererCanvasComponent </text>
</g>
<!-- AtftRendererModule&#45;&gt;RendererCanvasComponent  -->
<g id="edge2" class="edge">
<title>AtftRendererModule&#45;&gt;RendererCanvasComponent </title>
<path fill="none" stroke="#000000" stroke-dasharray="5,2" d="M248,-187.1061C248,-187.1061 248,-205.991 248,-205.991"/>
<polygon fill="#000000" stroke="#000000" points="244.5001,-205.9909 248,-215.991 251.5001,-205.991 244.5001,-205.9909"/>
</g>
<!-- RendererService -->
<g id="node4" class="node">
<title>RendererService</title>
<ellipse fill="#fdb462" stroke="#000000" cx="149" cy="-104" rx="75.2578" ry="18"/>
<text text-anchor="middle" x="149" y="-99.8" font-family="Times,serif" font-size="14.00" fill="#000000">RendererService</text>
</g>
<!-- RendererService&#45;&gt;AtftRendererModule -->
<g id="edge3" class="edge">
<title>RendererService&#45;&gt;AtftRendererModule</title>
<path fill="none" stroke="#000000" d="M202.8394,-116.8419C202.8394,-116.8419 202.8394,-140.5231 202.8394,-140.5231"/>
<polygon fill="#000000" stroke="#000000" points="199.3395,-140.523 202.8394,-150.5231 206.3395,-140.5231 199.3395,-140.523"/>
</g>
</g>
</svg>
