<?xml version="1.0" encoding="UTF-8" standalone="no"?>
<!DOCTYPE svg PUBLIC "-//W3C//DTD SVG 1.1//EN"
 "http://www.w3.org/Graphics/SVG/1.1/DTD/svg11.dtd">
<!-- Generated by graphviz version 2.40.1 (20161225.0304)
 -->
<!-- Title: dependencies Pages: 1 -->
<svg width="540pt" height="284pt"
 viewBox="0.00 0.00 540.00 284.00" xmlns="http://www.w3.org/2000/svg" xmlns:xlink="http://www.w3.org/1999/xlink">
<g id="graph0" class="graph" transform="scale(1 1) rotate(0) translate(4 280)">
<title>dependencies</title>
<polygon fill="#ffffff" stroke="transparent" points="-4,4 -4,-280 536,-280 536,4 -4,4"/>
<text text-anchor="start" x="245.0091" y="-42.4" font-family="sans-serif" font-weight="bold" font-size="14.00" fill="#000000">Legend</text>
<polygon fill="#ffffb3" stroke="transparent" points="32,-10 32,-30 52,-30 52,-10 32,-10"/>
<text text-anchor="start" x="55.629" y="-15.4" font-family="sans-serif" font-size="14.00" fill="#000000"> &#160;Declarations</text>
<polygon fill="#8dd3c7" stroke="transparent" points="145,-10 145,-30 165,-30 165,-10 145,-10"/>
<text text-anchor="start" x="168.7251" y="-15.4" font-family="sans-serif" font-size="14.00" fill="#000000"> &#160;Module</text>
<polygon fill="#80b1d3" stroke="transparent" points="231,-10 231,-30 251,-30 251,-10 231,-10"/>
<text text-anchor="start" x="254.7812" y="-15.4" font-family="sans-serif" font-size="14.00" fill="#000000"> &#160;Bootstrap</text>
<polygon fill="#fdb462" stroke="transparent" points="328,-10 328,-30 348,-30 348,-10 328,-10"/>
<text text-anchor="start" x="351.6732" y="-15.4" font-family="sans-serif" font-size="14.00" fill="#000000"> &#160;Providers</text>
<polygon fill="#fb8072" stroke="transparent" points="424,-10 424,-30 444,-30 444,-10 424,-10"/>
<text text-anchor="start" x="447.7258" y="-15.4" font-family="sans-serif" font-size="14.00" fill="#000000"> &#160;Exports</text>
<g id="clust1" class="cluster">
<title>cluster_AtftRendererModule</title>
<polygon fill="none" stroke="#000000" stroke-dasharray="1,5" points="8,-70 8,-268 524,-268 524,-70 8,-70"/>
</g>
<g id="clust2" class="cluster">
<title>cluster_AtftRendererModule_declarations</title>
<polygon fill="none" stroke="#000000" points="326,-78 326,-130 516,-130 516,-78 326,-78"/>
</g>
<g id="clust5" class="cluster">
<title>cluster_AtftRendererModule_exports</title>
<polygon fill="none" stroke="#000000" points="138,-208 138,-260 332,-260 332,-208 138,-208"/>
</g>
<g id="clust7" class="cluster">
<title>cluster_AtftRendererModule_providers</title>
<polygon fill="none" stroke="#000000" points="16,-78 16,-130 318,-130 318,-78 16,-78"/>
</g>
<!-- RendererCanvasComponent -->
<g id="node1" class="node">
<title>RendererCanvasComponent</title>
<polygon fill="#ffffb3" stroke="#000000" points="507.8445,-122 334.1555,-122 334.1555,-86 507.8445,-86 507.8445,-122"/>
<text text-anchor="middle" x="421" y="-99.8" font-family="Times,serif" font-size="14.00" fill="#000000">RendererCanvasComponent</text>
</g>
<!-- AtftRendererModule -->
<g id="node2" class="node">
<title>AtftRendererModule</title>
<polygon fill="#8dd3c7" stroke="#000000" points="301.9004,-187 298.9004,-191 277.9004,-191 274.9004,-187 168.0996,-187 168.0996,-151 301.9004,-151 301.9004,-187"/>
<text text-anchor="middle" x="235" y="-164.8" font-family="Times,serif" font-size="14.00" fill="#000000">AtftRendererModule</text>
</g>
<!-- RendererCanvasComponent&#45;&gt;AtftRendererModule -->
<g id="edge1" class="edge">
<title>RendererCanvasComponent&#45;&gt;AtftRendererModule</title>
<path fill="none" stroke="#000000" d="M421,-122.1061C421,-141.3391 421,-169 421,-169 421,-169 311.8875,-169 311.8875,-169"/>
<polygon fill="#000000" stroke="#000000" points="311.8875,-165.5001 301.8875,-169 311.8875,-172.5001 311.8875,-165.5001"/>
</g>
<!-- RendererCanvasComponent  -->
<g id="node3" class="node">
<title>RendererCanvasComponent </title>
<polygon fill="#fb8072" stroke="#000000" points="323.8447,-252 146.1553,-252 146.1553,-216 323.8447,-216 323.8447,-252"/>
<text text-anchor="middle" x="235" y="-229.8" font-family="Times,serif" font-size="14.00" fill="#000000">RendererCanvasComponent </text>
</g>
<!-- AtftRendererModule&#45;&gt;RendererCanvasComponent  -->
<g id="edge2" class="edge">
<title>AtftRendererModule&#45;&gt;RendererCanvasComponent </title>
<path fill="none" stroke="#000000" stroke-dasharray="5,2" d="M235,-187.1061C235,-187.1061 235,-205.991 235,-205.991"/>
<polygon fill="#000000" stroke="#000000" points="231.5001,-205.9909 235,-215.991 238.5001,-205.991 231.5001,-205.9909"/>
</g>
<!-- RendererService -->
<g id="node4" class="node">
<title>RendererService</title>
<ellipse fill="#fdb462" stroke="#000000" cx="235" cy="-104" rx="75.2578" ry="18"/>
<text text-anchor="middle" x="235" y="-99.8" font-family="Times,serif" font-size="14.00" fill="#000000">RendererService</text>
</g>
<!-- RendererService&#45;&gt;AtftRendererModule -->
<g id="edge3" class="edge">
<title>RendererService&#45;&gt;AtftRendererModule</title>
<path fill="none" stroke="#000000" d="M235,-122.1061C235,-122.1061 235,-140.991 235,-140.991"/>
<polygon fill="#000000" stroke="#000000" points="231.5001,-140.9909 235,-150.991 238.5001,-140.991 231.5001,-140.9909"/>
</g>
<!-- StatsService -->
<g id="node5" class="node">
<title>StatsService</title>
<ellipse fill="#fdb462" stroke="#000000" cx="83" cy="-104" rx="58.5405" ry="18"/>
<text text-anchor="middle" x="83" y="-99.8" font-family="Times,serif" font-size="14.00" fill="#000000">StatsService</text>
</g>
<!-- StatsService&#45;&gt;AtftRendererModule -->
<g id="edge4" class="edge">
<title>StatsService&#45;&gt;AtftRendererModule</title>
<path fill="none" stroke="#000000" d="M83,-122.1061C83,-141.3391 83,-169 83,-169 83,-169 157.8881,-169 157.8881,-169"/>
<polygon fill="#000000" stroke="#000000" points="157.8882,-172.5001 167.8881,-169 157.8881,-165.5001 157.8882,-172.5001"/>
</g>
</g>
</svg>
