<?xml version="1.0" encoding="UTF-8" standalone="no"?>
<!DOCTYPE svg PUBLIC "-//W3C//DTD SVG 1.1//EN"
 "http://www.w3.org/Graphics/SVG/1.1/DTD/svg11.dtd">
<!-- Generated by graphviz version 2.40.1 (20161225.0304)
 -->
<!-- Title: dependencies Pages: 1 -->
<svg width="504pt" height="284pt"
 viewBox="0.00 0.00 504.00 284.00" xmlns="http://www.w3.org/2000/svg" xmlns:xlink="http://www.w3.org/1999/xlink">
<g id="graph0" class="graph" transform="scale(1 1) rotate(0) translate(4 280)">
<title>dependencies</title>
<polygon fill="#ffffff" stroke="transparent" points="-4,4 -4,-280 500,-280 500,4 -4,4"/>
<text text-anchor="start" x="227.0091" y="-42.4" font-family="sans-serif" font-weight="bold" font-size="14.00" fill="#000000">Legend</text>
<polygon fill="#ffffb3" stroke="transparent" points="14,-10 14,-30 34,-30 34,-10 14,-10"/>
<text text-anchor="start" x="37.629" y="-15.4" font-family="sans-serif" font-size="14.00" fill="#000000"> &#160;Declarations</text>
<polygon fill="#8dd3c7" stroke="transparent" points="127,-10 127,-30 147,-30 147,-10 127,-10"/>
<text text-anchor="start" x="150.7251" y="-15.4" font-family="sans-serif" font-size="14.00" fill="#000000"> &#160;Module</text>
<polygon fill="#80b1d3" stroke="transparent" points="213,-10 213,-30 233,-30 233,-10 213,-10"/>
<text text-anchor="start" x="236.7812" y="-15.4" font-family="sans-serif" font-size="14.00" fill="#000000"> &#160;Bootstrap</text>
<polygon fill="#fdb462" stroke="transparent" points="310,-10 310,-30 330,-30 330,-10 310,-10"/>
<text text-anchor="start" x="333.6732" y="-15.4" font-family="sans-serif" font-size="14.00" fill="#000000"> &#160;Providers</text>
<polygon fill="#fb8072" stroke="transparent" points="406,-10 406,-30 426,-30 426,-10 406,-10"/>
<text text-anchor="start" x="429.7258" y="-15.4" font-family="sans-serif" font-size="14.00" fill="#000000"> &#160;Exports</text>
<g id="clust1" class="cluster">
<title>cluster_AtftConnectorModule</title>
<polygon fill="none" stroke="#000000" stroke-dasharray="1,5" points="39,-70 39,-268 457,-268 457,-70 39,-70"/>
</g>
<g id="clust2" class="cluster">
<title>cluster_AtftConnectorModule_declarations</title>
<polygon fill="none" stroke="#000000" points="50,-78 50,-130 446,-130 446,-78 50,-78"/>
</g>
<g id="clust6" class="cluster">
<title>cluster_AtftConnectorModule_exports</title>
<polygon fill="none" stroke="#000000" points="47,-208 47,-260 449,-260 449,-208 47,-208"/>
</g>
<!-- LineConnectorComponent -->
<g id="node1" class="node">
<title>LineConnectorComponent</title>
<polygon fill="#ffffb3" stroke="#000000" points="437.8075,-122 272.1925,-122 272.1925,-86 437.8075,-86 437.8075,-122"/>
<text text-anchor="middle" x="355" y="-99.8" font-family="Times,serif" font-size="14.00" fill="#000000">LineConnectorComponent</text>
</g>
<!-- AtftConnectorModule -->
<g id="node3" class="node">
<title>AtftConnectorModule</title>
<polygon fill="#8dd3c7" stroke="#000000" points="227.4158,-187 224.4158,-191 203.4158,-191 200.4158,-187 86.5842,-187 86.5842,-151 227.4158,-151 227.4158,-187"/>
<text text-anchor="middle" x="157" y="-164.8" font-family="Times,serif" font-size="14.00" fill="#000000">AtftConnectorModule</text>
</g>
<!-- LineConnectorComponent&#45;&gt;AtftConnectorModule -->
<g id="edge1" class="edge">
<title>LineConnectorComponent&#45;&gt;AtftConnectorModule</title>
<path fill="none" stroke="#000000" d="M382.6345,-122.0225C382.6345,-139.3734 382.6345,-163 382.6345,-163 382.6345,-163 237.4641,-163 237.4641,-163"/>
<polygon fill="#000000" stroke="#000000" points="237.4641,-159.5001 227.4641,-163 237.464,-166.5001 237.4641,-159.5001"/>
</g>
<!-- MeshLineConnectorComponent -->
<g id="node2" class="node">
<title>MeshLineConnectorComponent</title>
<polygon fill="#ffffb3" stroke="#000000" points="254.4114,-122 57.5886,-122 57.5886,-86 254.4114,-86 254.4114,-122"/>
<text text-anchor="middle" x="156" y="-99.8" font-family="Times,serif" font-size="14.00" fill="#000000">MeshLineConnectorComponent</text>
</g>
<!-- MeshLineConnectorComponent&#45;&gt;AtftConnectorModule -->
<g id="edge2" class="edge">
<title>MeshLineConnectorComponent&#45;&gt;AtftConnectorModule</title>
<path fill="none" stroke="#000000" d="M157,-122.1061C157,-122.1061 157,-140.991 157,-140.991"/>
<polygon fill="#000000" stroke="#000000" points="153.5001,-140.9909 157,-150.991 160.5001,-140.991 153.5001,-140.9909"/>
</g>
<!-- LineConnectorComponent  -->
<g id="node4" class="node">
<title>LineConnectorComponent </title>
<polygon fill="#fb8072" stroke="#000000" points="441.3073,-252 272.6927,-252 272.6927,-216 441.3073,-216 441.3073,-252"/>
<text text-anchor="middle" x="357" y="-229.8" font-family="Times,serif" font-size="14.00" fill="#000000">LineConnectorComponent </text>
</g>
<!-- AtftConnectorModule&#45;&gt;LineConnectorComponent  -->
<g id="edge3" class="edge">
<title>AtftConnectorModule&#45;&gt;LineConnectorComponent </title>
<path fill="none" stroke="#000000" stroke-dasharray="5,2" d="M227.3809,-175C274.3788,-175 327.6155,-175 327.6155,-175 327.6155,-175 327.6155,-205.9775 327.6155,-205.9775"/>
<polygon fill="#000000" stroke="#000000" points="324.1156,-205.9774 327.6155,-215.9775 331.1156,-205.9775 324.1156,-205.9774"/>
</g>
<!-- MeshLineConnectorComponent  -->
<g id="node5" class="node">
<title>MeshLineConnectorComponent </title>
<polygon fill="#fb8072" stroke="#000000" points="254.911,-252 55.089,-252 55.089,-216 254.911,-216 254.911,-252"/>
<text text-anchor="middle" x="155" y="-229.8" font-family="Times,serif" font-size="14.00" fill="#000000">MeshLineConnectorComponent </text>
</g>
<!-- AtftConnectorModule&#45;&gt;MeshLineConnectorComponent  -->
<g id="edge4" class="edge">
<title>AtftConnectorModule&#45;&gt;MeshLineConnectorComponent </title>
<path fill="none" stroke="#000000" stroke-dasharray="5,2" d="M157,-187.1061C157,-187.1061 157,-205.991 157,-205.991"/>
<polygon fill="#000000" stroke="#000000" points="153.5001,-205.9909 157,-215.991 160.5001,-205.991 153.5001,-205.9909"/>
</g>
</g>
</svg>
