<?xml version="1.0" encoding="UTF-8" standalone="no"?>
<!DOCTYPE svg PUBLIC "-//W3C//DTD SVG 1.1//EN"
 "http://www.w3.org/Graphics/SVG/1.1/DTD/svg11.dtd">
<!-- Generated by graphviz version 2.47.3 (20210619.1520)
 -->
<!-- Title: dependencies Pages: 1 -->
<svg width="198pt" height="247pt"
 viewBox="0.00 0.00 198.00 246.80" xmlns="http://www.w3.org/2000/svg" xmlns:xlink="http://www.w3.org/1999/xlink">
<g id="graph0" class="graph" transform="scale(1 1) rotate(0) translate(4 242.8)">
<title>dependencies</title>
<polygon fill="white" stroke="transparent" points="-4,4 -4,-242.8 194,-242.8 194,4 -4,4"/>
<text text-anchor="middle" x="95" y="-8.2" font-family="sans-serif" font-size="14.00">dependencies</text>
<g id="clust1" class="cluster">
<title>cluster_AtftTextModule</title>
<polygon fill="none" stroke="black" stroke-dasharray="1,5" points="8,-32.8 8,-230.8 182,-230.8 182,-32.8 8,-32.8"/>
</g>
<g id="clust2" class="cluster">
<title>cluster_AtftTextModule_declarations</title>
<polygon fill="none" stroke="black" points="18,-40.8 18,-92.8 172,-92.8 172,-40.8 18,-40.8"/>
</g>
<g id="clust5" class="cluster">
<title>cluster_AtftTextModule_exports</title>
<polygon fill="none" stroke="black" points="16,-170.8 16,-222.8 174,-222.8 174,-170.8 16,-170.8"/>
</g>
<!-- TextMeshComponent -->
<g id="node1" class="node">
<title>TextMeshComponent</title>
<polygon fill="#ffffb3" stroke="black" points="164.09,-84.8 25.91,-84.8 25.91,-48.8 164.09,-48.8 164.09,-84.8"/>
<text text-anchor="middle" x="95" y="-62.6" font-family="Times,serif" font-size="14.00">TextMeshComponent</text>
</g>
<!-- AtftTextModule -->
<g id="node2" class="node">
<title>AtftTextModule</title>
<polygon fill="#8dd3c7" stroke="black" points="148.76,-149.8 145.76,-153.8 124.76,-153.8 121.76,-149.8 41.24,-149.8 41.24,-113.8 148.76,-113.8 148.76,-149.8"/>
<text text-anchor="middle" x="95" y="-127.6" font-family="Times,serif" font-size="14.00">AtftTextModule</text>
</g>
<!-- TextMeshComponent&#45;&gt;AtftTextModule -->
<g id="edge1" class="edge">
<title>TextMeshComponent&#45;&gt;AtftTextModule</title>
<path fill="none" stroke="black" d="M95,-84.91C95,-84.91 95,-103.79 95,-103.79"/>
<polygon fill="black" stroke="black" points="91.5,-103.79 95,-113.79 98.5,-103.79 91.5,-103.79"/>
</g>
<!-- TextMeshComponent  -->
<g id="node3" class="node">
<title>TextMeshComponent </title>
<polygon fill="#fb8072" stroke="black" points="165.59,-214.8 24.41,-214.8 24.41,-178.8 165.59,-178.8 165.59,-214.8"/>
<text text-anchor="middle" x="95" y="-192.6" font-family="Times,serif" font-size="14.00">TextMeshComponent </text>
</g>
<!-- AtftTextModule&#45;&gt;TextMeshComponent  -->
<g id="edge2" class="edge">
<title>AtftTextModule&#45;&gt;TextMeshComponent </title>
<path fill="none" stroke="black" stroke-dasharray="5,2" d="M95,-149.91C95,-149.91 95,-168.79 95,-168.79"/>
<polygon fill="black" stroke="black" points="91.5,-168.79 95,-178.79 98.5,-168.79 91.5,-168.79"/>
</g>
</g>
</svg>
