<?xml version="1.0" encoding="UTF-8" standalone="no"?>
<!DOCTYPE svg PUBLIC "-//W3C//DTD SVG 1.1//EN"
 "http://www.w3.org/Graphics/SVG/1.1/DTD/svg11.dtd">
<!-- Generated by graphviz version 2.40.1 (20161225.0304)
 -->
<!-- Title: dependencies Pages: 1 -->
<svg width="597pt" height="284pt"
 viewBox="0.00 0.00 597.00 284.00" xmlns="http://www.w3.org/2000/svg" xmlns:xlink="http://www.w3.org/1999/xlink">
<g id="graph0" class="graph" transform="scale(1 1) rotate(0) translate(4 280)">
<title>dependencies</title>
<polygon fill="#ffffff" stroke="transparent" points="-4,4 -4,-280 593,-280 593,4 -4,4"/>
<text text-anchor="start" x="273.5091" y="-42.4" font-family="sans-serif" font-weight="bold" font-size="14.00" fill="#000000">Legend</text>
<polygon fill="#ffffb3" stroke="transparent" points="60.5,-10 60.5,-30 80.5,-30 80.5,-10 60.5,-10"/>
<text text-anchor="start" x="84.129" y="-15.4" font-family="sans-serif" font-size="14.00" fill="#000000"> &#160;Declarations</text>
<polygon fill="#8dd3c7" stroke="transparent" points="173.5,-10 173.5,-30 193.5,-30 193.5,-10 173.5,-10"/>
<text text-anchor="start" x="197.2251" y="-15.4" font-family="sans-serif" font-size="14.00" fill="#000000"> &#160;Module</text>
<polygon fill="#80b1d3" stroke="transparent" points="259.5,-10 259.5,-30 279.5,-30 279.5,-10 259.5,-10"/>
<text text-anchor="start" x="283.2812" y="-15.4" font-family="sans-serif" font-size="14.00" fill="#000000"> &#160;Bootstrap</text>
<polygon fill="#fdb462" stroke="transparent" points="356.5,-10 356.5,-30 376.5,-30 376.5,-10 356.5,-10"/>
<text text-anchor="start" x="380.1732" y="-15.4" font-family="sans-serif" font-size="14.00" fill="#000000"> &#160;Providers</text>
<polygon fill="#fb8072" stroke="transparent" points="452.5,-10 452.5,-30 472.5,-30 472.5,-10 452.5,-10"/>
<text text-anchor="start" x="476.2258" y="-15.4" font-family="sans-serif" font-size="14.00" fill="#000000"> &#160;Exports</text>
<g id="clust1" class="cluster">
<title>cluster_AtftLightModule</title>
<polygon fill="none" stroke="#000000" stroke-dasharray="1,5" points="8,-70 8,-268 581,-268 581,-70 8,-70"/>
</g>
<g id="clust2" class="cluster">
<title>cluster_AtftLightModule_declarations</title>
<polygon fill="none" stroke="#000000" points="21,-78 21,-130 568,-130 568,-78 21,-78"/>
</g>
<g id="clust7" class="cluster">
<title>cluster_AtftLightModule_exports</title>
<polygon fill="none" stroke="#000000" points="16,-208 16,-260 573,-260 573,-208 16,-208"/>
</g>
<!-- DirectionalLightComponent -->
<g id="node1" class="node">
<title>DirectionalLightComponent</title>
<polygon fill="#ffffb3" stroke="#000000" points="560.14,-122 385.86,-122 385.86,-86 560.14,-86 560.14,-122"/>
<text text-anchor="middle" x="473" y="-99.8" font-family="Times,serif" font-size="14.00" fill="#000000">DirectionalLightComponent</text>
</g>
<!-- AtftLightModule -->
<g id="node4" class="node">
<title>AtftLightModule</title>
<polygon fill="#8dd3c7" stroke="#000000" points="334.4328,-187 331.4328,-191 310.4328,-191 307.4328,-187 221.5672,-187 221.5672,-151 334.4328,-151 334.4328,-187"/>
<text text-anchor="middle" x="278" y="-164.8" font-family="Times,serif" font-size="14.00" fill="#000000">AtftLightModule</text>
</g>
<!-- DirectionalLightComponent&#45;&gt;AtftLightModule -->
<g id="edge1" class="edge">
<title>DirectionalLightComponent&#45;&gt;AtftLightModule</title>
<path fill="none" stroke="#000000" d="M502.5233,-122.0225C502.5233,-139.3734 502.5233,-163 502.5233,-163 502.5233,-163 344.3669,-163 344.3669,-163"/>
<polygon fill="#000000" stroke="#000000" points="344.3669,-159.5001 334.3669,-163 344.3669,-166.5001 344.3669,-159.5001"/>
</g>
<!-- HemisphereLightComponent -->
<g id="node2" class="node">
<title>HemisphereLightComponent</title>
<polygon fill="#ffffb3" stroke="#000000" points="367.8033,-122 188.1967,-122 188.1967,-86 367.8033,-86 367.8033,-122"/>
<text text-anchor="middle" x="278" y="-99.8" font-family="Times,serif" font-size="14.00" fill="#000000">HemisphereLightComponent</text>
</g>
<!-- HemisphereLightComponent&#45;&gt;AtftLightModule -->
<g id="edge2" class="edge">
<title>HemisphereLightComponent&#45;&gt;AtftLightModule</title>
<path fill="none" stroke="#000000" d="M278,-122.1061C278,-122.1061 278,-140.991 278,-140.991"/>
<polygon fill="#000000" stroke="#000000" points="274.5001,-140.9909 278,-150.991 281.5001,-140.991 274.5001,-140.9909"/>
</g>
<!-- PointLightComponent -->
<g id="node3" class="node">
<title>PointLightComponent</title>
<polygon fill="#ffffb3" stroke="#000000" points="170.7302,-122 29.2698,-122 29.2698,-86 170.7302,-86 170.7302,-122"/>
<text text-anchor="middle" x="100" y="-99.8" font-family="Times,serif" font-size="14.00" fill="#000000">PointLightComponent</text>
</g>
<!-- PointLightComponent&#45;&gt;AtftLightModule -->
<g id="edge3" class="edge">
<title>PointLightComponent&#45;&gt;AtftLightModule</title>
<path fill="none" stroke="#000000" d="M122.0383,-122.0225C122.0383,-139.3734 122.0383,-163 122.0383,-163 122.0383,-163 211.6943,-163 211.6943,-163"/>
<polygon fill="#000000" stroke="#000000" points="211.6943,-166.5001 221.6943,-163 211.6942,-159.5001 211.6943,-166.5001"/>
</g>
<!-- DirectionalLightComponent  -->
<g id="node5" class="node">
<title>DirectionalLightComponent </title>
<polygon fill="#fb8072" stroke="#000000" points="565.1397,-252 386.8603,-252 386.8603,-216 565.1397,-216 565.1397,-252"/>
<text text-anchor="middle" x="476" y="-229.8" font-family="Times,serif" font-size="14.00" fill="#000000">DirectionalLightComponent </text>
</g>
<!-- AtftLightModule&#45;&gt;DirectionalLightComponent  -->
<g id="edge4" class="edge">
<title>AtftLightModule&#45;&gt;DirectionalLightComponent </title>
<path fill="none" stroke="#000000" stroke-dasharray="5,2" d="M334.4461,-175C382.8148,-175 444.7267,-175 444.7267,-175 444.7267,-175 444.7267,-205.9775 444.7267,-205.9775"/>
<polygon fill="#000000" stroke="#000000" points="441.2268,-205.9774 444.7267,-215.9775 448.2268,-205.9775 441.2268,-205.9774"/>
</g>
<!-- HemisphereLightComponent  -->
<g id="node6" class="node">
<title>HemisphereLightComponent </title>
<polygon fill="#fb8072" stroke="#000000" points="369.3031,-252 186.6969,-252 186.6969,-216 369.3031,-216 369.3031,-252"/>
<text text-anchor="middle" x="278" y="-229.8" font-family="Times,serif" font-size="14.00" fill="#000000">HemisphereLightComponent </text>
</g>
<!-- AtftLightModule&#45;&gt;HemisphereLightComponent  -->
<g id="edge5" class="edge">
<title>AtftLightModule&#45;&gt;HemisphereLightComponent </title>
<path fill="none" stroke="#000000" stroke-dasharray="5,2" d="M278,-187.1061C278,-187.1061 278,-205.991 278,-205.991"/>
<polygon fill="#000000" stroke="#000000" points="274.5001,-205.9909 278,-215.991 281.5001,-205.991 274.5001,-205.9909"/>
</g>
<!-- PointLightComponent  -->
<g id="node7" class="node">
<title>PointLightComponent </title>
<polygon fill="#fb8072" stroke="#000000" points="168.2303,-252 23.7697,-252 23.7697,-216 168.2303,-216 168.2303,-252"/>
<text text-anchor="middle" x="96" y="-229.8" font-family="Times,serif" font-size="14.00" fill="#000000">PointLightComponent </text>
</g>
<!-- AtftLightModule&#45;&gt;PointLightComponent  -->
<g id="edge6" class="edge">
<title>AtftLightModule&#45;&gt;PointLightComponent </title>
<path fill="none" stroke="#000000" stroke-dasharray="5,2" d="M221.6514,-175C161.7959,-175 75.7117,-175 75.7117,-175 75.7117,-175 75.7117,-205.9775 75.7117,-205.9775"/>
<polygon fill="#000000" stroke="#000000" points="72.2116,-205.9775 75.7117,-215.9775 79.2116,-205.9774 72.2116,-205.9775"/>
</g>
</g>
</svg>
