<?xml version="1.0" encoding="UTF-8" standalone="no"?>
<!DOCTYPE svg PUBLIC "-//W3C//DTD SVG 1.1//EN"
 "http://www.w3.org/Graphics/SVG/1.1/DTD/svg11.dtd">
<!-- Generated by graphviz version 2.47.0 (20210316.0004)
 -->
<!-- Title: dependencies Pages: 1 -->
<svg width="779pt" height="349pt"
 viewBox="0.00 0.00 779.00 349.00" xmlns="http://www.w3.org/2000/svg" xmlns:xlink="http://www.w3.org/1999/xlink">
<g id="graph0" class="graph" transform="scale(1 1) rotate(0) translate(4 345)">
<title>dependencies</title>
<polygon fill="white" stroke="transparent" points="-4,4 -4,-345 775,-345 775,4 -4,4"/>
<text text-anchor="start" x="364.51" y="-42.4" font-family="Times-12" font-weight="bold" font-size="14.00">Legend</text>
<polygon fill="#ffffb3" stroke="transparent" points="151.5,-10 151.5,-30 171.5,-30 171.5,-10 151.5,-10"/>
<text text-anchor="start" x="175.13" y="-15.4" font-family="Times-12" font-size="14.00"> &#160;Declarations</text>
<polygon fill="#8dd3c7" stroke="transparent" points="264.5,-10 264.5,-30 284.5,-30 284.5,-10 264.5,-10"/>
<text text-anchor="start" x="288.23" y="-15.4" font-family="Times-12" font-size="14.00"> &#160;Module</text>
<polygon fill="#80b1d3" stroke="transparent" points="350.5,-10 350.5,-30 370.5,-30 370.5,-10 350.5,-10"/>
<text text-anchor="start" x="374.28" y="-15.4" font-family="Times-12" font-size="14.00"> &#160;Bootstrap</text>
<polygon fill="#fdb462" stroke="transparent" points="447.5,-10 447.5,-30 467.5,-30 467.5,-10 447.5,-10"/>
<text text-anchor="start" x="471.17" y="-15.4" font-family="Times-12" font-size="14.00"> &#160;Providers</text>
<polygon fill="#fb8072" stroke="transparent" points="543.5,-10 543.5,-30 563.5,-30 563.5,-10 543.5,-10"/>
<text text-anchor="start" x="567.23" y="-15.4" font-family="Times-12" font-size="14.00"> &#160;Exports</text>
<g id="clust1" class="cluster">
<title>cluster_AtftLightModule</title>
<polygon fill="none" stroke="black" stroke-dasharray="1,5" points="8,-70 8,-333 763,-333 763,-70 8,-70"/>
</g>
<g id="clust2" class="cluster">
<title>cluster_AtftLightModule_declarations</title>
<polygon fill="none" stroke="black" points="16,-143 16,-195 742,-195 742,-143 16,-143"/>
</g>
<g id="clust3" class="cluster">
<title>cluster_AtftLightModule_AmbientLightComponent_providers</title>
<polygon fill="none" stroke="black" points="397,-78 397,-130 755,-130 755,-78 397,-78"/>
</g>
<g id="clust8" class="cluster">
<title>cluster_AtftLightModule_exports</title>
<polygon fill="none" stroke="black" points="16,-273 16,-325 755,-325 755,-273 16,-273"/>
</g>
<!-- AmbientLightComponent -->
<g id="node1" class="node">
<title>AmbientLightComponent</title>
<polygon fill="#ffffb3" stroke="black" points="734.16,-187 573.84,-187 573.84,-151 734.16,-151 734.16,-187"/>
<text text-anchor="middle" x="654" y="-164.8" font-family="Times,serif" font-size="14.00">AmbientLightComponent</text>
</g>
<!-- AtftLightModule -->
<g id="node5" class="node">
<title>AtftLightModule</title>
<polygon fill="#8dd3c7" stroke="black" points="429.43,-252 426.43,-256 405.43,-256 402.43,-252 316.57,-252 316.57,-216 429.43,-216 429.43,-252"/>
<text text-anchor="middle" x="373" y="-229.8" font-family="Times,serif" font-size="14.00">AtftLightModule</text>
</g>
<!-- AmbientLightComponent&#45;&gt;AtftLightModule -->
<g id="edge1" class="edge">
<title>AmbientLightComponent&#45;&gt;AtftLightModule</title>
<path fill="none" stroke="black" d="M578.3,-187.02C578.3,-204.37 578.3,-228 578.3,-228 578.3,-228 439.37,-228 439.37,-228"/>
<polygon fill="black" stroke="black" points="439.37,-224.5 429.37,-228 439.37,-231.5 439.37,-224.5"/>
</g>
<!-- DirectionalLightComponent -->
<g id="node2" class="node">
<title>DirectionalLightComponent</title>
<polygon fill="#ffffb3" stroke="black" points="555.14,-187 380.86,-187 380.86,-151 555.14,-151 555.14,-187"/>
<text text-anchor="middle" x="468" y="-164.8" font-family="Times,serif" font-size="14.00">DirectionalLightComponent</text>
</g>
<!-- DirectionalLightComponent&#45;&gt;AtftLightModule -->
<g id="edge3" class="edge">
<title>DirectionalLightComponent&#45;&gt;AtftLightModule</title>
<path fill="none" stroke="black" d="M404.95,-187.11C404.95,-187.11 404.95,-205.99 404.95,-205.99"/>
<polygon fill="black" stroke="black" points="401.45,-205.99 404.95,-215.99 408.45,-205.99 401.45,-205.99"/>
</g>
<!-- HemisphereLightComponent -->
<g id="node3" class="node">
<title>HemisphereLightComponent</title>
<polygon fill="#ffffb3" stroke="black" points="362.8,-187 183.2,-187 183.2,-151 362.8,-151 362.8,-187"/>
<text text-anchor="middle" x="273" y="-164.8" font-family="Times,serif" font-size="14.00">HemisphereLightComponent</text>
</g>
<!-- HemisphereLightComponent&#45;&gt;AtftLightModule -->
<g id="edge4" class="edge">
<title>HemisphereLightComponent&#45;&gt;AtftLightModule</title>
<path fill="none" stroke="black" d="M339.72,-187.11C339.72,-187.11 339.72,-205.99 339.72,-205.99"/>
<polygon fill="black" stroke="black" points="336.22,-205.99 339.72,-215.99 343.22,-205.99 336.22,-205.99"/>
</g>
<!-- PointLightComponent -->
<g id="node4" class="node">
<title>PointLightComponent</title>
<polygon fill="#ffffb3" stroke="black" points="165.73,-187 24.27,-187 24.27,-151 165.73,-151 165.73,-187"/>
<text text-anchor="middle" x="95" y="-164.8" font-family="Times,serif" font-size="14.00">PointLightComponent</text>
</g>
<!-- PointLightComponent&#45;&gt;AtftLightModule -->
<g id="edge5" class="edge">
<title>PointLightComponent&#45;&gt;AtftLightModule</title>
<path fill="none" stroke="black" d="M71.46,-187.02C71.46,-204.37 71.46,-228 71.46,-228 71.46,-228 306.64,-228 306.64,-228"/>
<polygon fill="black" stroke="black" points="306.64,-231.5 316.64,-228 306.64,-224.5 306.64,-231.5"/>
</g>
<!-- AmbientLightComponent  -->
<g id="node7" class="node">
<title>AmbientLightComponent </title>
<polygon fill="#fb8072" stroke="black" points="747.16,-317 582.84,-317 582.84,-281 747.16,-281 747.16,-317"/>
<text text-anchor="middle" x="665" y="-294.8" font-family="Times,serif" font-size="14.00">AmbientLightComponent </text>
</g>
<!-- AtftLightModule&#45;&gt;AmbientLightComponent  -->
<g id="edge6" class="edge">
<title>AtftLightModule&#45;&gt;AmbientLightComponent </title>
<path fill="none" stroke="black" stroke-dasharray="5,2" d="M429.43,-240C512.67,-240 658.62,-240 658.62,-240 658.62,-240 658.62,-270.98 658.62,-270.98"/>
<polygon fill="black" stroke="black" points="655.13,-270.98 658.62,-280.98 662.13,-270.98 655.13,-270.98"/>
</g>
<!-- DirectionalLightComponent  -->
<g id="node8" class="node">
<title>DirectionalLightComponent </title>
<polygon fill="#fb8072" stroke="black" points="565.14,-317 386.86,-317 386.86,-281 565.14,-281 565.14,-317"/>
<text text-anchor="middle" x="476" y="-294.8" font-family="Times,serif" font-size="14.00">DirectionalLightComponent </text>
</g>
<!-- AtftLightModule&#45;&gt;DirectionalLightComponent  -->
<g id="edge7" class="edge">
<title>AtftLightModule&#45;&gt;DirectionalLightComponent </title>
<path fill="none" stroke="black" stroke-dasharray="5,2" d="M408.07,-252.11C408.07,-252.11 408.07,-270.99 408.07,-270.99"/>
<polygon fill="black" stroke="black" points="404.57,-270.99 408.07,-280.99 411.57,-270.99 404.57,-270.99"/>
</g>
<!-- HemisphereLightComponent  -->
<g id="node9" class="node">
<title>HemisphereLightComponent </title>
<polygon fill="#fb8072" stroke="black" points="369.3,-317 186.7,-317 186.7,-281 369.3,-281 369.3,-317"/>
<text text-anchor="middle" x="278" y="-294.8" font-family="Times,serif" font-size="14.00">HemisphereLightComponent </text>
</g>
<!-- AtftLightModule&#45;&gt;HemisphereLightComponent  -->
<g id="edge8" class="edge">
<title>AtftLightModule&#45;&gt;HemisphereLightComponent </title>
<path fill="none" stroke="black" stroke-dasharray="5,2" d="M343.09,-252.11C343.09,-252.11 343.09,-270.99 343.09,-270.99"/>
<polygon fill="black" stroke="black" points="339.59,-270.99 343.09,-280.99 346.59,-270.99 339.59,-270.99"/>
</g>
<!-- PointLightComponent  -->
<g id="node10" class="node">
<title>PointLightComponent </title>
<polygon fill="#fb8072" stroke="black" points="168.23,-317 23.77,-317 23.77,-281 168.23,-281 168.23,-317"/>
<text text-anchor="middle" x="96" y="-294.8" font-family="Times,serif" font-size="14.00">PointLightComponent </text>
</g>
<!-- AtftLightModule&#45;&gt;PointLightComponent  -->
<g id="edge9" class="edge">
<title>AtftLightModule&#45;&gt;PointLightComponent </title>
<path fill="none" stroke="black" stroke-dasharray="5,2" d="M316.53,-240C241.56,-240 118.54,-240 118.54,-240 118.54,-240 118.54,-270.98 118.54,-270.98"/>
<polygon fill="black" stroke="black" points="115.04,-270.98 118.54,-280.98 122.04,-270.98 115.04,-270.98"/>
</g>
<!-- provideParent(AmbientLightComponent) -->
<g id="node6" class="node">
<title>provideParent(AmbientLightComponent)</title>
<ellipse fill="#fdb462" stroke="black" cx="576" cy="-104" rx="171.33" ry="18"/>
<text text-anchor="middle" x="576" y="-99.8" font-family="Times,serif" font-size="14.00">provideParent(AmbientLightComponent)</text>
</g>
<!-- provideParent(AmbientLightComponent)&#45;&gt;AmbientLightComponent -->
<g id="edge2" class="edge">
<title>provideParent(AmbientLightComponent)&#45;&gt;AmbientLightComponent</title>
<path fill="none" stroke="black" d="M654,-120.07C654,-120.07 654,-140.82 654,-140.82"/>
<polygon fill="black" stroke="black" points="650.5,-140.82 654,-150.82 657.5,-140.82 650.5,-140.82"/>
</g>
</g>
</svg>
