<?xml version="1.0" encoding="UTF-8" standalone="no"?>
<!DOCTYPE svg PUBLIC "-//W3C//DTD SVG 1.1//EN"
 "http://www.w3.org/Graphics/SVG/1.1/DTD/svg11.dtd">
<!-- Generated by graphviz version 2.47.0 (20210316.0004)
 -->
<!-- Title: dependencies Pages: 1 -->
<svg width="953pt" height="349pt"
 viewBox="0.00 0.00 953.00 349.00" xmlns="http://www.w3.org/2000/svg" xmlns:xlink="http://www.w3.org/1999/xlink">
<g id="graph0" class="graph" transform="scale(1 1) rotate(0) translate(4 345)">
<title>dependencies</title>
<polygon fill="white" stroke="transparent" points="-4,4 -4,-345 949,-345 949,4 -4,4"/>
<text text-anchor="start" x="451.51" y="-42.4" font-family="Times-12" font-weight="bold" font-size="14.00">Legend</text>
<polygon fill="#ffffb3" stroke="transparent" points="238.5,-10 238.5,-30 258.5,-30 258.5,-10 238.5,-10"/>
<text text-anchor="start" x="262.13" y="-15.4" font-family="Times-12" font-size="14.00"> &#160;Declarations</text>
<polygon fill="#8dd3c7" stroke="transparent" points="351.5,-10 351.5,-30 371.5,-30 371.5,-10 351.5,-10"/>
<text text-anchor="start" x="375.23" y="-15.4" font-family="Times-12" font-size="14.00"> &#160;Module</text>
<polygon fill="#80b1d3" stroke="transparent" points="437.5,-10 437.5,-30 457.5,-30 457.5,-10 437.5,-10"/>
<text text-anchor="start" x="461.28" y="-15.4" font-family="Times-12" font-size="14.00"> &#160;Bootstrap</text>
<polygon fill="#fdb462" stroke="transparent" points="534.5,-10 534.5,-30 554.5,-30 554.5,-10 534.5,-10"/>
<text text-anchor="start" x="558.17" y="-15.4" font-family="Times-12" font-size="14.00"> &#160;Providers</text>
<polygon fill="#fb8072" stroke="transparent" points="630.5,-10 630.5,-30 650.5,-30 650.5,-10 630.5,-10"/>
<text text-anchor="start" x="654.23" y="-15.4" font-family="Times-12" font-size="14.00"> &#160;Exports</text>
<g id="clust1" class="cluster">
<title>cluster_AtftLightModule</title>
<polygon fill="none" stroke="black" stroke-dasharray="1,5" points="8,-70 8,-333 937,-333 937,-70 8,-70"/>
</g>
<g id="clust3" class="cluster">
<title>cluster_AtftLightModule_AmbientLightComponent_providers</title>
<polygon fill="none" stroke="black" points="571,-78 571,-195 929,-195 929,-78 571,-78"/>
</g>
<g id="clust2" class="cluster">
<title>cluster_AtftLightModule_declarations</title>
<polygon fill="none" stroke="black" points="16,-143 16,-195 563,-195 563,-143 16,-143"/>
</g>
<g id="clust8" class="cluster">
<title>cluster_AtftLightModule_exports</title>
<polygon fill="none" stroke="black" points="103,-273 103,-325 842,-325 842,-273 103,-273"/>
</g>
<!-- AmbientLightComponent -->
<g id="node1" class="node">
<title>AmbientLightComponent</title>
<polygon fill="#ffffb3" stroke="black" points="784.16,-187 623.84,-187 623.84,-151 784.16,-151 784.16,-187"/>
<text text-anchor="middle" x="704" y="-164.8" font-family="Times,serif" font-size="14.00">AmbientLightComponent</text>
</g>
<!-- AtftLightModule -->
<g id="node5" class="node">
<title>AtftLightModule</title>
<polygon fill="#8dd3c7" stroke="black" points="472.43,-252 469.43,-256 448.43,-256 445.43,-252 359.57,-252 359.57,-216 472.43,-216 472.43,-252"/>
<text text-anchor="middle" x="416" y="-229.8" font-family="Times,serif" font-size="14.00">AtftLightModule</text>
</g>
<!-- AmbientLightComponent&#45;&gt;AtftLightModule -->
<g id="edge1" class="edge">
<title>AmbientLightComponent&#45;&gt;AtftLightModule</title>
<path fill="none" stroke="black" d="M637.87,-187.02C637.87,-204.37 637.87,-228 637.87,-228 637.87,-228 482.27,-228 482.27,-228"/>
<polygon fill="black" stroke="black" points="482.27,-224.5 472.27,-228 482.27,-231.5 482.27,-224.5"/>
</g>
<!-- DirectionalLightComponent -->
<g id="node2" class="node">
<title>DirectionalLightComponent</title>
<polygon fill="#ffffb3" stroke="black" points="555.14,-187 380.86,-187 380.86,-151 555.14,-151 555.14,-187"/>
<text text-anchor="middle" x="468" y="-164.8" font-family="Times,serif" font-size="14.00">DirectionalLightComponent</text>
</g>
<!-- DirectionalLightComponent&#45;&gt;AtftLightModule -->
<g id="edge3" class="edge">
<title>DirectionalLightComponent&#45;&gt;AtftLightModule</title>
<path fill="none" stroke="black" d="M426.45,-187.11C426.45,-187.11 426.45,-205.99 426.45,-205.99"/>
<polygon fill="black" stroke="black" points="422.95,-205.99 426.45,-215.99 429.95,-205.99 422.95,-205.99"/>
</g>
<!-- HemisphereLightComponent -->
<g id="node3" class="node">
<title>HemisphereLightComponent</title>
<polygon fill="#ffffb3" stroke="black" points="362.8,-187 183.2,-187 183.2,-151 362.8,-151 362.8,-187"/>
<text text-anchor="middle" x="273" y="-164.8" font-family="Times,serif" font-size="14.00">HemisphereLightComponent</text>
</g>
<!-- HemisphereLightComponent&#45;&gt;AtftLightModule -->
<g id="edge4" class="edge">
<title>HemisphereLightComponent&#45;&gt;AtftLightModule</title>
<path fill="none" stroke="black" d="M362.91,-169C368.34,-169 371.67,-169 371.67,-169 371.67,-169 371.67,-205.89 371.67,-205.89"/>
<polygon fill="black" stroke="black" points="368.17,-205.89 371.67,-215.89 375.17,-205.89 368.17,-205.89"/>
</g>
<!-- PointLightComponent -->
<g id="node4" class="node">
<title>PointLightComponent</title>
<polygon fill="#ffffb3" stroke="black" points="165.73,-187 24.27,-187 24.27,-151 165.73,-151 165.73,-187"/>
<text text-anchor="middle" x="95" y="-164.8" font-family="Times,serif" font-size="14.00">PointLightComponent</text>
</g>
<!-- PointLightComponent&#45;&gt;AtftLightModule -->
<g id="edge5" class="edge">
<title>PointLightComponent&#45;&gt;AtftLightModule</title>
<path fill="none" stroke="black" d="M138.12,-187.02C138.12,-204.37 138.12,-228 138.12,-228 138.12,-228 349.77,-228 349.77,-228"/>
<polygon fill="black" stroke="black" points="349.77,-231.5 359.77,-228 349.77,-224.5 349.77,-231.5"/>
</g>
<!-- AmbientLightComponent  -->
<g id="node7" class="node">
<title>AmbientLightComponent </title>
<polygon fill="#fb8072" stroke="black" points="834.16,-317 669.84,-317 669.84,-281 834.16,-281 834.16,-317"/>
<text text-anchor="middle" x="752" y="-294.8" font-family="Times,serif" font-size="14.00">AmbientLightComponent </text>
</g>
<!-- AtftLightModule&#45;&gt;AmbientLightComponent  -->
<g id="edge6" class="edge">
<title>AtftLightModule&#45;&gt;AmbientLightComponent </title>
<path fill="none" stroke="black" stroke-dasharray="5,2" d="M472.34,-240C562,-240 727.12,-240 727.12,-240 727.12,-240 727.12,-270.98 727.12,-270.98"/>
<polygon fill="black" stroke="black" points="723.63,-270.98 727.12,-280.98 730.63,-270.98 723.63,-270.98"/>
</g>
<!-- DirectionalLightComponent  -->
<g id="node8" class="node">
<title>DirectionalLightComponent </title>
<polygon fill="#fb8072" stroke="black" points="652.14,-317 473.86,-317 473.86,-281 652.14,-281 652.14,-317"/>
<text text-anchor="middle" x="563" y="-294.8" font-family="Times,serif" font-size="14.00">DirectionalLightComponent </text>
</g>
<!-- AtftLightModule&#45;&gt;DirectionalLightComponent  -->
<g id="edge7" class="edge">
<title>AtftLightModule&#45;&gt;DirectionalLightComponent </title>
<path fill="none" stroke="black" stroke-dasharray="5,2" d="M464.31,-252.11C464.31,-271.34 464.31,-299 464.31,-299 464.31,-299 465.26,-299 465.26,-299"/>
<polygon fill="black" stroke="black" points="463.77,-302.5 473.77,-299 463.77,-295.5 463.77,-302.5"/>
</g>
<!-- HemisphereLightComponent  -->
<g id="node9" class="node">
<title>HemisphereLightComponent </title>
<polygon fill="#fb8072" stroke="black" points="456.3,-317 273.7,-317 273.7,-281 456.3,-281 456.3,-317"/>
<text text-anchor="middle" x="365" y="-294.8" font-family="Times,serif" font-size="14.00">HemisphereLightComponent </text>
</g>
<!-- AtftLightModule&#45;&gt;HemisphereLightComponent  -->
<g id="edge8" class="edge">
<title>AtftLightModule&#45;&gt;HemisphereLightComponent </title>
<path fill="none" stroke="black" stroke-dasharray="5,2" d="M408.09,-252.11C408.09,-252.11 408.09,-270.99 408.09,-270.99"/>
<polygon fill="black" stroke="black" points="404.59,-270.99 408.09,-280.99 411.59,-270.99 404.59,-270.99"/>
</g>
<!-- PointLightComponent  -->
<g id="node10" class="node">
<title>PointLightComponent </title>
<polygon fill="#fb8072" stroke="black" points="255.23,-317 110.77,-317 110.77,-281 255.23,-281 255.23,-317"/>
<text text-anchor="middle" x="183" y="-294.8" font-family="Times,serif" font-size="14.00">PointLightComponent </text>
</g>
<!-- AtftLightModule&#45;&gt;PointLightComponent  -->
<g id="edge9" class="edge">
<title>AtftLightModule&#45;&gt;PointLightComponent </title>
<path fill="none" stroke="black" stroke-dasharray="5,2" d="M359.65,-240C301.54,-240 219.36,-240 219.36,-240 219.36,-240 219.36,-270.98 219.36,-270.98"/>
<polygon fill="black" stroke="black" points="215.86,-270.98 219.36,-280.98 222.86,-270.98 215.86,-270.98"/>
</g>
<!-- provideParent(AmbientLightComponent) -->
<g id="node6" class="node">
<title>provideParent(AmbientLightComponent)</title>
<ellipse fill="#fdb462" stroke="black" cx="750" cy="-104" rx="171.33" ry="18"/>
<text text-anchor="middle" x="750" y="-99.8" font-family="Times,serif" font-size="14.00">provideParent(AmbientLightComponent)</text>
</g>
<!-- provideParent(AmbientLightComponent)&#45;&gt;AmbientLightComponent -->
<g id="edge2" class="edge">
<title>provideParent(AmbientLightComponent)&#45;&gt;AmbientLightComponent</title>
<path fill="none" stroke="black" d="M704,-121.42C704,-121.42 704,-140.62 704,-140.62"/>
<polygon fill="black" stroke="black" points="700.5,-140.62 704,-150.62 707.5,-140.62 700.5,-140.62"/>
</g>
</g>
</svg>
