<?xml version="1.0" encoding="UTF-8" standalone="no"?>
<!DOCTYPE svg PUBLIC "-//W3C//DTD SVG 1.1//EN"
 "http://www.w3.org/Graphics/SVG/1.1/DTD/svg11.dtd">
<!-- Generated by graphviz version 2.47.3 (20210619.1520)
 -->
<!-- Title: dependencies Pages: 1 -->
<svg width="953pt" height="312pt"
 viewBox="0.00 0.00 953.00 311.80" xmlns="http://www.w3.org/2000/svg" xmlns:xlink="http://www.w3.org/1999/xlink">
<g id="graph0" class="graph" transform="scale(1 1) rotate(0) translate(4 307.8)">
<title>dependencies</title>
<polygon fill="white" stroke="transparent" points="-4,4 -4,-307.8 949,-307.8 949,4 -4,4"/>
<text text-anchor="middle" x="472.5" y="-8.2" font-family="sans-serif" font-size="14.00">dependencies</text>
<g id="clust1" class="cluster">
<title>cluster_AtftLightModule</title>
<polygon fill="none" stroke="black" stroke-dasharray="1,5" points="8,-32.8 8,-295.8 937,-295.8 937,-32.8 8,-32.8"/>
</g>
<g id="clust8" class="cluster">
<title>cluster_AtftLightModule_exports</title>
<polygon fill="none" stroke="black" points="103,-235.8 103,-287.8 842,-287.8 842,-235.8 103,-235.8"/>
</g>
<g id="clust3" class="cluster">
<title>cluster_AtftLightModule_AmbientLightComponent_providers</title>
<polygon fill="none" stroke="black" points="571,-40.8 571,-157.8 929,-157.8 929,-40.8 571,-40.8"/>
</g>
<g id="clust2" class="cluster">
<title>cluster_AtftLightModule_declarations</title>
<polygon fill="none" stroke="black" points="16,-105.8 16,-157.8 563,-157.8 563,-105.8 16,-105.8"/>
</g>
<!-- AmbientLightComponent -->
<g id="node1" class="node">
<title>AmbientLightComponent</title>
<polygon fill="#ffffb3" stroke="black" points="784.16,-149.8 623.84,-149.8 623.84,-113.8 784.16,-113.8 784.16,-149.8"/>
<text text-anchor="middle" x="704" y="-127.6" font-family="Times,serif" font-size="14.00">AmbientLightComponent</text>
</g>
<!-- AtftLightModule -->
<g id="node5" class="node">
<title>AtftLightModule</title>
<polygon fill="#8dd3c7" stroke="black" points="472.43,-214.8 469.43,-218.8 448.43,-218.8 445.43,-214.8 359.57,-214.8 359.57,-178.8 472.43,-178.8 472.43,-214.8"/>
<text text-anchor="middle" x="416" y="-192.6" font-family="Times,serif" font-size="14.00">AtftLightModule</text>
</g>
<!-- AmbientLightComponent&#45;&gt;AtftLightModule -->
<g id="edge1" class="edge">
<title>AmbientLightComponent&#45;&gt;AtftLightModule</title>
<path fill="none" stroke="black" d="M637.87,-149.82C637.87,-167.17 637.87,-190.8 637.87,-190.8 637.87,-190.8 482.27,-190.8 482.27,-190.8"/>
<polygon fill="black" stroke="black" points="482.27,-187.3 472.27,-190.8 482.27,-194.3 482.27,-187.3"/>
</g>
<!-- DirectionalLightComponent -->
<g id="node2" class="node">
<title>DirectionalLightComponent</title>
<polygon fill="#ffffb3" stroke="black" points="555.14,-149.8 380.86,-149.8 380.86,-113.8 555.14,-113.8 555.14,-149.8"/>
<text text-anchor="middle" x="468" y="-127.6" font-family="Times,serif" font-size="14.00">DirectionalLightComponent</text>
</g>
<!-- DirectionalLightComponent&#45;&gt;AtftLightModule -->
<g id="edge3" class="edge">
<title>DirectionalLightComponent&#45;&gt;AtftLightModule</title>
<path fill="none" stroke="black" d="M426.45,-149.91C426.45,-149.91 426.45,-168.79 426.45,-168.79"/>
<polygon fill="black" stroke="black" points="422.95,-168.79 426.45,-178.79 429.95,-168.79 422.95,-168.79"/>
</g>
<!-- HemisphereLightComponent -->
<g id="node3" class="node">
<title>HemisphereLightComponent</title>
<polygon fill="#ffffb3" stroke="black" points="362.8,-149.8 183.2,-149.8 183.2,-113.8 362.8,-113.8 362.8,-149.8"/>
<text text-anchor="middle" x="273" y="-127.6" font-family="Times,serif" font-size="14.00">HemisphereLightComponent</text>
</g>
<!-- HemisphereLightComponent&#45;&gt;AtftLightModule -->
<g id="edge4" class="edge">
<title>HemisphereLightComponent&#45;&gt;AtftLightModule</title>
<path fill="none" stroke="black" d="M362.91,-131.8C368.34,-131.8 371.67,-131.8 371.67,-131.8 371.67,-131.8 371.67,-168.69 371.67,-168.69"/>
<polygon fill="black" stroke="black" points="368.17,-168.69 371.67,-178.69 375.17,-168.69 368.17,-168.69"/>
</g>
<!-- PointLightComponent -->
<g id="node4" class="node">
<title>PointLightComponent</title>
<polygon fill="#ffffb3" stroke="black" points="165.73,-149.8 24.27,-149.8 24.27,-113.8 165.73,-113.8 165.73,-149.8"/>
<text text-anchor="middle" x="95" y="-127.6" font-family="Times,serif" font-size="14.00">PointLightComponent</text>
</g>
<!-- PointLightComponent&#45;&gt;AtftLightModule -->
<g id="edge5" class="edge">
<title>PointLightComponent&#45;&gt;AtftLightModule</title>
<path fill="none" stroke="black" d="M138.12,-149.82C138.12,-167.17 138.12,-190.8 138.12,-190.8 138.12,-190.8 349.77,-190.8 349.77,-190.8"/>
<polygon fill="black" stroke="black" points="349.77,-194.3 359.77,-190.8 349.77,-187.3 349.77,-194.3"/>
</g>
<!-- AmbientLightComponent  -->
<g id="node7" class="node">
<title>AmbientLightComponent </title>
<polygon fill="#fb8072" stroke="black" points="834.16,-279.8 669.84,-279.8 669.84,-243.8 834.16,-243.8 834.16,-279.8"/>
<text text-anchor="middle" x="752" y="-257.6" font-family="Times,serif" font-size="14.00">AmbientLightComponent </text>
</g>
<!-- AtftLightModule&#45;&gt;AmbientLightComponent  -->
<g id="edge6" class="edge">
<title>AtftLightModule&#45;&gt;AmbientLightComponent </title>
<path fill="none" stroke="black" stroke-dasharray="5,2" d="M472.34,-202.8C562,-202.8 727.12,-202.8 727.12,-202.8 727.12,-202.8 727.12,-233.78 727.12,-233.78"/>
<polygon fill="black" stroke="black" points="723.63,-233.78 727.12,-243.78 730.63,-233.78 723.63,-233.78"/>
</g>
<!-- DirectionalLightComponent  -->
<g id="node8" class="node">
<title>DirectionalLightComponent </title>
<polygon fill="#fb8072" stroke="black" points="652.14,-279.8 473.86,-279.8 473.86,-243.8 652.14,-243.8 652.14,-279.8"/>
<text text-anchor="middle" x="563" y="-257.6" font-family="Times,serif" font-size="14.00">DirectionalLightComponent </text>
</g>
<!-- AtftLightModule&#45;&gt;DirectionalLightComponent  -->
<g id="edge7" class="edge">
<title>AtftLightModule&#45;&gt;DirectionalLightComponent </title>
<path fill="none" stroke="black" stroke-dasharray="5,2" d="M464.31,-214.91C464.31,-234.14 464.31,-261.8 464.31,-261.8 464.31,-261.8 465.26,-261.8 465.26,-261.8"/>
<polygon fill="black" stroke="black" points="463.77,-265.3 473.77,-261.8 463.77,-258.3 463.77,-265.3"/>
</g>
<!-- HemisphereLightComponent  -->
<g id="node9" class="node">
<title>HemisphereLightComponent </title>
<polygon fill="#fb8072" stroke="black" points="456.3,-279.8 273.7,-279.8 273.7,-243.8 456.3,-243.8 456.3,-279.8"/>
<text text-anchor="middle" x="365" y="-257.6" font-family="Times,serif" font-size="14.00">HemisphereLightComponent </text>
</g>
<!-- AtftLightModule&#45;&gt;HemisphereLightComponent  -->
<g id="edge8" class="edge">
<title>AtftLightModule&#45;&gt;HemisphereLightComponent </title>
<path fill="none" stroke="black" stroke-dasharray="5,2" d="M408.09,-214.91C408.09,-214.91 408.09,-233.79 408.09,-233.79"/>
<polygon fill="black" stroke="black" points="404.59,-233.79 408.09,-243.79 411.59,-233.79 404.59,-233.79"/>
</g>
<!-- PointLightComponent  -->
<g id="node10" class="node">
<title>PointLightComponent </title>
<polygon fill="#fb8072" stroke="black" points="255.23,-279.8 110.77,-279.8 110.77,-243.8 255.23,-243.8 255.23,-279.8"/>
<text text-anchor="middle" x="183" y="-257.6" font-family="Times,serif" font-size="14.00">PointLightComponent </text>
</g>
<!-- AtftLightModule&#45;&gt;PointLightComponent  -->
<g id="edge9" class="edge">
<title>AtftLightModule&#45;&gt;PointLightComponent </title>
<path fill="none" stroke="black" stroke-dasharray="5,2" d="M359.65,-202.8C301.54,-202.8 219.36,-202.8 219.36,-202.8 219.36,-202.8 219.36,-233.78 219.36,-233.78"/>
<polygon fill="black" stroke="black" points="215.86,-233.78 219.36,-243.78 222.86,-233.78 215.86,-233.78"/>
</g>
<!-- provideParent(AmbientLightComponent) -->
<g id="node6" class="node">
<title>provideParent(AmbientLightComponent)</title>
<ellipse fill="#fdb462" stroke="black" cx="750" cy="-66.8" rx="171.33" ry="18"/>
<text text-anchor="middle" x="750" y="-62.6" font-family="Times,serif" font-size="14.00">provideParent(AmbientLightComponent)</text>
</g>
<!-- provideParent(AmbientLightComponent)&#45;&gt;AmbientLightComponent -->
<g id="edge2" class="edge">
<title>provideParent(AmbientLightComponent)&#45;&gt;AmbientLightComponent</title>
<path fill="none" stroke="black" d="M704,-84.22C704,-84.22 704,-103.42 704,-103.42"/>
<polygon fill="black" stroke="black" points="700.5,-103.42 704,-113.42 707.5,-103.42 700.5,-103.42"/>
</g>
</g>
</svg>
