<?xml version="1.0" encoding="UTF-8" standalone="no"?>
<!DOCTYPE svg PUBLIC "-//W3C//DTD SVG 1.1//EN"
 "http://www.w3.org/Graphics/SVG/1.1/DTD/svg11.dtd">
<!-- Generated by graphviz version 2.40.1 (20161225.0304)
 -->
<!-- Title: dependencies Pages: 1 -->
<svg width="2773pt" height="284pt"
 viewBox="0.00 0.00 2773.00 284.00" xmlns="http://www.w3.org/2000/svg" xmlns:xlink="http://www.w3.org/1999/xlink">
<g id="graph0" class="graph" transform="scale(1 1) rotate(0) translate(4 280)">
<title>dependencies</title>
<polygon fill="#ffffff" stroke="transparent" points="-4,4 -4,-280 2769,-280 2769,4 -4,4"/>
<text text-anchor="start" x="1361.5091" y="-42.4" font-family="sans-serif" font-weight="bold" font-size="14.00" fill="#000000">Legend</text>
<polygon fill="#ffffb3" stroke="transparent" points="1148.5,-10 1148.5,-30 1168.5,-30 1168.5,-10 1148.5,-10"/>
<text text-anchor="start" x="1172.129" y="-15.4" font-family="sans-serif" font-size="14.00" fill="#000000"> &#160;Declarations</text>
<polygon fill="#8dd3c7" stroke="transparent" points="1261.5,-10 1261.5,-30 1281.5,-30 1281.5,-10 1261.5,-10"/>
<text text-anchor="start" x="1285.2251" y="-15.4" font-family="sans-serif" font-size="14.00" fill="#000000"> &#160;Module</text>
<polygon fill="#80b1d3" stroke="transparent" points="1347.5,-10 1347.5,-30 1367.5,-30 1367.5,-10 1347.5,-10"/>
<text text-anchor="start" x="1371.2812" y="-15.4" font-family="sans-serif" font-size="14.00" fill="#000000"> &#160;Bootstrap</text>
<polygon fill="#fdb462" stroke="transparent" points="1444.5,-10 1444.5,-30 1464.5,-30 1464.5,-10 1444.5,-10"/>
<text text-anchor="start" x="1468.1732" y="-15.4" font-family="sans-serif" font-size="14.00" fill="#000000"> &#160;Providers</text>
<polygon fill="#fb8072" stroke="transparent" points="1540.5,-10 1540.5,-30 1560.5,-30 1560.5,-10 1540.5,-10"/>
<text text-anchor="start" x="1564.2258" y="-15.4" font-family="sans-serif" font-size="14.00" fill="#000000"> &#160;Exports</text>
<g id="clust1" class="cluster">
<title>cluster_AtftDataCenterActorModule</title>
<polygon fill="none" stroke="#000000" stroke-dasharray="1,5" points="8,-70 8,-268 2757,-268 2757,-70 8,-70"/>
</g>
<g id="clust2" class="cluster">
<title>cluster_AtftDataCenterActorModule_declarations</title>
<polygon fill="none" stroke="#000000" points="354,-78 354,-130 2749,-130 2749,-78 354,-78"/>
</g>
<g id="clust16" class="cluster">
<title>cluster_AtftDataCenterActorModule_imports</title>
<polygon fill="none" stroke="#000000" points="248,-78 248,-130 346,-130 346,-78 248,-78"/>
</g>
<g id="clust17" class="cluster">
<title>cluster_AtftDataCenterActorModule_exports</title>
<polygon fill="none" stroke="#000000" points="147,-208 147,-260 2589,-260 2589,-208 147,-208"/>
</g>
<g id="clust19" class="cluster">
<title>cluster_AtftDataCenterActorModule_providers</title>
<polygon fill="none" stroke="#000000" points="16,-78 16,-130 240,-130 240,-78 16,-78"/>
</g>
<!-- DagreCompositionComponent -->
<g id="node1" class="node">
<title>DagreCompositionComponent</title>
<polygon fill="#ffffb3" stroke="#000000" points="2740.8724,-122 2553.1276,-122 2553.1276,-86 2740.8724,-86 2740.8724,-122"/>
<text text-anchor="middle" x="2647" y="-99.8" font-family="Times,serif" font-size="14.00" fill="#000000">DagreCompositionComponent</text>
</g>
<!-- AtftDataCenterActorModule -->
<g id="node14" class="node">
<title>AtftDataCenterActorModule</title>
<polygon fill="#8dd3c7" stroke="#000000" points="1511.7142,-187 1508.7142,-191 1487.7142,-191 1484.7142,-187 1334.2858,-187 1334.2858,-151 1511.7142,-151 1511.7142,-187"/>
<text text-anchor="middle" x="1423" y="-164.8" font-family="Times,serif" font-size="14.00" fill="#000000">AtftDataCenterActorModule</text>
</g>
<!-- DagreCompositionComponent&#45;&gt;AtftDataCenterActorModule -->
<g id="edge1" class="edge">
<title>DagreCompositionComponent&#45;&gt;AtftDataCenterActorModule</title>
<path fill="none" stroke="#000000" d="M2566.875,-122.308C2566.875,-142.1455 2566.875,-171 2566.875,-171 2566.875,-171 1521.8061,-171 1521.8061,-171"/>
<polygon fill="#000000" stroke="#000000" points="1521.8062,-167.5001 1511.8061,-171 1521.8061,-174.5001 1521.8062,-167.5001"/>
</g>
<!-- DagreEdgeComponent -->
<g id="node2" class="node">
<title>DagreEdgeComponent</title>
<polygon fill="#ffffb3" stroke="#000000" points="2535.2963,-122 2390.7037,-122 2390.7037,-86 2535.2963,-86 2535.2963,-122"/>
<text text-anchor="middle" x="2463" y="-99.8" font-family="Times,serif" font-size="14.00" fill="#000000">DagreEdgeComponent</text>
</g>
<!-- DagreEdgeComponent&#45;&gt;AtftDataCenterActorModule -->
<g id="edge2" class="edge">
<title>DagreEdgeComponent&#45;&gt;AtftDataCenterActorModule</title>
<path fill="none" stroke="#000000" d="M2487.0493,-122.1686C2487.0493,-141.0898 2487.0493,-168 2487.0493,-168 2487.0493,-168 1521.8901,-168 1521.8901,-168"/>
<polygon fill="#000000" stroke="#000000" points="1521.8901,-164.5001 1511.8901,-168 1521.8901,-171.5001 1521.8901,-164.5001"/>
</g>
<!-- DagreLayoutComponent -->
<g id="node3" class="node">
<title>DagreLayoutComponent</title>
<polygon fill="#ffffb3" stroke="#000000" points="2372.6867,-122 2217.3133,-122 2217.3133,-86 2372.6867,-86 2372.6867,-122"/>
<text text-anchor="middle" x="2295" y="-99.8" font-family="Times,serif" font-size="14.00" fill="#000000">DagreLayoutComponent</text>
</g>
<!-- DagreLayoutComponent&#45;&gt;AtftDataCenterActorModule -->
<g id="edge3" class="edge">
<title>DagreLayoutComponent&#45;&gt;AtftDataCenterActorModule</title>
<path fill="none" stroke="#000000" d="M2321.6327,-122.302C2321.6327,-140.2699 2321.6327,-165 2321.6327,-165 2321.6327,-165 1522.0363,-165 1522.0363,-165"/>
<polygon fill="#000000" stroke="#000000" points="1522.0363,-161.5001 1512.0363,-165 1522.0363,-168.5001 1522.0363,-161.5001"/>
</g>
<!-- DagreNodeComponent -->
<g id="node4" class="node">
<title>DagreNodeComponent</title>
<polygon fill="#ffffb3" stroke="#000000" points="2198.8501,-122 2053.1499,-122 2053.1499,-86 2198.8501,-86 2198.8501,-122"/>
<text text-anchor="middle" x="2126" y="-99.8" font-family="Times,serif" font-size="14.00" fill="#000000">DagreNodeComponent</text>
</g>
<!-- DagreNodeComponent&#45;&gt;AtftDataCenterActorModule -->
<g id="edge4" class="edge">
<title>DagreNodeComponent&#45;&gt;AtftDataCenterActorModule</title>
<path fill="none" stroke="#000000" d="M2101.6917,-122.0225C2101.6917,-139.3734 2101.6917,-163 2101.6917,-163 2101.6917,-163 1521.7271,-163 1521.7271,-163"/>
<polygon fill="#000000" stroke="#000000" points="1521.7271,-159.5001 1511.7271,-163 1521.727,-166.5001 1521.7271,-159.5001"/>
</g>
<!-- DagreYamlParserComponent -->
<g id="node5" class="node">
<title>DagreYamlParserComponent</title>
<polygon fill="#ffffb3" stroke="#000000" points="2034.6092,-122 1853.3908,-122 1853.3908,-86 2034.6092,-86 2034.6092,-122"/>
<text text-anchor="middle" x="1944" y="-99.8" font-family="Times,serif" font-size="14.00" fill="#000000">DagreYamlParserComponent</text>
</g>
<!-- DagreYamlParserComponent&#45;&gt;AtftDataCenterActorModule -->
<g id="edge5" class="edge">
<title>DagreYamlParserComponent&#45;&gt;AtftDataCenterActorModule</title>
<path fill="none" stroke="#000000" d="M1857.375,-122.027C1857.375,-138.3976 1857.375,-160 1857.375,-160 1857.375,-160 1521.9504,-160 1521.9504,-160"/>
<polygon fill="#000000" stroke="#000000" points="1521.9505,-156.5001 1511.9504,-160 1521.9504,-163.5001 1521.9505,-156.5001"/>
</g>
<!-- GridActorComponent -->
<g id="node6" class="node">
<title>GridActorComponent</title>
<polygon fill="#ffffb3" stroke="#000000" points="1835.3627,-122 1696.6373,-122 1696.6373,-86 1835.3627,-86 1835.3627,-122"/>
<text text-anchor="middle" x="1766" y="-99.8" font-family="Times,serif" font-size="14.00" fill="#000000">GridActorComponent</text>
</g>
<!-- GridActorComponent&#45;&gt;AtftDataCenterActorModule -->
<g id="edge6" class="edge">
<title>GridActorComponent&#45;&gt;AtftDataCenterActorModule</title>
<path fill="none" stroke="#000000" d="M1766,-122.2396C1766,-137.5706 1766,-157 1766,-157 1766,-157 1521.7771,-157 1521.7771,-157"/>
<polygon fill="#000000" stroke="#000000" points="1521.7771,-153.5001 1511.7771,-157 1521.7771,-160.5001 1521.7771,-153.5001"/>
</g>
<!-- LayerActorComponent -->
<g id="node7" class="node">
<title>LayerActorComponent</title>
<polygon fill="#ffffb3" stroke="#000000" points="1678.8473,-122 1533.1527,-122 1533.1527,-86 1678.8473,-86 1678.8473,-122"/>
<text text-anchor="middle" x="1606" y="-99.8" font-family="Times,serif" font-size="14.00" fill="#000000">LayerActorComponent</text>
</g>
<!-- LayerActorComponent&#45;&gt;AtftDataCenterActorModule -->
<g id="edge7" class="edge">
<title>LayerActorComponent&#45;&gt;AtftDataCenterActorModule</title>
<path fill="none" stroke="#000000" d="M1595.6289,-122.0511C1595.6289,-136.373 1595.6289,-154 1595.6289,-154 1595.6289,-154 1521.8428,-154 1521.8428,-154"/>
<polygon fill="#000000" stroke="#000000" points="1521.8429,-150.5001 1511.8428,-154 1521.8428,-157.5001 1521.8429,-150.5001"/>
</g>
<!-- ServerBarrelActorComponent -->
<g id="node8" class="node">
<title>ServerBarrelActorComponent</title>
<polygon fill="#ffffb3" stroke="#000000" points="1515.2156,-122 1330.7844,-122 1330.7844,-86 1515.2156,-86 1515.2156,-122"/>
<text text-anchor="middle" x="1423" y="-99.8" font-family="Times,serif" font-size="14.00" fill="#000000">ServerBarrelActorComponent</text>
</g>
<!-- ServerBarrelActorComponent&#45;&gt;AtftDataCenterActorModule -->
<g id="edge8" class="edge">
<title>ServerBarrelActorComponent&#45;&gt;AtftDataCenterActorModule</title>
<path fill="none" stroke="#000000" d="M1423,-122.1061C1423,-122.1061 1423,-140.991 1423,-140.991"/>
<polygon fill="#000000" stroke="#000000" points="1419.5001,-140.9909 1423,-150.991 1426.5001,-140.991 1419.5001,-140.9909"/>
</g>
<!-- ServerCompactActorComponent -->
<g id="node9" class="node">
<title>ServerCompactActorComponent</title>
<polygon fill="#ffffb3" stroke="#000000" points="1312.285,-122 1111.715,-122 1111.715,-86 1312.285,-86 1312.285,-122"/>
<text text-anchor="middle" x="1212" y="-99.8" font-family="Times,serif" font-size="14.00" fill="#000000">ServerCompactActorComponent</text>
</g>
<!-- ServerCompactActorComponent&#45;&gt;AtftDataCenterActorModule -->
<g id="edge9" class="edge">
<title>ServerCompactActorComponent&#45;&gt;AtftDataCenterActorModule</title>
<path fill="none" stroke="#000000" d="M1227.0174,-122.0511C1227.0174,-136.373 1227.0174,-154 1227.0174,-154 1227.0174,-154 1324.1834,-154 1324.1834,-154"/>
<polygon fill="#000000" stroke="#000000" points="1324.1834,-157.5001 1334.1834,-154 1324.1834,-150.5001 1324.1834,-157.5001"/>
</g>
<!-- ServerIconActorComponent -->
<g id="node10" class="node">
<title>ServerIconActorComponent</title>
<polygon fill="#ffffb3" stroke="#000000" points="1094.1134,-122 919.8866,-122 919.8866,-86 1094.1134,-86 1094.1134,-122"/>
<text text-anchor="middle" x="1007" y="-99.8" font-family="Times,serif" font-size="14.00" fill="#000000">ServerIconActorComponent</text>
</g>
<!-- ServerIconActorComponent&#45;&gt;AtftDataCenterActorModule -->
<g id="edge10" class="edge">
<title>ServerIconActorComponent&#45;&gt;AtftDataCenterActorModule</title>
<path fill="none" stroke="#000000" d="M1007.2071,-122.2396C1007.2071,-137.5706 1007.2071,-157 1007.2071,-157 1007.2071,-157 1324.0571,-157 1324.0571,-157"/>
<polygon fill="#000000" stroke="#000000" points="1324.0571,-160.5001 1334.0571,-157 1324.0571,-153.5001 1324.0571,-160.5001"/>
</g>
<!-- ServerStandActorComponent -->
<g id="node11" class="node">
<title>ServerStandActorComponent</title>
<polygon fill="#ffffb3" stroke="#000000" points="901.626,-122 720.374,-122 720.374,-86 901.626,-86 901.626,-122"/>
<text text-anchor="middle" x="811" y="-99.8" font-family="Times,serif" font-size="14.00" fill="#000000">ServerStandActorComponent</text>
</g>
<!-- ServerStandActorComponent&#45;&gt;AtftDataCenterActorModule -->
<g id="edge11" class="edge">
<title>ServerStandActorComponent&#45;&gt;AtftDataCenterActorModule</title>
<path fill="none" stroke="#000000" d="M783.2333,-122.027C783.2333,-138.3976 783.2333,-160 783.2333,-160 783.2333,-160 1324.0432,-160 1324.0432,-160"/>
<polygon fill="#000000" stroke="#000000" points="1324.0432,-163.5001 1334.0432,-160 1324.0431,-156.5001 1324.0432,-163.5001"/>
</g>
<!-- UserActorComponent -->
<g id="node12" class="node">
<title>UserActorComponent</title>
<polygon fill="#ffffb3" stroke="#000000" points="701.6317,-122 562.3683,-122 562.3683,-86 701.6317,-86 701.6317,-122"/>
<text text-anchor="middle" x="632" y="-99.8" font-family="Times,serif" font-size="14.00" fill="#000000">UserActorComponent</text>
</g>
<!-- UserActorComponent&#45;&gt;AtftDataCenterActorModule -->
<g id="edge12" class="edge">
<title>UserActorComponent&#45;&gt;AtftDataCenterActorModule</title>
<path fill="none" stroke="#000000" d="M655.2719,-122.0225C655.2719,-139.3734 655.2719,-163 655.2719,-163 655.2719,-163 1324.1818,-163 1324.1818,-163"/>
<polygon fill="#000000" stroke="#000000" points="1324.1819,-166.5001 1334.1818,-163 1324.1818,-159.5001 1324.1819,-166.5001"/>
</g>
<!-- WorkstationActorComponent -->
<g id="node13" class="node">
<title>WorkstationActorComponent</title>
<polygon fill="#ffffb3" stroke="#000000" points="544.4115,-122 361.5885,-122 361.5885,-86 544.4115,-86 544.4115,-122"/>
<text text-anchor="middle" x="453" y="-99.8" font-family="Times,serif" font-size="14.00" fill="#000000">WorkstationActorComponent</text>
</g>
<!-- WorkstationActorComponent&#45;&gt;AtftDataCenterActorModule -->
<g id="edge13" class="edge">
<title>WorkstationActorComponent&#45;&gt;AtftDataCenterActorModule</title>
<path fill="none" stroke="#000000" d="M532.3213,-122.302C532.3213,-140.2699 532.3213,-165 532.3213,-165 532.3213,-165 1323.9316,-165 1323.9316,-165"/>
<polygon fill="#000000" stroke="#000000" points="1323.9316,-168.5001 1333.9316,-165 1323.9315,-161.5001 1323.9316,-168.5001"/>
</g>
<!-- DagreCompositionComponent  -->
<g id="node16" class="node">
<title>DagreCompositionComponent </title>
<polygon fill="#fb8072" stroke="#000000" points="2580.8728,-252 2389.1272,-252 2389.1272,-216 2580.8728,-216 2580.8728,-252"/>
<text text-anchor="middle" x="2485" y="-229.8" font-family="Times,serif" font-size="14.00" fill="#000000">DagreCompositionComponent </text>
</g>
<!-- AtftDataCenterActorModule&#45;&gt;DagreCompositionComponent  -->
<g id="edge15" class="edge">
<title>AtftDataCenterActorModule&#45;&gt;DagreCompositionComponent </title>
<path fill="none" stroke="#000000" stroke-dasharray="5,2" d="M1511.8246,-174C1759.3679,-174 2438.9507,-174 2438.9507,-174 2438.9507,-174 2438.9507,-205.998 2438.9507,-205.998"/>
<polygon fill="#000000" stroke="#000000" points="2435.4508,-205.998 2438.9507,-215.998 2442.4508,-205.9981 2435.4508,-205.998"/>
</g>
<!-- DagreEdgeComponent  -->
<g id="node17" class="node">
<title>DagreEdgeComponent </title>
<polygon fill="#fb8072" stroke="#000000" points="2370.7961,-252 2223.2039,-252 2223.2039,-216 2370.7961,-216 2370.7961,-252"/>
<text text-anchor="middle" x="2297" y="-229.8" font-family="Times,serif" font-size="14.00" fill="#000000">DagreEdgeComponent </text>
</g>
<!-- AtftDataCenterActorModule&#45;&gt;DagreEdgeComponent  -->
<g id="edge16" class="edge">
<title>AtftDataCenterActorModule&#45;&gt;DagreEdgeComponent </title>
<path fill="none" stroke="#000000" stroke-dasharray="5,2" d="M1511.8923,-176C1729.7008,-176 2272.3673,-176 2272.3673,-176 2272.3673,-176 2272.3673,-205.9664 2272.3673,-205.9664"/>
<polygon fill="#000000" stroke="#000000" points="2268.8674,-205.9663 2272.3673,-215.9664 2275.8674,-205.9664 2268.8674,-205.9663"/>
</g>
<!-- DagreLayoutComponent  -->
<g id="node18" class="node">
<title>DagreLayoutComponent </title>
<polygon fill="#fb8072" stroke="#000000" points="2205.1869,-252 2046.8131,-252 2046.8131,-216 2205.1869,-216 2205.1869,-252"/>
<text text-anchor="middle" x="2126" y="-229.8" font-family="Times,serif" font-size="14.00" fill="#000000">DagreLayoutComponent </text>
</g>
<!-- AtftDataCenterActorModule&#45;&gt;DagreLayoutComponent  -->
<g id="edge17" class="edge">
<title>AtftDataCenterActorModule&#45;&gt;DagreLayoutComponent </title>
<path fill="none" stroke="#000000" stroke-dasharray="5,2" d="M1511.8184,-179C1705.8395,-179 2150.3083,-179 2150.3083,-179 2150.3083,-179 2150.3083,-205.9909 2150.3083,-205.9909"/>
<polygon fill="#000000" stroke="#000000" points="2146.8084,-205.9909 2150.3083,-215.9909 2153.8084,-205.991 2146.8084,-205.9909"/>
</g>
<!-- DagreNodeComponent  -->
<g id="node19" class="node">
<title>DagreNodeComponent </title>
<polygon fill="#fb8072" stroke="#000000" points="2028.8504,-252 1879.1496,-252 1879.1496,-216 2028.8504,-216 2028.8504,-252"/>
<text text-anchor="middle" x="1954" y="-229.8" font-family="Times,serif" font-size="14.00" fill="#000000">DagreNodeComponent </text>
</g>
<!-- AtftDataCenterActorModule&#45;&gt;DagreNodeComponent  -->
<g id="edge18" class="edge">
<title>AtftDataCenterActorModule&#45;&gt;DagreNodeComponent </title>
<path fill="none" stroke="#000000" stroke-dasharray="5,2" d="M1511.8775,-182C1663.0402,-182 1954,-182 1954,-182 1954,-182 1954,-205.8129 1954,-205.8129"/>
<polygon fill="#000000" stroke="#000000" points="1950.5001,-205.8129 1954,-215.8129 1957.5001,-205.813 1950.5001,-205.8129"/>
</g>
<!-- DagreYamlParserComponent  -->
<g id="node20" class="node">
<title>DagreYamlParserComponent </title>
<polygon fill="#fb8072" stroke="#000000" points="1861.6088,-252 1676.3912,-252 1676.3912,-216 1861.6088,-216 1861.6088,-252"/>
<text text-anchor="middle" x="1769" y="-229.8" font-family="Times,serif" font-size="14.00" fill="#000000">DagreYamlParserComponent </text>
</g>
<!-- AtftDataCenterActorModule&#45;&gt;DagreYamlParserComponent  -->
<g id="edge19" class="edge">
<title>AtftDataCenterActorModule&#45;&gt;DagreYamlParserComponent </title>
<path fill="none" stroke="#000000" stroke-dasharray="5,2" d="M1511.8931,-185C1588.8047,-185 1687.7462,-185 1687.7462,-185 1687.7462,-185 1687.7462,-205.7542 1687.7462,-205.7542"/>
<polygon fill="#000000" stroke="#000000" points="1684.2462,-205.7542 1687.7462,-215.7542 1691.2462,-205.7542 1684.2462,-205.7542"/>
</g>
<!-- GridActorComponent  -->
<g id="node21" class="node">
<title>GridActorComponent </title>
<polygon fill="#fb8072" stroke="#000000" points="1658.3631,-252 1515.6369,-252 1515.6369,-216 1658.3631,-216 1658.3631,-252"/>
<text text-anchor="middle" x="1587" y="-229.8" font-family="Times,serif" font-size="14.00" fill="#000000">GridActorComponent </text>
</g>
<!-- AtftDataCenterActorModule&#45;&gt;GridActorComponent  -->
<g id="edge20" class="edge">
<title>AtftDataCenterActorModule&#45;&gt;GridActorComponent </title>
<path fill="none" stroke="#000000" stroke-dasharray="5,2" d="M1504.7653,-187.1061C1504.7653,-206.3391 1504.7653,-234 1504.7653,-234 1504.7653,-234 1505.8404,-234 1505.8404,-234"/>
<polygon fill="#000000" stroke="#000000" points="1505.5161,-237.5001 1515.5161,-234 1505.516,-230.5001 1505.5161,-237.5001"/>
</g>
<!-- LayerActorComponent  -->
<g id="node22" class="node">
<title>LayerActorComponent </title>
<polygon fill="#fb8072" stroke="#000000" points="1497.8476,-252 1348.1524,-252 1348.1524,-216 1497.8476,-216 1497.8476,-252"/>
<text text-anchor="middle" x="1423" y="-229.8" font-family="Times,serif" font-size="14.00" fill="#000000">LayerActorComponent </text>
</g>
<!-- AtftDataCenterActorModule&#45;&gt;LayerActorComponent  -->
<g id="edge21" class="edge">
<title>AtftDataCenterActorModule&#45;&gt;LayerActorComponent </title>
<path fill="none" stroke="#000000" stroke-dasharray="5,2" d="M1423,-187.1061C1423,-187.1061 1423,-205.991 1423,-205.991"/>
<polygon fill="#000000" stroke="#000000" points="1419.5001,-205.9909 1423,-215.991 1426.5001,-205.991 1419.5001,-205.9909"/>
</g>
<!-- ServerBarrelActorComponent  -->
<g id="node23" class="node">
<title>ServerBarrelActorComponent </title>
<polygon fill="#fb8072" stroke="#000000" points="1330.2155,-252 1141.7845,-252 1141.7845,-216 1330.2155,-216 1330.2155,-252"/>
<text text-anchor="middle" x="1236" y="-229.8" font-family="Times,serif" font-size="14.00" fill="#000000">ServerBarrelActorComponent </text>
</g>
<!-- AtftDataCenterActorModule&#45;&gt;ServerBarrelActorComponent  -->
<g id="edge22" class="edge">
<title>AtftDataCenterActorModule&#45;&gt;ServerBarrelActorComponent </title>
<path fill="none" stroke="#000000" stroke-dasharray="5,2" d="M1341.2347,-187.1061C1341.2347,-206.3391 1341.2347,-234 1341.2347,-234 1341.2347,-234 1340.1481,-234 1340.1481,-234"/>
<polygon fill="#000000" stroke="#000000" points="1340.3691,-230.5001 1330.3691,-234 1340.3691,-237.5001 1340.3691,-230.5001"/>
</g>
<!-- ServerCompactActorComponent  -->
<g id="node24" class="node">
<title>ServerCompactActorComponent </title>
<polygon fill="#fb8072" stroke="#000000" points="1123.7849,-252 920.2151,-252 920.2151,-216 1123.7849,-216 1123.7849,-252"/>
<text text-anchor="middle" x="1022" y="-229.8" font-family="Times,serif" font-size="14.00" fill="#000000">ServerCompactActorComponent </text>
</g>
<!-- AtftDataCenterActorModule&#45;&gt;ServerCompactActorComponent  -->
<g id="edge23" class="edge">
<title>AtftDataCenterActorModule&#45;&gt;ServerCompactActorComponent </title>
<path fill="none" stroke="#000000" stroke-dasharray="5,2" d="M1333.925,-185C1243.8631,-185 1117.875,-185 1117.875,-185 1117.875,-185 1117.875,-205.7542 1117.875,-205.7542"/>
<polygon fill="#000000" stroke="#000000" points="1114.3751,-205.7542 1117.875,-215.7542 1121.3751,-205.7542 1114.3751,-205.7542"/>
</g>
<!-- ServerIconActorComponent  -->
<g id="node25" class="node">
<title>ServerIconActorComponent </title>
<polygon fill="#fb8072" stroke="#000000" points="902.113,-252 723.887,-252 723.887,-216 902.113,-216 902.113,-252"/>
<text text-anchor="middle" x="813" y="-229.8" font-family="Times,serif" font-size="14.00" fill="#000000">ServerIconActorComponent </text>
</g>
<!-- AtftDataCenterActorModule&#45;&gt;ServerIconActorComponent  -->
<g id="edge24" class="edge">
<title>AtftDataCenterActorModule&#45;&gt;ServerIconActorComponent </title>
<path fill="none" stroke="#000000" stroke-dasharray="5,2" d="M1334.2062,-182C1171.5972,-182 842.523,-182 842.523,-182 842.523,-182 842.523,-205.8129 842.523,-205.8129"/>
<polygon fill="#000000" stroke="#000000" points="839.0231,-205.8129 842.523,-215.8129 846.0231,-205.813 839.0231,-205.8129"/>
</g>
<!-- ServerStandActorComponent  -->
<g id="node26" class="node">
<title>ServerStandActorComponent </title>
<polygon fill="#fb8072" stroke="#000000" points="705.6256,-252 520.3744,-252 520.3744,-216 705.6256,-216 705.6256,-252"/>
<text text-anchor="middle" x="613" y="-229.8" font-family="Times,serif" font-size="14.00" fill="#000000">ServerStandActorComponent </text>
</g>
<!-- AtftDataCenterActorModule&#45;&gt;ServerStandActorComponent  -->
<g id="edge25" class="edge">
<title>AtftDataCenterActorModule&#45;&gt;ServerStandActorComponent </title>
<path fill="none" stroke="#000000" stroke-dasharray="5,2" d="M1333.9193,-179C1122.6352,-179 608.7281,-179 608.7281,-179 608.7281,-179 608.7281,-205.9909 608.7281,-205.9909"/>
<polygon fill="#000000" stroke="#000000" points="605.2282,-205.9909 608.7281,-215.9909 612.2282,-205.991 605.2282,-205.9909"/>
</g>
<!-- UserActorComponent  -->
<g id="node27" class="node">
<title>UserActorComponent </title>
<polygon fill="#fb8072" stroke="#000000" points="502.6313,-252 359.3687,-252 359.3687,-216 502.6313,-216 502.6313,-252"/>
<text text-anchor="middle" x="431" y="-229.8" font-family="Times,serif" font-size="14.00" fill="#000000">UserActorComponent </text>
</g>
<!-- AtftDataCenterActorModule&#45;&gt;UserActorComponent  -->
<g id="edge26" class="edge">
<title>AtftDataCenterActorModule&#45;&gt;UserActorComponent </title>
<path fill="none" stroke="#000000" stroke-dasharray="5,2" d="M1334.1994,-176C1091.0016,-176 432.1801,-176 432.1801,-176 432.1801,-176 432.1801,-205.9664 432.1801,-205.9664"/>
<polygon fill="#000000" stroke="#000000" points="428.6801,-205.9663 432.1801,-215.9664 435.6801,-205.9664 428.6801,-205.9663"/>
</g>
<!-- WorkstationActorComponent  -->
<g id="node28" class="node">
<title>WorkstationActorComponent </title>
<polygon fill="#fb8072" stroke="#000000" points="340.911,-252 155.089,-252 155.089,-216 340.911,-216 340.911,-252"/>
<text text-anchor="middle" x="248" y="-229.8" font-family="Times,serif" font-size="14.00" fill="#000000">WorkstationActorComponent </text>
</g>
<!-- AtftDataCenterActorModule&#45;&gt;WorkstationActorComponent  -->
<g id="edge27" class="edge">
<title>AtftDataCenterActorModule&#45;&gt;WorkstationActorComponent </title>
<path fill="none" stroke="#000000" stroke-dasharray="5,2" d="M1334.0457,-174C1065.8233,-174 283.317,-174 283.317,-174 283.317,-174 283.317,-205.998 283.317,-205.998"/>
<polygon fill="#000000" stroke="#000000" points="279.8171,-205.998 283.317,-215.998 286.8171,-205.9981 279.8171,-205.998"/>
</g>
<!-- AtftModule -->
<g id="node15" class="node">
<title>AtftModule</title>
<polygon fill="#8dd3c7" stroke="#000000" points="338.0983,-122 335.0983,-126 314.0983,-126 311.0983,-122 255.9017,-122 255.9017,-86 338.0983,-86 338.0983,-122"/>
<text text-anchor="middle" x="297" y="-99.8" font-family="Times,serif" font-size="14.00" fill="#000000">AtftModule</text>
</g>
<!-- AtftModule&#45;&gt;AtftDataCenterActorModule -->
<g id="edge14" class="edge">
<title>AtftModule&#45;&gt;AtftDataCenterActorModule</title>
<path fill="none" stroke="#000000" d="M310.683,-122.1686C310.683,-141.0898 310.683,-168 310.683,-168 310.683,-168 1323.8547,-168 1323.8547,-168"/>
<polygon fill="#000000" stroke="#000000" points="1323.8547,-171.5001 1333.8547,-168 1323.8547,-164.5001 1323.8547,-171.5001"/>
</g>
<!-- ActorRepositoryService -->
<g id="node29" class="node">
<title>ActorRepositoryService</title>
<ellipse fill="#fdb462" stroke="#000000" cx="128" cy="-104" rx="104.2111" ry="18"/>
<text text-anchor="middle" x="128" y="-99.8" font-family="Times,serif" font-size="14.00" fill="#000000">ActorRepositoryService</text>
</g>
<!-- ActorRepositoryService&#45;&gt;AtftDataCenterActorModule -->
<g id="edge28" class="edge">
<title>ActorRepositoryService&#45;&gt;AtftDataCenterActorModule</title>
<path fill="none" stroke="#000000" d="M193.7,-118.209C193.7,-137.8762 193.7,-171 193.7,-171 193.7,-171 1324.0973,-171 1324.0973,-171"/>
<polygon fill="#000000" stroke="#000000" points="1324.0973,-174.5001 1334.0973,-171 1324.0972,-167.5001 1324.0973,-174.5001"/>
</g>
</g>
</svg>
