<?xml version="1.0" encoding="UTF-8" standalone="no"?>
<!DOCTYPE svg PUBLIC "-//W3C//DTD SVG 1.1//EN"
 "http://www.w3.org/Graphics/SVG/1.1/DTD/svg11.dtd">
<!-- Generated by graphviz version 2.40.1 (20161225.0304)
 -->
<!-- Title: dependencies Pages: 1 -->
<svg width="2183pt" height="284pt"
 viewBox="0.00 0.00 2183.00 284.00" xmlns="http://www.w3.org/2000/svg" xmlns:xlink="http://www.w3.org/1999/xlink">
<g id="graph0" class="graph" transform="scale(1 1) rotate(0) translate(4 280)">
<title>dependencies</title>
<polygon fill="#ffffff" stroke="transparent" points="-4,4 -4,-280 2179,-280 2179,4 -4,4"/>
<text text-anchor="start" x="1066.5091" y="-42.4" font-family="sans-serif" font-weight="bold" font-size="14.00" fill="#000000">Legend</text>
<polygon fill="#ffffb3" stroke="transparent" points="853.5,-10 853.5,-30 873.5,-30 873.5,-10 853.5,-10"/>
<text text-anchor="start" x="877.129" y="-15.4" font-family="sans-serif" font-size="14.00" fill="#000000"> &#160;Declarations</text>
<polygon fill="#8dd3c7" stroke="transparent" points="966.5,-10 966.5,-30 986.5,-30 986.5,-10 966.5,-10"/>
<text text-anchor="start" x="990.2251" y="-15.4" font-family="sans-serif" font-size="14.00" fill="#000000"> &#160;Module</text>
<polygon fill="#80b1d3" stroke="transparent" points="1052.5,-10 1052.5,-30 1072.5,-30 1072.5,-10 1052.5,-10"/>
<text text-anchor="start" x="1076.2812" y="-15.4" font-family="sans-serif" font-size="14.00" fill="#000000"> &#160;Bootstrap</text>
<polygon fill="#fdb462" stroke="transparent" points="1149.5,-10 1149.5,-30 1169.5,-30 1169.5,-10 1149.5,-10"/>
<text text-anchor="start" x="1173.1732" y="-15.4" font-family="sans-serif" font-size="14.00" fill="#000000"> &#160;Providers</text>
<polygon fill="#fb8072" stroke="transparent" points="1245.5,-10 1245.5,-30 1265.5,-30 1265.5,-10 1245.5,-10"/>
<text text-anchor="start" x="1269.2258" y="-15.4" font-family="sans-serif" font-size="14.00" fill="#000000"> &#160;Exports</text>
<g id="clust1" class="cluster">
<title>cluster_AtftDataCenterActorModule</title>
<polygon fill="none" stroke="#000000" stroke-dasharray="1,5" points="8,-70 8,-268 2167,-268 2167,-70 8,-70"/>
</g>
<g id="clust2" class="cluster">
<title>cluster_AtftDataCenterActorModule_declarations</title>
<polygon fill="none" stroke="#000000" points="122,-78 122,-130 2159,-130 2159,-78 122,-78"/>
</g>
<g id="clust14" class="cluster">
<title>cluster_AtftDataCenterActorModule_imports</title>
<polygon fill="none" stroke="#000000" points="16,-78 16,-130 114,-130 114,-78 16,-78"/>
</g>
<g id="clust15" class="cluster">
<title>cluster_AtftDataCenterActorModule_exports</title>
<polygon fill="none" stroke="#000000" points="48,-208 48,-260 2126,-260 2126,-208 48,-208"/>
</g>
<!-- DagreCompositionComponent -->
<g id="node1" class="node">
<title>DagreCompositionComponent</title>
<polygon fill="#ffffb3" stroke="#000000" points="2150.8724,-122 1963.1276,-122 1963.1276,-86 2150.8724,-86 2150.8724,-122"/>
<text text-anchor="middle" x="2057" y="-99.8" font-family="Times,serif" font-size="14.00" fill="#000000">DagreCompositionComponent</text>
</g>
<!-- AtftDataCenterActorModule -->
<g id="node12" class="node">
<title>AtftDataCenterActorModule</title>
<polygon fill="#8dd3c7" stroke="#000000" points="1251.7142,-187 1248.7142,-191 1227.7142,-191 1224.7142,-187 1074.2858,-187 1074.2858,-151 1251.7142,-151 1251.7142,-187"/>
<text text-anchor="middle" x="1163" y="-164.8" font-family="Times,serif" font-size="14.00" fill="#000000">AtftDataCenterActorModule</text>
</g>
<!-- DagreCompositionComponent&#45;&gt;AtftDataCenterActorModule -->
<g id="edge1" class="edge">
<title>DagreCompositionComponent&#45;&gt;AtftDataCenterActorModule</title>
<path fill="none" stroke="#000000" d="M2040.375,-122.1061C2040.375,-141.3391 2040.375,-169 2040.375,-169 2040.375,-169 1261.9557,-169 1261.9557,-169"/>
<polygon fill="#000000" stroke="#000000" points="1261.9558,-165.5001 1251.9557,-169 1261.9557,-172.5001 1261.9558,-165.5001"/>
</g>
<!-- DagreEdgeComponent -->
<g id="node2" class="node">
<title>DagreEdgeComponent</title>
<polygon fill="#ffffb3" stroke="#000000" points="1945.2963,-122 1800.7037,-122 1800.7037,-86 1945.2963,-86 1945.2963,-122"/>
<text text-anchor="middle" x="1873" y="-99.8" font-family="Times,serif" font-size="14.00" fill="#000000">DagreEdgeComponent</text>
</g>
<!-- DagreEdgeComponent&#45;&gt;AtftDataCenterActorModule -->
<g id="edge2" class="edge">
<title>DagreEdgeComponent&#45;&gt;AtftDataCenterActorModule</title>
<path fill="none" stroke="#000000" d="M1854.375,-122.2667C1854.375,-140.5552 1854.375,-166 1854.375,-166 1854.375,-166 1261.9698,-166 1261.9698,-166"/>
<polygon fill="#000000" stroke="#000000" points="1261.9698,-162.5001 1251.9698,-166 1261.9698,-169.5001 1261.9698,-162.5001"/>
</g>
<!-- DagreLayoutComponent -->
<g id="node3" class="node">
<title>DagreLayoutComponent</title>
<polygon fill="#ffffb3" stroke="#000000" points="1782.6867,-122 1627.3133,-122 1627.3133,-86 1782.6867,-86 1782.6867,-122"/>
<text text-anchor="middle" x="1705" y="-99.8" font-family="Times,serif" font-size="14.00" fill="#000000">DagreLayoutComponent</text>
</g>
<!-- DagreLayoutComponent&#45;&gt;AtftDataCenterActorModule -->
<g id="edge3" class="edge">
<title>DagreLayoutComponent&#45;&gt;AtftDataCenterActorModule</title>
<path fill="none" stroke="#000000" d="M1684.875,-122.0336C1684.875,-139.0597 1684.875,-162 1684.875,-162 1684.875,-162 1261.8246,-162 1261.8246,-162"/>
<polygon fill="#000000" stroke="#000000" points="1261.8246,-158.5001 1251.8246,-162 1261.8245,-165.5001 1261.8246,-158.5001"/>
</g>
<!-- DagreNodeComponent -->
<g id="node4" class="node">
<title>DagreNodeComponent</title>
<polygon fill="#ffffb3" stroke="#000000" points="1608.8501,-122 1463.1499,-122 1463.1499,-86 1608.8501,-86 1608.8501,-122"/>
<text text-anchor="middle" x="1536" y="-99.8" font-family="Times,serif" font-size="14.00" fill="#000000">DagreNodeComponent</text>
</g>
<!-- DagreNodeComponent&#45;&gt;AtftDataCenterActorModule -->
<g id="edge4" class="edge">
<title>DagreNodeComponent&#45;&gt;AtftDataCenterActorModule</title>
<path fill="none" stroke="#000000" d="M1514.375,-122.0091C1514.375,-138.0494 1514.375,-159 1514.375,-159 1514.375,-159 1262.121,-159 1262.121,-159"/>
<polygon fill="#000000" stroke="#000000" points="1262.121,-155.5001 1252.121,-159 1262.1209,-162.5001 1262.121,-155.5001"/>
</g>
<!-- GridActorComponent -->
<g id="node5" class="node">
<title>GridActorComponent</title>
<polygon fill="#ffffb3" stroke="#000000" points="1445.3627,-122 1306.6373,-122 1306.6373,-86 1445.3627,-86 1445.3627,-122"/>
<text text-anchor="middle" x="1376" y="-99.8" font-family="Times,serif" font-size="14.00" fill="#000000">GridActorComponent</text>
</g>
<!-- GridActorComponent&#45;&gt;AtftDataCenterActorModule -->
<g id="edge5" class="edge">
<title>GridActorComponent&#45;&gt;AtftDataCenterActorModule</title>
<path fill="none" stroke="#000000" d="M1352.375,-122.1243C1352.375,-136.7832 1352.375,-155 1352.375,-155 1352.375,-155 1261.8653,-155 1261.8653,-155"/>
<polygon fill="#000000" stroke="#000000" points="1261.8653,-151.5001 1251.8653,-155 1261.8652,-158.5001 1261.8653,-151.5001"/>
</g>
<!-- LayerActorComponent -->
<g id="node6" class="node">
<title>LayerActorComponent</title>
<polygon fill="#ffffb3" stroke="#000000" points="1288.8473,-122 1143.1527,-122 1143.1527,-86 1288.8473,-86 1288.8473,-122"/>
<text text-anchor="middle" x="1216" y="-99.8" font-family="Times,serif" font-size="14.00" fill="#000000">LayerActorComponent</text>
</g>
<!-- LayerActorComponent&#45;&gt;AtftDataCenterActorModule -->
<g id="edge6" class="edge">
<title>LayerActorComponent&#45;&gt;AtftDataCenterActorModule</title>
<path fill="none" stroke="#000000" d="M1197.4667,-122.1061C1197.4667,-122.1061 1197.4667,-140.991 1197.4667,-140.991"/>
<polygon fill="#000000" stroke="#000000" points="1193.9668,-140.9909 1197.4667,-150.991 1200.9668,-140.991 1193.9668,-140.9909"/>
</g>
<!-- ServerBarrelActorComponent -->
<g id="node7" class="node">
<title>ServerBarrelActorComponent</title>
<polygon fill="#ffffb3" stroke="#000000" points="1125.2156,-122 940.7844,-122 940.7844,-86 1125.2156,-86 1125.2156,-122"/>
<text text-anchor="middle" x="1033" y="-99.8" font-family="Times,serif" font-size="14.00" fill="#000000">ServerBarrelActorComponent</text>
</g>
<!-- ServerBarrelActorComponent&#45;&gt;AtftDataCenterActorModule -->
<g id="edge7" class="edge">
<title>ServerBarrelActorComponent&#45;&gt;AtftDataCenterActorModule</title>
<path fill="none" stroke="#000000" d="M1099.7504,-122.1061C1099.7504,-122.1061 1099.7504,-140.991 1099.7504,-140.991"/>
<polygon fill="#000000" stroke="#000000" points="1096.2504,-140.9909 1099.7504,-150.991 1103.2504,-140.991 1096.2504,-140.9909"/>
</g>
<!-- ServerCompactActorComponent -->
<g id="node8" class="node">
<title>ServerCompactActorComponent</title>
<polygon fill="#ffffb3" stroke="#000000" points="922.285,-122 721.715,-122 721.715,-86 922.285,-86 922.285,-122"/>
<text text-anchor="middle" x="822" y="-99.8" font-family="Times,serif" font-size="14.00" fill="#000000">ServerCompactActorComponent</text>
</g>
<!-- ServerCompactActorComponent&#45;&gt;AtftDataCenterActorModule -->
<g id="edge8" class="edge">
<title>ServerCompactActorComponent&#45;&gt;AtftDataCenterActorModule</title>
<path fill="none" stroke="#000000" d="M902.0174,-122.1243C902.0174,-136.7832 902.0174,-155 902.0174,-155 902.0174,-155 1064.279,-155 1064.279,-155"/>
<polygon fill="#000000" stroke="#000000" points="1064.279,-158.5001 1074.279,-155 1064.279,-151.5001 1064.279,-158.5001"/>
</g>
<!-- ServerIconActorComponent -->
<g id="node9" class="node">
<title>ServerIconActorComponent</title>
<polygon fill="#ffffb3" stroke="#000000" points="704.1134,-122 529.8866,-122 529.8866,-86 704.1134,-86 704.1134,-122"/>
<text text-anchor="middle" x="617" y="-99.8" font-family="Times,serif" font-size="14.00" fill="#000000">ServerIconActorComponent</text>
</g>
<!-- ServerIconActorComponent&#45;&gt;AtftDataCenterActorModule -->
<g id="edge9" class="edge">
<title>ServerIconActorComponent&#45;&gt;AtftDataCenterActorModule</title>
<path fill="none" stroke="#000000" d="M682.2071,-122.0091C682.2071,-138.0494 682.2071,-159 682.2071,-159 682.2071,-159 1064.2549,-159 1064.2549,-159"/>
<polygon fill="#000000" stroke="#000000" points="1064.2549,-162.5001 1074.2549,-159 1064.2548,-155.5001 1064.2549,-162.5001"/>
</g>
<!-- ServerStandActorComponent -->
<g id="node10" class="node">
<title>ServerStandActorComponent</title>
<polygon fill="#ffffb3" stroke="#000000" points="511.626,-122 330.374,-122 330.374,-86 511.626,-86 511.626,-122"/>
<text text-anchor="middle" x="421" y="-99.8" font-family="Times,serif" font-size="14.00" fill="#000000">ServerStandActorComponent</text>
</g>
<!-- ServerStandActorComponent&#45;&gt;AtftDataCenterActorModule -->
<g id="edge10" class="edge">
<title>ServerStandActorComponent&#45;&gt;AtftDataCenterActorModule</title>
<path fill="none" stroke="#000000" d="M487.8782,-122.0336C487.8782,-139.0597 487.8782,-162 487.8782,-162 487.8782,-162 1064.0454,-162 1064.0454,-162"/>
<polygon fill="#000000" stroke="#000000" points="1064.0454,-165.5001 1074.0454,-162 1064.0453,-158.5001 1064.0454,-165.5001"/>
</g>
<!-- WorkstationActorComponent -->
<g id="node11" class="node">
<title>WorkstationActorComponent</title>
<polygon fill="#ffffb3" stroke="#000000" points="312.4115,-122 129.5885,-122 129.5885,-86 312.4115,-86 312.4115,-122"/>
<text text-anchor="middle" x="221" y="-99.8" font-family="Times,serif" font-size="14.00" fill="#000000">WorkstationActorComponent</text>
</g>
<!-- WorkstationActorComponent&#45;&gt;AtftDataCenterActorModule -->
<g id="edge11" class="edge">
<title>WorkstationActorComponent&#45;&gt;AtftDataCenterActorModule</title>
<path fill="none" stroke="#000000" d="M286.3214,-122.2667C286.3214,-140.5552 286.3214,-166 286.3213,-166 286.3213,-166 1064.1149,-166 1064.1149,-166"/>
<polygon fill="#000000" stroke="#000000" points="1064.1149,-169.5001 1074.1149,-166 1064.1148,-162.5001 1064.1149,-169.5001"/>
</g>
<!-- DagreCompositionComponent  -->
<g id="node14" class="node">
<title>DagreCompositionComponent </title>
<polygon fill="#fb8072" stroke="#000000" points="2117.8728,-252 1926.1272,-252 1926.1272,-216 2117.8728,-216 2117.8728,-252"/>
<text text-anchor="middle" x="2022" y="-229.8" font-family="Times,serif" font-size="14.00" fill="#000000">DagreCompositionComponent </text>
</g>
<!-- AtftDataCenterActorModule&#45;&gt;DagreCompositionComponent  -->
<g id="edge13" class="edge">
<title>AtftDataCenterActorModule&#45;&gt;DagreCompositionComponent </title>
<path fill="none" stroke="#000000" stroke-dasharray="5,2" d="M1252.0192,-173C1455.2087,-173 1935.7309,-173 1935.7309,-173 1935.7309,-173 1935.7309,-205.698 1935.7309,-205.698"/>
<polygon fill="#000000" stroke="#000000" points="1932.231,-205.698 1935.7309,-215.698 1939.231,-205.698 1932.231,-205.698"/>
</g>
<!-- DagreEdgeComponent  -->
<g id="node15" class="node">
<title>DagreEdgeComponent </title>
<polygon fill="#fb8072" stroke="#000000" points="1907.7961,-252 1760.2039,-252 1760.2039,-216 1907.7961,-216 1907.7961,-252"/>
<text text-anchor="middle" x="1834" y="-229.8" font-family="Times,serif" font-size="14.00" fill="#000000">DagreEdgeComponent </text>
</g>
<!-- AtftDataCenterActorModule&#45;&gt;DagreEdgeComponent  -->
<g id="edge14" class="edge">
<title>AtftDataCenterActorModule&#45;&gt;DagreEdgeComponent </title>
<path fill="none" stroke="#000000" stroke-dasharray="5,2" d="M1251.7845,-177C1420.634,-177 1771.3477,-177 1771.3477,-177 1771.3477,-177 1771.3477,-205.9648 1771.3477,-205.9648"/>
<polygon fill="#000000" stroke="#000000" points="1767.8477,-205.9648 1771.3477,-215.9648 1774.8477,-205.9649 1767.8477,-205.9648"/>
</g>
<!-- DagreLayoutComponent  -->
<g id="node16" class="node">
<title>DagreLayoutComponent </title>
<polygon fill="#fb8072" stroke="#000000" points="1742.1869,-252 1583.8131,-252 1583.8131,-216 1742.1869,-216 1742.1869,-252"/>
<text text-anchor="middle" x="1663" y="-229.8" font-family="Times,serif" font-size="14.00" fill="#000000">DagreLayoutComponent </text>
</g>
<!-- AtftDataCenterActorModule&#45;&gt;DagreLayoutComponent  -->
<g id="edge15" class="edge">
<title>AtftDataCenterActorModule&#45;&gt;DagreLayoutComponent </title>
<path fill="none" stroke="#000000" stroke-dasharray="5,2" d="M1251.7284,-180C1378.4934,-180 1596.2908,-180 1596.2908,-180 1596.2908,-180 1596.2908,-205.7181 1596.2908,-205.7181"/>
<polygon fill="#000000" stroke="#000000" points="1592.7909,-205.718 1596.2908,-215.7181 1599.7909,-205.7181 1592.7909,-205.718"/>
</g>
<!-- DagreNodeComponent  -->
<g id="node17" class="node">
<title>DagreNodeComponent </title>
<polygon fill="#fb8072" stroke="#000000" points="1565.8504,-252 1416.1496,-252 1416.1496,-216 1565.8504,-216 1565.8504,-252"/>
<text text-anchor="middle" x="1491" y="-229.8" font-family="Times,serif" font-size="14.00" fill="#000000">DagreNodeComponent </text>
</g>
<!-- AtftDataCenterActorModule&#45;&gt;DagreNodeComponent  -->
<g id="edge16" class="edge">
<title>AtftDataCenterActorModule&#45;&gt;DagreNodeComponent </title>
<path fill="none" stroke="#000000" stroke-dasharray="5,2" d="M1251.8275,-184C1329.8043,-184 1430.8782,-184 1430.8782,-184 1430.8782,-184 1430.8782,-205.9489 1430.8782,-205.9489"/>
<polygon fill="#000000" stroke="#000000" points="1427.3782,-205.9488 1430.8782,-215.9489 1434.3782,-205.9489 1427.3782,-205.9488"/>
</g>
<!-- GridActorComponent  -->
<g id="node18" class="node">
<title>GridActorComponent </title>
<polygon fill="#fb8072" stroke="#000000" points="1398.3631,-252 1255.6369,-252 1255.6369,-216 1398.3631,-216 1398.3631,-252"/>
<text text-anchor="middle" x="1327" y="-229.8" font-family="Times,serif" font-size="14.00" fill="#000000">GridActorComponent </text>
</g>
<!-- AtftDataCenterActorModule&#45;&gt;GridActorComponent  -->
<g id="edge17" class="edge">
<title>AtftDataCenterActorModule&#45;&gt;GridActorComponent </title>
<path fill="none" stroke="#000000" stroke-dasharray="5,2" d="M1244.7653,-187.1061C1244.7653,-206.3391 1244.7653,-234 1244.7653,-234 1244.7653,-234 1245.8404,-234 1245.8404,-234"/>
<polygon fill="#000000" stroke="#000000" points="1245.5161,-237.5001 1255.5161,-234 1245.516,-230.5001 1245.5161,-237.5001"/>
</g>
<!-- LayerActorComponent  -->
<g id="node19" class="node">
<title>LayerActorComponent </title>
<polygon fill="#fb8072" stroke="#000000" points="1237.8476,-252 1088.1524,-252 1088.1524,-216 1237.8476,-216 1237.8476,-252"/>
<text text-anchor="middle" x="1163" y="-229.8" font-family="Times,serif" font-size="14.00" fill="#000000">LayerActorComponent </text>
</g>
<!-- AtftDataCenterActorModule&#45;&gt;LayerActorComponent  -->
<g id="edge18" class="edge">
<title>AtftDataCenterActorModule&#45;&gt;LayerActorComponent </title>
<path fill="none" stroke="#000000" stroke-dasharray="5,2" d="M1163,-187.1061C1163,-187.1061 1163,-205.991 1163,-205.991"/>
<polygon fill="#000000" stroke="#000000" points="1159.5001,-205.9909 1163,-215.991 1166.5001,-205.991 1159.5001,-205.9909"/>
</g>
<!-- ServerBarrelActorComponent  -->
<g id="node20" class="node">
<title>ServerBarrelActorComponent </title>
<polygon fill="#fb8072" stroke="#000000" points="1070.2155,-252 881.7845,-252 881.7845,-216 1070.2155,-216 1070.2155,-252"/>
<text text-anchor="middle" x="976" y="-229.8" font-family="Times,serif" font-size="14.00" fill="#000000">ServerBarrelActorComponent </text>
</g>
<!-- AtftDataCenterActorModule&#45;&gt;ServerBarrelActorComponent  -->
<g id="edge19" class="edge">
<title>AtftDataCenterActorModule&#45;&gt;ServerBarrelActorComponent </title>
<path fill="none" stroke="#000000" stroke-dasharray="5,2" d="M1081.2347,-187.1061C1081.2347,-206.3391 1081.2347,-234 1081.2347,-234 1081.2347,-234 1080.1481,-234 1080.1481,-234"/>
<polygon fill="#000000" stroke="#000000" points="1080.3691,-230.5001 1070.3691,-234 1080.3691,-237.5001 1080.3691,-230.5001"/>
</g>
<!-- ServerCompactActorComponent  -->
<g id="node21" class="node">
<title>ServerCompactActorComponent </title>
<polygon fill="#fb8072" stroke="#000000" points="863.7849,-252 660.2151,-252 660.2151,-216 863.7849,-216 863.7849,-252"/>
<text text-anchor="middle" x="762" y="-229.8" font-family="Times,serif" font-size="14.00" fill="#000000">ServerCompactActorComponent </text>
</g>
<!-- AtftDataCenterActorModule&#45;&gt;ServerCompactActorComponent  -->
<g id="edge20" class="edge">
<title>AtftDataCenterActorModule&#45;&gt;ServerCompactActorComponent </title>
<path fill="none" stroke="#000000" stroke-dasharray="5,2" d="M1073.8748,-184C964.3552,-184 792.875,-184 792.875,-184 792.875,-184 792.875,-205.9489 792.875,-205.9489"/>
<polygon fill="#000000" stroke="#000000" points="789.3751,-205.9488 792.875,-215.9489 796.3751,-205.9489 789.3751,-205.9488"/>
</g>
<!-- ServerIconActorComponent  -->
<g id="node22" class="node">
<title>ServerIconActorComponent </title>
<polygon fill="#fb8072" stroke="#000000" points="642.113,-252 463.887,-252 463.887,-216 642.113,-216 642.113,-252"/>
<text text-anchor="middle" x="553" y="-229.8" font-family="Times,serif" font-size="14.00" fill="#000000">ServerIconActorComponent </text>
</g>
<!-- AtftDataCenterActorModule&#45;&gt;ServerIconActorComponent  -->
<g id="edge21" class="edge">
<title>AtftDataCenterActorModule&#45;&gt;ServerIconActorComponent </title>
<path fill="none" stroke="#000000" stroke-dasharray="5,2" d="M1074.089,-180C912.2008,-180 585.875,-180 585.875,-180 585.875,-180 585.875,-205.7181 585.875,-205.7181"/>
<polygon fill="#000000" stroke="#000000" points="582.3751,-205.718 585.875,-215.7181 589.3751,-205.7181 582.3751,-205.718"/>
</g>
<!-- ServerStandActorComponent  -->
<g id="node23" class="node">
<title>ServerStandActorComponent </title>
<polygon fill="#fb8072" stroke="#000000" points="445.6256,-252 260.3744,-252 260.3744,-216 445.6256,-216 445.6256,-252"/>
<text text-anchor="middle" x="353" y="-229.8" font-family="Times,serif" font-size="14.00" fill="#000000">ServerStandActorComponent </text>
</g>
<!-- AtftDataCenterActorModule&#45;&gt;ServerStandActorComponent  -->
<g id="edge22" class="edge">
<title>AtftDataCenterActorModule&#45;&gt;ServerStandActorComponent </title>
<path fill="none" stroke="#000000" stroke-dasharray="5,2" d="M1074.0833,-177C870.483,-177 387.875,-177 387.875,-177 387.875,-177 387.875,-205.9648 387.875,-205.9648"/>
<polygon fill="#000000" stroke="#000000" points="384.3751,-205.9648 387.875,-215.9648 391.3751,-205.9649 384.3751,-205.9648"/>
</g>
<!-- WorkstationActorComponent  -->
<g id="node24" class="node">
<title>WorkstationActorComponent </title>
<polygon fill="#fb8072" stroke="#000000" points="241.911,-252 56.089,-252 56.089,-216 241.911,-216 241.911,-252"/>
<text text-anchor="middle" x="149" y="-229.8" font-family="Times,serif" font-size="14.00" fill="#000000">WorkstationActorComponent </text>
</g>
<!-- AtftDataCenterActorModule&#45;&gt;WorkstationActorComponent  -->
<g id="edge23" class="edge">
<title>AtftDataCenterActorModule&#45;&gt;WorkstationActorComponent </title>
<path fill="none" stroke="#000000" stroke-dasharray="5,2" d="M1074.1303,-173C833.2582,-173 185.875,-173 185.875,-173 185.875,-173 185.875,-205.698 185.875,-205.698"/>
<polygon fill="#000000" stroke="#000000" points="182.3751,-205.698 185.875,-215.698 189.3751,-205.698 182.3751,-205.698"/>
</g>
<!-- AtftModule -->
<g id="node13" class="node">
<title>AtftModule</title>
<polygon fill="#8dd3c7" stroke="#000000" points="106.0983,-122 103.0983,-126 82.0983,-126 79.0983,-122 23.9017,-122 23.9017,-86 106.0983,-86 106.0983,-122"/>
<text text-anchor="middle" x="65" y="-99.8" font-family="Times,serif" font-size="14.00" fill="#000000">AtftModule</text>
</g>
<!-- AtftModule&#45;&gt;AtftDataCenterActorModule -->
<g id="edge12" class="edge">
<title>AtftModule&#45;&gt;AtftDataCenterActorModule</title>
<path fill="none" stroke="#000000" d="M81.0468,-122.1061C81.0468,-141.3391 81.0468,-169 81.0468,-169 81.0468,-169 1063.9995,-169 1063.9995,-169"/>
<polygon fill="#000000" stroke="#000000" points="1063.9995,-172.5001 1073.9995,-169 1063.9994,-165.5001 1063.9995,-172.5001"/>
</g>
</g>
</svg>
