<?xml version="1.0" encoding="UTF-8" standalone="no"?>
<!DOCTYPE svg PUBLIC "-//W3C//DTD SVG 1.1//EN"
 "http://www.w3.org/Graphics/SVG/1.1/DTD/svg11.dtd">
<!-- Generated by graphviz version 2.47.0 (20210316.0004)
 -->
<!-- Title: dependencies Pages: 1 -->
<svg width="2783pt" height="284pt"
 viewBox="0.00 0.00 2783.00 284.00" xmlns="http://www.w3.org/2000/svg" xmlns:xlink="http://www.w3.org/1999/xlink">
<g id="graph0" class="graph" transform="scale(1 1) rotate(0) translate(4 280)">
<title>dependencies</title>
<polygon fill="white" stroke="transparent" points="-4,4 -4,-280 2779,-280 2779,4 -4,4"/>
<text text-anchor="start" x="1366.51" y="-42.4" font-family="Times-12" font-weight="bold" font-size="14.00">Legend</text>
<polygon fill="#ffffb3" stroke="transparent" points="1153.5,-10 1153.5,-30 1173.5,-30 1173.5,-10 1153.5,-10"/>
<text text-anchor="start" x="1177.13" y="-15.4" font-family="Times-12" font-size="14.00"> &#160;Declarations</text>
<polygon fill="#8dd3c7" stroke="transparent" points="1266.5,-10 1266.5,-30 1286.5,-30 1286.5,-10 1266.5,-10"/>
<text text-anchor="start" x="1290.23" y="-15.4" font-family="Times-12" font-size="14.00"> &#160;Module</text>
<polygon fill="#80b1d3" stroke="transparent" points="1352.5,-10 1352.5,-30 1372.5,-30 1372.5,-10 1352.5,-10"/>
<text text-anchor="start" x="1376.28" y="-15.4" font-family="Times-12" font-size="14.00"> &#160;Bootstrap</text>
<polygon fill="#fdb462" stroke="transparent" points="1449.5,-10 1449.5,-30 1469.5,-30 1469.5,-10 1449.5,-10"/>
<text text-anchor="start" x="1473.17" y="-15.4" font-family="Times-12" font-size="14.00"> &#160;Providers</text>
<polygon fill="#fb8072" stroke="transparent" points="1545.5,-10 1545.5,-30 1565.5,-30 1565.5,-10 1545.5,-10"/>
<text text-anchor="start" x="1569.23" y="-15.4" font-family="Times-12" font-size="14.00"> &#160;Exports</text>
<g id="clust1" class="cluster">
<title>cluster_AtftDataCenterActorModule</title>
<polygon fill="none" stroke="black" stroke-dasharray="1,5" points="8,-70 8,-268 2767,-268 2767,-70 8,-70"/>
</g>
<g id="clust2" class="cluster">
<title>cluster_AtftDataCenterActorModule_declarations</title>
<polygon fill="none" stroke="black" points="354,-78 354,-130 2759,-130 2759,-78 354,-78"/>
</g>
<g id="clust16" class="cluster">
<title>cluster_AtftDataCenterActorModule_imports</title>
<polygon fill="none" stroke="black" points="248,-78 248,-130 346,-130 346,-78 248,-78"/>
</g>
<g id="clust17" class="cluster">
<title>cluster_AtftDataCenterActorModule_exports</title>
<polygon fill="none" stroke="black" points="164,-208 164,-260 2616,-260 2616,-208 164,-208"/>
</g>
<g id="clust19" class="cluster">
<title>cluster_AtftDataCenterActorModule_providers</title>
<polygon fill="none" stroke="black" points="16,-78 16,-130 240,-130 240,-78 16,-78"/>
</g>
<!-- DagreCompositionComponent -->
<g id="node1" class="node">
<title>DagreCompositionComponent</title>
<polygon fill="#ffffb3" stroke="black" points="2750.87,-122 2563.13,-122 2563.13,-86 2750.87,-86 2750.87,-122"/>
<text text-anchor="middle" x="2657" y="-99.8" font-family="Times,serif" font-size="14.00">DagreCompositionComponent</text>
</g>
<!-- AtftDataCenterActorModule -->
<g id="node14" class="node">
<title>AtftDataCenterActorModule</title>
<polygon fill="#8dd3c7" stroke="black" points="1538.71,-187 1535.71,-191 1514.71,-191 1511.71,-187 1361.29,-187 1361.29,-151 1538.71,-151 1538.71,-187"/>
<text text-anchor="middle" x="1450" y="-164.8" font-family="Times,serif" font-size="14.00">AtftDataCenterActorModule</text>
</g>
<!-- DagreCompositionComponent&#45;&gt;AtftDataCenterActorModule -->
<g id="edge1" class="edge">
<title>DagreCompositionComponent&#45;&gt;AtftDataCenterActorModule</title>
<path fill="none" stroke="black" d="M2585.38,-122.11C2585.38,-141.34 2585.38,-169 2585.38,-169 2585.38,-169 1549.09,-169 1549.09,-169"/>
<polygon fill="black" stroke="black" points="1549.09,-165.5 1539.09,-169 1549.09,-172.5 1549.09,-165.5"/>
</g>
<!-- DagreEdgeComponent -->
<g id="node2" class="node">
<title>DagreEdgeComponent</title>
<polygon fill="#ffffb3" stroke="black" points="2545.3,-122 2400.7,-122 2400.7,-86 2545.3,-86 2545.3,-122"/>
<text text-anchor="middle" x="2473" y="-99.8" font-family="Times,serif" font-size="14.00">DagreEdgeComponent</text>
</g>
<!-- DagreEdgeComponent&#45;&gt;AtftDataCenterActorModule -->
<g id="edge2" class="edge">
<title>DagreEdgeComponent&#45;&gt;AtftDataCenterActorModule</title>
<path fill="none" stroke="black" d="M2408.58,-122.27C2408.58,-140.56 2408.58,-166 2408.58,-166 2408.58,-166 1548.89,-166 1548.89,-166"/>
<polygon fill="black" stroke="black" points="1548.89,-162.5 1538.89,-166 1548.89,-169.5 1548.89,-162.5"/>
</g>
<!-- DagreLayoutComponent -->
<g id="node3" class="node">
<title>DagreLayoutComponent</title>
<polygon fill="#ffffb3" stroke="black" points="2382.69,-122 2227.31,-122 2227.31,-86 2382.69,-86 2382.69,-122"/>
<text text-anchor="middle" x="2305" y="-99.8" font-family="Times,serif" font-size="14.00">DagreLayoutComponent</text>
</g>
<!-- DagreLayoutComponent&#45;&gt;AtftDataCenterActorModule -->
<g id="edge3" class="edge">
<title>DagreLayoutComponent&#45;&gt;AtftDataCenterActorModule</title>
<path fill="none" stroke="black" d="M2241.22,-122.02C2241.22,-139.37 2241.22,-163 2241.22,-163 2241.22,-163 1548.84,-163 1548.84,-163"/>
<polygon fill="black" stroke="black" points="1548.84,-159.5 1538.84,-163 1548.84,-166.5 1548.84,-159.5"/>
</g>
<!-- DagreNodeComponent -->
<g id="node4" class="node">
<title>DagreNodeComponent</title>
<polygon fill="#ffffb3" stroke="black" points="2208.85,-122 2063.15,-122 2063.15,-86 2208.85,-86 2208.85,-122"/>
<text text-anchor="middle" x="2136" y="-99.8" font-family="Times,serif" font-size="14.00">DagreNodeComponent</text>
</g>
<!-- DagreNodeComponent&#45;&gt;AtftDataCenterActorModule -->
<g id="edge4" class="edge">
<title>DagreNodeComponent&#45;&gt;AtftDataCenterActorModule</title>
<path fill="none" stroke="black" d="M2068.37,-122.03C2068.37,-138.4 2068.37,-160 2068.37,-160 2068.37,-160 1548.93,-160 1548.93,-160"/>
<polygon fill="black" stroke="black" points="1548.93,-156.5 1538.93,-160 1548.93,-163.5 1548.93,-156.5"/>
</g>
<!-- DagreYamlParserComponent -->
<g id="node5" class="node">
<title>DagreYamlParserComponent</title>
<polygon fill="#ffffb3" stroke="black" points="2044.61,-122 1863.39,-122 1863.39,-86 2044.61,-86 2044.61,-122"/>
<text text-anchor="middle" x="1954" y="-99.8" font-family="Times,serif" font-size="14.00">DagreYamlParserComponent</text>
</g>
<!-- DagreYamlParserComponent&#45;&gt;AtftDataCenterActorModule -->
<g id="edge5" class="edge">
<title>DagreYamlParserComponent&#45;&gt;AtftDataCenterActorModule</title>
<path fill="none" stroke="black" d="M1875.88,-122.24C1875.88,-137.57 1875.88,-157 1875.88,-157 1875.88,-157 1548.76,-157 1548.76,-157"/>
<polygon fill="black" stroke="black" points="1548.76,-153.5 1538.76,-157 1548.76,-160.5 1548.76,-153.5"/>
</g>
<!-- GridActorComponent -->
<g id="node6" class="node">
<title>GridActorComponent</title>
<polygon fill="#ffffb3" stroke="black" points="1845.36,-122 1706.64,-122 1706.64,-86 1845.36,-86 1845.36,-122"/>
<text text-anchor="middle" x="1776" y="-99.8" font-family="Times,serif" font-size="14.00">GridActorComponent</text>
</g>
<!-- GridActorComponent&#45;&gt;AtftDataCenterActorModule -->
<g id="edge6" class="edge">
<title>GridActorComponent&#45;&gt;AtftDataCenterActorModule</title>
<path fill="none" stroke="black" d="M1799.14,-122.05C1799.14,-136.37 1799.14,-154 1799.14,-154 1799.14,-154 1549.01,-154 1549.01,-154"/>
<polygon fill="black" stroke="black" points="1549.01,-150.5 1539.01,-154 1549.01,-157.5 1549.01,-150.5"/>
</g>
<!-- LayerActorComponent -->
<g id="node7" class="node">
<title>LayerActorComponent</title>
<polygon fill="#ffffb3" stroke="black" points="1688.85,-122 1543.15,-122 1543.15,-86 1688.85,-86 1688.85,-122"/>
<text text-anchor="middle" x="1616" y="-99.8" font-family="Times,serif" font-size="14.00">LayerActorComponent</text>
</g>
<!-- LayerActorComponent&#45;&gt;AtftDataCenterActorModule -->
<g id="edge7" class="edge">
<title>LayerActorComponent&#45;&gt;AtftDataCenterActorModule</title>
<path fill="none" stroke="black" d="M1542.87,-104C1536.19,-104 1531.87,-104 1531.87,-104 1531.87,-104 1531.87,-140.89 1531.87,-140.89"/>
<polygon fill="black" stroke="black" points="1528.37,-140.89 1531.87,-150.89 1535.37,-140.89 1528.37,-140.89"/>
</g>
<!-- ModelActorComponent -->
<g id="node8" class="node">
<title>ModelActorComponent</title>
<polygon fill="#ffffb3" stroke="black" points="1524.75,-122 1375.25,-122 1375.25,-86 1524.75,-86 1524.75,-122"/>
<text text-anchor="middle" x="1450" y="-99.8" font-family="Times,serif" font-size="14.00">ModelActorComponent</text>
</g>
<!-- ModelActorComponent&#45;&gt;AtftDataCenterActorModule -->
<g id="edge8" class="edge">
<title>ModelActorComponent&#45;&gt;AtftDataCenterActorModule</title>
<path fill="none" stroke="black" d="M1450,-122.11C1450,-122.11 1450,-140.99 1450,-140.99"/>
<polygon fill="black" stroke="black" points="1446.5,-140.99 1450,-150.99 1453.5,-140.99 1446.5,-140.99"/>
</g>
<!-- ServerBarrelActorComponent -->
<g id="node9" class="node">
<title>ServerBarrelActorComponent</title>
<polygon fill="#ffffb3" stroke="black" points="1357.22,-122 1172.78,-122 1172.78,-86 1357.22,-86 1357.22,-122"/>
<text text-anchor="middle" x="1265" y="-99.8" font-family="Times,serif" font-size="14.00">ServerBarrelActorComponent</text>
</g>
<!-- ServerBarrelActorComponent&#45;&gt;AtftDataCenterActorModule -->
<g id="edge9" class="edge">
<title>ServerBarrelActorComponent&#45;&gt;AtftDataCenterActorModule</title>
<path fill="none" stroke="black" d="M1357.48,-104C1364.04,-104 1368.13,-104 1368.13,-104 1368.13,-104 1368.13,-140.89 1368.13,-140.89"/>
<polygon fill="black" stroke="black" points="1364.63,-140.89 1368.13,-150.89 1371.63,-140.89 1364.63,-140.89"/>
</g>
<!-- ServerCompactActorComponent -->
<g id="node10" class="node">
<title>ServerCompactActorComponent</title>
<polygon fill="#ffffb3" stroke="black" points="1154.29,-122 953.71,-122 953.71,-86 1154.29,-86 1154.29,-122"/>
<text text-anchor="middle" x="1054" y="-99.8" font-family="Times,serif" font-size="14.00">ServerCompactActorComponent</text>
</g>
<!-- ServerCompactActorComponent&#45;&gt;AtftDataCenterActorModule -->
<g id="edge10" class="edge">
<title>ServerCompactActorComponent&#45;&gt;AtftDataCenterActorModule</title>
<path fill="none" stroke="black" d="M1076.02,-122.05C1076.02,-136.37 1076.02,-154 1076.02,-154 1076.02,-154 1350.9,-154 1350.9,-154"/>
<polygon fill="black" stroke="black" points="1350.9,-157.5 1360.9,-154 1350.9,-150.5 1350.9,-157.5"/>
</g>
<!-- ServerIconActorComponent -->
<g id="node11" class="node">
<title>ServerIconActorComponent</title>
<polygon fill="#ffffb3" stroke="black" points="936.11,-122 761.89,-122 761.89,-86 936.11,-86 936.11,-122"/>
<text text-anchor="middle" x="849" y="-99.8" font-family="Times,serif" font-size="14.00">ServerIconActorComponent</text>
</g>
<!-- ServerIconActorComponent&#45;&gt;AtftDataCenterActorModule -->
<g id="edge11" class="edge">
<title>ServerIconActorComponent&#45;&gt;AtftDataCenterActorModule</title>
<path fill="none" stroke="black" d="M856.21,-122.24C856.21,-137.57 856.21,-157 856.21,-157 856.21,-157 1351.1,-157 1351.1,-157"/>
<polygon fill="black" stroke="black" points="1351.1,-160.5 1361.1,-157 1351.1,-153.5 1351.1,-160.5"/>
</g>
<!-- ServerStandActorComponent -->
<g id="node12" class="node">
<title>ServerStandActorComponent</title>
<polygon fill="#ffffb3" stroke="black" points="743.63,-122 562.37,-122 562.37,-86 743.63,-86 743.63,-122"/>
<text text-anchor="middle" x="653" y="-99.8" font-family="Times,serif" font-size="14.00">ServerStandActorComponent</text>
</g>
<!-- ServerStandActorComponent&#45;&gt;AtftDataCenterActorModule -->
<g id="edge12" class="edge">
<title>ServerStandActorComponent&#45;&gt;AtftDataCenterActorModule</title>
<path fill="none" stroke="black" d="M661.88,-122.03C661.88,-138.4 661.88,-160 661.88,-160 661.88,-160 1351.12,-160 1351.12,-160"/>
<polygon fill="black" stroke="black" points="1351.12,-163.5 1361.12,-160 1351.12,-156.5 1351.12,-163.5"/>
</g>
<!-- WorkstationActorComponent -->
<g id="node13" class="node">
<title>WorkstationActorComponent</title>
<polygon fill="#ffffb3" stroke="black" points="544.41,-122 361.59,-122 361.59,-86 544.41,-86 544.41,-122"/>
<text text-anchor="middle" x="453" y="-99.8" font-family="Times,serif" font-size="14.00">WorkstationActorComponent</text>
</g>
<!-- WorkstationActorComponent&#45;&gt;AtftDataCenterActorModule -->
<g id="edge13" class="edge">
<title>WorkstationActorComponent&#45;&gt;AtftDataCenterActorModule</title>
<path fill="none" stroke="black" d="M460.32,-122.02C460.32,-139.37 460.32,-163 460.32,-163 460.32,-163 1350.86,-163 1350.86,-163"/>
<polygon fill="black" stroke="black" points="1350.86,-166.5 1360.86,-163 1350.86,-159.5 1350.86,-166.5"/>
</g>
<!-- DagreCompositionComponent  -->
<g id="node16" class="node">
<title>DagreCompositionComponent </title>
<polygon fill="#fb8072" stroke="black" points="2607.87,-252 2416.13,-252 2416.13,-216 2607.87,-216 2607.87,-252"/>
<text text-anchor="middle" x="2512" y="-229.8" font-family="Times,serif" font-size="14.00">DagreCompositionComponent </text>
</g>
<!-- AtftDataCenterActorModule&#45;&gt;DagreCompositionComponent  -->
<g id="edge15" class="edge">
<title>AtftDataCenterActorModule&#45;&gt;DagreCompositionComponent </title>
<path fill="none" stroke="black" stroke-dasharray="5,2" d="M1538.77,-172C1788.79,-172 2480.73,-172 2480.73,-172 2480.73,-172 2480.73,-205.73 2480.73,-205.73"/>
<polygon fill="black" stroke="black" points="2477.23,-205.73 2480.73,-215.73 2484.23,-205.73 2477.23,-205.73"/>
</g>
<!-- DagreEdgeComponent  -->
<g id="node17" class="node">
<title>DagreEdgeComponent </title>
<polygon fill="#fb8072" stroke="black" points="2397.8,-252 2250.2,-252 2250.2,-216 2397.8,-216 2397.8,-252"/>
<text text-anchor="middle" x="2324" y="-229.8" font-family="Times,serif" font-size="14.00">DagreEdgeComponent </text>
</g>
<!-- AtftDataCenterActorModule&#45;&gt;DagreEdgeComponent  -->
<g id="edge16" class="edge">
<title>AtftDataCenterActorModule&#45;&gt;DagreEdgeComponent </title>
<path fill="none" stroke="black" stroke-dasharray="5,2" d="M1539.05,-175C1760.12,-175 2316.35,-175 2316.35,-175 2316.35,-175 2316.35,-205.98 2316.35,-205.98"/>
<polygon fill="black" stroke="black" points="2312.85,-205.98 2316.35,-215.98 2319.85,-205.98 2312.85,-205.98"/>
</g>
<!-- DagreLayoutComponent  -->
<g id="node18" class="node">
<title>DagreLayoutComponent </title>
<polygon fill="#fb8072" stroke="black" points="2232.19,-252 2073.81,-252 2073.81,-216 2232.19,-216 2232.19,-252"/>
<text text-anchor="middle" x="2153" y="-229.8" font-family="Times,serif" font-size="14.00">DagreLayoutComponent </text>
</g>
<!-- AtftDataCenterActorModule&#45;&gt;DagreLayoutComponent  -->
<g id="edge17" class="edge">
<title>AtftDataCenterActorModule&#45;&gt;DagreLayoutComponent </title>
<path fill="none" stroke="black" stroke-dasharray="5,2" d="M1538.96,-178C1725.67,-178 2141.29,-178 2141.29,-178 2141.29,-178 2141.29,-205.97 2141.29,-205.97"/>
<polygon fill="black" stroke="black" points="2137.79,-205.97 2141.29,-215.97 2144.79,-205.97 2137.79,-205.97"/>
</g>
<!-- DagreNodeComponent  -->
<g id="node19" class="node">
<title>DagreNodeComponent </title>
<polygon fill="#fb8072" stroke="black" points="2055.85,-252 1906.15,-252 1906.15,-216 2055.85,-216 2055.85,-252"/>
<text text-anchor="middle" x="1981" y="-229.8" font-family="Times,serif" font-size="14.00">DagreNodeComponent </text>
</g>
<!-- AtftDataCenterActorModule&#45;&gt;DagreNodeComponent  -->
<g id="edge18" class="edge">
<title>AtftDataCenterActorModule&#45;&gt;DagreNodeComponent </title>
<path fill="none" stroke="black" stroke-dasharray="5,2" d="M1538.86,-181C1688.72,-181 1975.56,-181 1975.56,-181 1975.56,-181 1975.56,-205.76 1975.56,-205.76"/>
<polygon fill="black" stroke="black" points="1972.06,-205.76 1975.56,-215.76 1979.06,-205.76 1972.06,-205.76"/>
</g>
<!-- DagreYamlParserComponent  -->
<g id="node20" class="node">
<title>DagreYamlParserComponent </title>
<polygon fill="#fb8072" stroke="black" points="1888.61,-252 1703.39,-252 1703.39,-216 1888.61,-216 1888.61,-252"/>
<text text-anchor="middle" x="1796" y="-229.8" font-family="Times,serif" font-size="14.00">DagreYamlParserComponent </text>
</g>
<!-- AtftDataCenterActorModule&#45;&gt;DagreYamlParserComponent  -->
<g id="edge19" class="edge">
<title>AtftDataCenterActorModule&#45;&gt;DagreYamlParserComponent </title>
<path fill="none" stroke="black" stroke-dasharray="5,2" d="M1538.82,-184C1628.18,-184 1752.86,-184 1752.86,-184 1752.86,-184 1752.86,-205.95 1752.86,-205.95"/>
<polygon fill="black" stroke="black" points="1749.36,-205.95 1752.86,-215.95 1756.36,-205.95 1749.36,-205.95"/>
</g>
<!-- GridActorComponent  -->
<g id="node21" class="node">
<title>GridActorComponent </title>
<polygon fill="#fb8072" stroke="black" points="1685.36,-252 1542.64,-252 1542.64,-216 1685.36,-216 1685.36,-252"/>
<text text-anchor="middle" x="1614" y="-229.8" font-family="Times,serif" font-size="14.00">GridActorComponent </text>
</g>
<!-- AtftDataCenterActorModule&#45;&gt;GridActorComponent  -->
<g id="edge20" class="edge">
<title>AtftDataCenterActorModule&#45;&gt;GridActorComponent </title>
<path fill="none" stroke="black" stroke-dasharray="5,2" d="M1531.77,-187.11C1531.77,-206.34 1531.77,-234 1531.77,-234 1531.77,-234 1532.84,-234 1532.84,-234"/>
<polygon fill="black" stroke="black" points="1532.52,-237.5 1542.52,-234 1532.52,-230.5 1532.52,-237.5"/>
</g>
<!-- LayerActorComponent  -->
<g id="node22" class="node">
<title>LayerActorComponent </title>
<polygon fill="#fb8072" stroke="black" points="1524.85,-252 1375.15,-252 1375.15,-216 1524.85,-216 1524.85,-252"/>
<text text-anchor="middle" x="1450" y="-229.8" font-family="Times,serif" font-size="14.00">LayerActorComponent </text>
</g>
<!-- AtftDataCenterActorModule&#45;&gt;LayerActorComponent  -->
<g id="edge21" class="edge">
<title>AtftDataCenterActorModule&#45;&gt;LayerActorComponent </title>
<path fill="none" stroke="black" stroke-dasharray="5,2" d="M1450,-187.11C1450,-187.11 1450,-205.99 1450,-205.99"/>
<polygon fill="black" stroke="black" points="1446.5,-205.99 1450,-215.99 1453.5,-205.99 1446.5,-205.99"/>
</g>
<!-- ModelActorComponent  -->
<g id="node23" class="node">
<title>ModelActorComponent </title>
<polygon fill="#fb8072" stroke="black" points="1357.75,-252 1204.25,-252 1204.25,-216 1357.75,-216 1357.75,-252"/>
<text text-anchor="middle" x="1281" y="-229.8" font-family="Times,serif" font-size="14.00">ModelActorComponent </text>
</g>
<!-- AtftDataCenterActorModule&#45;&gt;ModelActorComponent  -->
<g id="edge22" class="edge">
<title>AtftDataCenterActorModule&#45;&gt;ModelActorComponent </title>
<path fill="none" stroke="black" stroke-dasharray="5,2" d="M1368.23,-187.11C1368.23,-206.34 1368.23,-234 1368.23,-234 1368.23,-234 1367.2,-234 1367.2,-234"/>
<polygon fill="black" stroke="black" points="1367.89,-230.5 1357.89,-234 1367.89,-237.5 1367.89,-230.5"/>
</g>
<!-- ServerBarrelActorComponent  -->
<g id="node24" class="node">
<title>ServerBarrelActorComponent </title>
<polygon fill="#fb8072" stroke="black" points="1186.22,-252 997.78,-252 997.78,-216 1186.22,-216 1186.22,-252"/>
<text text-anchor="middle" x="1092" y="-229.8" font-family="Times,serif" font-size="14.00">ServerBarrelActorComponent </text>
</g>
<!-- AtftDataCenterActorModule&#45;&gt;ServerBarrelActorComponent  -->
<g id="edge23" class="edge">
<title>AtftDataCenterActorModule&#45;&gt;ServerBarrelActorComponent </title>
<path fill="none" stroke="black" stroke-dasharray="5,2" d="M1361.01,-184C1282.14,-184 1179.38,-184 1179.38,-184 1179.38,-184 1179.38,-205.95 1179.38,-205.95"/>
<polygon fill="black" stroke="black" points="1175.88,-205.95 1179.38,-215.95 1182.88,-205.95 1175.88,-205.95"/>
</g>
<!-- ServerCompactActorComponent  -->
<g id="node25" class="node">
<title>ServerCompactActorComponent </title>
<polygon fill="#fb8072" stroke="black" points="979.78,-252 776.22,-252 776.22,-216 979.78,-216 979.78,-252"/>
<text text-anchor="middle" x="878" y="-229.8" font-family="Times,serif" font-size="14.00">ServerCompactActorComponent </text>
</g>
<!-- AtftDataCenterActorModule&#45;&gt;ServerCompactActorComponent  -->
<g id="edge24" class="edge">
<title>AtftDataCenterActorModule&#45;&gt;ServerCompactActorComponent </title>
<path fill="none" stroke="black" stroke-dasharray="5,2" d="M1361.11,-181C1221.57,-181 966.88,-181 966.88,-181 966.88,-181 966.88,-205.76 966.88,-205.76"/>
<polygon fill="black" stroke="black" points="963.38,-205.76 966.88,-215.76 970.38,-205.76 963.38,-205.76"/>
</g>
<!-- ServerIconActorComponent  -->
<g id="node26" class="node">
<title>ServerIconActorComponent </title>
<polygon fill="#fb8072" stroke="black" points="758.11,-252 579.89,-252 579.89,-216 758.11,-216 758.11,-252"/>
<text text-anchor="middle" x="669" y="-229.8" font-family="Times,serif" font-size="14.00">ServerIconActorComponent </text>
</g>
<!-- AtftDataCenterActorModule&#45;&gt;ServerIconActorComponent  -->
<g id="edge25" class="edge">
<title>AtftDataCenterActorModule&#45;&gt;ServerIconActorComponent </title>
<path fill="none" stroke="black" stroke-dasharray="5,2" d="M1361.11,-178C1172.82,-178 750.93,-178 750.93,-178 750.93,-178 750.93,-205.97 750.93,-205.97"/>
<polygon fill="black" stroke="black" points="747.43,-205.97 750.93,-215.97 754.43,-205.97 747.43,-205.97"/>
</g>
<!-- ServerStandActorComponent  -->
<g id="node27" class="node">
<title>ServerStandActorComponent </title>
<polygon fill="#fb8072" stroke="black" points="561.63,-252 376.37,-252 376.37,-216 561.63,-216 561.63,-252"/>
<text text-anchor="middle" x="469" y="-229.8" font-family="Times,serif" font-size="14.00">ServerStandActorComponent </text>
</g>
<!-- AtftDataCenterActorModule&#45;&gt;ServerStandActorComponent  -->
<g id="edge26" class="edge">
<title>AtftDataCenterActorModule&#45;&gt;ServerStandActorComponent </title>
<path fill="none" stroke="black" stroke-dasharray="5,2" d="M1361.11,-175C1134.49,-175 552.88,-175 552.88,-175 552.88,-175 552.88,-205.98 552.88,-205.98"/>
<polygon fill="black" stroke="black" points="549.38,-205.98 552.88,-215.98 556.38,-205.98 549.38,-205.98"/>
</g>
<!-- WorkstationActorComponent  -->
<g id="node28" class="node">
<title>WorkstationActorComponent </title>
<polygon fill="#fb8072" stroke="black" points="357.91,-252 172.09,-252 172.09,-216 357.91,-216 357.91,-252"/>
<text text-anchor="middle" x="265" y="-229.8" font-family="Times,serif" font-size="14.00">WorkstationActorComponent </text>
</g>
<!-- AtftDataCenterActorModule&#45;&gt;WorkstationActorComponent  -->
<g id="edge27" class="edge">
<title>AtftDataCenterActorModule&#45;&gt;WorkstationActorComponent </title>
<path fill="none" stroke="black" stroke-dasharray="5,2" d="M1361.22,-172C1099.29,-172 348,-172 348,-172 348,-172 348,-205.73 348,-205.73"/>
<polygon fill="black" stroke="black" points="344.5,-205.73 348,-215.73 351.5,-205.73 344.5,-205.73"/>
</g>
<!-- AtftModule -->
<g id="node15" class="node">
<title>AtftModule</title>
<polygon fill="#8dd3c7" stroke="black" points="338.1,-122 335.1,-126 314.1,-126 311.1,-122 255.9,-122 255.9,-86 338.1,-86 338.1,-122"/>
<text text-anchor="middle" x="297" y="-99.8" font-family="Times,serif" font-size="14.00">AtftModule</text>
</g>
<!-- AtftModule&#45;&gt;AtftDataCenterActorModule -->
<g id="edge14" class="edge">
<title>AtftModule&#45;&gt;AtftDataCenterActorModule</title>
<path fill="none" stroke="black" d="M297,-122.27C297,-140.56 297,-166 297,-166 297,-166 1350.96,-166 1350.96,-166"/>
<polygon fill="black" stroke="black" points="1350.96,-169.5 1360.96,-166 1350.96,-162.5 1350.96,-169.5"/>
</g>
<!-- ActorRepositoryService -->
<g id="node29" class="node">
<title>ActorRepositoryService</title>
<ellipse fill="#fdb462" stroke="black" cx="128" cy="-104" rx="104.21" ry="18"/>
<text text-anchor="middle" x="128" y="-99.8" font-family="Times,serif" font-size="14.00">ActorRepositoryService</text>
</g>
<!-- ActorRepositoryService&#45;&gt;AtftDataCenterActorModule -->
<g id="edge28" class="edge">
<title>ActorRepositoryService&#45;&gt;AtftDataCenterActorModule</title>
<path fill="none" stroke="black" d="M202.2,-116.84C202.2,-135.78 202.2,-169 202.2,-169 202.2,-169 1351.26,-169 1351.26,-169"/>
<polygon fill="black" stroke="black" points="1351.26,-172.5 1361.26,-169 1351.26,-165.5 1351.26,-172.5"/>
</g>
</g>
</svg>
