<?xml version="1.0" encoding="UTF-8" standalone="no"?>
<!DOCTYPE svg PUBLIC "-//W3C//DTD SVG 1.1//EN"
 "http://www.w3.org/Graphics/SVG/1.1/DTD/svg11.dtd">
<!-- Generated by graphviz version 2.40.1 (20161225.0304)
 -->
<!-- Title: dependencies Pages: 1 -->
<svg width="504pt" height="284pt"
 viewBox="0.00 0.00 504.00 284.00" xmlns="http://www.w3.org/2000/svg" xmlns:xlink="http://www.w3.org/1999/xlink">
<g id="graph0" class="graph" transform="scale(1 1) rotate(0) translate(4 280)">
<title>dependencies</title>
<polygon fill="#ffffff" stroke="transparent" points="-4,4 -4,-280 500,-280 500,4 -4,4"/>
<text text-anchor="start" x="227.0091" y="-42.4" font-family="sans-serif" font-weight="bold" font-size="14.00" fill="#000000">Legend</text>
<polygon fill="#ffffb3" stroke="transparent" points="14,-10 14,-30 34,-30 34,-10 14,-10"/>
<text text-anchor="start" x="37.629" y="-15.4" font-family="sans-serif" font-size="14.00" fill="#000000"> &#160;Declarations</text>
<polygon fill="#8dd3c7" stroke="transparent" points="127,-10 127,-30 147,-30 147,-10 127,-10"/>
<text text-anchor="start" x="150.7251" y="-15.4" font-family="sans-serif" font-size="14.00" fill="#000000"> &#160;Module</text>
<polygon fill="#80b1d3" stroke="transparent" points="213,-10 213,-30 233,-30 233,-10 213,-10"/>
<text text-anchor="start" x="236.7812" y="-15.4" font-family="sans-serif" font-size="14.00" fill="#000000"> &#160;Bootstrap</text>
<polygon fill="#fdb462" stroke="transparent" points="310,-10 310,-30 330,-30 330,-10 310,-10"/>
<text text-anchor="start" x="333.6732" y="-15.4" font-family="sans-serif" font-size="14.00" fill="#000000"> &#160;Providers</text>
<polygon fill="#fb8072" stroke="transparent" points="406,-10 406,-30 426,-30 426,-10 406,-10"/>
<text text-anchor="start" x="429.7258" y="-15.4" font-family="sans-serif" font-size="14.00" fill="#000000"> &#160;Exports</text>
<g id="clust1" class="cluster">
<title>cluster_AtftDataCenterActorModule</title>
<polygon fill="none" stroke="#000000" stroke-dasharray="1,5" points="22,-70 22,-268 474,-268 474,-70 22,-70"/>
</g>
<g id="clust2" class="cluster">
<title>cluster_AtftDataCenterActorModule_declarations</title>
<polygon fill="none" stroke="#000000" points="136,-78 136,-130 466,-130 466,-78 136,-78"/>
</g>
<g id="clust5" class="cluster">
<title>cluster_AtftDataCenterActorModule_imports</title>
<polygon fill="none" stroke="#000000" points="30,-78 30,-130 128,-130 128,-78 30,-78"/>
</g>
<g id="clust6" class="cluster">
<title>cluster_AtftDataCenterActorModule_exports</title>
<polygon fill="none" stroke="#000000" points="79,-208 79,-260 416,-260 416,-208 79,-208"/>
</g>
<!-- LayerActorComponent -->
<g id="node1" class="node">
<title>LayerActorComponent</title>
<polygon fill="#ffffb3" stroke="#000000" points="457.8473,-122 312.1527,-122 312.1527,-86 457.8473,-86 457.8473,-122"/>
<text text-anchor="middle" x="385" y="-99.8" font-family="Times,serif" font-size="14.00" fill="#000000">LayerActorComponent</text>
</g>
<!-- AtftDataCenterActorModule -->
<g id="node3" class="node">
<title>AtftDataCenterActorModule</title>
<polygon fill="#8dd3c7" stroke="#000000" points="307.7142,-187 304.7142,-191 283.7142,-191 280.7142,-187 130.2858,-187 130.2858,-151 307.7142,-151 307.7142,-187"/>
<text text-anchor="middle" x="219" y="-164.8" font-family="Times,serif" font-size="14.00" fill="#000000">AtftDataCenterActorModule</text>
</g>
<!-- LayerActorComponent&#45;&gt;AtftDataCenterActorModule -->
<g id="edge1" class="edge">
<title>LayerActorComponent&#45;&gt;AtftDataCenterActorModule</title>
<path fill="none" stroke="#000000" d="M311.8624,-104C305.1818,-104 300.863,-104 300.863,-104 300.863,-104 300.863,-140.8939 300.863,-140.8939"/>
<polygon fill="#000000" stroke="#000000" points="297.363,-140.8938 300.863,-150.8939 304.363,-140.8939 297.363,-140.8938"/>
</g>
<!-- ServerActorComponent -->
<g id="node2" class="node">
<title>ServerActorComponent</title>
<polygon fill="#ffffb3" stroke="#000000" points="293.738,-122 144.262,-122 144.262,-86 293.738,-86 293.738,-122"/>
<text text-anchor="middle" x="219" y="-99.8" font-family="Times,serif" font-size="14.00" fill="#000000">ServerActorComponent</text>
</g>
<!-- ServerActorComponent&#45;&gt;AtftDataCenterActorModule -->
<g id="edge2" class="edge">
<title>ServerActorComponent&#45;&gt;AtftDataCenterActorModule</title>
<path fill="none" stroke="#000000" d="M219,-122.1061C219,-122.1061 219,-140.991 219,-140.991"/>
<polygon fill="#000000" stroke="#000000" points="215.5001,-140.9909 219,-150.991 222.5001,-140.991 215.5001,-140.9909"/>
</g>
<!-- LayerActorComponent  -->
<g id="node5" class="node">
<title>LayerActorComponent </title>
<polygon fill="#fb8072" stroke="#000000" points="407.8476,-252 258.1524,-252 258.1524,-216 407.8476,-216 407.8476,-252"/>
<text text-anchor="middle" x="333" y="-229.8" font-family="Times,serif" font-size="14.00" fill="#000000">LayerActorComponent </text>
</g>
<!-- AtftDataCenterActorModule&#45;&gt;LayerActorComponent  -->
<g id="edge4" class="edge">
<title>AtftDataCenterActorModule&#45;&gt;LayerActorComponent </title>
<path fill="none" stroke="#000000" stroke-dasharray="5,2" d="M283.0917,-187.1061C283.0917,-187.1061 283.0917,-205.991 283.0917,-205.991"/>
<polygon fill="#000000" stroke="#000000" points="279.5918,-205.9909 283.0917,-215.991 286.5918,-205.991 279.5918,-205.9909"/>
</g>
<!-- ServerActorComponent  -->
<g id="node6" class="node">
<title>ServerActorComponent </title>
<polygon fill="#fb8072" stroke="#000000" points="240.738,-252 87.262,-252 87.262,-216 240.738,-216 240.738,-252"/>
<text text-anchor="middle" x="164" y="-229.8" font-family="Times,serif" font-size="14.00" fill="#000000">ServerActorComponent </text>
</g>
<!-- AtftDataCenterActorModule&#45;&gt;ServerActorComponent  -->
<g id="edge5" class="edge">
<title>AtftDataCenterActorModule&#45;&gt;ServerActorComponent </title>
<path fill="none" stroke="#000000" stroke-dasharray="5,2" d="M185.3809,-187.1061C185.3809,-187.1061 185.3809,-205.991 185.3809,-205.991"/>
<polygon fill="#000000" stroke="#000000" points="181.881,-205.9909 185.3809,-215.991 188.881,-205.991 181.881,-205.9909"/>
</g>
<!-- AtftModule -->
<g id="node4" class="node">
<title>AtftModule</title>
<polygon fill="#8dd3c7" stroke="#000000" points="120.0983,-122 117.0983,-126 96.0983,-126 93.0983,-122 37.9017,-122 37.9017,-86 120.0983,-86 120.0983,-122"/>
<text text-anchor="middle" x="79" y="-99.8" font-family="Times,serif" font-size="14.00" fill="#000000">AtftModule</text>
</g>
<!-- AtftModule&#45;&gt;AtftDataCenterActorModule -->
<g id="edge3" class="edge">
<title>AtftModule&#45;&gt;AtftDataCenterActorModule</title>
<path fill="none" stroke="#000000" d="M120.3214,-104C129.791,-104 137.1371,-104 137.1371,-104 137.1371,-104 137.1371,-140.8939 137.1371,-140.8939"/>
<polygon fill="#000000" stroke="#000000" points="133.6371,-140.8938 137.1371,-150.8939 140.6371,-140.8939 133.6371,-140.8938"/>
</g>
</g>
</svg>
