<?xml version="1.0" encoding="UTF-8" standalone="no"?>
<!DOCTYPE svg PUBLIC "-//W3C//DTD SVG 1.1//EN"
 "http://www.w3.org/Graphics/SVG/1.1/DTD/svg11.dtd">
<!-- Generated by graphviz version 2.40.1 (20161225.0304)
 -->
<!-- Title: dependencies Pages: 1 -->
<svg width="2783pt" height="284pt"
 viewBox="0.00 0.00 2783.00 284.00" xmlns="http://www.w3.org/2000/svg" xmlns:xlink="http://www.w3.org/1999/xlink">
<g id="graph0" class="graph" transform="scale(1 1) rotate(0) translate(4 280)">
<title>dependencies</title>
<polygon fill="#ffffff" stroke="transparent" points="-4,4 -4,-280 2779,-280 2779,4 -4,4"/>
<text text-anchor="start" x="1366.5091" y="-42.4" font-family="sans-serif" font-weight="bold" font-size="14.00" fill="#000000">Legend</text>
<polygon fill="#ffffb3" stroke="transparent" points="1153.5,-10 1153.5,-30 1173.5,-30 1173.5,-10 1153.5,-10"/>
<text text-anchor="start" x="1177.129" y="-15.4" font-family="sans-serif" font-size="14.00" fill="#000000"> &#160;Declarations</text>
<polygon fill="#8dd3c7" stroke="transparent" points="1266.5,-10 1266.5,-30 1286.5,-30 1286.5,-10 1266.5,-10"/>
<text text-anchor="start" x="1290.2251" y="-15.4" font-family="sans-serif" font-size="14.00" fill="#000000"> &#160;Module</text>
<polygon fill="#80b1d3" stroke="transparent" points="1352.5,-10 1352.5,-30 1372.5,-30 1372.5,-10 1352.5,-10"/>
<text text-anchor="start" x="1376.2812" y="-15.4" font-family="sans-serif" font-size="14.00" fill="#000000"> &#160;Bootstrap</text>
<polygon fill="#fdb462" stroke="transparent" points="1449.5,-10 1449.5,-30 1469.5,-30 1469.5,-10 1449.5,-10"/>
<text text-anchor="start" x="1473.1732" y="-15.4" font-family="sans-serif" font-size="14.00" fill="#000000"> &#160;Providers</text>
<polygon fill="#fb8072" stroke="transparent" points="1545.5,-10 1545.5,-30 1565.5,-30 1565.5,-10 1545.5,-10"/>
<text text-anchor="start" x="1569.2258" y="-15.4" font-family="sans-serif" font-size="14.00" fill="#000000"> &#160;Exports</text>
<g id="clust1" class="cluster">
<title>cluster_AtftDataCenterActorModule</title>
<polygon fill="none" stroke="#000000" stroke-dasharray="1,5" points="8,-70 8,-268 2767,-268 2767,-70 8,-70"/>
</g>
<g id="clust2" class="cluster">
<title>cluster_AtftDataCenterActorModule_declarations</title>
<polygon fill="none" stroke="#000000" points="354,-78 354,-130 2759,-130 2759,-78 354,-78"/>
</g>
<g id="clust16" class="cluster">
<title>cluster_AtftDataCenterActorModule_imports</title>
<polygon fill="none" stroke="#000000" points="248,-78 248,-130 346,-130 346,-78 248,-78"/>
</g>
<g id="clust17" class="cluster">
<title>cluster_AtftDataCenterActorModule_exports</title>
<polygon fill="none" stroke="#000000" points="164,-208 164,-260 2616,-260 2616,-208 164,-208"/>
</g>
<g id="clust19" class="cluster">
<title>cluster_AtftDataCenterActorModule_providers</title>
<polygon fill="none" stroke="#000000" points="16,-78 16,-130 240,-130 240,-78 16,-78"/>
</g>
<!-- DagreCompositionComponent -->
<g id="node1" class="node">
<title>DagreCompositionComponent</title>
<polygon fill="#ffffb3" stroke="#000000" points="2750.8724,-122 2563.1276,-122 2563.1276,-86 2750.8724,-86 2750.8724,-122"/>
<text text-anchor="middle" x="2657" y="-99.8" font-family="Times,serif" font-size="14.00" fill="#000000">DagreCompositionComponent</text>
</g>
<!-- AtftDataCenterActorModule -->
<g id="node14" class="node">
<title>AtftDataCenterActorModule</title>
<polygon fill="#8dd3c7" stroke="#000000" points="1538.7142,-187 1535.7142,-191 1514.7142,-191 1511.7142,-187 1361.2858,-187 1361.2858,-151 1538.7142,-151 1538.7142,-187"/>
<text text-anchor="middle" x="1450" y="-164.8" font-family="Times,serif" font-size="14.00" fill="#000000">AtftDataCenterActorModule</text>
</g>
<!-- DagreCompositionComponent&#45;&gt;AtftDataCenterActorModule -->
<g id="edge1" class="edge">
<title>DagreCompositionComponent&#45;&gt;AtftDataCenterActorModule</title>
<path fill="none" stroke="#000000" d="M2585.375,-122.1061C2585.375,-141.3391 2585.375,-169 2585.375,-169 2585.375,-169 1549.091,-169 1549.091,-169"/>
<polygon fill="#000000" stroke="#000000" points="1549.091,-165.5001 1539.091,-169 1549.0909,-172.5001 1549.091,-165.5001"/>
</g>
<!-- DagreEdgeComponent -->
<g id="node2" class="node">
<title>DagreEdgeComponent</title>
<polygon fill="#ffffb3" stroke="#000000" points="2545.2963,-122 2400.7037,-122 2400.7037,-86 2545.2963,-86 2545.2963,-122"/>
<text text-anchor="middle" x="2473" y="-99.8" font-family="Times,serif" font-size="14.00" fill="#000000">DagreEdgeComponent</text>
</g>
<!-- DagreEdgeComponent&#45;&gt;AtftDataCenterActorModule -->
<g id="edge2" class="edge">
<title>DagreEdgeComponent&#45;&gt;AtftDataCenterActorModule</title>
<path fill="none" stroke="#000000" d="M2408.5829,-122.2667C2408.5829,-140.5552 2408.5829,-166 2408.5829,-166 2408.5829,-166 1548.8912,-166 1548.8912,-166"/>
<polygon fill="#000000" stroke="#000000" points="1548.8913,-162.5001 1538.8912,-166 1548.8912,-169.5001 1548.8913,-162.5001"/>
</g>
<!-- DagreLayoutComponent -->
<g id="node3" class="node">
<title>DagreLayoutComponent</title>
<polygon fill="#ffffb3" stroke="#000000" points="2382.6867,-122 2227.3133,-122 2227.3133,-86 2382.6867,-86 2382.6867,-122"/>
<text text-anchor="middle" x="2305" y="-99.8" font-family="Times,serif" font-size="14.00" fill="#000000">DagreLayoutComponent</text>
</g>
<!-- DagreLayoutComponent&#45;&gt;AtftDataCenterActorModule -->
<g id="edge3" class="edge">
<title>DagreLayoutComponent&#45;&gt;AtftDataCenterActorModule</title>
<path fill="none" stroke="#000000" d="M2241.2226,-122.0225C2241.2226,-139.3734 2241.2226,-163 2241.2226,-163 2241.2226,-163 1548.8424,-163 1548.8424,-163"/>
<polygon fill="#000000" stroke="#000000" points="1548.8424,-159.5001 1538.8424,-163 1548.8424,-166.5001 1548.8424,-159.5001"/>
</g>
<!-- DagreNodeComponent -->
<g id="node4" class="node">
<title>DagreNodeComponent</title>
<polygon fill="#ffffb3" stroke="#000000" points="2208.8501,-122 2063.1499,-122 2063.1499,-86 2208.8501,-86 2208.8501,-122"/>
<text text-anchor="middle" x="2136" y="-99.8" font-family="Times,serif" font-size="14.00" fill="#000000">DagreNodeComponent</text>
</g>
<!-- DagreNodeComponent&#45;&gt;AtftDataCenterActorModule -->
<g id="edge4" class="edge">
<title>DagreNodeComponent&#45;&gt;AtftDataCenterActorModule</title>
<path fill="none" stroke="#000000" d="M2068.3659,-122.027C2068.3659,-138.3976 2068.3659,-160 2068.3659,-160 2068.3659,-160 1548.9258,-160 1548.9258,-160"/>
<polygon fill="#000000" stroke="#000000" points="1548.9258,-156.5001 1538.9258,-160 1548.9258,-163.5001 1548.9258,-156.5001"/>
</g>
<!-- DagreYamlParserComponent -->
<g id="node5" class="node">
<title>DagreYamlParserComponent</title>
<polygon fill="#ffffb3" stroke="#000000" points="2044.6092,-122 1863.3908,-122 1863.3908,-86 2044.6092,-86 2044.6092,-122"/>
<text text-anchor="middle" x="1954" y="-99.8" font-family="Times,serif" font-size="14.00" fill="#000000">DagreYamlParserComponent</text>
</g>
<!-- DagreYamlParserComponent&#45;&gt;AtftDataCenterActorModule -->
<g id="edge5" class="edge">
<title>DagreYamlParserComponent&#45;&gt;AtftDataCenterActorModule</title>
<path fill="none" stroke="#000000" d="M1875.875,-122.2396C1875.875,-137.5706 1875.875,-157 1875.875,-157 1875.875,-157 1548.759,-157 1548.759,-157"/>
<polygon fill="#000000" stroke="#000000" points="1548.759,-153.5001 1538.759,-157 1548.7589,-160.5001 1548.759,-153.5001"/>
</g>
<!-- GridActorComponent -->
<g id="node6" class="node">
<title>GridActorComponent</title>
<polygon fill="#ffffb3" stroke="#000000" points="1845.3627,-122 1706.6373,-122 1706.6373,-86 1845.3627,-86 1845.3627,-122"/>
<text text-anchor="middle" x="1776" y="-99.8" font-family="Times,serif" font-size="14.00" fill="#000000">GridActorComponent</text>
</g>
<!-- GridActorComponent&#45;&gt;AtftDataCenterActorModule -->
<g id="edge6" class="edge">
<title>GridActorComponent&#45;&gt;AtftDataCenterActorModule</title>
<path fill="none" stroke="#000000" d="M1799.1438,-122.0511C1799.1438,-136.373 1799.1438,-154 1799.1438,-154 1799.1438,-154 1549.0071,-154 1549.0071,-154"/>
<polygon fill="#000000" stroke="#000000" points="1549.0071,-150.5001 1539.0071,-154 1549.0071,-157.5001 1549.0071,-150.5001"/>
</g>
<!-- LayerActorComponent -->
<g id="node7" class="node">
<title>LayerActorComponent</title>
<polygon fill="#ffffb3" stroke="#000000" points="1688.8473,-122 1543.1527,-122 1543.1527,-86 1688.8473,-86 1688.8473,-122"/>
<text text-anchor="middle" x="1616" y="-99.8" font-family="Times,serif" font-size="14.00" fill="#000000">LayerActorComponent</text>
</g>
<!-- LayerActorComponent&#45;&gt;AtftDataCenterActorModule -->
<g id="edge7" class="edge">
<title>LayerActorComponent&#45;&gt;AtftDataCenterActorModule</title>
<path fill="none" stroke="#000000" d="M1542.8661,-104C1536.1857,-104 1531.8672,-104 1531.8672,-104 1531.8672,-104 1531.8672,-140.8939 1531.8672,-140.8939"/>
<polygon fill="#000000" stroke="#000000" points="1528.3672,-140.8938 1531.8672,-150.8939 1535.3672,-140.8939 1528.3672,-140.8938"/>
</g>
<!-- ModelActorComponent -->
<g id="node8" class="node">
<title>ModelActorComponent</title>
<polygon fill="#ffffb3" stroke="#000000" points="1524.7548,-122 1375.2452,-122 1375.2452,-86 1524.7548,-86 1524.7548,-122"/>
<text text-anchor="middle" x="1450" y="-99.8" font-family="Times,serif" font-size="14.00" fill="#000000">ModelActorComponent</text>
</g>
<!-- ModelActorComponent&#45;&gt;AtftDataCenterActorModule -->
<g id="edge8" class="edge">
<title>ModelActorComponent&#45;&gt;AtftDataCenterActorModule</title>
<path fill="none" stroke="#000000" d="M1450,-122.1061C1450,-122.1061 1450,-140.991 1450,-140.991"/>
<polygon fill="#000000" stroke="#000000" points="1446.5001,-140.9909 1450,-150.991 1453.5001,-140.991 1446.5001,-140.9909"/>
</g>
<!-- ServerBarrelActorComponent -->
<g id="node9" class="node">
<title>ServerBarrelActorComponent</title>
<polygon fill="#ffffb3" stroke="#000000" points="1357.2156,-122 1172.7844,-122 1172.7844,-86 1357.2156,-86 1357.2156,-122"/>
<text text-anchor="middle" x="1265" y="-99.8" font-family="Times,serif" font-size="14.00" fill="#000000">ServerBarrelActorComponent</text>
</g>
<!-- ServerBarrelActorComponent&#45;&gt;AtftDataCenterActorModule -->
<g id="edge9" class="edge">
<title>ServerBarrelActorComponent&#45;&gt;AtftDataCenterActorModule</title>
<path fill="none" stroke="#000000" d="M1357.4843,-104C1364.0397,-104 1368.1329,-104 1368.1329,-104 1368.1329,-104 1368.1329,-140.8939 1368.1329,-140.8939"/>
<polygon fill="#000000" stroke="#000000" points="1364.6329,-140.8938 1368.1329,-150.8939 1371.6329,-140.8939 1364.6329,-140.8938"/>
</g>
<!-- ServerCompactActorComponent -->
<g id="node10" class="node">
<title>ServerCompactActorComponent</title>
<polygon fill="#ffffb3" stroke="#000000" points="1154.285,-122 953.715,-122 953.715,-86 1154.285,-86 1154.285,-122"/>
<text text-anchor="middle" x="1054" y="-99.8" font-family="Times,serif" font-size="14.00" fill="#000000">ServerCompactActorComponent</text>
</g>
<!-- ServerCompactActorComponent&#45;&gt;AtftDataCenterActorModule -->
<g id="edge10" class="edge">
<title>ServerCompactActorComponent&#45;&gt;AtftDataCenterActorModule</title>
<path fill="none" stroke="#000000" d="M1076.0174,-122.0511C1076.0174,-136.373 1076.0174,-154 1076.0174,-154 1076.0174,-154 1350.897,-154 1350.897,-154"/>
<polygon fill="#000000" stroke="#000000" points="1350.897,-157.5001 1360.897,-154 1350.8969,-150.5001 1350.897,-157.5001"/>
</g>
<!-- ServerIconActorComponent -->
<g id="node11" class="node">
<title>ServerIconActorComponent</title>
<polygon fill="#ffffb3" stroke="#000000" points="936.1134,-122 761.8866,-122 761.8866,-86 936.1134,-86 936.1134,-122"/>
<text text-anchor="middle" x="849" y="-99.8" font-family="Times,serif" font-size="14.00" fill="#000000">ServerIconActorComponent</text>
</g>
<!-- ServerIconActorComponent&#45;&gt;AtftDataCenterActorModule -->
<g id="edge11" class="edge">
<title>ServerIconActorComponent&#45;&gt;AtftDataCenterActorModule</title>
<path fill="none" stroke="#000000" d="M856.2071,-122.2396C856.2071,-137.5706 856.2071,-157 856.2071,-157 856.2071,-157 1351.1032,-157 1351.1032,-157"/>
<polygon fill="#000000" stroke="#000000" points="1351.1032,-160.5001 1361.1032,-157 1351.1032,-153.5001 1351.1032,-160.5001"/>
</g>
<!-- ServerStandActorComponent -->
<g id="node12" class="node">
<title>ServerStandActorComponent</title>
<polygon fill="#ffffb3" stroke="#000000" points="743.626,-122 562.374,-122 562.374,-86 743.626,-86 743.626,-122"/>
<text text-anchor="middle" x="653" y="-99.8" font-family="Times,serif" font-size="14.00" fill="#000000">ServerStandActorComponent</text>
</g>
<!-- ServerStandActorComponent&#45;&gt;AtftDataCenterActorModule -->
<g id="edge12" class="edge">
<title>ServerStandActorComponent&#45;&gt;AtftDataCenterActorModule</title>
<path fill="none" stroke="#000000" d="M661.8782,-122.027C661.8782,-138.3976 661.8782,-160 661.8782,-160 661.8782,-160 1351.1244,-160 1351.1244,-160"/>
<polygon fill="#000000" stroke="#000000" points="1351.1244,-163.5001 1361.1244,-160 1351.1244,-156.5001 1351.1244,-163.5001"/>
</g>
<!-- WorkstationActorComponent -->
<g id="node13" class="node">
<title>WorkstationActorComponent</title>
<polygon fill="#ffffb3" stroke="#000000" points="544.4115,-122 361.5885,-122 361.5885,-86 544.4115,-86 544.4115,-122"/>
<text text-anchor="middle" x="453" y="-99.8" font-family="Times,serif" font-size="14.00" fill="#000000">WorkstationActorComponent</text>
</g>
<!-- WorkstationActorComponent&#45;&gt;AtftDataCenterActorModule -->
<g id="edge13" class="edge">
<title>WorkstationActorComponent&#45;&gt;AtftDataCenterActorModule</title>
<path fill="none" stroke="#000000" d="M460.3213,-122.0225C460.3213,-139.3734 460.3213,-163 460.3213,-163 460.3213,-163 1350.8648,-163 1350.8648,-163"/>
<polygon fill="#000000" stroke="#000000" points="1350.8649,-166.5001 1360.8648,-163 1350.8648,-159.5001 1350.8649,-166.5001"/>
</g>
<!-- DagreCompositionComponent  -->
<g id="node16" class="node">
<title>DagreCompositionComponent </title>
<polygon fill="#fb8072" stroke="#000000" points="2607.8728,-252 2416.1272,-252 2416.1272,-216 2607.8728,-216 2607.8728,-252"/>
<text text-anchor="middle" x="2512" y="-229.8" font-family="Times,serif" font-size="14.00" fill="#000000">DagreCompositionComponent </text>
</g>
<!-- AtftDataCenterActorModule&#45;&gt;DagreCompositionComponent  -->
<g id="edge15" class="edge">
<title>AtftDataCenterActorModule&#45;&gt;DagreCompositionComponent </title>
<path fill="none" stroke="#000000" stroke-dasharray="5,2" d="M1538.7716,-172C1788.7895,-172 2480.7309,-172 2480.7309,-172 2480.7309,-172 2480.7309,-205.7333 2480.7309,-205.7333"/>
<polygon fill="#000000" stroke="#000000" points="2477.231,-205.7333 2480.7309,-215.7333 2484.231,-205.7333 2477.231,-205.7333"/>
</g>
<!-- DagreEdgeComponent  -->
<g id="node17" class="node">
<title>DagreEdgeComponent </title>
<polygon fill="#fb8072" stroke="#000000" points="2397.7961,-252 2250.2039,-252 2250.2039,-216 2397.7961,-216 2397.7961,-252"/>
<text text-anchor="middle" x="2324" y="-229.8" font-family="Times,serif" font-size="14.00" fill="#000000">DagreEdgeComponent </text>
</g>
<!-- AtftDataCenterActorModule&#45;&gt;DagreEdgeComponent  -->
<g id="edge16" class="edge">
<title>AtftDataCenterActorModule&#45;&gt;DagreEdgeComponent </title>
<path fill="none" stroke="#000000" stroke-dasharray="5,2" d="M1539.0468,-175C1760.124,-175 2316.3476,-175 2316.3476,-175 2316.3476,-175 2316.3476,-205.9775 2316.3476,-205.9775"/>
<polygon fill="#000000" stroke="#000000" points="2312.8477,-205.9774 2316.3476,-215.9775 2319.8477,-205.9775 2312.8477,-205.9774"/>
</g>
<!-- DagreLayoutComponent  -->
<g id="node18" class="node">
<title>DagreLayoutComponent </title>
<polygon fill="#fb8072" stroke="#000000" points="2232.1869,-252 2073.8131,-252 2073.8131,-216 2232.1869,-216 2232.1869,-252"/>
<text text-anchor="middle" x="2153" y="-229.8" font-family="Times,serif" font-size="14.00" fill="#000000">DagreLayoutComponent </text>
</g>
<!-- AtftDataCenterActorModule&#45;&gt;DagreLayoutComponent  -->
<g id="edge17" class="edge">
<title>AtftDataCenterActorModule&#45;&gt;DagreLayoutComponent </title>
<path fill="none" stroke="#000000" stroke-dasharray="5,2" d="M1538.959,-178C1725.6656,-178 2141.2909,-178 2141.2909,-178 2141.2909,-178 2141.2909,-205.973 2141.2909,-205.973"/>
<polygon fill="#000000" stroke="#000000" points="2137.7909,-205.973 2141.2909,-215.973 2144.7909,-205.973 2137.7909,-205.973"/>
</g>
<!-- DagreNodeComponent  -->
<g id="node19" class="node">
<title>DagreNodeComponent </title>
<polygon fill="#fb8072" stroke="#000000" points="2055.8504,-252 1906.1496,-252 1906.1496,-216 2055.8504,-216 2055.8504,-252"/>
<text text-anchor="middle" x="1981" y="-229.8" font-family="Times,serif" font-size="14.00" fill="#000000">DagreNodeComponent </text>
</g>
<!-- AtftDataCenterActorModule&#45;&gt;DagreNodeComponent  -->
<g id="edge18" class="edge">
<title>AtftDataCenterActorModule&#45;&gt;DagreNodeComponent </title>
<path fill="none" stroke="#000000" stroke-dasharray="5,2" d="M1538.8576,-181C1688.7218,-181 1975.5647,-181 1975.5647,-181 1975.5647,-181 1975.5647,-205.7604 1975.5647,-205.7604"/>
<polygon fill="#000000" stroke="#000000" points="1972.0648,-205.7604 1975.5647,-215.7604 1979.0648,-205.7604 1972.0648,-205.7604"/>
</g>
<!-- DagreYamlParserComponent  -->
<g id="node20" class="node">
<title>DagreYamlParserComponent </title>
<polygon fill="#fb8072" stroke="#000000" points="1888.6088,-252 1703.3912,-252 1703.3912,-216 1888.6088,-216 1888.6088,-252"/>
<text text-anchor="middle" x="1796" y="-229.8" font-family="Times,serif" font-size="14.00" fill="#000000">DagreYamlParserComponent </text>
</g>
<!-- AtftDataCenterActorModule&#45;&gt;DagreYamlParserComponent  -->
<g id="edge19" class="edge">
<title>AtftDataCenterActorModule&#45;&gt;DagreYamlParserComponent </title>
<path fill="none" stroke="#000000" stroke-dasharray="5,2" d="M1538.8205,-184C1628.1847,-184 1752.8562,-184 1752.8562,-184 1752.8562,-184 1752.8562,-205.9489 1752.8562,-205.9489"/>
<polygon fill="#000000" stroke="#000000" points="1749.3563,-205.9488 1752.8562,-215.9489 1756.3563,-205.9489 1749.3563,-205.9488"/>
</g>
<!-- GridActorComponent  -->
<g id="node21" class="node">
<title>GridActorComponent </title>
<polygon fill="#fb8072" stroke="#000000" points="1685.3631,-252 1542.6369,-252 1542.6369,-216 1685.3631,-216 1685.3631,-252"/>
<text text-anchor="middle" x="1614" y="-229.8" font-family="Times,serif" font-size="14.00" fill="#000000">GridActorComponent </text>
</g>
<!-- AtftDataCenterActorModule&#45;&gt;GridActorComponent  -->
<g id="edge20" class="edge">
<title>AtftDataCenterActorModule&#45;&gt;GridActorComponent </title>
<path fill="none" stroke="#000000" stroke-dasharray="5,2" d="M1531.7653,-187.1061C1531.7653,-206.3391 1531.7653,-234 1531.7653,-234 1531.7653,-234 1532.8404,-234 1532.8404,-234"/>
<polygon fill="#000000" stroke="#000000" points="1532.5161,-237.5001 1542.5161,-234 1532.516,-230.5001 1532.5161,-237.5001"/>
</g>
<!-- LayerActorComponent  -->
<g id="node22" class="node">
<title>LayerActorComponent </title>
<polygon fill="#fb8072" stroke="#000000" points="1524.8476,-252 1375.1524,-252 1375.1524,-216 1524.8476,-216 1524.8476,-252"/>
<text text-anchor="middle" x="1450" y="-229.8" font-family="Times,serif" font-size="14.00" fill="#000000">LayerActorComponent </text>
</g>
<!-- AtftDataCenterActorModule&#45;&gt;LayerActorComponent  -->
<g id="edge21" class="edge">
<title>AtftDataCenterActorModule&#45;&gt;LayerActorComponent </title>
<path fill="none" stroke="#000000" stroke-dasharray="5,2" d="M1450,-187.1061C1450,-187.1061 1450,-205.991 1450,-205.991"/>
<polygon fill="#000000" stroke="#000000" points="1446.5001,-205.9909 1450,-215.991 1453.5001,-205.991 1446.5001,-205.9909"/>
</g>
<!-- ModelActorComponent  -->
<g id="node23" class="node">
<title>ModelActorComponent </title>
<polygon fill="#fb8072" stroke="#000000" points="1357.7548,-252 1204.2452,-252 1204.2452,-216 1357.7548,-216 1357.7548,-252"/>
<text text-anchor="middle" x="1281" y="-229.8" font-family="Times,serif" font-size="14.00" fill="#000000">ModelActorComponent </text>
</g>
<!-- AtftDataCenterActorModule&#45;&gt;ModelActorComponent  -->
<g id="edge22" class="edge">
<title>AtftDataCenterActorModule&#45;&gt;ModelActorComponent </title>
<path fill="none" stroke="#000000" stroke-dasharray="5,2" d="M1368.2347,-187.1061C1368.2347,-206.3391 1368.2347,-234 1368.2347,-234 1368.2347,-234 1367.1997,-234 1367.1997,-234"/>
<polygon fill="#000000" stroke="#000000" points="1367.8852,-230.5001 1357.8852,-234 1367.8851,-237.5001 1367.8852,-230.5001"/>
</g>
<!-- ServerBarrelActorComponent  -->
<g id="node24" class="node">
<title>ServerBarrelActorComponent </title>
<polygon fill="#fb8072" stroke="#000000" points="1186.2155,-252 997.7845,-252 997.7845,-216 1186.2155,-216 1186.2155,-252"/>
<text text-anchor="middle" x="1092" y="-229.8" font-family="Times,serif" font-size="14.00" fill="#000000">ServerBarrelActorComponent </text>
</g>
<!-- AtftDataCenterActorModule&#45;&gt;ServerBarrelActorComponent  -->
<g id="edge23" class="edge">
<title>AtftDataCenterActorModule&#45;&gt;ServerBarrelActorComponent </title>
<path fill="none" stroke="#000000" stroke-dasharray="5,2" d="M1361.0124,-184C1282.1356,-184 1179.375,-184 1179.375,-184 1179.375,-184 1179.375,-205.9489 1179.375,-205.9489"/>
<polygon fill="#000000" stroke="#000000" points="1175.8751,-205.9488 1179.375,-215.9489 1182.8751,-205.9489 1175.8751,-205.9488"/>
</g>
<!-- ServerCompactActorComponent  -->
<g id="node25" class="node">
<title>ServerCompactActorComponent </title>
<polygon fill="#fb8072" stroke="#000000" points="979.7849,-252 776.2151,-252 776.2151,-216 979.7849,-216 979.7849,-252"/>
<text text-anchor="middle" x="878" y="-229.8" font-family="Times,serif" font-size="14.00" fill="#000000">ServerCompactActorComponent </text>
</g>
<!-- AtftDataCenterActorModule&#45;&gt;ServerCompactActorComponent  -->
<g id="edge24" class="edge">
<title>AtftDataCenterActorModule&#45;&gt;ServerCompactActorComponent </title>
<path fill="none" stroke="#000000" stroke-dasharray="5,2" d="M1361.1061,-181C1221.5707,-181 966.875,-181 966.875,-181 966.875,-181 966.875,-205.7604 966.875,-205.7604"/>
<polygon fill="#000000" stroke="#000000" points="963.3751,-205.7604 966.875,-215.7604 970.3751,-205.7604 963.3751,-205.7604"/>
</g>
<!-- ServerIconActorComponent  -->
<g id="node26" class="node">
<title>ServerIconActorComponent </title>
<polygon fill="#fb8072" stroke="#000000" points="758.113,-252 579.887,-252 579.887,-216 758.113,-216 758.113,-252"/>
<text text-anchor="middle" x="669" y="-229.8" font-family="Times,serif" font-size="14.00" fill="#000000">ServerIconActorComponent </text>
</g>
<!-- AtftDataCenterActorModule&#45;&gt;ServerIconActorComponent  -->
<g id="edge25" class="edge">
<title>AtftDataCenterActorModule&#45;&gt;ServerIconActorComponent </title>
<path fill="none" stroke="#000000" stroke-dasharray="5,2" d="M1361.1081,-178C1172.8237,-178 750.9347,-178 750.9347,-178 750.9347,-178 750.9347,-205.973 750.9347,-205.973"/>
<polygon fill="#000000" stroke="#000000" points="747.4347,-205.973 750.9347,-215.973 754.4347,-205.973 747.4347,-205.973"/>
</g>
<!-- ServerStandActorComponent  -->
<g id="node27" class="node">
<title>ServerStandActorComponent </title>
<polygon fill="#fb8072" stroke="#000000" points="561.6256,-252 376.3744,-252 376.3744,-216 561.6256,-216 561.6256,-252"/>
<text text-anchor="middle" x="469" y="-229.8" font-family="Times,serif" font-size="14.00" fill="#000000">ServerStandActorComponent </text>
</g>
<!-- AtftDataCenterActorModule&#45;&gt;ServerStandActorComponent  -->
<g id="edge26" class="edge">
<title>AtftDataCenterActorModule&#45;&gt;ServerStandActorComponent </title>
<path fill="none" stroke="#000000" stroke-dasharray="5,2" d="M1361.114,-175C1134.4916,-175 552.8841,-175 552.8842,-175 552.8842,-175 552.8842,-205.9775 552.8842,-205.9775"/>
<polygon fill="#000000" stroke="#000000" points="549.3842,-205.9774 552.8842,-215.9775 556.3842,-205.9775 549.3842,-205.9774"/>
</g>
<!-- WorkstationActorComponent  -->
<g id="node28" class="node">
<title>WorkstationActorComponent </title>
<polygon fill="#fb8072" stroke="#000000" points="357.911,-252 172.089,-252 172.089,-216 357.911,-216 357.911,-252"/>
<text text-anchor="middle" x="265" y="-229.8" font-family="Times,serif" font-size="14.00" fill="#000000">WorkstationActorComponent </text>
</g>
<!-- AtftDataCenterActorModule&#45;&gt;WorkstationActorComponent  -->
<g id="edge27" class="edge">
<title>AtftDataCenterActorModule&#45;&gt;WorkstationActorComponent </title>
<path fill="none" stroke="#000000" stroke-dasharray="5,2" d="M1361.2176,-172C1099.293,-172 348.0023,-172 348.0023,-172 348.0023,-172 348.0023,-205.7333 348.0023,-205.7333"/>
<polygon fill="#000000" stroke="#000000" points="344.5024,-205.7333 348.0023,-215.7333 351.5024,-205.7333 344.5024,-205.7333"/>
</g>
<!-- AtftModule -->
<g id="node15" class="node">
<title>AtftModule</title>
<polygon fill="#8dd3c7" stroke="#000000" points="338.0983,-122 335.0983,-126 314.0983,-126 311.0983,-122 255.9017,-122 255.9017,-86 338.0983,-86 338.0983,-122"/>
<text text-anchor="middle" x="297" y="-99.8" font-family="Times,serif" font-size="14.00" fill="#000000">AtftModule</text>
</g>
<!-- AtftModule&#45;&gt;AtftDataCenterActorModule -->
<g id="edge14" class="edge">
<title>AtftModule&#45;&gt;AtftDataCenterActorModule</title>
<path fill="none" stroke="#000000" d="M297,-122.2667C297,-140.5552 297,-166 297,-166 297,-166 1350.9635,-166 1350.9635,-166"/>
<polygon fill="#000000" stroke="#000000" points="1350.9636,-169.5001 1360.9635,-166 1350.9635,-162.5001 1350.9636,-169.5001"/>
</g>
<!-- ActorRepositoryService -->
<g id="node29" class="node">
<title>ActorRepositoryService</title>
<ellipse fill="#fdb462" stroke="#000000" cx="128" cy="-104" rx="104.2111" ry="18"/>
<text text-anchor="middle" x="128" y="-99.8" font-family="Times,serif" font-size="14.00" fill="#000000">ActorRepositoryService</text>
</g>
<!-- ActorRepositoryService&#45;&gt;AtftDataCenterActorModule -->
<g id="edge28" class="edge">
<title>ActorRepositoryService&#45;&gt;AtftDataCenterActorModule</title>
<path fill="none" stroke="#000000" d="M202.2,-116.8419C202.2,-135.7849 202.2,-169 202.2,-169 202.2,-169 1351.2616,-169 1351.2616,-169"/>
<polygon fill="#000000" stroke="#000000" points="1351.2617,-172.5001 1361.2616,-169 1351.2616,-165.5001 1351.2617,-172.5001"/>
</g>
</g>
</svg>
