<?xml version="1.0" encoding="UTF-8" standalone="no"?>
<!DOCTYPE svg PUBLIC "-//W3C//DTD SVG 1.1//EN"
 "http://www.w3.org/Graphics/SVG/1.1/DTD/svg11.dtd">
<!-- Generated by graphviz version 2.40.1 (20161225.0304)
 -->
<!-- Title: dependencies Pages: 1 -->
<svg width="1121pt" height="284pt"
 viewBox="0.00 0.00 1121.00 284.00" xmlns="http://www.w3.org/2000/svg" xmlns:xlink="http://www.w3.org/1999/xlink">
<g id="graph0" class="graph" transform="scale(1 1) rotate(0) translate(4 280)">
<title>dependencies</title>
<polygon fill="#ffffff" stroke="transparent" points="-4,4 -4,-280 1117,-280 1117,4 -4,4"/>
<text text-anchor="start" x="535.5091" y="-42.4" font-family="sans-serif" font-weight="bold" font-size="14.00" fill="#000000">Legend</text>
<polygon fill="#ffffb3" stroke="transparent" points="322.5,-10 322.5,-30 342.5,-30 342.5,-10 322.5,-10"/>
<text text-anchor="start" x="346.129" y="-15.4" font-family="sans-serif" font-size="14.00" fill="#000000"> &#160;Declarations</text>
<polygon fill="#8dd3c7" stroke="transparent" points="435.5,-10 435.5,-30 455.5,-30 455.5,-10 435.5,-10"/>
<text text-anchor="start" x="459.2251" y="-15.4" font-family="sans-serif" font-size="14.00" fill="#000000"> &#160;Module</text>
<polygon fill="#80b1d3" stroke="transparent" points="521.5,-10 521.5,-30 541.5,-30 541.5,-10 521.5,-10"/>
<text text-anchor="start" x="545.2812" y="-15.4" font-family="sans-serif" font-size="14.00" fill="#000000"> &#160;Bootstrap</text>
<polygon fill="#fdb462" stroke="transparent" points="618.5,-10 618.5,-30 638.5,-30 638.5,-10 618.5,-10"/>
<text text-anchor="start" x="642.1732" y="-15.4" font-family="sans-serif" font-size="14.00" fill="#000000"> &#160;Providers</text>
<polygon fill="#fb8072" stroke="transparent" points="714.5,-10 714.5,-30 734.5,-30 734.5,-10 714.5,-10"/>
<text text-anchor="start" x="738.2258" y="-15.4" font-family="sans-serif" font-size="14.00" fill="#000000"> &#160;Exports</text>
<g id="clust1" class="cluster">
<title>cluster_AtftDataCenterActorModule</title>
<polygon fill="none" stroke="#000000" stroke-dasharray="1,5" points="8,-70 8,-268 1105,-268 1105,-70 8,-70"/>
</g>
<g id="clust2" class="cluster">
<title>cluster_AtftDataCenterActorModule_declarations</title>
<polygon fill="none" stroke="#000000" points="122,-78 122,-130 1097,-130 1097,-78 122,-78"/>
</g>
<g id="clust8" class="cluster">
<title>cluster_AtftDataCenterActorModule_imports</title>
<polygon fill="none" stroke="#000000" points="16,-78 16,-130 114,-130 114,-78 16,-78"/>
</g>
<g id="clust9" class="cluster">
<title>cluster_AtftDataCenterActorModule_exports</title>
<polygon fill="none" stroke="#000000" points="59,-208 59,-260 1053,-260 1053,-208 59,-208"/>
</g>
<!-- LayerActorComponent -->
<g id="node1" class="node">
<title>LayerActorComponent</title>
<polygon fill="#ffffb3" stroke="#000000" points="1088.8473,-122 943.1527,-122 943.1527,-86 1088.8473,-86 1088.8473,-122"/>
<text text-anchor="middle" x="1016" y="-99.8" font-family="Times,serif" font-size="14.00" fill="#000000">LayerActorComponent</text>
</g>
<!-- AtftDataCenterActorModule -->
<g id="node6" class="node">
<title>AtftDataCenterActorModule</title>
<polygon fill="#8dd3c7" stroke="#000000" points="657.7142,-187 654.7142,-191 633.7142,-191 630.7142,-187 480.2858,-187 480.2858,-151 657.7142,-151 657.7142,-187"/>
<text text-anchor="middle" x="569" y="-164.8" font-family="Times,serif" font-size="14.00" fill="#000000">AtftDataCenterActorModule</text>
</g>
<!-- LayerActorComponent&#45;&gt;AtftDataCenterActorModule -->
<g id="edge1" class="edge">
<title>LayerActorComponent&#45;&gt;AtftDataCenterActorModule</title>
<path fill="none" stroke="#000000" d="M993.875,-122.2667C993.875,-140.5552 993.875,-166 993.875,-166 993.875,-166 667.809,-166 667.809,-166"/>
<polygon fill="#000000" stroke="#000000" points="667.809,-162.5001 657.809,-166 667.809,-169.5001 667.809,-162.5001"/>
</g>
<!-- ServerBarrelActorComponent -->
<g id="node2" class="node">
<title>ServerBarrelActorComponent</title>
<polygon fill="#ffffb3" stroke="#000000" points="925.2156,-122 740.7844,-122 740.7844,-86 925.2156,-86 925.2156,-122"/>
<text text-anchor="middle" x="833" y="-99.8" font-family="Times,serif" font-size="14.00" fill="#000000">ServerBarrelActorComponent</text>
</g>
<!-- ServerBarrelActorComponent&#45;&gt;AtftDataCenterActorModule -->
<g id="edge2" class="edge">
<title>ServerBarrelActorComponent&#45;&gt;AtftDataCenterActorModule</title>
<path fill="none" stroke="#000000" d="M808.875,-122.0091C808.875,-138.0494 808.875,-159 808.875,-159 808.875,-159 667.9797,-159 667.9797,-159"/>
<polygon fill="#000000" stroke="#000000" points="667.9798,-155.5001 657.9797,-159 667.9797,-162.5001 667.9798,-155.5001"/>
</g>
<!-- ServerCompactActorComponent -->
<g id="node3" class="node">
<title>ServerCompactActorComponent</title>
<polygon fill="#ffffb3" stroke="#000000" points="722.285,-122 521.715,-122 521.715,-86 722.285,-86 722.285,-122"/>
<text text-anchor="middle" x="622" y="-99.8" font-family="Times,serif" font-size="14.00" fill="#000000">ServerCompactActorComponent</text>
</g>
<!-- ServerCompactActorComponent&#45;&gt;AtftDataCenterActorModule -->
<g id="edge3" class="edge">
<title>ServerCompactActorComponent&#45;&gt;AtftDataCenterActorModule</title>
<path fill="none" stroke="#000000" d="M589.8573,-122.1061C589.8573,-122.1061 589.8573,-140.991 589.8573,-140.991"/>
<polygon fill="#000000" stroke="#000000" points="586.3574,-140.9909 589.8573,-150.991 593.3574,-140.991 586.3574,-140.9909"/>
</g>
<!-- ServerIconActorComponent -->
<g id="node4" class="node">
<title>ServerIconActorComponent</title>
<polygon fill="#ffffb3" stroke="#000000" points="504.1134,-122 329.8866,-122 329.8866,-86 504.1134,-86 504.1134,-122"/>
<text text-anchor="middle" x="417" y="-99.8" font-family="Times,serif" font-size="14.00" fill="#000000">ServerIconActorComponent</text>
</g>
<!-- ServerIconActorComponent&#45;&gt;AtftDataCenterActorModule -->
<g id="edge4" class="edge">
<title>ServerIconActorComponent&#45;&gt;AtftDataCenterActorModule</title>
<path fill="none" stroke="#000000" d="M492.2248,-122.1061C492.2248,-122.1061 492.2248,-140.991 492.2248,-140.991"/>
<polygon fill="#000000" stroke="#000000" points="488.7248,-140.9909 492.2248,-150.991 495.7248,-140.991 488.7248,-140.9909"/>
</g>
<!-- ServerStandActorComponent -->
<g id="node5" class="node">
<title>ServerStandActorComponent</title>
<polygon fill="#ffffb3" stroke="#000000" points="311.626,-122 130.374,-122 130.374,-86 311.626,-86 311.626,-122"/>
<text text-anchor="middle" x="221" y="-99.8" font-family="Times,serif" font-size="14.00" fill="#000000">ServerStandActorComponent</text>
</g>
<!-- ServerStandActorComponent&#45;&gt;AtftDataCenterActorModule -->
<g id="edge5" class="edge">
<title>ServerStandActorComponent&#45;&gt;AtftDataCenterActorModule</title>
<path fill="none" stroke="#000000" d="M291.3782,-122.0091C291.3782,-138.0494 291.3782,-159 291.3782,-159 291.3782,-159 470.0132,-159 470.0132,-159"/>
<polygon fill="#000000" stroke="#000000" points="470.0132,-162.5001 480.0132,-159 470.0131,-155.5001 470.0132,-162.5001"/>
</g>
<!-- LayerActorComponent  -->
<g id="node8" class="node">
<title>LayerActorComponent </title>
<polygon fill="#fb8072" stroke="#000000" points="1044.8476,-252 895.1524,-252 895.1524,-216 1044.8476,-216 1044.8476,-252"/>
<text text-anchor="middle" x="970" y="-229.8" font-family="Times,serif" font-size="14.00" fill="#000000">LayerActorComponent </text>
</g>
<!-- AtftDataCenterActorModule&#45;&gt;LayerActorComponent  -->
<g id="edge7" class="edge">
<title>AtftDataCenterActorModule&#45;&gt;LayerActorComponent </title>
<path fill="none" stroke="#000000" stroke-dasharray="5,2" d="M657.7925,-173C758.9306,-173 910.3421,-173 910.3421,-173 910.3421,-173 910.3421,-205.698 910.3421,-205.698"/>
<polygon fill="#000000" stroke="#000000" points="906.8421,-205.698 910.3421,-215.698 913.8421,-205.698 906.8421,-205.698"/>
</g>
<!-- ServerBarrelActorComponent  -->
<g id="node9" class="node">
<title>ServerBarrelActorComponent </title>
<polygon fill="#fb8072" stroke="#000000" points="877.2155,-252 688.7845,-252 688.7845,-216 877.2155,-216 877.2155,-252"/>
<text text-anchor="middle" x="783" y="-229.8" font-family="Times,serif" font-size="14.00" fill="#000000">ServerBarrelActorComponent </text>
</g>
<!-- AtftDataCenterActorModule&#45;&gt;ServerBarrelActorComponent  -->
<g id="edge8" class="edge">
<title>AtftDataCenterActorModule&#45;&gt;ServerBarrelActorComponent </title>
<path fill="none" stroke="#000000" stroke-dasharray="5,2" d="M657.7702,-180C683.8449,-180 705.5174,-180 705.5174,-180 705.5174,-180 705.5174,-205.7181 705.5174,-205.7181"/>
<polygon fill="#000000" stroke="#000000" points="702.0174,-205.718 705.5174,-215.7181 709.0174,-205.7181 702.0174,-205.718"/>
</g>
<!-- ServerCompactActorComponent  -->
<g id="node10" class="node">
<title>ServerCompactActorComponent </title>
<polygon fill="#fb8072" stroke="#000000" points="670.7849,-252 467.2151,-252 467.2151,-216 670.7849,-216 670.7849,-252"/>
<text text-anchor="middle" x="569" y="-229.8" font-family="Times,serif" font-size="14.00" fill="#000000">ServerCompactActorComponent </text>
</g>
<!-- AtftDataCenterActorModule&#45;&gt;ServerCompactActorComponent  -->
<g id="edge9" class="edge">
<title>AtftDataCenterActorModule&#45;&gt;ServerCompactActorComponent </title>
<path fill="none" stroke="#000000" stroke-dasharray="5,2" d="M569,-187.1061C569,-187.1061 569,-205.991 569,-205.991"/>
<polygon fill="#000000" stroke="#000000" points="565.5001,-205.9909 569,-215.991 572.5001,-205.991 565.5001,-205.9909"/>
</g>
<!-- ServerIconActorComponent  -->
<g id="node11" class="node">
<title>ServerIconActorComponent </title>
<polygon fill="#fb8072" stroke="#000000" points="449.113,-252 270.887,-252 270.887,-216 449.113,-216 449.113,-252"/>
<text text-anchor="middle" x="360" y="-229.8" font-family="Times,serif" font-size="14.00" fill="#000000">ServerIconActorComponent </text>
</g>
<!-- AtftDataCenterActorModule&#45;&gt;ServerIconActorComponent  -->
<g id="edge10" class="edge">
<title>AtftDataCenterActorModule&#45;&gt;ServerIconActorComponent </title>
<path fill="none" stroke="#000000" stroke-dasharray="5,2" d="M480.24,-180C434.9857,-180 389.375,-180 389.375,-180 389.375,-180 389.375,-205.7181 389.375,-205.7181"/>
<polygon fill="#000000" stroke="#000000" points="385.8751,-205.718 389.375,-215.7181 392.8751,-205.7181 385.8751,-205.718"/>
</g>
<!-- ServerStandActorComponent  -->
<g id="node12" class="node">
<title>ServerStandActorComponent </title>
<polygon fill="#fb8072" stroke="#000000" points="252.6256,-252 67.3744,-252 67.3744,-216 252.6256,-216 252.6256,-252"/>
<text text-anchor="middle" x="160" y="-229.8" font-family="Times,serif" font-size="14.00" fill="#000000">ServerStandActorComponent </text>
</g>
<!-- AtftDataCenterActorModule&#45;&gt;ServerStandActorComponent  -->
<g id="edge11" class="edge">
<title>AtftDataCenterActorModule&#45;&gt;ServerStandActorComponent </title>
<path fill="none" stroke="#000000" stroke-dasharray="5,2" d="M479.9863,-173C368.3439,-173 191.375,-173 191.375,-173 191.375,-173 191.375,-205.698 191.375,-205.698"/>
<polygon fill="#000000" stroke="#000000" points="187.8751,-205.698 191.375,-215.698 194.8751,-205.698 187.8751,-205.698"/>
</g>
<!-- AtftModule -->
<g id="node7" class="node">
<title>AtftModule</title>
<polygon fill="#8dd3c7" stroke="#000000" points="106.0983,-122 103.0983,-126 82.0983,-126 79.0983,-122 23.9017,-122 23.9017,-86 106.0983,-86 106.0983,-122"/>
<text text-anchor="middle" x="65" y="-99.8" font-family="Times,serif" font-size="14.00" fill="#000000">AtftModule</text>
</g>
<!-- AtftModule&#45;&gt;AtftDataCenterActorModule -->
<g id="edge6" class="edge">
<title>AtftModule&#45;&gt;AtftDataCenterActorModule</title>
<path fill="none" stroke="#000000" d="M86.7432,-122.2667C86.7432,-140.5552 86.7432,-166 86.7432,-166 86.7432,-166 470.2658,-166 470.2658,-166"/>
<polygon fill="#000000" stroke="#000000" points="470.2658,-169.5001 480.2658,-166 470.2658,-162.5001 470.2658,-169.5001"/>
</g>
</g>
</svg>
