<?xml version="1.0" encoding="UTF-8" standalone="no"?>
<!DOCTYPE svg PUBLIC "-//W3C//DTD SVG 1.1//EN"
 "http://www.w3.org/Graphics/SVG/1.1/DTD/svg11.dtd">
<!-- Generated by graphviz version 2.47.0 (20210316.0004)
 -->
<!-- Title: dependencies Pages: 1 -->
<svg width="2783pt" height="284pt"
 viewBox="0.00 0.00 2783.00 284.00" xmlns="http://www.w3.org/2000/svg" xmlns:xlink="http://www.w3.org/1999/xlink">
<g id="graph0" class="graph" transform="scale(1 1) rotate(0) translate(4 280)">
<title>dependencies</title>
<polygon fill="white" stroke="transparent" points="-4,4 -4,-280 2779,-280 2779,4 -4,4"/>
<text text-anchor="start" x="1366.51" y="-42.4" font-family="Times-12" font-weight="bold" font-size="14.00">Legend</text>
<polygon fill="#ffffb3" stroke="transparent" points="1153.5,-10 1153.5,-30 1173.5,-30 1173.5,-10 1153.5,-10"/>
<text text-anchor="start" x="1177.13" y="-15.4" font-family="Times-12" font-size="14.00"> &#160;Declarations</text>
<polygon fill="#8dd3c7" stroke="transparent" points="1266.5,-10 1266.5,-30 1286.5,-30 1286.5,-10 1266.5,-10"/>
<text text-anchor="start" x="1290.23" y="-15.4" font-family="Times-12" font-size="14.00"> &#160;Module</text>
<polygon fill="#80b1d3" stroke="transparent" points="1352.5,-10 1352.5,-30 1372.5,-30 1372.5,-10 1352.5,-10"/>
<text text-anchor="start" x="1376.28" y="-15.4" font-family="Times-12" font-size="14.00"> &#160;Bootstrap</text>
<polygon fill="#fdb462" stroke="transparent" points="1449.5,-10 1449.5,-30 1469.5,-30 1469.5,-10 1449.5,-10"/>
<text text-anchor="start" x="1473.17" y="-15.4" font-family="Times-12" font-size="14.00"> &#160;Providers</text>
<polygon fill="#fb8072" stroke="transparent" points="1545.5,-10 1545.5,-30 1565.5,-30 1565.5,-10 1545.5,-10"/>
<text text-anchor="start" x="1569.23" y="-15.4" font-family="Times-12" font-size="14.00"> &#160;Exports</text>
<g id="clust1" class="cluster">
<title>cluster_AtftDataCenterActorModule</title>
<polygon fill="none" stroke="black" stroke-dasharray="1,5" points="8,-70 8,-268 2767,-268 2767,-70 8,-70"/>
</g>
<g id="clust16" class="cluster">
<title>cluster_AtftDataCenterActorModule_imports</title>
<polygon fill="none" stroke="black" points="2661,-78 2661,-130 2759,-130 2759,-78 2661,-78"/>
</g>
<g id="clust17" class="cluster">
<title>cluster_AtftDataCenterActorModule_exports</title>
<polygon fill="none" stroke="black" points="224,-208 224,-260 2676,-260 2676,-208 224,-208"/>
</g>
<g id="clust2" class="cluster">
<title>cluster_AtftDataCenterActorModule_declarations</title>
<polygon fill="none" stroke="black" points="248,-78 248,-130 2653,-130 2653,-78 248,-78"/>
</g>
<g id="clust19" class="cluster">
<title>cluster_AtftDataCenterActorModule_providers</title>
<polygon fill="none" stroke="black" points="16,-78 16,-130 240,-130 240,-78 16,-78"/>
</g>
<!-- DagreCompositionComponent -->
<g id="node1" class="node">
<title>DagreCompositionComponent</title>
<polygon fill="#ffffb3" stroke="black" points="2644.87,-122 2457.13,-122 2457.13,-86 2644.87,-86 2644.87,-122"/>
<text text-anchor="middle" x="2551" y="-99.8" font-family="Times,serif" font-size="14.00">DagreCompositionComponent</text>
</g>
<!-- AtftDataCenterActorModule -->
<g id="node14" class="node">
<title>AtftDataCenterActorModule</title>
<polygon fill="#8dd3c7" stroke="black" points="1598.71,-187 1595.71,-191 1574.71,-191 1571.71,-187 1421.29,-187 1421.29,-151 1598.71,-151 1598.71,-187"/>
<text text-anchor="middle" x="1510" y="-164.8" font-family="Times,serif" font-size="14.00">AtftDataCenterActorModule</text>
</g>
<!-- DagreCompositionComponent&#45;&gt;AtftDataCenterActorModule -->
<g id="edge1" class="edge">
<title>DagreCompositionComponent&#45;&gt;AtftDataCenterActorModule</title>
<path fill="none" stroke="black" d="M2467.11,-122.27C2467.11,-140.56 2467.11,-166 2467.11,-166 2467.11,-166 1608.75,-166 1608.75,-166"/>
<polygon fill="black" stroke="black" points="1608.75,-162.5 1598.75,-166 1608.75,-169.5 1608.75,-162.5"/>
</g>
<!-- DagreEdgeComponent -->
<g id="node2" class="node">
<title>DagreEdgeComponent</title>
<polygon fill="#ffffb3" stroke="black" points="2439.3,-122 2294.7,-122 2294.7,-86 2439.3,-86 2439.3,-122"/>
<text text-anchor="middle" x="2367" y="-99.8" font-family="Times,serif" font-size="14.00">DagreEdgeComponent</text>
</g>
<!-- DagreEdgeComponent&#45;&gt;AtftDataCenterActorModule -->
<g id="edge2" class="edge">
<title>DagreEdgeComponent&#45;&gt;AtftDataCenterActorModule</title>
<path fill="none" stroke="black" d="M2302.48,-122.02C2302.48,-139.37 2302.48,-163 2302.48,-163 2302.48,-163 1608.98,-163 1608.98,-163"/>
<polygon fill="black" stroke="black" points="1608.98,-159.5 1598.98,-163 1608.98,-166.5 1608.98,-159.5"/>
</g>
<!-- DagreLayoutComponent -->
<g id="node3" class="node">
<title>DagreLayoutComponent</title>
<polygon fill="#ffffb3" stroke="black" points="2276.69,-122 2121.31,-122 2121.31,-86 2276.69,-86 2276.69,-122"/>
<text text-anchor="middle" x="2199" y="-99.8" font-family="Times,serif" font-size="14.00">DagreLayoutComponent</text>
</g>
<!-- DagreLayoutComponent&#45;&gt;AtftDataCenterActorModule -->
<g id="edge3" class="edge">
<title>DagreLayoutComponent&#45;&gt;AtftDataCenterActorModule</title>
<path fill="none" stroke="black" d="M2127.53,-122.03C2127.53,-138.4 2127.53,-160 2127.53,-160 2127.53,-160 1608.81,-160 1608.81,-160"/>
<polygon fill="black" stroke="black" points="1608.81,-156.5 1598.81,-160 1608.81,-163.5 1608.81,-156.5"/>
</g>
<!-- DagreNodeComponent -->
<g id="node4" class="node">
<title>DagreNodeComponent</title>
<polygon fill="#ffffb3" stroke="black" points="2102.85,-122 1957.15,-122 1957.15,-86 2102.85,-86 2102.85,-122"/>
<text text-anchor="middle" x="2030" y="-99.8" font-family="Times,serif" font-size="14.00">DagreNodeComponent</text>
</g>
<!-- DagreNodeComponent&#45;&gt;AtftDataCenterActorModule -->
<g id="edge4" class="edge">
<title>DagreNodeComponent&#45;&gt;AtftDataCenterActorModule</title>
<path fill="none" stroke="black" d="M1961.7,-122.24C1961.7,-137.57 1961.7,-157 1961.7,-157 1961.7,-157 1608.97,-157 1608.97,-157"/>
<polygon fill="black" stroke="black" points="1608.97,-153.5 1598.97,-157 1608.97,-160.5 1608.97,-153.5"/>
</g>
<!-- DagreYamlParserComponent -->
<g id="node5" class="node">
<title>DagreYamlParserComponent</title>
<polygon fill="#ffffb3" stroke="black" points="1938.61,-122 1757.39,-122 1757.39,-86 1938.61,-86 1938.61,-122"/>
<text text-anchor="middle" x="1848" y="-99.8" font-family="Times,serif" font-size="14.00">DagreYamlParserComponent</text>
</g>
<!-- DagreYamlParserComponent&#45;&gt;AtftDataCenterActorModule -->
<g id="edge5" class="edge">
<title>DagreYamlParserComponent&#45;&gt;AtftDataCenterActorModule</title>
<path fill="none" stroke="black" d="M1880.35,-122.05C1880.35,-136.37 1880.35,-154 1880.35,-154 1880.35,-154 1609.18,-154 1609.18,-154"/>
<polygon fill="black" stroke="black" points="1609.18,-150.5 1599.18,-154 1609.18,-157.5 1609.18,-150.5"/>
</g>
<!-- GridActorComponent -->
<g id="node6" class="node">
<title>GridActorComponent</title>
<polygon fill="#ffffb3" stroke="black" points="1739.36,-122 1600.64,-122 1600.64,-86 1739.36,-86 1739.36,-122"/>
<text text-anchor="middle" x="1670" y="-99.8" font-family="Times,serif" font-size="14.00">GridActorComponent</text>
</g>
<!-- GridActorComponent&#45;&gt;AtftDataCenterActorModule -->
<g id="edge6" class="edge">
<title>GridActorComponent&#45;&gt;AtftDataCenterActorModule</title>
<path fill="none" stroke="black" d="M1600.59,-104C1594.68,-104 1590.89,-104 1590.89,-104 1590.89,-104 1590.89,-140.89 1590.89,-140.89"/>
<polygon fill="black" stroke="black" points="1587.39,-140.89 1590.89,-150.89 1594.39,-140.89 1587.39,-140.89"/>
</g>
<!-- LayerActorComponent -->
<g id="node7" class="node">
<title>LayerActorComponent</title>
<polygon fill="#ffffb3" stroke="black" points="1582.85,-122 1437.15,-122 1437.15,-86 1582.85,-86 1582.85,-122"/>
<text text-anchor="middle" x="1510" y="-99.8" font-family="Times,serif" font-size="14.00">LayerActorComponent</text>
</g>
<!-- LayerActorComponent&#45;&gt;AtftDataCenterActorModule -->
<g id="edge7" class="edge">
<title>LayerActorComponent&#45;&gt;AtftDataCenterActorModule</title>
<path fill="none" stroke="black" d="M1510,-122.11C1510,-122.11 1510,-140.99 1510,-140.99"/>
<polygon fill="black" stroke="black" points="1506.5,-140.99 1510,-150.99 1513.5,-140.99 1506.5,-140.99"/>
</g>
<!-- ModelActorComponent -->
<g id="node8" class="node">
<title>ModelActorComponent</title>
<polygon fill="#ffffb3" stroke="black" points="1418.75,-122 1269.25,-122 1269.25,-86 1418.75,-86 1418.75,-122"/>
<text text-anchor="middle" x="1344" y="-99.8" font-family="Times,serif" font-size="14.00">ModelActorComponent</text>
</g>
<!-- ModelActorComponent&#45;&gt;AtftDataCenterActorModule -->
<g id="edge8" class="edge">
<title>ModelActorComponent&#45;&gt;AtftDataCenterActorModule</title>
<path fill="none" stroke="black" d="M1419.01,-104C1425.18,-104 1429.11,-104 1429.11,-104 1429.11,-104 1429.11,-140.89 1429.11,-140.89"/>
<polygon fill="black" stroke="black" points="1425.61,-140.89 1429.11,-150.89 1432.61,-140.89 1425.61,-140.89"/>
</g>
<!-- ServerBarrelActorComponent -->
<g id="node9" class="node">
<title>ServerBarrelActorComponent</title>
<polygon fill="#ffffb3" stroke="black" points="1251.22,-122 1066.78,-122 1066.78,-86 1251.22,-86 1251.22,-122"/>
<text text-anchor="middle" x="1159" y="-99.8" font-family="Times,serif" font-size="14.00">ServerBarrelActorComponent</text>
</g>
<!-- ServerBarrelActorComponent&#45;&gt;AtftDataCenterActorModule -->
<g id="edge9" class="edge">
<title>ServerBarrelActorComponent&#45;&gt;AtftDataCenterActorModule</title>
<path fill="none" stroke="black" d="M1186.29,-122.05C1186.29,-136.37 1186.29,-154 1186.29,-154 1186.29,-154 1411.12,-154 1411.12,-154"/>
<polygon fill="black" stroke="black" points="1411.12,-157.5 1421.12,-154 1411.12,-150.5 1411.12,-157.5"/>
</g>
<!-- ServerCompactActorComponent -->
<g id="node10" class="node">
<title>ServerCompactActorComponent</title>
<polygon fill="#ffffb3" stroke="black" points="1048.29,-122 847.71,-122 847.71,-86 1048.29,-86 1048.29,-122"/>
<text text-anchor="middle" x="948" y="-99.8" font-family="Times,serif" font-size="14.00">ServerCompactActorComponent</text>
</g>
<!-- ServerCompactActorComponent&#45;&gt;AtftDataCenterActorModule -->
<g id="edge10" class="edge">
<title>ServerCompactActorComponent&#45;&gt;AtftDataCenterActorModule</title>
<path fill="none" stroke="black" d="M1044.02,-122.24C1044.02,-137.57 1044.02,-157 1044.02,-157 1044.02,-157 1411.26,-157 1411.26,-157"/>
<polygon fill="black" stroke="black" points="1411.26,-160.5 1421.26,-157 1411.26,-153.5 1411.26,-160.5"/>
</g>
<!-- ServerIconActorComponent -->
<g id="node11" class="node">
<title>ServerIconActorComponent</title>
<polygon fill="#ffffb3" stroke="black" points="830.11,-122 655.89,-122 655.89,-86 830.11,-86 830.11,-122"/>
<text text-anchor="middle" x="743" y="-99.8" font-family="Times,serif" font-size="14.00">ServerIconActorComponent</text>
</g>
<!-- ServerIconActorComponent&#45;&gt;AtftDataCenterActorModule -->
<g id="edge11" class="edge">
<title>ServerIconActorComponent&#45;&gt;AtftDataCenterActorModule</title>
<path fill="none" stroke="black" d="M824.18,-122.03C824.18,-138.4 824.18,-160 824.18,-160 824.18,-160 1411.04,-160 1411.04,-160"/>
<polygon fill="black" stroke="black" points="1411.04,-163.5 1421.04,-160 1411.04,-156.5 1411.04,-163.5"/>
</g>
<!-- ServerStandActorComponent -->
<g id="node12" class="node">
<title>ServerStandActorComponent</title>
<polygon fill="#ffffb3" stroke="black" points="637.63,-122 456.37,-122 456.37,-86 637.63,-86 637.63,-122"/>
<text text-anchor="middle" x="547" y="-99.8" font-family="Times,serif" font-size="14.00">ServerStandActorComponent</text>
</g>
<!-- ServerStandActorComponent&#45;&gt;AtftDataCenterActorModule -->
<g id="edge12" class="edge">
<title>ServerStandActorComponent&#45;&gt;AtftDataCenterActorModule</title>
<path fill="none" stroke="black" d="M629.69,-122.02C629.69,-139.37 629.69,-163 629.69,-163 629.69,-163 1411.15,-163 1411.15,-163"/>
<polygon fill="black" stroke="black" points="1411.15,-166.5 1421.15,-163 1411.15,-159.5 1411.15,-166.5"/>
</g>
<!-- WorkstationActorComponent -->
<g id="node13" class="node">
<title>WorkstationActorComponent</title>
<polygon fill="#ffffb3" stroke="black" points="438.41,-122 255.59,-122 255.59,-86 438.41,-86 438.41,-122"/>
<text text-anchor="middle" x="347" y="-99.8" font-family="Times,serif" font-size="14.00">WorkstationActorComponent</text>
</g>
<!-- WorkstationActorComponent&#45;&gt;AtftDataCenterActorModule -->
<g id="edge13" class="edge">
<title>WorkstationActorComponent&#45;&gt;AtftDataCenterActorModule</title>
<path fill="none" stroke="black" d="M427.2,-122.27C427.2,-140.56 427.2,-166 427.2,-166 427.2,-166 1410.93,-166 1410.93,-166"/>
<polygon fill="black" stroke="black" points="1410.93,-169.5 1420.93,-166 1410.93,-162.5 1410.93,-169.5"/>
</g>
<!-- DagreCompositionComponent  -->
<g id="node16" class="node">
<title>DagreCompositionComponent </title>
<polygon fill="#fb8072" stroke="black" points="2667.87,-252 2476.13,-252 2476.13,-216 2667.87,-216 2667.87,-252"/>
<text text-anchor="middle" x="2572" y="-229.8" font-family="Times,serif" font-size="14.00">DagreCompositionComponent </text>
</g>
<!-- AtftDataCenterActorModule&#45;&gt;DagreCompositionComponent  -->
<g id="edge15" class="edge">
<title>AtftDataCenterActorModule&#45;&gt;DagreCompositionComponent </title>
<path fill="none" stroke="black" stroke-dasharray="5,2" d="M1599.12,-172C1852.8,-172 2560.62,-172 2560.62,-172 2560.62,-172 2560.62,-205.73 2560.62,-205.73"/>
<polygon fill="black" stroke="black" points="2557.13,-205.73 2560.62,-215.73 2564.13,-205.73 2557.13,-205.73"/>
</g>
<!-- DagreEdgeComponent  -->
<g id="node17" class="node">
<title>DagreEdgeComponent </title>
<polygon fill="#fb8072" stroke="black" points="2457.8,-252 2310.2,-252 2310.2,-216 2457.8,-216 2457.8,-252"/>
<text text-anchor="middle" x="2384" y="-229.8" font-family="Times,serif" font-size="14.00">DagreEdgeComponent </text>
</g>
<!-- AtftDataCenterActorModule&#45;&gt;DagreEdgeComponent  -->
<g id="edge16" class="edge">
<title>AtftDataCenterActorModule&#45;&gt;DagreEdgeComponent </title>
<path fill="none" stroke="black" stroke-dasharray="5,2" d="M1598.87,-175C1819.51,-175 2374.62,-175 2374.62,-175 2374.62,-175 2374.62,-205.98 2374.62,-205.98"/>
<polygon fill="black" stroke="black" points="2371.13,-205.98 2374.62,-215.98 2378.13,-205.98 2371.13,-205.98"/>
</g>
<!-- DagreLayoutComponent  -->
<g id="node18" class="node">
<title>DagreLayoutComponent </title>
<polygon fill="#fb8072" stroke="black" points="2292.19,-252 2133.81,-252 2133.81,-216 2292.19,-216 2292.19,-252"/>
<text text-anchor="middle" x="2213" y="-229.8" font-family="Times,serif" font-size="14.00">DagreLayoutComponent </text>
</g>
<!-- AtftDataCenterActorModule&#45;&gt;DagreLayoutComponent  -->
<g id="edge17" class="edge">
<title>AtftDataCenterActorModule&#45;&gt;DagreLayoutComponent </title>
<path fill="none" stroke="black" stroke-dasharray="5,2" d="M1598.74,-178C1786.14,-178 2205.12,-178 2205.12,-178 2205.12,-178 2205.12,-205.97 2205.12,-205.97"/>
<polygon fill="black" stroke="black" points="2201.63,-205.97 2205.12,-215.97 2208.63,-205.97 2201.63,-205.97"/>
</g>
<!-- DagreNodeComponent  -->
<g id="node19" class="node">
<title>DagreNodeComponent </title>
<polygon fill="#fb8072" stroke="black" points="2115.85,-252 1966.15,-252 1966.15,-216 2115.85,-216 2115.85,-252"/>
<text text-anchor="middle" x="2041" y="-229.8" font-family="Times,serif" font-size="14.00">DagreNodeComponent </text>
</g>
<!-- AtftDataCenterActorModule&#45;&gt;DagreNodeComponent  -->
<g id="edge18" class="edge">
<title>AtftDataCenterActorModule&#45;&gt;DagreNodeComponent </title>
<path fill="none" stroke="black" stroke-dasharray="5,2" d="M1599,-181C1748.67,-181 2034.62,-181 2034.62,-181 2034.62,-181 2034.62,-205.76 2034.62,-205.76"/>
<polygon fill="black" stroke="black" points="2031.13,-205.76 2034.62,-215.76 2038.13,-205.76 2031.13,-205.76"/>
</g>
<!-- DagreYamlParserComponent  -->
<g id="node20" class="node">
<title>DagreYamlParserComponent </title>
<polygon fill="#fb8072" stroke="black" points="1948.61,-252 1763.39,-252 1763.39,-216 1948.61,-216 1948.61,-252"/>
<text text-anchor="middle" x="1856" y="-229.8" font-family="Times,serif" font-size="14.00">DagreYamlParserComponent </text>
</g>
<!-- AtftDataCenterActorModule&#45;&gt;DagreYamlParserComponent  -->
<g id="edge19" class="edge">
<title>AtftDataCenterActorModule&#45;&gt;DagreYamlParserComponent </title>
<path fill="none" stroke="black" stroke-dasharray="5,2" d="M1598.96,-184C1691.15,-184 1821.9,-184 1821.9,-184 1821.9,-184 1821.9,-205.95 1821.9,-205.95"/>
<polygon fill="black" stroke="black" points="1818.4,-205.95 1821.9,-215.95 1825.4,-205.95 1818.4,-205.95"/>
</g>
<!-- GridActorComponent  -->
<g id="node21" class="node">
<title>GridActorComponent </title>
<polygon fill="#fb8072" stroke="black" points="1745.36,-252 1602.64,-252 1602.64,-216 1745.36,-216 1745.36,-252"/>
<text text-anchor="middle" x="1674" y="-229.8" font-family="Times,serif" font-size="14.00">GridActorComponent </text>
</g>
<!-- AtftDataCenterActorModule&#45;&gt;GridActorComponent  -->
<g id="edge20" class="edge">
<title>AtftDataCenterActorModule&#45;&gt;GridActorComponent </title>
<path fill="none" stroke="black" stroke-dasharray="5,2" d="M1591.77,-187.11C1591.77,-206.34 1591.77,-234 1591.77,-234 1591.77,-234 1592.84,-234 1592.84,-234"/>
<polygon fill="black" stroke="black" points="1592.52,-237.5 1602.52,-234 1592.52,-230.5 1592.52,-237.5"/>
</g>
<!-- LayerActorComponent  -->
<g id="node22" class="node">
<title>LayerActorComponent </title>
<polygon fill="#fb8072" stroke="black" points="1584.85,-252 1435.15,-252 1435.15,-216 1584.85,-216 1584.85,-252"/>
<text text-anchor="middle" x="1510" y="-229.8" font-family="Times,serif" font-size="14.00">LayerActorComponent </text>
</g>
<!-- AtftDataCenterActorModule&#45;&gt;LayerActorComponent  -->
<g id="edge21" class="edge">
<title>AtftDataCenterActorModule&#45;&gt;LayerActorComponent </title>
<path fill="none" stroke="black" stroke-dasharray="5,2" d="M1510,-187.11C1510,-187.11 1510,-205.99 1510,-205.99"/>
<polygon fill="black" stroke="black" points="1506.5,-205.99 1510,-215.99 1513.5,-205.99 1506.5,-205.99"/>
</g>
<!-- ModelActorComponent  -->
<g id="node23" class="node">
<title>ModelActorComponent </title>
<polygon fill="#fb8072" stroke="black" points="1417.75,-252 1264.25,-252 1264.25,-216 1417.75,-216 1417.75,-252"/>
<text text-anchor="middle" x="1341" y="-229.8" font-family="Times,serif" font-size="14.00">ModelActorComponent </text>
</g>
<!-- AtftDataCenterActorModule&#45;&gt;ModelActorComponent  -->
<g id="edge22" class="edge">
<title>AtftDataCenterActorModule&#45;&gt;ModelActorComponent </title>
<path fill="none" stroke="black" stroke-dasharray="5,2" d="M1428.23,-187.11C1428.23,-206.34 1428.23,-234 1428.23,-234 1428.23,-234 1427.2,-234 1427.2,-234"/>
<polygon fill="black" stroke="black" points="1427.89,-230.5 1417.89,-234 1427.89,-237.5 1427.89,-230.5"/>
</g>
<!-- ServerBarrelActorComponent  -->
<g id="node24" class="node">
<title>ServerBarrelActorComponent </title>
<polygon fill="#fb8072" stroke="black" points="1246.22,-252 1057.78,-252 1057.78,-216 1246.22,-216 1246.22,-252"/>
<text text-anchor="middle" x="1152" y="-229.8" font-family="Times,serif" font-size="14.00">ServerBarrelActorComponent </text>
</g>
<!-- AtftDataCenterActorModule&#45;&gt;ServerBarrelActorComponent  -->
<g id="edge23" class="edge">
<title>AtftDataCenterActorModule&#45;&gt;ServerBarrelActorComponent </title>
<path fill="none" stroke="black" stroke-dasharray="5,2" d="M1421.05,-184C1307.74,-184 1126.46,-184 1126.46,-184 1126.46,-184 1126.46,-205.95 1126.46,-205.95"/>
<polygon fill="black" stroke="black" points="1122.96,-205.95 1126.46,-215.95 1129.96,-205.95 1122.96,-205.95"/>
</g>
<!-- ServerCompactActorComponent  -->
<g id="node25" class="node">
<title>ServerCompactActorComponent </title>
<polygon fill="#fb8072" stroke="black" points="1039.78,-252 836.22,-252 836.22,-216 1039.78,-216 1039.78,-252"/>
<text text-anchor="middle" x="938" y="-229.8" font-family="Times,serif" font-size="14.00">ServerCompactActorComponent </text>
</g>
<!-- AtftDataCenterActorModule&#45;&gt;ServerCompactActorComponent  -->
<g id="edge24" class="edge">
<title>AtftDataCenterActorModule&#45;&gt;ServerCompactActorComponent </title>
<path fill="none" stroke="black" stroke-dasharray="5,2" d="M1421.23,-181C1261.91,-181 943.88,-181 943.88,-181 943.88,-181 943.88,-205.76 943.88,-205.76"/>
<polygon fill="black" stroke="black" points="940.38,-205.76 943.88,-215.76 947.38,-205.76 940.38,-205.76"/>
</g>
<!-- ServerIconActorComponent  -->
<g id="node26" class="node">
<title>ServerIconActorComponent </title>
<polygon fill="#fb8072" stroke="black" points="818.11,-252 639.89,-252 639.89,-216 818.11,-216 818.11,-252"/>
<text text-anchor="middle" x="729" y="-229.8" font-family="Times,serif" font-size="14.00">ServerIconActorComponent </text>
</g>
<!-- AtftDataCenterActorModule&#45;&gt;ServerIconActorComponent  -->
<g id="edge25" class="edge">
<title>AtftDataCenterActorModule&#45;&gt;ServerIconActorComponent </title>
<path fill="none" stroke="black" stroke-dasharray="5,2" d="M1420.94,-178C1217.64,-178 736.88,-178 736.88,-178 736.88,-178 736.88,-205.97 736.88,-205.97"/>
<polygon fill="black" stroke="black" points="733.38,-205.97 736.88,-215.97 740.38,-205.97 733.38,-205.97"/>
</g>
<!-- ServerStandActorComponent  -->
<g id="node27" class="node">
<title>ServerStandActorComponent </title>
<polygon fill="#fb8072" stroke="black" points="621.63,-252 436.37,-252 436.37,-216 621.63,-216 621.63,-252"/>
<text text-anchor="middle" x="529" y="-229.8" font-family="Times,serif" font-size="14.00">ServerStandActorComponent </text>
</g>
<!-- AtftDataCenterActorModule&#45;&gt;ServerStandActorComponent  -->
<g id="edge26" class="edge">
<title>AtftDataCenterActorModule&#45;&gt;ServerStandActorComponent </title>
<path fill="none" stroke="black" stroke-dasharray="5,2" d="M1421.24,-175C1181.51,-175 538.88,-175 538.88,-175 538.88,-175 538.88,-205.98 538.88,-205.98"/>
<polygon fill="black" stroke="black" points="535.38,-205.98 538.88,-215.98 542.38,-205.98 535.38,-205.98"/>
</g>
<!-- WorkstationActorComponent  -->
<g id="node28" class="node">
<title>WorkstationActorComponent </title>
<polygon fill="#fb8072" stroke="black" points="417.91,-252 232.09,-252 232.09,-216 417.91,-216 417.91,-252"/>
<text text-anchor="middle" x="325" y="-229.8" font-family="Times,serif" font-size="14.00">WorkstationActorComponent </text>
</g>
<!-- AtftDataCenterActorModule&#45;&gt;WorkstationActorComponent  -->
<g id="edge27" class="edge">
<title>AtftDataCenterActorModule&#45;&gt;WorkstationActorComponent </title>
<path fill="none" stroke="black" stroke-dasharray="5,2" d="M1420.86,-172C1147.1,-172 336.88,-172 336.88,-172 336.88,-172 336.88,-205.73 336.88,-205.73"/>
<polygon fill="black" stroke="black" points="333.38,-205.73 336.88,-215.73 340.38,-205.73 333.38,-205.73"/>
</g>
<!-- AtftModule -->
<g id="node15" class="node">
<title>AtftModule</title>
<polygon fill="#8dd3c7" stroke="black" points="2751.1,-122 2748.1,-126 2727.1,-126 2724.1,-122 2668.9,-122 2668.9,-86 2751.1,-86 2751.1,-122"/>
<text text-anchor="middle" x="2710" y="-99.8" font-family="Times,serif" font-size="14.00">AtftModule</text>
</g>
<!-- AtftModule&#45;&gt;AtftDataCenterActorModule -->
<g id="edge14" class="edge">
<title>AtftModule&#45;&gt;AtftDataCenterActorModule</title>
<path fill="none" stroke="black" d="M2710,-122.11C2710,-141.34 2710,-169 2710,-169 2710,-169 1608.73,-169 1608.73,-169"/>
<polygon fill="black" stroke="black" points="1608.73,-165.5 1598.73,-169 1608.73,-172.5 1608.73,-165.5"/>
</g>
<!-- ActorRepositoryService -->
<g id="node29" class="node">
<title>ActorRepositoryService</title>
<ellipse fill="#fdb462" stroke="black" cx="128" cy="-104" rx="104.21" ry="18"/>
<text text-anchor="middle" x="128" y="-99.8" font-family="Times,serif" font-size="14.00">ActorRepositoryService</text>
</g>
<!-- ActorRepositoryService&#45;&gt;AtftDataCenterActorModule -->
<g id="edge28" class="edge">
<title>ActorRepositoryService&#45;&gt;AtftDataCenterActorModule</title>
<path fill="none" stroke="black" d="M127.84,-122.11C127.84,-141.34 127.84,-169 127.84,-169 127.84,-169 1411.17,-169 1411.17,-169"/>
<polygon fill="black" stroke="black" points="1411.17,-172.5 1421.17,-169 1411.17,-165.5 1411.17,-172.5"/>
</g>
</g>
</svg>
