<?xml version="1.0" encoding="UTF-8" standalone="no"?>
<!DOCTYPE svg PUBLIC "-//W3C//DTD SVG 1.1//EN"
 "http://www.w3.org/Graphics/SVG/1.1/DTD/svg11.dtd">
<!-- Generated by graphviz version 2.47.3 (20210619.1520)
 -->
<!-- Title: dependencies Pages: 1 -->
<svg width="218pt" height="174pt"
 viewBox="0.00 0.00 218.00 173.80" xmlns="http://www.w3.org/2000/svg" xmlns:xlink="http://www.w3.org/1999/xlink">
<g id="graph0" class="graph" transform="scale(1 1) rotate(0) translate(4 169.8)">
<title>dependencies</title>
<polygon fill="white" stroke="transparent" points="-4,4 -4,-169.8 214,-169.8 214,4 -4,4"/>
<text text-anchor="middle" x="105" y="-8.2" font-family="sans-serif" font-size="14.00">dependencies</text>
<g id="clust1" class="cluster">
<title>cluster_AtftAnimationModule</title>
<polygon fill="none" stroke="black" stroke-dasharray="1,5" points="8,-32.8 8,-157.8 202,-157.8 202,-32.8 8,-32.8"/>
</g>
<g id="clust6" class="cluster">
<title>cluster_AtftAnimationModule_providers</title>
<polygon fill="none" stroke="black" points="16,-40.8 16,-92.8 194,-92.8 194,-40.8 16,-40.8"/>
</g>
<!-- AnimationService -->
<g id="node1" class="node">
<title>AnimationService</title>
<ellipse fill="#fdb462" stroke="black" cx="105" cy="-66.8" rx="81.1" ry="18"/>
<text text-anchor="middle" x="105" y="-62.6" font-family="Times,serif" font-size="14.00">AnimationService</text>
</g>
<!-- AtftAnimationModule -->
<g id="node2" class="node">
<title>AtftAnimationModule</title>
<polygon fill="#8dd3c7" stroke="black" points="175.98,-149.8 172.98,-153.8 151.98,-153.8 148.98,-149.8 34.02,-149.8 34.02,-113.8 175.98,-113.8 175.98,-149.8"/>
<text text-anchor="middle" x="105" y="-127.6" font-family="Times,serif" font-size="14.00">AtftAnimationModule</text>
</g>
<!-- AnimationService&#45;&gt;AtftAnimationModule -->
<g id="edge1" class="edge">
<title>AnimationService&#45;&gt;AtftAnimationModule</title>
<path fill="none" stroke="black" d="M105,-84.91C105,-84.91 105,-103.79 105,-103.79"/>
<polygon fill="black" stroke="black" points="101.5,-103.79 105,-113.79 108.5,-103.79 101.5,-103.79"/>
</g>
</g>
</svg>
