<?xml version="1.0" encoding="UTF-8" standalone="no"?>
<!DOCTYPE svg PUBLIC "-//W3C//DTD SVG 1.1//EN"
 "http://www.w3.org/Graphics/SVG/1.1/DTD/svg11.dtd">
<!-- Generated by graphviz version 2.47.0 (20210316.0004)
 -->
<!-- Title: dependencies Pages: 1 -->
<svg width="568pt" height="284pt"
 viewBox="0.00 0.00 568.00 284.00" xmlns="http://www.w3.org/2000/svg" xmlns:xlink="http://www.w3.org/1999/xlink">
<g id="graph0" class="graph" transform="scale(1 1) rotate(0) translate(4 280)">
<title>dependencies</title>
<polygon fill="white" stroke="transparent" points="-4,4 -4,-280 564,-280 564,4 -4,4"/>
<text text-anchor="start" x="259.01" y="-42.4" font-family="Times-12" font-weight="bold" font-size="14.00">Legend</text>
<polygon fill="#ffffb3" stroke="transparent" points="46,-10 46,-30 66,-30 66,-10 46,-10"/>
<text text-anchor="start" x="69.63" y="-15.4" font-family="Times-12" font-size="14.00"> &#160;Declarations</text>
<polygon fill="#8dd3c7" stroke="transparent" points="159,-10 159,-30 179,-30 179,-10 159,-10"/>
<text text-anchor="start" x="182.73" y="-15.4" font-family="Times-12" font-size="14.00"> &#160;Module</text>
<polygon fill="#80b1d3" stroke="transparent" points="245,-10 245,-30 265,-30 265,-10 245,-10"/>
<text text-anchor="start" x="268.78" y="-15.4" font-family="Times-12" font-size="14.00"> &#160;Bootstrap</text>
<polygon fill="#fdb462" stroke="transparent" points="342,-10 342,-30 362,-30 362,-10 342,-10"/>
<text text-anchor="start" x="365.67" y="-15.4" font-family="Times-12" font-size="14.00"> &#160;Providers</text>
<polygon fill="#fb8072" stroke="transparent" points="438,-10 438,-30 458,-30 458,-10 438,-10"/>
<text text-anchor="start" x="461.73" y="-15.4" font-family="Times-12" font-size="14.00"> &#160;Exports</text>
<g id="clust1" class="cluster">
<title>cluster_AtftAnimationModule</title>
<polygon fill="none" stroke="black" stroke-dasharray="1,5" points="8,-70 8,-268 552,-268 552,-70 8,-70"/>
</g>
<g id="clust2" class="cluster">
<title>cluster_AtftAnimationModule_declarations</title>
<polygon fill="none" stroke="black" points="202,-78 202,-130 544,-130 544,-78 202,-78"/>
</g>
<g id="clust8" class="cluster">
<title>cluster_AtftAnimationModule_providers</title>
<polygon fill="none" stroke="black" points="16,-78 16,-130 194,-130 194,-78 16,-78"/>
</g>
<g id="clust6" class="cluster">
<title>cluster_AtftAnimationModule_exports</title>
<polygon fill="none" stroke="black" points="111,-208 111,-260 459,-260 459,-208 111,-208"/>
</g>
<!-- EmitStepComponent -->
<g id="node1" class="node">
<title>EmitStepComponent</title>
<polygon fill="#ffffb3" stroke="black" points="535.95,-122 402.05,-122 402.05,-86 535.95,-86 535.95,-122"/>
<text text-anchor="middle" x="469" y="-99.8" font-family="Times,serif" font-size="14.00">EmitStepComponent</text>
</g>
<!-- AtftAnimationModule -->
<g id="node3" class="node">
<title>AtftAnimationModule</title>
<polygon fill="#8dd3c7" stroke="black" points="367.98,-187 364.98,-191 343.98,-191 340.98,-187 226.02,-187 226.02,-151 367.98,-151 367.98,-187"/>
<text text-anchor="middle" x="297" y="-164.8" font-family="Times,serif" font-size="14.00">AtftAnimationModule</text>
</g>
<!-- EmitStepComponent&#45;&gt;AtftAnimationModule -->
<g id="edge1" class="edge">
<title>EmitStepComponent&#45;&gt;AtftAnimationModule</title>
<path fill="none" stroke="black" d="M426.88,-122.11C426.88,-141.34 426.88,-169 426.88,-169 426.88,-169 378.02,-169 378.02,-169"/>
<polygon fill="black" stroke="black" points="378.02,-165.5 368.02,-169 378.02,-172.5 378.02,-165.5"/>
</g>
<!-- TimelineEmitterComponent -->
<g id="node2" class="node">
<title>TimelineEmitterComponent</title>
<polygon fill="#ffffb3" stroke="black" points="383.87,-122 210.13,-122 210.13,-86 383.87,-86 383.87,-122"/>
<text text-anchor="middle" x="297" y="-99.8" font-family="Times,serif" font-size="14.00">TimelineEmitterComponent</text>
</g>
<!-- TimelineEmitterComponent&#45;&gt;AtftAnimationModule -->
<g id="edge2" class="edge">
<title>TimelineEmitterComponent&#45;&gt;AtftAnimationModule</title>
<path fill="none" stroke="black" d="M297,-122.11C297,-122.11 297,-140.99 297,-140.99"/>
<polygon fill="black" stroke="black" points="293.5,-140.99 297,-150.99 300.5,-140.99 293.5,-140.99"/>
</g>
<!-- EmitStepComponent  -->
<g id="node4" class="node">
<title>EmitStepComponent </title>
<polygon fill="#fb8072" stroke="black" points="451.44,-252 314.56,-252 314.56,-216 451.44,-216 451.44,-252"/>
<text text-anchor="middle" x="383" y="-229.8" font-family="Times,serif" font-size="14.00">EmitStepComponent </text>
</g>
<!-- AtftAnimationModule&#45;&gt;EmitStepComponent  -->
<g id="edge3" class="edge">
<title>AtftAnimationModule&#45;&gt;EmitStepComponent </title>
<path fill="none" stroke="black" stroke-dasharray="5,2" d="M341.26,-187.11C341.26,-187.11 341.26,-205.99 341.26,-205.99"/>
<polygon fill="black" stroke="black" points="337.76,-205.99 341.26,-215.99 344.76,-205.99 337.76,-205.99"/>
</g>
<!-- TimelineEmitterComponent  -->
<g id="node5" class="node">
<title>TimelineEmitterComponent </title>
<polygon fill="#fb8072" stroke="black" points="296.87,-252 119.13,-252 119.13,-216 296.87,-216 296.87,-252"/>
<text text-anchor="middle" x="208" y="-229.8" font-family="Times,serif" font-size="14.00">TimelineEmitterComponent </text>
</g>
<!-- AtftAnimationModule&#45;&gt;TimelineEmitterComponent  -->
<g id="edge4" class="edge">
<title>AtftAnimationModule&#45;&gt;TimelineEmitterComponent </title>
<path fill="none" stroke="black" stroke-dasharray="5,2" d="M261.35,-187.11C261.35,-187.11 261.35,-205.99 261.35,-205.99"/>
<polygon fill="black" stroke="black" points="257.85,-205.99 261.35,-215.99 264.85,-205.99 257.85,-205.99"/>
</g>
<!-- AnimationService -->
<g id="node6" class="node">
<title>AnimationService</title>
<ellipse fill="#fdb462" stroke="black" cx="105" cy="-104" rx="81.1" ry="18"/>
<text text-anchor="middle" x="105" y="-99.8" font-family="Times,serif" font-size="14.00">AnimationService</text>
</g>
<!-- AnimationService&#45;&gt;AtftAnimationModule -->
<g id="edge5" class="edge">
<title>AnimationService&#45;&gt;AtftAnimationModule</title>
<path fill="none" stroke="black" d="M152.81,-118.75C152.81,-137.93 152.81,-169 152.81,-169 152.81,-169 215.75,-169 215.75,-169"/>
<polygon fill="black" stroke="black" points="215.75,-172.5 225.75,-169 215.75,-165.5 215.75,-172.5"/>
</g>
</g>
</svg>
