<?xml version="1.0" encoding="UTF-8" standalone="no"?>
<!DOCTYPE svg PUBLIC "-//W3C//DTD SVG 1.1//EN"
 "http://www.w3.org/Graphics/SVG/1.1/DTD/svg11.dtd">
<!-- Generated by graphviz version 2.40.1 (20161225.0304)
 -->
<!-- Title: dependencies Pages: 1 -->
<svg width="504pt" height="284pt"
 viewBox="0.00 0.00 504.00 284.00" xmlns="http://www.w3.org/2000/svg" xmlns:xlink="http://www.w3.org/1999/xlink">
<g id="graph0" class="graph" transform="scale(1 1) rotate(0) translate(4 280)">
<title>dependencies</title>
<polygon fill="#ffffff" stroke="transparent" points="-4,4 -4,-280 500,-280 500,4 -4,4"/>
<text text-anchor="start" x="227.0091" y="-42.4" font-family="sans-serif" font-weight="bold" font-size="14.00" fill="#000000">Legend</text>
<polygon fill="#ffffb3" stroke="transparent" points="14,-10 14,-30 34,-30 34,-10 14,-10"/>
<text text-anchor="start" x="37.629" y="-15.4" font-family="sans-serif" font-size="14.00" fill="#000000"> &#160;Declarations</text>
<polygon fill="#8dd3c7" stroke="transparent" points="127,-10 127,-30 147,-30 147,-10 127,-10"/>
<text text-anchor="start" x="150.7251" y="-15.4" font-family="sans-serif" font-size="14.00" fill="#000000"> &#160;Module</text>
<polygon fill="#80b1d3" stroke="transparent" points="213,-10 213,-30 233,-30 233,-10 213,-10"/>
<text text-anchor="start" x="236.7812" y="-15.4" font-family="sans-serif" font-size="14.00" fill="#000000"> &#160;Bootstrap</text>
<polygon fill="#fdb462" stroke="transparent" points="310,-10 310,-30 330,-30 330,-10 310,-10"/>
<text text-anchor="start" x="333.6732" y="-15.4" font-family="sans-serif" font-size="14.00" fill="#000000"> &#160;Providers</text>
<polygon fill="#fb8072" stroke="transparent" points="406,-10 406,-30 426,-30 426,-10 406,-10"/>
<text text-anchor="start" x="429.7258" y="-15.4" font-family="sans-serif" font-size="14.00" fill="#000000"> &#160;Exports</text>
<g id="clust1" class="cluster">
<title>cluster_AtftPipeModule</title>
<polygon fill="none" stroke="#000000" stroke-dasharray="1,5" points="125.5,-70 125.5,-268 370.5,-268 370.5,-70 125.5,-70"/>
</g>
<g id="clust2" class="cluster">
<title>cluster_AtftPipeModule_declarations</title>
<polygon fill="none" stroke="#000000" points="137.5,-78 137.5,-130 359.5,-130 359.5,-78 137.5,-78"/>
</g>
<g id="clust6" class="cluster">
<title>cluster_AtftPipeModule_exports</title>
<polygon fill="none" stroke="#000000" points="133.5,-208 133.5,-260 362.5,-260 362.5,-208 133.5,-208"/>
</g>
<!-- Deg2RadPipe -->
<g id="node1" class="node">
<title>Deg2RadPipe</title>
<polygon fill="#ffffb3" stroke="#000000" points="351.2605,-122 257.7395,-122 257.7395,-86 351.2605,-86 351.2605,-122"/>
<text text-anchor="middle" x="304.5" y="-99.8" font-family="Times,serif" font-size="14.00" fill="#000000">Deg2RadPipe</text>
</g>
<!-- AtftPipeModule -->
<g id="node3" class="node">
<title>AtftPipeModule</title>
<polygon fill="#8dd3c7" stroke="#000000" points="246.986,-187 243.986,-191 222.986,-191 219.986,-187 140.014,-187 140.014,-151 246.986,-151 246.986,-187"/>
<text text-anchor="middle" x="193.5" y="-164.8" font-family="Times,serif" font-size="14.00" fill="#000000">AtftPipeModule</text>
</g>
<!-- Deg2RadPipe&#45;&gt;AtftPipeModule -->
<g id="edge1" class="edge">
<title>Deg2RadPipe&#45;&gt;AtftPipeModule</title>
<path fill="none" stroke="#000000" d="M257.717,-104C249.3248,-104 243.1866,-104 243.1866,-104 243.1866,-104 243.1866,-140.8939 243.1866,-140.8939"/>
<polygon fill="#000000" stroke="#000000" points="239.6866,-140.8938 243.1866,-150.8939 246.6866,-140.8939 239.6866,-140.8938"/>
</g>
<!-- Rad2DegPipe -->
<g id="node2" class="node">
<title>Rad2DegPipe</title>
<polygon fill="#ffffb3" stroke="#000000" points="239.2605,-122 145.7395,-122 145.7395,-86 239.2605,-86 239.2605,-122"/>
<text text-anchor="middle" x="192.5" y="-99.8" font-family="Times,serif" font-size="14.00" fill="#000000">Rad2DegPipe</text>
</g>
<!-- Rad2DegPipe&#45;&gt;AtftPipeModule -->
<g id="edge2" class="edge">
<title>Rad2DegPipe&#45;&gt;AtftPipeModule</title>
<path fill="none" stroke="#000000" d="M192.5,-122.1061C192.5,-122.1061 192.5,-140.991 192.5,-140.991"/>
<polygon fill="#000000" stroke="#000000" points="189.0001,-140.9909 192.5,-150.991 196.0001,-140.991 189.0001,-140.9909"/>
</g>
<!-- Deg2RadPipe  -->
<g id="node4" class="node">
<title>Deg2RadPipe </title>
<polygon fill="#fb8072" stroke="#000000" points="354.2605,-252 256.7395,-252 256.7395,-216 354.2605,-216 354.2605,-252"/>
<text text-anchor="middle" x="305.5" y="-229.8" font-family="Times,serif" font-size="14.00" fill="#000000">Deg2RadPipe </text>
</g>
<!-- AtftPipeModule&#45;&gt;Deg2RadPipe  -->
<g id="edge3" class="edge">
<title>AtftPipeModule&#45;&gt;Deg2RadPipe </title>
<path fill="none" stroke="#000000" stroke-dasharray="5,2" d="M243.0616,-187.1061C243.0616,-206.3391 243.0616,-234 243.0616,-234 243.0616,-234 246.6098,-234 246.6098,-234"/>
<polygon fill="#000000" stroke="#000000" points="246.6098,-237.5001 256.6098,-234 246.6097,-230.5001 246.6098,-237.5001"/>
</g>
<!-- Rad2DegPipe  -->
<g id="node5" class="node">
<title>Rad2DegPipe </title>
<polygon fill="#fb8072" stroke="#000000" points="239.2605,-252 141.7395,-252 141.7395,-216 239.2605,-216 239.2605,-252"/>
<text text-anchor="middle" x="190.5" y="-229.8" font-family="Times,serif" font-size="14.00" fill="#000000">Rad2DegPipe </text>
</g>
<!-- AtftPipeModule&#45;&gt;Rad2DegPipe  -->
<g id="edge4" class="edge">
<title>AtftPipeModule&#45;&gt;Rad2DegPipe </title>
<path fill="none" stroke="#000000" stroke-dasharray="5,2" d="M190.5,-187.1061C190.5,-187.1061 190.5,-205.991 190.5,-205.991"/>
<polygon fill="#000000" stroke="#000000" points="187.0001,-205.9909 190.5,-215.991 194.0001,-205.991 187.0001,-205.9909"/>
</g>
</g>
</svg>
