<?xml version="1.0" encoding="UTF-8" standalone="no"?>
<!DOCTYPE svg PUBLIC "-//W3C//DTD SVG 1.1//EN"
 "http://www.w3.org/Graphics/SVG/1.1/DTD/svg11.dtd">
<!-- Generated by graphviz version 2.47.0 (20210316.0004)
 -->
<!-- Title: dependencies Pages: 1 -->
<svg width="504pt" height="284pt"
 viewBox="0.00 0.00 504.00 284.00" xmlns="http://www.w3.org/2000/svg" xmlns:xlink="http://www.w3.org/1999/xlink">
<g id="graph0" class="graph" transform="scale(1 1) rotate(0) translate(4 280)">
<title>dependencies</title>
<polygon fill="white" stroke="transparent" points="-4,4 -4,-280 500,-280 500,4 -4,4"/>
<text text-anchor="start" x="227.01" y="-42.4" font-family="Times-12" font-weight="bold" font-size="14.00">Legend</text>
<polygon fill="#ffffb3" stroke="transparent" points="14,-10 14,-30 34,-30 34,-10 14,-10"/>
<text text-anchor="start" x="37.63" y="-15.4" font-family="Times-12" font-size="14.00"> &#160;Declarations</text>
<polygon fill="#8dd3c7" stroke="transparent" points="127,-10 127,-30 147,-30 147,-10 127,-10"/>
<text text-anchor="start" x="150.73" y="-15.4" font-family="Times-12" font-size="14.00"> &#160;Module</text>
<polygon fill="#80b1d3" stroke="transparent" points="213,-10 213,-30 233,-30 233,-10 213,-10"/>
<text text-anchor="start" x="236.78" y="-15.4" font-family="Times-12" font-size="14.00"> &#160;Bootstrap</text>
<polygon fill="#fdb462" stroke="transparent" points="310,-10 310,-30 330,-30 330,-10 310,-10"/>
<text text-anchor="start" x="333.67" y="-15.4" font-family="Times-12" font-size="14.00"> &#160;Providers</text>
<polygon fill="#fb8072" stroke="transparent" points="406,-10 406,-30 426,-30 426,-10 406,-10"/>
<text text-anchor="start" x="429.73" y="-15.4" font-family="Times-12" font-size="14.00"> &#160;Exports</text>
<g id="clust1" class="cluster">
<title>cluster_AtftPipeModule</title>
<polygon fill="none" stroke="black" stroke-dasharray="1,5" points="125.5,-70 125.5,-268 370.5,-268 370.5,-70 125.5,-70"/>
</g>
<g id="clust2" class="cluster">
<title>cluster_AtftPipeModule_declarations</title>
<polygon fill="none" stroke="black" points="137.5,-78 137.5,-130 359.5,-130 359.5,-78 137.5,-78"/>
</g>
<g id="clust6" class="cluster">
<title>cluster_AtftPipeModule_exports</title>
<polygon fill="none" stroke="black" points="133.5,-208 133.5,-260 362.5,-260 362.5,-208 133.5,-208"/>
</g>
<!-- Deg2RadPipe -->
<g id="node1" class="node">
<title>Deg2RadPipe</title>
<polygon fill="#ffffb3" stroke="black" points="351.26,-122 257.74,-122 257.74,-86 351.26,-86 351.26,-122"/>
<text text-anchor="middle" x="304.5" y="-99.8" font-family="Times,serif" font-size="14.00">Deg2RadPipe</text>
</g>
<!-- AtftPipeModule -->
<g id="node3" class="node">
<title>AtftPipeModule</title>
<polygon fill="#8dd3c7" stroke="black" points="246.99,-187 243.99,-191 222.99,-191 219.99,-187 140.01,-187 140.01,-151 246.99,-151 246.99,-187"/>
<text text-anchor="middle" x="193.5" y="-164.8" font-family="Times,serif" font-size="14.00">AtftPipeModule</text>
</g>
<!-- Deg2RadPipe&#45;&gt;AtftPipeModule -->
<g id="edge1" class="edge">
<title>Deg2RadPipe&#45;&gt;AtftPipeModule</title>
<path fill="none" stroke="black" d="M257.72,-104C249.32,-104 243.19,-104 243.19,-104 243.19,-104 243.19,-140.89 243.19,-140.89"/>
<polygon fill="black" stroke="black" points="239.69,-140.89 243.19,-150.89 246.69,-140.89 239.69,-140.89"/>
</g>
<!-- Rad2DegPipe -->
<g id="node2" class="node">
<title>Rad2DegPipe</title>
<polygon fill="#ffffb3" stroke="black" points="239.26,-122 145.74,-122 145.74,-86 239.26,-86 239.26,-122"/>
<text text-anchor="middle" x="192.5" y="-99.8" font-family="Times,serif" font-size="14.00">Rad2DegPipe</text>
</g>
<!-- Rad2DegPipe&#45;&gt;AtftPipeModule -->
<g id="edge2" class="edge">
<title>Rad2DegPipe&#45;&gt;AtftPipeModule</title>
<path fill="none" stroke="black" d="M192.5,-122.11C192.5,-122.11 192.5,-140.99 192.5,-140.99"/>
<polygon fill="black" stroke="black" points="189,-140.99 192.5,-150.99 196,-140.99 189,-140.99"/>
</g>
<!-- Deg2RadPipe  -->
<g id="node4" class="node">
<title>Deg2RadPipe </title>
<polygon fill="#fb8072" stroke="black" points="354.26,-252 256.74,-252 256.74,-216 354.26,-216 354.26,-252"/>
<text text-anchor="middle" x="305.5" y="-229.8" font-family="Times,serif" font-size="14.00">Deg2RadPipe </text>
</g>
<!-- AtftPipeModule&#45;&gt;Deg2RadPipe  -->
<g id="edge3" class="edge">
<title>AtftPipeModule&#45;&gt;Deg2RadPipe </title>
<path fill="none" stroke="black" stroke-dasharray="5,2" d="M243.06,-187.11C243.06,-206.34 243.06,-234 243.06,-234 243.06,-234 246.61,-234 246.61,-234"/>
<polygon fill="black" stroke="black" points="246.61,-237.5 256.61,-234 246.61,-230.5 246.61,-237.5"/>
</g>
<!-- Rad2DegPipe  -->
<g id="node5" class="node">
<title>Rad2DegPipe </title>
<polygon fill="#fb8072" stroke="black" points="239.26,-252 141.74,-252 141.74,-216 239.26,-216 239.26,-252"/>
<text text-anchor="middle" x="190.5" y="-229.8" font-family="Times,serif" font-size="14.00">Rad2DegPipe </text>
</g>
<!-- AtftPipeModule&#45;&gt;Rad2DegPipe  -->
<g id="edge4" class="edge">
<title>AtftPipeModule&#45;&gt;Rad2DegPipe </title>
<path fill="none" stroke="black" stroke-dasharray="5,2" d="M190.5,-187.11C190.5,-187.11 190.5,-205.99 190.5,-205.99"/>
<polygon fill="black" stroke="black" points="187,-205.99 190.5,-215.99 194,-205.99 187,-205.99"/>
</g>
</g>
</svg>
