<?xml version="1.0" encoding="UTF-8" standalone="no"?>
<!DOCTYPE svg PUBLIC "-//W3C//DTD SVG 1.1//EN"
 "http://www.w3.org/Graphics/SVG/1.1/DTD/svg11.dtd">
<!-- Generated by graphviz version 2.47.3 (20210619.1520)
 -->
<!-- Title: dependencies Pages: 1 -->
<svg width="269pt" height="247pt"
 viewBox="0.00 0.00 269.00 246.80" xmlns="http://www.w3.org/2000/svg" xmlns:xlink="http://www.w3.org/1999/xlink">
<g id="graph0" class="graph" transform="scale(1 1) rotate(0) translate(4 242.8)">
<title>dependencies</title>
<polygon fill="white" stroke="transparent" points="-4,4 -4,-242.8 265,-242.8 265,4 -4,4"/>
<text text-anchor="middle" x="130.5" y="-8.2" font-family="sans-serif" font-size="14.00">dependencies</text>
<g id="clust1" class="cluster">
<title>cluster_AtftPipeModule</title>
<polygon fill="none" stroke="black" stroke-dasharray="1,5" points="8,-32.8 8,-230.8 253,-230.8 253,-32.8 8,-32.8"/>
</g>
<g id="clust2" class="cluster">
<title>cluster_AtftPipeModule_declarations</title>
<polygon fill="none" stroke="black" points="20,-40.8 20,-92.8 242,-92.8 242,-40.8 20,-40.8"/>
</g>
<g id="clust6" class="cluster">
<title>cluster_AtftPipeModule_exports</title>
<polygon fill="none" stroke="black" points="16,-170.8 16,-222.8 245,-222.8 245,-170.8 16,-170.8"/>
</g>
<!-- Deg2RadPipe -->
<g id="node1" class="node">
<title>Deg2RadPipe</title>
<polygon fill="#ffffb3" stroke="black" points="233.76,-84.8 140.24,-84.8 140.24,-48.8 233.76,-48.8 233.76,-84.8"/>
<text text-anchor="middle" x="187" y="-62.6" font-family="Times,serif" font-size="14.00">Deg2RadPipe</text>
</g>
<!-- AtftPipeModule -->
<g id="node3" class="node">
<title>AtftPipeModule</title>
<polygon fill="#8dd3c7" stroke="black" points="129.49,-149.8 126.49,-153.8 105.49,-153.8 102.49,-149.8 22.51,-149.8 22.51,-113.8 129.49,-113.8 129.49,-149.8"/>
<text text-anchor="middle" x="76" y="-127.6" font-family="Times,serif" font-size="14.00">AtftPipeModule</text>
</g>
<!-- Deg2RadPipe&#45;&gt;AtftPipeModule -->
<g id="edge1" class="edge">
<title>Deg2RadPipe&#45;&gt;AtftPipeModule</title>
<path fill="none" stroke="black" d="M140.22,-66.8C131.82,-66.8 125.69,-66.8 125.69,-66.8 125.69,-66.8 125.69,-103.69 125.69,-103.69"/>
<polygon fill="black" stroke="black" points="122.19,-103.69 125.69,-113.69 129.19,-103.69 122.19,-103.69"/>
</g>
<!-- Rad2DegPipe -->
<g id="node2" class="node">
<title>Rad2DegPipe</title>
<polygon fill="#ffffb3" stroke="black" points="121.76,-84.8 28.24,-84.8 28.24,-48.8 121.76,-48.8 121.76,-84.8"/>
<text text-anchor="middle" x="75" y="-62.6" font-family="Times,serif" font-size="14.00">Rad2DegPipe</text>
</g>
<!-- Rad2DegPipe&#45;&gt;AtftPipeModule -->
<g id="edge2" class="edge">
<title>Rad2DegPipe&#45;&gt;AtftPipeModule</title>
<path fill="none" stroke="black" d="M75,-84.91C75,-84.91 75,-103.79 75,-103.79"/>
<polygon fill="black" stroke="black" points="71.5,-103.79 75,-113.79 78.5,-103.79 71.5,-103.79"/>
</g>
<!-- Deg2RadPipe  -->
<g id="node4" class="node">
<title>Deg2RadPipe </title>
<polygon fill="#fb8072" stroke="black" points="236.76,-214.8 139.24,-214.8 139.24,-178.8 236.76,-178.8 236.76,-214.8"/>
<text text-anchor="middle" x="188" y="-192.6" font-family="Times,serif" font-size="14.00">Deg2RadPipe </text>
</g>
<!-- AtftPipeModule&#45;&gt;Deg2RadPipe  -->
<g id="edge3" class="edge">
<title>AtftPipeModule&#45;&gt;Deg2RadPipe </title>
<path fill="none" stroke="black" stroke-dasharray="5,2" d="M125.56,-149.91C125.56,-169.14 125.56,-196.8 125.56,-196.8 125.56,-196.8 129.11,-196.8 129.11,-196.8"/>
<polygon fill="black" stroke="black" points="129.11,-200.3 139.11,-196.8 129.11,-193.3 129.11,-200.3"/>
</g>
<!-- Rad2DegPipe  -->
<g id="node5" class="node">
<title>Rad2DegPipe </title>
<polygon fill="#fb8072" stroke="black" points="121.76,-214.8 24.24,-214.8 24.24,-178.8 121.76,-178.8 121.76,-214.8"/>
<text text-anchor="middle" x="73" y="-192.6" font-family="Times,serif" font-size="14.00">Rad2DegPipe </text>
</g>
<!-- AtftPipeModule&#45;&gt;Rad2DegPipe  -->
<g id="edge4" class="edge">
<title>AtftPipeModule&#45;&gt;Rad2DegPipe </title>
<path fill="none" stroke="black" stroke-dasharray="5,2" d="M73,-149.91C73,-149.91 73,-168.79 73,-168.79"/>
<polygon fill="black" stroke="black" points="69.5,-168.79 73,-178.79 76.5,-168.79 69.5,-168.79"/>
</g>
</g>
</svg>
