<?xml version="1.0" encoding="UTF-8" standalone="no"?>
<!DOCTYPE svg PUBLIC "-//W3C//DTD SVG 1.1//EN"
 "http://www.w3.org/Graphics/SVG/1.1/DTD/svg11.dtd">
<!-- Generated by graphviz version 2.47.0 (20210316.0004)
 -->
<!-- Title: dependencies Pages: 1 -->
<svg width="1984pt" height="284pt"
 viewBox="0.00 0.00 1984.00 284.00" xmlns="http://www.w3.org/2000/svg" xmlns:xlink="http://www.w3.org/1999/xlink">
<g id="graph0" class="graph" transform="scale(1 1) rotate(0) translate(4 280)">
<title>dependencies</title>
<polygon fill="white" stroke="transparent" points="-4,4 -4,-280 1980,-280 1980,4 -4,4"/>
<text text-anchor="start" x="967.01" y="-42.4" font-family="Times-12" font-weight="bold" font-size="14.00">Legend</text>
<polygon fill="#ffffb3" stroke="transparent" points="754,-10 754,-30 774,-30 774,-10 754,-10"/>
<text text-anchor="start" x="777.63" y="-15.4" font-family="Times-12" font-size="14.00"> &#160;Declarations</text>
<polygon fill="#8dd3c7" stroke="transparent" points="867,-10 867,-30 887,-30 887,-10 867,-10"/>
<text text-anchor="start" x="890.73" y="-15.4" font-family="Times-12" font-size="14.00"> &#160;Module</text>
<polygon fill="#80b1d3" stroke="transparent" points="953,-10 953,-30 973,-30 973,-10 953,-10"/>
<text text-anchor="start" x="976.78" y="-15.4" font-family="Times-12" font-size="14.00"> &#160;Bootstrap</text>
<polygon fill="#fdb462" stroke="transparent" points="1050,-10 1050,-30 1070,-30 1070,-10 1050,-10"/>
<text text-anchor="start" x="1073.67" y="-15.4" font-family="Times-12" font-size="14.00"> &#160;Providers</text>
<polygon fill="#fb8072" stroke="transparent" points="1146,-10 1146,-30 1166,-30 1166,-10 1146,-10"/>
<text text-anchor="start" x="1169.73" y="-15.4" font-family="Times-12" font-size="14.00"> &#160;Exports</text>
<g id="clust1" class="cluster">
<title>cluster_AtftObjectModule</title>
<polygon fill="none" stroke="black" stroke-dasharray="1,5" points="8,-70 8,-268 1968,-268 1968,-70 8,-70"/>
</g>
<g id="clust5" class="cluster">
<title>cluster_AtftObjectModule_imports</title>
<polygon fill="none" stroke="black" points="1140,-78 1140,-130 1960,-130 1960,-78 1140,-78"/>
</g>
<g id="clust8" class="cluster">
<title>cluster_AtftObjectModule_providers</title>
<polygon fill="none" stroke="black" points="356,-78 356,-130 1132,-130 1132,-78 356,-78"/>
</g>
<g id="clust6" class="cluster">
<title>cluster_AtftObjectModule_exports</title>
<polygon fill="none" stroke="black" points="595,-208 595,-260 1575,-260 1575,-208 595,-208"/>
</g>
<g id="clust2" class="cluster">
<title>cluster_AtftObjectModule_declarations</title>
<polygon fill="none" stroke="black" points="16,-78 16,-130 348,-130 348,-78 16,-78"/>
</g>
<!-- ContentProjectionComponent -->
<g id="node1" class="node">
<title>ContentProjectionComponent</title>
<polygon fill="#ffffb3" stroke="black" points="339.71,-122 156.29,-122 156.29,-86 339.71,-86 339.71,-122"/>
<text text-anchor="middle" x="248" y="-99.8" font-family="Times,serif" font-size="14.00">ContentProjectionComponent</text>
</g>
<!-- AtftObjectModule -->
<g id="node3" class="node">
<title>AtftObjectModule</title>
<polygon fill="#8dd3c7" stroke="black" points="1125.92,-187 1122.92,-191 1101.92,-191 1098.92,-187 1006.08,-187 1006.08,-151 1125.92,-151 1125.92,-187"/>
<text text-anchor="middle" x="1066" y="-164.8" font-family="Times,serif" font-size="14.00">AtftObjectModule</text>
</g>
<!-- ContentProjectionComponent&#45;&gt;AtftObjectModule -->
<g id="edge1" class="edge">
<title>ContentProjectionComponent&#45;&gt;AtftObjectModule</title>
<path fill="none" stroke="black" d="M248,-122.11C248,-141.34 248,-169 248,-169 248,-169 996.18,-169 996.18,-169"/>
<polygon fill="black" stroke="black" points="996.18,-172.5 1006.18,-169 996.18,-165.5 996.18,-172.5"/>
</g>
<!-- SceneComponent -->
<g id="node2" class="node">
<title>SceneComponent</title>
<polygon fill="#ffffb3" stroke="black" points="138.26,-122 23.74,-122 23.74,-86 138.26,-86 138.26,-122"/>
<text text-anchor="middle" x="81" y="-99.8" font-family="Times,serif" font-size="14.00">SceneComponent</text>
</g>
<!-- SceneComponent&#45;&gt;AtftObjectModule -->
<g id="edge2" class="edge">
<title>SceneComponent&#45;&gt;AtftObjectModule</title>
<path fill="none" stroke="black" d="M81,-122.13C81,-142.57 81,-173 81,-173 81,-173 996.23,-173 996.23,-173"/>
<polygon fill="black" stroke="black" points="996.23,-176.5 1006.23,-173 996.23,-169.5 996.23,-176.5"/>
</g>
<!-- AtftConnectorModule  -->
<g id="node10" class="node">
<title>AtftConnectorModule </title>
<polygon fill="#fb8072" stroke="black" points="1566.92,-252 1423.08,-252 1423.08,-216 1566.92,-216 1566.92,-252"/>
<text text-anchor="middle" x="1495" y="-229.8" font-family="Times,serif" font-size="14.00">AtftConnectorModule </text>
</g>
<!-- AtftObjectModule&#45;&gt;AtftConnectorModule  -->
<g id="edge9" class="edge">
<title>AtftObjectModule&#45;&gt;AtftConnectorModule </title>
<path fill="none" stroke="black" stroke-dasharray="5,2" d="M1125.83,-177C1239.28,-177 1474.46,-177 1474.46,-177 1474.46,-177 1474.46,-205.96 1474.46,-205.96"/>
<polygon fill="black" stroke="black" points="1470.96,-205.96 1474.46,-215.96 1477.96,-205.96 1470.96,-205.96"/>
</g>
<!-- AtftHelperModule  -->
<g id="node11" class="node">
<title>AtftHelperModule </title>
<polygon fill="#fb8072" stroke="black" points="1404.69,-252 1281.31,-252 1281.31,-216 1404.69,-216 1404.69,-252"/>
<text text-anchor="middle" x="1343" y="-229.8" font-family="Times,serif" font-size="14.00">AtftHelperModule </text>
</g>
<!-- AtftObjectModule&#45;&gt;AtftHelperModule  -->
<g id="edge10" class="edge">
<title>AtftObjectModule&#45;&gt;AtftHelperModule </title>
<path fill="none" stroke="black" stroke-dasharray="5,2" d="M1125.78,-180C1204.73,-180 1333.88,-180 1333.88,-180 1333.88,-180 1333.88,-205.72 1333.88,-205.72"/>
<polygon fill="black" stroke="black" points="1330.38,-205.72 1333.88,-215.72 1337.38,-205.72 1330.38,-205.72"/>
</g>
<!-- AtftLightModule  -->
<g id="node12" class="node">
<title>AtftLightModule </title>
<polygon fill="#fb8072" stroke="black" points="1262.93,-252 1147.07,-252 1147.07,-216 1262.93,-216 1262.93,-252"/>
<text text-anchor="middle" x="1205" y="-229.8" font-family="Times,serif" font-size="14.00">AtftLightModule </text>
</g>
<!-- AtftObjectModule&#45;&gt;AtftLightModule  -->
<g id="edge11" class="edge">
<title>AtftObjectModule&#45;&gt;AtftLightModule </title>
<path fill="none" stroke="black" stroke-dasharray="5,2" d="M1125.71,-184C1154.99,-184 1184.04,-184 1184.04,-184 1184.04,-184 1184.04,-205.95 1184.04,-205.95"/>
<polygon fill="black" stroke="black" points="1180.54,-205.95 1184.04,-215.95 1187.54,-205.95 1180.54,-205.95"/>
</g>
<!-- AtftLoaderModule  -->
<g id="node13" class="node">
<title>AtftLoaderModule </title>
<polygon fill="#fb8072" stroke="black" points="1128.74,-252 1003.26,-252 1003.26,-216 1128.74,-216 1128.74,-252"/>
<text text-anchor="middle" x="1066" y="-229.8" font-family="Times,serif" font-size="14.00">AtftLoaderModule </text>
</g>
<!-- AtftObjectModule&#45;&gt;AtftLoaderModule  -->
<g id="edge12" class="edge">
<title>AtftObjectModule&#45;&gt;AtftLoaderModule </title>
<path fill="none" stroke="black" stroke-dasharray="5,2" d="M1066,-187.11C1066,-187.11 1066,-205.99 1066,-205.99"/>
<polygon fill="black" stroke="black" points="1062.5,-205.99 1066,-215.99 1069.5,-205.99 1062.5,-205.99"/>
</g>
<!-- AtftMeshModule  -->
<g id="node14" class="node">
<title>AtftMeshModule </title>
<polygon fill="#fb8072" stroke="black" points="985.2,-252 868.8,-252 868.8,-216 985.2,-216 985.2,-252"/>
<text text-anchor="middle" x="927" y="-229.8" font-family="Times,serif" font-size="14.00">AtftMeshModule </text>
</g>
<!-- AtftObjectModule&#45;&gt;AtftMeshModule  -->
<g id="edge13" class="edge">
<title>AtftObjectModule&#45;&gt;AtftMeshModule </title>
<path fill="none" stroke="black" stroke-dasharray="5,2" d="M1006.15,-184C963.01,-184 912.35,-184 912.35,-184 912.35,-184 912.35,-205.95 912.35,-205.95"/>
<polygon fill="black" stroke="black" points="908.85,-205.95 912.35,-215.95 915.85,-205.95 908.85,-205.95"/>
</g>
<!-- AtftTextModule  -->
<g id="node15" class="node">
<title>AtftTextModule </title>
<polygon fill="#fb8072" stroke="black" points="850.76,-252 739.24,-252 739.24,-216 850.76,-216 850.76,-252"/>
<text text-anchor="middle" x="795" y="-229.8" font-family="Times,serif" font-size="14.00">AtftTextModule </text>
</g>
<!-- AtftObjectModule&#45;&gt;AtftTextModule  -->
<g id="edge14" class="edge">
<title>AtftObjectModule&#45;&gt;AtftTextModule </title>
<path fill="none" stroke="black" stroke-dasharray="5,2" d="M1006.19,-180C926.39,-180 795,-180 795,-180 795,-180 795,-205.72 795,-205.72"/>
<polygon fill="black" stroke="black" points="791.5,-205.72 795,-215.72 798.5,-205.72 791.5,-205.72"/>
</g>
<!-- SceneComponent  -->
<g id="node16" class="node">
<title>SceneComponent </title>
<polygon fill="#fb8072" stroke="black" points="721.26,-252 602.74,-252 602.74,-216 721.26,-216 721.26,-252"/>
<text text-anchor="middle" x="662" y="-229.8" font-family="Times,serif" font-size="14.00">SceneComponent </text>
</g>
<!-- AtftObjectModule&#45;&gt;SceneComponent  -->
<g id="edge15" class="edge">
<title>AtftObjectModule&#45;&gt;SceneComponent </title>
<path fill="none" stroke="black" stroke-dasharray="5,2" d="M1006.14,-177C906.03,-177 715.47,-177 715.47,-177 715.47,-177 715.47,-205.96 715.47,-205.96"/>
<polygon fill="black" stroke="black" points="711.97,-205.96 715.47,-215.96 718.97,-205.96 711.97,-205.96"/>
</g>
<!-- AtftConnectorModule -->
<g id="node4" class="node">
<title>AtftConnectorModule</title>
<polygon fill="#8dd3c7" stroke="black" points="1952.42,-122 1949.42,-126 1928.42,-126 1925.42,-122 1811.58,-122 1811.58,-86 1952.42,-86 1952.42,-122"/>
<text text-anchor="middle" x="1882" y="-99.8" font-family="Times,serif" font-size="14.00">AtftConnectorModule</text>
</g>
<!-- AtftConnectorModule&#45;&gt;AtftObjectModule -->
<g id="edge3" class="edge">
<title>AtftConnectorModule&#45;&gt;AtftObjectModule</title>
<path fill="none" stroke="black" d="M1882,-122.13C1882,-142.57 1882,-173 1882,-173 1882,-173 1136,-173 1136,-173"/>
<polygon fill="black" stroke="black" points="1136,-169.5 1126,-173 1136,-176.5 1136,-169.5"/>
</g>
<!-- AtftHelperModule -->
<g id="node5" class="node">
<title>AtftHelperModule</title>
<polygon fill="#8dd3c7" stroke="black" points="1794.19,-122 1791.19,-126 1770.19,-126 1767.19,-122 1673.81,-122 1673.81,-86 1794.19,-86 1794.19,-122"/>
<text text-anchor="middle" x="1734" y="-99.8" font-family="Times,serif" font-size="14.00">AtftHelperModule</text>
</g>
<!-- AtftHelperModule&#45;&gt;AtftObjectModule -->
<g id="edge4" class="edge">
<title>AtftHelperModule&#45;&gt;AtftObjectModule</title>
<path fill="none" stroke="black" d="M1734,-122.11C1734,-141.34 1734,-169 1734,-169 1734,-169 1135.87,-169 1135.87,-169"/>
<polygon fill="black" stroke="black" points="1135.87,-165.5 1125.87,-169 1135.87,-172.5 1135.87,-165.5"/>
</g>
<!-- AtftLightModule -->
<g id="node6" class="node">
<title>AtftLightModule</title>
<polygon fill="#8dd3c7" stroke="black" points="1656.43,-122 1653.43,-126 1632.43,-126 1629.43,-122 1543.57,-122 1543.57,-86 1656.43,-86 1656.43,-122"/>
<text text-anchor="middle" x="1600" y="-99.8" font-family="Times,serif" font-size="14.00">AtftLightModule</text>
</g>
<!-- AtftLightModule&#45;&gt;AtftObjectModule -->
<g id="edge5" class="edge">
<title>AtftLightModule&#45;&gt;AtftObjectModule</title>
<path fill="none" stroke="black" d="M1555.37,-122.27C1555.37,-140.56 1555.37,-166 1555.37,-166 1555.37,-166 1136.01,-166 1136.01,-166"/>
<polygon fill="black" stroke="black" points="1136.01,-162.5 1126.01,-166 1136.01,-169.5 1136.01,-162.5"/>
</g>
<!-- AtftLoaderModule -->
<g id="node7" class="node">
<title>AtftLoaderModule</title>
<polygon fill="#8dd3c7" stroke="black" points="1525.74,-122 1522.74,-126 1501.74,-126 1498.74,-122 1404.26,-122 1404.26,-86 1525.74,-86 1525.74,-122"/>
<text text-anchor="middle" x="1465" y="-99.8" font-family="Times,serif" font-size="14.00">AtftLoaderModule</text>
</g>
<!-- AtftLoaderModule&#45;&gt;AtftObjectModule -->
<g id="edge6" class="edge">
<title>AtftLoaderModule&#45;&gt;AtftObjectModule</title>
<path fill="none" stroke="black" d="M1413.94,-122.03C1413.94,-139.06 1413.94,-162 1413.94,-162 1413.94,-162 1135.81,-162 1135.81,-162"/>
<polygon fill="black" stroke="black" points="1135.81,-158.5 1125.81,-162 1135.81,-165.5 1135.81,-158.5"/>
</g>
<!-- AtftMeshModule -->
<g id="node8" class="node">
<title>AtftMeshModule</title>
<polygon fill="#8dd3c7" stroke="black" points="1386.7,-122 1383.7,-126 1362.7,-126 1359.7,-122 1273.3,-122 1273.3,-86 1386.7,-86 1386.7,-122"/>
<text text-anchor="middle" x="1330" y="-99.8" font-family="Times,serif" font-size="14.00">AtftMeshModule</text>
</g>
<!-- AtftMeshModule&#45;&gt;AtftObjectModule -->
<g id="edge7" class="edge">
<title>AtftMeshModule&#45;&gt;AtftObjectModule</title>
<path fill="none" stroke="black" d="M1277.28,-122.01C1277.28,-138.05 1277.28,-159 1277.28,-159 1277.28,-159 1135.98,-159 1135.98,-159"/>
<polygon fill="black" stroke="black" points="1135.98,-155.5 1125.98,-159 1135.98,-162.5 1135.98,-155.5"/>
</g>
<!-- AtftTextModule -->
<g id="node9" class="node">
<title>AtftTextModule</title>
<polygon fill="#8dd3c7" stroke="black" points="1255.76,-122 1252.76,-126 1231.76,-126 1228.76,-122 1148.24,-122 1148.24,-86 1255.76,-86 1255.76,-122"/>
<text text-anchor="middle" x="1202" y="-99.8" font-family="Times,serif" font-size="14.00">AtftTextModule</text>
</g>
<!-- AtftTextModule&#45;&gt;AtftObjectModule -->
<g id="edge8" class="edge">
<title>AtftTextModule&#45;&gt;AtftObjectModule</title>
<path fill="none" stroke="black" d="M1219.96,-122.12C1219.96,-136.78 1219.96,-155 1219.96,-155 1219.96,-155 1135.97,-155 1135.97,-155"/>
<polygon fill="black" stroke="black" points="1135.97,-151.5 1125.97,-155 1135.97,-158.5 1135.97,-151.5"/>
</g>
<!-- FontService -->
<g id="node17" class="node">
<title>FontService</title>
<ellipse fill="#fdb462" stroke="black" cx="1066" cy="-104" rx="57.9" ry="18"/>
<text text-anchor="middle" x="1066" y="-99.8" font-family="Times,serif" font-size="14.00">FontService</text>
</g>
<!-- FontService&#45;&gt;AtftObjectModule -->
<g id="edge16" class="edge">
<title>FontService&#45;&gt;AtftObjectModule</title>
<path fill="none" stroke="black" d="M1066,-122.11C1066,-122.11 1066,-140.99 1066,-140.99"/>
<polygon fill="black" stroke="black" points="1062.5,-140.99 1066,-150.99 1069.5,-140.99 1062.5,-140.99"/>
</g>
<!-- IconService -->
<g id="node18" class="node">
<title>IconService</title>
<ellipse fill="#fdb462" stroke="black" cx="933" cy="-104" rx="57.3" ry="18"/>
<text text-anchor="middle" x="933" y="-99.8" font-family="Times,serif" font-size="14.00">IconService</text>
</g>
<!-- IconService&#45;&gt;AtftObjectModule -->
<g id="edge17" class="edge">
<title>IconService&#45;&gt;AtftObjectModule</title>
<path fill="none" stroke="black" d="M948.85,-121.55C948.85,-136.3 948.85,-155 948.85,-155 948.85,-155 996.05,-155 996.05,-155"/>
<polygon fill="black" stroke="black" points="996.05,-158.5 1006.05,-155 996.05,-151.5 996.05,-158.5"/>
</g>
<!-- ModelService -->
<g id="node19" class="node">
<title>ModelService</title>
<ellipse fill="#fdb462" stroke="black" cx="793" cy="-104" rx="65.41" ry="18"/>
<text text-anchor="middle" x="793" y="-99.8" font-family="Times,serif" font-size="14.00">ModelService</text>
</g>
<!-- ModelService&#45;&gt;AtftObjectModule -->
<g id="edge18" class="edge">
<title>ModelService&#45;&gt;AtftObjectModule</title>
<path fill="none" stroke="black" d="M854.42,-110.31C854.42,-124.76 854.42,-159 854.42,-159 854.42,-159 996.22,-159 996.22,-159"/>
<polygon fill="black" stroke="black" points="996.22,-162.5 1006.22,-159 996.22,-155.5 996.22,-162.5"/>
</g>
<!-- ObjLoaderService -->
<g id="node20" class="node">
<title>ObjLoaderService</title>
<ellipse fill="#fdb462" stroke="black" cx="628" cy="-104" rx="81.64" ry="18"/>
<text text-anchor="middle" x="628" y="-99.8" font-family="Times,serif" font-size="14.00">ObjLoaderService</text>
</g>
<!-- ObjLoaderService&#45;&gt;AtftObjectModule -->
<g id="edge19" class="edge">
<title>ObjLoaderService&#45;&gt;AtftObjectModule</title>
<path fill="none" stroke="black" d="M656.35,-121.09C656.35,-138.2 656.35,-162 656.35,-162 656.35,-162 995.99,-162 995.99,-162"/>
<polygon fill="black" stroke="black" points="995.99,-165.5 1005.99,-162 995.99,-158.5 995.99,-165.5"/>
</g>
<!-- SvgLoaderService -->
<g id="node21" class="node">
<title>SvgLoaderService</title>
<ellipse fill="#fdb462" stroke="black" cx="446" cy="-104" rx="82.22" ry="18"/>
<text text-anchor="middle" x="446" y="-99.8" font-family="Times,serif" font-size="14.00">SvgLoaderService</text>
</g>
<!-- SvgLoaderService&#45;&gt;AtftObjectModule -->
<g id="edge20" class="edge">
<title>SvgLoaderService&#45;&gt;AtftObjectModule</title>
<path fill="none" stroke="black" d="M446,-122.27C446,-140.56 446,-166 446,-166 446,-166 996.27,-166 996.27,-166"/>
<polygon fill="black" stroke="black" points="996.27,-169.5 1006.27,-166 996.27,-162.5 996.27,-169.5"/>
</g>
</g>
</svg>
