<?xml version="1.0" encoding="UTF-8" standalone="no"?>
<!DOCTYPE svg PUBLIC "-//W3C//DTD SVG 1.1//EN"
 "http://www.w3.org/Graphics/SVG/1.1/DTD/svg11.dtd">
<!-- Generated by graphviz version 2.47.3 (20210619.1520)
 -->
<!-- Title: dependencies Pages: 1 -->
<svg width="1984pt" height="247pt"
 viewBox="0.00 0.00 1984.00 246.80" xmlns="http://www.w3.org/2000/svg" xmlns:xlink="http://www.w3.org/1999/xlink">
<g id="graph0" class="graph" transform="scale(1 1) rotate(0) translate(4 242.8)">
<title>dependencies</title>
<polygon fill="white" stroke="transparent" points="-4,4 -4,-242.8 1980,-242.8 1980,4 -4,4"/>
<text text-anchor="middle" x="988" y="-8.2" font-family="sans-serif" font-size="14.00">dependencies</text>
<g id="clust1" class="cluster">
<title>cluster_AtftObjectModule</title>
<polygon fill="none" stroke="black" stroke-dasharray="1,5" points="8,-32.8 8,-230.8 1968,-230.8 1968,-32.8 8,-32.8"/>
</g>
<g id="clust6" class="cluster">
<title>cluster_AtftObjectModule_exports</title>
<polygon fill="none" stroke="black" points="595,-170.8 595,-222.8 1575,-222.8 1575,-170.8 595,-170.8"/>
</g>
<g id="clust5" class="cluster">
<title>cluster_AtftObjectModule_imports</title>
<polygon fill="none" stroke="black" points="1140,-40.8 1140,-92.8 1960,-92.8 1960,-40.8 1140,-40.8"/>
</g>
<g id="clust8" class="cluster">
<title>cluster_AtftObjectModule_providers</title>
<polygon fill="none" stroke="black" points="356,-40.8 356,-92.8 1132,-92.8 1132,-40.8 356,-40.8"/>
</g>
<g id="clust2" class="cluster">
<title>cluster_AtftObjectModule_declarations</title>
<polygon fill="none" stroke="black" points="16,-40.8 16,-92.8 348,-92.8 348,-40.8 16,-40.8"/>
</g>
<!-- ContentProjectionComponent -->
<g id="node1" class="node">
<title>ContentProjectionComponent</title>
<polygon fill="#ffffb3" stroke="black" points="339.71,-84.8 156.29,-84.8 156.29,-48.8 339.71,-48.8 339.71,-84.8"/>
<text text-anchor="middle" x="248" y="-62.6" font-family="Times,serif" font-size="14.00">ContentProjectionComponent</text>
</g>
<!-- AtftObjectModule -->
<g id="node3" class="node">
<title>AtftObjectModule</title>
<polygon fill="#8dd3c7" stroke="black" points="1125.92,-149.8 1122.92,-153.8 1101.92,-153.8 1098.92,-149.8 1006.08,-149.8 1006.08,-113.8 1125.92,-113.8 1125.92,-149.8"/>
<text text-anchor="middle" x="1066" y="-127.6" font-family="Times,serif" font-size="14.00">AtftObjectModule</text>
</g>
<!-- ContentProjectionComponent&#45;&gt;AtftObjectModule -->
<g id="edge1" class="edge">
<title>ContentProjectionComponent&#45;&gt;AtftObjectModule</title>
<path fill="none" stroke="black" d="M248,-84.91C248,-104.14 248,-131.8 248,-131.8 248,-131.8 996.18,-131.8 996.18,-131.8"/>
<polygon fill="black" stroke="black" points="996.18,-135.3 1006.18,-131.8 996.18,-128.3 996.18,-135.3"/>
</g>
<!-- SceneComponent -->
<g id="node2" class="node">
<title>SceneComponent</title>
<polygon fill="#ffffb3" stroke="black" points="138.26,-84.8 23.74,-84.8 23.74,-48.8 138.26,-48.8 138.26,-84.8"/>
<text text-anchor="middle" x="81" y="-62.6" font-family="Times,serif" font-size="14.00">SceneComponent</text>
</g>
<!-- SceneComponent&#45;&gt;AtftObjectModule -->
<g id="edge2" class="edge">
<title>SceneComponent&#45;&gt;AtftObjectModule</title>
<path fill="none" stroke="black" d="M81,-84.93C81,-105.37 81,-135.8 81,-135.8 81,-135.8 996.23,-135.8 996.23,-135.8"/>
<polygon fill="black" stroke="black" points="996.23,-139.3 1006.23,-135.8 996.23,-132.3 996.23,-139.3"/>
</g>
<!-- AtftConnectorModule  -->
<g id="node10" class="node">
<title>AtftConnectorModule </title>
<polygon fill="#fb8072" stroke="black" points="1566.92,-214.8 1423.08,-214.8 1423.08,-178.8 1566.92,-178.8 1566.92,-214.8"/>
<text text-anchor="middle" x="1495" y="-192.6" font-family="Times,serif" font-size="14.00">AtftConnectorModule </text>
</g>
<!-- AtftObjectModule&#45;&gt;AtftConnectorModule  -->
<g id="edge9" class="edge">
<title>AtftObjectModule&#45;&gt;AtftConnectorModule </title>
<path fill="none" stroke="black" stroke-dasharray="5,2" d="M1125.83,-139.8C1239.28,-139.8 1474.46,-139.8 1474.46,-139.8 1474.46,-139.8 1474.46,-168.76 1474.46,-168.76"/>
<polygon fill="black" stroke="black" points="1470.96,-168.76 1474.46,-178.76 1477.96,-168.76 1470.96,-168.76"/>
</g>
<!-- AtftHelperModule  -->
<g id="node11" class="node">
<title>AtftHelperModule </title>
<polygon fill="#fb8072" stroke="black" points="1404.69,-214.8 1281.31,-214.8 1281.31,-178.8 1404.69,-178.8 1404.69,-214.8"/>
<text text-anchor="middle" x="1343" y="-192.6" font-family="Times,serif" font-size="14.00">AtftHelperModule </text>
</g>
<!-- AtftObjectModule&#45;&gt;AtftHelperModule  -->
<g id="edge10" class="edge">
<title>AtftObjectModule&#45;&gt;AtftHelperModule </title>
<path fill="none" stroke="black" stroke-dasharray="5,2" d="M1125.78,-142.8C1204.73,-142.8 1333.88,-142.8 1333.88,-142.8 1333.88,-142.8 1333.88,-168.52 1333.88,-168.52"/>
<polygon fill="black" stroke="black" points="1330.38,-168.52 1333.88,-178.52 1337.38,-168.52 1330.38,-168.52"/>
</g>
<!-- AtftLightModule  -->
<g id="node12" class="node">
<title>AtftLightModule </title>
<polygon fill="#fb8072" stroke="black" points="1262.93,-214.8 1147.07,-214.8 1147.07,-178.8 1262.93,-178.8 1262.93,-214.8"/>
<text text-anchor="middle" x="1205" y="-192.6" font-family="Times,serif" font-size="14.00">AtftLightModule </text>
</g>
<!-- AtftObjectModule&#45;&gt;AtftLightModule  -->
<g id="edge11" class="edge">
<title>AtftObjectModule&#45;&gt;AtftLightModule </title>
<path fill="none" stroke="black" stroke-dasharray="5,2" d="M1125.71,-146.8C1154.99,-146.8 1184.04,-146.8 1184.04,-146.8 1184.04,-146.8 1184.04,-168.75 1184.04,-168.75"/>
<polygon fill="black" stroke="black" points="1180.54,-168.75 1184.04,-178.75 1187.54,-168.75 1180.54,-168.75"/>
</g>
<!-- AtftLoaderModule  -->
<g id="node13" class="node">
<title>AtftLoaderModule </title>
<polygon fill="#fb8072" stroke="black" points="1128.74,-214.8 1003.26,-214.8 1003.26,-178.8 1128.74,-178.8 1128.74,-214.8"/>
<text text-anchor="middle" x="1066" y="-192.6" font-family="Times,serif" font-size="14.00">AtftLoaderModule </text>
</g>
<!-- AtftObjectModule&#45;&gt;AtftLoaderModule  -->
<g id="edge12" class="edge">
<title>AtftObjectModule&#45;&gt;AtftLoaderModule </title>
<path fill="none" stroke="black" stroke-dasharray="5,2" d="M1066,-149.91C1066,-149.91 1066,-168.79 1066,-168.79"/>
<polygon fill="black" stroke="black" points="1062.5,-168.79 1066,-178.79 1069.5,-168.79 1062.5,-168.79"/>
</g>
<!-- AtftMeshModule  -->
<g id="node14" class="node">
<title>AtftMeshModule </title>
<polygon fill="#fb8072" stroke="black" points="985.2,-214.8 868.8,-214.8 868.8,-178.8 985.2,-178.8 985.2,-214.8"/>
<text text-anchor="middle" x="927" y="-192.6" font-family="Times,serif" font-size="14.00">AtftMeshModule </text>
</g>
<!-- AtftObjectModule&#45;&gt;AtftMeshModule  -->
<g id="edge13" class="edge">
<title>AtftObjectModule&#45;&gt;AtftMeshModule </title>
<path fill="none" stroke="black" stroke-dasharray="5,2" d="M1006.15,-146.8C963.01,-146.8 912.35,-146.8 912.35,-146.8 912.35,-146.8 912.35,-168.75 912.35,-168.75"/>
<polygon fill="black" stroke="black" points="908.85,-168.75 912.35,-178.75 915.85,-168.75 908.85,-168.75"/>
</g>
<!-- AtftTextModule  -->
<g id="node15" class="node">
<title>AtftTextModule </title>
<polygon fill="#fb8072" stroke="black" points="850.76,-214.8 739.24,-214.8 739.24,-178.8 850.76,-178.8 850.76,-214.8"/>
<text text-anchor="middle" x="795" y="-192.6" font-family="Times,serif" font-size="14.00">AtftTextModule </text>
</g>
<!-- AtftObjectModule&#45;&gt;AtftTextModule  -->
<g id="edge14" class="edge">
<title>AtftObjectModule&#45;&gt;AtftTextModule </title>
<path fill="none" stroke="black" stroke-dasharray="5,2" d="M1006.19,-142.8C926.39,-142.8 795,-142.8 795,-142.8 795,-142.8 795,-168.52 795,-168.52"/>
<polygon fill="black" stroke="black" points="791.5,-168.52 795,-178.52 798.5,-168.52 791.5,-168.52"/>
</g>
<!-- SceneComponent  -->
<g id="node16" class="node">
<title>SceneComponent </title>
<polygon fill="#fb8072" stroke="black" points="721.26,-214.8 602.74,-214.8 602.74,-178.8 721.26,-178.8 721.26,-214.8"/>
<text text-anchor="middle" x="662" y="-192.6" font-family="Times,serif" font-size="14.00">SceneComponent </text>
</g>
<!-- AtftObjectModule&#45;&gt;SceneComponent  -->
<g id="edge15" class="edge">
<title>AtftObjectModule&#45;&gt;SceneComponent </title>
<path fill="none" stroke="black" stroke-dasharray="5,2" d="M1006.14,-139.8C906.03,-139.8 715.47,-139.8 715.47,-139.8 715.47,-139.8 715.47,-168.76 715.47,-168.76"/>
<polygon fill="black" stroke="black" points="711.97,-168.76 715.47,-178.76 718.97,-168.76 711.97,-168.76"/>
</g>
<!-- AtftConnectorModule -->
<g id="node4" class="node">
<title>AtftConnectorModule</title>
<polygon fill="#8dd3c7" stroke="black" points="1952.42,-84.8 1949.42,-88.8 1928.42,-88.8 1925.42,-84.8 1811.58,-84.8 1811.58,-48.8 1952.42,-48.8 1952.42,-84.8"/>
<text text-anchor="middle" x="1882" y="-62.6" font-family="Times,serif" font-size="14.00">AtftConnectorModule</text>
</g>
<!-- AtftConnectorModule&#45;&gt;AtftObjectModule -->
<g id="edge3" class="edge">
<title>AtftConnectorModule&#45;&gt;AtftObjectModule</title>
<path fill="none" stroke="black" d="M1882,-84.93C1882,-105.37 1882,-135.8 1882,-135.8 1882,-135.8 1136,-135.8 1136,-135.8"/>
<polygon fill="black" stroke="black" points="1136,-132.3 1126,-135.8 1136,-139.3 1136,-132.3"/>
</g>
<!-- AtftHelperModule -->
<g id="node5" class="node">
<title>AtftHelperModule</title>
<polygon fill="#8dd3c7" stroke="black" points="1794.19,-84.8 1791.19,-88.8 1770.19,-88.8 1767.19,-84.8 1673.81,-84.8 1673.81,-48.8 1794.19,-48.8 1794.19,-84.8"/>
<text text-anchor="middle" x="1734" y="-62.6" font-family="Times,serif" font-size="14.00">AtftHelperModule</text>
</g>
<!-- AtftHelperModule&#45;&gt;AtftObjectModule -->
<g id="edge4" class="edge">
<title>AtftHelperModule&#45;&gt;AtftObjectModule</title>
<path fill="none" stroke="black" d="M1734,-84.91C1734,-104.14 1734,-131.8 1734,-131.8 1734,-131.8 1135.87,-131.8 1135.87,-131.8"/>
<polygon fill="black" stroke="black" points="1135.87,-128.3 1125.87,-131.8 1135.87,-135.3 1135.87,-128.3"/>
</g>
<!-- AtftLightModule -->
<g id="node6" class="node">
<title>AtftLightModule</title>
<polygon fill="#8dd3c7" stroke="black" points="1656.43,-84.8 1653.43,-88.8 1632.43,-88.8 1629.43,-84.8 1543.57,-84.8 1543.57,-48.8 1656.43,-48.8 1656.43,-84.8"/>
<text text-anchor="middle" x="1600" y="-62.6" font-family="Times,serif" font-size="14.00">AtftLightModule</text>
</g>
<!-- AtftLightModule&#45;&gt;AtftObjectModule -->
<g id="edge5" class="edge">
<title>AtftLightModule&#45;&gt;AtftObjectModule</title>
<path fill="none" stroke="black" d="M1555.37,-85.07C1555.37,-103.36 1555.37,-128.8 1555.37,-128.8 1555.37,-128.8 1136.01,-128.8 1136.01,-128.8"/>
<polygon fill="black" stroke="black" points="1136.01,-125.3 1126.01,-128.8 1136.01,-132.3 1136.01,-125.3"/>
</g>
<!-- AtftLoaderModule -->
<g id="node7" class="node">
<title>AtftLoaderModule</title>
<polygon fill="#8dd3c7" stroke="black" points="1525.74,-84.8 1522.74,-88.8 1501.74,-88.8 1498.74,-84.8 1404.26,-84.8 1404.26,-48.8 1525.74,-48.8 1525.74,-84.8"/>
<text text-anchor="middle" x="1465" y="-62.6" font-family="Times,serif" font-size="14.00">AtftLoaderModule</text>
</g>
<!-- AtftLoaderModule&#45;&gt;AtftObjectModule -->
<g id="edge6" class="edge">
<title>AtftLoaderModule&#45;&gt;AtftObjectModule</title>
<path fill="none" stroke="black" d="M1413.94,-84.83C1413.94,-101.86 1413.94,-124.8 1413.94,-124.8 1413.94,-124.8 1135.81,-124.8 1135.81,-124.8"/>
<polygon fill="black" stroke="black" points="1135.81,-121.3 1125.81,-124.8 1135.81,-128.3 1135.81,-121.3"/>
</g>
<!-- AtftMeshModule -->
<g id="node8" class="node">
<title>AtftMeshModule</title>
<polygon fill="#8dd3c7" stroke="black" points="1386.7,-84.8 1383.7,-88.8 1362.7,-88.8 1359.7,-84.8 1273.3,-84.8 1273.3,-48.8 1386.7,-48.8 1386.7,-84.8"/>
<text text-anchor="middle" x="1330" y="-62.6" font-family="Times,serif" font-size="14.00">AtftMeshModule</text>
</g>
<!-- AtftMeshModule&#45;&gt;AtftObjectModule -->
<g id="edge7" class="edge">
<title>AtftMeshModule&#45;&gt;AtftObjectModule</title>
<path fill="none" stroke="black" d="M1277.28,-84.81C1277.28,-100.85 1277.28,-121.8 1277.28,-121.8 1277.28,-121.8 1135.98,-121.8 1135.98,-121.8"/>
<polygon fill="black" stroke="black" points="1135.98,-118.3 1125.98,-121.8 1135.98,-125.3 1135.98,-118.3"/>
</g>
<!-- AtftTextModule -->
<g id="node9" class="node">
<title>AtftTextModule</title>
<polygon fill="#8dd3c7" stroke="black" points="1255.76,-84.8 1252.76,-88.8 1231.76,-88.8 1228.76,-84.8 1148.24,-84.8 1148.24,-48.8 1255.76,-48.8 1255.76,-84.8"/>
<text text-anchor="middle" x="1202" y="-62.6" font-family="Times,serif" font-size="14.00">AtftTextModule</text>
</g>
<!-- AtftTextModule&#45;&gt;AtftObjectModule -->
<g id="edge8" class="edge">
<title>AtftTextModule&#45;&gt;AtftObjectModule</title>
<path fill="none" stroke="black" d="M1219.96,-84.92C1219.96,-99.58 1219.96,-117.8 1219.96,-117.8 1219.96,-117.8 1135.97,-117.8 1135.97,-117.8"/>
<polygon fill="black" stroke="black" points="1135.97,-114.3 1125.97,-117.8 1135.97,-121.3 1135.97,-114.3"/>
</g>
<!-- FontService -->
<g id="node17" class="node">
<title>FontService</title>
<ellipse fill="#fdb462" stroke="black" cx="1066" cy="-66.8" rx="57.9" ry="18"/>
<text text-anchor="middle" x="1066" y="-62.6" font-family="Times,serif" font-size="14.00">FontService</text>
</g>
<!-- FontService&#45;&gt;AtftObjectModule -->
<g id="edge16" class="edge">
<title>FontService&#45;&gt;AtftObjectModule</title>
<path fill="none" stroke="black" d="M1066,-84.91C1066,-84.91 1066,-103.79 1066,-103.79"/>
<polygon fill="black" stroke="black" points="1062.5,-103.79 1066,-113.79 1069.5,-103.79 1062.5,-103.79"/>
</g>
<!-- IconService -->
<g id="node18" class="node">
<title>IconService</title>
<ellipse fill="#fdb462" stroke="black" cx="933" cy="-66.8" rx="57.3" ry="18"/>
<text text-anchor="middle" x="933" y="-62.6" font-family="Times,serif" font-size="14.00">IconService</text>
</g>
<!-- IconService&#45;&gt;AtftObjectModule -->
<g id="edge17" class="edge">
<title>IconService&#45;&gt;AtftObjectModule</title>
<path fill="none" stroke="black" d="M948.85,-84.35C948.85,-99.1 948.85,-117.8 948.85,-117.8 948.85,-117.8 996.05,-117.8 996.05,-117.8"/>
<polygon fill="black" stroke="black" points="996.05,-121.3 1006.05,-117.8 996.05,-114.3 996.05,-121.3"/>
</g>
<!-- ModelService -->
<g id="node19" class="node">
<title>ModelService</title>
<ellipse fill="#fdb462" stroke="black" cx="793" cy="-66.8" rx="65.41" ry="18"/>
<text text-anchor="middle" x="793" y="-62.6" font-family="Times,serif" font-size="14.00">ModelService</text>
</g>
<!-- ModelService&#45;&gt;AtftObjectModule -->
<g id="edge18" class="edge">
<title>ModelService&#45;&gt;AtftObjectModule</title>
<path fill="none" stroke="black" d="M854.42,-73.11C854.42,-87.56 854.42,-121.8 854.42,-121.8 854.42,-121.8 996.22,-121.8 996.22,-121.8"/>
<polygon fill="black" stroke="black" points="996.22,-125.3 1006.22,-121.8 996.22,-118.3 996.22,-125.3"/>
</g>
<!-- ObjLoaderService -->
<g id="node20" class="node">
<title>ObjLoaderService</title>
<ellipse fill="#fdb462" stroke="black" cx="628" cy="-66.8" rx="81.64" ry="18"/>
<text text-anchor="middle" x="628" y="-62.6" font-family="Times,serif" font-size="14.00">ObjLoaderService</text>
</g>
<!-- ObjLoaderService&#45;&gt;AtftObjectModule -->
<g id="edge19" class="edge">
<title>ObjLoaderService&#45;&gt;AtftObjectModule</title>
<path fill="none" stroke="black" d="M656.35,-83.89C656.35,-101 656.35,-124.8 656.35,-124.8 656.35,-124.8 995.99,-124.8 995.99,-124.8"/>
<polygon fill="black" stroke="black" points="995.99,-128.3 1005.99,-124.8 995.99,-121.3 995.99,-128.3"/>
</g>
<!-- SvgLoaderService -->
<g id="node21" class="node">
<title>SvgLoaderService</title>
<ellipse fill="#fdb462" stroke="black" cx="446" cy="-66.8" rx="82.22" ry="18"/>
<text text-anchor="middle" x="446" y="-62.6" font-family="Times,serif" font-size="14.00">SvgLoaderService</text>
</g>
<!-- SvgLoaderService&#45;&gt;AtftObjectModule -->
<g id="edge20" class="edge">
<title>SvgLoaderService&#45;&gt;AtftObjectModule</title>
<path fill="none" stroke="black" d="M446,-85.07C446,-103.36 446,-128.8 446,-128.8 446,-128.8 996.27,-128.8 996.27,-128.8"/>
<polygon fill="black" stroke="black" points="996.27,-132.3 1006.27,-128.8 996.27,-125.3 996.27,-132.3"/>
</g>
</g>
</svg>
