<?xml version="1.0" encoding="UTF-8" standalone="no"?>
<!DOCTYPE svg PUBLIC "-//W3C//DTD SVG 1.1//EN"
 "http://www.w3.org/Graphics/SVG/1.1/DTD/svg11.dtd">
<!-- Generated by graphviz version 2.47.0 (20210316.0004)
 -->
<!-- Title: dependencies Pages: 1 -->
<svg width="1984pt" height="284pt"
 viewBox="0.00 0.00 1984.00 284.00" xmlns="http://www.w3.org/2000/svg" xmlns:xlink="http://www.w3.org/1999/xlink">
<g id="graph0" class="graph" transform="scale(1 1) rotate(0) translate(4 280)">
<title>dependencies</title>
<polygon fill="white" stroke="transparent" points="-4,4 -4,-280 1980,-280 1980,4 -4,4"/>
<text text-anchor="start" x="967.01" y="-42.4" font-family="Times-12" font-weight="bold" font-size="14.00">Legend</text>
<polygon fill="#ffffb3" stroke="transparent" points="754,-10 754,-30 774,-30 774,-10 754,-10"/>
<text text-anchor="start" x="777.63" y="-15.4" font-family="Times-12" font-size="14.00"> &#160;Declarations</text>
<polygon fill="#8dd3c7" stroke="transparent" points="867,-10 867,-30 887,-30 887,-10 867,-10"/>
<text text-anchor="start" x="890.73" y="-15.4" font-family="Times-12" font-size="14.00"> &#160;Module</text>
<polygon fill="#80b1d3" stroke="transparent" points="953,-10 953,-30 973,-30 973,-10 953,-10"/>
<text text-anchor="start" x="976.78" y="-15.4" font-family="Times-12" font-size="14.00"> &#160;Bootstrap</text>
<polygon fill="#fdb462" stroke="transparent" points="1050,-10 1050,-30 1070,-30 1070,-10 1050,-10"/>
<text text-anchor="start" x="1073.67" y="-15.4" font-family="Times-12" font-size="14.00"> &#160;Providers</text>
<polygon fill="#fb8072" stroke="transparent" points="1146,-10 1146,-30 1166,-30 1166,-10 1146,-10"/>
<text text-anchor="start" x="1169.73" y="-15.4" font-family="Times-12" font-size="14.00"> &#160;Exports</text>
<g id="clust1" class="cluster">
<title>cluster_AtftObjectModule</title>
<polygon fill="none" stroke="black" stroke-dasharray="1,5" points="8,-70 8,-268 1968,-268 1968,-70 8,-70"/>
</g>
<g id="clust8" class="cluster">
<title>cluster_AtftObjectModule_providers</title>
<polygon fill="none" stroke="black" points="1184,-78 1184,-130 1960,-130 1960,-78 1184,-78"/>
</g>
<g id="clust5" class="cluster">
<title>cluster_AtftObjectModule_imports</title>
<polygon fill="none" stroke="black" points="356,-78 356,-130 1176,-130 1176,-78 356,-78"/>
</g>
<g id="clust6" class="cluster">
<title>cluster_AtftObjectModule_exports</title>
<polygon fill="none" stroke="black" points="479,-208 479,-260 1459,-260 1459,-208 479,-208"/>
</g>
<g id="clust2" class="cluster">
<title>cluster_AtftObjectModule_declarations</title>
<polygon fill="none" stroke="black" points="16,-78 16,-130 348,-130 348,-78 16,-78"/>
</g>
<!-- ContentProjectionComponent -->
<g id="node1" class="node">
<title>ContentProjectionComponent</title>
<polygon fill="#ffffb3" stroke="black" points="339.71,-122 156.29,-122 156.29,-86 339.71,-86 339.71,-122"/>
<text text-anchor="middle" x="248" y="-99.8" font-family="Times,serif" font-size="14.00">ContentProjectionComponent</text>
</g>
<!-- AtftObjectModule -->
<g id="node3" class="node">
<title>AtftObjectModule</title>
<polygon fill="#8dd3c7" stroke="black" points="1009.92,-187 1006.92,-191 985.92,-191 982.92,-187 890.08,-187 890.08,-151 1009.92,-151 1009.92,-187"/>
<text text-anchor="middle" x="950" y="-164.8" font-family="Times,serif" font-size="14.00">AtftObjectModule</text>
</g>
<!-- ContentProjectionComponent&#45;&gt;AtftObjectModule -->
<g id="edge1" class="edge">
<title>ContentProjectionComponent&#45;&gt;AtftObjectModule</title>
<path fill="none" stroke="black" d="M248,-122.11C248,-141.34 248,-169 248,-169 248,-169 880.15,-169 880.15,-169"/>
<polygon fill="black" stroke="black" points="880.15,-172.5 890.15,-169 880.15,-165.5 880.15,-172.5"/>
</g>
<!-- SceneComponent -->
<g id="node2" class="node">
<title>SceneComponent</title>
<polygon fill="#ffffb3" stroke="black" points="138.26,-122 23.74,-122 23.74,-86 138.26,-86 138.26,-122"/>
<text text-anchor="middle" x="81" y="-99.8" font-family="Times,serif" font-size="14.00">SceneComponent</text>
</g>
<!-- SceneComponent&#45;&gt;AtftObjectModule -->
<g id="edge2" class="edge">
<title>SceneComponent&#45;&gt;AtftObjectModule</title>
<path fill="none" stroke="black" d="M81,-122.13C81,-142.57 81,-173 81,-173 81,-173 880.27,-173 880.27,-173"/>
<polygon fill="black" stroke="black" points="880.27,-176.5 890.27,-173 880.27,-169.5 880.27,-176.5"/>
</g>
<!-- AtftConnectorModule  -->
<g id="node10" class="node">
<title>AtftConnectorModule </title>
<polygon fill="#fb8072" stroke="black" points="1450.92,-252 1307.08,-252 1307.08,-216 1450.92,-216 1450.92,-252"/>
<text text-anchor="middle" x="1379" y="-229.8" font-family="Times,serif" font-size="14.00">AtftConnectorModule </text>
</g>
<!-- AtftObjectModule&#45;&gt;AtftConnectorModule  -->
<g id="edge9" class="edge">
<title>AtftObjectModule&#45;&gt;AtftConnectorModule </title>
<path fill="none" stroke="black" stroke-dasharray="5,2" d="M1010.06,-177C1117.55,-177 1331.7,-177 1331.7,-177 1331.7,-177 1331.7,-205.96 1331.7,-205.96"/>
<polygon fill="black" stroke="black" points="1328.2,-205.96 1331.7,-215.96 1335.2,-205.96 1328.2,-205.96"/>
</g>
<!-- AtftHelperModule  -->
<g id="node11" class="node">
<title>AtftHelperModule </title>
<polygon fill="#fb8072" stroke="black" points="1288.69,-252 1165.31,-252 1165.31,-216 1288.69,-216 1288.69,-252"/>
<text text-anchor="middle" x="1227" y="-229.8" font-family="Times,serif" font-size="14.00">AtftHelperModule </text>
</g>
<!-- AtftObjectModule&#45;&gt;AtftHelperModule  -->
<g id="edge10" class="edge">
<title>AtftObjectModule&#45;&gt;AtftHelperModule </title>
<path fill="none" stroke="black" stroke-dasharray="5,2" d="M1009.81,-180C1077.93,-180 1179.92,-180 1179.92,-180 1179.92,-180 1179.92,-205.72 1179.92,-205.72"/>
<polygon fill="black" stroke="black" points="1176.42,-205.72 1179.92,-215.72 1183.42,-205.72 1176.42,-205.72"/>
</g>
<!-- AtftLightModule  -->
<g id="node12" class="node">
<title>AtftLightModule </title>
<polygon fill="#fb8072" stroke="black" points="1146.93,-252 1031.07,-252 1031.07,-216 1146.93,-216 1146.93,-252"/>
<text text-anchor="middle" x="1089" y="-229.8" font-family="Times,serif" font-size="14.00">AtftLightModule </text>
</g>
<!-- AtftObjectModule&#45;&gt;AtftLightModule  -->
<g id="edge11" class="edge">
<title>AtftObjectModule&#45;&gt;AtftLightModule </title>
<path fill="none" stroke="black" stroke-dasharray="5,2" d="M1009.85,-184C1054.69,-184 1108.32,-184 1108.32,-184 1108.32,-184 1108.32,-205.95 1108.32,-205.95"/>
<polygon fill="black" stroke="black" points="1104.82,-205.95 1108.32,-215.95 1111.82,-205.95 1104.82,-205.95"/>
</g>
<!-- AtftLoaderModule  -->
<g id="node13" class="node">
<title>AtftLoaderModule </title>
<polygon fill="#fb8072" stroke="black" points="1012.74,-252 887.26,-252 887.26,-216 1012.74,-216 1012.74,-252"/>
<text text-anchor="middle" x="950" y="-229.8" font-family="Times,serif" font-size="14.00">AtftLoaderModule </text>
</g>
<!-- AtftObjectModule&#45;&gt;AtftLoaderModule  -->
<g id="edge12" class="edge">
<title>AtftObjectModule&#45;&gt;AtftLoaderModule </title>
<path fill="none" stroke="black" stroke-dasharray="5,2" d="M950,-187.11C950,-187.11 950,-205.99 950,-205.99"/>
<polygon fill="black" stroke="black" points="946.5,-205.99 950,-215.99 953.5,-205.99 946.5,-205.99"/>
</g>
<!-- AtftMeshModule  -->
<g id="node14" class="node">
<title>AtftMeshModule </title>
<polygon fill="#fb8072" stroke="black" points="869.2,-252 752.8,-252 752.8,-216 869.2,-216 869.2,-252"/>
<text text-anchor="middle" x="811" y="-229.8" font-family="Times,serif" font-size="14.00">AtftMeshModule </text>
</g>
<!-- AtftObjectModule&#45;&gt;AtftMeshModule  -->
<g id="edge13" class="edge">
<title>AtftObjectModule&#45;&gt;AtftMeshModule </title>
<path fill="none" stroke="black" stroke-dasharray="5,2" d="M890.14,-184C846.98,-184 796.31,-184 796.31,-184 796.31,-184 796.31,-205.95 796.31,-205.95"/>
<polygon fill="black" stroke="black" points="792.81,-205.95 796.31,-215.95 799.81,-205.95 792.81,-205.95"/>
</g>
<!-- AtftTextModule  -->
<g id="node15" class="node">
<title>AtftTextModule </title>
<polygon fill="#fb8072" stroke="black" points="734.76,-252 623.24,-252 623.24,-216 734.76,-216 734.76,-252"/>
<text text-anchor="middle" x="679" y="-229.8" font-family="Times,serif" font-size="14.00">AtftTextModule </text>
</g>
<!-- AtftObjectModule&#45;&gt;AtftTextModule  -->
<g id="edge14" class="edge">
<title>AtftObjectModule&#45;&gt;AtftTextModule </title>
<path fill="none" stroke="black" stroke-dasharray="5,2" d="M890.19,-180C810.39,-180 679,-180 679,-180 679,-180 679,-205.72 679,-205.72"/>
<polygon fill="black" stroke="black" points="675.5,-205.72 679,-215.72 682.5,-205.72 675.5,-205.72"/>
</g>
<!-- SceneComponent  -->
<g id="node16" class="node">
<title>SceneComponent </title>
<polygon fill="#fb8072" stroke="black" points="605.26,-252 486.74,-252 486.74,-216 605.26,-216 605.26,-252"/>
<text text-anchor="middle" x="546" y="-229.8" font-family="Times,serif" font-size="14.00">SceneComponent </text>
</g>
<!-- AtftObjectModule&#45;&gt;SceneComponent  -->
<g id="edge15" class="edge">
<title>AtftObjectModule&#45;&gt;SceneComponent </title>
<path fill="none" stroke="black" stroke-dasharray="5,2" d="M890.25,-177C782.07,-177 564.87,-177 564.87,-177 564.87,-177 564.87,-205.96 564.87,-205.96"/>
<polygon fill="black" stroke="black" points="561.37,-205.96 564.87,-215.96 568.37,-205.96 561.37,-205.96"/>
</g>
<!-- AtftConnectorModule -->
<g id="node4" class="node">
<title>AtftConnectorModule</title>
<polygon fill="#8dd3c7" stroke="black" points="1168.42,-122 1165.42,-126 1144.42,-126 1141.42,-122 1027.58,-122 1027.58,-86 1168.42,-86 1168.42,-122"/>
<text text-anchor="middle" x="1098" y="-99.8" font-family="Times,serif" font-size="14.00">AtftConnectorModule</text>
</g>
<!-- AtftConnectorModule&#45;&gt;AtftObjectModule -->
<g id="edge3" class="edge">
<title>AtftConnectorModule&#45;&gt;AtftObjectModule</title>
<path fill="none" stroke="black" d="M1069.68,-122.12C1069.68,-136.78 1069.68,-155 1069.68,-155 1069.68,-155 1019.84,-155 1019.84,-155"/>
<polygon fill="black" stroke="black" points="1019.84,-151.5 1009.84,-155 1019.84,-158.5 1019.84,-151.5"/>
</g>
<!-- AtftHelperModule -->
<g id="node5" class="node">
<title>AtftHelperModule</title>
<polygon fill="#8dd3c7" stroke="black" points="1010.19,-122 1007.19,-126 986.19,-126 983.19,-122 889.81,-122 889.81,-86 1010.19,-86 1010.19,-122"/>
<text text-anchor="middle" x="950" y="-99.8" font-family="Times,serif" font-size="14.00">AtftHelperModule</text>
</g>
<!-- AtftHelperModule&#45;&gt;AtftObjectModule -->
<g id="edge4" class="edge">
<title>AtftHelperModule&#45;&gt;AtftObjectModule</title>
<path fill="none" stroke="black" d="M950,-122.11C950,-122.11 950,-140.99 950,-140.99"/>
<polygon fill="black" stroke="black" points="946.5,-140.99 950,-150.99 953.5,-140.99 946.5,-140.99"/>
</g>
<!-- AtftLightModule -->
<g id="node6" class="node">
<title>AtftLightModule</title>
<polygon fill="#8dd3c7" stroke="black" points="872.43,-122 869.43,-126 848.43,-126 845.43,-122 759.57,-122 759.57,-86 872.43,-86 872.43,-122"/>
<text text-anchor="middle" x="816" y="-99.8" font-family="Times,serif" font-size="14.00">AtftLightModule</text>
</g>
<!-- AtftLightModule&#45;&gt;AtftObjectModule -->
<g id="edge5" class="edge">
<title>AtftLightModule&#45;&gt;AtftObjectModule</title>
<path fill="none" stroke="black" d="M832.83,-122.12C832.83,-136.78 832.83,-155 832.83,-155 832.83,-155 880.04,-155 880.04,-155"/>
<polygon fill="black" stroke="black" points="880.04,-158.5 890.04,-155 880.04,-151.5 880.04,-158.5"/>
</g>
<!-- AtftLoaderModule -->
<g id="node7" class="node">
<title>AtftLoaderModule</title>
<polygon fill="#8dd3c7" stroke="black" points="741.74,-122 738.74,-126 717.74,-126 714.74,-122 620.26,-122 620.26,-86 741.74,-86 741.74,-122"/>
<text text-anchor="middle" x="681" y="-99.8" font-family="Times,serif" font-size="14.00">AtftLoaderModule</text>
</g>
<!-- AtftLoaderModule&#45;&gt;AtftObjectModule -->
<g id="edge6" class="edge">
<title>AtftLoaderModule&#45;&gt;AtftObjectModule</title>
<path fill="none" stroke="black" d="M738.25,-122.01C738.25,-138.05 738.25,-159 738.25,-159 738.25,-159 880.17,-159 880.17,-159"/>
<polygon fill="black" stroke="black" points="880.17,-162.5 890.17,-159 880.17,-155.5 880.17,-162.5"/>
</g>
<!-- AtftMeshModule -->
<g id="node8" class="node">
<title>AtftMeshModule</title>
<polygon fill="#8dd3c7" stroke="black" points="602.7,-122 599.7,-126 578.7,-126 575.7,-122 489.3,-122 489.3,-86 602.7,-86 602.7,-122"/>
<text text-anchor="middle" x="546" y="-99.8" font-family="Times,serif" font-size="14.00">AtftMeshModule</text>
</g>
<!-- AtftMeshModule&#45;&gt;AtftObjectModule -->
<g id="edge7" class="edge">
<title>AtftMeshModule&#45;&gt;AtftObjectModule</title>
<path fill="none" stroke="black" d="M527.13,-122.03C527.13,-139.06 527.13,-162 527.13,-162 527.13,-162 879.86,-162 879.86,-162"/>
<polygon fill="black" stroke="black" points="879.86,-165.5 889.86,-162 879.86,-158.5 879.86,-165.5"/>
</g>
<!-- AtftTextModule -->
<g id="node9" class="node">
<title>AtftTextModule</title>
<polygon fill="#8dd3c7" stroke="black" points="471.76,-122 468.76,-126 447.76,-126 444.76,-122 364.24,-122 364.24,-86 471.76,-86 471.76,-122"/>
<text text-anchor="middle" x="418" y="-99.8" font-family="Times,serif" font-size="14.00">AtftTextModule</text>
</g>
<!-- AtftTextModule&#45;&gt;AtftObjectModule -->
<g id="edge8" class="edge">
<title>AtftTextModule&#45;&gt;AtftObjectModule</title>
<path fill="none" stroke="black" d="M418,-122.27C418,-140.56 418,-166 418,-166 418,-166 880.26,-166 880.26,-166"/>
<polygon fill="black" stroke="black" points="880.26,-169.5 890.26,-166 880.26,-162.5 880.26,-169.5"/>
</g>
<!-- FontService -->
<g id="node17" class="node">
<title>FontService</title>
<ellipse fill="#fdb462" stroke="black" cx="1894" cy="-104" rx="57.9" ry="18"/>
<text text-anchor="middle" x="1894" y="-99.8" font-family="Times,serif" font-size="14.00">FontService</text>
</g>
<!-- FontService&#45;&gt;AtftObjectModule -->
<g id="edge16" class="edge">
<title>FontService&#45;&gt;AtftObjectModule</title>
<path fill="none" stroke="black" d="M1894,-122.13C1894,-142.57 1894,-173 1894,-173 1894,-173 1019.77,-173 1019.77,-173"/>
<polygon fill="black" stroke="black" points="1019.77,-169.5 1009.77,-173 1019.77,-176.5 1019.77,-169.5"/>
</g>
<!-- IconService -->
<g id="node18" class="node">
<title>IconService</title>
<ellipse fill="#fdb462" stroke="black" cx="1761" cy="-104" rx="57.3" ry="18"/>
<text text-anchor="middle" x="1761" y="-99.8" font-family="Times,serif" font-size="14.00">IconService</text>
</g>
<!-- IconService&#45;&gt;AtftObjectModule -->
<g id="edge17" class="edge">
<title>IconService&#45;&gt;AtftObjectModule</title>
<path fill="none" stroke="black" d="M1761,-122.11C1761,-141.34 1761,-169 1761,-169 1761,-169 1019.96,-169 1019.96,-169"/>
<polygon fill="black" stroke="black" points="1019.96,-165.5 1009.96,-169 1019.96,-172.5 1019.96,-165.5"/>
</g>
<!-- ModelService -->
<g id="node19" class="node">
<title>ModelService</title>
<ellipse fill="#fdb462" stroke="black" cx="1621" cy="-104" rx="65.41" ry="18"/>
<text text-anchor="middle" x="1621" y="-99.8" font-family="Times,serif" font-size="14.00">ModelService</text>
</g>
<!-- ModelService&#45;&gt;AtftObjectModule -->
<g id="edge18" class="edge">
<title>ModelService&#45;&gt;AtftObjectModule</title>
<path fill="none" stroke="black" d="M1621,-122.27C1621,-140.56 1621,-166 1621,-166 1621,-166 1019.84,-166 1019.84,-166"/>
<polygon fill="black" stroke="black" points="1019.84,-162.5 1009.84,-166 1019.84,-169.5 1019.84,-162.5"/>
</g>
<!-- ObjLoaderService -->
<g id="node20" class="node">
<title>ObjLoaderService</title>
<ellipse fill="#fdb462" stroke="black" cx="1456" cy="-104" rx="81.64" ry="18"/>
<text text-anchor="middle" x="1456" y="-99.8" font-family="Times,serif" font-size="14.00">ObjLoaderService</text>
</g>
<!-- ObjLoaderService&#45;&gt;AtftObjectModule -->
<g id="edge19" class="edge">
<title>ObjLoaderService&#45;&gt;AtftObjectModule</title>
<path fill="none" stroke="black" d="M1412.57,-119.54C1412.57,-136.72 1412.57,-162 1412.57,-162 1412.57,-162 1020,-162 1020,-162"/>
<polygon fill="black" stroke="black" points="1020,-158.5 1010,-162 1020,-165.5 1020,-158.5"/>
</g>
<!-- SvgLoaderService -->
<g id="node21" class="node">
<title>SvgLoaderService</title>
<ellipse fill="#fdb462" stroke="black" cx="1274" cy="-104" rx="82.22" ry="18"/>
<text text-anchor="middle" x="1274" y="-99.8" font-family="Times,serif" font-size="14.00">SvgLoaderService</text>
</g>
<!-- SvgLoaderService&#45;&gt;AtftObjectModule -->
<g id="edge20" class="edge">
<title>SvgLoaderService&#45;&gt;AtftObjectModule</title>
<path fill="none" stroke="black" d="M1240.24,-120.5C1240.24,-136.7 1240.24,-159 1240.24,-159 1240.24,-159 1019.79,-159 1019.79,-159"/>
<polygon fill="black" stroke="black" points="1019.79,-155.5 1009.79,-159 1019.79,-162.5 1019.79,-155.5"/>
</g>
</g>
</svg>
