<?xml version="1.0" encoding="UTF-8" standalone="no"?>
<!DOCTYPE svg PUBLIC "-//W3C//DTD SVG 1.1//EN"
 "http://www.w3.org/Graphics/SVG/1.1/DTD/svg11.dtd">
<!-- Generated by graphviz version 2.40.1 (20161225.0304)
 -->
<!-- Title: dependencies Pages: 1 -->
<svg width="1836pt" height="284pt"
 viewBox="0.00 0.00 1836.00 284.00" xmlns="http://www.w3.org/2000/svg" xmlns:xlink="http://www.w3.org/1999/xlink">
<g id="graph0" class="graph" transform="scale(1 1) rotate(0) translate(4 280)">
<title>dependencies</title>
<polygon fill="#ffffff" stroke="transparent" points="-4,4 -4,-280 1832,-280 1832,4 -4,4"/>
<text text-anchor="start" x="893.0091" y="-42.4" font-family="sans-serif" font-weight="bold" font-size="14.00" fill="#000000">Legend</text>
<polygon fill="#ffffb3" stroke="transparent" points="680,-10 680,-30 700,-30 700,-10 680,-10"/>
<text text-anchor="start" x="703.629" y="-15.4" font-family="sans-serif" font-size="14.00" fill="#000000"> &#160;Declarations</text>
<polygon fill="#8dd3c7" stroke="transparent" points="793,-10 793,-30 813,-30 813,-10 793,-10"/>
<text text-anchor="start" x="816.7251" y="-15.4" font-family="sans-serif" font-size="14.00" fill="#000000"> &#160;Module</text>
<polygon fill="#80b1d3" stroke="transparent" points="879,-10 879,-30 899,-30 899,-10 879,-10"/>
<text text-anchor="start" x="902.7812" y="-15.4" font-family="sans-serif" font-size="14.00" fill="#000000"> &#160;Bootstrap</text>
<polygon fill="#fdb462" stroke="transparent" points="976,-10 976,-30 996,-30 996,-10 976,-10"/>
<text text-anchor="start" x="999.6732" y="-15.4" font-family="sans-serif" font-size="14.00" fill="#000000"> &#160;Providers</text>
<polygon fill="#fb8072" stroke="transparent" points="1072,-10 1072,-30 1092,-30 1092,-10 1072,-10"/>
<text text-anchor="start" x="1095.7258" y="-15.4" font-family="sans-serif" font-size="14.00" fill="#000000"> &#160;Exports</text>
<g id="clust1" class="cluster">
<title>cluster_AtftObjectModule</title>
<polygon fill="none" stroke="#000000" stroke-dasharray="1,5" points="8,-70 8,-268 1820,-268 1820,-70 8,-70"/>
</g>
<g id="clust2" class="cluster">
<title>cluster_AtftObjectModule_declarations</title>
<polygon fill="none" stroke="#000000" points="1480,-78 1480,-130 1812,-130 1812,-78 1480,-78"/>
</g>
<g id="clust5" class="cluster">
<title>cluster_AtftObjectModule_imports</title>
<polygon fill="none" stroke="#000000" points="652,-78 652,-130 1472,-130 1472,-78 652,-78"/>
</g>
<g id="clust6" class="cluster">
<title>cluster_AtftObjectModule_exports</title>
<polygon fill="none" stroke="#000000" points="438,-208 438,-260 1418,-260 1418,-208 438,-208"/>
</g>
<g id="clust8" class="cluster">
<title>cluster_AtftObjectModule_providers</title>
<polygon fill="none" stroke="#000000" points="16,-78 16,-130 644,-130 644,-78 16,-78"/>
</g>
<!-- ContentProjectionComponent -->
<g id="node1" class="node">
<title>ContentProjectionComponent</title>
<polygon fill="#ffffb3" stroke="#000000" points="1803.7091,-122 1620.2909,-122 1620.2909,-86 1803.7091,-86 1803.7091,-122"/>
<text text-anchor="middle" x="1712" y="-99.8" font-family="Times,serif" font-size="14.00" fill="#000000">ContentProjectionComponent</text>
</g>
<!-- AtftObjectModule -->
<g id="node3" class="node">
<title>AtftObjectModule</title>
<polygon fill="#8dd3c7" stroke="#000000" points="968.9159,-187 965.9159,-191 944.9159,-191 941.9159,-187 849.0841,-187 849.0841,-151 968.9159,-151 968.9159,-187"/>
<text text-anchor="middle" x="909" y="-164.8" font-family="Times,serif" font-size="14.00" fill="#000000">AtftObjectModule</text>
</g>
<!-- ContentProjectionComponent&#45;&gt;AtftObjectModule -->
<g id="edge1" class="edge">
<title>ContentProjectionComponent&#45;&gt;AtftObjectModule</title>
<path fill="none" stroke="#000000" d="M1712,-122.308C1712,-142.1455 1712,-171 1712,-171 1712,-171 979.0271,-171 979.0271,-171"/>
<polygon fill="#000000" stroke="#000000" points="979.0271,-167.5001 969.0271,-171 979.0271,-174.5001 979.0271,-167.5001"/>
</g>
<!-- SceneComponent -->
<g id="node2" class="node">
<title>SceneComponent</title>
<polygon fill="#ffffb3" stroke="#000000" points="1602.2591,-122 1487.7409,-122 1487.7409,-86 1602.2591,-86 1602.2591,-122"/>
<text text-anchor="middle" x="1545" y="-99.8" font-family="Times,serif" font-size="14.00" fill="#000000">SceneComponent</text>
</g>
<!-- SceneComponent&#45;&gt;AtftObjectModule -->
<g id="edge2" class="edge">
<title>SceneComponent&#45;&gt;AtftObjectModule</title>
<path fill="none" stroke="#000000" d="M1545,-122.2222C1545,-140.8285 1545,-167 1545,-167 1545,-167 978.8333,-167 978.8333,-167"/>
<polygon fill="#000000" stroke="#000000" points="978.8334,-163.5001 968.8333,-167 978.8333,-170.5001 978.8334,-163.5001"/>
</g>
<!-- AtftConnectorModule  -->
<g id="node10" class="node">
<title>AtftConnectorModule </title>
<polygon fill="#fb8072" stroke="#000000" points="1409.9152,-252 1266.0848,-252 1266.0848,-216 1409.9152,-216 1409.9152,-252"/>
<text text-anchor="middle" x="1338" y="-229.8" font-family="Times,serif" font-size="14.00" fill="#000000">AtftConnectorModule </text>
</g>
<!-- AtftObjectModule&#45;&gt;AtftConnectorModule  -->
<g id="edge9" class="edge">
<title>AtftObjectModule&#45;&gt;AtftConnectorModule </title>
<path fill="none" stroke="#000000" stroke-dasharray="5,2" d="M968.7475,-175C1075.0703,-175 1286.0675,-175 1286.0675,-175 1286.0675,-175 1286.0675,-205.9775 1286.0675,-205.9775"/>
<polygon fill="#000000" stroke="#000000" points="1282.5676,-205.9774 1286.0675,-215.9775 1289.5676,-205.9775 1282.5676,-205.9774"/>
</g>
<!-- AtftHelperModule  -->
<g id="node11" class="node">
<title>AtftHelperModule </title>
<polygon fill="#fb8072" stroke="#000000" points="1247.6856,-252 1124.3144,-252 1124.3144,-216 1247.6856,-216 1247.6856,-252"/>
<text text-anchor="middle" x="1186" y="-229.8" font-family="Times,serif" font-size="14.00" fill="#000000">AtftHelperModule </text>
</g>
<!-- AtftObjectModule&#45;&gt;AtftHelperModule  -->
<g id="edge10" class="edge">
<title>AtftObjectModule&#45;&gt;AtftHelperModule </title>
<path fill="none" stroke="#000000" stroke-dasharray="5,2" d="M968.8522,-179C1039.1168,-179 1146.1867,-179 1146.1867,-179 1146.1867,-179 1146.1867,-205.9909 1146.1867,-205.9909"/>
<polygon fill="#000000" stroke="#000000" points="1142.6868,-205.9909 1146.1867,-215.9909 1149.6868,-205.991 1142.6868,-205.9909"/>
</g>
<!-- AtftLightModule  -->
<g id="node12" class="node">
<title>AtftLightModule </title>
<polygon fill="#fb8072" stroke="#000000" points="1105.932,-252 990.068,-252 990.068,-216 1105.932,-216 1105.932,-252"/>
<text text-anchor="middle" x="1048" y="-229.8" font-family="Times,serif" font-size="14.00" fill="#000000">AtftLightModule </text>
</g>
<!-- AtftObjectModule&#45;&gt;AtftLightModule  -->
<g id="edge11" class="edge">
<title>AtftObjectModule&#45;&gt;AtftLightModule </title>
<path fill="none" stroke="#000000" stroke-dasharray="5,2" d="M968.8339,-183C992.4031,-183 1013.9522,-183 1013.9522,-183 1013.9522,-183 1013.9522,-205.8757 1013.9522,-205.8757"/>
<polygon fill="#000000" stroke="#000000" points="1010.4522,-205.8757 1013.9522,-215.8757 1017.4522,-205.8757 1010.4522,-205.8757"/>
</g>
<!-- AtftLoaderModule  -->
<g id="node13" class="node">
<title>AtftLoaderModule </title>
<polygon fill="#fb8072" stroke="#000000" points="971.7408,-252 846.2592,-252 846.2592,-216 971.7408,-216 971.7408,-252"/>
<text text-anchor="middle" x="909" y="-229.8" font-family="Times,serif" font-size="14.00" fill="#000000">AtftLoaderModule </text>
</g>
<!-- AtftObjectModule&#45;&gt;AtftLoaderModule  -->
<g id="edge12" class="edge">
<title>AtftObjectModule&#45;&gt;AtftLoaderModule </title>
<path fill="none" stroke="#000000" stroke-dasharray="5,2" d="M909,-187.1061C909,-187.1061 909,-205.991 909,-205.991"/>
<polygon fill="#000000" stroke="#000000" points="905.5001,-205.9909 909,-215.991 912.5001,-205.991 905.5001,-205.9909"/>
</g>
<!-- AtftMeshModule  -->
<g id="node14" class="node">
<title>AtftMeshModule </title>
<polygon fill="#fb8072" stroke="#000000" points="828.2024,-252 711.7976,-252 711.7976,-216 828.2024,-216 828.2024,-252"/>
<text text-anchor="middle" x="770" y="-229.8" font-family="Times,serif" font-size="14.00" fill="#000000">AtftMeshModule </text>
</g>
<!-- AtftObjectModule&#45;&gt;AtftMeshModule  -->
<g id="edge13" class="edge">
<title>AtftObjectModule&#45;&gt;AtftMeshModule </title>
<path fill="none" stroke="#000000" stroke-dasharray="5,2" d="M849.0028,-183C826.773,-183 806.875,-183 806.875,-183 806.875,-183 806.875,-205.8757 806.875,-205.8757"/>
<polygon fill="#000000" stroke="#000000" points="803.3751,-205.8757 806.875,-215.8757 810.3751,-205.8757 803.3751,-205.8757"/>
</g>
<!-- AtftTextModule  -->
<g id="node15" class="node">
<title>AtftTextModule </title>
<polygon fill="#fb8072" stroke="#000000" points="693.7563,-252 582.2437,-252 582.2437,-216 693.7563,-216 693.7563,-252"/>
<text text-anchor="middle" x="638" y="-229.8" font-family="Times,serif" font-size="14.00" fill="#000000">AtftTextModule </text>
</g>
<!-- AtftObjectModule&#45;&gt;AtftTextModule  -->
<g id="edge14" class="edge">
<title>AtftObjectModule&#45;&gt;AtftTextModule </title>
<path fill="none" stroke="#000000" stroke-dasharray="5,2" d="M849.222,-179C780.4451,-179 676.875,-179 676.875,-179 676.875,-179 676.875,-205.9909 676.875,-205.9909"/>
<polygon fill="#000000" stroke="#000000" points="673.3751,-205.9909 676.875,-215.9909 680.3751,-205.991 673.3751,-205.9909"/>
</g>
<!-- SceneComponent  -->
<g id="node16" class="node">
<title>SceneComponent </title>
<polygon fill="#fb8072" stroke="#000000" points="564.2591,-252 445.7409,-252 445.7409,-216 564.2591,-216 564.2591,-252"/>
<text text-anchor="middle" x="505" y="-229.8" font-family="Times,serif" font-size="14.00" fill="#000000">SceneComponent </text>
</g>
<!-- AtftObjectModule&#45;&gt;SceneComponent  -->
<g id="edge15" class="edge">
<title>AtftObjectModule&#45;&gt;SceneComponent </title>
<path fill="none" stroke="#000000" stroke-dasharray="5,2" d="M849.2532,-175C745.3201,-175 542.2143,-175 542.2143,-175 542.2143,-175 542.2143,-205.9775 542.2143,-205.9775"/>
<polygon fill="#000000" stroke="#000000" points="538.7144,-205.9774 542.2143,-215.9775 545.7144,-205.9775 538.7144,-205.9774"/>
</g>
<!-- AtftConnectorModule -->
<g id="node4" class="node">
<title>AtftConnectorModule</title>
<polygon fill="#8dd3c7" stroke="#000000" points="1464.4158,-122 1461.4158,-126 1440.4158,-126 1437.4158,-122 1323.5842,-122 1323.5842,-86 1464.4158,-86 1464.4158,-122"/>
<text text-anchor="middle" x="1394" y="-99.8" font-family="Times,serif" font-size="14.00" fill="#000000">AtftConnectorModule</text>
</g>
<!-- AtftConnectorModule&#45;&gt;AtftObjectModule -->
<g id="edge3" class="edge">
<title>AtftConnectorModule&#45;&gt;AtftObjectModule</title>
<path fill="none" stroke="#000000" d="M1366.875,-122.0225C1366.875,-139.3734 1366.875,-163 1366.875,-163 1366.875,-163 978.8592,-163 978.8592,-163"/>
<polygon fill="#000000" stroke="#000000" points="978.8592,-159.5001 968.8592,-163 978.8591,-166.5001 978.8592,-159.5001"/>
</g>
<!-- AtftHelperModule -->
<g id="node5" class="node">
<title>AtftHelperModule</title>
<polygon fill="#8dd3c7" stroke="#000000" points="1306.1853,-122 1303.1853,-126 1282.1853,-126 1279.1853,-122 1185.8147,-122 1185.8147,-86 1306.1853,-86 1306.1853,-122"/>
<text text-anchor="middle" x="1246" y="-99.8" font-family="Times,serif" font-size="14.00" fill="#000000">AtftHelperModule</text>
</g>
<!-- AtftHelperModule&#45;&gt;AtftObjectModule -->
<g id="edge4" class="edge">
<title>AtftHelperModule&#45;&gt;AtftObjectModule</title>
<path fill="none" stroke="#000000" d="M1216.875,-122.0091C1216.875,-138.0494 1216.875,-159 1216.875,-159 1216.875,-159 978.7264,-159 978.7264,-159"/>
<polygon fill="#000000" stroke="#000000" points="978.7265,-155.5001 968.7264,-159 978.7264,-162.5001 978.7265,-155.5001"/>
</g>
<!-- AtftLightModule -->
<g id="node6" class="node">
<title>AtftLightModule</title>
<polygon fill="#8dd3c7" stroke="#000000" points="1168.4328,-122 1165.4328,-126 1144.4328,-126 1141.4328,-122 1055.5672,-122 1055.5672,-86 1168.4328,-86 1168.4328,-122"/>
<text text-anchor="middle" x="1112" y="-99.8" font-family="Times,serif" font-size="14.00" fill="#000000">AtftLightModule</text>
</g>
<!-- AtftLightModule&#45;&gt;AtftObjectModule -->
<g id="edge5" class="edge">
<title>AtftLightModule&#45;&gt;AtftObjectModule</title>
<path fill="none" stroke="#000000" d="M1080.875,-122.1243C1080.875,-136.7832 1080.875,-155 1080.875,-155 1080.875,-155 979.1135,-155 979.1135,-155"/>
<polygon fill="#000000" stroke="#000000" points="979.1136,-151.5001 969.1135,-155 979.1135,-158.5001 979.1136,-151.5001"/>
</g>
<!-- AtftLoaderModule -->
<g id="node7" class="node">
<title>AtftLoaderModule</title>
<polygon fill="#8dd3c7" stroke="#000000" points="1037.7409,-122 1034.7409,-126 1013.7409,-126 1010.7409,-122 916.2591,-122 916.2591,-86 1037.7409,-86 1037.7409,-122"/>
<text text-anchor="middle" x="977" y="-99.8" font-family="Times,serif" font-size="14.00" fill="#000000">AtftLoaderModule</text>
</g>
<!-- AtftLoaderModule&#45;&gt;AtftObjectModule -->
<g id="edge6" class="edge">
<title>AtftLoaderModule&#45;&gt;AtftObjectModule</title>
<path fill="none" stroke="#000000" d="M942.4187,-122.1061C942.4187,-122.1061 942.4187,-140.991 942.4187,-140.991"/>
<polygon fill="#000000" stroke="#000000" points="938.9187,-140.9909 942.4187,-150.991 945.9187,-140.991 938.9187,-140.9909"/>
</g>
<!-- AtftMeshModule -->
<g id="node8" class="node">
<title>AtftMeshModule</title>
<polygon fill="#8dd3c7" stroke="#000000" points="898.7022,-122 895.7022,-126 874.7022,-126 871.7022,-122 785.2978,-122 785.2978,-86 898.7022,-86 898.7022,-122"/>
<text text-anchor="middle" x="842" y="-99.8" font-family="Times,serif" font-size="14.00" fill="#000000">AtftMeshModule</text>
</g>
<!-- AtftMeshModule&#45;&gt;AtftObjectModule -->
<g id="edge7" class="edge">
<title>AtftMeshModule&#45;&gt;AtftObjectModule</title>
<path fill="none" stroke="#000000" d="M873.9467,-122.1061C873.9467,-122.1061 873.9467,-140.991 873.9467,-140.991"/>
<polygon fill="#000000" stroke="#000000" points="870.4468,-140.9909 873.9467,-150.991 877.4468,-140.991 870.4468,-140.9909"/>
</g>
<!-- AtftTextModule -->
<g id="node9" class="node">
<title>AtftTextModule</title>
<polygon fill="#8dd3c7" stroke="#000000" points="767.7563,-122 764.7563,-126 743.7563,-126 740.7563,-122 660.2437,-122 660.2437,-86 767.7563,-86 767.7563,-122"/>
<text text-anchor="middle" x="714" y="-99.8" font-family="Times,serif" font-size="14.00" fill="#000000">AtftTextModule</text>
</g>
<!-- AtftTextModule&#45;&gt;AtftObjectModule -->
<g id="edge8" class="edge">
<title>AtftTextModule&#45;&gt;AtftObjectModule</title>
<path fill="none" stroke="#000000" d="M739.7635,-122.1243C739.7635,-136.7832 739.7635,-155 739.7635,-155 739.7635,-155 838.857,-155 838.857,-155"/>
<polygon fill="#000000" stroke="#000000" points="838.8571,-158.5001 848.857,-155 838.857,-151.5001 838.8571,-158.5001"/>
</g>
<!-- FontService -->
<g id="node17" class="node">
<title>FontService</title>
<ellipse fill="#fdb462" stroke="#000000" cx="578" cy="-104" rx="57.9023" ry="18"/>
<text text-anchor="middle" x="578" y="-99.8" font-family="Times,serif" font-size="14.00" fill="#000000">FontService</text>
</g>
<!-- FontService&#45;&gt;AtftObjectModule -->
<g id="edge16" class="edge">
<title>FontService&#45;&gt;AtftObjectModule</title>
<path fill="none" stroke="#000000" d="M609.0364,-119.3206C609.0364,-135.5946 609.0364,-159 609.0364,-159 609.0364,-159 839.0188,-159 839.0188,-159"/>
<polygon fill="#000000" stroke="#000000" points="839.0189,-162.5001 849.0188,-159 839.0188,-155.5001 839.0189,-162.5001"/>
</g>
<!-- IconService -->
<g id="node18" class="node">
<title>IconService</title>
<ellipse fill="#fdb462" stroke="#000000" cx="445" cy="-104" rx="57.3011" ry="18"/>
<text text-anchor="middle" x="445" y="-99.8" font-family="Times,serif" font-size="14.00" fill="#000000">IconService</text>
</g>
<!-- IconService&#45;&gt;AtftObjectModule -->
<g id="edge17" class="edge">
<title>IconService&#45;&gt;AtftObjectModule</title>
<path fill="none" stroke="#000000" d="M474.0105,-119.8109C474.0105,-137.2874 474.0105,-163 474.0105,-163 474.0105,-163 838.9733,-163 838.9733,-163"/>
<polygon fill="#000000" stroke="#000000" points="838.9733,-166.5001 848.9733,-163 838.9732,-159.5001 838.9733,-166.5001"/>
</g>
<!-- ObjLoaderService -->
<g id="node19" class="node">
<title>ObjLoaderService</title>
<ellipse fill="#fdb462" stroke="#000000" cx="288" cy="-104" rx="81.6404" ry="18"/>
<text text-anchor="middle" x="288" y="-99.8" font-family="Times,serif" font-size="14.00" fill="#000000">ObjLoaderService</text>
</g>
<!-- ObjLoaderService&#45;&gt;AtftObjectModule -->
<g id="edge18" class="edge">
<title>ObjLoaderService&#45;&gt;AtftObjectModule</title>
<path fill="none" stroke="#000000" d="M288,-122.2222C288,-140.8285 288,-167 288,-167 288,-167 839.1741,-167 839.1741,-167"/>
<polygon fill="#000000" stroke="#000000" points="839.1741,-170.5001 849.1741,-167 839.174,-163.5001 839.1741,-170.5001"/>
</g>
<!-- SvgLoaderService -->
<g id="node20" class="node">
<title>SvgLoaderService</title>
<ellipse fill="#fdb462" stroke="#000000" cx="106" cy="-104" rx="82.2237" ry="18"/>
<text text-anchor="middle" x="106" y="-99.8" font-family="Times,serif" font-size="14.00" fill="#000000">SvgLoaderService</text>
</g>
<!-- SvgLoaderService&#45;&gt;AtftObjectModule -->
<g id="edge19" class="edge">
<title>SvgLoaderService&#45;&gt;AtftObjectModule</title>
<path fill="none" stroke="#000000" d="M106,-122.308C106,-142.1455 106,-171 106,-171 106,-171 838.9729,-171 838.9729,-171"/>
<polygon fill="#000000" stroke="#000000" points="838.9729,-174.5001 848.9729,-171 838.9729,-167.5001 838.9729,-174.5001"/>
</g>
</g>
</svg>
