<?xml version="1.0" encoding="UTF-8" standalone="no"?>
<!DOCTYPE svg PUBLIC "-//W3C//DTD SVG 1.1//EN"
 "http://www.w3.org/Graphics/SVG/1.1/DTD/svg11.dtd">
<!-- Generated by graphviz version 2.47.0 (20210316.0004)
 -->
<!-- Title: dependencies Pages: 1 -->
<svg width="1984pt" height="284pt"
 viewBox="0.00 0.00 1984.00 284.00" xmlns="http://www.w3.org/2000/svg" xmlns:xlink="http://www.w3.org/1999/xlink">
<g id="graph0" class="graph" transform="scale(1 1) rotate(0) translate(4 280)">
<title>dependencies</title>
<polygon fill="white" stroke="transparent" points="-4,4 -4,-280 1980,-280 1980,4 -4,4"/>
<text text-anchor="start" x="967.01" y="-42.4" font-family="Times-12" font-weight="bold" font-size="14.00">Legend</text>
<polygon fill="#ffffb3" stroke="transparent" points="754,-10 754,-30 774,-30 774,-10 754,-10"/>
<text text-anchor="start" x="777.63" y="-15.4" font-family="Times-12" font-size="14.00"> &#160;Declarations</text>
<polygon fill="#8dd3c7" stroke="transparent" points="867,-10 867,-30 887,-30 887,-10 867,-10"/>
<text text-anchor="start" x="890.73" y="-15.4" font-family="Times-12" font-size="14.00"> &#160;Module</text>
<polygon fill="#80b1d3" stroke="transparent" points="953,-10 953,-30 973,-30 973,-10 953,-10"/>
<text text-anchor="start" x="976.78" y="-15.4" font-family="Times-12" font-size="14.00"> &#160;Bootstrap</text>
<polygon fill="#fdb462" stroke="transparent" points="1050,-10 1050,-30 1070,-30 1070,-10 1050,-10"/>
<text text-anchor="start" x="1073.67" y="-15.4" font-family="Times-12" font-size="14.00"> &#160;Providers</text>
<polygon fill="#fb8072" stroke="transparent" points="1146,-10 1146,-30 1166,-30 1166,-10 1146,-10"/>
<text text-anchor="start" x="1169.73" y="-15.4" font-family="Times-12" font-size="14.00"> &#160;Exports</text>
<g id="clust1" class="cluster">
<title>cluster_AtftObjectModule</title>
<polygon fill="none" stroke="black" stroke-dasharray="1,5" points="8,-70 8,-268 1968,-268 1968,-70 8,-70"/>
</g>
<g id="clust8" class="cluster">
<title>cluster_AtftObjectModule_providers</title>
<polygon fill="none" stroke="black" points="1184,-78 1184,-130 1960,-130 1960,-78 1184,-78"/>
</g>
<g id="clust2" class="cluster">
<title>cluster_AtftObjectModule_declarations</title>
<polygon fill="none" stroke="black" points="844,-78 844,-130 1176,-130 1176,-78 844,-78"/>
</g>
<g id="clust5" class="cluster">
<title>cluster_AtftObjectModule_imports</title>
<polygon fill="none" stroke="black" points="16,-78 16,-130 836,-130 836,-78 16,-78"/>
</g>
<g id="clust6" class="cluster">
<title>cluster_AtftObjectModule_exports</title>
<polygon fill="none" stroke="black" points="438,-208 438,-260 1418,-260 1418,-208 438,-208"/>
</g>
<!-- ContentProjectionComponent -->
<g id="node1" class="node">
<title>ContentProjectionComponent</title>
<polygon fill="#ffffb3" stroke="black" points="1167.71,-122 984.29,-122 984.29,-86 1167.71,-86 1167.71,-122"/>
<text text-anchor="middle" x="1076" y="-99.8" font-family="Times,serif" font-size="14.00">ContentProjectionComponent</text>
</g>
<!-- AtftObjectModule -->
<g id="node3" class="node">
<title>AtftObjectModule</title>
<polygon fill="#8dd3c7" stroke="black" points="968.92,-187 965.92,-191 944.92,-191 941.92,-187 849.08,-187 849.08,-151 968.92,-151 968.92,-187"/>
<text text-anchor="middle" x="909" y="-164.8" font-family="Times,serif" font-size="14.00">AtftObjectModule</text>
</g>
<!-- ContentProjectionComponent&#45;&gt;AtftObjectModule -->
<g id="edge1" class="edge">
<title>ContentProjectionComponent&#45;&gt;AtftObjectModule</title>
<path fill="none" stroke="black" d="M1028.68,-122.12C1028.68,-136.78 1028.68,-155 1028.68,-155 1028.68,-155 978.84,-155 978.84,-155"/>
<polygon fill="black" stroke="black" points="978.84,-151.5 968.84,-155 978.84,-158.5 978.84,-151.5"/>
</g>
<!-- SceneComponent -->
<g id="node2" class="node">
<title>SceneComponent</title>
<polygon fill="#ffffb3" stroke="black" points="966.26,-122 851.74,-122 851.74,-86 966.26,-86 966.26,-122"/>
<text text-anchor="middle" x="909" y="-99.8" font-family="Times,serif" font-size="14.00">SceneComponent</text>
</g>
<!-- SceneComponent&#45;&gt;AtftObjectModule -->
<g id="edge2" class="edge">
<title>SceneComponent&#45;&gt;AtftObjectModule</title>
<path fill="none" stroke="black" d="M909,-122.11C909,-122.11 909,-140.99 909,-140.99"/>
<polygon fill="black" stroke="black" points="905.5,-140.99 909,-150.99 912.5,-140.99 905.5,-140.99"/>
</g>
<!-- AtftConnectorModule  -->
<g id="node10" class="node">
<title>AtftConnectorModule </title>
<polygon fill="#fb8072" stroke="black" points="1409.92,-252 1266.08,-252 1266.08,-216 1409.92,-216 1409.92,-252"/>
<text text-anchor="middle" x="1338" y="-229.8" font-family="Times,serif" font-size="14.00">AtftConnectorModule </text>
</g>
<!-- AtftObjectModule&#45;&gt;AtftConnectorModule  -->
<g id="edge9" class="edge">
<title>AtftObjectModule&#45;&gt;AtftConnectorModule </title>
<path fill="none" stroke="black" stroke-dasharray="5,2" d="M968.78,-177C1080.82,-177 1311.2,-177 1311.2,-177 1311.2,-177 1311.2,-205.96 1311.2,-205.96"/>
<polygon fill="black" stroke="black" points="1307.7,-205.96 1311.2,-215.96 1314.7,-205.96 1307.7,-205.96"/>
</g>
<!-- AtftHelperModule  -->
<g id="node11" class="node">
<title>AtftHelperModule </title>
<polygon fill="#fb8072" stroke="black" points="1247.69,-252 1124.31,-252 1124.31,-216 1247.69,-216 1247.69,-252"/>
<text text-anchor="middle" x="1186" y="-229.8" font-family="Times,serif" font-size="14.00">AtftHelperModule </text>
</g>
<!-- AtftObjectModule&#45;&gt;AtftHelperModule  -->
<g id="edge10" class="edge">
<title>AtftObjectModule&#45;&gt;AtftHelperModule </title>
<path fill="none" stroke="black" stroke-dasharray="5,2" d="M968.78,-180C1038.95,-180 1145.88,-180 1145.88,-180 1145.88,-180 1145.88,-205.72 1145.88,-205.72"/>
<polygon fill="black" stroke="black" points="1142.38,-205.72 1145.88,-215.72 1149.38,-205.72 1142.38,-205.72"/>
</g>
<!-- AtftLightModule  -->
<g id="node12" class="node">
<title>AtftLightModule </title>
<polygon fill="#fb8072" stroke="black" points="1105.93,-252 990.07,-252 990.07,-216 1105.93,-216 1105.93,-252"/>
<text text-anchor="middle" x="1048" y="-229.8" font-family="Times,serif" font-size="14.00">AtftLightModule </text>
</g>
<!-- AtftObjectModule&#45;&gt;AtftLightModule  -->
<g id="edge11" class="edge">
<title>AtftObjectModule&#45;&gt;AtftLightModule </title>
<path fill="none" stroke="black" stroke-dasharray="5,2" d="M968.85,-184C1013.69,-184 1067.32,-184 1067.32,-184 1067.32,-184 1067.32,-205.95 1067.32,-205.95"/>
<polygon fill="black" stroke="black" points="1063.82,-205.95 1067.32,-215.95 1070.82,-205.95 1063.82,-205.95"/>
</g>
<!-- AtftLoaderModule  -->
<g id="node13" class="node">
<title>AtftLoaderModule </title>
<polygon fill="#fb8072" stroke="black" points="971.74,-252 846.26,-252 846.26,-216 971.74,-216 971.74,-252"/>
<text text-anchor="middle" x="909" y="-229.8" font-family="Times,serif" font-size="14.00">AtftLoaderModule </text>
</g>
<!-- AtftObjectModule&#45;&gt;AtftLoaderModule  -->
<g id="edge12" class="edge">
<title>AtftObjectModule&#45;&gt;AtftLoaderModule </title>
<path fill="none" stroke="black" stroke-dasharray="5,2" d="M909,-187.11C909,-187.11 909,-205.99 909,-205.99"/>
<polygon fill="black" stroke="black" points="905.5,-205.99 909,-215.99 912.5,-205.99 905.5,-205.99"/>
</g>
<!-- AtftMeshModule  -->
<g id="node14" class="node">
<title>AtftMeshModule </title>
<polygon fill="#fb8072" stroke="black" points="828.2,-252 711.8,-252 711.8,-216 828.2,-216 828.2,-252"/>
<text text-anchor="middle" x="770" y="-229.8" font-family="Times,serif" font-size="14.00">AtftMeshModule </text>
</g>
<!-- AtftObjectModule&#45;&gt;AtftMeshModule  -->
<g id="edge13" class="edge">
<title>AtftObjectModule&#45;&gt;AtftMeshModule </title>
<path fill="none" stroke="black" stroke-dasharray="5,2" d="M849.18,-184C819.27,-184 789.35,-184 789.35,-184 789.35,-184 789.35,-205.95 789.35,-205.95"/>
<polygon fill="black" stroke="black" points="785.85,-205.95 789.35,-215.95 792.85,-205.95 785.85,-205.95"/>
</g>
<!-- AtftTextModule  -->
<g id="node15" class="node">
<title>AtftTextModule </title>
<polygon fill="#fb8072" stroke="black" points="693.76,-252 582.24,-252 582.24,-216 693.76,-216 693.76,-252"/>
<text text-anchor="middle" x="638" y="-229.8" font-family="Times,serif" font-size="14.00">AtftTextModule </text>
</g>
<!-- AtftObjectModule&#45;&gt;AtftTextModule  -->
<g id="edge14" class="edge">
<title>AtftObjectModule&#45;&gt;AtftTextModule </title>
<path fill="none" stroke="black" stroke-dasharray="5,2" d="M849.16,-180C780.99,-180 678.94,-180 678.94,-180 678.94,-180 678.94,-205.72 678.94,-205.72"/>
<polygon fill="black" stroke="black" points="675.44,-205.72 678.94,-215.72 682.44,-205.72 675.44,-205.72"/>
</g>
<!-- SceneComponent  -->
<g id="node16" class="node">
<title>SceneComponent </title>
<polygon fill="#fb8072" stroke="black" points="564.26,-252 445.74,-252 445.74,-216 564.26,-216 564.26,-252"/>
<text text-anchor="middle" x="505" y="-229.8" font-family="Times,serif" font-size="14.00">SceneComponent </text>
</g>
<!-- AtftObjectModule&#45;&gt;SceneComponent  -->
<g id="edge15" class="edge">
<title>AtftObjectModule&#45;&gt;SceneComponent </title>
<path fill="none" stroke="black" stroke-dasharray="5,2" d="M849.29,-177C748.87,-177 557.02,-177 557.02,-177 557.02,-177 557.02,-205.96 557.02,-205.96"/>
<polygon fill="black" stroke="black" points="553.52,-205.96 557.02,-215.96 560.52,-205.96 553.52,-205.96"/>
</g>
<!-- AtftConnectorModule -->
<g id="node4" class="node">
<title>AtftConnectorModule</title>
<polygon fill="#8dd3c7" stroke="black" points="828.42,-122 825.42,-126 804.42,-126 801.42,-122 687.58,-122 687.58,-86 828.42,-86 828.42,-122"/>
<text text-anchor="middle" x="758" y="-99.8" font-family="Times,serif" font-size="14.00">AtftConnectorModule</text>
</g>
<!-- AtftConnectorModule&#45;&gt;AtftObjectModule -->
<g id="edge3" class="edge">
<title>AtftConnectorModule&#45;&gt;AtftObjectModule</title>
<path fill="none" stroke="black" d="M750.5,-122.12C750.5,-136.78 750.5,-155 750.5,-155 750.5,-155 839.08,-155 839.08,-155"/>
<polygon fill="black" stroke="black" points="839.08,-158.5 849.08,-155 839.08,-151.5 839.08,-158.5"/>
</g>
<!-- AtftHelperModule -->
<g id="node5" class="node">
<title>AtftHelperModule</title>
<polygon fill="#8dd3c7" stroke="black" points="670.19,-122 667.19,-126 646.19,-126 643.19,-122 549.81,-122 549.81,-86 670.19,-86 670.19,-122"/>
<text text-anchor="middle" x="610" y="-99.8" font-family="Times,serif" font-size="14.00">AtftHelperModule</text>
</g>
<!-- AtftHelperModule&#45;&gt;AtftObjectModule -->
<g id="edge4" class="edge">
<title>AtftHelperModule&#45;&gt;AtftObjectModule</title>
<path fill="none" stroke="black" d="M626.23,-122.01C626.23,-138.05 626.23,-159 626.23,-159 626.23,-159 839.03,-159 839.03,-159"/>
<polygon fill="black" stroke="black" points="839.03,-162.5 849.03,-159 839.03,-155.5 839.03,-162.5"/>
</g>
<!-- AtftLightModule -->
<g id="node6" class="node">
<title>AtftLightModule</title>
<polygon fill="#8dd3c7" stroke="black" points="532.43,-122 529.43,-126 508.43,-126 505.43,-122 419.57,-122 419.57,-86 532.43,-86 532.43,-122"/>
<text text-anchor="middle" x="476" y="-99.8" font-family="Times,serif" font-size="14.00">AtftLightModule</text>
</g>
<!-- AtftLightModule&#45;&gt;AtftObjectModule -->
<g id="edge5" class="edge">
<title>AtftLightModule&#45;&gt;AtftObjectModule</title>
<path fill="none" stroke="black" d="M489.04,-122.03C489.04,-139.06 489.04,-162 489.04,-162 489.04,-162 839.28,-162 839.28,-162"/>
<polygon fill="black" stroke="black" points="839.28,-165.5 849.28,-162 839.28,-158.5 839.28,-165.5"/>
</g>
<!-- AtftLoaderModule -->
<g id="node7" class="node">
<title>AtftLoaderModule</title>
<polygon fill="#8dd3c7" stroke="black" points="401.74,-122 398.74,-126 377.74,-126 374.74,-122 280.26,-122 280.26,-86 401.74,-86 401.74,-122"/>
<text text-anchor="middle" x="341" y="-99.8" font-family="Times,serif" font-size="14.00">AtftLoaderModule</text>
</g>
<!-- AtftLoaderModule&#45;&gt;AtftObjectModule -->
<g id="edge6" class="edge">
<title>AtftLoaderModule&#45;&gt;AtftObjectModule</title>
<path fill="none" stroke="black" d="M341,-122.27C341,-140.56 341,-166 341,-166 341,-166 839.29,-166 839.29,-166"/>
<polygon fill="black" stroke="black" points="839.29,-169.5 849.29,-166 839.29,-162.5 839.29,-169.5"/>
</g>
<!-- AtftMeshModule -->
<g id="node8" class="node">
<title>AtftMeshModule</title>
<polygon fill="#8dd3c7" stroke="black" points="262.7,-122 259.7,-126 238.7,-126 235.7,-122 149.3,-122 149.3,-86 262.7,-86 262.7,-122"/>
<text text-anchor="middle" x="206" y="-99.8" font-family="Times,serif" font-size="14.00">AtftMeshModule</text>
</g>
<!-- AtftMeshModule&#45;&gt;AtftObjectModule -->
<g id="edge7" class="edge">
<title>AtftMeshModule&#45;&gt;AtftObjectModule</title>
<path fill="none" stroke="black" d="M206,-122.11C206,-141.34 206,-169 206,-169 206,-169 839.06,-169 839.06,-169"/>
<polygon fill="black" stroke="black" points="839.06,-172.5 849.06,-169 839.06,-165.5 839.06,-172.5"/>
</g>
<!-- AtftTextModule -->
<g id="node9" class="node">
<title>AtftTextModule</title>
<polygon fill="#8dd3c7" stroke="black" points="131.76,-122 128.76,-126 107.76,-126 104.76,-122 24.24,-122 24.24,-86 131.76,-86 131.76,-122"/>
<text text-anchor="middle" x="78" y="-99.8" font-family="Times,serif" font-size="14.00">AtftTextModule</text>
</g>
<!-- AtftTextModule&#45;&gt;AtftObjectModule -->
<g id="edge8" class="edge">
<title>AtftTextModule&#45;&gt;AtftObjectModule</title>
<path fill="none" stroke="black" d="M78,-122.13C78,-142.57 78,-173 78,-173 78,-173 839.24,-173 839.24,-173"/>
<polygon fill="black" stroke="black" points="839.24,-176.5 849.24,-173 839.24,-169.5 839.24,-176.5"/>
</g>
<!-- FontService -->
<g id="node17" class="node">
<title>FontService</title>
<ellipse fill="#fdb462" stroke="black" cx="1894" cy="-104" rx="57.9" ry="18"/>
<text text-anchor="middle" x="1894" y="-99.8" font-family="Times,serif" font-size="14.00">FontService</text>
</g>
<!-- FontService&#45;&gt;AtftObjectModule -->
<g id="edge16" class="edge">
<title>FontService&#45;&gt;AtftObjectModule</title>
<path fill="none" stroke="black" d="M1894,-122.13C1894,-142.57 1894,-173 1894,-173 1894,-173 978.77,-173 978.77,-173"/>
<polygon fill="black" stroke="black" points="978.77,-169.5 968.77,-173 978.77,-176.5 978.77,-169.5"/>
</g>
<!-- IconService -->
<g id="node18" class="node">
<title>IconService</title>
<ellipse fill="#fdb462" stroke="black" cx="1761" cy="-104" rx="57.3" ry="18"/>
<text text-anchor="middle" x="1761" y="-99.8" font-family="Times,serif" font-size="14.00">IconService</text>
</g>
<!-- IconService&#45;&gt;AtftObjectModule -->
<g id="edge17" class="edge">
<title>IconService&#45;&gt;AtftObjectModule</title>
<path fill="none" stroke="black" d="M1761,-122.11C1761,-141.34 1761,-169 1761,-169 1761,-169 978.91,-169 978.91,-169"/>
<polygon fill="black" stroke="black" points="978.91,-165.5 968.91,-169 978.91,-172.5 978.91,-165.5"/>
</g>
<!-- ModelService -->
<g id="node19" class="node">
<title>ModelService</title>
<ellipse fill="#fdb462" stroke="black" cx="1621" cy="-104" rx="65.41" ry="18"/>
<text text-anchor="middle" x="1621" y="-99.8" font-family="Times,serif" font-size="14.00">ModelService</text>
</g>
<!-- ModelService&#45;&gt;AtftObjectModule -->
<g id="edge18" class="edge">
<title>ModelService&#45;&gt;AtftObjectModule</title>
<path fill="none" stroke="black" d="M1621,-122.27C1621,-140.56 1621,-166 1621,-166 1621,-166 978.79,-166 978.79,-166"/>
<polygon fill="black" stroke="black" points="978.79,-162.5 968.79,-166 978.79,-169.5 978.79,-162.5"/>
</g>
<!-- ObjLoaderService -->
<g id="node20" class="node">
<title>ObjLoaderService</title>
<ellipse fill="#fdb462" stroke="black" cx="1456" cy="-104" rx="81.64" ry="18"/>
<text text-anchor="middle" x="1456" y="-99.8" font-family="Times,serif" font-size="14.00">ObjLoaderService</text>
</g>
<!-- ObjLoaderService&#45;&gt;AtftObjectModule -->
<g id="edge19" class="edge">
<title>ObjLoaderService&#45;&gt;AtftObjectModule</title>
<path fill="none" stroke="black" d="M1392.07,-115.46C1392.07,-132.36 1392.07,-162 1392.07,-162 1392.07,-162 978.72,-162 978.72,-162"/>
<polygon fill="black" stroke="black" points="978.72,-158.5 968.72,-162 978.72,-165.5 978.72,-158.5"/>
</g>
<!-- SvgLoaderService -->
<g id="node21" class="node">
<title>SvgLoaderService</title>
<ellipse fill="#fdb462" stroke="black" cx="1274" cy="-104" rx="82.22" ry="18"/>
<text text-anchor="middle" x="1274" y="-99.8" font-family="Times,serif" font-size="14.00">SvgLoaderService</text>
</g>
<!-- SvgLoaderService&#45;&gt;AtftObjectModule -->
<g id="edge20" class="edge">
<title>SvgLoaderService&#45;&gt;AtftObjectModule</title>
<path fill="none" stroke="black" d="M1219.74,-117.6C1219.74,-133.88 1219.74,-159 1219.74,-159 1219.74,-159 978.91,-159 978.91,-159"/>
<polygon fill="black" stroke="black" points="978.91,-155.5 968.91,-159 978.91,-162.5 978.91,-155.5"/>
</g>
</g>
</svg>
