<?xml version="1.0" encoding="UTF-8" standalone="no"?>
<!DOCTYPE svg PUBLIC "-//W3C//DTD SVG 1.1//EN"
 "http://www.w3.org/Graphics/SVG/1.1/DTD/svg11.dtd">
<!-- Generated by graphviz version 2.47.0 (20210316.0004)
 -->
<!-- Title: dependencies Pages: 1 -->
<svg width="1984pt" height="284pt"
 viewBox="0.00 0.00 1984.00 284.00" xmlns="http://www.w3.org/2000/svg" xmlns:xlink="http://www.w3.org/1999/xlink">
<g id="graph0" class="graph" transform="scale(1 1) rotate(0) translate(4 280)">
<title>dependencies</title>
<polygon fill="white" stroke="transparent" points="-4,4 -4,-280 1980,-280 1980,4 -4,4"/>
<text text-anchor="start" x="967.01" y="-42.4" font-family="Times-12" font-weight="bold" font-size="14.00">Legend</text>
<polygon fill="#ffffb3" stroke="transparent" points="754,-10 754,-30 774,-30 774,-10 754,-10"/>
<text text-anchor="start" x="777.63" y="-15.4" font-family="Times-12" font-size="14.00"> &#160;Declarations</text>
<polygon fill="#8dd3c7" stroke="transparent" points="867,-10 867,-30 887,-30 887,-10 867,-10"/>
<text text-anchor="start" x="890.73" y="-15.4" font-family="Times-12" font-size="14.00"> &#160;Module</text>
<polygon fill="#80b1d3" stroke="transparent" points="953,-10 953,-30 973,-30 973,-10 953,-10"/>
<text text-anchor="start" x="976.78" y="-15.4" font-family="Times-12" font-size="14.00"> &#160;Bootstrap</text>
<polygon fill="#fdb462" stroke="transparent" points="1050,-10 1050,-30 1070,-30 1070,-10 1050,-10"/>
<text text-anchor="start" x="1073.67" y="-15.4" font-family="Times-12" font-size="14.00"> &#160;Providers</text>
<polygon fill="#fb8072" stroke="transparent" points="1146,-10 1146,-30 1166,-30 1166,-10 1146,-10"/>
<text text-anchor="start" x="1169.73" y="-15.4" font-family="Times-12" font-size="14.00"> &#160;Exports</text>
<g id="clust1" class="cluster">
<title>cluster_AtftObjectModule</title>
<polygon fill="none" stroke="black" stroke-dasharray="1,5" points="8,-70 8,-268 1968,-268 1968,-70 8,-70"/>
</g>
<g id="clust2" class="cluster">
<title>cluster_AtftObjectModule_declarations</title>
<polygon fill="none" stroke="black" points="1628,-78 1628,-130 1960,-130 1960,-78 1628,-78"/>
</g>
<g id="clust6" class="cluster">
<title>cluster_AtftObjectModule_exports</title>
<polygon fill="none" stroke="black" points="519,-208 519,-260 1499,-260 1499,-208 519,-208"/>
</g>
<g id="clust5" class="cluster">
<title>cluster_AtftObjectModule_imports</title>
<polygon fill="none" stroke="black" points="800,-78 800,-130 1620,-130 1620,-78 800,-78"/>
</g>
<g id="clust8" class="cluster">
<title>cluster_AtftObjectModule_providers</title>
<polygon fill="none" stroke="black" points="16,-78 16,-130 792,-130 792,-78 16,-78"/>
</g>
<!-- ContentProjectionComponent -->
<g id="node1" class="node">
<title>ContentProjectionComponent</title>
<polygon fill="#ffffb3" stroke="black" points="1951.71,-122 1768.29,-122 1768.29,-86 1951.71,-86 1951.71,-122"/>
<text text-anchor="middle" x="1860" y="-99.8" font-family="Times,serif" font-size="14.00">ContentProjectionComponent</text>
</g>
<!-- AtftObjectModule -->
<g id="node3" class="node">
<title>AtftObjectModule</title>
<polygon fill="#8dd3c7" stroke="black" points="1049.92,-187 1046.92,-191 1025.92,-191 1022.92,-187 930.08,-187 930.08,-151 1049.92,-151 1049.92,-187"/>
<text text-anchor="middle" x="990" y="-164.8" font-family="Times,serif" font-size="14.00">AtftObjectModule</text>
</g>
<!-- ContentProjectionComponent&#45;&gt;AtftObjectModule -->
<g id="edge1" class="edge">
<title>ContentProjectionComponent&#45;&gt;AtftObjectModule</title>
<path fill="none" stroke="black" d="M1860,-122.13C1860,-142.57 1860,-173 1860,-173 1860,-173 1059.8,-173 1059.8,-173"/>
<polygon fill="black" stroke="black" points="1059.8,-169.5 1049.8,-173 1059.8,-176.5 1059.8,-169.5"/>
</g>
<!-- SceneComponent -->
<g id="node2" class="node">
<title>SceneComponent</title>
<polygon fill="#ffffb3" stroke="black" points="1750.26,-122 1635.74,-122 1635.74,-86 1750.26,-86 1750.26,-122"/>
<text text-anchor="middle" x="1693" y="-99.8" font-family="Times,serif" font-size="14.00">SceneComponent</text>
</g>
<!-- SceneComponent&#45;&gt;AtftObjectModule -->
<g id="edge2" class="edge">
<title>SceneComponent&#45;&gt;AtftObjectModule</title>
<path fill="none" stroke="black" d="M1693,-122.11C1693,-141.34 1693,-169 1693,-169 1693,-169 1059.94,-169 1059.94,-169"/>
<polygon fill="black" stroke="black" points="1059.94,-165.5 1049.94,-169 1059.94,-172.5 1059.94,-165.5"/>
</g>
<!-- AtftConnectorModule  -->
<g id="node10" class="node">
<title>AtftConnectorModule </title>
<polygon fill="#fb8072" stroke="black" points="1490.92,-252 1347.08,-252 1347.08,-216 1490.92,-216 1490.92,-252"/>
<text text-anchor="middle" x="1419" y="-229.8" font-family="Times,serif" font-size="14.00">AtftConnectorModule </text>
</g>
<!-- AtftObjectModule&#45;&gt;AtftConnectorModule  -->
<g id="edge9" class="edge">
<title>AtftObjectModule&#45;&gt;AtftConnectorModule </title>
<path fill="none" stroke="black" stroke-dasharray="5,2" d="M1050.14,-177C1164.18,-177 1400.57,-177 1400.57,-177 1400.57,-177 1400.57,-205.96 1400.57,-205.96"/>
<polygon fill="black" stroke="black" points="1397.07,-205.96 1400.57,-215.96 1404.07,-205.96 1397.07,-205.96"/>
</g>
<!-- AtftHelperModule  -->
<g id="node11" class="node">
<title>AtftHelperModule </title>
<polygon fill="#fb8072" stroke="black" points="1328.69,-252 1205.31,-252 1205.31,-216 1328.69,-216 1328.69,-252"/>
<text text-anchor="middle" x="1267" y="-229.8" font-family="Times,serif" font-size="14.00">AtftHelperModule </text>
</g>
<!-- AtftObjectModule&#45;&gt;AtftHelperModule  -->
<g id="edge10" class="edge">
<title>AtftObjectModule&#45;&gt;AtftHelperModule </title>
<path fill="none" stroke="black" stroke-dasharray="5,2" d="M1049.76,-180C1124.33,-180 1242.18,-180 1242.18,-180 1242.18,-180 1242.18,-205.72 1242.18,-205.72"/>
<polygon fill="black" stroke="black" points="1238.68,-205.72 1242.18,-215.72 1245.68,-205.72 1238.68,-205.72"/>
</g>
<!-- AtftLightModule  -->
<g id="node12" class="node">
<title>AtftLightModule </title>
<polygon fill="#fb8072" stroke="black" points="1186.93,-252 1071.07,-252 1071.07,-216 1186.93,-216 1186.93,-252"/>
<text text-anchor="middle" x="1129" y="-229.8" font-family="Times,serif" font-size="14.00">AtftLightModule </text>
</g>
<!-- AtftObjectModule&#45;&gt;AtftLightModule  -->
<g id="edge11" class="edge">
<title>AtftObjectModule&#45;&gt;AtftLightModule </title>
<path fill="none" stroke="black" stroke-dasharray="5,2" d="M1050.01,-184C1079.72,-184 1109.31,-184 1109.31,-184 1109.31,-184 1109.31,-205.95 1109.31,-205.95"/>
<polygon fill="black" stroke="black" points="1105.81,-205.95 1109.31,-215.95 1112.81,-205.95 1105.81,-205.95"/>
</g>
<!-- AtftLoaderModule  -->
<g id="node13" class="node">
<title>AtftLoaderModule </title>
<polygon fill="#fb8072" stroke="black" points="1052.74,-252 927.26,-252 927.26,-216 1052.74,-216 1052.74,-252"/>
<text text-anchor="middle" x="990" y="-229.8" font-family="Times,serif" font-size="14.00">AtftLoaderModule </text>
</g>
<!-- AtftObjectModule&#45;&gt;AtftLoaderModule  -->
<g id="edge12" class="edge">
<title>AtftObjectModule&#45;&gt;AtftLoaderModule </title>
<path fill="none" stroke="black" stroke-dasharray="5,2" d="M990,-187.11C990,-187.11 990,-205.99 990,-205.99"/>
<polygon fill="black" stroke="black" points="986.5,-205.99 990,-215.99 993.5,-205.99 986.5,-205.99"/>
</g>
<!-- AtftMeshModule  -->
<g id="node14" class="node">
<title>AtftMeshModule </title>
<polygon fill="#fb8072" stroke="black" points="909.2,-252 792.8,-252 792.8,-216 909.2,-216 909.2,-252"/>
<text text-anchor="middle" x="851" y="-229.8" font-family="Times,serif" font-size="14.00">AtftMeshModule </text>
</g>
<!-- AtftObjectModule&#45;&gt;AtftMeshModule  -->
<g id="edge13" class="edge">
<title>AtftObjectModule&#45;&gt;AtftMeshModule </title>
<path fill="none" stroke="black" stroke-dasharray="5,2" d="M930.17,-184C889.06,-184 841.87,-184 841.87,-184 841.87,-184 841.87,-205.95 841.87,-205.95"/>
<polygon fill="black" stroke="black" points="838.37,-205.95 841.87,-215.95 845.37,-205.95 838.37,-205.95"/>
</g>
<!-- AtftTextModule  -->
<g id="node15" class="node">
<title>AtftTextModule </title>
<polygon fill="#fb8072" stroke="black" points="774.76,-252 663.24,-252 663.24,-216 774.76,-216 774.76,-252"/>
<text text-anchor="middle" x="719" y="-229.8" font-family="Times,serif" font-size="14.00">AtftTextModule </text>
</g>
<!-- AtftObjectModule&#45;&gt;AtftTextModule  -->
<g id="edge14" class="edge">
<title>AtftObjectModule&#45;&gt;AtftTextModule </title>
<path fill="none" stroke="black" stroke-dasharray="5,2" d="M930.07,-180C850.93,-180 721.46,-180 721.46,-180 721.46,-180 721.46,-205.72 721.46,-205.72"/>
<polygon fill="black" stroke="black" points="717.96,-205.72 721.46,-215.72 724.96,-205.72 717.96,-205.72"/>
</g>
<!-- SceneComponent  -->
<g id="node16" class="node">
<title>SceneComponent </title>
<polygon fill="#fb8072" stroke="black" points="645.26,-252 526.74,-252 526.74,-216 645.26,-216 645.26,-252"/>
<text text-anchor="middle" x="586" y="-229.8" font-family="Times,serif" font-size="14.00">SceneComponent </text>
</g>
<!-- AtftObjectModule&#45;&gt;SceneComponent  -->
<g id="edge15" class="edge">
<title>AtftObjectModule&#45;&gt;SceneComponent </title>
<path fill="none" stroke="black" stroke-dasharray="5,2" d="M930.15,-177C814.65,-177 572.28,-177 572.28,-177 572.28,-177 572.28,-205.96 572.28,-205.96"/>
<polygon fill="black" stroke="black" points="568.78,-205.96 572.28,-215.96 575.78,-205.96 568.78,-205.96"/>
</g>
<!-- AtftConnectorModule -->
<g id="node4" class="node">
<title>AtftConnectorModule</title>
<polygon fill="#8dd3c7" stroke="black" points="1612.42,-122 1609.42,-126 1588.42,-126 1585.42,-122 1471.58,-122 1471.58,-86 1612.42,-86 1612.42,-122"/>
<text text-anchor="middle" x="1542" y="-99.8" font-family="Times,serif" font-size="14.00">AtftConnectorModule</text>
</g>
<!-- AtftConnectorModule&#45;&gt;AtftObjectModule -->
<g id="edge3" class="edge">
<title>AtftConnectorModule&#45;&gt;AtftObjectModule</title>
<path fill="none" stroke="black" d="M1481.38,-122.27C1481.38,-140.56 1481.38,-166 1481.38,-166 1481.38,-166 1059.76,-166 1059.76,-166"/>
<polygon fill="black" stroke="black" points="1059.76,-162.5 1049.76,-166 1059.76,-169.5 1059.76,-162.5"/>
</g>
<!-- AtftHelperModule -->
<g id="node5" class="node">
<title>AtftHelperModule</title>
<polygon fill="#8dd3c7" stroke="black" points="1454.19,-122 1451.19,-126 1430.19,-126 1427.19,-122 1333.81,-122 1333.81,-86 1454.19,-86 1454.19,-122"/>
<text text-anchor="middle" x="1394" y="-99.8" font-family="Times,serif" font-size="14.00">AtftHelperModule</text>
</g>
<!-- AtftHelperModule&#45;&gt;AtftObjectModule -->
<g id="edge4" class="edge">
<title>AtftHelperModule&#45;&gt;AtftObjectModule</title>
<path fill="none" stroke="black" d="M1340.47,-122.03C1340.47,-139.06 1340.47,-162 1340.47,-162 1340.47,-162 1059.85,-162 1059.85,-162"/>
<polygon fill="black" stroke="black" points="1059.85,-158.5 1049.85,-162 1059.85,-165.5 1059.85,-158.5"/>
</g>
<!-- AtftLightModule -->
<g id="node6" class="node">
<title>AtftLightModule</title>
<polygon fill="#8dd3c7" stroke="black" points="1316.43,-122 1313.43,-126 1292.43,-126 1289.43,-122 1203.57,-122 1203.57,-86 1316.43,-86 1316.43,-122"/>
<text text-anchor="middle" x="1260" y="-99.8" font-family="Times,serif" font-size="14.00">AtftLightModule</text>
</g>
<!-- AtftLightModule&#45;&gt;AtftObjectModule -->
<g id="edge5" class="edge">
<title>AtftLightModule&#45;&gt;AtftObjectModule</title>
<path fill="none" stroke="black" d="M1279.2,-122.01C1279.2,-138.05 1279.2,-159 1279.2,-159 1279.2,-159 1059.92,-159 1059.92,-159"/>
<polygon fill="black" stroke="black" points="1059.92,-155.5 1049.92,-159 1059.92,-162.5 1059.92,-155.5"/>
</g>
<!-- AtftLoaderModule -->
<g id="node7" class="node">
<title>AtftLoaderModule</title>
<polygon fill="#8dd3c7" stroke="black" points="1185.74,-122 1182.74,-126 1161.74,-126 1158.74,-122 1064.26,-122 1064.26,-86 1185.74,-86 1185.74,-122"/>
<text text-anchor="middle" x="1125" y="-99.8" font-family="Times,serif" font-size="14.00">AtftLoaderModule</text>
</g>
<!-- AtftLoaderModule&#45;&gt;AtftObjectModule -->
<g id="edge6" class="edge">
<title>AtftLoaderModule&#45;&gt;AtftObjectModule</title>
<path fill="none" stroke="black" d="M1147.59,-122.12C1147.59,-136.78 1147.59,-155 1147.59,-155 1147.59,-155 1060.03,-155 1060.03,-155"/>
<polygon fill="black" stroke="black" points="1060.03,-151.5 1050.03,-155 1060.03,-158.5 1060.03,-151.5"/>
</g>
<!-- AtftMeshModule -->
<g id="node8" class="node">
<title>AtftMeshModule</title>
<polygon fill="#8dd3c7" stroke="black" points="1046.7,-122 1043.7,-126 1022.7,-126 1019.7,-122 933.3,-122 933.3,-86 1046.7,-86 1046.7,-122"/>
<text text-anchor="middle" x="990" y="-99.8" font-family="Times,serif" font-size="14.00">AtftMeshModule</text>
</g>
<!-- AtftMeshModule&#45;&gt;AtftObjectModule -->
<g id="edge7" class="edge">
<title>AtftMeshModule&#45;&gt;AtftObjectModule</title>
<path fill="none" stroke="black" d="M990,-122.11C990,-122.11 990,-140.99 990,-140.99"/>
<polygon fill="black" stroke="black" points="986.5,-140.99 990,-150.99 993.5,-140.99 986.5,-140.99"/>
</g>
<!-- AtftTextModule -->
<g id="node9" class="node">
<title>AtftTextModule</title>
<polygon fill="#8dd3c7" stroke="black" points="915.76,-122 912.76,-126 891.76,-126 888.76,-122 808.24,-122 808.24,-86 915.76,-86 915.76,-122"/>
<text text-anchor="middle" x="862" y="-99.8" font-family="Times,serif" font-size="14.00">AtftTextModule</text>
</g>
<!-- AtftTextModule&#45;&gt;AtftObjectModule -->
<g id="edge8" class="edge">
<title>AtftTextModule&#45;&gt;AtftObjectModule</title>
<path fill="none" stroke="black" d="M875.61,-122.12C875.61,-136.78 875.61,-155 875.61,-155 875.61,-155 920.12,-155 920.12,-155"/>
<polygon fill="black" stroke="black" points="920.12,-158.5 930.12,-155 920.12,-151.5 920.12,-158.5"/>
</g>
<!-- FontService -->
<g id="node17" class="node">
<title>FontService</title>
<ellipse fill="#fdb462" stroke="black" cx="726" cy="-104" rx="57.9" ry="18"/>
<text text-anchor="middle" x="726" y="-99.8" font-family="Times,serif" font-size="14.00">FontService</text>
</g>
<!-- FontService&#45;&gt;AtftObjectModule -->
<g id="edge16" class="edge">
<title>FontService&#45;&gt;AtftObjectModule</title>
<path fill="none" stroke="black" d="M779.16,-111.19C779.16,-126.1 779.16,-159 779.16,-159 779.16,-159 920.15,-159 920.15,-159"/>
<polygon fill="black" stroke="black" points="920.15,-162.5 930.15,-159 920.15,-155.5 920.15,-162.5"/>
</g>
<!-- IconService -->
<g id="node18" class="node">
<title>IconService</title>
<ellipse fill="#fdb462" stroke="black" cx="593" cy="-104" rx="57.3" ry="18"/>
<text text-anchor="middle" x="593" y="-99.8" font-family="Times,serif" font-size="14.00">IconService</text>
</g>
<!-- IconService&#45;&gt;AtftObjectModule -->
<g id="edge17" class="edge">
<title>IconService&#45;&gt;AtftObjectModule</title>
<path fill="none" stroke="black" d="M608.7,-121.4C608.7,-138.49 608.7,-162 608.7,-162 608.7,-162 920,-162 920,-162"/>
<polygon fill="black" stroke="black" points="920,-165.5 930,-162 920,-158.5 920,-165.5"/>
</g>
<!-- ModelService -->
<g id="node19" class="node">
<title>ModelService</title>
<ellipse fill="#fdb462" stroke="black" cx="453" cy="-104" rx="65.41" ry="18"/>
<text text-anchor="middle" x="453" y="-99.8" font-family="Times,serif" font-size="14.00">ModelService</text>
</g>
<!-- ModelService&#45;&gt;AtftObjectModule -->
<g id="edge18" class="edge">
<title>ModelService&#45;&gt;AtftObjectModule</title>
<path fill="none" stroke="black" d="M453,-122.27C453,-140.56 453,-166 453,-166 453,-166 920.22,-166 920.22,-166"/>
<polygon fill="black" stroke="black" points="920.22,-169.5 930.22,-166 920.22,-162.5 920.22,-169.5"/>
</g>
<!-- ObjLoaderService -->
<g id="node20" class="node">
<title>ObjLoaderService</title>
<ellipse fill="#fdb462" stroke="black" cx="288" cy="-104" rx="81.64" ry="18"/>
<text text-anchor="middle" x="288" y="-99.8" font-family="Times,serif" font-size="14.00">ObjLoaderService</text>
</g>
<!-- ObjLoaderService&#45;&gt;AtftObjectModule -->
<g id="edge19" class="edge">
<title>ObjLoaderService&#45;&gt;AtftObjectModule</title>
<path fill="none" stroke="black" d="M288,-122.11C288,-141.34 288,-169 288,-169 288,-169 920.15,-169 920.15,-169"/>
<polygon fill="black" stroke="black" points="920.15,-172.5 930.15,-169 920.15,-165.5 920.15,-172.5"/>
</g>
<!-- SvgLoaderService -->
<g id="node21" class="node">
<title>SvgLoaderService</title>
<ellipse fill="#fdb462" stroke="black" cx="106" cy="-104" rx="82.22" ry="18"/>
<text text-anchor="middle" x="106" y="-99.8" font-family="Times,serif" font-size="14.00">SvgLoaderService</text>
</g>
<!-- SvgLoaderService&#45;&gt;AtftObjectModule -->
<g id="edge20" class="edge">
<title>SvgLoaderService&#45;&gt;AtftObjectModule</title>
<path fill="none" stroke="black" d="M106,-122.13C106,-142.57 106,-173 106,-173 106,-173 920.28,-173 920.28,-173"/>
<polygon fill="black" stroke="black" points="920.28,-176.5 930.28,-173 920.28,-169.5 920.28,-176.5"/>
</g>
</g>
</svg>
