<?xml version="1.0" encoding="UTF-8" standalone="no"?>
<!DOCTYPE svg PUBLIC "-//W3C//DTD SVG 1.1//EN"
 "http://www.w3.org/Graphics/SVG/1.1/DTD/svg11.dtd">
<!-- Generated by graphviz version 2.40.1 (20161225.0304)
 -->
<!-- Title: dependencies Pages: 1 -->
<svg width="1655pt" height="284pt"
 viewBox="0.00 0.00 1655.00 284.00" xmlns="http://www.w3.org/2000/svg" xmlns:xlink="http://www.w3.org/1999/xlink">
<g id="graph0" class="graph" transform="scale(1 1) rotate(0) translate(4 280)">
<title>dependencies</title>
<polygon fill="#ffffff" stroke="transparent" points="-4,4 -4,-280 1651,-280 1651,4 -4,4"/>
<text text-anchor="start" x="802.5091" y="-42.4" font-family="sans-serif" font-weight="bold" font-size="14.00" fill="#000000">Legend</text>
<polygon fill="#ffffb3" stroke="transparent" points="589.5,-10 589.5,-30 609.5,-30 609.5,-10 589.5,-10"/>
<text text-anchor="start" x="613.129" y="-15.4" font-family="sans-serif" font-size="14.00" fill="#000000"> &#160;Declarations</text>
<polygon fill="#8dd3c7" stroke="transparent" points="702.5,-10 702.5,-30 722.5,-30 722.5,-10 702.5,-10"/>
<text text-anchor="start" x="726.2251" y="-15.4" font-family="sans-serif" font-size="14.00" fill="#000000"> &#160;Module</text>
<polygon fill="#80b1d3" stroke="transparent" points="788.5,-10 788.5,-30 808.5,-30 808.5,-10 788.5,-10"/>
<text text-anchor="start" x="812.2812" y="-15.4" font-family="sans-serif" font-size="14.00" fill="#000000"> &#160;Bootstrap</text>
<polygon fill="#fdb462" stroke="transparent" points="885.5,-10 885.5,-30 905.5,-30 905.5,-10 885.5,-10"/>
<text text-anchor="start" x="909.1732" y="-15.4" font-family="sans-serif" font-size="14.00" fill="#000000"> &#160;Providers</text>
<polygon fill="#fb8072" stroke="transparent" points="981.5,-10 981.5,-30 1001.5,-30 1001.5,-10 981.5,-10"/>
<text text-anchor="start" x="1005.2258" y="-15.4" font-family="sans-serif" font-size="14.00" fill="#000000"> &#160;Exports</text>
<g id="clust1" class="cluster">
<title>cluster_AtftObjectModule</title>
<polygon fill="none" stroke="#000000" stroke-dasharray="1,5" points="8,-70 8,-268 1639,-268 1639,-70 8,-70"/>
</g>
<g id="clust2" class="cluster">
<title>cluster_AtftObjectModule_declarations</title>
<polygon fill="none" stroke="#000000" points="1299,-78 1299,-130 1631,-130 1631,-78 1299,-78"/>
</g>
<g id="clust5" class="cluster">
<title>cluster_AtftObjectModule_imports</title>
<polygon fill="none" stroke="#000000" points="471,-78 471,-130 1291,-130 1291,-78 471,-78"/>
</g>
<g id="clust6" class="cluster">
<title>cluster_AtftObjectModule_exports</title>
<polygon fill="none" stroke="#000000" points="325,-208 325,-260 1305,-260 1305,-208 325,-208"/>
</g>
<g id="clust8" class="cluster">
<title>cluster_AtftObjectModule_providers</title>
<polygon fill="none" stroke="#000000" points="16,-78 16,-130 463,-130 463,-78 16,-78"/>
</g>
<!-- ContentProjectionComponent -->
<g id="node1" class="node">
<title>ContentProjectionComponent</title>
<polygon fill="#ffffb3" stroke="#000000" points="1622.7091,-122 1439.2909,-122 1439.2909,-86 1622.7091,-86 1622.7091,-122"/>
<text text-anchor="middle" x="1531" y="-99.8" font-family="Times,serif" font-size="14.00" fill="#000000">ContentProjectionComponent</text>
</g>
<!-- AtftObjectModule -->
<g id="node3" class="node">
<title>AtftObjectModule</title>
<polygon fill="#8dd3c7" stroke="#000000" points="855.9159,-187 852.9159,-191 831.9159,-191 828.9159,-187 736.0841,-187 736.0841,-151 855.9159,-151 855.9159,-187"/>
<text text-anchor="middle" x="796" y="-164.8" font-family="Times,serif" font-size="14.00" fill="#000000">AtftObjectModule</text>
</g>
<!-- ContentProjectionComponent&#45;&gt;AtftObjectModule -->
<g id="edge1" class="edge">
<title>ContentProjectionComponent&#45;&gt;AtftObjectModule</title>
<path fill="none" stroke="#000000" d="M1531,-122.308C1531,-142.1455 1531,-171 1531,-171 1531,-171 865.8365,-171 865.8365,-171"/>
<polygon fill="#000000" stroke="#000000" points="865.8365,-167.5001 855.8365,-171 865.8365,-174.5001 865.8365,-167.5001"/>
</g>
<!-- SceneComponent -->
<g id="node2" class="node">
<title>SceneComponent</title>
<polygon fill="#ffffb3" stroke="#000000" points="1421.2591,-122 1306.7409,-122 1306.7409,-86 1421.2591,-86 1421.2591,-122"/>
<text text-anchor="middle" x="1364" y="-99.8" font-family="Times,serif" font-size="14.00" fill="#000000">SceneComponent</text>
</g>
<!-- SceneComponent&#45;&gt;AtftObjectModule -->
<g id="edge2" class="edge">
<title>SceneComponent&#45;&gt;AtftObjectModule</title>
<path fill="none" stroke="#000000" d="M1364,-122.2222C1364,-140.8285 1364,-167 1364,-167 1364,-167 865.7124,-167 865.7124,-167"/>
<polygon fill="#000000" stroke="#000000" points="865.7124,-163.5001 855.7124,-167 865.7124,-170.5001 865.7124,-163.5001"/>
</g>
<!-- AtftConnectorModule  -->
<g id="node10" class="node">
<title>AtftConnectorModule </title>
<polygon fill="#fb8072" stroke="#000000" points="1296.9152,-252 1153.0848,-252 1153.0848,-216 1296.9152,-216 1296.9152,-252"/>
<text text-anchor="middle" x="1225" y="-229.8" font-family="Times,serif" font-size="14.00" fill="#000000">AtftConnectorModule </text>
</g>
<!-- AtftObjectModule&#45;&gt;AtftConnectorModule  -->
<g id="edge9" class="edge">
<title>AtftObjectModule&#45;&gt;AtftConnectorModule </title>
<path fill="none" stroke="#000000" stroke-dasharray="5,2" d="M856.0319,-175C972.5731,-175 1218.125,-175 1218.125,-175 1218.125,-175 1218.125,-205.9775 1218.125,-205.9775"/>
<polygon fill="#000000" stroke="#000000" points="1214.6251,-205.9774 1218.125,-215.9775 1221.6251,-205.9775 1214.6251,-205.9774"/>
</g>
<!-- AtftHelperModule  -->
<g id="node11" class="node">
<title>AtftHelperModule </title>
<polygon fill="#fb8072" stroke="#000000" points="1134.6856,-252 1011.3144,-252 1011.3144,-216 1134.6856,-216 1134.6856,-252"/>
<text text-anchor="middle" x="1073" y="-229.8" font-family="Times,serif" font-size="14.00" fill="#000000">AtftHelperModule </text>
</g>
<!-- AtftObjectModule&#45;&gt;AtftHelperModule  -->
<g id="edge10" class="edge">
<title>AtftObjectModule&#45;&gt;AtftHelperModule </title>
<path fill="none" stroke="#000000" stroke-dasharray="5,2" d="M855.9897,-179C930.8453,-179 1049.1358,-179 1049.1358,-179 1049.1358,-179 1049.1358,-205.9909 1049.1358,-205.9909"/>
<polygon fill="#000000" stroke="#000000" points="1045.6359,-205.9909 1049.1358,-215.9909 1052.6359,-205.991 1045.6359,-205.9909"/>
</g>
<!-- AtftLightModule  -->
<g id="node12" class="node">
<title>AtftLightModule </title>
<polygon fill="#fb8072" stroke="#000000" points="992.932,-252 877.068,-252 877.068,-216 992.932,-216 992.932,-252"/>
<text text-anchor="middle" x="935" y="-229.8" font-family="Times,serif" font-size="14.00" fill="#000000">AtftLightModule </text>
</g>
<!-- AtftObjectModule&#45;&gt;AtftLightModule  -->
<g id="edge11" class="edge">
<title>AtftObjectModule&#45;&gt;AtftLightModule </title>
<path fill="none" stroke="#000000" stroke-dasharray="5,2" d="M855.9156,-183C885.007,-183 913.7613,-183 913.7613,-183 913.7613,-183 913.7613,-205.8757 913.7613,-205.8757"/>
<polygon fill="#000000" stroke="#000000" points="910.2614,-205.8757 913.7613,-215.8757 917.2614,-205.8757 910.2614,-205.8757"/>
</g>
<!-- AtftLoaderModule  -->
<g id="node13" class="node">
<title>AtftLoaderModule </title>
<polygon fill="#fb8072" stroke="#000000" points="858.7408,-252 733.2592,-252 733.2592,-216 858.7408,-216 858.7408,-252"/>
<text text-anchor="middle" x="796" y="-229.8" font-family="Times,serif" font-size="14.00" fill="#000000">AtftLoaderModule </text>
</g>
<!-- AtftObjectModule&#45;&gt;AtftLoaderModule  -->
<g id="edge12" class="edge">
<title>AtftObjectModule&#45;&gt;AtftLoaderModule </title>
<path fill="none" stroke="#000000" stroke-dasharray="5,2" d="M796,-187.1061C796,-187.1061 796,-205.991 796,-205.991"/>
<polygon fill="#000000" stroke="#000000" points="792.5001,-205.9909 796,-215.991 799.5001,-205.991 792.5001,-205.9909"/>
</g>
<!-- AtftMeshModule  -->
<g id="node14" class="node">
<title>AtftMeshModule </title>
<polygon fill="#fb8072" stroke="#000000" points="715.2024,-252 598.7976,-252 598.7976,-216 715.2024,-216 715.2024,-252"/>
<text text-anchor="middle" x="657" y="-229.8" font-family="Times,serif" font-size="14.00" fill="#000000">AtftMeshModule </text>
</g>
<!-- AtftObjectModule&#45;&gt;AtftMeshModule  -->
<g id="edge13" class="edge">
<title>AtftObjectModule&#45;&gt;AtftMeshModule </title>
<path fill="none" stroke="#000000" stroke-dasharray="5,2" d="M736.221,-183C692.7118,-183 641.383,-183 641.383,-183 641.383,-183 641.383,-205.8757 641.383,-205.8757"/>
<polygon fill="#000000" stroke="#000000" points="637.8831,-205.8757 641.383,-215.8757 644.8831,-205.8757 637.8831,-205.8757"/>
</g>
<!-- AtftTextModule  -->
<g id="node15" class="node">
<title>AtftTextModule </title>
<polygon fill="#fb8072" stroke="#000000" points="580.7563,-252 469.2437,-252 469.2437,-216 580.7563,-216 580.7563,-252"/>
<text text-anchor="middle" x="525" y="-229.8" font-family="Times,serif" font-size="14.00" fill="#000000">AtftTextModule </text>
</g>
<!-- AtftObjectModule&#45;&gt;AtftTextModule  -->
<g id="edge14" class="edge">
<title>AtftObjectModule&#45;&gt;AtftTextModule </title>
<path fill="none" stroke="#000000" stroke-dasharray="5,2" d="M735.9739,-179C652.8893,-179 512.9573,-179 512.9573,-179 512.9573,-179 512.9573,-205.9909 512.9573,-205.9909"/>
<polygon fill="#000000" stroke="#000000" points="509.4574,-205.9909 512.9573,-215.9909 516.4574,-205.991 509.4574,-205.9909"/>
</g>
<!-- SceneComponent  -->
<g id="node16" class="node">
<title>SceneComponent </title>
<polygon fill="#fb8072" stroke="#000000" points="451.2591,-252 332.7409,-252 332.7409,-216 451.2591,-216 451.2591,-252"/>
<text text-anchor="middle" x="392" y="-229.8" font-family="Times,serif" font-size="14.00" fill="#000000">SceneComponent </text>
</g>
<!-- AtftObjectModule&#45;&gt;SceneComponent  -->
<g id="edge15" class="edge">
<title>AtftObjectModule&#45;&gt;SceneComponent </title>
<path fill="none" stroke="#000000" stroke-dasharray="5,2" d="M735.9068,-175C619.9323,-175 376.5759,-175 376.5759,-175 376.5759,-175 376.5759,-205.9775 376.5759,-205.9775"/>
<polygon fill="#000000" stroke="#000000" points="373.076,-205.9774 376.5759,-215.9775 380.076,-205.9775 373.076,-205.9774"/>
</g>
<!-- AtftConnectorModule -->
<g id="node4" class="node">
<title>AtftConnectorModule</title>
<polygon fill="#8dd3c7" stroke="#000000" points="1283.4158,-122 1280.4158,-126 1259.4158,-126 1256.4158,-122 1142.5842,-122 1142.5842,-86 1283.4158,-86 1283.4158,-122"/>
<text text-anchor="middle" x="1213" y="-99.8" font-family="Times,serif" font-size="14.00" fill="#000000">AtftConnectorModule</text>
</g>
<!-- AtftConnectorModule&#45;&gt;AtftObjectModule -->
<g id="edge3" class="edge">
<title>AtftConnectorModule&#45;&gt;AtftObjectModule</title>
<path fill="none" stroke="#000000" d="M1147.9174,-122.0225C1147.9174,-139.3734 1147.9174,-163 1147.9174,-163 1147.9174,-163 866.0969,-163 866.0969,-163"/>
<polygon fill="#000000" stroke="#000000" points="866.0969,-159.5001 856.0969,-163 866.0969,-166.5001 866.0969,-159.5001"/>
</g>
<!-- AtftHelperModule -->
<g id="node5" class="node">
<title>AtftHelperModule</title>
<polygon fill="#8dd3c7" stroke="#000000" points="1125.1853,-122 1122.1853,-126 1101.1853,-126 1098.1853,-122 1004.8147,-122 1004.8147,-86 1125.1853,-86 1125.1853,-122"/>
<text text-anchor="middle" x="1065" y="-99.8" font-family="Times,serif" font-size="14.00" fill="#000000">AtftHelperModule</text>
</g>
<!-- AtftHelperModule&#45;&gt;AtftObjectModule -->
<g id="edge4" class="edge">
<title>AtftHelperModule&#45;&gt;AtftObjectModule</title>
<path fill="none" stroke="#000000" d="M1087.1142,-122.0091C1087.1142,-138.0494 1087.1142,-159 1087.1142,-159 1087.1142,-159 865.9661,-159 865.9661,-159"/>
<polygon fill="#000000" stroke="#000000" points="865.9661,-155.5001 855.9661,-159 865.966,-162.5001 865.9661,-155.5001"/>
</g>
<!-- AtftLightModule -->
<g id="node6" class="node">
<title>AtftLightModule</title>
<polygon fill="#8dd3c7" stroke="#000000" points="987.4328,-122 984.4328,-126 963.4328,-126 960.4328,-122 874.5672,-122 874.5672,-86 987.4328,-86 987.4328,-122"/>
<text text-anchor="middle" x="931" y="-99.8" font-family="Times,serif" font-size="14.00" fill="#000000">AtftLightModule</text>
</g>
<!-- AtftLightModule&#45;&gt;AtftObjectModule -->
<g id="edge5" class="edge">
<title>AtftLightModule&#45;&gt;AtftObjectModule</title>
<path fill="none" stroke="#000000" d="M950.4887,-122.1243C950.4887,-136.7832 950.4887,-155 950.4887,-155 950.4887,-155 865.7294,-155 865.7294,-155"/>
<polygon fill="#000000" stroke="#000000" points="865.7294,-151.5001 855.7294,-155 865.7293,-158.5001 865.7294,-151.5001"/>
</g>
<!-- AtftLoaderModule -->
<g id="node7" class="node">
<title>AtftLoaderModule</title>
<polygon fill="#8dd3c7" stroke="#000000" points="856.7409,-122 853.7409,-126 832.7409,-126 829.7409,-122 735.2591,-122 735.2591,-86 856.7409,-86 856.7409,-122"/>
<text text-anchor="middle" x="796" y="-99.8" font-family="Times,serif" font-size="14.00" fill="#000000">AtftLoaderModule</text>
</g>
<!-- AtftLoaderModule&#45;&gt;AtftObjectModule -->
<g id="edge6" class="edge">
<title>AtftLoaderModule&#45;&gt;AtftObjectModule</title>
<path fill="none" stroke="#000000" d="M796,-122.1061C796,-122.1061 796,-140.991 796,-140.991"/>
<polygon fill="#000000" stroke="#000000" points="792.5001,-140.9909 796,-150.991 799.5001,-140.991 792.5001,-140.9909"/>
</g>
<!-- AtftMeshModule -->
<g id="node8" class="node">
<title>AtftMeshModule</title>
<polygon fill="#8dd3c7" stroke="#000000" points="717.7022,-122 714.7022,-126 693.7022,-126 690.7022,-122 604.2978,-122 604.2978,-86 717.7022,-86 717.7022,-122"/>
<text text-anchor="middle" x="661" y="-99.8" font-family="Times,serif" font-size="14.00" fill="#000000">AtftMeshModule</text>
</g>
<!-- AtftMeshModule&#45;&gt;AtftObjectModule -->
<g id="edge7" class="edge">
<title>AtftMeshModule&#45;&gt;AtftObjectModule</title>
<path fill="none" stroke="#000000" d="M678.367,-122.1243C678.367,-136.7832 678.367,-155 678.367,-155 678.367,-155 726.1497,-155 726.1497,-155"/>
<polygon fill="#000000" stroke="#000000" points="726.1497,-158.5001 736.1497,-155 726.1496,-151.5001 726.1497,-158.5001"/>
</g>
<!-- AtftTextModule -->
<g id="node9" class="node">
<title>AtftTextModule</title>
<polygon fill="#8dd3c7" stroke="#000000" points="586.7563,-122 583.7563,-126 562.7563,-126 559.7563,-122 479.2437,-122 479.2437,-86 586.7563,-86 586.7563,-122"/>
<text text-anchor="middle" x="533" y="-99.8" font-family="Times,serif" font-size="14.00" fill="#000000">AtftTextModule</text>
</g>
<!-- AtftTextModule&#45;&gt;AtftObjectModule -->
<g id="edge8" class="edge">
<title>AtftTextModule&#45;&gt;AtftObjectModule</title>
<path fill="none" stroke="#000000" d="M546.7927,-122.0091C546.7927,-138.0494 546.7927,-159 546.7927,-159 546.7927,-159 725.9915,-159 725.9915,-159"/>
<polygon fill="#000000" stroke="#000000" points="725.9915,-162.5001 735.9915,-159 725.9915,-155.5001 725.9915,-162.5001"/>
</g>
<!-- FontService -->
<g id="node17" class="node">
<title>FontService</title>
<ellipse fill="#fdb462" stroke="#000000" cx="397" cy="-104" rx="57.9023" ry="18"/>
<text text-anchor="middle" x="397" y="-99.8" font-family="Times,serif" font-size="14.00" fill="#000000">FontService</text>
</g>
<!-- FontService&#45;&gt;AtftObjectModule -->
<g id="edge16" class="edge">
<title>FontService&#45;&gt;AtftObjectModule</title>
<path fill="none" stroke="#000000" d="M413.8527,-121.3828C413.8527,-138.7864 413.8527,-163 413.8527,-163 413.8527,-163 726.2895,-163 726.2895,-163"/>
<polygon fill="#000000" stroke="#000000" points="726.2895,-166.5001 736.2895,-163 726.2894,-159.5001 726.2895,-166.5001"/>
</g>
<!-- IconService -->
<g id="node18" class="node">
<title>IconService</title>
<ellipse fill="#fdb462" stroke="#000000" cx="264" cy="-104" rx="57.3011" ry="18"/>
<text text-anchor="middle" x="264" y="-99.8" font-family="Times,serif" font-size="14.00" fill="#000000">IconService</text>
</g>
<!-- IconService&#45;&gt;AtftObjectModule -->
<g id="edge17" class="edge">
<title>IconService&#45;&gt;AtftObjectModule</title>
<path fill="none" stroke="#000000" d="M264,-122.2222C264,-140.8285 264,-167 264,-167 264,-167 726.2644,-167 726.2644,-167"/>
<polygon fill="#000000" stroke="#000000" points="726.2644,-170.5001 736.2644,-167 726.2644,-163.5001 726.2644,-170.5001"/>
</g>
<!-- SvgLoaderService -->
<g id="node19" class="node">
<title>SvgLoaderService</title>
<ellipse fill="#fdb462" stroke="#000000" cx="106" cy="-104" rx="82.2237" ry="18"/>
<text text-anchor="middle" x="106" y="-99.8" font-family="Times,serif" font-size="14.00" fill="#000000">SvgLoaderService</text>
</g>
<!-- SvgLoaderService&#45;&gt;AtftObjectModule -->
<g id="edge18" class="edge">
<title>SvgLoaderService&#45;&gt;AtftObjectModule</title>
<path fill="none" stroke="#000000" d="M106,-122.308C106,-142.1455 106,-171 106,-171 106,-171 726.2742,-171 726.2742,-171"/>
<polygon fill="#000000" stroke="#000000" points="726.2743,-174.5001 736.2742,-171 726.2742,-167.5001 726.2743,-174.5001"/>
</g>
</g>
</svg>
