<?xml version="1.0" encoding="UTF-8" standalone="no"?>
<!DOCTYPE svg PUBLIC "-//W3C//DTD SVG 1.1//EN"
 "http://www.w3.org/Graphics/SVG/1.1/DTD/svg11.dtd">
<!-- Generated by graphviz version 2.40.1 (20161225.0304)
 -->
<!-- Title: dependencies Pages: 1 -->
<svg width="1200pt" height="284pt"
 viewBox="0.00 0.00 1200.00 284.00" xmlns="http://www.w3.org/2000/svg" xmlns:xlink="http://www.w3.org/1999/xlink">
<g id="graph0" class="graph" transform="scale(1 1) rotate(0) translate(4 280)">
<title>dependencies</title>
<polygon fill="#ffffff" stroke="transparent" points="-4,4 -4,-280 1196,-280 1196,4 -4,4"/>
<text text-anchor="start" x="575.0091" y="-42.4" font-family="sans-serif" font-weight="bold" font-size="14.00" fill="#000000">Legend</text>
<polygon fill="#ffffb3" stroke="transparent" points="362,-10 362,-30 382,-30 382,-10 362,-10"/>
<text text-anchor="start" x="385.629" y="-15.4" font-family="sans-serif" font-size="14.00" fill="#000000"> &#160;Declarations</text>
<polygon fill="#8dd3c7" stroke="transparent" points="475,-10 475,-30 495,-30 495,-10 475,-10"/>
<text text-anchor="start" x="498.7251" y="-15.4" font-family="sans-serif" font-size="14.00" fill="#000000"> &#160;Module</text>
<polygon fill="#80b1d3" stroke="transparent" points="561,-10 561,-30 581,-30 581,-10 561,-10"/>
<text text-anchor="start" x="584.7812" y="-15.4" font-family="sans-serif" font-size="14.00" fill="#000000"> &#160;Bootstrap</text>
<polygon fill="#fdb462" stroke="transparent" points="658,-10 658,-30 678,-30 678,-10 658,-10"/>
<text text-anchor="start" x="681.6732" y="-15.4" font-family="sans-serif" font-size="14.00" fill="#000000"> &#160;Providers</text>
<polygon fill="#fb8072" stroke="transparent" points="754,-10 754,-30 774,-30 774,-10 754,-10"/>
<text text-anchor="start" x="777.7258" y="-15.4" font-family="sans-serif" font-size="14.00" fill="#000000"> &#160;Exports</text>
<g id="clust1" class="cluster">
<title>cluster_AtftObjectModule</title>
<polygon fill="none" stroke="#000000" stroke-dasharray="1,5" points="8,-70 8,-268 1184,-268 1184,-70 8,-70"/>
</g>
<g id="clust2" class="cluster">
<title>cluster_AtftObjectModule_declarations</title>
<polygon fill="none" stroke="#000000" points="844,-78 844,-130 1176,-130 1176,-78 844,-78"/>
</g>
<g id="clust5" class="cluster">
<title>cluster_AtftObjectModule_imports</title>
<polygon fill="none" stroke="#000000" points="16,-78 16,-130 836,-130 836,-78 16,-78"/>
</g>
<g id="clust6" class="cluster">
<title>cluster_AtftObjectModule_exports</title>
<polygon fill="none" stroke="#000000" points="77,-208 77,-260 1057,-260 1057,-208 77,-208"/>
</g>
<!-- ContentProjectionComponent -->
<g id="node1" class="node">
<title>ContentProjectionComponent</title>
<polygon fill="#ffffb3" stroke="#000000" points="1167.7091,-122 984.2909,-122 984.2909,-86 1167.7091,-86 1167.7091,-122"/>
<text text-anchor="middle" x="1076" y="-99.8" font-family="Times,serif" font-size="14.00" fill="#000000">ContentProjectionComponent</text>
</g>
<!-- AtftObjectModule -->
<g id="node3" class="node">
<title>AtftObjectModule</title>
<polygon fill="#8dd3c7" stroke="#000000" points="607.9159,-187 604.9159,-191 583.9159,-191 580.9159,-187 488.0841,-187 488.0841,-151 607.9159,-151 607.9159,-187"/>
<text text-anchor="middle" x="548" y="-164.8" font-family="Times,serif" font-size="14.00" fill="#000000">AtftObjectModule</text>
</g>
<!-- ContentProjectionComponent&#45;&gt;AtftObjectModule -->
<g id="edge1" class="edge">
<title>ContentProjectionComponent&#45;&gt;AtftObjectModule</title>
<path fill="none" stroke="#000000" d="M1016.6765,-122.2222C1016.6765,-140.8285 1016.6765,-167 1016.6765,-167 1016.6765,-167 617.8343,-167 617.8343,-167"/>
<polygon fill="#000000" stroke="#000000" points="617.8343,-163.5001 607.8343,-167 617.8342,-170.5001 617.8343,-163.5001"/>
</g>
<!-- SceneComponent -->
<g id="node2" class="node">
<title>SceneComponent</title>
<polygon fill="#ffffb3" stroke="#000000" points="966.2591,-122 851.7409,-122 851.7409,-86 966.2591,-86 966.2591,-122"/>
<text text-anchor="middle" x="909" y="-99.8" font-family="Times,serif" font-size="14.00" fill="#000000">SceneComponent</text>
</g>
<!-- SceneComponent&#45;&gt;AtftObjectModule -->
<g id="edge2" class="edge">
<title>SceneComponent&#45;&gt;AtftObjectModule</title>
<path fill="none" stroke="#000000" d="M869.2316,-122.0336C869.2316,-139.0597 869.2316,-162 869.2316,-162 869.2316,-162 618.0444,-162 618.0444,-162"/>
<polygon fill="#000000" stroke="#000000" points="618.0444,-158.5001 608.0444,-162 618.0443,-165.5001 618.0444,-158.5001"/>
</g>
<!-- AtftConnectorModule  -->
<g id="node10" class="node">
<title>AtftConnectorModule </title>
<polygon fill="#fb8072" stroke="#000000" points="1048.9152,-252 905.0848,-252 905.0848,-216 1048.9152,-216 1048.9152,-252"/>
<text text-anchor="middle" x="977" y="-229.8" font-family="Times,serif" font-size="14.00" fill="#000000">AtftConnectorModule </text>
</g>
<!-- AtftObjectModule&#45;&gt;AtftConnectorModule  -->
<g id="edge9" class="edge">
<title>AtftObjectModule&#45;&gt;AtftConnectorModule </title>
<path fill="none" stroke="#000000" stroke-dasharray="5,2" d="M607.7301,-172C716.4862,-172 935.7109,-172 935.7109,-172 935.7109,-172 935.7109,-205.7333 935.7109,-205.7333"/>
<polygon fill="#000000" stroke="#000000" points="932.211,-205.7333 935.7109,-215.7333 939.211,-205.7333 932.211,-205.7333"/>
</g>
<!-- AtftHelperModule  -->
<g id="node11" class="node">
<title>AtftHelperModule </title>
<polygon fill="#fb8072" stroke="#000000" points="886.6856,-252 763.3144,-252 763.3144,-216 886.6856,-216 886.6856,-252"/>
<text text-anchor="middle" x="825" y="-229.8" font-family="Times,serif" font-size="14.00" fill="#000000">AtftHelperModule </text>
</g>
<!-- AtftObjectModule&#45;&gt;AtftHelperModule  -->
<g id="edge10" class="edge">
<title>AtftObjectModule&#45;&gt;AtftHelperModule </title>
<path fill="none" stroke="#000000" stroke-dasharray="5,2" d="M607.957,-177C681.2594,-177 795.6825,-177 795.6825,-177 795.6825,-177 795.6825,-205.9648 795.6825,-205.9648"/>
<polygon fill="#000000" stroke="#000000" points="792.1826,-205.9648 795.6825,-215.9648 799.1826,-205.9649 792.1826,-205.9648"/>
</g>
<!-- AtftLightModule  -->
<g id="node12" class="node">
<title>AtftLightModule </title>
<polygon fill="#fb8072" stroke="#000000" points="744.932,-252 629.068,-252 629.068,-216 744.932,-216 744.932,-252"/>
<text text-anchor="middle" x="687" y="-229.8" font-family="Times,serif" font-size="14.00" fill="#000000">AtftLightModule </text>
</g>
<!-- AtftObjectModule&#45;&gt;AtftLightModule  -->
<g id="edge11" class="edge">
<title>AtftObjectModule&#45;&gt;AtftLightModule </title>
<path fill="none" stroke="#000000" stroke-dasharray="5,2" d="M607.9606,-182C629.9495,-182 649.5633,-182 649.5633,-182 649.5633,-182 649.5633,-205.8129 649.5633,-205.8129"/>
<polygon fill="#000000" stroke="#000000" points="646.0634,-205.8129 649.5633,-215.8129 653.0634,-205.813 646.0634,-205.8129"/>
</g>
<!-- AtftLoaderModule  -->
<g id="node13" class="node">
<title>AtftLoaderModule </title>
<polygon fill="#fb8072" stroke="#000000" points="610.7408,-252 485.2592,-252 485.2592,-216 610.7408,-216 610.7408,-252"/>
<text text-anchor="middle" x="548" y="-229.8" font-family="Times,serif" font-size="14.00" fill="#000000">AtftLoaderModule </text>
</g>
<!-- AtftObjectModule&#45;&gt;AtftLoaderModule  -->
<g id="edge12" class="edge">
<title>AtftObjectModule&#45;&gt;AtftLoaderModule </title>
<path fill="none" stroke="#000000" stroke-dasharray="5,2" d="M548,-187.1061C548,-187.1061 548,-205.991 548,-205.991"/>
<polygon fill="#000000" stroke="#000000" points="544.5001,-205.9909 548,-215.991 551.5001,-205.991 544.5001,-205.9909"/>
</g>
<!-- AtftMeshModule  -->
<g id="node14" class="node">
<title>AtftMeshModule </title>
<polygon fill="#fb8072" stroke="#000000" points="467.2024,-252 350.7976,-252 350.7976,-216 467.2024,-216 467.2024,-252"/>
<text text-anchor="middle" x="409" y="-229.8" font-family="Times,serif" font-size="14.00" fill="#000000">AtftMeshModule </text>
</g>
<!-- AtftObjectModule&#45;&gt;AtftMeshModule  -->
<g id="edge13" class="edge">
<title>AtftObjectModule&#45;&gt;AtftMeshModule </title>
<path fill="none" stroke="#000000" stroke-dasharray="5,2" d="M488.1592,-182C464.8254,-182 443.5675,-182 443.5675,-182 443.5675,-182 443.5675,-205.8129 443.5675,-205.8129"/>
<polygon fill="#000000" stroke="#000000" points="440.0676,-205.8129 443.5675,-215.8129 447.0676,-205.813 440.0676,-205.8129"/>
</g>
<!-- AtftTextModule  -->
<g id="node15" class="node">
<title>AtftTextModule </title>
<polygon fill="#fb8072" stroke="#000000" points="332.7563,-252 221.2437,-252 221.2437,-216 332.7563,-216 332.7563,-252"/>
<text text-anchor="middle" x="277" y="-229.8" font-family="Times,serif" font-size="14.00" fill="#000000">AtftTextModule </text>
</g>
<!-- AtftObjectModule&#45;&gt;AtftTextModule  -->
<g id="edge14" class="edge">
<title>AtftObjectModule&#45;&gt;AtftTextModule </title>
<path fill="none" stroke="#000000" stroke-dasharray="5,2" d="M488.2734,-177C416.7225,-177 306.3789,-177 306.3789,-177 306.3789,-177 306.3789,-205.9648 306.3789,-205.9648"/>
<polygon fill="#000000" stroke="#000000" points="302.8789,-205.9648 306.3789,-215.9648 309.8789,-205.9649 302.8789,-205.9648"/>
</g>
<!-- SceneComponent  -->
<g id="node16" class="node">
<title>SceneComponent </title>
<polygon fill="#fb8072" stroke="#000000" points="203.2591,-252 84.7409,-252 84.7409,-216 203.2591,-216 203.2591,-252"/>
<text text-anchor="middle" x="144" y="-229.8" font-family="Times,serif" font-size="14.00" fill="#000000">SceneComponent </text>
</g>
<!-- AtftObjectModule&#45;&gt;SceneComponent  -->
<g id="edge15" class="edge">
<title>AtftObjectModule&#45;&gt;SceneComponent </title>
<path fill="none" stroke="#000000" stroke-dasharray="5,2" d="M488.2742,-172C383.1931,-172 176.2642,-172 176.2642,-172 176.2642,-172 176.2642,-205.7333 176.2642,-205.7333"/>
<polygon fill="#000000" stroke="#000000" points="172.7641,-205.7333 176.2642,-215.7333 179.7641,-205.7333 172.7641,-205.7333"/>
</g>
<!-- AtftConnectorModule -->
<g id="node4" class="node">
<title>AtftConnectorModule</title>
<polygon fill="#8dd3c7" stroke="#000000" points="828.4158,-122 825.4158,-126 804.4158,-126 801.4158,-122 687.5842,-122 687.5842,-86 828.4158,-86 828.4158,-122"/>
<text text-anchor="middle" x="758" y="-99.8" font-family="Times,serif" font-size="14.00" fill="#000000">AtftConnectorModule</text>
</g>
<!-- AtftConnectorModule&#45;&gt;AtftObjectModule -->
<g id="edge3" class="edge">
<title>AtftConnectorModule&#45;&gt;AtftObjectModule</title>
<path fill="none" stroke="#000000" d="M716.3792,-122.2396C716.3792,-137.5706 716.3792,-157 716.3792,-157 716.3792,-157 617.8383,-157 617.8383,-157"/>
<polygon fill="#000000" stroke="#000000" points="617.8383,-153.5001 607.8383,-157 617.8383,-160.5001 617.8383,-153.5001"/>
</g>
<!-- AtftHelperModule -->
<g id="node5" class="node">
<title>AtftHelperModule</title>
<polygon fill="#8dd3c7" stroke="#000000" points="670.1853,-122 667.1853,-126 646.1853,-126 643.1853,-122 549.8147,-122 549.8147,-86 670.1853,-86 670.1853,-122"/>
<text text-anchor="middle" x="610" y="-99.8" font-family="Times,serif" font-size="14.00" fill="#000000">AtftHelperModule</text>
</g>
<!-- AtftHelperModule&#45;&gt;AtftObjectModule -->
<g id="edge4" class="edge">
<title>AtftHelperModule&#45;&gt;AtftObjectModule</title>
<path fill="none" stroke="#000000" d="M578.8075,-122.1061C578.8075,-122.1061 578.8075,-140.991 578.8075,-140.991"/>
<polygon fill="#000000" stroke="#000000" points="575.3076,-140.9909 578.8075,-150.991 582.3076,-140.991 575.3076,-140.9909"/>
</g>
<!-- AtftLightModule -->
<g id="node6" class="node">
<title>AtftLightModule</title>
<polygon fill="#8dd3c7" stroke="#000000" points="532.4328,-122 529.4328,-126 508.4328,-126 505.4328,-122 419.5672,-122 419.5672,-86 532.4328,-86 532.4328,-122"/>
<text text-anchor="middle" x="476" y="-99.8" font-family="Times,serif" font-size="14.00" fill="#000000">AtftLightModule</text>
</g>
<!-- AtftLightModule&#45;&gt;AtftObjectModule -->
<g id="edge5" class="edge">
<title>AtftLightModule&#45;&gt;AtftObjectModule</title>
<path fill="none" stroke="#000000" d="M510.2542,-122.1061C510.2542,-122.1061 510.2542,-140.991 510.2542,-140.991"/>
<polygon fill="#000000" stroke="#000000" points="506.7543,-140.9909 510.2542,-150.991 513.7543,-140.991 506.7543,-140.9909"/>
</g>
<!-- AtftLoaderModule -->
<g id="node7" class="node">
<title>AtftLoaderModule</title>
<polygon fill="#8dd3c7" stroke="#000000" points="401.7409,-122 398.7409,-126 377.7409,-126 374.7409,-122 280.2591,-122 280.2591,-86 401.7409,-86 401.7409,-122"/>
<text text-anchor="middle" x="341" y="-99.8" font-family="Times,serif" font-size="14.00" fill="#000000">AtftLoaderModule</text>
</g>
<!-- AtftLoaderModule&#45;&gt;AtftObjectModule -->
<g id="edge6" class="edge">
<title>AtftLoaderModule&#45;&gt;AtftObjectModule</title>
<path fill="none" stroke="#000000" d="M376.2596,-122.2396C376.2596,-137.5706 376.2596,-157 376.2596,-157 376.2596,-157 477.9336,-157 477.9336,-157"/>
<polygon fill="#000000" stroke="#000000" points="477.9336,-160.5001 487.9336,-157 477.9335,-153.5001 477.9336,-160.5001"/>
</g>
<!-- AtftMeshModule -->
<g id="node8" class="node">
<title>AtftMeshModule</title>
<polygon fill="#8dd3c7" stroke="#000000" points="262.7022,-122 259.7022,-126 238.7022,-126 235.7022,-122 149.2978,-122 149.2978,-86 262.7022,-86 262.7022,-122"/>
<text text-anchor="middle" x="206" y="-99.8" font-family="Times,serif" font-size="14.00" fill="#000000">AtftMeshModule</text>
</g>
<!-- AtftMeshModule&#45;&gt;AtftObjectModule -->
<g id="edge7" class="edge">
<title>AtftMeshModule&#45;&gt;AtftObjectModule</title>
<path fill="none" stroke="#000000" d="M241.9865,-122.0336C241.9865,-139.0597 241.9865,-162 241.9865,-162 241.9865,-162 478.2711,-162 478.2711,-162"/>
<polygon fill="#000000" stroke="#000000" points="478.2711,-165.5001 488.2711,-162 478.271,-158.5001 478.2711,-165.5001"/>
</g>
<!-- AtftTextModule -->
<g id="node9" class="node">
<title>AtftTextModule</title>
<polygon fill="#8dd3c7" stroke="#000000" points="131.7563,-122 128.7563,-126 107.7563,-126 104.7563,-122 24.2437,-122 24.2437,-86 131.7563,-86 131.7563,-122"/>
<text text-anchor="middle" x="78" y="-99.8" font-family="Times,serif" font-size="14.00" fill="#000000">AtftTextModule</text>
</g>
<!-- AtftTextModule&#45;&gt;AtftObjectModule -->
<g id="edge8" class="edge">
<title>AtftTextModule&#45;&gt;AtftObjectModule</title>
<path fill="none" stroke="#000000" d="M108.3743,-122.2222C108.3743,-140.8285 108.3743,-167 108.3743,-167 108.3743,-167 478.2526,-167 478.2526,-167"/>
<polygon fill="#000000" stroke="#000000" points="478.2526,-170.5001 488.2526,-167 478.2526,-163.5001 478.2526,-170.5001"/>
</g>
</g>
</svg>
