<?xml version="1.0" encoding="UTF-8" standalone="no"?>
<!DOCTYPE svg PUBLIC "-//W3C//DTD SVG 1.1//EN"
 "http://www.w3.org/Graphics/SVG/1.1/DTD/svg11.dtd">
<!-- Generated by graphviz version 2.40.1 (20161225.0304)
 -->
<!-- Title: dependencies Pages: 1 -->
<svg width="1020pt" height="284pt"
 viewBox="0.00 0.00 1020.00 284.00" xmlns="http://www.w3.org/2000/svg" xmlns:xlink="http://www.w3.org/1999/xlink">
<g id="graph0" class="graph" transform="scale(1 1) rotate(0) translate(4 280)">
<title>dependencies</title>
<polygon fill="#ffffff" stroke="transparent" points="-4,4 -4,-280 1016,-280 1016,4 -4,4"/>
<text text-anchor="start" x="485.0091" y="-42.4" font-family="sans-serif" font-weight="bold" font-size="14.00" fill="#000000">Legend</text>
<polygon fill="#ffffb3" stroke="transparent" points="272,-10 272,-30 292,-30 292,-10 272,-10"/>
<text text-anchor="start" x="295.629" y="-15.4" font-family="sans-serif" font-size="14.00" fill="#000000"> &#160;Declarations</text>
<polygon fill="#8dd3c7" stroke="transparent" points="385,-10 385,-30 405,-30 405,-10 385,-10"/>
<text text-anchor="start" x="408.7251" y="-15.4" font-family="sans-serif" font-size="14.00" fill="#000000"> &#160;Module</text>
<polygon fill="#80b1d3" stroke="transparent" points="471,-10 471,-30 491,-30 491,-10 471,-10"/>
<text text-anchor="start" x="494.7812" y="-15.4" font-family="sans-serif" font-size="14.00" fill="#000000"> &#160;Bootstrap</text>
<polygon fill="#fdb462" stroke="transparent" points="568,-10 568,-30 588,-30 588,-10 568,-10"/>
<text text-anchor="start" x="591.6732" y="-15.4" font-family="sans-serif" font-size="14.00" fill="#000000"> &#160;Providers</text>
<polygon fill="#fb8072" stroke="transparent" points="664,-10 664,-30 684,-30 684,-10 664,-10"/>
<text text-anchor="start" x="687.7258" y="-15.4" font-family="sans-serif" font-size="14.00" fill="#000000"> &#160;Exports</text>
<g id="clust1" class="cluster">
<title>cluster_AtftObjectModule</title>
<polygon fill="none" stroke="#000000" stroke-dasharray="1,5" points="8,-70 8,-268 1004,-268 1004,-70 8,-70"/>
</g>
<g id="clust2" class="cluster">
<title>cluster_AtftObjectModule_declarations</title>
<polygon fill="none" stroke="#000000" points="855,-78 855,-130 985,-130 985,-78 855,-78"/>
</g>
<g id="clust4" class="cluster">
<title>cluster_AtftObjectModule_imports</title>
<polygon fill="none" stroke="#000000" points="27,-78 27,-130 847,-130 847,-78 27,-78"/>
</g>
<g id="clust5" class="cluster">
<title>cluster_AtftObjectModule_exports</title>
<polygon fill="none" stroke="#000000" points="16,-208 16,-260 996,-260 996,-208 16,-208"/>
</g>
<!-- SceneComponent -->
<g id="node1" class="node">
<title>SceneComponent</title>
<polygon fill="#ffffb3" stroke="#000000" points="977.2591,-122 862.7409,-122 862.7409,-86 977.2591,-86 977.2591,-122"/>
<text text-anchor="middle" x="920" y="-99.8" font-family="Times,serif" font-size="14.00" fill="#000000">SceneComponent</text>
</g>
<!-- AtftObjectModule -->
<g id="node2" class="node">
<title>AtftObjectModule</title>
<polygon fill="#8dd3c7" stroke="#000000" points="546.9159,-187 543.9159,-191 522.9159,-191 519.9159,-187 427.0841,-187 427.0841,-151 546.9159,-151 546.9159,-187"/>
<text text-anchor="middle" x="487" y="-164.8" font-family="Times,serif" font-size="14.00" fill="#000000">AtftObjectModule</text>
</g>
<!-- SceneComponent&#45;&gt;AtftObjectModule -->
<g id="edge1" class="edge">
<title>SceneComponent&#45;&gt;AtftObjectModule</title>
<path fill="none" stroke="#000000" d="M920,-122.2222C920,-140.8285 920,-167 920,-167 920,-167 556.7522,-167 556.7522,-167"/>
<polygon fill="#000000" stroke="#000000" points="556.7522,-163.5001 546.7522,-167 556.7522,-170.5001 556.7522,-163.5001"/>
</g>
<!-- AtftConnectorModule  -->
<g id="node9" class="node">
<title>AtftConnectorModule </title>
<polygon fill="#fb8072" stroke="#000000" points="987.9152,-252 844.0848,-252 844.0848,-216 987.9152,-216 987.9152,-252"/>
<text text-anchor="middle" x="916" y="-229.8" font-family="Times,serif" font-size="14.00" fill="#000000">AtftConnectorModule </text>
</g>
<!-- AtftObjectModule&#45;&gt;AtftConnectorModule  -->
<g id="edge8" class="edge">
<title>AtftObjectModule&#45;&gt;AtftConnectorModule </title>
<path fill="none" stroke="#000000" stroke-dasharray="5,2" d="M547.082,-172C651.0092,-172 853.3315,-172 853.3315,-172 853.3315,-172 853.3315,-205.7333 853.3315,-205.7333"/>
<polygon fill="#000000" stroke="#000000" points="849.8316,-205.7333 853.3315,-215.7333 856.8316,-205.7333 849.8316,-205.7333"/>
</g>
<!-- AtftHelperModule  -->
<g id="node10" class="node">
<title>AtftHelperModule </title>
<polygon fill="#fb8072" stroke="#000000" points="825.6856,-252 702.3144,-252 702.3144,-216 825.6856,-216 825.6856,-252"/>
<text text-anchor="middle" x="764" y="-229.8" font-family="Times,serif" font-size="14.00" fill="#000000">AtftHelperModule </text>
</g>
<!-- AtftObjectModule&#45;&gt;AtftHelperModule  -->
<g id="edge9" class="edge">
<title>AtftObjectModule&#45;&gt;AtftHelperModule </title>
<path fill="none" stroke="#000000" stroke-dasharray="5,2" d="M546.8687,-177C633.7769,-177 784.6142,-177 784.6142,-177 784.6142,-177 784.6142,-205.9648 784.6142,-205.9648"/>
<polygon fill="#000000" stroke="#000000" points="781.1143,-205.9648 784.6142,-215.9648 788.1143,-205.9649 781.1143,-205.9648"/>
</g>
<!-- AtftLightModule  -->
<g id="node11" class="node">
<title>AtftLightModule </title>
<polygon fill="#fb8072" stroke="#000000" points="683.932,-252 568.068,-252 568.068,-216 683.932,-216 683.932,-252"/>
<text text-anchor="middle" x="626" y="-229.8" font-family="Times,serif" font-size="14.00" fill="#000000">AtftLightModule </text>
</g>
<!-- AtftObjectModule&#45;&gt;AtftLightModule  -->
<g id="edge10" class="edge">
<title>AtftObjectModule&#45;&gt;AtftLightModule </title>
<path fill="none" stroke="#000000" stroke-dasharray="5,2" d="M546.9371,-182C584.0076,-182 624.5633,-182 624.5633,-182 624.5633,-182 624.5633,-205.8129 624.5633,-205.8129"/>
<polygon fill="#000000" stroke="#000000" points="621.0634,-205.8129 624.5633,-215.8129 628.0634,-205.813 621.0634,-205.8129"/>
</g>
<!-- AtftLoaderModule  -->
<g id="node12" class="node">
<title>AtftLoaderModule </title>
<polygon fill="#fb8072" stroke="#000000" points="549.7408,-252 424.2592,-252 424.2592,-216 549.7408,-216 549.7408,-252"/>
<text text-anchor="middle" x="487" y="-229.8" font-family="Times,serif" font-size="14.00" fill="#000000">AtftLoaderModule </text>
</g>
<!-- AtftObjectModule&#45;&gt;AtftLoaderModule  -->
<g id="edge11" class="edge">
<title>AtftObjectModule&#45;&gt;AtftLoaderModule </title>
<path fill="none" stroke="#000000" stroke-dasharray="5,2" d="M487,-187.1061C487,-187.1061 487,-205.991 487,-205.991"/>
<polygon fill="#000000" stroke="#000000" points="483.5001,-205.9909 487,-215.991 490.5001,-205.991 483.5001,-205.9909"/>
</g>
<!-- AtftMeshModule  -->
<g id="node13" class="node">
<title>AtftMeshModule </title>
<polygon fill="#fb8072" stroke="#000000" points="406.2024,-252 289.7976,-252 289.7976,-216 406.2024,-216 406.2024,-252"/>
<text text-anchor="middle" x="348" y="-229.8" font-family="Times,serif" font-size="14.00" fill="#000000">AtftMeshModule </text>
</g>
<!-- AtftObjectModule&#45;&gt;AtftMeshModule  -->
<g id="edge12" class="edge">
<title>AtftObjectModule&#45;&gt;AtftMeshModule </title>
<path fill="none" stroke="#000000" stroke-dasharray="5,2" d="M427.0207,-182C382.5217,-182 329.5368,-182 329.5368,-182 329.5368,-182 329.5368,-205.8129 329.5368,-205.8129"/>
<polygon fill="#000000" stroke="#000000" points="326.0369,-205.8129 329.5368,-215.8129 333.0369,-205.813 326.0369,-205.8129"/>
</g>
<!-- AtftTextModule  -->
<g id="node14" class="node">
<title>AtftTextModule </title>
<polygon fill="#fb8072" stroke="#000000" points="271.7563,-252 160.2437,-252 160.2437,-216 271.7563,-216 271.7563,-252"/>
<text text-anchor="middle" x="216" y="-229.8" font-family="Times,serif" font-size="14.00" fill="#000000">AtftTextModule </text>
</g>
<!-- AtftObjectModule&#45;&gt;AtftTextModule  -->
<g id="edge13" class="edge">
<title>AtftObjectModule&#45;&gt;AtftTextModule </title>
<path fill="none" stroke="#000000" stroke-dasharray="5,2" d="M427.0103,-177C342.2067,-177 197.4753,-177 197.4753,-177 197.4753,-177 197.4753,-205.9648 197.4753,-205.9648"/>
<polygon fill="#000000" stroke="#000000" points="193.9754,-205.9648 197.4753,-215.9648 200.9754,-205.9649 193.9754,-205.9648"/>
</g>
<!-- SceneComponent  -->
<g id="node15" class="node">
<title>SceneComponent </title>
<polygon fill="#fb8072" stroke="#000000" points="142.2591,-252 23.7409,-252 23.7409,-216 142.2591,-216 142.2591,-252"/>
<text text-anchor="middle" x="83" y="-229.8" font-family="Times,serif" font-size="14.00" fill="#000000">SceneComponent </text>
</g>
<!-- AtftObjectModule&#45;&gt;SceneComponent  -->
<g id="edge14" class="edge">
<title>AtftObjectModule&#45;&gt;SceneComponent </title>
<path fill="none" stroke="#000000" stroke-dasharray="5,2" d="M426.9242,-172C311.6631,-172 70.7911,-172 70.7911,-172 70.7911,-172 70.7911,-205.7333 70.7911,-205.7333"/>
<polygon fill="#000000" stroke="#000000" points="67.2912,-205.7333 70.7911,-215.7333 74.2912,-205.7333 67.2912,-205.7333"/>
</g>
<!-- AtftConnectorModule -->
<g id="node3" class="node">
<title>AtftConnectorModule</title>
<polygon fill="#8dd3c7" stroke="#000000" points="839.4158,-122 836.4158,-126 815.4158,-126 812.4158,-122 698.5842,-122 698.5842,-86 839.4158,-86 839.4158,-122"/>
<text text-anchor="middle" x="769" y="-99.8" font-family="Times,serif" font-size="14.00" fill="#000000">AtftConnectorModule</text>
</g>
<!-- AtftConnectorModule&#45;&gt;AtftObjectModule -->
<g id="edge2" class="edge">
<title>AtftConnectorModule&#45;&gt;AtftObjectModule</title>
<path fill="none" stroke="#000000" d="M743.3858,-122.0336C743.3858,-139.0597 743.3858,-162 743.3858,-162 743.3858,-162 556.7875,-162 556.7875,-162"/>
<polygon fill="#000000" stroke="#000000" points="556.7875,-158.5001 546.7875,-162 556.7875,-165.5001 556.7875,-158.5001"/>
</g>
<!-- AtftHelperModule -->
<g id="node4" class="node">
<title>AtftHelperModule</title>
<polygon fill="#8dd3c7" stroke="#000000" points="681.1853,-122 678.1853,-126 657.1853,-126 654.1853,-122 560.8147,-122 560.8147,-86 681.1853,-86 681.1853,-122"/>
<text text-anchor="middle" x="621" y="-99.8" font-family="Times,serif" font-size="14.00" fill="#000000">AtftHelperModule</text>
</g>
<!-- AtftHelperModule&#45;&gt;AtftObjectModule -->
<g id="edge3" class="edge">
<title>AtftHelperModule&#45;&gt;AtftObjectModule</title>
<path fill="none" stroke="#000000" d="M564.4707,-122.2396C564.4707,-137.5706 564.4707,-157 564.4707,-157 564.4707,-157 556.8914,-157 556.8914,-157"/>
<polygon fill="#000000" stroke="#000000" points="556.8914,-153.5001 546.8914,-157 556.8914,-160.5001 556.8914,-153.5001"/>
</g>
<!-- AtftLightModule -->
<g id="node5" class="node">
<title>AtftLightModule</title>
<polygon fill="#8dd3c7" stroke="#000000" points="543.4328,-122 540.4328,-126 519.4328,-126 516.4328,-122 430.5672,-122 430.5672,-86 543.4328,-86 543.4328,-122"/>
<text text-anchor="middle" x="487" y="-99.8" font-family="Times,serif" font-size="14.00" fill="#000000">AtftLightModule</text>
</g>
<!-- AtftLightModule&#45;&gt;AtftObjectModule -->
<g id="edge4" class="edge">
<title>AtftLightModule&#45;&gt;AtftObjectModule</title>
<path fill="none" stroke="#000000" d="M487,-122.1061C487,-122.1061 487,-140.991 487,-140.991"/>
<polygon fill="#000000" stroke="#000000" points="483.5001,-140.9909 487,-150.991 490.5001,-140.991 483.5001,-140.9909"/>
</g>
<!-- AtftLoaderModule -->
<g id="node6" class="node">
<title>AtftLoaderModule</title>
<polygon fill="#8dd3c7" stroke="#000000" points="412.7409,-122 409.7409,-126 388.7409,-126 385.7409,-122 291.2591,-122 291.2591,-86 412.7409,-86 412.7409,-122"/>
<text text-anchor="middle" x="352" y="-99.8" font-family="Times,serif" font-size="14.00" fill="#000000">AtftLoaderModule</text>
</g>
<!-- AtftLoaderModule&#45;&gt;AtftObjectModule -->
<g id="edge5" class="edge">
<title>AtftLoaderModule&#45;&gt;AtftObjectModule</title>
<path fill="none" stroke="#000000" d="M367.9439,-122.2396C367.9439,-137.5706 367.9439,-157 367.9439,-157 367.9439,-157 417.1232,-157 417.1232,-157"/>
<polygon fill="#000000" stroke="#000000" points="417.1232,-160.5001 427.1232,-157 417.1231,-153.5001 417.1232,-160.5001"/>
</g>
<!-- AtftMeshModule -->
<g id="node7" class="node">
<title>AtftMeshModule</title>
<polygon fill="#8dd3c7" stroke="#000000" points="273.7022,-122 270.7022,-126 249.7022,-126 246.7022,-122 160.2978,-122 160.2978,-86 273.7022,-86 273.7022,-122"/>
<text text-anchor="middle" x="217" y="-99.8" font-family="Times,serif" font-size="14.00" fill="#000000">AtftMeshModule</text>
</g>
<!-- AtftMeshModule&#45;&gt;AtftObjectModule -->
<g id="edge6" class="edge">
<title>AtftMeshModule&#45;&gt;AtftObjectModule</title>
<path fill="none" stroke="#000000" d="M234.5517,-122.0336C234.5517,-139.0597 234.5517,-162 234.5517,-162 234.5517,-162 417.1733,-162 417.1733,-162"/>
<polygon fill="#000000" stroke="#000000" points="417.1733,-165.5001 427.1733,-162 417.1732,-158.5001 417.1733,-165.5001"/>
</g>
<!-- AtftTextModule -->
<g id="node8" class="node">
<title>AtftTextModule</title>
<polygon fill="#8dd3c7" stroke="#000000" points="142.7563,-122 139.7563,-126 118.7563,-126 115.7563,-122 35.2437,-122 35.2437,-86 142.7563,-86 142.7563,-122"/>
<text text-anchor="middle" x="89" y="-99.8" font-family="Times,serif" font-size="14.00" fill="#000000">AtftTextModule</text>
</g>
<!-- AtftTextModule&#45;&gt;AtftObjectModule -->
<g id="edge7" class="edge">
<title>AtftTextModule&#45;&gt;AtftObjectModule</title>
<path fill="none" stroke="#000000" d="M106.4603,-122.2222C106.4603,-140.8285 106.4603,-167 106.4603,-167 106.4603,-167 417.122,-167 417.122,-167"/>
<polygon fill="#000000" stroke="#000000" points="417.1221,-170.5001 427.122,-167 417.122,-163.5001 417.1221,-170.5001"/>
</g>
</g>
</svg>
