<?xml version="1.0" encoding="UTF-8" standalone="no"?>
<!DOCTYPE svg PUBLIC "-//W3C//DTD SVG 1.1//EN"
 "http://www.w3.org/Graphics/SVG/1.1/DTD/svg11.dtd">
<!-- Generated by graphviz version 2.40.1 (20161225.0304)
 -->
<!-- Title: dependencies Pages: 1 -->
<svg width="1984pt" height="284pt"
 viewBox="0.00 0.00 1984.00 284.00" xmlns="http://www.w3.org/2000/svg" xmlns:xlink="http://www.w3.org/1999/xlink">
<g id="graph0" class="graph" transform="scale(1 1) rotate(0) translate(4 280)">
<title>dependencies</title>
<polygon fill="#ffffff" stroke="transparent" points="-4,4 -4,-280 1980,-280 1980,4 -4,4"/>
<text text-anchor="start" x="967.0091" y="-42.4" font-family="sans-serif" font-weight="bold" font-size="14.00" fill="#000000">Legend</text>
<polygon fill="#ffffb3" stroke="transparent" points="754,-10 754,-30 774,-30 774,-10 754,-10"/>
<text text-anchor="start" x="777.629" y="-15.4" font-family="sans-serif" font-size="14.00" fill="#000000"> &#160;Declarations</text>
<polygon fill="#8dd3c7" stroke="transparent" points="867,-10 867,-30 887,-30 887,-10 867,-10"/>
<text text-anchor="start" x="890.7251" y="-15.4" font-family="sans-serif" font-size="14.00" fill="#000000"> &#160;Module</text>
<polygon fill="#80b1d3" stroke="transparent" points="953,-10 953,-30 973,-30 973,-10 953,-10"/>
<text text-anchor="start" x="976.7812" y="-15.4" font-family="sans-serif" font-size="14.00" fill="#000000"> &#160;Bootstrap</text>
<polygon fill="#fdb462" stroke="transparent" points="1050,-10 1050,-30 1070,-30 1070,-10 1050,-10"/>
<text text-anchor="start" x="1073.6732" y="-15.4" font-family="sans-serif" font-size="14.00" fill="#000000"> &#160;Providers</text>
<polygon fill="#fb8072" stroke="transparent" points="1146,-10 1146,-30 1166,-30 1166,-10 1146,-10"/>
<text text-anchor="start" x="1169.7258" y="-15.4" font-family="sans-serif" font-size="14.00" fill="#000000"> &#160;Exports</text>
<g id="clust1" class="cluster">
<title>cluster_AtftObjectModule</title>
<polygon fill="none" stroke="#000000" stroke-dasharray="1,5" points="8,-70 8,-268 1968,-268 1968,-70 8,-70"/>
</g>
<g id="clust2" class="cluster">
<title>cluster_AtftObjectModule_declarations</title>
<polygon fill="none" stroke="#000000" points="1628,-78 1628,-130 1960,-130 1960,-78 1628,-78"/>
</g>
<g id="clust5" class="cluster">
<title>cluster_AtftObjectModule_imports</title>
<polygon fill="none" stroke="#000000" points="800,-78 800,-130 1620,-130 1620,-78 800,-78"/>
</g>
<g id="clust6" class="cluster">
<title>cluster_AtftObjectModule_exports</title>
<polygon fill="none" stroke="#000000" points="519,-208 519,-260 1499,-260 1499,-208 519,-208"/>
</g>
<g id="clust8" class="cluster">
<title>cluster_AtftObjectModule_providers</title>
<polygon fill="none" stroke="#000000" points="16,-78 16,-130 792,-130 792,-78 16,-78"/>
</g>
<!-- ContentProjectionComponent -->
<g id="node1" class="node">
<title>ContentProjectionComponent</title>
<polygon fill="#ffffb3" stroke="#000000" points="1951.7091,-122 1768.2909,-122 1768.2909,-86 1951.7091,-86 1951.7091,-122"/>
<text text-anchor="middle" x="1860" y="-99.8" font-family="Times,serif" font-size="14.00" fill="#000000">ContentProjectionComponent</text>
</g>
<!-- AtftObjectModule -->
<g id="node3" class="node">
<title>AtftObjectModule</title>
<polygon fill="#8dd3c7" stroke="#000000" points="1049.9159,-187 1046.9159,-191 1025.9159,-191 1022.9159,-187 930.0841,-187 930.0841,-151 1049.9159,-151 1049.9159,-187"/>
<text text-anchor="middle" x="990" y="-164.8" font-family="Times,serif" font-size="14.00" fill="#000000">AtftObjectModule</text>
</g>
<!-- ContentProjectionComponent&#45;&gt;AtftObjectModule -->
<g id="edge1" class="edge">
<title>ContentProjectionComponent&#45;&gt;AtftObjectModule</title>
<path fill="none" stroke="#000000" d="M1860,-122.1289C1860,-142.5724 1860,-173 1860,-173 1860,-173 1059.7986,-173 1059.7986,-173"/>
<polygon fill="#000000" stroke="#000000" points="1059.7987,-169.5001 1049.7986,-173 1059.7986,-176.5001 1059.7987,-169.5001"/>
</g>
<!-- SceneComponent -->
<g id="node2" class="node">
<title>SceneComponent</title>
<polygon fill="#ffffb3" stroke="#000000" points="1750.2591,-122 1635.7409,-122 1635.7409,-86 1750.2591,-86 1750.2591,-122"/>
<text text-anchor="middle" x="1693" y="-99.8" font-family="Times,serif" font-size="14.00" fill="#000000">SceneComponent</text>
</g>
<!-- SceneComponent&#45;&gt;AtftObjectModule -->
<g id="edge2" class="edge">
<title>SceneComponent&#45;&gt;AtftObjectModule</title>
<path fill="none" stroke="#000000" d="M1693,-122.1061C1693,-141.3391 1693,-169 1693,-169 1693,-169 1059.9374,-169 1059.9374,-169"/>
<polygon fill="#000000" stroke="#000000" points="1059.9374,-165.5001 1049.9374,-169 1059.9373,-172.5001 1059.9374,-165.5001"/>
</g>
<!-- AtftConnectorModule  -->
<g id="node10" class="node">
<title>AtftConnectorModule </title>
<polygon fill="#fb8072" stroke="#000000" points="1490.9152,-252 1347.0848,-252 1347.0848,-216 1490.9152,-216 1490.9152,-252"/>
<text text-anchor="middle" x="1419" y="-229.8" font-family="Times,serif" font-size="14.00" fill="#000000">AtftConnectorModule </text>
</g>
<!-- AtftObjectModule&#45;&gt;AtftConnectorModule  -->
<g id="edge9" class="edge">
<title>AtftObjectModule&#45;&gt;AtftConnectorModule </title>
<path fill="none" stroke="#000000" stroke-dasharray="5,2" d="M1050.1397,-177C1164.1788,-177 1400.5675,-177 1400.5675,-177 1400.5675,-177 1400.5675,-205.9648 1400.5675,-205.9648"/>
<polygon fill="#000000" stroke="#000000" points="1397.0676,-205.9648 1400.5675,-215.9648 1404.0676,-205.9649 1397.0676,-205.9648"/>
</g>
<!-- AtftHelperModule  -->
<g id="node11" class="node">
<title>AtftHelperModule </title>
<polygon fill="#fb8072" stroke="#000000" points="1328.6856,-252 1205.3144,-252 1205.3144,-216 1328.6856,-216 1328.6856,-252"/>
<text text-anchor="middle" x="1267" y="-229.8" font-family="Times,serif" font-size="14.00" fill="#000000">AtftHelperModule </text>
</g>
<!-- AtftObjectModule&#45;&gt;AtftHelperModule  -->
<g id="edge10" class="edge">
<title>AtftObjectModule&#45;&gt;AtftHelperModule </title>
<path fill="none" stroke="#000000" stroke-dasharray="5,2" d="M1049.7624,-180C1124.3345,-180 1242.1769,-180 1242.1769,-180 1242.1769,-180 1242.1769,-205.7181 1242.1769,-205.7181"/>
<polygon fill="#000000" stroke="#000000" points="1238.677,-205.718 1242.1769,-215.7181 1245.677,-205.7181 1238.677,-205.718"/>
</g>
<!-- AtftLightModule  -->
<g id="node12" class="node">
<title>AtftLightModule </title>
<polygon fill="#fb8072" stroke="#000000" points="1186.932,-252 1071.068,-252 1071.068,-216 1186.932,-216 1186.932,-252"/>
<text text-anchor="middle" x="1129" y="-229.8" font-family="Times,serif" font-size="14.00" fill="#000000">AtftLightModule </text>
</g>
<!-- AtftObjectModule&#45;&gt;AtftLightModule  -->
<g id="edge11" class="edge">
<title>AtftObjectModule&#45;&gt;AtftLightModule </title>
<path fill="none" stroke="#000000" stroke-dasharray="5,2" d="M1050.0059,-184C1079.7172,-184 1109.3128,-184 1109.3128,-184 1109.3128,-184 1109.3128,-205.9489 1109.3128,-205.9489"/>
<polygon fill="#000000" stroke="#000000" points="1105.8129,-205.9488 1109.3128,-215.9489 1112.8129,-205.9489 1105.8129,-205.9488"/>
</g>
<!-- AtftLoaderModule  -->
<g id="node13" class="node">
<title>AtftLoaderModule </title>
<polygon fill="#fb8072" stroke="#000000" points="1052.7408,-252 927.2592,-252 927.2592,-216 1052.7408,-216 1052.7408,-252"/>
<text text-anchor="middle" x="990" y="-229.8" font-family="Times,serif" font-size="14.00" fill="#000000">AtftLoaderModule </text>
</g>
<!-- AtftObjectModule&#45;&gt;AtftLoaderModule  -->
<g id="edge12" class="edge">
<title>AtftObjectModule&#45;&gt;AtftLoaderModule </title>
<path fill="none" stroke="#000000" stroke-dasharray="5,2" d="M990,-187.1061C990,-187.1061 990,-205.991 990,-205.991"/>
<polygon fill="#000000" stroke="#000000" points="986.5001,-205.9909 990,-215.991 993.5001,-205.991 986.5001,-205.9909"/>
</g>
<!-- AtftMeshModule  -->
<g id="node14" class="node">
<title>AtftMeshModule </title>
<polygon fill="#fb8072" stroke="#000000" points="909.2024,-252 792.7976,-252 792.7976,-216 909.2024,-216 909.2024,-252"/>
<text text-anchor="middle" x="851" y="-229.8" font-family="Times,serif" font-size="14.00" fill="#000000">AtftMeshModule </text>
</g>
<!-- AtftObjectModule&#45;&gt;AtftMeshModule  -->
<g id="edge13" class="edge">
<title>AtftObjectModule&#45;&gt;AtftMeshModule </title>
<path fill="none" stroke="#000000" stroke-dasharray="5,2" d="M930.1748,-184C889.0619,-184 841.865,-184 841.865,-184 841.865,-184 841.865,-205.9489 841.865,-205.9489"/>
<polygon fill="#000000" stroke="#000000" points="838.3651,-205.9488 841.865,-215.9489 845.3651,-205.9489 838.3651,-205.9488"/>
</g>
<!-- AtftTextModule  -->
<g id="node15" class="node">
<title>AtftTextModule </title>
<polygon fill="#fb8072" stroke="#000000" points="774.7563,-252 663.2437,-252 663.2437,-216 774.7563,-216 774.7563,-252"/>
<text text-anchor="middle" x="719" y="-229.8" font-family="Times,serif" font-size="14.00" fill="#000000">AtftTextModule </text>
</g>
<!-- AtftObjectModule&#45;&gt;AtftTextModule  -->
<g id="edge14" class="edge">
<title>AtftObjectModule&#45;&gt;AtftTextModule </title>
<path fill="none" stroke="#000000" stroke-dasharray="5,2" d="M930.0694,-180C850.9256,-180 721.4636,-180 721.4636,-180 721.4636,-180 721.4636,-205.7181 721.4636,-205.7181"/>
<polygon fill="#000000" stroke="#000000" points="717.9637,-205.718 721.4636,-215.7181 724.9637,-205.7181 717.9637,-205.718"/>
</g>
<!-- SceneComponent  -->
<g id="node16" class="node">
<title>SceneComponent </title>
<polygon fill="#fb8072" stroke="#000000" points="645.2591,-252 526.7409,-252 526.7409,-216 645.2591,-216 645.2591,-252"/>
<text text-anchor="middle" x="586" y="-229.8" font-family="Times,serif" font-size="14.00" fill="#000000">SceneComponent </text>
</g>
<!-- AtftObjectModule&#45;&gt;SceneComponent  -->
<g id="edge15" class="edge">
<title>AtftObjectModule&#45;&gt;SceneComponent </title>
<path fill="none" stroke="#000000" stroke-dasharray="5,2" d="M930.1504,-177C814.646,-177 572.2762,-177 572.2762,-177 572.2762,-177 572.2762,-205.9648 572.2762,-205.9648"/>
<polygon fill="#000000" stroke="#000000" points="568.7763,-205.9648 572.2762,-215.9648 575.7763,-205.9649 568.7763,-205.9648"/>
</g>
<!-- AtftConnectorModule -->
<g id="node4" class="node">
<title>AtftConnectorModule</title>
<polygon fill="#8dd3c7" stroke="#000000" points="1612.4158,-122 1609.4158,-126 1588.4158,-126 1585.4158,-122 1471.5842,-122 1471.5842,-86 1612.4158,-86 1612.4158,-122"/>
<text text-anchor="middle" x="1542" y="-99.8" font-family="Times,serif" font-size="14.00" fill="#000000">AtftConnectorModule</text>
</g>
<!-- AtftConnectorModule&#45;&gt;AtftObjectModule -->
<g id="edge3" class="edge">
<title>AtftConnectorModule&#45;&gt;AtftObjectModule</title>
<path fill="none" stroke="#000000" d="M1481.375,-122.2667C1481.375,-140.5552 1481.375,-166 1481.375,-166 1481.375,-166 1059.761,-166 1059.761,-166"/>
<polygon fill="#000000" stroke="#000000" points="1059.761,-162.5001 1049.761,-166 1059.7609,-169.5001 1059.761,-162.5001"/>
</g>
<!-- AtftHelperModule -->
<g id="node5" class="node">
<title>AtftHelperModule</title>
<polygon fill="#8dd3c7" stroke="#000000" points="1454.1853,-122 1451.1853,-126 1430.1853,-126 1427.1853,-122 1333.8147,-122 1333.8147,-86 1454.1853,-86 1454.1853,-122"/>
<text text-anchor="middle" x="1394" y="-99.8" font-family="Times,serif" font-size="14.00" fill="#000000">AtftHelperModule</text>
</g>
<!-- AtftHelperModule&#45;&gt;AtftObjectModule -->
<g id="edge4" class="edge">
<title>AtftHelperModule&#45;&gt;AtftObjectModule</title>
<path fill="none" stroke="#000000" d="M1340.4749,-122.0336C1340.4749,-139.0597 1340.4749,-162 1340.4749,-162 1340.4749,-162 1059.8506,-162 1059.8506,-162"/>
<polygon fill="#000000" stroke="#000000" points="1059.8506,-158.5001 1049.8506,-162 1059.8505,-165.5001 1059.8506,-158.5001"/>
</g>
<!-- AtftLightModule -->
<g id="node6" class="node">
<title>AtftLightModule</title>
<polygon fill="#8dd3c7" stroke="#000000" points="1316.4328,-122 1313.4328,-126 1292.4328,-126 1289.4328,-122 1203.5672,-122 1203.5672,-86 1316.4328,-86 1316.4328,-122"/>
<text text-anchor="middle" x="1260" y="-99.8" font-family="Times,serif" font-size="14.00" fill="#000000">AtftLightModule</text>
</g>
<!-- AtftLightModule&#45;&gt;AtftObjectModule -->
<g id="edge5" class="edge">
<title>AtftLightModule&#45;&gt;AtftObjectModule</title>
<path fill="none" stroke="#000000" d="M1279.1965,-122.0091C1279.1965,-138.0494 1279.1965,-159 1279.1965,-159 1279.1965,-159 1059.9217,-159 1059.9217,-159"/>
<polygon fill="#000000" stroke="#000000" points="1059.9217,-155.5001 1049.9217,-159 1059.9217,-162.5001 1059.9217,-155.5001"/>
</g>
<!-- AtftLoaderModule -->
<g id="node7" class="node">
<title>AtftLoaderModule</title>
<polygon fill="#8dd3c7" stroke="#000000" points="1185.7409,-122 1182.7409,-126 1161.7409,-126 1158.7409,-122 1064.2591,-122 1064.2591,-86 1185.7409,-86 1185.7409,-122"/>
<text text-anchor="middle" x="1125" y="-99.8" font-family="Times,serif" font-size="14.00" fill="#000000">AtftLoaderModule</text>
</g>
<!-- AtftLoaderModule&#45;&gt;AtftObjectModule -->
<g id="edge6" class="edge">
<title>AtftLoaderModule&#45;&gt;AtftObjectModule</title>
<path fill="none" stroke="#000000" d="M1147.5915,-122.1243C1147.5915,-136.7832 1147.5915,-155 1147.5915,-155 1147.5915,-155 1060.0282,-155 1060.0282,-155"/>
<polygon fill="#000000" stroke="#000000" points="1060.0282,-151.5001 1050.0282,-155 1060.0281,-158.5001 1060.0282,-151.5001"/>
</g>
<!-- AtftMeshModule -->
<g id="node8" class="node">
<title>AtftMeshModule</title>
<polygon fill="#8dd3c7" stroke="#000000" points="1046.7022,-122 1043.7022,-126 1022.7022,-126 1019.7022,-122 933.2978,-122 933.2978,-86 1046.7022,-86 1046.7022,-122"/>
<text text-anchor="middle" x="990" y="-99.8" font-family="Times,serif" font-size="14.00" fill="#000000">AtftMeshModule</text>
</g>
<!-- AtftMeshModule&#45;&gt;AtftObjectModule -->
<g id="edge7" class="edge">
<title>AtftMeshModule&#45;&gt;AtftObjectModule</title>
<path fill="none" stroke="#000000" d="M990,-122.1061C990,-122.1061 990,-140.991 990,-140.991"/>
<polygon fill="#000000" stroke="#000000" points="986.5001,-140.9909 990,-150.991 993.5001,-140.991 986.5001,-140.9909"/>
</g>
<!-- AtftTextModule -->
<g id="node9" class="node">
<title>AtftTextModule</title>
<polygon fill="#8dd3c7" stroke="#000000" points="915.7563,-122 912.7563,-126 891.7563,-126 888.7563,-122 808.2437,-122 808.2437,-86 915.7563,-86 915.7563,-122"/>
<text text-anchor="middle" x="862" y="-99.8" font-family="Times,serif" font-size="14.00" fill="#000000">AtftTextModule</text>
</g>
<!-- AtftTextModule&#45;&gt;AtftObjectModule -->
<g id="edge8" class="edge">
<title>AtftTextModule&#45;&gt;AtftObjectModule</title>
<path fill="none" stroke="#000000" d="M875.608,-122.1243C875.608,-136.7832 875.608,-155 875.608,-155 875.608,-155 920.1238,-155 920.1238,-155"/>
<polygon fill="#000000" stroke="#000000" points="920.1238,-158.5001 930.1238,-155 920.1238,-151.5001 920.1238,-158.5001"/>
</g>
<!-- FontService -->
<g id="node17" class="node">
<title>FontService</title>
<ellipse fill="#fdb462" stroke="#000000" cx="726" cy="-104" rx="57.9023" ry="18"/>
<text text-anchor="middle" x="726" y="-99.8" font-family="Times,serif" font-size="14.00" fill="#000000">FontService</text>
</g>
<!-- FontService&#45;&gt;AtftObjectModule -->
<g id="edge16" class="edge">
<title>FontService&#45;&gt;AtftObjectModule</title>
<path fill="none" stroke="#000000" d="M779.1644,-111.1903C779.1644,-126.0987 779.1644,-159 779.1644,-159 779.1644,-159 920.1469,-159 920.1469,-159"/>
<polygon fill="#000000" stroke="#000000" points="920.147,-162.5001 930.1469,-159 920.1469,-155.5001 920.147,-162.5001"/>
</g>
<!-- IconService -->
<g id="node18" class="node">
<title>IconService</title>
<ellipse fill="#fdb462" stroke="#000000" cx="593" cy="-104" rx="57.3011" ry="18"/>
<text text-anchor="middle" x="593" y="-99.8" font-family="Times,serif" font-size="14.00" fill="#000000">IconService</text>
</g>
<!-- IconService&#45;&gt;AtftObjectModule -->
<g id="edge17" class="edge">
<title>IconService&#45;&gt;AtftObjectModule</title>
<path fill="none" stroke="#000000" d="M608.7028,-121.4019C608.7028,-138.4862 608.7028,-162 608.7028,-162 608.7028,-162 920.0029,-162 920.0029,-162"/>
<polygon fill="#000000" stroke="#000000" points="920.0029,-165.5001 930.0029,-162 920.0028,-158.5001 920.0029,-165.5001"/>
</g>
<!-- ModelService -->
<g id="node19" class="node">
<title>ModelService</title>
<ellipse fill="#fdb462" stroke="#000000" cx="453" cy="-104" rx="65.4072" ry="18"/>
<text text-anchor="middle" x="453" y="-99.8" font-family="Times,serif" font-size="14.00" fill="#000000">ModelService</text>
</g>
<!-- ModelService&#45;&gt;AtftObjectModule -->
<g id="edge18" class="edge">
<title>ModelService&#45;&gt;AtftObjectModule</title>
<path fill="none" stroke="#000000" d="M453,-122.2667C453,-140.5552 453,-166 453,-166 453,-166 920.2213,-166 920.2213,-166"/>
<polygon fill="#000000" stroke="#000000" points="920.2214,-169.5001 930.2213,-166 920.2213,-162.5001 920.2214,-169.5001"/>
</g>
<!-- ObjLoaderService -->
<g id="node20" class="node">
<title>ObjLoaderService</title>
<ellipse fill="#fdb462" stroke="#000000" cx="288" cy="-104" rx="81.6404" ry="18"/>
<text text-anchor="middle" x="288" y="-99.8" font-family="Times,serif" font-size="14.00" fill="#000000">ObjLoaderService</text>
</g>
<!-- ObjLoaderService&#45;&gt;AtftObjectModule -->
<g id="edge19" class="edge">
<title>ObjLoaderService&#45;&gt;AtftObjectModule</title>
<path fill="none" stroke="#000000" d="M288,-122.1061C288,-141.3391 288,-169 288,-169 288,-169 920.1479,-169 920.1479,-169"/>
<polygon fill="#000000" stroke="#000000" points="920.1479,-172.5001 930.1479,-169 920.1478,-165.5001 920.1479,-172.5001"/>
</g>
<!-- SvgLoaderService -->
<g id="node21" class="node">
<title>SvgLoaderService</title>
<ellipse fill="#fdb462" stroke="#000000" cx="106" cy="-104" rx="82.2237" ry="18"/>
<text text-anchor="middle" x="106" y="-99.8" font-family="Times,serif" font-size="14.00" fill="#000000">SvgLoaderService</text>
</g>
<!-- SvgLoaderService&#45;&gt;AtftObjectModule -->
<g id="edge20" class="edge">
<title>SvgLoaderService&#45;&gt;AtftObjectModule</title>
<path fill="none" stroke="#000000" d="M106,-122.1289C106,-142.5724 106,-173 106,-173 106,-173 920.2803,-173 920.2803,-173"/>
<polygon fill="#000000" stroke="#000000" points="920.2803,-176.5001 930.2803,-173 920.2802,-169.5001 920.2803,-176.5001"/>
</g>
</g>
</svg>
