<?xml version="1.0" encoding="UTF-8" standalone="no"?>
<!DOCTYPE svg PUBLIC "-//W3C//DTD SVG 1.1//EN"
 "http://www.w3.org/Graphics/SVG/1.1/DTD/svg11.dtd">
<!-- Generated by graphviz version 2.40.1 (20161225.0304)
 -->
<!-- Title: dependencies Pages: 1 -->
<svg width="796pt" height="349pt"
 viewBox="0.00 0.00 796.00 349.00" xmlns="http://www.w3.org/2000/svg" xmlns:xlink="http://www.w3.org/1999/xlink">
<g id="graph0" class="graph" transform="scale(1 1) rotate(0) translate(4 345)">
<title>dependencies</title>
<polygon fill="#ffffff" stroke="transparent" points="-4,4 -4,-345 792,-345 792,4 -4,4"/>
<text text-anchor="start" x="373.0091" y="-42.4" font-family="sans-serif" font-weight="bold" font-size="14.00" fill="#000000">Legend</text>
<polygon fill="#ffffb3" stroke="transparent" points="160,-10 160,-30 180,-30 180,-10 160,-10"/>
<text text-anchor="start" x="183.629" y="-15.4" font-family="sans-serif" font-size="14.00" fill="#000000"> &#160;Declarations</text>
<polygon fill="#8dd3c7" stroke="transparent" points="273,-10 273,-30 293,-30 293,-10 273,-10"/>
<text text-anchor="start" x="296.7251" y="-15.4" font-family="sans-serif" font-size="14.00" fill="#000000"> &#160;Module</text>
<polygon fill="#80b1d3" stroke="transparent" points="359,-10 359,-30 379,-30 379,-10 359,-10"/>
<text text-anchor="start" x="382.7812" y="-15.4" font-family="sans-serif" font-size="14.00" fill="#000000"> &#160;Bootstrap</text>
<polygon fill="#fdb462" stroke="transparent" points="456,-10 456,-30 476,-30 476,-10 456,-10"/>
<text text-anchor="start" x="479.6732" y="-15.4" font-family="sans-serif" font-size="14.00" fill="#000000"> &#160;Providers</text>
<polygon fill="#fb8072" stroke="transparent" points="552,-10 552,-30 572,-30 572,-10 552,-10"/>
<text text-anchor="start" x="575.7258" y="-15.4" font-family="sans-serif" font-size="14.00" fill="#000000"> &#160;Exports</text>
<g id="clust1" class="cluster">
<title>cluster_AtftCameraModule</title>
<polygon fill="none" stroke="#000000" stroke-dasharray="1,5" points="8,-70 8,-333 780,-333 780,-70 8,-70"/>
</g>
<g id="clust2" class="cluster">
<title>cluster_AtftCameraModule_declarations</title>
<polygon fill="none" stroke="#000000" points="291,-143 291,-195 497,-195 497,-143 291,-143"/>
</g>
<g id="clust3" class="cluster">
<title>cluster_AtftCameraModule_PerspectiveCameraComponent_providers</title>
<polygon fill="none" stroke="#000000" points="16,-78 16,-130 772,-130 772,-78 16,-78"/>
</g>
<g id="clust5" class="cluster">
<title>cluster_AtftCameraModule_exports</title>
<polygon fill="none" stroke="#000000" points="290,-273 290,-325 498,-325 498,-273 290,-273"/>
</g>
<!-- PerspectiveCameraComponent -->
<g id="node1" class="node">
<title>PerspectiveCameraComponent</title>
<polygon fill="#ffffb3" stroke="#000000" points="488.8918,-187 299.1082,-187 299.1082,-151 488.8918,-151 488.8918,-187"/>
<text text-anchor="middle" x="394" y="-164.8" font-family="Times,serif" font-size="14.00" fill="#000000">PerspectiveCameraComponent</text>
</g>
<!-- AtftCameraModule -->
<g id="node2" class="node">
<title>AtftCameraModule</title>
<polygon fill="#8dd3c7" stroke="#000000" points="456.6303,-252 453.6303,-256 432.6303,-256 429.6303,-252 331.3697,-252 331.3697,-216 456.6303,-216 456.6303,-252"/>
<text text-anchor="middle" x="394" y="-229.8" font-family="Times,serif" font-size="14.00" fill="#000000">AtftCameraModule</text>
</g>
<!-- PerspectiveCameraComponent&#45;&gt;AtftCameraModule -->
<g id="edge1" class="edge">
<title>PerspectiveCameraComponent&#45;&gt;AtftCameraModule</title>
<path fill="none" stroke="#000000" d="M394,-187.1061C394,-187.1061 394,-205.991 394,-205.991"/>
<polygon fill="#000000" stroke="#000000" points="390.5001,-205.9909 394,-215.991 397.5001,-205.991 390.5001,-205.9909"/>
</g>
<!-- PerspectiveCameraComponent  -->
<g id="node4" class="node">
<title>PerspectiveCameraComponent </title>
<polygon fill="#fb8072" stroke="#000000" points="490.3914,-317 297.6086,-317 297.6086,-281 490.3914,-281 490.3914,-317"/>
<text text-anchor="middle" x="394" y="-294.8" font-family="Times,serif" font-size="14.00" fill="#000000">PerspectiveCameraComponent </text>
</g>
<!-- AtftCameraModule&#45;&gt;PerspectiveCameraComponent  -->
<g id="edge3" class="edge">
<title>AtftCameraModule&#45;&gt;PerspectiveCameraComponent </title>
<path fill="none" stroke="#000000" stroke-dasharray="5,2" d="M394,-252.1061C394,-252.1061 394,-270.991 394,-270.991"/>
<polygon fill="#000000" stroke="#000000" points="390.5001,-270.9909 394,-280.991 397.5001,-270.991 390.5001,-270.9909"/>
</g>
<!-- { provide: AbstractCamera, useExisting: forwardRef(() =&gt; PerspectiveCameraComponent) } -->
<g id="node3" class="node">
<title>{ provide: AbstractCamera, useExisting: forwardRef(() =&gt; PerspectiveCameraComponent) }</title>
<ellipse fill="#fdb462" stroke="#000000" cx="394" cy="-104" rx="370.2794" ry="18"/>
<text text-anchor="middle" x="394" y="-99.8" font-family="Times,serif" font-size="14.00" fill="#000000">{ provide: AbstractCamera, useExisting: forwardRef(() =&gt; PerspectiveCameraComponent) }</text>
</g>
<!-- { provide: AbstractCamera, useExisting: forwardRef(() =&gt; PerspectiveCameraComponent) }&#45;&gt;PerspectiveCameraComponent -->
<g id="edge2" class="edge">
<title>{ provide: AbstractCamera, useExisting: forwardRef(() =&gt; PerspectiveCameraComponent) }&#45;&gt;PerspectiveCameraComponent</title>
<path fill="none" stroke="#000000" d="M394,-122.1061C394,-122.1061 394,-140.991 394,-140.991"/>
<polygon fill="#000000" stroke="#000000" points="390.5001,-140.9909 394,-150.991 397.5001,-140.991 390.5001,-140.9909"/>
</g>
</g>
</svg>
