<?xml version="1.0" encoding="UTF-8" standalone="no"?>
<!DOCTYPE svg PUBLIC "-//W3C//DTD SVG 1.1//EN"
 "http://www.w3.org/Graphics/SVG/1.1/DTD/svg11.dtd">
<!-- Generated by graphviz version 2.47.0 (20210316.0004)
 -->
<!-- Title: dependencies Pages: 1 -->
<svg width="504pt" height="284pt"
 viewBox="0.00 0.00 504.00 284.00" xmlns="http://www.w3.org/2000/svg" xmlns:xlink="http://www.w3.org/1999/xlink">
<g id="graph0" class="graph" transform="scale(1 1) rotate(0) translate(4 280)">
<title>dependencies</title>
<polygon fill="white" stroke="transparent" points="-4,4 -4,-280 500,-280 500,4 -4,4"/>
<text text-anchor="start" x="227.01" y="-42.4" font-family="Times-12" font-weight="bold" font-size="14.00">Legend</text>
<polygon fill="#ffffb3" stroke="transparent" points="14,-10 14,-30 34,-30 34,-10 14,-10"/>
<text text-anchor="start" x="37.63" y="-15.4" font-family="Times-12" font-size="14.00"> &#160;Declarations</text>
<polygon fill="#8dd3c7" stroke="transparent" points="127,-10 127,-30 147,-30 147,-10 127,-10"/>
<text text-anchor="start" x="150.73" y="-15.4" font-family="Times-12" font-size="14.00"> &#160;Module</text>
<polygon fill="#80b1d3" stroke="transparent" points="213,-10 213,-30 233,-30 233,-10 213,-10"/>
<text text-anchor="start" x="236.78" y="-15.4" font-family="Times-12" font-size="14.00"> &#160;Bootstrap</text>
<polygon fill="#fdb462" stroke="transparent" points="310,-10 310,-30 330,-30 330,-10 310,-10"/>
<text text-anchor="start" x="333.67" y="-15.4" font-family="Times-12" font-size="14.00"> &#160;Providers</text>
<polygon fill="#fb8072" stroke="transparent" points="406,-10 406,-30 426,-30 426,-10 406,-10"/>
<text text-anchor="start" x="429.73" y="-15.4" font-family="Times-12" font-size="14.00"> &#160;Exports</text>
<g id="clust1" class="cluster">
<title>cluster_AtftCameraModule</title>
<polygon fill="none" stroke="black" stroke-dasharray="1,5" points="25,-70 25,-268 471,-268 471,-70 25,-70"/>
</g>
<g id="clust6" class="cluster">
<title>cluster_AtftCameraModule_exports</title>
<polygon fill="none" stroke="black" points="33,-208 33,-260 463,-260 463,-208 33,-208"/>
</g>
<g id="clust2" class="cluster">
<title>cluster_AtftCameraModule_declarations</title>
<polygon fill="none" stroke="black" points="37,-78 37,-130 460,-130 460,-78 37,-78"/>
</g>
<!-- OrthographicCameraComponent -->
<g id="node1" class="node">
<title>OrthographicCameraComponent</title>
<polygon fill="#ffffb3" stroke="black" points="451.5,-122 252.5,-122 252.5,-86 451.5,-86 451.5,-122"/>
<text text-anchor="middle" x="352" y="-99.8" font-family="Times,serif" font-size="14.00">OrthographicCameraComponent</text>
</g>
<!-- AtftCameraModule -->
<g id="node3" class="node">
<title>AtftCameraModule</title>
<polygon fill="#8dd3c7" stroke="black" points="202.63,-187 199.63,-191 178.63,-191 175.63,-187 77.37,-187 77.37,-151 202.63,-151 202.63,-187"/>
<text text-anchor="middle" x="140" y="-164.8" font-family="Times,serif" font-size="14.00">AtftCameraModule</text>
</g>
<!-- OrthographicCameraComponent&#45;&gt;AtftCameraModule -->
<g id="edge1" class="edge">
<title>OrthographicCameraComponent&#45;&gt;AtftCameraModule</title>
<path fill="none" stroke="black" d="M385.25,-122.02C385.25,-139.37 385.25,-163 385.25,-163 385.25,-163 212.84,-163 212.84,-163"/>
<polygon fill="black" stroke="black" points="212.84,-159.5 202.84,-163 212.84,-166.5 212.84,-159.5"/>
</g>
<!-- PerspectiveCameraComponent -->
<g id="node2" class="node">
<title>PerspectiveCameraComponent</title>
<polygon fill="#ffffb3" stroke="black" points="234.89,-122 45.11,-122 45.11,-86 234.89,-86 234.89,-122"/>
<text text-anchor="middle" x="140" y="-99.8" font-family="Times,serif" font-size="14.00">PerspectiveCameraComponent</text>
</g>
<!-- PerspectiveCameraComponent&#45;&gt;AtftCameraModule -->
<g id="edge2" class="edge">
<title>PerspectiveCameraComponent&#45;&gt;AtftCameraModule</title>
<path fill="none" stroke="black" d="M140,-122.11C140,-122.11 140,-140.99 140,-140.99"/>
<polygon fill="black" stroke="black" points="136.5,-140.99 140,-150.99 143.5,-140.99 136.5,-140.99"/>
</g>
<!-- OrthographicCameraComponent  -->
<g id="node4" class="node">
<title>OrthographicCameraComponent </title>
<polygon fill="#fb8072" stroke="black" points="454.5,-252 251.5,-252 251.5,-216 454.5,-216 454.5,-252"/>
<text text-anchor="middle" x="353" y="-229.8" font-family="Times,serif" font-size="14.00">OrthographicCameraComponent </text>
</g>
<!-- AtftCameraModule&#45;&gt;OrthographicCameraComponent  -->
<g id="edge3" class="edge">
<title>AtftCameraModule&#45;&gt;OrthographicCameraComponent </title>
<path fill="none" stroke="black" stroke-dasharray="5,2" d="M202.77,-175C254.27,-175 318.75,-175 318.75,-175 318.75,-175 318.75,-205.98 318.75,-205.98"/>
<polygon fill="black" stroke="black" points="315.25,-205.98 318.75,-215.98 322.25,-205.98 315.25,-205.98"/>
</g>
<!-- PerspectiveCameraComponent  -->
<g id="node5" class="node">
<title>PerspectiveCameraComponent </title>
<polygon fill="#fb8072" stroke="black" points="233.39,-252 40.61,-252 40.61,-216 233.39,-216 233.39,-252"/>
<text text-anchor="middle" x="137" y="-229.8" font-family="Times,serif" font-size="14.00">PerspectiveCameraComponent </text>
</g>
<!-- AtftCameraModule&#45;&gt;PerspectiveCameraComponent  -->
<g id="edge4" class="edge">
<title>AtftCameraModule&#45;&gt;PerspectiveCameraComponent </title>
<path fill="none" stroke="black" stroke-dasharray="5,2" d="M140,-187.11C140,-187.11 140,-205.99 140,-205.99"/>
<polygon fill="black" stroke="black" points="136.5,-205.99 140,-215.99 143.5,-205.99 136.5,-205.99"/>
</g>
</g>
</svg>
