<?xml version="1.0" encoding="UTF-8" standalone="no"?>
<!DOCTYPE svg PUBLIC "-//W3C//DTD SVG 1.1//EN"
 "http://www.w3.org/Graphics/SVG/1.1/DTD/svg11.dtd">
<!-- Generated by graphviz version 2.47.3 (20210619.1520)
 -->
<!-- Title: dependencies Pages: 1 -->
<svg width="470pt" height="247pt"
 viewBox="0.00 0.00 470.00 246.80" xmlns="http://www.w3.org/2000/svg" xmlns:xlink="http://www.w3.org/1999/xlink">
<g id="graph0" class="graph" transform="scale(1 1) rotate(0) translate(4 242.8)">
<title>dependencies</title>
<polygon fill="white" stroke="transparent" points="-4,4 -4,-242.8 466,-242.8 466,4 -4,4"/>
<text text-anchor="middle" x="231" y="-8.2" font-family="sans-serif" font-size="14.00">dependencies</text>
<g id="clust1" class="cluster">
<title>cluster_AtftCameraModule</title>
<polygon fill="none" stroke="black" stroke-dasharray="1,5" points="8,-32.8 8,-230.8 454,-230.8 454,-32.8 8,-32.8"/>
</g>
<g id="clust6" class="cluster">
<title>cluster_AtftCameraModule_exports</title>
<polygon fill="none" stroke="black" points="16,-170.8 16,-222.8 446,-222.8 446,-170.8 16,-170.8"/>
</g>
<g id="clust2" class="cluster">
<title>cluster_AtftCameraModule_declarations</title>
<polygon fill="none" stroke="black" points="20,-40.8 20,-92.8 443,-92.8 443,-40.8 20,-40.8"/>
</g>
<!-- OrthographicCameraComponent -->
<g id="node1" class="node">
<title>OrthographicCameraComponent</title>
<polygon fill="#ffffb3" stroke="black" points="434.5,-84.8 235.5,-84.8 235.5,-48.8 434.5,-48.8 434.5,-84.8"/>
<text text-anchor="middle" x="335" y="-62.6" font-family="Times,serif" font-size="14.00">OrthographicCameraComponent</text>
</g>
<!-- AtftCameraModule -->
<g id="node3" class="node">
<title>AtftCameraModule</title>
<polygon fill="#8dd3c7" stroke="black" points="185.63,-149.8 182.63,-153.8 161.63,-153.8 158.63,-149.8 60.37,-149.8 60.37,-113.8 185.63,-113.8 185.63,-149.8"/>
<text text-anchor="middle" x="123" y="-127.6" font-family="Times,serif" font-size="14.00">AtftCameraModule</text>
</g>
<!-- OrthographicCameraComponent&#45;&gt;AtftCameraModule -->
<g id="edge1" class="edge">
<title>OrthographicCameraComponent&#45;&gt;AtftCameraModule</title>
<path fill="none" stroke="black" d="M368.25,-84.82C368.25,-102.17 368.25,-125.8 368.25,-125.8 368.25,-125.8 195.84,-125.8 195.84,-125.8"/>
<polygon fill="black" stroke="black" points="195.84,-122.3 185.84,-125.8 195.84,-129.3 195.84,-122.3"/>
</g>
<!-- PerspectiveCameraComponent -->
<g id="node2" class="node">
<title>PerspectiveCameraComponent</title>
<polygon fill="#ffffb3" stroke="black" points="217.89,-84.8 28.11,-84.8 28.11,-48.8 217.89,-48.8 217.89,-84.8"/>
<text text-anchor="middle" x="123" y="-62.6" font-family="Times,serif" font-size="14.00">PerspectiveCameraComponent</text>
</g>
<!-- PerspectiveCameraComponent&#45;&gt;AtftCameraModule -->
<g id="edge2" class="edge">
<title>PerspectiveCameraComponent&#45;&gt;AtftCameraModule</title>
<path fill="none" stroke="black" d="M123,-84.91C123,-84.91 123,-103.79 123,-103.79"/>
<polygon fill="black" stroke="black" points="119.5,-103.79 123,-113.79 126.5,-103.79 119.5,-103.79"/>
</g>
<!-- OrthographicCameraComponent  -->
<g id="node4" class="node">
<title>OrthographicCameraComponent </title>
<polygon fill="#fb8072" stroke="black" points="437.5,-214.8 234.5,-214.8 234.5,-178.8 437.5,-178.8 437.5,-214.8"/>
<text text-anchor="middle" x="336" y="-192.6" font-family="Times,serif" font-size="14.00">OrthographicCameraComponent </text>
</g>
<!-- AtftCameraModule&#45;&gt;OrthographicCameraComponent  -->
<g id="edge3" class="edge">
<title>AtftCameraModule&#45;&gt;OrthographicCameraComponent </title>
<path fill="none" stroke="black" stroke-dasharray="5,2" d="M185.77,-137.8C237.27,-137.8 301.75,-137.8 301.75,-137.8 301.75,-137.8 301.75,-168.78 301.75,-168.78"/>
<polygon fill="black" stroke="black" points="298.25,-168.78 301.75,-178.78 305.25,-168.78 298.25,-168.78"/>
</g>
<!-- PerspectiveCameraComponent  -->
<g id="node5" class="node">
<title>PerspectiveCameraComponent </title>
<polygon fill="#fb8072" stroke="black" points="216.39,-214.8 23.61,-214.8 23.61,-178.8 216.39,-178.8 216.39,-214.8"/>
<text text-anchor="middle" x="120" y="-192.6" font-family="Times,serif" font-size="14.00">PerspectiveCameraComponent </text>
</g>
<!-- AtftCameraModule&#45;&gt;PerspectiveCameraComponent  -->
<g id="edge4" class="edge">
<title>AtftCameraModule&#45;&gt;PerspectiveCameraComponent </title>
<path fill="none" stroke="black" stroke-dasharray="5,2" d="M123,-149.91C123,-149.91 123,-168.79 123,-168.79"/>
<polygon fill="black" stroke="black" points="119.5,-168.79 123,-178.79 126.5,-168.79 119.5,-168.79"/>
</g>
</g>
</svg>
