<?xml version="1.0" encoding="UTF-8" standalone="no"?>
<!DOCTYPE svg PUBLIC "-//W3C//DTD SVG 1.1//EN"
 "http://www.w3.org/Graphics/SVG/1.1/DTD/svg11.dtd">
<!-- Generated by graphviz version 2.47.3 (20210619.1520)
 -->
<!-- Title: dependencies Pages: 1 -->
<svg width="395pt" height="247pt"
 viewBox="0.00 0.00 395.00 246.80" xmlns="http://www.w3.org/2000/svg" xmlns:xlink="http://www.w3.org/1999/xlink">
<g id="graph0" class="graph" transform="scale(1 1) rotate(0) translate(4 242.8)">
<title>dependencies</title>
<polygon fill="white" stroke="transparent" points="-4,4 -4,-242.8 391,-242.8 391,4 -4,4"/>
<text text-anchor="middle" x="193.5" y="-8.2" font-family="sans-serif" font-size="14.00">dependencies</text>
<g id="clust1" class="cluster">
<title>cluster_AtftControlModule</title>
<polygon fill="none" stroke="black" stroke-dasharray="1,5" points="8,-32.8 8,-230.8 379,-230.8 379,-32.8 8,-32.8"/>
</g>
<g id="clust6" class="cluster">
<title>cluster_AtftControlModule_exports</title>
<polygon fill="none" stroke="black" points="16,-170.8 16,-222.8 371,-222.8 371,-170.8 16,-170.8"/>
</g>
<g id="clust2" class="cluster">
<title>cluster_AtftControlModule_declarations</title>
<polygon fill="none" stroke="black" points="19,-40.8 19,-92.8 368,-92.8 368,-40.8 19,-40.8"/>
</g>
<!-- MapControlsComponent -->
<g id="node1" class="node">
<title>MapControlsComponent</title>
<polygon fill="#ffffb3" stroke="black" points="359.71,-84.8 204.29,-84.8 204.29,-48.8 359.71,-48.8 359.71,-84.8"/>
<text text-anchor="middle" x="282" y="-62.6" font-family="Times,serif" font-size="14.00">MapControlsComponent</text>
</g>
<!-- AtftControlModule -->
<g id="node3" class="node">
<title>AtftControlModule</title>
<polygon fill="#8dd3c7" stroke="black" points="169.38,-149.8 166.38,-153.8 145.38,-153.8 142.38,-149.8 44.62,-149.8 44.62,-113.8 169.38,-113.8 169.38,-149.8"/>
<text text-anchor="middle" x="107" y="-127.6" font-family="Times,serif" font-size="14.00">AtftControlModule</text>
</g>
<!-- MapControlsComponent&#45;&gt;AtftControlModule -->
<g id="edge1" class="edge">
<title>MapControlsComponent&#45;&gt;AtftControlModule</title>
<path fill="none" stroke="black" d="M307.95,-84.82C307.95,-102.17 307.95,-125.8 307.95,-125.8 307.95,-125.8 179.48,-125.8 179.48,-125.8"/>
<polygon fill="black" stroke="black" points="179.48,-122.3 169.48,-125.8 179.48,-129.3 179.48,-122.3"/>
</g>
<!-- OrbitControlsComponent -->
<g id="node2" class="node">
<title>OrbitControlsComponent</title>
<polygon fill="#ffffb3" stroke="black" points="186.6,-84.8 27.4,-84.8 27.4,-48.8 186.6,-48.8 186.6,-84.8"/>
<text text-anchor="middle" x="107" y="-62.6" font-family="Times,serif" font-size="14.00">OrbitControlsComponent</text>
</g>
<!-- OrbitControlsComponent&#45;&gt;AtftControlModule -->
<g id="edge2" class="edge">
<title>OrbitControlsComponent&#45;&gt;AtftControlModule</title>
<path fill="none" stroke="black" d="M107,-84.91C107,-84.91 107,-103.79 107,-103.79"/>
<polygon fill="black" stroke="black" points="103.5,-103.79 107,-113.79 110.5,-103.79 103.5,-103.79"/>
</g>
<!-- MapControlsComponent  -->
<g id="node4" class="node">
<title>MapControlsComponent </title>
<polygon fill="#fb8072" stroke="black" points="363.21,-214.8 204.79,-214.8 204.79,-178.8 363.21,-178.8 363.21,-214.8"/>
<text text-anchor="middle" x="284" y="-192.6" font-family="Times,serif" font-size="14.00">MapControlsComponent </text>
</g>
<!-- AtftControlModule&#45;&gt;MapControlsComponent  -->
<g id="edge3" class="edge">
<title>AtftControlModule&#45;&gt;MapControlsComponent </title>
<path fill="none" stroke="black" stroke-dasharray="5,2" d="M169.45,-137.8C210.36,-137.8 256.3,-137.8 256.3,-137.8 256.3,-137.8 256.3,-168.78 256.3,-168.78"/>
<polygon fill="black" stroke="black" points="252.8,-168.78 256.3,-178.78 259.8,-168.78 252.8,-168.78"/>
</g>
<!-- OrbitControlsComponent  -->
<g id="node5" class="node">
<title>OrbitControlsComponent </title>
<polygon fill="#fb8072" stroke="black" points="186.1,-214.8 23.9,-214.8 23.9,-178.8 186.1,-178.8 186.1,-214.8"/>
<text text-anchor="middle" x="105" y="-192.6" font-family="Times,serif" font-size="14.00">OrbitControlsComponent </text>
</g>
<!-- AtftControlModule&#45;&gt;OrbitControlsComponent  -->
<g id="edge4" class="edge">
<title>AtftControlModule&#45;&gt;OrbitControlsComponent </title>
<path fill="none" stroke="black" stroke-dasharray="5,2" d="M107,-149.91C107,-149.91 107,-168.79 107,-168.79"/>
<polygon fill="black" stroke="black" points="103.5,-168.79 107,-178.79 110.5,-168.79 103.5,-168.79"/>
</g>
</g>
</svg>
