<?xml version="1.0" encoding="UTF-8" standalone="no"?>
<!DOCTYPE svg PUBLIC "-//W3C//DTD SVG 1.1//EN"
 "http://www.w3.org/Graphics/SVG/1.1/DTD/svg11.dtd">
<!-- Generated by graphviz version 2.47.0 (20210316.0004)
 -->
<!-- Title: dependencies Pages: 1 -->
<svg width="504pt" height="284pt"
 viewBox="0.00 0.00 504.00 284.00" xmlns="http://www.w3.org/2000/svg" xmlns:xlink="http://www.w3.org/1999/xlink">
<g id="graph0" class="graph" transform="scale(1 1) rotate(0) translate(4 280)">
<title>dependencies</title>
<polygon fill="white" stroke="transparent" points="-4,4 -4,-280 500,-280 500,4 -4,4"/>
<text text-anchor="start" x="227.01" y="-42.4" font-family="Times-12" font-weight="bold" font-size="14.00">Legend</text>
<polygon fill="#ffffb3" stroke="transparent" points="14,-10 14,-30 34,-30 34,-10 14,-10"/>
<text text-anchor="start" x="37.63" y="-15.4" font-family="Times-12" font-size="14.00"> &#160;Declarations</text>
<polygon fill="#8dd3c7" stroke="transparent" points="127,-10 127,-30 147,-30 147,-10 127,-10"/>
<text text-anchor="start" x="150.73" y="-15.4" font-family="Times-12" font-size="14.00"> &#160;Module</text>
<polygon fill="#80b1d3" stroke="transparent" points="213,-10 213,-30 233,-30 233,-10 213,-10"/>
<text text-anchor="start" x="236.78" y="-15.4" font-family="Times-12" font-size="14.00"> &#160;Bootstrap</text>
<polygon fill="#fdb462" stroke="transparent" points="310,-10 310,-30 330,-30 330,-10 310,-10"/>
<text text-anchor="start" x="333.67" y="-15.4" font-family="Times-12" font-size="14.00"> &#160;Providers</text>
<polygon fill="#fb8072" stroke="transparent" points="406,-10 406,-30 426,-30 426,-10 406,-10"/>
<text text-anchor="start" x="429.73" y="-15.4" font-family="Times-12" font-size="14.00"> &#160;Exports</text>
<g id="clust1" class="cluster">
<title>cluster_AtftControlModule</title>
<polygon fill="none" stroke="black" stroke-dasharray="1,5" points="62.5,-70 62.5,-268 433.5,-268 433.5,-70 62.5,-70"/>
</g>
<g id="clust6" class="cluster">
<title>cluster_AtftControlModule_exports</title>
<polygon fill="none" stroke="black" points="70.5,-208 70.5,-260 425.5,-260 425.5,-208 70.5,-208"/>
</g>
<g id="clust2" class="cluster">
<title>cluster_AtftControlModule_declarations</title>
<polygon fill="none" stroke="black" points="73.5,-78 73.5,-130 422.5,-130 422.5,-78 73.5,-78"/>
</g>
<!-- MapControlsComponent -->
<g id="node1" class="node">
<title>MapControlsComponent</title>
<polygon fill="#ffffb3" stroke="black" points="414.21,-122 258.79,-122 258.79,-86 414.21,-86 414.21,-122"/>
<text text-anchor="middle" x="336.5" y="-99.8" font-family="Times,serif" font-size="14.00">MapControlsComponent</text>
</g>
<!-- AtftControlModule -->
<g id="node3" class="node">
<title>AtftControlModule</title>
<polygon fill="#8dd3c7" stroke="black" points="223.88,-187 220.88,-191 199.88,-191 196.88,-187 99.12,-187 99.12,-151 223.88,-151 223.88,-187"/>
<text text-anchor="middle" x="161.5" y="-164.8" font-family="Times,serif" font-size="14.00">AtftControlModule</text>
</g>
<!-- MapControlsComponent&#45;&gt;AtftControlModule -->
<g id="edge1" class="edge">
<title>MapControlsComponent&#45;&gt;AtftControlModule</title>
<path fill="none" stroke="black" d="M362.45,-122.02C362.45,-139.37 362.45,-163 362.45,-163 362.45,-163 233.98,-163 233.98,-163"/>
<polygon fill="black" stroke="black" points="233.98,-159.5 223.98,-163 233.98,-166.5 233.98,-159.5"/>
</g>
<!-- OrbitControlsComponent -->
<g id="node2" class="node">
<title>OrbitControlsComponent</title>
<polygon fill="#ffffb3" stroke="black" points="241.1,-122 81.9,-122 81.9,-86 241.1,-86 241.1,-122"/>
<text text-anchor="middle" x="161.5" y="-99.8" font-family="Times,serif" font-size="14.00">OrbitControlsComponent</text>
</g>
<!-- OrbitControlsComponent&#45;&gt;AtftControlModule -->
<g id="edge2" class="edge">
<title>OrbitControlsComponent&#45;&gt;AtftControlModule</title>
<path fill="none" stroke="black" d="M161.5,-122.11C161.5,-122.11 161.5,-140.99 161.5,-140.99"/>
<polygon fill="black" stroke="black" points="158,-140.99 161.5,-150.99 165,-140.99 158,-140.99"/>
</g>
<!-- MapControlsComponent  -->
<g id="node4" class="node">
<title>MapControlsComponent </title>
<polygon fill="#fb8072" stroke="black" points="417.71,-252 259.29,-252 259.29,-216 417.71,-216 417.71,-252"/>
<text text-anchor="middle" x="338.5" y="-229.8" font-family="Times,serif" font-size="14.00">MapControlsComponent </text>
</g>
<!-- AtftControlModule&#45;&gt;MapControlsComponent  -->
<g id="edge3" class="edge">
<title>AtftControlModule&#45;&gt;MapControlsComponent </title>
<path fill="none" stroke="black" stroke-dasharray="5,2" d="M223.95,-175C264.86,-175 310.8,-175 310.8,-175 310.8,-175 310.8,-205.98 310.8,-205.98"/>
<polygon fill="black" stroke="black" points="307.3,-205.98 310.8,-215.98 314.3,-205.98 307.3,-205.98"/>
</g>
<!-- OrbitControlsComponent  -->
<g id="node5" class="node">
<title>OrbitControlsComponent </title>
<polygon fill="#fb8072" stroke="black" points="240.6,-252 78.4,-252 78.4,-216 240.6,-216 240.6,-252"/>
<text text-anchor="middle" x="159.5" y="-229.8" font-family="Times,serif" font-size="14.00">OrbitControlsComponent </text>
</g>
<!-- AtftControlModule&#45;&gt;OrbitControlsComponent  -->
<g id="edge4" class="edge">
<title>AtftControlModule&#45;&gt;OrbitControlsComponent </title>
<path fill="none" stroke="black" stroke-dasharray="5,2" d="M161.5,-187.11C161.5,-187.11 161.5,-205.99 161.5,-205.99"/>
<polygon fill="black" stroke="black" points="158,-205.99 161.5,-215.99 165,-205.99 158,-205.99"/>
</g>
</g>
</svg>
