<?xml version="1.0" encoding="UTF-8" standalone="no"?>
<!DOCTYPE svg PUBLIC "-//W3C//DTD SVG 1.1//EN"
 "http://www.w3.org/Graphics/SVG/1.1/DTD/svg11.dtd">
<!-- Generated by graphviz version 2.40.1 (20161225.0304)
 -->
<!-- Title: dependencies Pages: 1 -->
<svg width="504pt" height="284pt"
 viewBox="0.00 0.00 504.00 284.00" xmlns="http://www.w3.org/2000/svg" xmlns:xlink="http://www.w3.org/1999/xlink">
<g id="graph0" class="graph" transform="scale(1 1) rotate(0) translate(4 280)">
<title>dependencies</title>
<polygon fill="#ffffff" stroke="transparent" points="-4,4 -4,-280 500,-280 500,4 -4,4"/>
<text text-anchor="start" x="227.0091" y="-42.4" font-family="sans-serif" font-weight="bold" font-size="14.00" fill="#000000">Legend</text>
<polygon fill="#ffffb3" stroke="transparent" points="14,-10 14,-30 34,-30 34,-10 14,-10"/>
<text text-anchor="start" x="37.629" y="-15.4" font-family="sans-serif" font-size="14.00" fill="#000000"> &#160;Declarations</text>
<polygon fill="#8dd3c7" stroke="transparent" points="127,-10 127,-30 147,-30 147,-10 127,-10"/>
<text text-anchor="start" x="150.7251" y="-15.4" font-family="sans-serif" font-size="14.00" fill="#000000"> &#160;Module</text>
<polygon fill="#80b1d3" stroke="transparent" points="213,-10 213,-30 233,-30 233,-10 213,-10"/>
<text text-anchor="start" x="236.7812" y="-15.4" font-family="sans-serif" font-size="14.00" fill="#000000"> &#160;Bootstrap</text>
<polygon fill="#fdb462" stroke="transparent" points="310,-10 310,-30 330,-30 330,-10 310,-10"/>
<text text-anchor="start" x="333.6732" y="-15.4" font-family="sans-serif" font-size="14.00" fill="#000000"> &#160;Providers</text>
<polygon fill="#fb8072" stroke="transparent" points="406,-10 406,-30 426,-30 426,-10 406,-10"/>
<text text-anchor="start" x="429.7258" y="-15.4" font-family="sans-serif" font-size="14.00" fill="#000000"> &#160;Exports</text>
<g id="clust1" class="cluster">
<title>cluster_AtftControlModule</title>
<polygon fill="none" stroke="#000000" stroke-dasharray="1,5" points="62.5,-70 62.5,-268 433.5,-268 433.5,-70 62.5,-70"/>
</g>
<g id="clust2" class="cluster">
<title>cluster_AtftControlModule_declarations</title>
<polygon fill="none" stroke="#000000" points="73.5,-78 73.5,-130 422.5,-130 422.5,-78 73.5,-78"/>
</g>
<g id="clust6" class="cluster">
<title>cluster_AtftControlModule_exports</title>
<polygon fill="none" stroke="#000000" points="70.5,-208 70.5,-260 425.5,-260 425.5,-208 70.5,-208"/>
</g>
<!-- MapControlsComponent -->
<g id="node1" class="node">
<title>MapControlsComponent</title>
<polygon fill="#ffffb3" stroke="#000000" points="414.2147,-122 258.7853,-122 258.7853,-86 414.2147,-86 414.2147,-122"/>
<text text-anchor="middle" x="336.5" y="-99.8" font-family="Times,serif" font-size="14.00" fill="#000000">MapControlsComponent</text>
</g>
<!-- AtftControlModule -->
<g id="node3" class="node">
<title>AtftControlModule</title>
<polygon fill="#8dd3c7" stroke="#000000" points="223.8767,-187 220.8767,-191 199.8767,-191 196.8767,-187 99.1233,-187 99.1233,-151 223.8767,-151 223.8767,-187"/>
<text text-anchor="middle" x="161.5" y="-164.8" font-family="Times,serif" font-size="14.00" fill="#000000">AtftControlModule</text>
</g>
<!-- MapControlsComponent&#45;&gt;AtftControlModule -->
<g id="edge1" class="edge">
<title>MapControlsComponent&#45;&gt;AtftControlModule</title>
<path fill="none" stroke="#000000" d="M362.4524,-122.0225C362.4524,-139.3734 362.4524,-163 362.4524,-163 362.4524,-163 233.9811,-163 233.9811,-163"/>
<polygon fill="#000000" stroke="#000000" points="233.9811,-159.5001 223.9811,-163 233.981,-166.5001 233.9811,-159.5001"/>
</g>
<!-- OrbitControlsComponent -->
<g id="node2" class="node">
<title>OrbitControlsComponent</title>
<polygon fill="#ffffb3" stroke="#000000" points="241.1038,-122 81.8962,-122 81.8962,-86 241.1038,-86 241.1038,-122"/>
<text text-anchor="middle" x="161.5" y="-99.8" font-family="Times,serif" font-size="14.00" fill="#000000">OrbitControlsComponent</text>
</g>
<!-- OrbitControlsComponent&#45;&gt;AtftControlModule -->
<g id="edge2" class="edge">
<title>OrbitControlsComponent&#45;&gt;AtftControlModule</title>
<path fill="none" stroke="#000000" d="M161.5,-122.1061C161.5,-122.1061 161.5,-140.991 161.5,-140.991"/>
<polygon fill="#000000" stroke="#000000" points="158.0001,-140.9909 161.5,-150.991 165.0001,-140.991 158.0001,-140.9909"/>
</g>
<!-- MapControlsComponent  -->
<g id="node4" class="node">
<title>MapControlsComponent </title>
<polygon fill="#fb8072" stroke="#000000" points="417.7149,-252 259.2851,-252 259.2851,-216 417.7149,-216 417.7149,-252"/>
<text text-anchor="middle" x="338.5" y="-229.8" font-family="Times,serif" font-size="14.00" fill="#000000">MapControlsComponent </text>
</g>
<!-- AtftControlModule&#45;&gt;MapControlsComponent  -->
<g id="edge3" class="edge">
<title>AtftControlModule&#45;&gt;MapControlsComponent </title>
<path fill="none" stroke="#000000" stroke-dasharray="5,2" d="M223.9506,-175C264.862,-175 310.7976,-175 310.7976,-175 310.7976,-175 310.7976,-205.9775 310.7976,-205.9775"/>
<polygon fill="#000000" stroke="#000000" points="307.2977,-205.9774 310.7976,-215.9775 314.2977,-205.9775 307.2977,-205.9774"/>
</g>
<!-- OrbitControlsComponent  -->
<g id="node5" class="node">
<title>OrbitControlsComponent </title>
<polygon fill="#fb8072" stroke="#000000" points="240.6043,-252 78.3957,-252 78.3957,-216 240.6043,-216 240.6043,-252"/>
<text text-anchor="middle" x="159.5" y="-229.8" font-family="Times,serif" font-size="14.00" fill="#000000">OrbitControlsComponent </text>
</g>
<!-- AtftControlModule&#45;&gt;OrbitControlsComponent  -->
<g id="edge4" class="edge">
<title>AtftControlModule&#45;&gt;OrbitControlsComponent </title>
<path fill="none" stroke="#000000" stroke-dasharray="5,2" d="M161.5,-187.1061C161.5,-187.1061 161.5,-205.991 161.5,-205.991"/>
<polygon fill="#000000" stroke="#000000" points="158.0001,-205.9909 161.5,-215.991 165.0001,-205.991 158.0001,-205.9909"/>
</g>
</g>
</svg>
