<?xml version="1.0" encoding="UTF-8" standalone="no"?>
<!DOCTYPE svg PUBLIC "-//W3C//DTD SVG 1.1//EN"
 "http://www.w3.org/Graphics/SVG/1.1/DTD/svg11.dtd">
<!-- Generated by graphviz version 2.40.1 (20161225.0304)
 -->
<!-- Title: dependencies Pages: 1 -->
<svg width="934pt" height="284pt"
 viewBox="0.00 0.00 934.00 284.00" xmlns="http://www.w3.org/2000/svg" xmlns:xlink="http://www.w3.org/1999/xlink">
<g id="graph0" class="graph" transform="scale(1 1) rotate(0) translate(4 280)">
<title>dependencies</title>
<polygon fill="#ffffff" stroke="transparent" points="-4,4 -4,-280 930,-280 930,4 -4,4"/>
<text text-anchor="start" x="442.0091" y="-42.4" font-family="sans-serif" font-weight="bold" font-size="14.00" fill="#000000">Legend</text>
<polygon fill="#ffffb3" stroke="transparent" points="229,-10 229,-30 249,-30 249,-10 229,-10"/>
<text text-anchor="start" x="252.629" y="-15.4" font-family="sans-serif" font-size="14.00" fill="#000000"> &#160;Declarations</text>
<polygon fill="#8dd3c7" stroke="transparent" points="342,-10 342,-30 362,-30 362,-10 342,-10"/>
<text text-anchor="start" x="365.7251" y="-15.4" font-family="sans-serif" font-size="14.00" fill="#000000"> &#160;Module</text>
<polygon fill="#80b1d3" stroke="transparent" points="428,-10 428,-30 448,-30 448,-10 428,-10"/>
<text text-anchor="start" x="451.7812" y="-15.4" font-family="sans-serif" font-size="14.00" fill="#000000"> &#160;Bootstrap</text>
<polygon fill="#fdb462" stroke="transparent" points="525,-10 525,-30 545,-30 545,-10 525,-10"/>
<text text-anchor="start" x="548.6732" y="-15.4" font-family="sans-serif" font-size="14.00" fill="#000000"> &#160;Providers</text>
<polygon fill="#fb8072" stroke="transparent" points="621,-10 621,-30 641,-30 641,-10 621,-10"/>
<text text-anchor="start" x="644.7258" y="-15.4" font-family="sans-serif" font-size="14.00" fill="#000000"> &#160;Exports</text>
<g id="clust1" class="cluster">
<title>cluster_AtftEffectModule</title>
<polygon fill="none" stroke="#000000" stroke-dasharray="1,5" points="8,-70 8,-268 918,-268 918,-70 8,-70"/>
</g>
<g id="clust2" class="cluster">
<title>cluster_AtftEffectModule_declarations</title>
<polygon fill="none" stroke="#000000" points="28,-78 28,-130 902,-130 902,-78 28,-78"/>
</g>
<g id="clust10" class="cluster">
<title>cluster_AtftEffectModule_exports</title>
<polygon fill="none" stroke="#000000" points="16,-208 16,-260 910,-260 910,-208 16,-208"/>
</g>
<!-- BlurComponent -->
<g id="node1" class="node">
<title>BlurComponent</title>
<polygon fill="#ffffb3" stroke="#000000" points="894.2204,-122 787.7796,-122 787.7796,-86 894.2204,-86 894.2204,-122"/>
<text text-anchor="middle" x="841" y="-99.8" font-family="Times,serif" font-size="14.00" fill="#000000">BlurComponent</text>
</g>
<!-- AtftEffectModule -->
<g id="node7" class="node">
<title>AtftEffectModule</title>
<polygon fill="#8dd3c7" stroke="#000000" points="481.2922,-187 478.2922,-191 457.2922,-191 454.2922,-187 364.7078,-187 364.7078,-151 481.2922,-151 481.2922,-187"/>
<text text-anchor="middle" x="423" y="-164.8" font-family="Times,serif" font-size="14.00" fill="#000000">AtftEffectModule</text>
</g>
<!-- BlurComponent&#45;&gt;AtftEffectModule -->
<g id="edge1" class="edge">
<title>BlurComponent&#45;&gt;AtftEffectModule</title>
<path fill="none" stroke="#000000" d="M860.12,-122.2222C860.12,-140.8285 860.12,-167 860.12,-167 860.12,-167 491.4984,-167 491.4984,-167"/>
<polygon fill="#000000" stroke="#000000" points="491.4984,-163.5001 481.4984,-167 491.4983,-170.5001 491.4984,-163.5001"/>
</g>
<!-- DashedDrawDirective -->
<g id="node2" class="node">
<title>DashedDrawDirective</title>
<polygon fill="#ffffb3" stroke="#000000" points="769.6517,-122 628.3483,-122 628.3483,-86 769.6517,-86 769.6517,-122"/>
<text text-anchor="middle" x="699" y="-99.8" font-family="Times,serif" font-size="14.00" fill="#000000">DashedDrawDirective</text>
</g>
<!-- DashedDrawDirective&#45;&gt;AtftEffectModule -->
<g id="edge2" class="edge">
<title>DashedDrawDirective&#45;&gt;AtftEffectModule</title>
<path fill="none" stroke="#000000" d="M722.9419,-122.0336C722.9419,-139.0597 722.9419,-162 722.9419,-162 722.9419,-162 491.1875,-162 491.1875,-162"/>
<polygon fill="#000000" stroke="#000000" points="491.1875,-158.5001 481.1875,-162 491.1874,-165.5001 491.1875,-158.5001"/>
</g>
<!-- DofComponent -->
<g id="node3" class="node">
<title>DofComponent</title>
<polygon fill="#ffffb3" stroke="#000000" points="610.5996,-122 507.4004,-122 507.4004,-86 610.5996,-86 610.5996,-122"/>
<text text-anchor="middle" x="559" y="-99.8" font-family="Times,serif" font-size="14.00" fill="#000000">DofComponent</text>
</g>
<!-- DofComponent&#45;&gt;AtftEffectModule -->
<g id="edge3" class="edge">
<title>DofComponent&#45;&gt;AtftEffectModule</title>
<path fill="none" stroke="#000000" d="M541.8167,-122.2396C541.8167,-137.5706 541.8167,-157 541.8167,-157 541.8167,-157 491.3641,-157 491.3641,-157"/>
<polygon fill="#000000" stroke="#000000" points="491.3642,-153.5001 481.3641,-157 491.3641,-160.5001 491.3642,-153.5001"/>
</g>
<!-- DotScreenComponent -->
<g id="node4" class="node">
<title>DotScreenComponent</title>
<polygon fill="#ffffb3" stroke="#000000" points="489.4172,-122 348.5828,-122 348.5828,-86 489.4172,-86 489.4172,-122"/>
<text text-anchor="middle" x="419" y="-99.8" font-family="Times,serif" font-size="14.00" fill="#000000">DotScreenComponent</text>
</g>
<!-- DotScreenComponent&#45;&gt;AtftEffectModule -->
<g id="edge4" class="edge">
<title>DotScreenComponent&#45;&gt;AtftEffectModule</title>
<path fill="none" stroke="#000000" d="M423,-122.1061C423,-122.1061 423,-140.991 423,-140.991"/>
<polygon fill="#000000" stroke="#000000" points="419.5001,-140.9909 423,-150.991 426.5001,-140.991 419.5001,-140.9909"/>
</g>
<!-- EffectComposerComponent -->
<g id="node5" class="node">
<title>EffectComposerComponent</title>
<polygon fill="#ffffb3" stroke="#000000" points="330.573,-122 157.427,-122 157.427,-86 330.573,-86 330.573,-122"/>
<text text-anchor="middle" x="244" y="-99.8" font-family="Times,serif" font-size="14.00" fill="#000000">EffectComposerComponent</text>
</g>
<!-- EffectComposerComponent&#45;&gt;AtftEffectModule -->
<g id="edge5" class="edge">
<title>EffectComposerComponent&#45;&gt;AtftEffectModule</title>
<path fill="none" stroke="#000000" d="M269.3455,-122.0091C269.3455,-138.0494 269.3455,-159 269.3455,-159 269.3455,-159 354.4715,-159 354.4715,-159"/>
<polygon fill="#000000" stroke="#000000" points="354.4715,-162.5001 364.4715,-159 354.4715,-155.5001 354.4715,-162.5001"/>
</g>
<!-- FogComponent -->
<g id="node6" class="node">
<title>FogComponent</title>
<polygon fill="#ffffb3" stroke="#000000" points="139.6151,-122 36.3849,-122 36.3849,-86 139.6151,-86 139.6151,-122"/>
<text text-anchor="middle" x="88" y="-99.8" font-family="Times,serif" font-size="14.00" fill="#000000">FogComponent</text>
</g>
<!-- FogComponent&#45;&gt;AtftEffectModule -->
<g id="edge6" class="edge">
<title>FogComponent&#45;&gt;AtftEffectModule</title>
<path fill="none" stroke="#000000" d="M134.9325,-122.2667C134.9325,-140.5552 134.9325,-166 134.9325,-166 134.9325,-166 354.7052,-166 354.7052,-166"/>
<polygon fill="#000000" stroke="#000000" points="354.7053,-169.5001 364.7052,-166 354.7052,-162.5001 354.7053,-169.5001"/>
</g>
<!-- BlurComponent  -->
<g id="node8" class="node">
<title>BlurComponent </title>
<polygon fill="#fb8072" stroke="#000000" points="901.7206,-252 792.2794,-252 792.2794,-216 901.7206,-216 901.7206,-252"/>
<text text-anchor="middle" x="847" y="-229.8" font-family="Times,serif" font-size="14.00" fill="#000000">BlurComponent </text>
</g>
<!-- AtftEffectModule&#45;&gt;BlurComponent  -->
<g id="edge7" class="edge">
<title>AtftEffectModule&#45;&gt;BlurComponent </title>
<path fill="none" stroke="#000000" stroke-dasharray="5,2" d="M481.188,-172C592.8271,-172 826.13,-172 826.13,-172 826.13,-172 826.13,-205.7333 826.13,-205.7333"/>
<polygon fill="#000000" stroke="#000000" points="822.6301,-205.7333 826.13,-215.7333 829.6301,-205.7333 822.6301,-205.7333"/>
</g>
<!-- DashedDrawDirective  -->
<g id="node9" class="node">
<title>DashedDrawDirective </title>
<polygon fill="#fb8072" stroke="#000000" points="774.152,-252 629.848,-252 629.848,-216 774.152,-216 774.152,-252"/>
<text text-anchor="middle" x="702" y="-229.8" font-family="Times,serif" font-size="14.00" fill="#000000">DashedDrawDirective </text>
</g>
<!-- AtftEffectModule&#45;&gt;DashedDrawDirective  -->
<g id="edge8" class="edge">
<title>AtftEffectModule&#45;&gt;DashedDrawDirective </title>
<path fill="none" stroke="#000000" stroke-dasharray="5,2" d="M481.432,-177C556.24,-177 676.3081,-177 676.3081,-177 676.3081,-177 676.3081,-205.9648 676.3081,-205.9648"/>
<polygon fill="#000000" stroke="#000000" points="672.8082,-205.9648 676.3081,-215.9648 679.8082,-205.9649 672.8082,-205.9648"/>
</g>
<!-- DofComponent  -->
<g id="node10" class="node">
<title>DofComponent </title>
<polygon fill="#fb8072" stroke="#000000" points="611.1003,-252 504.8997,-252 504.8997,-216 611.1003,-216 611.1003,-252"/>
<text text-anchor="middle" x="558" y="-229.8" font-family="Times,serif" font-size="14.00" fill="#000000">DofComponent </text>
</g>
<!-- AtftEffectModule&#45;&gt;DofComponent  -->
<g id="edge9" class="edge">
<title>AtftEffectModule&#45;&gt;DofComponent </title>
<path fill="none" stroke="#000000" stroke-dasharray="5,2" d="M481.349,-182C524.6385,-182 576.1833,-182 576.1833,-182 576.1833,-182 576.1833,-205.8129 576.1833,-205.8129"/>
<polygon fill="#000000" stroke="#000000" points="572.6834,-205.8129 576.1833,-215.8129 579.6834,-205.813 572.6834,-205.8129"/>
</g>
<!-- DotScreenComponent  -->
<g id="node11" class="node">
<title>DotScreenComponent </title>
<polygon fill="#fb8072" stroke="#000000" points="486.9166,-252 343.0834,-252 343.0834,-216 486.9166,-216 486.9166,-252"/>
<text text-anchor="middle" x="415" y="-229.8" font-family="Times,serif" font-size="14.00" fill="#000000">DotScreenComponent </text>
</g>
<!-- AtftEffectModule&#45;&gt;DotScreenComponent  -->
<g id="edge10" class="edge">
<title>AtftEffectModule&#45;&gt;DotScreenComponent </title>
<path fill="none" stroke="#000000" stroke-dasharray="5,2" d="M423,-187.1061C423,-187.1061 423,-205.991 423,-205.991"/>
<polygon fill="#000000" stroke="#000000" points="419.5001,-205.9909 423,-215.991 426.5001,-205.991 419.5001,-205.9909"/>
</g>
<!-- EffectComposerComponent  -->
<g id="node12" class="node">
<title>EffectComposerComponent </title>
<polygon fill="#fb8072" stroke="#000000" points="325.0735,-252 148.9265,-252 148.9265,-216 325.0735,-216 325.0735,-252"/>
<text text-anchor="middle" x="237" y="-229.8" font-family="Times,serif" font-size="14.00" fill="#000000">EffectComposerComponent </text>
</g>
<!-- AtftEffectModule&#45;&gt;EffectComposerComponent  -->
<g id="edge11" class="edge">
<title>AtftEffectModule&#45;&gt;EffectComposerComponent </title>
<path fill="none" stroke="#000000" stroke-dasharray="5,2" d="M364.616,-180C302.5984,-180 213.4045,-180 213.4045,-180 213.4045,-180 213.4045,-205.7181 213.4045,-205.7181"/>
<polygon fill="#000000" stroke="#000000" points="209.9046,-205.718 213.4045,-215.7181 216.9046,-205.7181 209.9046,-205.718"/>
</g>
<!-- FogComponent  -->
<g id="node13" class="node">
<title>FogComponent </title>
<polygon fill="#fb8072" stroke="#000000" points="130.1157,-252 23.8843,-252 23.8843,-216 130.1157,-216 130.1157,-252"/>
<text text-anchor="middle" x="77" y="-229.8" font-family="Times,serif" font-size="14.00" fill="#000000">FogComponent </text>
</g>
<!-- AtftEffectModule&#45;&gt;FogComponent  -->
<g id="edge12" class="edge">
<title>AtftEffectModule&#45;&gt;FogComponent </title>
<path fill="none" stroke="#000000" stroke-dasharray="5,2" d="M364.6164,-173C267.5126,-173 83.375,-173 83.375,-173 83.375,-173 83.375,-205.698 83.375,-205.698"/>
<polygon fill="#000000" stroke="#000000" points="79.8751,-205.698 83.375,-215.698 86.8751,-205.698 79.8751,-205.698"/>
</g>
</g>
</svg>
