<?xml version="1.0" encoding="UTF-8" standalone="no"?>
<!DOCTYPE svg PUBLIC "-//W3C//DTD SVG 1.1//EN"
 "http://www.w3.org/Graphics/SVG/1.1/DTD/svg11.dtd">
<!-- Generated by graphviz version 2.47.3 (20210619.1520)
 -->
<!-- Title: dependencies Pages: 1 -->
<svg width="934pt" height="247pt"
 viewBox="0.00 0.00 934.00 246.80" xmlns="http://www.w3.org/2000/svg" xmlns:xlink="http://www.w3.org/1999/xlink">
<g id="graph0" class="graph" transform="scale(1 1) rotate(0) translate(4 242.8)">
<title>dependencies</title>
<polygon fill="white" stroke="transparent" points="-4,4 -4,-242.8 930,-242.8 930,4 -4,4"/>
<text text-anchor="middle" x="463" y="-8.2" font-family="sans-serif" font-size="14.00">dependencies</text>
<g id="clust1" class="cluster">
<title>cluster_AtftEffectModule</title>
<polygon fill="none" stroke="black" stroke-dasharray="1,5" points="8,-32.8 8,-230.8 918,-230.8 918,-32.8 8,-32.8"/>
</g>
<g id="clust10" class="cluster">
<title>cluster_AtftEffectModule_exports</title>
<polygon fill="none" stroke="black" points="16,-170.8 16,-222.8 910,-222.8 910,-170.8 16,-170.8"/>
</g>
<g id="clust2" class="cluster">
<title>cluster_AtftEffectModule_declarations</title>
<polygon fill="none" stroke="black" points="28,-40.8 28,-92.8 902,-92.8 902,-40.8 28,-40.8"/>
</g>
<!-- BlurComponent -->
<g id="node1" class="node">
<title>BlurComponent</title>
<polygon fill="#ffffb3" stroke="black" points="894.22,-84.8 787.78,-84.8 787.78,-48.8 894.22,-48.8 894.22,-84.8"/>
<text text-anchor="middle" x="841" y="-62.6" font-family="Times,serif" font-size="14.00">BlurComponent</text>
</g>
<!-- AtftEffectModule -->
<g id="node7" class="node">
<title>AtftEffectModule</title>
<polygon fill="#8dd3c7" stroke="black" points="481.29,-149.8 478.29,-153.8 457.29,-153.8 454.29,-149.8 364.71,-149.8 364.71,-113.8 481.29,-113.8 481.29,-149.8"/>
<text text-anchor="middle" x="423" y="-127.6" font-family="Times,serif" font-size="14.00">AtftEffectModule</text>
</g>
<!-- BlurComponent&#45;&gt;AtftEffectModule -->
<g id="edge1" class="edge">
<title>BlurComponent&#45;&gt;AtftEffectModule</title>
<path fill="none" stroke="black" d="M860.12,-85.02C860.12,-103.63 860.12,-129.8 860.12,-129.8 860.12,-129.8 491.5,-129.8 491.5,-129.8"/>
<polygon fill="black" stroke="black" points="491.5,-126.3 481.5,-129.8 491.5,-133.3 491.5,-126.3"/>
</g>
<!-- DashedDrawDirective -->
<g id="node2" class="node">
<title>DashedDrawDirective</title>
<polygon fill="#ffffb3" stroke="black" points="769.65,-84.8 628.35,-84.8 628.35,-48.8 769.65,-48.8 769.65,-84.8"/>
<text text-anchor="middle" x="699" y="-62.6" font-family="Times,serif" font-size="14.00">DashedDrawDirective</text>
</g>
<!-- DashedDrawDirective&#45;&gt;AtftEffectModule -->
<g id="edge2" class="edge">
<title>DashedDrawDirective&#45;&gt;AtftEffectModule</title>
<path fill="none" stroke="black" d="M722.94,-84.83C722.94,-101.86 722.94,-124.8 722.94,-124.8 722.94,-124.8 491.19,-124.8 491.19,-124.8"/>
<polygon fill="black" stroke="black" points="491.19,-121.3 481.19,-124.8 491.19,-128.3 491.19,-121.3"/>
</g>
<!-- DofComponent -->
<g id="node3" class="node">
<title>DofComponent</title>
<polygon fill="#ffffb3" stroke="black" points="610.6,-84.8 507.4,-84.8 507.4,-48.8 610.6,-48.8 610.6,-84.8"/>
<text text-anchor="middle" x="559" y="-62.6" font-family="Times,serif" font-size="14.00">DofComponent</text>
</g>
<!-- DofComponent&#45;&gt;AtftEffectModule -->
<g id="edge3" class="edge">
<title>DofComponent&#45;&gt;AtftEffectModule</title>
<path fill="none" stroke="black" d="M541.82,-85.04C541.82,-100.37 541.82,-119.8 541.82,-119.8 541.82,-119.8 491.36,-119.8 491.36,-119.8"/>
<polygon fill="black" stroke="black" points="491.36,-116.3 481.36,-119.8 491.36,-123.3 491.36,-116.3"/>
</g>
<!-- DotScreenComponent -->
<g id="node4" class="node">
<title>DotScreenComponent</title>
<polygon fill="#ffffb3" stroke="black" points="489.42,-84.8 348.58,-84.8 348.58,-48.8 489.42,-48.8 489.42,-84.8"/>
<text text-anchor="middle" x="419" y="-62.6" font-family="Times,serif" font-size="14.00">DotScreenComponent</text>
</g>
<!-- DotScreenComponent&#45;&gt;AtftEffectModule -->
<g id="edge4" class="edge">
<title>DotScreenComponent&#45;&gt;AtftEffectModule</title>
<path fill="none" stroke="black" d="M423,-84.91C423,-84.91 423,-103.79 423,-103.79"/>
<polygon fill="black" stroke="black" points="419.5,-103.79 423,-113.79 426.5,-103.79 419.5,-103.79"/>
</g>
<!-- EffectComposerComponent -->
<g id="node5" class="node">
<title>EffectComposerComponent</title>
<polygon fill="#ffffb3" stroke="black" points="330.57,-84.8 157.43,-84.8 157.43,-48.8 330.57,-48.8 330.57,-84.8"/>
<text text-anchor="middle" x="244" y="-62.6" font-family="Times,serif" font-size="14.00">EffectComposerComponent</text>
</g>
<!-- EffectComposerComponent&#45;&gt;AtftEffectModule -->
<g id="edge5" class="edge">
<title>EffectComposerComponent&#45;&gt;AtftEffectModule</title>
<path fill="none" stroke="black" d="M269.35,-84.81C269.35,-100.85 269.35,-121.8 269.35,-121.8 269.35,-121.8 354.47,-121.8 354.47,-121.8"/>
<polygon fill="black" stroke="black" points="354.47,-125.3 364.47,-121.8 354.47,-118.3 354.47,-125.3"/>
</g>
<!-- FogComponent -->
<g id="node6" class="node">
<title>FogComponent</title>
<polygon fill="#ffffb3" stroke="black" points="139.62,-84.8 36.38,-84.8 36.38,-48.8 139.62,-48.8 139.62,-84.8"/>
<text text-anchor="middle" x="88" y="-62.6" font-family="Times,serif" font-size="14.00">FogComponent</text>
</g>
<!-- FogComponent&#45;&gt;AtftEffectModule -->
<g id="edge6" class="edge">
<title>FogComponent&#45;&gt;AtftEffectModule</title>
<path fill="none" stroke="black" d="M134.93,-85.07C134.93,-103.36 134.93,-128.8 134.93,-128.8 134.93,-128.8 354.71,-128.8 354.71,-128.8"/>
<polygon fill="black" stroke="black" points="354.71,-132.3 364.71,-128.8 354.71,-125.3 354.71,-132.3"/>
</g>
<!-- BlurComponent  -->
<g id="node8" class="node">
<title>BlurComponent </title>
<polygon fill="#fb8072" stroke="black" points="901.72,-214.8 792.28,-214.8 792.28,-178.8 901.72,-178.8 901.72,-214.8"/>
<text text-anchor="middle" x="847" y="-192.6" font-family="Times,serif" font-size="14.00">BlurComponent </text>
</g>
<!-- AtftEffectModule&#45;&gt;BlurComponent  -->
<g id="edge7" class="edge">
<title>AtftEffectModule&#45;&gt;BlurComponent </title>
<path fill="none" stroke="black" stroke-dasharray="5,2" d="M481.19,-134.8C592.83,-134.8 826.13,-134.8 826.13,-134.8 826.13,-134.8 826.13,-168.53 826.13,-168.53"/>
<polygon fill="black" stroke="black" points="822.63,-168.53 826.13,-178.53 829.63,-168.53 822.63,-168.53"/>
</g>
<!-- DashedDrawDirective  -->
<g id="node9" class="node">
<title>DashedDrawDirective </title>
<polygon fill="#fb8072" stroke="black" points="774.15,-214.8 629.85,-214.8 629.85,-178.8 774.15,-178.8 774.15,-214.8"/>
<text text-anchor="middle" x="702" y="-192.6" font-family="Times,serif" font-size="14.00">DashedDrawDirective </text>
</g>
<!-- AtftEffectModule&#45;&gt;DashedDrawDirective  -->
<g id="edge8" class="edge">
<title>AtftEffectModule&#45;&gt;DashedDrawDirective </title>
<path fill="none" stroke="black" stroke-dasharray="5,2" d="M481.43,-139.8C556.24,-139.8 676.31,-139.8 676.31,-139.8 676.31,-139.8 676.31,-168.76 676.31,-168.76"/>
<polygon fill="black" stroke="black" points="672.81,-168.76 676.31,-178.76 679.81,-168.76 672.81,-168.76"/>
</g>
<!-- DofComponent  -->
<g id="node10" class="node">
<title>DofComponent </title>
<polygon fill="#fb8072" stroke="black" points="611.1,-214.8 504.9,-214.8 504.9,-178.8 611.1,-178.8 611.1,-214.8"/>
<text text-anchor="middle" x="558" y="-192.6" font-family="Times,serif" font-size="14.00">DofComponent </text>
</g>
<!-- AtftEffectModule&#45;&gt;DofComponent  -->
<g id="edge9" class="edge">
<title>AtftEffectModule&#45;&gt;DofComponent </title>
<path fill="none" stroke="black" stroke-dasharray="5,2" d="M481.35,-144.8C524.64,-144.8 576.18,-144.8 576.18,-144.8 576.18,-144.8 576.18,-168.61 576.18,-168.61"/>
<polygon fill="black" stroke="black" points="572.68,-168.61 576.18,-178.61 579.68,-168.61 572.68,-168.61"/>
</g>
<!-- DotScreenComponent  -->
<g id="node11" class="node">
<title>DotScreenComponent </title>
<polygon fill="#fb8072" stroke="black" points="486.92,-214.8 343.08,-214.8 343.08,-178.8 486.92,-178.8 486.92,-214.8"/>
<text text-anchor="middle" x="415" y="-192.6" font-family="Times,serif" font-size="14.00">DotScreenComponent </text>
</g>
<!-- AtftEffectModule&#45;&gt;DotScreenComponent  -->
<g id="edge10" class="edge">
<title>AtftEffectModule&#45;&gt;DotScreenComponent </title>
<path fill="none" stroke="black" stroke-dasharray="5,2" d="M423,-149.91C423,-149.91 423,-168.79 423,-168.79"/>
<polygon fill="black" stroke="black" points="419.5,-168.79 423,-178.79 426.5,-168.79 419.5,-168.79"/>
</g>
<!-- EffectComposerComponent  -->
<g id="node12" class="node">
<title>EffectComposerComponent </title>
<polygon fill="#fb8072" stroke="black" points="325.07,-214.8 148.93,-214.8 148.93,-178.8 325.07,-178.8 325.07,-214.8"/>
<text text-anchor="middle" x="237" y="-192.6" font-family="Times,serif" font-size="14.00">EffectComposerComponent </text>
</g>
<!-- AtftEffectModule&#45;&gt;EffectComposerComponent  -->
<g id="edge11" class="edge">
<title>AtftEffectModule&#45;&gt;EffectComposerComponent </title>
<path fill="none" stroke="black" stroke-dasharray="5,2" d="M364.62,-142.8C302.6,-142.8 213.4,-142.8 213.4,-142.8 213.4,-142.8 213.4,-168.52 213.4,-168.52"/>
<polygon fill="black" stroke="black" points="209.9,-168.52 213.4,-178.52 216.9,-168.52 209.9,-168.52"/>
</g>
<!-- FogComponent  -->
<g id="node13" class="node">
<title>FogComponent </title>
<polygon fill="#fb8072" stroke="black" points="130.12,-214.8 23.88,-214.8 23.88,-178.8 130.12,-178.8 130.12,-214.8"/>
<text text-anchor="middle" x="77" y="-192.6" font-family="Times,serif" font-size="14.00">FogComponent </text>
</g>
<!-- AtftEffectModule&#45;&gt;FogComponent  -->
<g id="edge12" class="edge">
<title>AtftEffectModule&#45;&gt;FogComponent </title>
<path fill="none" stroke="black" stroke-dasharray="5,2" d="M364.62,-135.8C267.51,-135.8 83.38,-135.8 83.38,-135.8 83.38,-135.8 83.38,-168.5 83.38,-168.5"/>
<polygon fill="black" stroke="black" points="79.88,-168.5 83.38,-178.5 86.88,-168.5 79.88,-168.5"/>
</g>
</g>
</svg>
